<?xml version="1.0" encoding="UTF-8" standalone="no"?>
<!DOCTYPE svg PUBLIC "-//W3C//DTD SVG 1.1//EN"
 "http://www.w3.org/Graphics/SVG/1.1/DTD/svg11.dtd">
<!-- Generated by graphviz version 2.40.1 (20161225.0304)
 -->
<!-- Title: std_types.h Pages: 1 -->
<svg width="2413pt" height="364pt"
 viewBox="0.00 0.00 2413.48 364.00" xmlns="http://www.w3.org/2000/svg" xmlns:xlink="http://www.w3.org/1999/xlink">
<g id="graph0" class="graph" transform="scale(1 1) rotate(0) translate(4 360)">
<title>std_types.h</title>
<polygon fill="#ffffff" stroke="transparent" points="-4,4 -4,-360 2409.4828,-360 2409.4828,4 -4,4"/>
<!-- Node4 -->
<g id="node1" class="node">
<title>Node4</title>
<polygon fill="#bfbfbf" stroke="#000000" points="630.9828,-336.5 630.9828,-355.5 703.9828,-355.5 703.9828,-336.5 630.9828,-336.5"/>
<text text-anchor="middle" x="667.4828" y="-343.5" font-family="Helvetica,sans-Serif" font-size="10.00" fill="#000000">std_types.h</text>
</g>
<!-- Node5 -->
<g id="node2" class="node">
<title>Node5</title>
<g id="a_node2"><a xlink:href="arch_2arm32-linux_2odp_2api_2abi_2std__types_8h_source.html" target="_top" xlink:title="std_types.h">
<polygon fill="#ffffff" stroke="#000000" points="357.9828,-280.5 357.9828,-299.5 430.9828,-299.5 430.9828,-280.5 357.9828,-280.5"/>
<text text-anchor="middle" x="394.4828" y="-287.5" font-family="Helvetica,sans-Serif" font-size="10.00" fill="#000000">std_types.h</text>
</a>
</g>
</g>
<!-- Node4&#45;&gt;Node5 -->
<g id="edge1" class="edge">
<title>Node4&#45;&gt;Node5</title>
<path fill="none" stroke="#191970" d="M620.7146,-336.8425C574.5872,-327.7449 502.1001,-313.2728 439.4828,-300 436.8209,-299.4358 434.0723,-298.845 431.307,-298.2447"/>
<polygon fill="#191970" stroke="#191970" points="620.2246,-340.3132 630.7125,-338.8116 621.5773,-333.4451 620.2246,-340.3132"/>
</g>
<!-- Node6 -->
<g id="node3" class="node">
<title>Node6</title>
<g id="a_node3"><a xlink:href="arch_2arm64-linux_2odp_2api_2abi_2std__types_8h_source.html" target="_top" xlink:title="std_types.h">
<polygon fill="#ffffff" stroke="#000000" points="448.9828,-280.5 448.9828,-299.5 521.9828,-299.5 521.9828,-280.5 448.9828,-280.5"/>
<text text-anchor="middle" x="485.4828" y="-287.5" font-family="Helvetica,sans-Serif" font-size="10.00" fill="#000000">std_types.h</text>
</a>
</g>
</g>
<!-- Node4&#45;&gt;Node6 -->
<g id="edge2" class="edge">
<title>Node4&#45;&gt;Node6</title>
<path fill="none" stroke="#191970" d="M626.2842,-333.3235C592.907,-323.0536 546.6129,-308.8093 516.3615,-299.5011"/>
<polygon fill="#191970" stroke="#191970" points="625.6088,-336.7776 636.1959,-336.3733 627.6675,-330.0871 625.6088,-336.7776"/>
</g>
<!-- Node7 -->
<g id="node4" class="node">
<title>Node7</title>
<g id="a_node4"><a xlink:href="arch_2default-linux_2odp_2api_2abi_2std__types_8h_source.html" target="_top" xlink:title="std_types.h">
<polygon fill="#ffffff" stroke="#000000" points="539.9828,-280.5 539.9828,-299.5 612.9828,-299.5 612.9828,-280.5 539.9828,-280.5"/>
<text text-anchor="middle" x="576.4828" y="-287.5" font-family="Helvetica,sans-Serif" font-size="10.00" fill="#000000">std_types.h</text>
</a>
</g>
</g>
<!-- Node4&#45;&gt;Node7 -->
<g id="edge3" class="edge">
<title>Node4&#45;&gt;Node7</title>
<path fill="none" stroke="#191970" d="M642.7324,-330.769C626.607,-320.8456 606.0568,-308.1994 592.1522,-299.6427"/>
<polygon fill="#191970" stroke="#191970" points="641.2809,-333.9853 651.6318,-336.2455 644.9496,-328.0237 641.2809,-333.9853"/>
</g>
<!-- Node8 -->
<g id="node5" class="node">
<title>Node8</title>
<g id="a_node5"><a xlink:href="arch_2mips64-linux_2odp_2api_2abi_2std__types_8h_source.html" target="_top" xlink:title="std_types.h">
<polygon fill="#ffffff" stroke="#000000" points="630.9828,-280.5 630.9828,-299.5 703.9828,-299.5 703.9828,-280.5 630.9828,-280.5"/>
<text text-anchor="middle" x="667.4828" y="-287.5" font-family="Helvetica,sans-Serif" font-size="10.00" fill="#000000">std_types.h</text>
</a>
</g>
</g>
<!-- Node4&#45;&gt;Node8 -->
<g id="edge4" class="edge">
<title>Node4&#45;&gt;Node8</title>
<path fill="none" stroke="#191970" d="M667.4828,-326.1575C667.4828,-317.155 667.4828,-306.9199 667.4828,-299.6427"/>
<polygon fill="#191970" stroke="#191970" points="663.9829,-326.2455 667.4828,-336.2455 670.9829,-326.2456 663.9829,-326.2455"/>
</g>
<!-- Node9 -->
<g id="node6" class="node">
<title>Node9</title>
<g id="a_node6"><a xlink:href="arch_2power64-linux_2odp_2api_2abi_2std__types_8h_source.html" target="_top" xlink:title="std_types.h">
<polygon fill="#ffffff" stroke="#000000" points="721.9828,-280.5 721.9828,-299.5 794.9828,-299.5 794.9828,-280.5 721.9828,-280.5"/>
<text text-anchor="middle" x="758.4828" y="-287.5" font-family="Helvetica,sans-Serif" font-size="10.00" fill="#000000">std_types.h</text>
</a>
</g>
</g>
<!-- Node4&#45;&gt;Node9 -->
<g id="edge5" class="edge">
<title>Node4&#45;&gt;Node9</title>
<path fill="none" stroke="#191970" d="M692.2332,-330.769C708.3587,-320.8456 728.9088,-308.1994 742.8135,-299.6427"/>
<polygon fill="#191970" stroke="#191970" points="690.0161,-328.0237 683.3338,-336.2455 693.6848,-333.9853 690.0161,-328.0237"/>
</g>
<!-- Node10 -->
<g id="node7" class="node">
<title>Node10</title>
<g id="a_node7"><a xlink:href="arch_2x86__32-linux_2odp_2api_2abi_2std__types_8h_source.html" target="_top" xlink:title="std_types.h">
<polygon fill="#ffffff" stroke="#000000" points="812.9828,-280.5 812.9828,-299.5 885.9828,-299.5 885.9828,-280.5 812.9828,-280.5"/>
<text text-anchor="middle" x="849.4828" y="-287.5" font-family="Helvetica,sans-Serif" font-size="10.00" fill="#000000">std_types.h</text>
</a>
</g>
</g>
<!-- Node4&#45;&gt;Node10 -->
<g id="edge6" class="edge">
<title>Node4&#45;&gt;Node10</title>
<path fill="none" stroke="#191970" d="M708.6814,-333.3235C742.0587,-323.0536 788.3528,-308.8093 818.6042,-299.5011"/>
<polygon fill="#191970" stroke="#191970" points="707.2982,-330.0871 698.7698,-336.3733 709.3569,-336.7776 707.2982,-330.0871"/>
</g>
<!-- Node11 -->
<g id="node8" class="node">
<title>Node11</title>
<g id="a_node8"><a xlink:href="arch_2x86__64-linux_2odp_2api_2abi_2std__types_8h_source.html" target="_top" xlink:title="std_types.h">
<polygon fill="#ffffff" stroke="#000000" points="903.9828,-280.5 903.9828,-299.5 976.9828,-299.5 976.9828,-280.5 903.9828,-280.5"/>
<text text-anchor="middle" x="940.4828" y="-287.5" font-family="Helvetica,sans-Serif" font-size="10.00" fill="#000000">std_types.h</text>
</a>
</g>
</g>
<!-- Node4&#45;&gt;Node11 -->
<g id="edge7" class="edge">
<title>Node4&#45;&gt;Node11</title>
<path fill="none" stroke="#191970" d="M714.0305,-336.7673C759.9441,-327.6132 832.1048,-313.0998 894.4828,-300 897.5221,-299.3617 900.6727,-298.6926 903.8345,-298.0159"/>
<polygon fill="#191970" stroke="#191970" points="713.2028,-333.3633 704.0791,-338.7493 714.5702,-340.2284 713.2028,-333.3633"/>
</g>
<!-- Node12 -->
<g id="node9" class="node">
<title>Node12</title>
<g id="a_node9"><a xlink:href="api_2std__clib_8h_source.html" target="_top" xlink:title="std_clib.h">
<polygon fill="#ffffff" stroke="#000000" points="563.9828,-224.5 563.9828,-243.5 626.9828,-243.5 626.9828,-224.5 563.9828,-224.5"/>
<text text-anchor="middle" x="595.4828" y="-231.5" font-family="Helvetica,sans-Serif" font-size="10.00" fill="#000000">std_clib.h</text>
</a>
</g>
</g>
<!-- Node11&#45;&gt;Node12 -->
<g id="edge8" class="edge">
<title>Node11&#45;&gt;Node12</title>
<path fill="none" stroke="#191970" d="M893.8593,-279.9787C790.2251,-260.9827 679.9471,-245.3958 627.015,-238.2019"/>
<polygon fill="#191970" stroke="#191970" points="893.396,-283.4522 903.8655,-281.8274 894.6679,-276.5687 893.396,-283.4522"/>
</g>
<!-- Node15 -->
<g id="node12" class="node">
<title>Node15</title>
<g id="a_node12"><a xlink:href="api_2std__types_8h.html" target="_top" xlink:title="Standard C language types and definitions for ODP. ">
<polygon fill="#ffffff" stroke="#000000" points="1248.9828,-224.5 1248.9828,-243.5 1321.9828,-243.5 1321.9828,-224.5 1248.9828,-224.5"/>
<text text-anchor="middle" x="1285.4828" y="-231.5" font-family="Helvetica,sans-Serif" font-size="10.00" fill="#000000">std_types.h</text>
</a>
</g>
</g>
<!-- Node11&#45;&gt;Node15 -->
<g id="edge11" class="edge">
<title>Node11&#45;&gt;Node15</title>
<path fill="none" stroke="#191970" d="M987.2851,-282.4031C1056.7306,-271.1308 1185.6332,-250.2075 1248.7444,-239.9633"/>
<polygon fill="#191970" stroke="#191970" points="986.3873,-279.003 977.0773,-284.06 987.5089,-285.9125 986.3873,-279.003"/>
</g>
<!-- Node13 -->
<g id="node10" class="node">
<title>Node13</title>
<g id="a_node10"><a xlink:href="odp__api_8h.html" target="_top" xlink:title="The OpenDataPlane API. ">
<polygon fill="#ffffff" stroke="#000000" points="1315.4828,-56.5 1315.4828,-75.5 1379.4828,-75.5 1379.4828,-56.5 1315.4828,-56.5"/>
<text text-anchor="middle" x="1347.4828" y="-63.5" font-family="Helvetica,sans-Serif" font-size="10.00" fill="#000000">odp_api.h</text>
</a>
</g>
</g>
<!-- Node12&#45;&gt;Node13 -->
<g id="edge9" class="edge">
<title>Node12&#45;&gt;Node13</title>
<path fill="none" stroke="#191970" d="M553.4731,-233.0306C447.6732,-230.1395 172.6293,-219.7084 87.4828,-188 42.1243,-171.1086 -24.1492,-146.8081 9.4828,-112 32.9135,-87.7499 1113.9224,-69.6568 1315.3521,-66.4929"/>
<polygon fill="#191970" stroke="#191970" points="553.6713,-236.537 563.7603,-233.3024 553.8562,-229.5395 553.6713,-236.537"/>
</g>
<!-- Node14 -->
<g id="node11" class="node">
<title>Node14</title>
<g id="a_node11"><a xlink:href="odp_8h.html" target="_top" xlink:title="WARNING: THIS FILE IS DEPRECATED AND WILL BE REMOVED!!! ODP APPLICATIONS SHOULD NOW INCLUDE odp_api...">
<polygon fill="#ffffff" stroke="#000000" points="1325.4828,-.5 1325.4828,-19.5 1369.4828,-19.5 1369.4828,-.5 1325.4828,-.5"/>
<text text-anchor="middle" x="1347.4828" y="-7.5" font-family="Helvetica,sans-Serif" font-size="10.00" fill="#000000">odp.h</text>
</a>
</g>
</g>
<!-- Node13&#45;&gt;Node14 -->
<g id="edge10" class="edge">
<title>Node13&#45;&gt;Node14</title>
<path fill="none" stroke="#191970" d="M1347.4828,-46.1575C1347.4828,-37.155 1347.4828,-26.9199 1347.4828,-19.6427"/>
<polygon fill="#191970" stroke="#191970" points="1343.9829,-46.2455 1347.4828,-56.2455 1350.9829,-46.2456 1343.9829,-46.2455"/>
</g>
<!-- Node15&#45;&gt;Node13 -->
<g id="edge64" class="edge">
<title>Node15&#45;&gt;Node13</title>
<path fill="none" stroke="#191970" d="M1266.9255,-217.1273C1242.353,-192.7001 1204.7459,-146.6243 1228.4828,-112 1238.6275,-97.2024 1283.5866,-82.7122 1315.2356,-74.0661"/>
<polygon fill="#191970" stroke="#191970" points="1264.7134,-219.8554 1274.3513,-224.2555 1269.561,-214.8055 1264.7134,-219.8554"/>
</g>
<!-- Node16 -->
<g id="node13" class="node">
<title>Node16</title>
<g id="a_node13"><a xlink:href="api_2abi-default_2atomic_8h.html" target="_top" xlink:title="ODP atomic operations. ">
<polygon fill="#ffffff" stroke="#ff0000" points="122.9828,-168.5 122.9828,-187.5 181.9828,-187.5 181.9828,-168.5 122.9828,-168.5"/>
<text text-anchor="middle" x="152.4828" y="-175.5" font-family="Helvetica,sans-Serif" font-size="10.00" fill="#000000">atomic.h</text>
</a>
</g>
</g>
<!-- Node15&#45;&gt;Node16 -->
<g id="edge12" class="edge">
<title>Node15&#45;&gt;Node16</title>
<path fill="none" stroke="#191970" d="M1238.8385,-233.3774C1057.2532,-230.7466 397.4233,-219.2028 190.4828,-188 187.7846,-187.5932 185.0018,-187.0693 182.2268,-186.475"/>
<polygon fill="#191970" stroke="#191970" points="1238.8172,-236.8774 1248.8662,-233.5206 1238.9172,-229.8781 1238.8172,-236.8774"/>
</g>
<!-- Node25 -->
<g id="node19" class="node">
<title>Node25</title>
<g id="a_node19"><a xlink:href="api_2abi-default_2barrier_8h.html" target="_top" xlink:title="ODP barrier. ">
<polygon fill="#ffffff" stroke="#ff0000" points="199.9828,-168.5 199.9828,-187.5 256.9828,-187.5 256.9828,-168.5 199.9828,-168.5"/>
<text text-anchor="middle" x="228.4828" y="-175.5" font-family="Helvetica,sans-Serif" font-size="10.00" fill="#000000">barrier.h</text>
</a>
</g>
</g>
<!-- Node15&#45;&gt;Node25 -->
<g id="edge18" class="edge">
<title>Node15&#45;&gt;Node25</title>
<path fill="none" stroke="#191970" d="M1238.6898,-233.2057C1065.0452,-230.0532 457.7769,-217.1496 266.4828,-188 263.5155,-187.5478 260.4456,-186.9557 257.3961,-186.285"/>
<polygon fill="#191970" stroke="#191970" points="1238.7203,-236.7067 1248.7815,-233.3867 1238.846,-229.7078 1238.7203,-236.7067"/>
</g>
<!-- Node61 -->
<g id="node20" class="node">
<title>Node61</title>
<g id="a_node20"><a xlink:href="api_2abi-default_2byteorder_8h.html" target="_top" xlink:title="ODP byteorder. ">
<polygon fill="#ffffff" stroke="#ff0000" points="275.4828,-168.5 275.4828,-187.5 347.4828,-187.5 347.4828,-168.5 275.4828,-168.5"/>
<text text-anchor="middle" x="311.4828" y="-175.5" font-family="Helvetica,sans-Serif" font-size="10.00" fill="#000000">byteorder.h</text>
</a>
</g>
</g>
<!-- Node15&#45;&gt;Node61 -->
<g id="edge19" class="edge">
<title>Node15&#45;&gt;Node61</title>
<path fill="none" stroke="#191970" d="M1238.5992,-232.729C1074.9743,-228.1289 529.8139,-211.3791 356.4828,-188 353.6276,-187.6149 350.6855,-187.1403 347.7374,-186.6091"/>
<polygon fill="#191970" stroke="#191970" points="1238.7233,-236.2337 1248.8172,-233.0144 1238.9188,-229.2364 1238.7233,-236.2337"/>
</g>
<!-- Node70 -->
<g id="node21" class="node">
<title>Node70</title>
<g id="a_node21"><a xlink:href="api_2abi-default_2cpumask_8h.html" target="_top" xlink:title="ODP CPU masks and enumeration. ">
<polygon fill="#ffffff" stroke="#ff0000" points="365.4828,-168.5 365.4828,-187.5 435.4828,-187.5 435.4828,-168.5 365.4828,-168.5"/>
<text text-anchor="middle" x="400.4828" y="-175.5" font-family="Helvetica,sans-Serif" font-size="10.00" fill="#000000">cpumask.h</text>
</a>
</g>
</g>
<!-- Node15&#45;&gt;Node70 -->
<g id="edge20" class="edge">
<title>Node15&#45;&gt;Node70</title>
<path fill="none" stroke="#191970" d="M1238.7396,-232.4842C1085.5873,-227.3541 599.846,-209.7451 444.4828,-188 441.6899,-187.6091 438.8124,-187.1304 435.9293,-186.5963"/>
<polygon fill="#191970" stroke="#191970" points="1238.6507,-235.9831 1248.7617,-232.8179 1238.8838,-228.9869 1238.6507,-235.9831"/>
</g>
<!-- Node94 -->
<g id="node22" class="node">
<title>Node94</title>
<g id="a_node22"><a xlink:href="api_2abi-default_2init_8h.html" target="_top" xlink:title="ODP initialization. ">
<polygon fill="#ffffff" stroke="#ff0000" points="453.9828,-168.5 453.9828,-187.5 494.9828,-187.5 494.9828,-168.5 453.9828,-168.5"/>
<text text-anchor="middle" x="474.4828" y="-175.5" font-family="Helvetica,sans-Serif" font-size="10.00" fill="#000000">init.h</text>
</a>
</g>
</g>
<!-- Node15&#45;&gt;Node94 -->
<g id="edge21" class="edge">
<title>Node15&#45;&gt;Node94</title>
<path fill="none" stroke="#191970" d="M1238.5702,-232.9188C1092.2444,-229.2825 645.5126,-216.1124 503.4828,-188 500.7662,-187.4623 497.9567,-186.7304 495.2041,-185.9055"/>
<polygon fill="#191970" stroke="#191970" points="1238.8989,-236.4279 1248.9817,-233.174 1239.0705,-229.43 1238.8989,-236.4279"/>
</g>
<!-- Node102 -->
<g id="node23" class="node">
<title>Node102</title>
<g id="a_node23"><a xlink:href="api_2abi-default_2ipsec_8h.html" target="_top" xlink:title="ODP IPSEC API &#45; platform specific types. ">
<polygon fill="#ffffff" stroke="#ff0000" points="512.9828,-168.5 512.9828,-187.5 563.9828,-187.5 563.9828,-168.5 512.9828,-168.5"/>
<text text-anchor="middle" x="538.4828" y="-175.5" font-family="Helvetica,sans-Serif" font-size="10.00" fill="#000000">ipsec.h</text>
</a>
</g>
</g>
<!-- Node15&#45;&gt;Node102 -->
<g id="edge22" class="edge">
<title>Node15&#45;&gt;Node102</title>
<path fill="none" stroke="#191970" d="M1238.6103,-232.3331C1101.238,-227.233 701.196,-210.7893 572.4828,-188 569.8171,-187.528 567.0633,-186.9229 564.3304,-186.2443"/>
<polygon fill="#191970" stroke="#191970" points="1238.6805,-235.838 1248.8026,-232.7085 1238.9382,-228.8427 1238.6805,-235.838"/>
</g>
<!-- Node111 -->
<g id="node24" class="node">
<title>Node111</title>
<g id="a_node24"><a xlink:href="api_2abi-default_2packet__io_8h.html" target="_top" xlink:title="ODP Packet IO. ">
<polygon fill="#ffffff" stroke="#ff0000" points="581.9828,-168.5 581.9828,-187.5 654.9828,-187.5 654.9828,-168.5 581.9828,-168.5"/>
<text text-anchor="middle" x="618.4828" y="-175.5" font-family="Helvetica,sans-Serif" font-size="10.00" fill="#000000">packet_io.h</text>
</a>
</g>
</g>
<!-- Node15&#45;&gt;Node111 -->
<g id="edge23" class="edge">
<title>Node15&#45;&gt;Node111</title>
<path fill="none" stroke="#191970" d="M1238.7487,-232.7734C1134.9549,-229.5611 877.5622,-218.8973 664.4828,-188 661.4094,-187.5543 658.2348,-187.0206 655.0568,-186.4349"/>
<polygon fill="#191970" stroke="#191970" points="1238.7904,-236.2761 1248.8911,-233.0785 1239.0009,-229.2793 1238.7904,-236.2761"/>
</g>
<!-- Node43 -->
<g id="node25" class="node">
<title>Node43</title>
<g id="a_node25"><a xlink:href="api_2abi-default_2rwlock__recursive_8h.html" target="_top" xlink:title="ODP recursive read/write lock. ">
<polygon fill="#ffffff" stroke="#ff0000" points="673.4828,-168.5 673.4828,-187.5 781.4828,-187.5 781.4828,-168.5 673.4828,-168.5"/>
<text text-anchor="middle" x="727.4828" y="-175.5" font-family="Helvetica,sans-Serif" font-size="10.00" fill="#000000">rwlock_recursive.h</text>
</a>
</g>
</g>
<!-- Node15&#45;&gt;Node43 -->
<g id="edge24" class="edge">
<title>Node15&#45;&gt;Node43</title>
<path fill="none" stroke="#191970" d="M1238.5645,-230.6578C1150.5302,-224.1608 954.6491,-208.635 790.4828,-188 787.626,-187.6409 784.6996,-187.2516 781.7472,-186.8419"/>
<polygon fill="#191970" stroke="#191970" points="1238.5271,-234.1643 1248.7563,-231.405 1239.0391,-227.1831 1238.5271,-234.1643"/>
</g>
<!-- Node137 -->
<g id="node26" class="node">
<title>Node137</title>
<g id="a_node26"><a xlink:href="api_2abi-default_2schedule_8h.html" target="_top" xlink:title="ODP schedule. ">
<polygon fill="#ffffff" stroke="#ff0000" points="799.9828,-168.5 799.9828,-187.5 868.9828,-187.5 868.9828,-168.5 799.9828,-168.5"/>
<text text-anchor="middle" x="834.4828" y="-175.5" font-family="Helvetica,sans-Serif" font-size="10.00" fill="#000000">schedule.h</text>
</a>
</g>
</g>
<!-- Node15&#45;&gt;Node137 -->
<g id="edge25" class="edge">
<title>Node15&#45;&gt;Node137</title>
<path fill="none" stroke="#191970" d="M1238.6217,-230.4047C1162.6526,-224.1953 1008.0484,-209.9755 878.4828,-188 875.3935,-187.476 872.1953,-186.8716 868.9978,-186.2248"/>
<polygon fill="#191970" stroke="#191970" points="1238.5593,-233.911 1248.8087,-231.2277 1239.123,-226.9337 1238.5593,-233.911"/>
</g>
<!-- Node145 -->
<g id="node27" class="node">
<title>Node145</title>
<g id="a_node27"><a xlink:href="api_2abi-default_2spinlock__recursive_8h.html" target="_top" xlink:title="ODP recursive spinlock. ">
<polygon fill="#ffffff" stroke="#ff0000" points="887.4828,-168.5 887.4828,-187.5 1003.4828,-187.5 1003.4828,-168.5 887.4828,-168.5"/>
<text text-anchor="middle" x="945.4828" y="-175.5" font-family="Helvetica,sans-Serif" font-size="10.00" fill="#000000">spinlock_recursive.h</text>
</a>
</g>
</g>
<!-- Node15&#45;&gt;Node145 -->
<g id="edge26" class="edge">
<title>Node15&#45;&gt;Node145</title>
<path fill="none" stroke="#191970" d="M1238.5991,-226.278C1177.2028,-216.1656 1069.5995,-198.4427 1003.2431,-187.5134"/>
<polygon fill="#191970" stroke="#191970" points="1238.3379,-229.782 1248.7738,-227.9538 1239.4756,-222.8751 1238.3379,-229.782"/>
</g>
<!-- Node154 -->
<g id="node28" class="node">
<title>Node154</title>
<g id="a_node28"><a xlink:href="api_2abi-default_2traffic__mngr_8h.html" target="_top" xlink:title="ODP traffic mngr. ">
<polygon fill="#ffffff" stroke="#ff0000" points="1021.4828,-168.5 1021.4828,-187.5 1105.4828,-187.5 1105.4828,-168.5 1021.4828,-168.5"/>
<text text-anchor="middle" x="1063.4828" y="-175.5" font-family="Helvetica,sans-Serif" font-size="10.00" fill="#000000">traffic_mngr.h</text>
</a>
</g>
</g>
<!-- Node15&#45;&gt;Node154 -->
<g id="edge27" class="edge">
<title>Node15&#45;&gt;Node154</title>
<path fill="none" stroke="#191970" d="M1239.0997,-222.2997C1198.2199,-211.9877 1139.4005,-197.1504 1101.3111,-187.5423"/>
<polygon fill="#191970" stroke="#191970" points="1238.2717,-225.7005 1248.8241,-224.7527 1239.9839,-218.9131 1238.2717,-225.7005"/>
</g>
<!-- Node33 -->
<g id="node29" class="node">
<title>Node33</title>
<g id="a_node29"><a xlink:href="api_2barrier_8h.html" target="_top" xlink:title="ODP execution barriers. ">
<polygon fill="#ffffff" stroke="#000000" points="1237.9828,-112.5 1237.9828,-131.5 1294.9828,-131.5 1294.9828,-112.5 1237.9828,-112.5"/>
<text text-anchor="middle" x="1266.4828" y="-119.5" font-family="Helvetica,sans-Serif" font-size="10.00" fill="#000000">barrier.h</text>
</a>
</g>
</g>
<!-- Node15&#45;&gt;Node33 -->
<g id="edge28" class="edge">
<title>Node15&#45;&gt;Node33</title>
<path fill="none" stroke="#191970" d="M1278.5573,-214.6434C1275.9214,-206.5155 1273.1531,-196.8994 1271.4828,-188 1267.7945,-168.3485 1266.8101,-144.9204 1266.5579,-131.928"/>
<polygon fill="#191970" stroke="#191970" points="1275.3044,-215.9487 1281.8427,-224.2854 1281.9303,-213.691 1275.3044,-215.9487"/>
</g>
<!-- Node162 -->
<g id="node30" class="node">
<title>Node162</title>
<g id="a_node30"><a xlink:href="api_2buffer_8h.html" target="_top" xlink:title="ODP buffer descriptor. ">
<polygon fill="#ffffff" stroke="#000000" points="1456.9828,-112.5 1456.9828,-131.5 1509.9828,-131.5 1509.9828,-112.5 1456.9828,-112.5"/>
<text text-anchor="middle" x="1483.4828" y="-119.5" font-family="Helvetica,sans-Serif" font-size="10.00" fill="#000000">buffer.h</text>
</a>
</g>
</g>
<!-- Node15&#45;&gt;Node162 -->
<g id="edge30" class="edge">
<title>Node15&#45;&gt;Node162</title>
<path fill="none" stroke="#191970" d="M1316.7369,-220.2482C1335.7596,-211.5788 1360.3784,-199.8209 1381.4828,-188 1414.2386,-169.6531 1450.7563,-144.9115 1469.9683,-131.5379"/>
<polygon fill="#191970" stroke="#191970" points="1315.2935,-217.0596 1307.6184,-224.3632 1318.1729,-223.44 1315.2935,-217.0596"/>
</g>
<!-- Node119 -->
<g id="node31" class="node">
<title>Node119</title>
<g id="a_node31"><a xlink:href="api_2classification_8h.html" target="_top" xlink:title="ODP classification descriptor. ">
<polygon fill="#ffffff" stroke="#ff0000" points="1527.9828,-112.5 1527.9828,-131.5 1616.9828,-131.5 1616.9828,-112.5 1527.9828,-112.5"/>
<text text-anchor="middle" x="1572.4828" y="-119.5" font-family="Helvetica,sans-Serif" font-size="10.00" fill="#000000">classification.h</text>
</a>
</g>
</g>
<!-- Node15&#45;&gt;Node119 -->
<g id="edge32" class="edge">
<title>Node15&#45;&gt;Node119</title>
<path fill="none" stroke="#191970" d="M1322.1688,-221.033C1347.3827,-212.0168 1381.577,-199.5837 1411.4828,-188 1461.202,-168.7418 1518.8937,-144.6661 1549.9308,-131.57"/>
<polygon fill="#191970" stroke="#191970" points="1320.8773,-217.7776 1312.6337,-224.433 1323.2283,-224.371 1320.8773,-217.7776"/>
</g>
<!-- Node125 -->
<g id="node32" class="node">
<title>Node125</title>
<g id="a_node32"><a xlink:href="api_2crypto_8h.html" target="_top" xlink:title="ODP crypto. ">
<polygon fill="#ffffff" stroke="#ff0000" points="2349.4828,-112.5 2349.4828,-131.5 2405.4828,-131.5 2405.4828,-112.5 2349.4828,-112.5"/>
<text text-anchor="middle" x="2377.4828" y="-119.5" font-family="Helvetica,sans-Serif" font-size="10.00" fill="#000000">crypto.h</text>
</a>
</g>
</g>
<!-- Node15&#45;&gt;Node125 -->
<g id="edge34" class="edge">
<title>Node15&#45;&gt;Node125</title>
<path fill="none" stroke="#191970" d="M1332.313,-233.5064C1533.6865,-231.192 2317.635,-220.1411 2358.4828,-188 2375.7248,-174.4332 2377.9969,-146.273 2377.911,-131.506"/>
<polygon fill="#191970" stroke="#191970" points="1332.0305,-230.0093 1322.0708,-233.6223 1332.1098,-237.0089 1332.0305,-230.0093"/>
</g>
<!-- Node121 -->
<g id="node33" class="node">
<title>Node121</title>
<g id="a_node33"><a xlink:href="api_2packet_8h.html" target="_top" xlink:title="ODP packet descriptor. ">
<polygon fill="#ffffff" stroke="#ff0000" points="1313.9828,-168.5 1313.9828,-187.5 1372.9828,-187.5 1372.9828,-168.5 1313.9828,-168.5"/>
<text text-anchor="middle" x="1343.4828" y="-175.5" font-family="Helvetica,sans-Serif" font-size="10.00" fill="#000000">packet.h</text>
</a>
</g>
</g>
<!-- Node15&#45;&gt;Node121 -->
<g id="edge36" class="edge">
<title>Node15&#45;&gt;Node121</title>
<path fill="none" stroke="#191970" d="M1303.0121,-217.0751C1312.9912,-207.4402 1325.1304,-195.7196 1333.4958,-187.6427"/>
<polygon fill="#191970" stroke="#191970" points="1300.3486,-214.7817 1295.5857,-224.2455 1305.2108,-219.8175 1300.3486,-214.7817"/>
</g>
<!-- Node135 -->
<g id="node34" class="node">
<title>Node135</title>
<g id="a_node34"><a xlink:href="api_2spec_2packet__flags_8h.html" target="_top" xlink:title="ODP packet flags. ">
<polygon fill="#ffffff" stroke="#ff0000" points="1312.9828,-112.5 1312.9828,-131.5 1399.9828,-131.5 1399.9828,-112.5 1312.9828,-112.5"/>
<text text-anchor="middle" x="1356.4828" y="-119.5" font-family="Helvetica,sans-Serif" font-size="10.00" fill="#000000">packet_flags.h</text>
</a>
</g>
</g>
<!-- Node15&#45;&gt;Node135 -->
<g id="edge51" class="edge">
<title>Node15&#45;&gt;Node135</title>
<path fill="none" stroke="#191970" d="M1288.1343,-214.4539C1290.6894,-200.6479 1295.5384,-182.1586 1304.4828,-168 1314.0102,-152.9186 1329.9014,-139.9006 1341.614,-131.6008"/>
<polygon fill="#191970" stroke="#191970" points="1284.6752,-213.9209 1286.5426,-224.3498 1291.5863,-215.0326 1284.6752,-213.9209"/>
</g>
<!-- Node131 -->
<g id="node35" class="node">
<title>Node131</title>
<g id="a_node35"><a xlink:href="api_2packet__io_8h.html" target="_top" xlink:title="ODP Packet IO. ">
<polygon fill="#ffffff" stroke="#ff0000" points="2163.9828,-168.5 2163.9828,-187.5 2236.9828,-187.5 2236.9828,-168.5 2163.9828,-168.5"/>
<text text-anchor="middle" x="2200.4828" y="-175.5" font-family="Helvetica,sans-Serif" font-size="10.00" fill="#000000">packet_io.h</text>
</a>
</g>
</g>
<!-- Node15&#45;&gt;Node131 -->
<g id="edge39" class="edge">
<title>Node15&#45;&gt;Node131</title>
<path fill="none" stroke="#191970" d="M1332.698,-232.5056C1489.7107,-227.3781 1993.4733,-209.6189 2154.4828,-188 2157.5608,-187.5867 2160.7386,-187.0758 2163.9187,-186.5053"/>
<polygon fill="#191970" stroke="#191970" points="1332.3136,-229.0161 1322.4325,-232.8389 1332.5408,-236.0124 1332.3136,-229.0161"/>
</g>
<!-- Node133 -->
<g id="node36" class="node">
<title>Node133</title>
<g id="a_node36"><a xlink:href="api_2spec_2traffic__mngr_8h.html" target="_top" xlink:title="Copyright (c) 2015&#45;2018, Linaro Limited All rights reserved. ">
<polygon fill="#ffffff" stroke="#ff0000" points="1747.4828,-112.5 1747.4828,-131.5 1831.4828,-131.5 1831.4828,-112.5 1747.4828,-112.5"/>
<text text-anchor="middle" x="1789.4828" y="-119.5" font-family="Helvetica,sans-Serif" font-size="10.00" fill="#000000">traffic_mngr.h</text>
</a>
</g>
</g>
<!-- Node15&#45;&gt;Node133 -->
<g id="edge57" class="edge">
<title>Node15&#45;&gt;Node133</title>
<path fill="none" stroke="#191970" d="M1332.2359,-222.8043C1365.5679,-214.3785 1411.2423,-201.9253 1450.4828,-188 1471.4924,-180.5444 1475.0759,-174.2235 1496.4828,-168 1583.5042,-142.7007 1689.3595,-130.4457 1747.0208,-125.257"/>
<polygon fill="#191970" stroke="#191970" points="1331.1605,-219.4653 1322.3085,-225.287 1332.8589,-226.2562 1331.1605,-219.4653"/>
</g>
<!-- Node129 -->
<g id="node37" class="node">
<title>Node129</title>
<g id="a_node37"><a xlink:href="api_2queue_8h.html" target="_top" xlink:title="ODP queue. ">
<polygon fill="#ffffff" stroke="#ff0000" points="2293.4828,-168.5 2293.4828,-187.5 2349.4828,-187.5 2349.4828,-168.5 2293.4828,-168.5"/>
<text text-anchor="middle" x="2321.4828" y="-175.5" font-family="Helvetica,sans-Serif" font-size="10.00" fill="#000000">queue.h</text>
</a>
</g>
</g>
<!-- Node15&#45;&gt;Node129 -->
<g id="edge42" class="edge">
<title>Node15&#45;&gt;Node129</title>
<path fill="none" stroke="#191970" d="M1332.2203,-233.0002C1502.9982,-229.1658 2092.9722,-214.2823 2279.4828,-188 2283.9361,-187.3725 2288.6091,-186.4898 2293.1541,-185.506"/>
<polygon fill="#191970" stroke="#191970" points="1331.972,-229.5048 1322.0523,-233.2265 1332.1278,-236.503 1331.972,-229.5048"/>
</g>
<!-- Node88 -->
<g id="node38" class="node">
<title>Node88</title>
<g id="a_node38"><a xlink:href="api_2spec_2schedule_8h.html" target="_top" xlink:title="ODP schedule. ">
<polygon fill="#ffffff" stroke="#ff0000" points="2223.9828,-112.5 2223.9828,-131.5 2292.9828,-131.5 2292.9828,-112.5 2223.9828,-112.5"/>
<text text-anchor="middle" x="2258.4828" y="-119.5" font-family="Helvetica,sans-Serif" font-size="10.00" fill="#000000">schedule.h</text>
</a>
</g>
</g>
<!-- Node15&#45;&gt;Node88 -->
<g id="edge53" class="edge">
<title>Node15&#45;&gt;Node88</title>
<path fill="none" stroke="#191970" d="M1332.3336,-233.3632C1520.3613,-230.6032 2211.763,-218.414 2246.4828,-188 2262.4267,-174.0334 2261.7656,-146.5671 2260.0511,-131.8551"/>
<polygon fill="#191970" stroke="#191970" points="1332.1652,-229.8652 1322.217,-233.5097 1332.2666,-236.8645 1332.1652,-229.8652"/>
</g>
<!-- Node163 -->
<g id="node39" class="node">
<title>Node163</title>
<g id="a_node39"><a xlink:href="spec_2chksum_8h.html" target="_top" xlink:title="ODP checksum functions. ">
<polygon fill="#ffffff" stroke="#ff0000" points="1505.4828,-168.5 1505.4828,-187.5 1569.4828,-187.5 1569.4828,-168.5 1505.4828,-168.5"/>
<text text-anchor="middle" x="1537.4828" y="-175.5" font-family="Helvetica,sans-Serif" font-size="10.00" fill="#000000">chksum.h</text>
</a>
</g>
</g>
<!-- Node15&#45;&gt;Node163 -->
<g id="edge46" class="edge">
<title>Node15&#45;&gt;Node163</title>
<path fill="none" stroke="#191970" d="M1332.1018,-223.6402C1382.4345,-212.4552 1461.2798,-194.934 1505.1957,-185.1749"/>
<polygon fill="#191970" stroke="#191970" points="1331.1284,-220.2711 1322.1258,-225.8571 1332.647,-227.1044 1331.1284,-220.2711"/>
</g>
<!-- Node165 -->
<g id="node40" class="node">
<title>Node165</title>
<g id="a_node40"><a xlink:href="api_2spec_2cpu_8h.html" target="_top" xlink:title="ODP CPU API. ">
<polygon fill="#ffffff" stroke="#ff0000" points="1587.9828,-168.5 1587.9828,-187.5 1630.9828,-187.5 1630.9828,-168.5 1587.9828,-168.5"/>
<text text-anchor="middle" x="1609.4828" y="-175.5" font-family="Helvetica,sans-Serif" font-size="10.00" fill="#000000">cpu.h</text>
</a>
</g>
</g>
<!-- Node15&#45;&gt;Node165 -->
<g id="edge47" class="edge">
<title>Node15&#45;&gt;Node165</title>
<path fill="none" stroke="#191970" d="M1332.385,-228.9292C1390.6107,-222.1105 1492.7202,-208.4324 1578.4828,-188 1581.5634,-187.2661 1584.7797,-186.3747 1587.9248,-185.4299"/>
<polygon fill="#191970" stroke="#191970" points="1331.9176,-225.4598 1322.3848,-230.0832 1332.7201,-232.4136 1331.9176,-225.4598"/>
</g>
<!-- Node167 -->
<g id="node41" class="node">
<title>Node167</title>
<g id="a_node41"><a xlink:href="spec_2feature_8h.html" target="_top" xlink:title="ODP features. ">
<polygon fill="#ffffff" stroke="#ff0000" points="1648.9828,-168.5 1648.9828,-187.5 1709.9828,-187.5 1709.9828,-168.5 1648.9828,-168.5"/>
<text text-anchor="middle" x="1679.4828" y="-175.5" font-family="Helvetica,sans-Serif" font-size="10.00" fill="#000000">feature.h</text>
</a>
</g>
</g>
<!-- Node15&#45;&gt;Node167 -->
<g id="edge48" class="edge">
<title>Node15&#45;&gt;Node167</title>
<path fill="none" stroke="#191970" d="M1332.1046,-229.6791C1400.0667,-222.988 1530.1586,-208.6965 1639.4828,-188 1642.4368,-187.4408 1645.4982,-186.7959 1648.5522,-186.1085"/>
<polygon fill="#191970" stroke="#191970" points="1331.7542,-226.1965 1322.1405,-230.6493 1332.4327,-233.1636 1331.7542,-226.1965"/>
</g>
<!-- Node169 -->
<g id="node42" class="node">
<title>Node169</title>
<g id="a_node42"><a xlink:href="api_2spec_2hash_8h.html" target="_top" xlink:title="ODP Hash functions. ">
<polygon fill="#ffffff" stroke="#ff0000" points="1727.9828,-168.5 1727.9828,-187.5 1776.9828,-187.5 1776.9828,-168.5 1727.9828,-168.5"/>
<text text-anchor="middle" x="1752.4828" y="-175.5" font-family="Helvetica,sans-Serif" font-size="10.00" fill="#000000">hash.h</text>
</a>
</g>
</g>
<!-- Node15&#45;&gt;Node169 -->
<g id="edge49" class="edge">
<title>Node15&#45;&gt;Node169</title>
<path fill="none" stroke="#191970" d="M1332.2405,-231.7983C1412.0882,-227.4244 1579.571,-215.5729 1718.4828,-188 1721.5004,-187.401 1724.6362,-186.6546 1727.7289,-185.8411"/>
<polygon fill="#191970" stroke="#191970" points="1331.8255,-228.3154 1322.026,-232.343 1332.1983,-235.3055 1331.8255,-228.3154"/>
</g>
<!-- Node90 -->
<g id="node43" class="node">
<title>Node90</title>
<g id="a_node43"><a xlink:href="api_2spec_2init_8h.html" target="_top" xlink:title="init.h">
<polygon fill="#ffffff" stroke="#ff0000" points="1794.9828,-168.5 1794.9828,-187.5 1835.9828,-187.5 1835.9828,-168.5 1794.9828,-168.5"/>
<text text-anchor="middle" x="1815.4828" y="-175.5" font-family="Helvetica,sans-Serif" font-size="10.00" fill="#000000">init.h</text>
</a>
</g>
</g>
<!-- Node15&#45;&gt;Node90 -->
<g id="edge50" class="edge">
<title>Node15&#45;&gt;Node90</title>
<path fill="none" stroke="#191970" d="M1332.0266,-233.2757C1421.0351,-231.1098 1621.1449,-222.4688 1785.4828,-188 1788.4918,-187.3689 1791.6199,-186.5354 1794.671,-185.6182"/>
<polygon fill="#191970" stroke="#191970" points="1331.9036,-229.7775 1321.9857,-233.5037 1332.0626,-236.7757 1331.9036,-229.7775"/>
</g>
<!-- Node171 -->
<g id="node44" class="node">
<title>Node171</title>
<g id="a_node44"><a xlink:href="api_2spec_2pool_8h.html" target="_top" xlink:title="ODP pool. ">
<polygon fill="#ffffff" stroke="#ff0000" points="1853.9828,-168.5 1853.9828,-187.5 1900.9828,-187.5 1900.9828,-168.5 1853.9828,-168.5"/>
<text text-anchor="middle" x="1877.4828" y="-175.5" font-family="Helvetica,sans-Serif" font-size="10.00" fill="#000000">pool.h</text>
</a>
</g>
</g>
<!-- Node15&#45;&gt;Node171 -->
<g id="edge52" class="edge">
<title>Node15&#45;&gt;Node171</title>
<path fill="none" stroke="#191970" d="M1332.3387,-231.4872C1448.5199,-225.0417 1747.543,-207.0819 1845.4828,-188 1848.2251,-187.4657 1851.064,-186.7802 1853.867,-186.019"/>
<polygon fill="#191970" stroke="#191970" points="1332.1216,-227.9937 1322.3295,-232.039 1332.507,-234.9831 1332.1216,-227.9937"/>
</g>
<!-- Node173 -->
<g id="node45" class="node">
<title>Node173</title>
<g id="a_node45"><a xlink:href="api_2spec_2stash_8h.html" target="_top" xlink:title="ODP stash. ">
<polygon fill="#ffffff" stroke="#ff0000" points="1919.4828,-168.5 1919.4828,-187.5 1971.4828,-187.5 1971.4828,-168.5 1919.4828,-168.5"/>
<text text-anchor="middle" x="1945.4828" y="-175.5" font-family="Helvetica,sans-Serif" font-size="10.00" fill="#000000">stash.h</text>
</a>
</g>
</g>
<!-- Node15&#45;&gt;Node173 -->
<g id="edge54" class="edge">
<title>Node15&#45;&gt;Node173</title>
<path fill="none" stroke="#191970" d="M1332.0206,-231.8135C1457.2213,-225.7334 1799.257,-207.767 1910.4828,-188 1913.345,-187.4913 1916.3086,-186.8426 1919.2448,-186.1206"/>
<polygon fill="#191970" stroke="#191970" points="1331.8051,-228.3197 1321.9855,-232.2979 1332.1426,-235.3116 1331.8051,-228.3197"/>
</g>
<!-- Node175 -->
<g id="node46" class="node">
<title>Node175</title>
<g id="a_node46"><a xlink:href="spec_2threshold_8h.html" target="_top" xlink:title="ODP threshold descriptor. ">
<polygon fill="#ffffff" stroke="#ff0000" points="1989.9828,-168.5 1989.9828,-187.5 2060.9828,-187.5 2060.9828,-168.5 1989.9828,-168.5"/>
<text text-anchor="middle" x="2025.4828" y="-175.5" font-family="Helvetica,sans-Serif" font-size="10.00" fill="#000000">threshold.h</text>
</a>
</g>
</g>
<!-- Node15&#45;&gt;Node175 -->
<g id="edge55" class="edge">
<title>Node15&#45;&gt;Node175</title>
<path fill="none" stroke="#191970" d="M1332.5536,-233.3569C1445.0981,-231.2824 1738.4174,-222.7 1980.4828,-188 1983.4932,-187.5685 1986.6014,-187.0447 1989.7121,-186.4656"/>
<polygon fill="#191970" stroke="#191970" points="1332.1713,-229.863 1322.2343,-233.538 1332.2942,-236.8619 1332.1713,-229.863"/>
</g>
<!-- Node177 -->
<g id="node47" class="node">
<title>Node177</title>
<g id="a_node47"><a xlink:href="api_2spec_2thrmask_8h.html" target="_top" xlink:title="ODP thread masks. ">
<polygon fill="#ffffff" stroke="#ff0000" points="2079.4828,-168.5 2079.4828,-187.5 2145.4828,-187.5 2145.4828,-168.5 2079.4828,-168.5"/>
<text text-anchor="middle" x="2112.4828" y="-175.5" font-family="Helvetica,sans-Serif" font-size="10.00" fill="#000000">thrmask.h</text>
</a>
</g>
</g>
<!-- Node15&#45;&gt;Node177 -->
<g id="edge56" class="edge">
<title>Node15&#45;&gt;Node177</title>
<path fill="none" stroke="#191970" d="M1332.4723,-232.3286C1479.0537,-226.944 1926.6933,-209.1639 2070.4828,-188 2073.3008,-187.5852 2076.2075,-187.0733 2079.1147,-186.5021"/>
<polygon fill="#191970" stroke="#191970" points="1331.9083,-228.8467 1322.0427,-232.7094 1332.1638,-235.8421 1331.9083,-228.8467"/>
</g>
<!-- Node178 -->
<g id="node48" class="node">
<title>Node178</title>
<g id="a_node48"><a xlink:href="system__info_8h.html" target="_top" xlink:title="ODP system information. ">
<polygon fill="#ffffff" stroke="#000000" points="18.4828,-112.5 18.4828,-131.5 104.4828,-131.5 104.4828,-112.5 18.4828,-112.5"/>
<text text-anchor="middle" x="61.4828" y="-119.5" font-family="Helvetica,sans-Serif" font-size="10.00" fill="#000000">system_info.h</text>
</a>
</g>
</g>
<!-- Node15&#45;&gt;Node178 -->
<g id="edge58" class="edge">
<title>Node15&#45;&gt;Node178</title>
<path fill="none" stroke="#191970" d="M1238.8169,-233.2588C1027.0326,-229.7564 164.3859,-213.9441 113.4828,-188 89.5689,-175.8116 73.1679,-147.0483 65.8341,-131.8331"/>
<polygon fill="#191970" stroke="#191970" points="1238.9231,-236.7609 1248.9793,-233.4256 1239.0381,-229.7619 1238.9231,-236.7609"/>
</g>
<!-- Node179 -->
<g id="node49" class="node">
<title>Node179</title>
<g id="a_node49"><a xlink:href="api_2time_8h.html" target="_top" xlink:title="ODP time. ">
<polygon fill="#ffffff" stroke="#ff0000" points="1063.4828,-112.5 1063.4828,-131.5 1111.4828,-131.5 1111.4828,-112.5 1063.4828,-112.5"/>
<text text-anchor="middle" x="1087.4828" y="-119.5" font-family="Helvetica,sans-Serif" font-size="10.00" fill="#000000">time.h</text>
</a>
</g>
</g>
<!-- Node15&#45;&gt;Node179 -->
<g id="edge60" class="edge">
<title>Node15&#45;&gt;Node179</title>
<path fill="none" stroke="#191970" d="M1247.9052,-220.9364C1226.1268,-212.7222 1198.5409,-201.1958 1175.4828,-188 1145.8137,-171.0208 1114.6112,-145.5181 1098.5251,-131.7127"/>
<polygon fill="#191970" stroke="#191970" points="1246.8724,-224.2861 1257.4656,-224.4715 1249.3001,-217.7205 1246.8724,-224.2861"/>
</g>
<!-- Node181 -->
<g id="node50" class="node">
<title>Node181</title>
<g id="a_node50"><a xlink:href="api_2timer_8h.html" target="_top" xlink:title="ODP timer service. ">
<polygon fill="#ffffff" stroke="#000000" points="1129.9828,-112.5 1129.9828,-131.5 1180.9828,-131.5 1180.9828,-112.5 1129.9828,-112.5"/>
<text text-anchor="middle" x="1155.4828" y="-119.5" font-family="Helvetica,sans-Serif" font-size="10.00" fill="#000000">timer.h</text>
</a>
</g>
</g>
<!-- Node15&#45;&gt;Node181 -->
<g id="edge62" class="edge">
<title>Node15&#45;&gt;Node181</title>
<path fill="none" stroke="#191970" d="M1248.1176,-220.4643C1230.7034,-212.8447 1210.552,-202.0163 1195.4828,-188 1177.8236,-171.5746 1165.2223,-145.618 1159.2966,-131.654"/>
<polygon fill="#191970" stroke="#191970" points="1246.8845,-223.7422 1257.4609,-224.3671 1249.5826,-217.2831 1246.8845,-223.7422"/>
</g>
<!-- Node17 -->
<g id="node14" class="node">
<title>Node17</title>
<g id="a_node14"><a xlink:href="arch_2arm32-linux_2odp_2api_2abi_2atomic_8h_source.html" target="_top" xlink:title="atomic.h">
<polygon fill="#ffffff" stroke="#000000" points="199.9828,-112.5 199.9828,-131.5 258.9828,-131.5 258.9828,-112.5 199.9828,-112.5"/>
<text text-anchor="middle" x="229.4828" y="-119.5" font-family="Helvetica,sans-Serif" font-size="10.00" fill="#000000">atomic.h</text>
</a>
</g>
</g>
<!-- Node16&#45;&gt;Node17 -->
<g id="edge13" class="edge">
<title>Node16&#45;&gt;Node17</title>
<path fill="none" stroke="#191970" d="M174.1945,-162.2097C187.7182,-152.3743 204.6786,-140.0394 216.2242,-131.6427"/>
<polygon fill="#191970" stroke="#191970" points="171.924,-159.5332 165.8952,-168.2455 176.0412,-165.1944 171.924,-159.5332"/>
</g>
<!-- Node18 -->
<g id="node15" class="node">
<title>Node18</title>
<g id="a_node15"><a xlink:href="arch_2arm64-linux_2odp_2api_2abi_2atomic_8h_source.html" target="_top" xlink:title="atomic.h">
<polygon fill="#ffffff" stroke="#000000" points="276.9828,-112.5 276.9828,-131.5 335.9828,-131.5 335.9828,-112.5 276.9828,-112.5"/>
<text text-anchor="middle" x="306.4828" y="-119.5" font-family="Helvetica,sans-Serif" font-size="10.00" fill="#000000">atomic.h</text>
</a>
</g>
</g>
<!-- Node16&#45;&gt;Node18 -->
<g id="edge14" class="edge">
<title>Node16&#45;&gt;Node18</title>
<path fill="none" stroke="#191970" d="M188.4442,-164.9231C216.5963,-154.686 255.0884,-140.6889 280.3547,-131.5011"/>
<polygon fill="#191970" stroke="#191970" points="187.1582,-161.6665 178.9564,-168.3733 189.5504,-168.245 187.1582,-161.6665"/>
</g>
<!-- Node19 -->
<g id="node16" class="node">
<title>Node19</title>
<g id="a_node16"><a xlink:href="arch_2default-linux_2odp_2api_2abi_2atomic_8h_source.html" target="_top" xlink:title="atomic.h">
<polygon fill="#ffffff" stroke="#000000" points="353.9828,-112.5 353.9828,-131.5 412.9828,-131.5 412.9828,-112.5 353.9828,-112.5"/>
<text text-anchor="middle" x="383.4828" y="-119.5" font-family="Helvetica,sans-Serif" font-size="10.00" fill="#000000">atomic.h</text>
</a>
</g>
</g>
<!-- Node16&#45;&gt;Node19 -->
<g id="edge15" class="edge">
<title>Node16&#45;&gt;Node19</title>
<path fill="none" stroke="#191970" d="M192.2787,-167.5978C260.3752,-150.8164 279.28,-147.9785 344.4828,-132 347.47,-131.268 350.5824,-130.4922 353.6888,-129.7093"/>
<polygon fill="#191970" stroke="#191970" points="191.1988,-164.2595 182.3336,-170.0611 192.8818,-171.0542 191.1988,-164.2595"/>
</g>
<!-- Node20 -->
<g id="node17" class="node">
<title>Node20</title>
<g id="a_node17"><a xlink:href="arch_2mips64-linux_2odp_2api_2abi_2atomic_8h_source.html" target="_top" xlink:title="atomic.h">
<polygon fill="#ffffff" stroke="#000000" points="430.9828,-112.5 430.9828,-131.5 489.9828,-131.5 489.9828,-112.5 430.9828,-112.5"/>
<text text-anchor="middle" x="460.4828" y="-119.5" font-family="Helvetica,sans-Serif" font-size="10.00" fill="#000000">atomic.h</text>
</a>
</g>
</g>
<!-- Node16&#45;&gt;Node20 -->
<g id="edge16" class="edge">
<title>Node16&#45;&gt;Node20</title>
<path fill="none" stroke="#191970" d="M192.3521,-167.7666C293.9848,-147.1099 322.8868,-152.2741 421.4828,-132 424.4953,-131.3805 427.6244,-130.6786 430.741,-129.9409"/>
<polygon fill="#191970" stroke="#191970" points="191.3691,-164.3957 182.2849,-169.848 192.7864,-171.2508 191.3691,-164.3957"/>
</g>
<!-- Node21 -->
<g id="node18" class="node">
<title>Node21</title>
<g id="a_node18"><a xlink:href="arch_2power64-linux_2odp_2api_2abi_2atomic_8h_source.html" target="_top" xlink:title="atomic.h">
<polygon fill="#ffffff" stroke="#000000" points="122.9828,-112.5 122.9828,-131.5 181.9828,-131.5 181.9828,-112.5 122.9828,-112.5"/>
<text text-anchor="middle" x="152.4828" y="-119.5" font-family="Helvetica,sans-Serif" font-size="10.00" fill="#000000">atomic.h</text>
</a>
</g>
</g>
<!-- Node16&#45;&gt;Node21 -->
<g id="edge17" class="edge">
<title>Node16&#45;&gt;Node21</title>
<path fill="none" stroke="#191970" d="M152.4828,-158.1575C152.4828,-149.155 152.4828,-138.9199 152.4828,-131.6427"/>
<polygon fill="#191970" stroke="#191970" points="148.9829,-158.2455 152.4828,-168.2455 155.9829,-158.2456 148.9829,-158.2455"/>
</g>
<!-- Node33&#45;&gt;Node13 -->
<g id="edge29" class="edge">
<title>Node33&#45;&gt;Node13</title>
<path fill="none" stroke="#191970" d="M1288.9169,-106.49C1303.2082,-96.6096 1321.2744,-84.1194 1333.5354,-75.6427"/>
<polygon fill="#191970" stroke="#191970" points="1286.8272,-103.6797 1280.592,-112.2455 1290.808,-109.4376 1286.8272,-103.6797"/>
</g>
<!-- Node162&#45;&gt;Node13 -->
<g id="edge31" class="edge">
<title>Node162&#45;&gt;Node13</title>
<path fill="none" stroke="#191970" d="M1450.743,-108.5189C1425.9746,-98.3201 1392.5778,-84.5685 1370.557,-75.5011"/>
<polygon fill="#191970" stroke="#191970" points="1449.5242,-111.8021 1460.1036,-112.3733 1452.1895,-105.3293 1449.5242,-111.8021"/>
</g>
<!-- Node119&#45;&gt;Node13 -->
<g id="edge33" class="edge">
<title>Node119&#45;&gt;Node13</title>
<path fill="none" stroke="#191970" d="M1524.2209,-109.9881C1480.5119,-99.1095 1417.3455,-83.388 1379.555,-73.9824"/>
<polygon fill="#191970" stroke="#191970" points="1523.5103,-113.418 1534.0596,-112.4369 1525.201,-106.6252 1523.5103,-113.418"/>
</g>
<!-- Node125&#45;&gt;Node13 -->
<g id="edge35" class="edge">
<title>Node125&#45;&gt;Node13</title>
<path fill="none" stroke="#191970" d="M2339.2846,-112.5871C2338.0051,-112.3735 2336.7353,-112.1767 2335.4828,-112 2144.4113,-85.0477 1527.3231,-69.9649 1379.514,-66.6842"/>
<polygon fill="#191970" stroke="#191970" points="2338.6713,-116.0332 2349.1539,-114.4951 2340.0001,-109.1605 2338.6713,-116.0332"/>
</g>
<!-- Node121&#45;&gt;Node13 -->
<g id="edge38" class="edge">
<title>Node121&#45;&gt;Node13</title>
<path fill="none" stroke="#191970" d="M1375.6165,-163.5718C1388.2633,-156.0964 1401.4282,-145.635 1408.4828,-132 1420.6,-108.5803 1390.1345,-87.3187 1368.0281,-75.5723"/>
<polygon fill="#191970" stroke="#191970" points="1373.6991,-160.6308 1366.594,-168.4901 1377.0495,-166.7769 1373.6991,-160.6308"/>
</g>
<!-- Node121&#45;&gt;Node135 -->
<g id="edge37" class="edge">
<title>Node121&#45;&gt;Node135</title>
<path fill="none" stroke="#191970" d="M1348.0203,-158.4538C1350.1267,-149.3803 1352.5364,-138.9998 1354.2444,-131.6427"/>
<polygon fill="#191970" stroke="#191970" points="1344.5993,-157.7131 1345.7473,-168.2455 1351.418,-159.2961 1344.5993,-157.7131"/>
</g>
<!-- Node131&#45;&gt;Node13 -->
<g id="edge41" class="edge">
<title>Node131&#45;&gt;Node13</title>
<path fill="none" stroke="#191970" d="M2154.0187,-167.9545C2013.8178,-140.0647 1977.8,-130.6181 1840.4828,-112 1667.3491,-88.5258 1458.3707,-73.33 1379.5997,-68.0643"/>
<polygon fill="#191970" stroke="#191970" points="2153.3602,-171.392 2163.8503,-169.9065 2154.7234,-164.526 2153.3602,-171.392"/>
</g>
<!-- Node131&#45;&gt;Node133 -->
<g id="edge40" class="edge">
<title>Node131&#45;&gt;Node133</title>
<path fill="none" stroke="#191970" d="M2153.9132,-168.0365C2030.9229,-147.2783 1897.8481,-132.7671 1831.5383,-126.0749"/>
<polygon fill="#191970" stroke="#191970" points="2153.4356,-171.5055 2163.8817,-169.7367 2154.6125,-164.6052 2153.4356,-171.5055"/>
</g>
<!-- Node129&#45;&gt;Node13 -->
<g id="edge45" class="edge">
<title>Node129&#45;&gt;Node13</title>
<path fill="none" stroke="#191970" d="M2321.5125,-157.5955C2320.3385,-142.4848 2316.0449,-122.7294 2302.4828,-112 2265.5042,-82.7448 1541.6342,-69.1809 1379.5127,-66.5033"/>
<polygon fill="#191970" stroke="#191970" points="2318.0311,-158.1575 2321.9041,-168.0191 2325.0262,-157.8947 2318.0311,-158.1575"/>
</g>
<!-- Node129&#45;&gt;Node125 -->
<g id="edge43" class="edge">
<title>Node129&#45;&gt;Node125</title>
<path fill="none" stroke="#191970" d="M2338.4077,-161.0751C2348.0426,-151.4402 2359.7633,-139.7196 2367.8402,-131.6427"/>
<polygon fill="#191970" stroke="#191970" points="2335.8335,-158.6996 2331.2373,-168.2455 2340.7833,-163.6493 2335.8335,-158.6996"/>
</g>
<!-- Node129&#45;&gt;Node88 -->
<g id="edge44" class="edge">
<title>Node129&#45;&gt;Node88</title>
<path fill="none" stroke="#191970" d="M2302.7636,-161.3607C2291.8646,-151.6727 2278.5073,-139.7995 2269.3308,-131.6427"/>
<polygon fill="#191970" stroke="#191970" points="2300.7097,-164.2178 2310.5091,-168.2455 2305.3602,-158.9859 2300.7097,-164.2178"/>
</g>
<!-- Node178&#45;&gt;Node13 -->
<g id="edge59" class="edge">
<title>Node178&#45;&gt;Node13</title>
<path fill="none" stroke="#191970" d="M114.7759,-112.0593C377.1571,-83.8857 1148.5202,-69.3961 1315.4186,-66.5312"/>
<polygon fill="#191970" stroke="#191970" points="114.0879,-108.6141 104.535,-113.1958 114.8601,-115.5713 114.0879,-108.6141"/>
</g>
<!-- Node179&#45;&gt;Node13 -->
<g id="edge61" class="edge">
<title>Node179&#45;&gt;Node13</title>
<path fill="none" stroke="#191970" d="M1121.6005,-111.8934C1196.262,-93.3417 1273.0264,-79.0169 1315.3143,-71.5313"/>
<polygon fill="#191970" stroke="#191970" points="1120.405,-108.5849 1111.5601,-114.4175 1122.1117,-115.3737 1120.405,-108.5849"/>
</g>
<!-- Node181&#45;&gt;Node13 -->
<g id="edge63" class="edge">
<title>Node181&#45;&gt;Node13</title>
<path fill="none" stroke="#191970" d="M1191.3433,-111.5407C1226.9465,-101.1564 1281.0274,-85.3828 1315.2906,-75.3894"/>
<polygon fill="#191970" stroke="#191970" points="1189.9968,-108.2875 1181.3768,-114.4476 1191.9568,-115.0075 1189.9968,-108.2875"/>
</g>
</g>
</svg>
