<?xml version="1.0" encoding="UTF-8" standalone="no"?>
<!DOCTYPE svg PUBLIC "-//W3C//DTD SVG 1.1//EN"
 "http://www.w3.org/Graphics/SVG/1.1/DTD/svg11.dtd">
<!-- Generated by graphviz version 2.40.1 (20161225.0304)
 -->
<!-- Title: thread.h Pages: 1 -->
<svg width="1132pt" height="420pt"
 viewBox="0.00 0.00 1132.00 420.00" xmlns="http://www.w3.org/2000/svg" xmlns:xlink="http://www.w3.org/1999/xlink">
<g id="graph0" class="graph" transform="scale(1 1) rotate(0) translate(4 416)">
<title>thread.h</title>
<polygon fill="#ffffff" stroke="transparent" points="-4,4 -4,-416 1128,-416 1128,4 -4,4"/>
<!-- Node3 -->
<g id="node1" class="node">
<title>Node3</title>
<polygon fill="#bfbfbf" stroke="#000000" points="888.5,-392.5 888.5,-411.5 945.5,-411.5 945.5,-392.5 888.5,-392.5"/>
<text text-anchor="middle" x="917" y="-399.5" font-family="Helvetica,sans-Serif" font-size="10.00" fill="#000000">thread.h</text>
</g>
<!-- Node4 -->
<g id="node2" class="node">
<title>Node4</title>
<g id="a_node2"><a xlink:href="api_2thread_8h.html" target="_top" xlink:title="ODP thread API. ">
<polygon fill="#ffffff" stroke="#000000" points="888.5,-336.5 888.5,-355.5 945.5,-355.5 945.5,-336.5 888.5,-336.5"/>
<text text-anchor="middle" x="917" y="-343.5" font-family="Helvetica,sans-Serif" font-size="10.00" fill="#000000">thread.h</text>
</a>
</g>
</g>
<!-- Node3&#45;&gt;Node4 -->
<g id="edge1" class="edge">
<title>Node3&#45;&gt;Node4</title>
<path fill="none" stroke="#191970" d="M917,-382.1575C917,-373.155 917,-362.9199 917,-355.6427"/>
<polygon fill="#191970" stroke="#191970" points="913.5001,-382.2455 917,-392.2455 920.5001,-382.2456 913.5001,-382.2455"/>
</g>
<!-- Node5 -->
<g id="node3" class="node">
<title>Node5</title>
<g id="a_node3"><a xlink:href="api_2abi-default_2rwlock__recursive_8h.html" target="_top" xlink:title="ODP recursive read/write lock. ">
<polygon fill="#ffffff" stroke="#000000" points="441,-280.5 441,-299.5 549,-299.5 549,-280.5 441,-280.5"/>
<text text-anchor="middle" x="495" y="-287.5" font-family="Helvetica,sans-Serif" font-size="10.00" fill="#000000">rwlock_recursive.h</text>
</a>
</g>
</g>
<!-- Node4&#45;&gt;Node5 -->
<g id="edge2" class="edge">
<title>Node4&#45;&gt;Node5</title>
<path fill="none" stroke="#191970" d="M878.2941,-340.8637C802.7599,-330.8402 635.558,-308.6522 549.1089,-297.1803"/>
<polygon fill="#191970" stroke="#191970" points="877.9524,-344.3489 888.326,-342.1949 878.8733,-337.4098 877.9524,-344.3489"/>
</g>
<!-- Node14 -->
<g id="node12" class="node">
<title>Node14</title>
<g id="a_node12"><a xlink:href="odp__api_8h.html" target="_top" xlink:title="The OpenDataPlane API. ">
<polygon fill="#ffffff" stroke="#000000" points="910,-56.5 910,-75.5 974,-75.5 974,-56.5 910,-56.5"/>
<text text-anchor="middle" x="942" y="-63.5" font-family="Helvetica,sans-Serif" font-size="10.00" fill="#000000">odp_api.h</text>
</a>
</g>
</g>
<!-- Node4&#45;&gt;Node14 -->
<g id="edge21" class="edge">
<title>Node4&#45;&gt;Node14</title>
<path fill="none" stroke="#191970" d="M909.9987,-326.7541C902.603,-304.6695 892,-267.2153 892,-234 892,-234 892,-234 892,-178 892,-136.9024 920.4187,-94.1143 934.4061,-75.5435"/>
<polygon fill="#191970" stroke="#191970" points="906.7195,-327.9805 913.3112,-336.2751 913.3308,-325.6803 906.7195,-327.9805"/>
</g>
<!-- Node16 -->
<g id="node14" class="node">
<title>Node16</title>
<g id="a_node14"><a xlink:href="api_2cpu_8h.html" target="_top" xlink:title="ODP CPU. ">
<polygon fill="#ffffff" stroke="#000000" points="920.5,-168.5 920.5,-187.5 963.5,-187.5 963.5,-168.5 920.5,-168.5"/>
<text text-anchor="middle" x="942" y="-175.5" font-family="Helvetica,sans-Serif" font-size="10.00" fill="#000000">cpu.h</text>
</a>
</g>
</g>
<!-- Node4&#45;&gt;Node16 -->
<g id="edge13" class="edge">
<title>Node4&#45;&gt;Node16</title>
<path fill="none" stroke="#191970" d="M919.9375,-326.2601C925.3085,-290.1669 936.5289,-214.7656 940.5375,-187.8279"/>
<polygon fill="#191970" stroke="#191970" points="916.4258,-326.08 918.4157,-336.4862 923.3496,-327.1103 916.4258,-326.08"/>
</g>
<!-- Node17 -->
<g id="node15" class="node">
<title>Node17</title>
<g id="a_node15"><a xlink:href="api_2spec_2init_8h.html" target="_top" xlink:title="init.h">
<polygon fill="#ffffff" stroke="#000000" points="964.5,-280.5 964.5,-299.5 1005.5,-299.5 1005.5,-280.5 964.5,-280.5"/>
<text text-anchor="middle" x="985" y="-287.5" font-family="Helvetica,sans-Serif" font-size="10.00" fill="#000000">init.h</text>
</a>
</g>
</g>
<!-- Node4&#45;&gt;Node17 -->
<g id="edge15" class="edge">
<title>Node4&#45;&gt;Node17</title>
<path fill="none" stroke="#191970" d="M936.8596,-329.645C948.6858,-319.9058 963.2892,-307.8795 973.291,-299.6427"/>
<polygon fill="#191970" stroke="#191970" points="934.339,-327.1867 928.8447,-336.2455 938.789,-332.5902 934.339,-327.1867"/>
</g>
<!-- Node6 -->
<g id="node4" class="node">
<title>Node6</title>
<g id="a_node4"><a xlink:href="arch_2arm32-linux_2odp_2api_2abi_2rwlock__recursive_8h_source.html" target="_top" xlink:title="rwlock_recursive.h">
<polygon fill="#ffffff" stroke="#000000" points="0,-224.5 0,-243.5 108,-243.5 108,-224.5 0,-224.5"/>
<text text-anchor="middle" x="54" y="-231.5" font-family="Helvetica,sans-Serif" font-size="10.00" fill="#000000">rwlock_recursive.h</text>
</a>
</g>
</g>
<!-- Node5&#45;&gt;Node6 -->
<g id="edge3" class="edge">
<title>Node5&#45;&gt;Node6</title>
<path fill="none" stroke="#191970" d="M430.5047,-282.8733C355.1862,-274.3835 226.8933,-259.4031 117,-244 114.1485,-243.6003 111.2264,-243.1787 108.2774,-242.7437"/>
<polygon fill="#191970" stroke="#191970" points="430.4451,-286.3886 440.7735,-284.0276 431.227,-279.4324 430.4451,-286.3886"/>
</g>
<!-- Node7 -->
<g id="node5" class="node">
<title>Node7</title>
<g id="a_node5"><a xlink:href="arch_2arm64-linux_2odp_2api_2abi_2rwlock__recursive_8h_source.html" target="_top" xlink:title="rwlock_recursive.h">
<polygon fill="#ffffff" stroke="#000000" points="126,-224.5 126,-243.5 234,-243.5 234,-224.5 126,-224.5"/>
<text text-anchor="middle" x="180" y="-231.5" font-family="Helvetica,sans-Serif" font-size="10.00" fill="#000000">rwlock_recursive.h</text>
</a>
</g>
</g>
<!-- Node5&#45;&gt;Node7 -->
<g id="edge4" class="edge">
<title>Node5&#45;&gt;Node7</title>
<path fill="none" stroke="#191970" d="M431.0416,-278.6296C372.9356,-268.2997 288.1918,-253.2341 233.5706,-243.5237"/>
<polygon fill="#191970" stroke="#191970" points="430.7492,-282.1324 441.2075,-280.4369 431.9745,-275.2405 430.7492,-282.1324"/>
</g>
<!-- Node8 -->
<g id="node6" class="node">
<title>Node8</title>
<g id="a_node6"><a xlink:href="arch_2default-linux_2odp_2api_2abi_2rwlock__recursive_8h_source.html" target="_top" xlink:title="rwlock_recursive.h">
<polygon fill="#ffffff" stroke="#000000" points="252,-224.5 252,-243.5 360,-243.5 360,-224.5 252,-224.5"/>
<text text-anchor="middle" x="306" y="-231.5" font-family="Helvetica,sans-Serif" font-size="10.00" fill="#000000">rwlock_recursive.h</text>
</a>
</g>
</g>
<!-- Node5&#45;&gt;Node8 -->
<g id="edge5" class="edge">
<title>Node5&#45;&gt;Node8</title>
<path fill="none" stroke="#191970" d="M452.6643,-277.4561C417.9706,-267.1765 369.6166,-252.8494 338.0663,-243.5011"/>
<polygon fill="#191970" stroke="#191970" points="451.9274,-280.8881 462.5097,-280.3733 453.9161,-274.1765 451.9274,-280.8881"/>
</g>
<!-- Node9 -->
<g id="node7" class="node">
<title>Node9</title>
<g id="a_node7"><a xlink:href="arch_2mips64-linux_2odp_2api_2abi_2rwlock__recursive_8h_source.html" target="_top" xlink:title="rwlock_recursive.h">
<polygon fill="#ffffff" stroke="#000000" points="378,-224.5 378,-243.5 486,-243.5 486,-224.5 378,-224.5"/>
<text text-anchor="middle" x="432" y="-231.5" font-family="Helvetica,sans-Serif" font-size="10.00" fill="#000000">rwlock_recursive.h</text>
</a>
</g>
</g>
<!-- Node5&#45;&gt;Node9 -->
<g id="edge6" class="edge">
<title>Node5&#45;&gt;Node9</title>
<path fill="none" stroke="#191970" d="M476.2808,-273.3607C465.3818,-263.6727 452.0245,-251.7995 442.848,-243.6427"/>
<polygon fill="#191970" stroke="#191970" points="474.2268,-276.2178 484.0262,-280.2455 478.8774,-270.9859 474.2268,-276.2178"/>
</g>
<!-- Node10 -->
<g id="node8" class="node">
<title>Node10</title>
<g id="a_node8"><a xlink:href="arch_2power64-linux_2odp_2api_2abi_2rwlock__recursive_8h_source.html" target="_top" xlink:title="rwlock_recursive.h">
<polygon fill="#ffffff" stroke="#000000" points="504,-224.5 504,-243.5 612,-243.5 612,-224.5 504,-224.5"/>
<text text-anchor="middle" x="558" y="-231.5" font-family="Helvetica,sans-Serif" font-size="10.00" fill="#000000">rwlock_recursive.h</text>
</a>
</g>
</g>
<!-- Node5&#45;&gt;Node10 -->
<g id="edge7" class="edge">
<title>Node5&#45;&gt;Node10</title>
<path fill="none" stroke="#191970" d="M513.7192,-273.3607C524.6182,-263.6727 537.9755,-251.7995 547.152,-243.6427"/>
<polygon fill="#191970" stroke="#191970" points="511.1226,-270.9859 505.9738,-280.2455 515.7732,-276.2178 511.1226,-270.9859"/>
</g>
<!-- Node11 -->
<g id="node9" class="node">
<title>Node11</title>
<g id="a_node9"><a xlink:href="arch_2x86__32-linux_2odp_2api_2abi_2rwlock__recursive_8h_source.html" target="_top" xlink:title="rwlock_recursive.h">
<polygon fill="#ffffff" stroke="#000000" points="630,-224.5 630,-243.5 738,-243.5 738,-224.5 630,-224.5"/>
<text text-anchor="middle" x="684" y="-231.5" font-family="Helvetica,sans-Serif" font-size="10.00" fill="#000000">rwlock_recursive.h</text>
</a>
</g>
</g>
<!-- Node5&#45;&gt;Node11 -->
<g id="edge8" class="edge">
<title>Node5&#45;&gt;Node11</title>
<path fill="none" stroke="#191970" d="M537.3357,-277.4561C572.0294,-267.1765 620.3834,-252.8494 651.9337,-243.5011"/>
<polygon fill="#191970" stroke="#191970" points="536.0839,-274.1765 527.4903,-280.3733 538.0726,-280.8881 536.0839,-274.1765"/>
</g>
<!-- Node12 -->
<g id="node10" class="node">
<title>Node12</title>
<g id="a_node10"><a xlink:href="arch_2x86__64-linux_2odp_2api_2abi_2rwlock__recursive_8h_source.html" target="_top" xlink:title="rwlock_recursive.h">
<polygon fill="#ffffff" stroke="#000000" points="756,-224.5 756,-243.5 864,-243.5 864,-224.5 756,-224.5"/>
<text text-anchor="middle" x="810" y="-231.5" font-family="Helvetica,sans-Serif" font-size="10.00" fill="#000000">rwlock_recursive.h</text>
</a>
</g>
</g>
<!-- Node5&#45;&gt;Node12 -->
<g id="edge9" class="edge">
<title>Node5&#45;&gt;Node12</title>
<path fill="none" stroke="#191970" d="M558.9584,-278.6296C617.0644,-268.2997 701.8082,-253.2341 756.4294,-243.5237"/>
<polygon fill="#191970" stroke="#191970" points="558.0255,-275.2405 548.7925,-280.4369 559.2508,-282.1324 558.0255,-275.2405"/>
</g>
<!-- Node13 -->
<g id="node11" class="node">
<title>Node13</title>
<g id="a_node11"><a xlink:href="api_2rwlock__recursive_8h.html" target="_top" xlink:title="ODP resursive read/write lock. ">
<polygon fill="#ffffff" stroke="#000000" points="756,-112.5 756,-131.5 864,-131.5 864,-112.5 756,-112.5"/>
<text text-anchor="middle" x="810" y="-119.5" font-family="Helvetica,sans-Serif" font-size="10.00" fill="#000000">rwlock_recursive.h</text>
</a>
</g>
</g>
<!-- Node12&#45;&gt;Node13 -->
<g id="edge10" class="edge">
<title>Node12&#45;&gt;Node13</title>
<path fill="none" stroke="#191970" d="M810,-214.2702C810,-189.9985 810,-149.7725 810,-131.5249"/>
<polygon fill="#191970" stroke="#191970" points="806.5001,-214.4509 810,-224.4509 813.5001,-214.451 806.5001,-214.4509"/>
</g>
<!-- Node13&#45;&gt;Node14 -->
<g id="edge11" class="edge">
<title>Node13&#45;&gt;Node14</title>
<path fill="none" stroke="#191970" d="M842.0965,-108.3833C866.1035,-98.1985 898.3259,-84.5284 919.6045,-75.5011"/>
<polygon fill="#191970" stroke="#191970" points="840.5305,-105.2457 832.6916,-112.3733 843.2644,-111.6897 840.5305,-105.2457"/>
</g>
<!-- Node15 -->
<g id="node13" class="node">
<title>Node15</title>
<g id="a_node13"><a xlink:href="odp_8h.html" target="_top" xlink:title="WARNING: THIS FILE IS DEPRECATED AND WILL BE REMOVED!!! ODP APPLICATIONS SHOULD NOW INCLUDE odp_api...">
<polygon fill="#ffffff" stroke="#000000" points="920,-.5 920,-19.5 964,-19.5 964,-.5 920,-.5"/>
<text text-anchor="middle" x="942" y="-7.5" font-family="Helvetica,sans-Serif" font-size="10.00" fill="#000000">odp.h</text>
</a>
</g>
</g>
<!-- Node14&#45;&gt;Node15 -->
<g id="edge12" class="edge">
<title>Node14&#45;&gt;Node15</title>
<path fill="none" stroke="#191970" d="M942,-46.1575C942,-37.155 942,-26.9199 942,-19.6427"/>
<polygon fill="#191970" stroke="#191970" points="938.5001,-46.2455 942,-56.2455 945.5001,-46.2456 938.5001,-46.2455"/>
</g>
<!-- Node16&#45;&gt;Node14 -->
<g id="edge14" class="edge">
<title>Node16&#45;&gt;Node14</title>
<path fill="none" stroke="#191970" d="M942,-158.2702C942,-133.9985 942,-93.7725 942,-75.5249"/>
<polygon fill="#191970" stroke="#191970" points="938.5001,-158.4509 942,-168.4509 945.5001,-158.451 938.5001,-158.4509"/>
</g>
<!-- Node18 -->
<g id="node16" class="node">
<title>Node18</title>
<g id="a_node16"><a xlink:href="api_2init_8h.html" target="_top" xlink:title="ODP initialization. ">
<polygon fill="#ffffff" stroke="#000000" points="971.5,-224.5 971.5,-243.5 1012.5,-243.5 1012.5,-224.5 971.5,-224.5"/>
<text text-anchor="middle" x="992" y="-231.5" font-family="Helvetica,sans-Serif" font-size="10.00" fill="#000000">init.h</text>
</a>
</g>
</g>
<!-- Node17&#45;&gt;Node18 -->
<g id="edge16" class="edge">
<title>Node17&#45;&gt;Node18</title>
<path fill="none" stroke="#191970" d="M987.4803,-270.1575C988.6056,-261.155 989.885,-250.9199 990.7947,-243.6427"/>
<polygon fill="#191970" stroke="#191970" points="983.9868,-269.8886 986.2193,-280.2455 990.9327,-270.7569 983.9868,-269.8886"/>
</g>
<!-- Node18&#45;&gt;Node14 -->
<g id="edge20" class="edge">
<title>Node18&#45;&gt;Node14</title>
<path fill="none" stroke="#191970" d="M986.2944,-214.4762C979.2381,-190.3742 966.831,-148.1383 956,-112 952.2134,-99.3657 947.768,-84.8046 944.9194,-75.5076"/>
<polygon fill="#191970" stroke="#191970" points="982.9682,-215.5719 989.1351,-224.187 989.6866,-213.6066 982.9682,-215.5719"/>
</g>
<!-- Node19 -->
<g id="node17" class="node">
<title>Node19</title>
<g id="a_node17"><a xlink:href="api_2spec_2shared__memory_8h.html" target="_top" xlink:title="ODP shared memory. ">
<polygon fill="#ffffff" stroke="#000000" points="1020,-168.5 1020,-187.5 1124,-187.5 1124,-168.5 1020,-168.5"/>
<text text-anchor="middle" x="1072" y="-175.5" font-family="Helvetica,sans-Serif" font-size="10.00" fill="#000000">shared_memory.h</text>
</a>
</g>
</g>
<!-- Node18&#45;&gt;Node19 -->
<g id="edge17" class="edge">
<title>Node18&#45;&gt;Node19</title>
<path fill="none" stroke="#191970" d="M1014.1571,-218.49C1028.272,-208.6096 1046.1151,-196.1194 1058.2248,-187.6427"/>
<polygon fill="#191970" stroke="#191970" points="1012.1201,-215.6436 1005.9349,-224.2455 1016.1344,-221.3782 1012.1201,-215.6436"/>
</g>
<!-- Node20 -->
<g id="node18" class="node">
<title>Node20</title>
<g id="a_node18"><a xlink:href="api_2shared__memory_8h.html" target="_top" xlink:title="ODP shared memory. ">
<polygon fill="#ffffff" stroke="#000000" points="1020,-112.5 1020,-131.5 1124,-131.5 1124,-112.5 1020,-112.5"/>
<text text-anchor="middle" x="1072" y="-119.5" font-family="Helvetica,sans-Serif" font-size="10.00" fill="#000000">shared_memory.h</text>
</a>
</g>
</g>
<!-- Node19&#45;&gt;Node20 -->
<g id="edge18" class="edge">
<title>Node19&#45;&gt;Node20</title>
<path fill="none" stroke="#191970" d="M1072,-158.1575C1072,-149.155 1072,-138.9199 1072,-131.6427"/>
<polygon fill="#191970" stroke="#191970" points="1068.5001,-158.2455 1072,-168.2455 1075.5001,-158.2456 1068.5001,-158.2455"/>
</g>
<!-- Node20&#45;&gt;Node14 -->
<g id="edge19" class="edge">
<title>Node20&#45;&gt;Node14</title>
<path fill="none" stroke="#191970" d="M1040.3898,-108.3833C1016.7465,-98.1985 985.0124,-84.5284 964.0562,-75.5011"/>
<polygon fill="#191970" stroke="#191970" points="1039.0834,-111.6314 1049.6522,-112.3733 1041.8528,-105.2025 1039.0834,-111.6314"/>
</g>
</g>
</svg>
