<?xml version="1.0" encoding="UTF-8" standalone="no"?>
<!DOCTYPE svg PUBLIC "-//W3C//DTD SVG 1.1//EN"
 "http://www.w3.org/Graphics/SVG/1.1/DTD/svg11.dtd">
<!-- Generated by graphviz version 2.40.1 (20161225.0304)
 -->
<!-- Title: queue.h Pages: 1 -->
<svg width="1424pt" height="666pt"
 viewBox="0.00 0.00 1423.77 666.00" xmlns="http://www.w3.org/2000/svg" xmlns:xlink="http://www.w3.org/1999/xlink">
<g id="graph0" class="graph" transform="scale(1 1) rotate(0) translate(4 662)">
<title>queue.h</title>
<polygon fill="#ffffff" stroke="transparent" points="-4,4 -4,-662 1419.7732,-662 1419.7732,4 -4,4"/>
<!-- Node0 -->
<g id="node1" class="node">
<title>Node0</title>
<polygon fill="#bfbfbf" stroke="#000000" points="248.7732,-638.5 248.7732,-657.5 304.7732,-657.5 304.7732,-638.5 248.7732,-638.5"/>
<text text-anchor="middle" x="276.7732" y="-645.5" font-family="Helvetica,sans-Serif" font-size="10.00" fill="#000000">queue.h</text>
</g>
<!-- Node1 -->
<g id="node2" class="node">
<title>Node1</title>
<g id="a_node2"><a xlink:href="api_2std__types_8h.html" target="_top" xlink:title="Standard C language types and definitions for ODP. ">
<polygon fill="#ffffff" stroke="#000000" points="440.7732,-235.5 440.7732,-254.5 552.7732,-254.5 552.7732,-235.5 440.7732,-235.5"/>
<text text-anchor="middle" x="496.7732" y="-242.5" font-family="Helvetica,sans-Serif" font-size="10.00" fill="#000000">odp/api/std_types.h</text>
</a>
</g>
</g>
<!-- Node0&#45;&gt;Node1 -->
<g id="edge1" class="edge">
<title>Node0&#45;&gt;Node1</title>
<path fill="none" stroke="#191970" d="M248.5334,-642.7972C178.1903,-629.0364 .7732,-589.0691 .7732,-536 .7732,-536 .7732,-536 .7732,-424 .7732,-393.4754 -2.3195,-379.0634 19.7732,-358 78.3685,-302.1346 313.3337,-266.8927 430.15,-252.4764"/>
<polygon fill="#191970" stroke="#191970" points="430.8928,-255.9118 440.396,-251.228 430.0461,-248.9632 430.8928,-255.9118"/>
</g>
<!-- Node10 -->
<g id="node11" class="node">
<title>Node10</title>
<polygon fill="#ffffff" stroke="#bfbfbf" points="948.7732,-358.5 948.7732,-377.5 1058.7732,-377.5 1058.7732,-358.5 948.7732,-358.5"/>
<text text-anchor="middle" x="1003.7732" y="-365.5" font-family="Helvetica,sans-Serif" font-size="10.00" fill="#000000">odp/api/abi/event.h</text>
</g>
<!-- Node0&#45;&gt;Node10 -->
<g id="edge12" class="edge">
<title>Node0&#45;&gt;Node10</title>
<path fill="none" stroke="#191970" d="M305.1181,-644.7931C411.8894,-632.3378 783.7732,-585.4096 783.7732,-536 783.7732,-536 783.7732,-536 783.7732,-480 783.7732,-440.8429 895.8554,-400.5239 960.0185,-380.6509"/>
<polygon fill="#191970" stroke="#191970" points="961.338,-383.9076 969.8803,-377.6402 959.2941,-377.2126 961.338,-383.9076"/>
</g>
<!-- Node11 -->
<g id="node12" class="node">
<title>Node11</title>
<polygon fill="#ffffff" stroke="#bfbfbf" points="29.2732,-358.5 29.2732,-377.5 142.2732,-377.5 142.2732,-358.5 29.2732,-358.5"/>
<text text-anchor="middle" x="85.7732" y="-365.5" font-family="Helvetica,sans-Serif" font-size="10.00" fill="#000000">odp/api/abi/queue.h</text>
</g>
<!-- Node0&#45;&gt;Node11 -->
<g id="edge13" class="edge">
<title>Node0&#45;&gt;Node11</title>
<path fill="none" stroke="#191970" d="M248.6667,-640.1231C206.76,-626.4633 132.7732,-594.1173 132.7732,-536 132.7732,-536 132.7732,-536 132.7732,-480 132.7732,-444.5481 112.5028,-407.3564 98.586,-385.9999"/>
<polygon fill="#191970" stroke="#191970" points="101.4152,-383.9356 92.9115,-377.6161 95.6182,-387.8593 101.4152,-383.9356"/>
</g>
<!-- Node12 -->
<g id="node13" class="node">
<title>Node12</title>
<polygon fill="#ffffff" stroke="#bfbfbf" points="160.7732,-358.5 160.7732,-377.5 270.7732,-377.5 270.7732,-358.5 160.7732,-358.5"/>
<text text-anchor="middle" x="215.7732" y="-365.5" font-family="Helvetica,sans-Serif" font-size="10.00" fill="#000000">odp/api/abi/buffer.h</text>
</g>
<!-- Node0&#45;&gt;Node12 -->
<g id="edge14" class="edge">
<title>Node0&#45;&gt;Node12</title>
<path fill="none" stroke="#191970" d="M271.1661,-638.4834C260.5958,-619.6141 238.7732,-575.8343 238.7732,-536 238.7732,-536 238.7732,-536 238.7732,-480 238.7732,-446.906 229.0184,-409.4151 222.2144,-387.2901"/>
<polygon fill="#191970" stroke="#191970" points="225.5438,-386.2105 219.1669,-377.7497 218.8757,-388.3405 225.5438,-386.2105"/>
</g>
<!-- Node13 -->
<g id="node14" class="node">
<title>Node13</title>
<polygon fill="#ffffff" stroke="#bfbfbf" points="364.7732,-358.5 364.7732,-377.5 468.7732,-377.5 468.7732,-358.5 364.7732,-358.5"/>
<text text-anchor="middle" x="416.7732" y="-365.5" font-family="Helvetica,sans-Serif" font-size="10.00" fill="#000000">odp/api/abi/pool.h</text>
</g>
<!-- Node0&#45;&gt;Node13 -->
<g id="edge15" class="edge">
<title>Node0&#45;&gt;Node13</title>
<path fill="none" stroke="#191970" d="M281.5923,-638.3618C301.8285,-597.8894 380.1398,-441.2667 407.3743,-386.7977"/>
<polygon fill="#191970" stroke="#191970" points="410.6326,-388.1072 411.9743,-377.5977 404.3716,-384.9767 410.6326,-388.1072"/>
</g>
<!-- Node14 -->
<g id="node15" class="node">
<title>Node14</title>
<g id="a_node15"><a xlink:href="api_2spec_2queue_8h.html" target="_top" xlink:title="ODP queue. ">
<polygon fill="#ffffff" stroke="#000000" points="935.7732,-582.5 935.7732,-601.5 1055.7732,-601.5 1055.7732,-582.5 935.7732,-582.5"/>
<text text-anchor="middle" x="995.7732" y="-589.5" font-family="Helvetica,sans-Serif" font-size="10.00" fill="#000000">odp/api/spec/queue.h</text>
</a>
</g>
</g>
<!-- Node0&#45;&gt;Node14 -->
<g id="edge16" class="edge">
<title>Node0&#45;&gt;Node14</title>
<path fill="none" stroke="#191970" d="M304.9588,-645.8047C408.7006,-637.7247 771.2522,-609.487 925.4762,-597.4751"/>
<polygon fill="#191970" stroke="#191970" points="926.0734,-600.9393 935.7714,-596.6733 925.5298,-593.9605 926.0734,-600.9393"/>
</g>
<!-- Node2 -->
<g id="node3" class="node">
<title>Node2</title>
<polygon fill="#ffffff" stroke="#bfbfbf" points="577.7732,-174 577.7732,-193 707.7732,-193 707.7732,-174 577.7732,-174"/>
<text text-anchor="middle" x="642.7732" y="-181" font-family="Helvetica,sans-Serif" font-size="10.00" fill="#000000">odp/api/abi/std_types.h</text>
</g>
<!-- Node1&#45;&gt;Node2 -->
<g id="edge2" class="edge">
<title>Node1&#45;&gt;Node2</title>
<path fill="none" stroke="#191970" d="M519.5857,-235.3906C544.1213,-225.0554 583.3174,-208.5447 610.8942,-196.9284"/>
<polygon fill="#191970" stroke="#191970" points="612.2638,-200.1495 620.1209,-193.0419 609.5464,-193.6984 612.2638,-200.1495"/>
</g>
<!-- Node3 -->
<g id="node4" class="node">
<title>Node3</title>
<g id="a_node4"><a xlink:href="api_2spec_2std__types_8h.html" target="_top" xlink:title="Standard C language types and definitions for ODP. ">
<polygon fill="#ffffff" stroke="#000000" points="422.2732,-174 422.2732,-193 559.2732,-193 559.2732,-174 422.2732,-174"/>
<text text-anchor="middle" x="490.7732" y="-181" font-family="Helvetica,sans-Serif" font-size="10.00" fill="#000000">odp/api/spec/std_types.h</text>
</a>
</g>
</g>
<!-- Node1&#45;&gt;Node3 -->
<g id="edge3" class="edge">
<title>Node1&#45;&gt;Node3</title>
<path fill="none" stroke="#191970" d="M495.8357,-235.3906C495.004,-226.8657 493.7624,-214.1392 492.7169,-203.4235"/>
<polygon fill="#191970" stroke="#191970" points="496.1784,-202.8577 491.7239,-193.2449 489.2115,-203.5375 496.1784,-202.8577"/>
</g>
<!-- Node4 -->
<g id="node5" class="node">
<title>Node4</title>
<g id="a_node5"><a xlink:href="visibility__begin_8h_source.html" target="_top" xlink:title="odp/visibility_begin.h">
<polygon fill="#ffffff" stroke="#000000" points="1184.2732,-.5 1184.2732,-19.5 1305.2732,-19.5 1305.2732,-.5 1184.2732,-.5"/>
<text text-anchor="middle" x="1244.7732" y="-7.5" font-family="Helvetica,sans-Serif" font-size="10.00" fill="#000000">odp/visibility_begin.h</text>
</a>
</g>
</g>
<!-- Node3&#45;&gt;Node4 -->
<g id="edge4" class="edge">
<title>Node3&#45;&gt;Node4</title>
<path fill="none" stroke="#191970" d="M536.4796,-173.9965C547.0633,-171.9129 558.2949,-169.7953 568.7732,-168 639.3666,-155.9048 1147.4917,-116.1925 1206.7732,-76 1222.9561,-65.0281 1233.1226,-44.7099 1238.8236,-29.5039"/>
<polygon fill="#191970" stroke="#191970" points="1242.1594,-30.5655 1242.076,-19.971 1235.5344,-28.3051 1242.1594,-30.5655"/>
</g>
<!-- Node5 -->
<g id="node6" class="node">
<title>Node5</title>
<polygon fill="#ffffff" stroke="#bfbfbf" points="403.2732,-112.5 403.2732,-131.5 456.2732,-131.5 456.2732,-112.5 403.2732,-112.5"/>
<text text-anchor="middle" x="429.7732" y="-119.5" font-family="Helvetica,sans-Serif" font-size="10.00" fill="#000000">stdint.h</text>
</g>
<!-- Node3&#45;&gt;Node5 -->
<g id="edge5" class="edge">
<title>Node3&#45;&gt;Node5</title>
<path fill="none" stroke="#191970" d="M481.2419,-173.8906C471.9852,-164.5581 457.7341,-150.1902 446.5729,-138.9374"/>
<polygon fill="#191970" stroke="#191970" points="448.9659,-136.38 439.4388,-131.7449 443.996,-141.3095 448.9659,-136.38"/>
</g>
<!-- Node6 -->
<g id="node7" class="node">
<title>Node6</title>
<g id="a_node7"><a xlink:href="api_2align_8h.html" target="_top" xlink:title="ODP alignments. ">
<polygon fill="#ffffff" stroke="#000000" points="513.2732,-112.5 513.2732,-131.5 602.2732,-131.5 602.2732,-112.5 513.2732,-112.5"/>
<text text-anchor="middle" x="557.7732" y="-119.5" font-family="Helvetica,sans-Serif" font-size="10.00" fill="#000000">odp/api/align.h</text>
</a>
</g>
</g>
<!-- Node3&#45;&gt;Node6 -->
<g id="edge6" class="edge">
<title>Node3&#45;&gt;Node6</title>
<path fill="none" stroke="#191970" d="M501.2419,-173.8906C511.5068,-164.4683 527.3635,-149.9134 539.6737,-138.6137"/>
<polygon fill="#191970" stroke="#191970" points="542.1566,-141.0856 547.1568,-131.7449 537.423,-135.9287 542.1566,-141.0856"/>
</g>
<!-- Node9 -->
<g id="node10" class="node">
<title>Node9</title>
<g id="a_node10"><a xlink:href="visibility__end_8h_source.html" target="_top" xlink:title="odp/visibility_end.h">
<polygon fill="#ffffff" stroke="#000000" points="610.7732,-.5 610.7732,-19.5 722.7732,-19.5 722.7732,-.5 610.7732,-.5"/>
<text text-anchor="middle" x="666.7732" y="-7.5" font-family="Helvetica,sans-Serif" font-size="10.00" fill="#000000">odp/visibility_end.h</text>
</a>
</g>
</g>
<!-- Node3&#45;&gt;Node9 -->
<g id="edge11" class="edge">
<title>Node3&#45;&gt;Node9</title>
<path fill="none" stroke="#191970" d="M488.4789,-173.7359C484.8572,-159.473 476.95,-132.4202 464.7732,-112 450.0915,-87.3794 414.5629,-78.1386 432.7732,-56 453.7012,-30.5573 539.0367,-18.9709 600.6153,-13.8456"/>
<polygon fill="#191970" stroke="#191970" points="600.9717,-17.3284 610.6635,-13.0484 600.418,-10.3503 600.9717,-17.3284"/>
</g>
<!-- Node7 -->
<g id="node8" class="node">
<title>Node7</title>
<polygon fill="#ffffff" stroke="#bfbfbf" points="441.2732,-56.5 441.2732,-75.5 548.2732,-75.5 548.2732,-56.5 441.2732,-56.5"/>
<text text-anchor="middle" x="494.7732" y="-63.5" font-family="Helvetica,sans-Serif" font-size="10.00" fill="#000000">odp/api/abi/align.h</text>
</g>
<!-- Node6&#45;&gt;Node7 -->
<g id="edge7" class="edge">
<title>Node6&#45;&gt;Node7</title>
<path fill="none" stroke="#191970" d="M546.7994,-112.2455C537.585,-104.0549 524.22,-92.1749 513.3435,-82.5069"/>
<polygon fill="#191970" stroke="#191970" points="515.4206,-79.6704 505.6212,-75.6427 510.77,-84.9023 515.4206,-79.6704"/>
</g>
<!-- Node8 -->
<g id="node9" class="node">
<title>Node8</title>
<g id="a_node9"><a xlink:href="api_2spec_2align_8h.html" target="_top" xlink:title="ODP alignments. ">
<polygon fill="#ffffff" stroke="#000000" points="566.7732,-56.5 566.7732,-75.5 680.7732,-75.5 680.7732,-56.5 566.7732,-56.5"/>
<text text-anchor="middle" x="623.7732" y="-63.5" font-family="Helvetica,sans-Serif" font-size="10.00" fill="#000000">odp/api/spec/align.h</text>
</a>
</g>
</g>
<!-- Node6&#45;&gt;Node8 -->
<g id="edge8" class="edge">
<title>Node6&#45;&gt;Node8</title>
<path fill="none" stroke="#191970" d="M569.2695,-112.2455C579.0174,-103.9746 593.1991,-91.9416 604.6529,-82.2232"/>
<polygon fill="#191970" stroke="#191970" points="607.0479,-84.7813 612.4086,-75.6427 602.519,-79.4437 607.0479,-84.7813"/>
</g>
<!-- Node8&#45;&gt;Node4 -->
<g id="edge9" class="edge">
<title>Node8&#45;&gt;Node4</title>
<path fill="none" stroke="#191970" d="M680.9867,-60.4879C696.4915,-59.0114 713.274,-57.4289 728.7732,-56 887.7127,-41.3471 1074.266,-24.9034 1173.7636,-16.1937"/>
<polygon fill="#191970" stroke="#191970" points="1174.3381,-19.6569 1183.9949,-15.2985 1173.7279,-12.6835 1174.3381,-19.6569"/>
</g>
<!-- Node8&#45;&gt;Node9 -->
<g id="edge10" class="edge">
<title>Node8&#45;&gt;Node9</title>
<path fill="none" stroke="#191970" d="M631.2632,-56.2455C637.3058,-48.3761 645.9635,-37.101 653.2173,-27.6542"/>
<polygon fill="#191970" stroke="#191970" points="656.0547,-29.7058 659.369,-19.6427 650.5026,-25.4426 656.0547,-29.7058"/>
</g>
<!-- Node14&#45;&gt;Node4 -->
<g id="edge17" class="edge">
<title>Node14&#45;&gt;Node4</title>
<path fill="none" stroke="#191970" d="M1055.9489,-588.486C1172.0827,-580.0487 1415.7732,-553.5781 1415.7732,-480 1415.7732,-480 1415.7732,-480 1415.7732,-122 1415.7732,-66.272 1351.4321,-36.7699 1301.684,-22.2881"/>
<polygon fill="#191970" stroke="#191970" points="1302.524,-18.889 1291.9523,-19.5887 1300.6529,-25.6343 1302.524,-18.889"/>
</g>
<!-- Node14&#45;&gt;Node9 -->
<g id="edge56" class="edge">
<title>Node14&#45;&gt;Node9</title>
<path fill="none" stroke="#191970" d="M935.596,-587.5084C822.2688,-576.7093 572.6967,-541.6258 395.7732,-434 307.5813,-380.3512 260.7732,-348.2279 260.7732,-245 260.7732,-245 260.7732,-245 260.7732,-122 260.7732,-52.354 485.5949,-24.3413 600.6395,-14.5661"/>
<polygon fill="#191970" stroke="#191970" points="601.0694,-18.0425 610.7469,-13.7302 600.4924,-11.0664 601.0694,-18.0425"/>
</g>
<!-- Node15 -->
<g id="node16" class="node">
<title>Node15</title>
<g id="a_node16"><a xlink:href="api_2event_8h.html" target="_top" xlink:title="ODP event. ">
<polygon fill="#ffffff" stroke="#000000" points="949.7732,-526.5 949.7732,-545.5 1041.7732,-545.5 1041.7732,-526.5 949.7732,-526.5"/>
<text text-anchor="middle" x="995.7732" y="-533.5" font-family="Helvetica,sans-Serif" font-size="10.00" fill="#000000">odp/api/event.h</text>
</a>
</g>
</g>
<!-- Node14&#45;&gt;Node15 -->
<g id="edge18" class="edge">
<title>Node14&#45;&gt;Node15</title>
<path fill="none" stroke="#191970" d="M995.7732,-582.2455C995.7732,-574.9382 995.7732,-564.6944 995.7732,-555.7046"/>
<polygon fill="#191970" stroke="#191970" points="999.2733,-555.6426 995.7732,-545.6427 992.2733,-555.6427 999.2733,-555.6426"/>
</g>
<!-- Node24 -->
<g id="node25" class="node">
<title>Node24</title>
<g id="a_node25"><a xlink:href="queue__types_8h.html" target="_top" xlink:title="ODP queue types. ">
<polygon fill="#ffffff" stroke="#000000" points="1059.2732,-291.5 1059.2732,-321.5 1170.2732,-321.5 1170.2732,-291.5 1059.2732,-291.5"/>
<text text-anchor="start" x="1067.2732" y="-309.5" font-family="Helvetica,sans-Serif" font-size="10.00" fill="#000000">odp/api/spec/queue</text>
<text text-anchor="middle" x="1114.7732" y="-298.5" font-family="Helvetica,sans-Serif" font-size="10.00" fill="#000000">_types.h</text>
</a>
</g>
</g>
<!-- Node14&#45;&gt;Node24 -->
<g id="edge40" class="edge">
<title>Node14&#45;&gt;Node24</title>
<path fill="none" stroke="#191970" d="M1019.5686,-582.4085C1054.2958,-566.6512 1114.7732,-531.777 1114.7732,-480 1114.7732,-480 1114.7732,-480 1114.7732,-424 1114.7732,-392.3014 1114.7732,-355.7926 1114.7732,-331.9922"/>
<polygon fill="#191970" stroke="#191970" points="1118.2733,-331.7101 1114.7732,-321.7101 1111.2733,-331.7102 1118.2733,-331.7101"/>
</g>
<!-- Node15&#45;&gt;Node10 -->
<g id="edge19" class="edge">
<title>Node15&#45;&gt;Node10</title>
<path fill="none" stroke="#191970" d="M996.2262,-526.4862C997.4908,-499.9293 1001.0796,-424.5651 1002.8129,-388.1655"/>
<polygon fill="#191970" stroke="#191970" points="1006.3255,-387.9831 1003.3052,-377.8279 999.3334,-387.6501 1006.3255,-387.9831"/>
</g>
<!-- Node16 -->
<g id="node17" class="node">
<title>Node16</title>
<g id="a_node17"><a xlink:href="api_2spec_2event_8h.html" target="_top" xlink:title="ODP event. ">
<polygon fill="#ffffff" stroke="#000000" points="575.7732,-470.5 575.7732,-489.5 693.7732,-489.5 693.7732,-470.5 575.7732,-470.5"/>
<text text-anchor="middle" x="634.7732" y="-477.5" font-family="Helvetica,sans-Serif" font-size="10.00" fill="#000000">odp/api/spec/event.h</text>
</a>
</g>
</g>
<!-- Node15&#45;&gt;Node16 -->
<g id="edge20" class="edge">
<title>Node15&#45;&gt;Node16</title>
<path fill="none" stroke="#191970" d="M949.6856,-528.8507C887.5076,-519.2053 776.2369,-501.9445 703.9839,-490.7363"/>
<polygon fill="#191970" stroke="#191970" points="704.4752,-487.2707 694.0568,-489.1964 703.4021,-494.188 704.4752,-487.2707"/>
</g>
<!-- Node16&#45;&gt;Node4 -->
<g id="edge21" class="edge">
<title>Node16&#45;&gt;Node4</title>
<path fill="none" stroke="#191970" d="M689.4077,-470.4563C860.9944,-438.9514 1377.7732,-331.7594 1377.7732,-183.5 1377.7732,-183.5 1377.7732,-183.5 1377.7732,-122 1377.7732,-72.0478 1322.2026,-39.8768 1282.9023,-23.371"/>
<polygon fill="#191970" stroke="#191970" points="1283.8888,-19.9953 1273.305,-19.5108 1281.2766,-26.4897 1283.8888,-19.9953"/>
</g>
<!-- Node16&#45;&gt;Node9 -->
<g id="edge39" class="edge">
<title>Node16&#45;&gt;Node9</title>
<path fill="none" stroke="#191970" d="M575.5378,-474.2759C512.1681,-464.9744 413.0661,-440.7442 355.7732,-378 333.6018,-353.719 336.7732,-339.3806 336.7732,-306.5 336.7732,-306.5 336.7732,-306.5 336.7732,-122 336.7732,-83.8166 358.6539,-75.0023 391.7732,-56 426.439,-36.1103 530.8027,-22.7405 600.5258,-15.755"/>
<polygon fill="#191970" stroke="#191970" points="600.939,-19.2313 610.549,-14.7706 600.2548,-12.2648 600.939,-19.2313"/>
</g>
<!-- Node17 -->
<g id="node18" class="node">
<title>Node17</title>
<g id="a_node18"><a xlink:href="api_2packet_8h.html" target="_top" xlink:title="ODP packet descriptor. ">
<polygon fill="#ffffff" stroke="#000000" points="540.7732,-414.5 540.7732,-433.5 638.7732,-433.5 638.7732,-414.5 540.7732,-414.5"/>
<text text-anchor="middle" x="589.7732" y="-421.5" font-family="Helvetica,sans-Serif" font-size="10.00" fill="#000000">odp/api/packet.h</text>
</a>
</g>
</g>
<!-- Node16&#45;&gt;Node17 -->
<g id="edge22" class="edge">
<title>Node16&#45;&gt;Node17</title>
<path fill="none" stroke="#191970" d="M626.9348,-470.2455C620.6111,-462.3761 611.5508,-451.101 603.9596,-441.6542"/>
<polygon fill="#191970" stroke="#191970" points="606.514,-439.2454 597.5217,-433.6427 601.0574,-443.6302 606.514,-439.2454"/>
</g>
<!-- Node17&#45;&gt;Node1 -->
<g id="edge23" class="edge">
<title>Node17&#45;&gt;Node1</title>
<path fill="none" stroke="#191970" d="M563.2861,-414.3463C546.9034,-406.9583 526.935,-395.1013 515.7732,-378 493.0274,-343.1507 492.7578,-292.2751 494.6834,-264.6395"/>
<polygon fill="#191970" stroke="#191970" points="498.1732,-264.9083 495.5513,-254.643 491.1994,-264.3027 498.1732,-264.9083"/>
</g>
<!-- Node17&#45;&gt;Node10 -->
<g id="edge24" class="edge">
<title>Node17&#45;&gt;Node10</title>
<path fill="none" stroke="#191970" d="M638.8055,-417.9377C704.5613,-409.7231 825.2194,-394.3544 938.4022,-378.1709"/>
<polygon fill="#191970" stroke="#191970" points="939.2265,-381.5886 948.628,-376.7036 938.2322,-374.6595 939.2265,-381.5886"/>
</g>
<!-- Node17&#45;&gt;Node11 -->
<g id="edge27" class="edge">
<title>Node17&#45;&gt;Node11</title>
<path fill="none" stroke="#191970" d="M540.7509,-419.5892C461.5042,-412.2971 300.1048,-396.7774 152.4314,-378.0318"/>
<polygon fill="#191970" stroke="#191970" points="152.6379,-374.5298 142.275,-376.7346 151.751,-381.4734 152.6379,-374.5298"/>
</g>
<!-- Node17&#45;&gt;Node12 -->
<g id="edge28" class="edge">
<title>Node17&#45;&gt;Node12</title>
<path fill="none" stroke="#191970" d="M540.4946,-416.6214C473.9052,-406.6508 355.0345,-388.852 281.0705,-377.7771"/>
<polygon fill="#191970" stroke="#191970" points="281.3501,-374.2801 270.9421,-376.2606 280.3135,-381.2029 281.3501,-374.2801"/>
</g>
<!-- Node17&#45;&gt;Node13 -->
<g id="edge29" class="edge">
<title>Node17&#45;&gt;Node13</title>
<path fill="none" stroke="#191970" d="M560.0334,-414.3733C531.2661,-405.0613 487.5032,-390.8953 455.9176,-380.671"/>
<polygon fill="#191970" stroke="#191970" points="456.7167,-377.251 446.1248,-377.5011 454.5609,-383.9107 456.7167,-377.251"/>
</g>
<!-- Node18 -->
<g id="node19" class="node">
<title>Node18</title>
<polygon fill="#ffffff" stroke="#bfbfbf" points="524.7732,-358.5 524.7732,-377.5 654.7732,-377.5 654.7732,-358.5 524.7732,-358.5"/>
<text text-anchor="middle" x="589.7732" y="-365.5" font-family="Helvetica,sans-Serif" font-size="10.00" fill="#000000">odp/api/abi/packet_io.h</text>
</g>
<!-- Node17&#45;&gt;Node18 -->
<g id="edge25" class="edge">
<title>Node17&#45;&gt;Node18</title>
<path fill="none" stroke="#191970" d="M589.7732,-414.2455C589.7732,-406.9382 589.7732,-396.6944 589.7732,-387.7046"/>
<polygon fill="#191970" stroke="#191970" points="593.2733,-387.6426 589.7732,-377.6427 586.2733,-387.6427 593.2733,-387.6426"/>
</g>
<!-- Node19 -->
<g id="node20" class="node">
<title>Node19</title>
<polygon fill="#ffffff" stroke="#bfbfbf" points="672.7732,-358.5 672.7732,-377.5 788.7732,-377.5 788.7732,-358.5 672.7732,-358.5"/>
<text text-anchor="middle" x="730.7732" y="-365.5" font-family="Helvetica,sans-Serif" font-size="10.00" fill="#000000">odp/api/abi/packet.h</text>
</g>
<!-- Node17&#45;&gt;Node19 -->
<g id="edge26" class="edge">
<title>Node17&#45;&gt;Node19</title>
<path fill="none" stroke="#191970" d="M614.0119,-414.3733C637.0521,-405.2226 671.8946,-391.3844 697.5232,-381.2057"/>
<polygon fill="#191970" stroke="#191970" points="698.8488,-384.4452 706.8507,-377.5011 696.2649,-377.9395 698.8488,-384.4452"/>
</g>
<!-- Node20 -->
<g id="node21" class="node">
<title>Node20</title>
<g id="a_node21"><a xlink:href="api_2spec_2packet_8h.html" target="_top" xlink:title="ODP packet descriptor. ">
<polygon fill="#ffffff" stroke="#000000" points="807.2732,-358.5 807.2732,-377.5 930.2732,-377.5 930.2732,-358.5 807.2732,-358.5"/>
<text text-anchor="middle" x="868.7732" y="-365.5" font-family="Helvetica,sans-Serif" font-size="10.00" fill="#000000">odp/api/spec/packet.h</text>
</a>
</g>
</g>
<!-- Node17&#45;&gt;Node20 -->
<g id="edge30" class="edge">
<title>Node17&#45;&gt;Node20</title>
<path fill="none" stroke="#191970" d="M637.418,-414.4369C685.5679,-404.7724 760.0003,-389.8326 811.3725,-379.5213"/>
<polygon fill="#191970" stroke="#191970" points="812.2092,-382.9232 821.3249,-377.5237 810.8316,-376.0601 812.2092,-382.9232"/>
</g>
<!-- Node20&#45;&gt;Node4 -->
<g id="edge31" class="edge">
<title>Node20&#45;&gt;Node4</title>
<path fill="none" stroke="#191970" d="M869.8583,-358.4064C873.2145,-333.5627 885.8069,-266.8522 926.7732,-235 1004.9904,-174.1843 1057.6614,-242.3081 1146.7732,-199 1166.5773,-189.3752 1205.5917,-148.8442 1219.7732,-132 1238.8295,-109.3656 1247.4353,-104.389 1255.7732,-76 1260.3192,-60.5215 1256.6959,-42.4138 1252.4287,-29.0845"/>
<polygon fill="#191970" stroke="#191970" points="1255.6834,-27.7916 1249.0123,-19.5607 1249.0945,-30.1552 1255.6834,-27.7916"/>
</g>
<!-- Node20&#45;&gt;Node9 -->
<g id="edge38" class="edge">
<title>Node20&#45;&gt;Node9</title>
<path fill="none" stroke="#191970" d="M807.2066,-359.1122C674.7812,-339.1558 374.7732,-289.0807 374.7732,-245 374.7732,-245 374.7732,-245 374.7732,-122 374.7732,-85.4662 392.8125,-75.3946 423.7732,-56 452.6402,-37.9169 539.0709,-24.5788 600.6211,-17.0503"/>
<polygon fill="#191970" stroke="#191970" points="601.1429,-20.5129 610.655,-15.8472 600.3094,-13.5627 601.1429,-20.5129"/>
</g>
<!-- Node21 -->
<g id="node22" class="node">
<title>Node21</title>
<g id="a_node22"><a xlink:href="api_2time_8h.html" target="_top" xlink:title="ODP time. ">
<polygon fill="#ffffff" stroke="#000000" points="710.2732,-297 710.2732,-316 797.2732,-316 797.2732,-297 710.2732,-297"/>
<text text-anchor="middle" x="753.7732" y="-304" font-family="Helvetica,sans-Serif" font-size="10.00" fill="#000000">odp/api/time.h</text>
</a>
</g>
</g>
<!-- Node20&#45;&gt;Node21 -->
<g id="edge32" class="edge">
<title>Node20&#45;&gt;Node21</title>
<path fill="none" stroke="#191970" d="M850.8044,-358.3906C831.9848,-348.3262 802.2147,-332.4057 780.6091,-320.8514"/>
<polygon fill="#191970" stroke="#191970" points="782.0845,-317.6714 771.6157,-316.0419 778.7834,-323.8442 782.0845,-317.6714"/>
</g>
<!-- Node21&#45;&gt;Node1 -->
<g id="edge33" class="edge">
<title>Node21&#45;&gt;Node1</title>
<path fill="none" stroke="#191970" d="M713.8989,-296.9581C668.8826,-286.1857 595.5733,-268.6428 546.7652,-256.9631"/>
<polygon fill="#191970" stroke="#191970" points="547.281,-253.4877 536.741,-254.5643 545.6518,-260.2955 547.281,-253.4877"/>
</g>
<!-- Node22 -->
<g id="node23" class="node">
<title>Node22</title>
<polygon fill="#ffffff" stroke="#bfbfbf" points="660.2732,-235.5 660.2732,-254.5 765.2732,-254.5 765.2732,-235.5 660.2732,-235.5"/>
<text text-anchor="middle" x="712.7732" y="-242.5" font-family="Helvetica,sans-Serif" font-size="10.00" fill="#000000">odp/api/abi/time.h</text>
</g>
<!-- Node21&#45;&gt;Node22 -->
<g id="edge34" class="edge">
<title>Node21&#45;&gt;Node22</title>
<path fill="none" stroke="#191970" d="M747.3669,-296.8906C741.3845,-287.917 732.2985,-274.2879 724.9393,-263.2491"/>
<polygon fill="#191970" stroke="#191970" points="727.729,-261.1239 719.2697,-254.7449 721.9046,-265.0068 727.729,-261.1239"/>
</g>
<!-- Node23 -->
<g id="node24" class="node">
<title>Node23</title>
<g id="a_node24"><a xlink:href="api_2spec_2time_8h.html" target="_top" xlink:title="ODP time. ">
<polygon fill="#ffffff" stroke="#000000" points="737.2732,-56.5 737.2732,-75.5 850.2732,-75.5 850.2732,-56.5 737.2732,-56.5"/>
<text text-anchor="middle" x="793.7732" y="-63.5" font-family="Helvetica,sans-Serif" font-size="10.00" fill="#000000">odp/api/spec/time.h</text>
</a>
</g>
</g>
<!-- Node21&#45;&gt;Node23 -->
<g id="edge35" class="edge">
<title>Node21&#45;&gt;Node23</title>
<path fill="none" stroke="#191970" d="M758.6614,-296.9085C763.592,-286.7712 770.9989,-270.1801 774.7732,-255 789.7858,-194.6183 792.99,-120.5804 793.637,-85.8129"/>
<polygon fill="#191970" stroke="#191970" points="797.1394,-85.6495 793.7718,-75.6041 790.14,-85.557 797.1394,-85.6495"/>
</g>
<!-- Node23&#45;&gt;Node4 -->
<g id="edge36" class="edge">
<title>Node23&#45;&gt;Node4</title>
<path fill="none" stroke="#191970" d="M850.436,-58.9643C932.5583,-48.7673 1084.5832,-29.8906 1173.9793,-18.7904"/>
<polygon fill="#191970" stroke="#191970" points="1174.536,-22.2482 1184.0285,-17.5426 1173.6734,-15.3016 1174.536,-22.2482"/>
</g>
<!-- Node23&#45;&gt;Node9 -->
<g id="edge37" class="edge">
<title>Node23&#45;&gt;Node9</title>
<path fill="none" stroke="#191970" d="M771.9411,-56.3733C751.4629,-47.3435 720.6333,-33.7494 697.6412,-23.6111"/>
<polygon fill="#191970" stroke="#191970" points="698.8825,-20.3333 688.3204,-19.5011 696.0582,-26.7383 698.8825,-20.3333"/>
</g>
<!-- Node24&#45;&gt;Node4 -->
<g id="edge41" class="edge">
<title>Node24&#45;&gt;Node4</title>
<path fill="none" stroke="#191970" d="M1170.3912,-300.383C1237.0201,-289.6122 1339.7732,-260.5167 1339.7732,-183.5 1339.7732,-183.5 1339.7732,-183.5 1339.7732,-122 1339.7732,-90.7875 1335.2129,-80.4196 1315.7732,-56 1305.2192,-42.7424 1289.757,-32.0914 1275.9544,-24.3904"/>
<polygon fill="#191970" stroke="#191970" points="1277.2228,-21.1025 1266.7446,-19.5344 1273.9579,-27.2945 1277.2228,-21.1025"/>
</g>
<!-- Node24&#45;&gt;Node9 -->
<g id="edge55" class="edge">
<title>Node24&#45;&gt;Node9</title>
<path fill="none" stroke="#191970" d="M1059.1297,-298.3037C1020.2803,-290.9376 968.1753,-277.6832 926.7732,-255 814.8418,-193.6757 714.8603,-72.6342 679.9415,-27.5054"/>
<polygon fill="#191970" stroke="#191970" points="682.6972,-25.3473 673.841,-19.532 677.1378,-29.6009 682.6972,-25.3473"/>
</g>
<!-- Node25 -->
<g id="node26" class="node">
<title>Node25</title>
<g id="a_node26"><a xlink:href="api_2schedule__types_8h.html" target="_top" xlink:title="ODP schedule. ">
<polygon fill="#ffffff" stroke="#000000" points="1072.7732,-235.5 1072.7732,-254.5 1212.7732,-254.5 1212.7732,-235.5 1072.7732,-235.5"/>
<text text-anchor="middle" x="1142.7732" y="-242.5" font-family="Helvetica,sans-Serif" font-size="10.00" fill="#000000">odp/api/schedule_types.h</text>
</a>
</g>
</g>
<!-- Node24&#45;&gt;Node25 -->
<g id="edge42" class="edge">
<title>Node24&#45;&gt;Node25</title>
<path fill="none" stroke="#191970" d="M1121.6945,-291.2977C1125.4193,-283.1166 1130.0512,-272.943 1134.0236,-264.2179"/>
<polygon fill="#191970" stroke="#191970" points="1137.3318,-265.3983 1138.29,-254.8469 1130.961,-262.4978 1137.3318,-265.3983"/>
</g>
<!-- Node30 -->
<g id="node31" class="node">
<title>Node30</title>
<g id="a_node31"><a xlink:href="deprecated_8h.html" target="_top" xlink:title="Control deprecated API definitions. ">
<polygon fill="#ffffff" stroke="#000000" points="935.2732,-235.5 935.2732,-254.5 1054.2732,-254.5 1054.2732,-235.5 935.2732,-235.5"/>
<text text-anchor="middle" x="994.7732" y="-242.5" font-family="Helvetica,sans-Serif" font-size="10.00" fill="#000000">odp/api/deprecated.h</text>
</a>
</g>
</g>
<!-- Node24&#45;&gt;Node30 -->
<g id="edge51" class="edge">
<title>Node24&#45;&gt;Node30</title>
<path fill="none" stroke="#191970" d="M1085.4179,-291.4554C1066.1859,-281.599 1041.212,-268.7999 1022.3491,-259.1327"/>
<polygon fill="#191970" stroke="#191970" points="1023.8646,-255.9765 1013.3689,-254.5303 1020.6719,-262.206 1023.8646,-255.9765"/>
</g>
<!-- Node26 -->
<g id="node27" class="node">
<title>Node26</title>
<polygon fill="#ffffff" stroke="#bfbfbf" points="1194.2732,-168.5 1194.2732,-198.5 1311.2732,-198.5 1311.2732,-168.5 1194.2732,-168.5"/>
<text text-anchor="start" x="1202.2732" y="-186.5" font-family="Helvetica,sans-Serif" font-size="10.00" fill="#000000">odp/api/abi/schedule</text>
<text text-anchor="middle" x="1252.7732" y="-175.5" font-family="Helvetica,sans-Serif" font-size="10.00" fill="#000000">_types.h</text>
</g>
<!-- Node25&#45;&gt;Node26 -->
<g id="edge43" class="edge">
<title>Node25&#45;&gt;Node26</title>
<path fill="none" stroke="#191970" d="M1159.9607,-235.3906C1175.1924,-226.8747 1197.9234,-214.166 1217.0771,-203.4573"/>
<polygon fill="#191970" stroke="#191970" points="1218.8437,-206.4796 1225.8641,-198.5446 1215.4277,-200.3697 1218.8437,-206.4796"/>
</g>
<!-- Node27 -->
<g id="node28" class="node">
<title>Node27</title>
<g id="a_node28"><a xlink:href="api_2spec_2schedule__types_8h.html" target="_top" xlink:title="ODP schedule types. ">
<polygon fill="#ffffff" stroke="#000000" points="1012.2732,-168.5 1012.2732,-198.5 1137.2732,-198.5 1137.2732,-168.5 1012.2732,-168.5"/>
<text text-anchor="start" x="1020.2732" y="-186.5" font-family="Helvetica,sans-Serif" font-size="10.00" fill="#000000">odp/api/spec/schedule</text>
<text text-anchor="middle" x="1074.7732" y="-175.5" font-family="Helvetica,sans-Serif" font-size="10.00" fill="#000000">_types.h</text>
</a>
</g>
</g>
<!-- Node25&#45;&gt;Node27 -->
<g id="edge44" class="edge">
<title>Node25&#45;&gt;Node27</title>
<path fill="none" stroke="#191970" d="M1132.1482,-235.3906C1123.286,-227.3756 1110.3174,-215.6466 1098.9509,-205.3666"/>
<polygon fill="#191970" stroke="#191970" points="1101.1722,-202.6565 1091.4078,-198.5446 1096.4768,-207.8482 1101.1722,-202.6565"/>
</g>
<!-- Node27&#45;&gt;Node4 -->
<g id="edge45" class="edge">
<title>Node27&#45;&gt;Node4</title>
<path fill="none" stroke="#191970" d="M1124.397,-168.4122C1147.2299,-159.9732 1173.8318,-147.9077 1194.7732,-132 1220.1983,-112.6862 1228.0409,-105.6953 1239.7732,-76 1245.579,-61.305 1246.5905,-43.3555 1246.283,-29.8869"/>
<polygon fill="#191970" stroke="#191970" points="1249.7739,-29.6145 1245.7907,-19.797 1242.7823,-29.9557 1249.7739,-29.6145"/>
</g>
<!-- Node27&#45;&gt;Node9 -->
<g id="edge50" class="edge">
<title>Node27&#45;&gt;Node9</title>
<path fill="none" stroke="#191970" d="M1050.127,-168.3156C998.0051,-136.2867 879.7352,-64.0803 859.7732,-56 819.0326,-39.5088 770.9574,-28.0292 732.9804,-20.6622"/>
<polygon fill="#191970" stroke="#191970" points="733.5299,-17.2041 723.0537,-18.7851 732.2292,-24.0822 733.5299,-17.2041"/>
</g>
<!-- Node28 -->
<g id="node29" class="node">
<title>Node28</title>
<g id="a_node29"><a xlink:href="support_8h.html" target="_top" xlink:title="ODP support API &#45; platform specific header. ">
<polygon fill="#ffffff" stroke="#000000" points="1084.2732,-112.5 1084.2732,-131.5 1185.2732,-131.5 1185.2732,-112.5 1084.2732,-112.5"/>
<text text-anchor="middle" x="1134.7732" y="-119.5" font-family="Helvetica,sans-Serif" font-size="10.00" fill="#000000">odp/api/support.h</text>
</a>
</g>
</g>
<!-- Node27&#45;&gt;Node28 -->
<g id="edge46" class="edge">
<title>Node27&#45;&gt;Node28</title>
<path fill="none" stroke="#191970" d="M1089.6046,-168.2977C1098.1935,-159.4941 1109.0334,-148.3833 1117.941,-139.2529"/>
<polygon fill="#191970" stroke="#191970" points="1120.6884,-141.4489 1125.1664,-131.8469 1115.6779,-136.5606 1120.6884,-141.4489"/>
</g>
<!-- Node29 -->
<g id="node30" class="node">
<title>Node29</title>
<g id="a_node30"><a xlink:href="spec_2support_8h.html" target="_top" xlink:title="ODP support API. ">
<polygon fill="#ffffff" stroke="#000000" points="1070.2732,-56.5 1070.2732,-75.5 1197.2732,-75.5 1197.2732,-56.5 1070.2732,-56.5"/>
<text text-anchor="middle" x="1133.7732" y="-63.5" font-family="Helvetica,sans-Serif" font-size="10.00" fill="#000000">odp/api/spec/support.h</text>
</a>
</g>
</g>
<!-- Node28&#45;&gt;Node29 -->
<g id="edge47" class="edge">
<title>Node28&#45;&gt;Node29</title>
<path fill="none" stroke="#191970" d="M1134.599,-112.2455C1134.4685,-104.9382 1134.2856,-94.6944 1134.125,-85.7046"/>
<polygon fill="#191970" stroke="#191970" points="1137.6234,-85.5786 1133.9454,-75.6427 1130.6246,-85.7036 1137.6234,-85.5786"/>
</g>
<!-- Node29&#45;&gt;Node4 -->
<g id="edge48" class="edge">
<title>Node29&#45;&gt;Node4</title>
<path fill="none" stroke="#191970" d="M1152.8547,-56.3733C1170.5133,-47.4644 1196.9784,-34.1127 1216.9829,-24.0203"/>
<polygon fill="#191970" stroke="#191970" points="1218.589,-27.1303 1225.9406,-19.5011 1215.4359,-20.8806 1218.589,-27.1303"/>
</g>
<!-- Node29&#45;&gt;Node9 -->
<g id="edge49" class="edge">
<title>Node29&#45;&gt;Node9</title>
<path fill="none" stroke="#191970" d="M1070.1801,-57.0901C1067.3396,-56.7166 1064.5272,-56.3516 1061.7732,-56 946.4203,-41.2745 811.8629,-26.0127 733.3099,-17.2951"/>
<polygon fill="#191970" stroke="#191970" points="733.3995,-13.7837 723.0748,-16.1611 732.6286,-20.7411 733.3995,-13.7837"/>
</g>
<!-- Node31 -->
<g id="node32" class="node">
<title>Node31</title>
<g id="a_node32"><a xlink:href="spec_2deprecated_8h.html" target="_top" xlink:title="Macro for deprecated API definitions. ">
<polygon fill="#ffffff" stroke="#000000" points="907.2732,-56.5 907.2732,-75.5 1052.2732,-75.5 1052.2732,-56.5 907.2732,-56.5"/>
<text text-anchor="middle" x="979.7732" y="-63.5" font-family="Helvetica,sans-Serif" font-size="10.00" fill="#000000">odp/api/spec/deprecated.h</text>
</a>
</g>
</g>
<!-- Node30&#45;&gt;Node31 -->
<g id="edge52" class="edge">
<title>Node30&#45;&gt;Node31</title>
<path fill="none" stroke="#191970" d="M993.9667,-235.3762C991.6064,-207.2097 984.6765,-124.5126 981.4551,-86.0713"/>
<polygon fill="#191970" stroke="#191970" points="984.9065,-85.3442 980.5836,-75.6714 977.931,-85.9288 984.9065,-85.3442"/>
</g>
<!-- Node31&#45;&gt;Node4 -->
<g id="edge53" class="edge">
<title>Node31&#45;&gt;Node4</title>
<path fill="none" stroke="#191970" d="M1025.0272,-56.4369C1070.5704,-46.8127 1140.8697,-31.957 1189.6418,-21.6504"/>
<polygon fill="#191970" stroke="#191970" points="1190.6455,-25.0157 1199.7058,-19.5237 1189.1982,-18.1669 1190.6455,-25.0157"/>
</g>
<!-- Node31&#45;&gt;Node9 -->
<g id="edge54" class="edge">
<title>Node31&#45;&gt;Node9</title>
<path fill="none" stroke="#191970" d="M926.3222,-56.4369C871.9669,-46.712 787.7566,-31.6456 730.0913,-21.3285"/>
<polygon fill="#191970" stroke="#191970" points="730.4638,-17.8396 720.0037,-19.5237 729.2309,-24.7302 730.4638,-17.8396"/>
</g>
</g>
</svg>
