<?xml version="1.0" encoding="UTF-8" standalone="no"?>
<!DOCTYPE svg PUBLIC "-//W3C//DTD SVG 1.1//EN"
 "http://www.w3.org/Graphics/SVG/1.1/DTD/svg11.dtd">
<!-- Generated by graphviz version 2.40.1 (20161225.0304)
 -->
<!-- Title: schedule.h Pages: 1 -->
<svg width="1495pt" height="778pt"
 viewBox="0.00 0.00 1495.00 778.00" xmlns="http://www.w3.org/2000/svg" xmlns:xlink="http://www.w3.org/1999/xlink">
<g id="graph0" class="graph" transform="scale(1 1) rotate(0) translate(4 774)">
<title>schedule.h</title>
<polygon fill="#ffffff" stroke="transparent" points="-4,4 -4,-774 1491,-774 1491,4 -4,4"/>
<!-- Node0 -->
<g id="node1" class="node">
<title>Node0</title>
<polygon fill="#bfbfbf" stroke="#000000" points="1208.5,-750.5 1208.5,-769.5 1277.5,-769.5 1277.5,-750.5 1208.5,-750.5"/>
<text text-anchor="middle" x="1243" y="-757.5" font-family="Helvetica,sans-Serif" font-size="10.00" fill="#000000">schedule.h</text>
</g>
<!-- Node1 -->
<g id="node2" class="node">
<title>Node1</title>
<polygon fill="#ffffff" stroke="#bfbfbf" points="786.5,-168.5 786.5,-198.5 903.5,-198.5 903.5,-168.5 786.5,-168.5"/>
<text text-anchor="start" x="794.5" y="-186.5" font-family="Helvetica,sans-Serif" font-size="10.00" fill="#000000">odp/api/abi/schedule</text>
<text text-anchor="middle" x="845" y="-175.5" font-family="Helvetica,sans-Serif" font-size="10.00" fill="#000000">_types.h</text>
</g>
<!-- Node0&#45;&gt;Node1 -->
<g id="edge1" class="edge">
<title>Node0&#45;&gt;Node1</title>
<path fill="none" stroke="#191970" d="M1269.9644,-750.4934C1286.1714,-743.2188 1305.4508,-731.4326 1315,-714 1370.0308,-613.5381 1290.0063,-568.7738 1232,-470 1199.3787,-414.452 1190.9388,-397.4331 1140,-358 1053.991,-291.418 1007.4806,-316.8379 918,-255 897.867,-241.0866 878.234,-221.4055 864.4085,-206.2132"/>
<polygon fill="#191970" stroke="#191970" points="867.0044,-203.8655 857.7362,-198.7322 861.7803,-208.5248 867.0044,-203.8655"/>
</g>
<!-- Node2 -->
<g id="node3" class="node">
<title>Node2</title>
<polygon fill="#ffffff" stroke="#bfbfbf" points="1180,-694.5 1180,-713.5 1306,-713.5 1306,-694.5 1180,-694.5"/>
<text text-anchor="middle" x="1243" y="-701.5" font-family="Helvetica,sans-Serif" font-size="10.00" fill="#000000">odp/api/abi/schedule.h</text>
</g>
<!-- Node0&#45;&gt;Node2 -->
<g id="edge2" class="edge">
<title>Node0&#45;&gt;Node2</title>
<path fill="none" stroke="#191970" d="M1243,-750.2455C1243,-742.9382 1243,-732.6944 1243,-723.7046"/>
<polygon fill="#191970" stroke="#191970" points="1246.5001,-723.6426 1243,-713.6427 1239.5001,-723.6427 1246.5001,-723.6426"/>
</g>
<!-- Node3 -->
<g id="node4" class="node">
<title>Node3</title>
<g id="a_node4"><a xlink:href="api_2spec_2schedule_8h.html" target="_top" xlink:title="ODP schedule. ">
<polygon fill="#ffffff" stroke="#000000" points="912,-694.5 912,-713.5 1046,-713.5 1046,-694.5 912,-694.5"/>
<text text-anchor="middle" x="979" y="-701.5" font-family="Helvetica,sans-Serif" font-size="10.00" fill="#000000">odp/api/spec/schedule.h</text>
</a>
</g>
</g>
<!-- Node0&#45;&gt;Node3 -->
<g id="edge3" class="edge">
<title>Node0&#45;&gt;Node3</title>
<path fill="none" stroke="#191970" d="M1208.4866,-752.679C1164.1059,-743.2649 1086.5062,-726.8043 1033.9616,-715.6585"/>
<polygon fill="#191970" stroke="#191970" points="1034.6387,-712.2243 1024.1301,-713.573 1033.1861,-719.072 1034.6387,-712.2243"/>
</g>
<!-- Node4 -->
<g id="node5" class="node">
<title>Node4</title>
<g id="a_node5"><a xlink:href="visibility__begin_8h_source.html" target="_top" xlink:title="odp/visibility_begin.h">
<polygon fill="#ffffff" stroke="#000000" points="1122.5,-.5 1122.5,-19.5 1243.5,-19.5 1243.5,-.5 1122.5,-.5"/>
<text text-anchor="middle" x="1183" y="-7.5" font-family="Helvetica,sans-Serif" font-size="10.00" fill="#000000">odp/visibility_begin.h</text>
</a>
</g>
</g>
<!-- Node3&#45;&gt;Node4 -->
<g id="edge4" class="edge">
<title>Node3&#45;&gt;Node4</title>
<path fill="none" stroke="#191970" d="M1046.2975,-699.7859C1124.1003,-693.9068 1246.5297,-681.251 1286,-658 1461.8906,-554.3873 1487,-449.1399 1487,-245 1487,-245 1487,-245 1487,-122 1487,-79.8832 1456.3284,-75.5042 1419,-56 1390.7584,-41.2437 1312.269,-27.7279 1253.5073,-19.221"/>
<polygon fill="#191970" stroke="#191970" points="1253.9148,-15.7438 1243.5206,-17.7956 1252.9257,-22.6735 1253.9148,-15.7438"/>
</g>
<!-- Node5 -->
<g id="node6" class="node">
<title>Node5</title>
<g id="a_node6"><a xlink:href="api_2std__types_8h.html" target="_top" xlink:title="Standard C language types and definitions for ODP. ">
<polygon fill="#ffffff" stroke="#000000" points="226,-235.5 226,-254.5 338,-254.5 338,-235.5 226,-235.5"/>
<text text-anchor="middle" x="282" y="-242.5" font-family="Helvetica,sans-Serif" font-size="10.00" fill="#000000">odp/api/std_types.h</text>
</a>
</g>
</g>
<!-- Node3&#45;&gt;Node5 -->
<g id="edge5" class="edge">
<title>Node3&#45;&gt;Node5</title>
<path fill="none" stroke="#191970" d="M911.7032,-703.0595C696.3312,-699.1681 38,-680.0702 38,-592 38,-592 38,-592 38,-368 38,-288.1446 143.4984,-260.1253 215.7545,-250.2997"/>
<polygon fill="#191970" stroke="#191970" points="216.2377,-253.7665 225.7151,-249.0305 215.3529,-246.8226 216.2377,-253.7665"/>
</g>
<!-- Node12 -->
<g id="node13" class="node">
<title>Node12</title>
<g id="a_node13"><a xlink:href="visibility__end_8h_source.html" target="_top" xlink:title="odp/visibility_end.h">
<polygon fill="#ffffff" stroke="#000000" points="496,-.5 496,-19.5 608,-19.5 608,-.5 496,-.5"/>
<text text-anchor="middle" x="552" y="-7.5" font-family="Helvetica,sans-Serif" font-size="10.00" fill="#000000">odp/visibility_end.h</text>
</a>
</g>
</g>
<!-- Node3&#45;&gt;Node12 -->
<g id="edge71" class="edge">
<title>Node3&#45;&gt;Node12</title>
<path fill="none" stroke="#191970" d="M911.9852,-702.2223C722.309,-696.9398 190.5435,-680.3051 115,-658 58.4818,-641.3123 0,-650.9304 0,-592 0,-592 0,-592 0,-122 0,-35.1205 99.4959,-76.1767 184,-56 287.7746,-31.2222 411.3907,-19.248 485.6821,-13.8836"/>
<polygon fill="#191970" stroke="#191970" points="486.1006,-17.3629 495.8304,-13.1698 485.6095,-10.3801 486.1006,-17.3629"/>
</g>
<!-- Node13 -->
<g id="node14" class="node">
<title>Node13</title>
<g id="a_node14"><a xlink:href="api_2event_8h.html" target="_top" xlink:title="ODP event. ">
<polygon fill="#ffffff" stroke="#000000" points="260,-526.5 260,-545.5 352,-545.5 352,-526.5 260,-526.5"/>
<text text-anchor="middle" x="306" y="-533.5" font-family="Helvetica,sans-Serif" font-size="10.00" fill="#000000">odp/api/event.h</text>
</a>
</g>
</g>
<!-- Node3&#45;&gt;Node13 -->
<g id="edge16" class="edge">
<title>Node3&#45;&gt;Node13</title>
<path fill="none" stroke="#191970" d="M940.8883,-694.4862C825.6917,-665.7299 481.2476,-579.7468 353.9641,-547.9732"/>
<polygon fill="#191970" stroke="#191970" points="354.6598,-544.5395 344.1098,-545.5133 352.9643,-551.3311 354.6598,-544.5395"/>
</g>
<!-- Node26 -->
<g id="node27" class="node">
<title>Node26</title>
<g id="a_node27"><a xlink:href="api_2queue_8h.html" target="_top" xlink:title="ODP queue. ">
<polygon fill="#ffffff" stroke="#000000" points="873.5,-638.5 873.5,-657.5 968.5,-657.5 968.5,-638.5 873.5,-638.5"/>
<text text-anchor="middle" x="921" y="-645.5" font-family="Helvetica,sans-Serif" font-size="10.00" fill="#000000">odp/api/queue.h</text>
</a>
</g>
</g>
<!-- Node3&#45;&gt;Node26 -->
<g id="edge38" class="edge">
<title>Node3&#45;&gt;Node26</title>
<path fill="none" stroke="#191970" d="M968.8972,-694.2455C960.4972,-686.1352 948.3506,-674.4075 938.3916,-664.7919"/>
<polygon fill="#191970" stroke="#191970" points="940.6122,-662.0707 930.9871,-657.6427 935.75,-667.1066 940.6122,-662.0707"/>
</g>
<!-- Node29 -->
<g id="node30" class="node">
<title>Node29</title>
<g id="a_node30"><a xlink:href="api_2schedule__types_8h.html" target="_top" xlink:title="ODP schedule. ">
<polygon fill="#ffffff" stroke="#000000" points="927,-235.5 927,-254.5 1067,-254.5 1067,-235.5 927,-235.5"/>
<text text-anchor="middle" x="997" y="-242.5" font-family="Helvetica,sans-Serif" font-size="10.00" fill="#000000">odp/api/schedule_types.h</text>
</a>
</g>
</g>
<!-- Node3&#45;&gt;Node29 -->
<g id="edge64" class="edge">
<title>Node3&#45;&gt;Node29</title>
<path fill="none" stroke="#191970" d="M1036.2763,-694.4828C1087.7379,-682.5694 1160.372,-656.647 1195,-602 1213.8119,-572.3128 1319.2244,-606.8686 1140,-358 1122.49,-333.6859 1106.9113,-340.0562 1083,-322 1057.7111,-302.9035 1030.8518,-278.0206 1014.0105,-261.7853"/>
<polygon fill="#191970" stroke="#191970" points="1016.2064,-259.0384 1006.5985,-254.5731 1011.3247,-264.0554 1016.2064,-259.0384"/>
</g>
<!-- Node35 -->
<g id="node36" class="node">
<title>Node35</title>
<g id="a_node36"><a xlink:href="api_2thrmask_8h.html" target="_top" xlink:title="ODP thread masks. ">
<polygon fill="#ffffff" stroke="#000000" points="1268.5,-358.5 1268.5,-377.5 1373.5,-377.5 1373.5,-358.5 1268.5,-358.5"/>
<text text-anchor="middle" x="1321" y="-365.5" font-family="Helvetica,sans-Serif" font-size="10.00" fill="#000000">odp/api/thrmask.h</text>
</a>
</g>
</g>
<!-- Node3&#45;&gt;Node35 -->
<g id="edge65" class="edge">
<title>Node3&#45;&gt;Node35</title>
<path fill="none" stroke="#191970" d="M1046.143,-697.7349C1115.6691,-690.3765 1218.9462,-676.7508 1254,-658 1289.488,-639.0169 1316,-632.2462 1316,-592 1316,-592 1316,-592 1316,-480 1316,-447.6794 1318.1037,-410.1646 1319.582,-387.7929"/>
<polygon fill="#191970" stroke="#191970" points="1323.0898,-387.7984 1320.2836,-377.5819 1316.1063,-387.3185 1323.0898,-387.7984"/>
</g>
<!-- Node6 -->
<g id="node7" class="node">
<title>Node6</title>
<polygon fill="#ffffff" stroke="#bfbfbf" points="245,-174 245,-193 375,-193 375,-174 245,-174"/>
<text text-anchor="middle" x="310" y="-181" font-family="Helvetica,sans-Serif" font-size="10.00" fill="#000000">odp/api/abi/std_types.h</text>
</g>
<!-- Node5&#45;&gt;Node6 -->
<g id="edge6" class="edge">
<title>Node5&#45;&gt;Node6</title>
<path fill="none" stroke="#191970" d="M286.375,-235.3906C290.3788,-226.5965 296.4183,-213.3312 301.3885,-202.4145"/>
<polygon fill="#191970" stroke="#191970" points="304.6051,-203.7963 305.5633,-193.2449 298.2343,-200.8957 304.6051,-203.7963"/>
</g>
<!-- Node7 -->
<g id="node8" class="node">
<title>Node7</title>
<g id="a_node8"><a xlink:href="api_2spec_2std__types_8h.html" target="_top" xlink:title="Standard C language types and definitions for ODP. ">
<polygon fill="#ffffff" stroke="#000000" points="89.5,-174 89.5,-193 226.5,-193 226.5,-174 89.5,-174"/>
<text text-anchor="middle" x="158" y="-181" font-family="Helvetica,sans-Serif" font-size="10.00" fill="#000000">odp/api/spec/std_types.h</text>
</a>
</g>
</g>
<!-- Node5&#45;&gt;Node7 -->
<g id="edge7" class="edge">
<title>Node5&#45;&gt;Node7</title>
<path fill="none" stroke="#191970" d="M262.625,-235.3906C242.1505,-225.2359 209.6558,-209.1196 186.3115,-197.5416"/>
<polygon fill="#191970" stroke="#191970" points="187.7528,-194.3496 177.2389,-193.0419 184.6425,-200.6207 187.7528,-194.3496"/>
</g>
<!-- Node7&#45;&gt;Node4 -->
<g id="edge8" class="edge">
<title>Node7&#45;&gt;Node4</title>
<path fill="none" stroke="#191970" d="M203.7016,-173.9683C214.2856,-171.886 225.5184,-169.7761 236,-168 525.8371,-118.8876 610.7492,-164.7528 891,-76 909.5706,-70.1188 911.5516,-62.2542 930,-56 989.8529,-35.7092 1060.8747,-23.793 1112.411,-17.1941"/>
<polygon fill="#191970" stroke="#191970" points="1112.9584,-20.6531 1122.4493,-15.9443 1112.0935,-13.7067 1112.9584,-20.6531"/>
</g>
<!-- Node8 -->
<g id="node9" class="node">
<title>Node8</title>
<polygon fill="#ffffff" stroke="#bfbfbf" points="186.5,-112.5 186.5,-131.5 239.5,-131.5 239.5,-112.5 186.5,-112.5"/>
<text text-anchor="middle" x="213" y="-119.5" font-family="Helvetica,sans-Serif" font-size="10.00" fill="#000000">stdint.h</text>
</g>
<!-- Node7&#45;&gt;Node8 -->
<g id="edge9" class="edge">
<title>Node7&#45;&gt;Node8</title>
<path fill="none" stroke="#191970" d="M166.5938,-173.8906C174.8597,-164.6478 187.5426,-150.466 197.5617,-139.2628"/>
<polygon fill="#191970" stroke="#191970" points="200.2278,-141.5321 204.2851,-131.7449 195.01,-136.8657 200.2278,-141.5321"/>
</g>
<!-- Node9 -->
<g id="node10" class="node">
<title>Node9</title>
<g id="a_node10"><a xlink:href="api_2align_8h.html" target="_top" xlink:title="ODP alignments. ">
<polygon fill="#ffffff" stroke="#000000" points="368.5,-112.5 368.5,-131.5 457.5,-131.5 457.5,-112.5 368.5,-112.5"/>
<text text-anchor="middle" x="413" y="-119.5" font-family="Helvetica,sans-Serif" font-size="10.00" fill="#000000">odp/api/align.h</text>
</a>
</g>
</g>
<!-- Node7&#45;&gt;Node9 -->
<g id="edge10" class="edge">
<title>Node7&#45;&gt;Node9</title>
<path fill="none" stroke="#191970" d="M197.564,-173.9581C242.23,-163.1857 314.9687,-145.6428 363.397,-133.9631"/>
<polygon fill="#191970" stroke="#191970" points="364.4426,-137.3113 373.3432,-131.5643 362.8013,-130.5065 364.4426,-137.3113"/>
</g>
<!-- Node7&#45;&gt;Node12 -->
<g id="edge15" class="edge">
<title>Node7&#45;&gt;Node12</title>
<path fill="none" stroke="#191970" d="M157.9443,-173.9118C158.369,-158.8871 161.328,-129.6891 177,-112 217.674,-66.0912 389.7265,-33.9431 486.0266,-19.1664"/>
<polygon fill="#191970" stroke="#191970" points="486.5934,-22.6206 495.9568,-17.663 485.5455,-15.6994 486.5934,-22.6206"/>
</g>
<!-- Node10 -->
<g id="node11" class="node">
<title>Node10</title>
<polygon fill="#ffffff" stroke="#bfbfbf" points="359.5,-56.5 359.5,-75.5 466.5,-75.5 466.5,-56.5 359.5,-56.5"/>
<text text-anchor="middle" x="413" y="-63.5" font-family="Helvetica,sans-Serif" font-size="10.00" fill="#000000">odp/api/abi/align.h</text>
</g>
<!-- Node9&#45;&gt;Node10 -->
<g id="edge11" class="edge">
<title>Node9&#45;&gt;Node10</title>
<path fill="none" stroke="#191970" d="M413,-112.2455C413,-104.9382 413,-94.6944 413,-85.7046"/>
<polygon fill="#191970" stroke="#191970" points="416.5001,-85.6426 413,-75.6427 409.5001,-85.6427 416.5001,-85.6426"/>
</g>
<!-- Node11 -->
<g id="node12" class="node">
<title>Node11</title>
<g id="a_node12"><a xlink:href="api_2spec_2align_8h.html" target="_top" xlink:title="ODP alignments. ">
<polygon fill="#ffffff" stroke="#000000" points="599,-56.5 599,-75.5 713,-75.5 713,-56.5 599,-56.5"/>
<text text-anchor="middle" x="656" y="-63.5" font-family="Helvetica,sans-Serif" font-size="10.00" fill="#000000">odp/api/spec/align.h</text>
</a>
</g>
</g>
<!-- Node9&#45;&gt;Node11 -->
<g id="edge12" class="edge">
<title>Node9&#45;&gt;Node11</title>
<path fill="none" stroke="#191970" d="M454.4971,-112.4369C496.0847,-102.8529 560.1834,-88.0812 604.8831,-77.78"/>
<polygon fill="#191970" stroke="#191970" points="605.7155,-81.18 614.6741,-75.5237 604.1435,-74.3588 605.7155,-81.18"/>
</g>
<!-- Node11&#45;&gt;Node4 -->
<g id="edge13" class="edge">
<title>Node11&#45;&gt;Node4</title>
<path fill="none" stroke="#191970" d="M713.15,-59.9271C810.1113,-49.6238 1006.5745,-28.7473 1112.1301,-17.5308"/>
<polygon fill="#191970" stroke="#191970" points="1112.7915,-20.9803 1122.3656,-16.4431 1112.0517,-14.0195 1112.7915,-20.9803"/>
</g>
<!-- Node11&#45;&gt;Node12 -->
<g id="edge14" class="edge">
<title>Node11&#45;&gt;Node12</title>
<path fill="none" stroke="#191970" d="M637.8846,-56.2455C621.555,-47.4527 597.329,-34.4079 578.7661,-24.4125"/>
<polygon fill="#191970" stroke="#191970" points="580.3719,-21.3021 569.9078,-19.6427 577.0532,-27.4654 580.3719,-21.3021"/>
</g>
<!-- Node14 -->
<g id="node15" class="node">
<title>Node14</title>
<polygon fill="#ffffff" stroke="#bfbfbf" points="106,-358.5 106,-377.5 216,-377.5 216,-358.5 106,-358.5"/>
<text text-anchor="middle" x="161" y="-365.5" font-family="Helvetica,sans-Serif" font-size="10.00" fill="#000000">odp/api/abi/event.h</text>
</g>
<!-- Node13&#45;&gt;Node14 -->
<g id="edge17" class="edge">
<title>Node13&#45;&gt;Node14</title>
<path fill="none" stroke="#191970" d="M297.7887,-526.4862C274.2722,-499.2396 206.4137,-420.6172 176.0261,-385.4096"/>
<polygon fill="#191970" stroke="#191970" points="178.6659,-383.1113 169.4824,-377.8279 173.3667,-387.685 178.6659,-383.1113"/>
</g>
<!-- Node15 -->
<g id="node16" class="node">
<title>Node15</title>
<g id="a_node16"><a xlink:href="api_2spec_2event_8h.html" target="_top" xlink:title="ODP event. ">
<polygon fill="#ffffff" stroke="#000000" points="382,-470.5 382,-489.5 500,-489.5 500,-470.5 382,-470.5"/>
<text text-anchor="middle" x="441" y="-477.5" font-family="Helvetica,sans-Serif" font-size="10.00" fill="#000000">odp/api/spec/event.h</text>
</a>
</g>
</g>
<!-- Node13&#45;&gt;Node15 -->
<g id="edge18" class="edge">
<title>Node13&#45;&gt;Node15</title>
<path fill="none" stroke="#191970" d="M329.2073,-526.3733C351.1699,-517.2629 384.3332,-503.5062 408.8401,-493.3404"/>
<polygon fill="#191970" stroke="#191970" points="410.1997,-496.5657 418.0955,-489.5011 407.5176,-490.0999 410.1997,-496.5657"/>
</g>
<!-- Node15&#45;&gt;Node4 -->
<g id="edge19" class="edge">
<title>Node15&#45;&gt;Node4</title>
<path fill="none" stroke="#191970" d="M500.0179,-477.5845C696.1312,-469.022 1317.3674,-437.3986 1383,-378 1427.7882,-337.466 1411,-305.4069 1411,-245 1411,-245 1411,-245 1411,-122 1411,-84.9295 1390.9351,-76.4266 1360,-56 1328.4098,-35.1408 1287.8511,-23.7335 1253.5304,-17.4985"/>
<polygon fill="#191970" stroke="#191970" points="1254.0098,-14.0298 1243.5637,-15.7992 1252.8332,-20.9302 1254.0098,-14.0298"/>
</g>
<!-- Node15&#45;&gt;Node12 -->
<g id="edge37" class="edge">
<title>Node15&#45;&gt;Node12</title>
<path fill="none" stroke="#191970" d="M423.4743,-470.4482C345.6491,-427.4323 37.034,-250.2291 80,-168 120.3675,-90.744 159.9652,-88.1151 241,-56 284.2797,-38.8477 407.9782,-24.1287 485.6997,-16.2165"/>
<polygon fill="#191970" stroke="#191970" points="486.2795,-19.6759 495.8788,-15.1923 485.5787,-12.7111 486.2795,-19.6759"/>
</g>
<!-- Node16 -->
<g id="node17" class="node">
<title>Node16</title>
<g id="a_node17"><a xlink:href="api_2packet_8h.html" target="_top" xlink:title="ODP packet descriptor. ">
<polygon fill="#ffffff" stroke="#000000" points="461,-414.5 461,-433.5 559,-433.5 559,-414.5 461,-414.5"/>
<text text-anchor="middle" x="510" y="-421.5" font-family="Helvetica,sans-Serif" font-size="10.00" fill="#000000">odp/api/packet.h</text>
</a>
</g>
</g>
<!-- Node15&#45;&gt;Node16 -->
<g id="edge20" class="edge">
<title>Node15&#45;&gt;Node16</title>
<path fill="none" stroke="#191970" d="M453.0189,-470.2455C463.2098,-461.9746 478.0362,-449.9416 490.0107,-440.2232"/>
<polygon fill="#191970" stroke="#191970" points="492.5598,-442.662 498.1188,-433.6427 488.1486,-437.2268 492.5598,-442.662"/>
</g>
<!-- Node16&#45;&gt;Node5 -->
<g id="edge21" class="edge">
<title>Node16&#45;&gt;Node5</title>
<path fill="none" stroke="#191970" d="M460.9036,-419.5934C406.0998,-413.6138 322.2911,-400.9451 301,-378 272.2875,-347.057 274.6755,-293.3951 278.5411,-264.6003"/>
<polygon fill="#191970" stroke="#191970" points="282.0245,-264.9757 280.0893,-254.5591 275.1063,-263.909 282.0245,-264.9757"/>
</g>
<!-- Node16&#45;&gt;Node14 -->
<g id="edge22" class="edge">
<title>Node16&#45;&gt;Node14</title>
<path fill="none" stroke="#191970" d="M460.737,-416.0953C399.3467,-406.2447 294.248,-389.3808 226.2245,-378.4658"/>
<polygon fill="#191970" stroke="#191970" points="226.4809,-374.9623 216.0526,-376.8337 225.3718,-381.8739 226.4809,-374.9623"/>
</g>
<!-- Node17 -->
<g id="node18" class="node">
<title>Node17</title>
<polygon fill="#ffffff" stroke="#bfbfbf" points="586,-358.5 586,-377.5 716,-377.5 716,-358.5 586,-358.5"/>
<text text-anchor="middle" x="651" y="-365.5" font-family="Helvetica,sans-Serif" font-size="10.00" fill="#000000">odp/api/abi/packet_io.h</text>
</g>
<!-- Node16&#45;&gt;Node17 -->
<g id="edge23" class="edge">
<title>Node16&#45;&gt;Node17</title>
<path fill="none" stroke="#191970" d="M534.2388,-414.3733C557.2789,-405.2226 592.1214,-391.3844 617.7501,-381.2057"/>
<polygon fill="#191970" stroke="#191970" points="619.0756,-384.4452 627.0775,-377.5011 616.4918,-377.9395 619.0756,-384.4452"/>
</g>
<!-- Node18 -->
<g id="node19" class="node">
<title>Node18</title>
<polygon fill="#ffffff" stroke="#bfbfbf" points="452,-358.5 452,-377.5 568,-377.5 568,-358.5 452,-358.5"/>
<text text-anchor="middle" x="510" y="-365.5" font-family="Helvetica,sans-Serif" font-size="10.00" fill="#000000">odp/api/abi/packet.h</text>
</g>
<!-- Node16&#45;&gt;Node18 -->
<g id="edge24" class="edge">
<title>Node16&#45;&gt;Node18</title>
<path fill="none" stroke="#191970" d="M510,-414.2455C510,-406.9382 510,-396.6944 510,-387.7046"/>
<polygon fill="#191970" stroke="#191970" points="513.5001,-387.6426 510,-377.6427 506.5001,-387.6427 513.5001,-387.6426"/>
</g>
<!-- Node19 -->
<g id="node20" class="node">
<title>Node19</title>
<polygon fill="#ffffff" stroke="#bfbfbf" points="734.5,-358.5 734.5,-377.5 847.5,-377.5 847.5,-358.5 734.5,-358.5"/>
<text text-anchor="middle" x="791" y="-365.5" font-family="Helvetica,sans-Serif" font-size="10.00" fill="#000000">odp/api/abi/queue.h</text>
</g>
<!-- Node16&#45;&gt;Node19 -->
<g id="edge25" class="edge">
<title>Node16&#45;&gt;Node19</title>
<path fill="none" stroke="#191970" d="M557.9863,-414.4369C606.4814,-404.7724 681.4473,-389.8326 733.1879,-379.5213"/>
<polygon fill="#191970" stroke="#191970" points="734.0885,-382.9107 743.2116,-377.5237 732.7203,-376.0457 734.0885,-382.9107"/>
</g>
<!-- Node20 -->
<g id="node21" class="node">
<title>Node20</title>
<polygon fill="#ffffff" stroke="#bfbfbf" points="866,-358.5 866,-377.5 976,-377.5 976,-358.5 866,-358.5"/>
<text text-anchor="middle" x="921" y="-365.5" font-family="Helvetica,sans-Serif" font-size="10.00" fill="#000000">odp/api/abi/buffer.h</text>
</g>
<!-- Node16&#45;&gt;Node20 -->
<g id="edge26" class="edge">
<title>Node16&#45;&gt;Node20</title>
<path fill="none" stroke="#191970" d="M559.0337,-417.8022C624.1602,-409.4992 743.0517,-394.095 855.5283,-378.0426"/>
<polygon fill="#191970" stroke="#191970" points="856.29,-381.4693 865.6931,-376.5876 855.298,-374.54 856.29,-381.4693"/>
</g>
<!-- Node21 -->
<g id="node22" class="node">
<title>Node21</title>
<polygon fill="#ffffff" stroke="#bfbfbf" points="994,-358.5 994,-377.5 1098,-377.5 1098,-358.5 994,-358.5"/>
<text text-anchor="middle" x="1046" y="-365.5" font-family="Helvetica,sans-Serif" font-size="10.00" fill="#000000">odp/api/abi/pool.h</text>
</g>
<!-- Node16&#45;&gt;Node21 -->
<g id="edge27" class="edge">
<title>Node16&#45;&gt;Node21</title>
<path fill="none" stroke="#191970" d="M559.0118,-420.3259C643.5384,-413.7554 822.3974,-398.826 983.6835,-378.1008"/>
<polygon fill="#191970" stroke="#191970" points="984.3226,-381.5473 993.79,-376.7914 983.4231,-374.6053 984.3226,-381.5473"/>
</g>
<!-- Node22 -->
<g id="node23" class="node">
<title>Node22</title>
<g id="a_node23"><a xlink:href="api_2spec_2packet_8h.html" target="_top" xlink:title="ODP packet descriptor. ">
<polygon fill="#ffffff" stroke="#000000" points="310.5,-358.5 310.5,-377.5 433.5,-377.5 433.5,-358.5 310.5,-358.5"/>
<text text-anchor="middle" x="372" y="-365.5" font-family="Helvetica,sans-Serif" font-size="10.00" fill="#000000">odp/api/spec/packet.h</text>
</a>
</g>
</g>
<!-- Node16&#45;&gt;Node22 -->
<g id="edge28" class="edge">
<title>Node16&#45;&gt;Node22</title>
<path fill="none" stroke="#191970" d="M486.277,-414.3733C463.8263,-405.2629 429.9261,-391.5062 404.8745,-381.3404"/>
<polygon fill="#191970" stroke="#191970" points="405.9957,-378.0182 395.4135,-377.5011 403.3635,-384.5045 405.9957,-378.0182"/>
</g>
<!-- Node22&#45;&gt;Node4 -->
<g id="edge29" class="edge">
<title>Node22&#45;&gt;Node4</title>
<path fill="none" stroke="#191970" d="M433.5324,-358.9761C436.7311,-358.6189 439.9015,-358.2901 443,-358 613.3312,-342.0528 1051.8419,-382.1365 1212,-322 1232.729,-314.2166 1232.5073,-303.1775 1251,-291 1311.3577,-251.2544 1373,-255.7687 1373,-183.5 1373,-183.5 1373,-183.5 1373,-122 1373,-88.3717 1362.2339,-77.0392 1336,-56 1312.4826,-37.1394 1281.3565,-26.0021 1253.3211,-19.4298"/>
<polygon fill="#191970" stroke="#191970" points="1254.0683,-16.0106 1243.5511,-17.2903 1252.5709,-22.8486 1254.0683,-16.0106"/>
</g>
<!-- Node22&#45;&gt;Node12 -->
<g id="edge36" class="edge">
<title>Node22&#45;&gt;Node12</title>
<path fill="none" stroke="#191970" d="M375.0153,-358.1258C383.5594,-328.4912 405.9347,-238.0413 384,-168 378.1784,-149.4106 366.2827,-150.0671 359,-132 346.2835,-100.4527 328.7862,-82.5878 350,-56 366.8241,-34.9139 433.2837,-22.7452 485.436,-16.2832"/>
<polygon fill="#191970" stroke="#191970" points="486.1409,-19.7241 495.6568,-15.0659 485.313,-12.7732 486.1409,-19.7241"/>
</g>
<!-- Node23 -->
<g id="node24" class="node">
<title>Node23</title>
<g id="a_node24"><a xlink:href="api_2time_8h.html" target="_top" xlink:title="ODP time. ">
<polygon fill="#ffffff" stroke="#000000" points="422.5,-297 422.5,-316 509.5,-316 509.5,-297 422.5,-297"/>
<text text-anchor="middle" x="466" y="-304" font-family="Helvetica,sans-Serif" font-size="10.00" fill="#000000">odp/api/time.h</text>
</a>
</g>
</g>
<!-- Node22&#45;&gt;Node23 -->
<g id="edge30" class="edge">
<title>Node22&#45;&gt;Node23</title>
<path fill="none" stroke="#191970" d="M386.6875,-358.3906C401.7256,-348.5519 425.3176,-333.1167 442.8667,-321.6351"/>
<polygon fill="#191970" stroke="#191970" points="444.9637,-324.4457 451.4156,-316.0419 441.1313,-318.588 444.9637,-324.4457"/>
</g>
<!-- Node23&#45;&gt;Node5 -->
<g id="edge31" class="edge">
<title>Node23&#45;&gt;Node5</title>
<path fill="none" stroke="#191970" d="M437.25,-296.8906C405.7883,-286.3749 355.1992,-269.466 320.3686,-257.8243"/>
<polygon fill="#191970" stroke="#191970" points="321.1419,-254.3925 310.5481,-254.5419 318.9228,-261.0315 321.1419,-254.3925"/>
</g>
<!-- Node24 -->
<g id="node25" class="node">
<title>Node24</title>
<polygon fill="#ffffff" stroke="#bfbfbf" points="417.5,-235.5 417.5,-254.5 522.5,-254.5 522.5,-235.5 417.5,-235.5"/>
<text text-anchor="middle" x="470" y="-242.5" font-family="Helvetica,sans-Serif" font-size="10.00" fill="#000000">odp/api/abi/time.h</text>
</g>
<!-- Node23&#45;&gt;Node24 -->
<g id="edge32" class="edge">
<title>Node23&#45;&gt;Node24</title>
<path fill="none" stroke="#191970" d="M466.625,-296.8906C467.1795,-288.3657 468.0072,-275.6392 468.7042,-264.9235"/>
<polygon fill="#191970" stroke="#191970" points="472.2097,-264.951 469.3662,-254.7449 465.2244,-264.4966 472.2097,-264.951"/>
</g>
<!-- Node25 -->
<g id="node26" class="node">
<title>Node25</title>
<g id="a_node26"><a xlink:href="api_2spec_2time_8h.html" target="_top" xlink:title="ODP time. ">
<polygon fill="#ffffff" stroke="#000000" points="769.5,-56.5 769.5,-75.5 882.5,-75.5 882.5,-56.5 769.5,-56.5"/>
<text text-anchor="middle" x="826" y="-63.5" font-family="Helvetica,sans-Serif" font-size="10.00" fill="#000000">odp/api/spec/time.h</text>
</a>
</g>
</g>
<!-- Node23&#45;&gt;Node25 -->
<g id="edge33" class="edge">
<title>Node23&#45;&gt;Node25</title>
<path fill="none" stroke="#191970" d="M480.5583,-296.7742C536.0887,-259.6769 734.8813,-126.8724 802.9468,-81.4008"/>
<polygon fill="#191970" stroke="#191970" points="805.284,-84.0486 811.655,-75.5833 801.3955,-78.228 805.284,-84.0486"/>
</g>
<!-- Node25&#45;&gt;Node4 -->
<g id="edge34" class="edge">
<title>Node25&#45;&gt;Node4</title>
<path fill="none" stroke="#191970" d="M882.5677,-57.1266C944.7485,-47.3728 1044.7432,-31.6873 1112.1105,-21.1199"/>
<polygon fill="#191970" stroke="#191970" points="1112.8811,-24.5419 1122.2178,-19.5345 1111.7962,-17.6265 1112.8811,-24.5419"/>
</g>
<!-- Node25&#45;&gt;Node12 -->
<g id="edge35" class="edge">
<title>Node25&#45;&gt;Node12</title>
<path fill="none" stroke="#191970" d="M779.209,-56.4369C732.0205,-46.7925 659.128,-31.8948 608.6876,-21.5858"/>
<polygon fill="#191970" stroke="#191970" points="609.0963,-18.097 598.598,-19.5237 607.6946,-24.9553 609.0963,-18.097"/>
</g>
<!-- Node26&#45;&gt;Node5 -->
<g id="edge39" class="edge">
<title>Node26&#45;&gt;Node5</title>
<path fill="none" stroke="#191970" d="M873.4437,-647.5833C740.8078,-645.9702 368.9434,-638.2494 253,-602 206.586,-587.4888 190.0866,-583.396 159,-546 102.7572,-478.3421 53.9545,-434.7328 97,-358 126.9576,-304.5976 193.5582,-273.4324 238.1268,-257.8087"/>
<polygon fill="#191970" stroke="#191970" points="239.4825,-261.045 247.8355,-254.5276 237.2413,-254.4135 239.4825,-261.045"/>
</g>
<!-- Node26&#45;&gt;Node14 -->
<g id="edge40" class="edge">
<title>Node26&#45;&gt;Node14</title>
<path fill="none" stroke="#191970" d="M873.2966,-646.0055C707.0117,-638.4277 163,-608.125 163,-536 163,-536 163,-536 163,-480 163,-447.7064 162.1585,-410.1836 161.5672,-387.8029"/>
<polygon fill="#191970" stroke="#191970" points="165.0599,-387.4874 161.2866,-377.5873 158.0626,-387.6797 165.0599,-387.4874"/>
</g>
<!-- Node26&#45;&gt;Node19 -->
<g id="edge41" class="edge">
<title>Node26&#45;&gt;Node19</title>
<path fill="none" stroke="#191970" d="M906.7505,-638.4404C882.785,-621.092 837,-581.9375 837,-536 837,-536 837,-536 837,-480 837,-444.66 817.1609,-407.4332 803.5403,-386.0395"/>
<polygon fill="#191970" stroke="#191970" points="806.4212,-384.0507 797.9864,-377.6394 800.5821,-387.9114 806.4212,-384.0507"/>
</g>
<!-- Node26&#45;&gt;Node20 -->
<g id="edge42" class="edge">
<title>Node26&#45;&gt;Node20</title>
<path fill="none" stroke="#191970" d="M921,-638.4116C921,-619.0538 921,-573.9167 921,-536 921,-536 921,-536 921,-480 921,-447.7116 921,-410.1872 921,-387.8048"/>
<polygon fill="#191970" stroke="#191970" points="924.5001,-387.5883 921,-377.5884 917.5001,-387.5884 924.5001,-387.5883"/>
</g>
<!-- Node26&#45;&gt;Node21 -->
<g id="edge43" class="edge">
<title>Node26&#45;&gt;Node21</title>
<path fill="none" stroke="#191970" d="M933.8801,-638.4827C956.0343,-620.9082 999,-581.0209 999,-536 999,-536 999,-536 999,-480 999,-444.5481 1019.2704,-407.3564 1033.1871,-385.9999"/>
<polygon fill="#191970" stroke="#191970" points="1036.1549,-387.8593 1038.8617,-377.6161 1030.3579,-383.9356 1036.1549,-387.8593"/>
</g>
<!-- Node27 -->
<g id="node28" class="node">
<title>Node27</title>
<g id="a_node28"><a xlink:href="api_2spec_2queue_8h.html" target="_top" xlink:title="ODP queue. ">
<polygon fill="#ffffff" stroke="#000000" points="1066,-582.5 1066,-601.5 1186,-601.5 1186,-582.5 1066,-582.5"/>
<text text-anchor="middle" x="1126" y="-589.5" font-family="Helvetica,sans-Serif" font-size="10.00" fill="#000000">odp/api/spec/queue.h</text>
</a>
</g>
</g>
<!-- Node26&#45;&gt;Node27 -->
<g id="edge44" class="edge">
<title>Node26&#45;&gt;Node27</title>
<path fill="none" stroke="#191970" d="M956.2408,-638.3733C990.9194,-628.9001 1043.9883,-614.4032 1081.5462,-604.1435"/>
<polygon fill="#191970" stroke="#191970" points="1082.4949,-607.5126 1091.2191,-601.5011 1080.6502,-600.7601 1082.4949,-607.5126"/>
</g>
<!-- Node27&#45;&gt;Node4 -->
<g id="edge45" class="edge">
<title>Node27&#45;&gt;Node4</title>
<path fill="none" stroke="#191970" d="M1146.6965,-582.4922C1217.986,-548.1663 1449,-423.186 1449,-245 1449,-245 1449,-245 1449,-122 1449,-82.0568 1422.6089,-75.9419 1388,-56 1365.3072,-42.9242 1303.5648,-30.0433 1253.7245,-21.2532"/>
<polygon fill="#191970" stroke="#191970" points="1254.0611,-17.7594 1243.6096,-19.496 1252.8629,-24.6561 1254.0611,-17.7594"/>
</g>
<!-- Node27&#45;&gt;Node12 -->
<g id="edge63" class="edge">
<title>Node27&#45;&gt;Node12</title>
<path fill="none" stroke="#191970" d="M1126,-582.4116C1126,-563.0538 1126,-517.9167 1126,-480 1126,-480 1126,-480 1126,-424 1126,-216.325 842.0239,-438.3471 670,-322 568.746,-253.5176 575.0846,-194.9684 547,-76 543.3698,-60.6223 545.0817,-42.7235 547.4443,-29.4481"/>
<polygon fill="#191970" stroke="#191970" points="550.8956,-30.0407 549.479,-19.541 544.0387,-28.6324 550.8956,-30.0407"/>
</g>
<!-- Node27&#45;&gt;Node13 -->
<g id="edge46" class="edge">
<title>Node27&#45;&gt;Node13</title>
<path fill="none" stroke="#191970" d="M1065.7034,-587.8822C912.7384,-577.4358 511.201,-550.0137 362.4726,-539.8567"/>
<polygon fill="#191970" stroke="#191970" points="362.4232,-536.3452 352.2079,-539.1557 361.9462,-543.329 362.4232,-536.3452"/>
</g>
<!-- Node28 -->
<g id="node29" class="node">
<title>Node28</title>
<g id="a_node29"><a xlink:href="queue__types_8h.html" target="_top" xlink:title="ODP queue types. ">
<polygon fill="#ffffff" stroke="#000000" points="1091.5,-291.5 1091.5,-321.5 1202.5,-321.5 1202.5,-291.5 1091.5,-291.5"/>
<text text-anchor="start" x="1099.5" y="-309.5" font-family="Helvetica,sans-Serif" font-size="10.00" fill="#000000">odp/api/spec/queue</text>
<text text-anchor="middle" x="1147" y="-298.5" font-family="Helvetica,sans-Serif" font-size="10.00" fill="#000000">_types.h</text>
</a>
</g>
</g>
<!-- Node27&#45;&gt;Node28 -->
<g id="edge47" class="edge">
<title>Node27&#45;&gt;Node28</title>
<path fill="none" stroke="#191970" d="M1129.7763,-582.3094C1133.157,-573.1217 1137.8953,-558.8513 1140,-546 1152.6433,-468.7989 1150.4882,-375.7748 1148.454,-331.8382"/>
<polygon fill="#191970" stroke="#191970" points="1151.9454,-331.577 1147.9485,-321.765 1144.9542,-331.9279 1151.9454,-331.577"/>
</g>
<!-- Node28&#45;&gt;Node4 -->
<g id="edge48" class="edge">
<title>Node28&#45;&gt;Node4</title>
<path fill="none" stroke="#191970" d="M1202.3755,-291.4773C1237.7546,-281.0633 1279.5999,-266.9714 1294,-255 1322.1688,-231.5821 1335,-220.1316 1335,-183.5 1335,-183.5 1335,-183.5 1335,-122 1335,-91.4754 1337.0082,-78.1452 1316,-56 1299.5214,-38.6295 1276.1692,-27.8172 1253.6207,-21.0876"/>
<polygon fill="#191970" stroke="#191970" points="1254.2579,-17.6331 1243.6881,-18.3602 1252.4043,-24.3832 1254.2579,-17.6331"/>
</g>
<!-- Node28&#45;&gt;Node12 -->
<g id="edge62" class="edge">
<title>Node28&#45;&gt;Node12</title>
<path fill="none" stroke="#191970" d="M1135.8727,-291.4047C1123.1407,-275.1778 1100.8205,-249.7345 1076,-235 1026.6534,-205.7058 1003.1399,-225.0374 952,-199 931.9566,-188.7951 932.065,-178.1622 912,-168 779.2205,-100.752 707.2747,-167.6479 590,-76 574.7426,-64.0766 564.5056,-44.1952 558.5382,-29.3633"/>
<polygon fill="#191970" stroke="#191970" points="561.6928,-27.8032 554.937,-19.6418 555.1287,-30.2349 561.6928,-27.8032"/>
</g>
<!-- Node28&#45;&gt;Node29 -->
<g id="edge49" class="edge">
<title>Node28&#45;&gt;Node29</title>
<path fill="none" stroke="#191970" d="M1110.3059,-291.4554C1085.6073,-281.329 1053.3326,-268.0964 1029.5494,-258.3453"/>
<polygon fill="#191970" stroke="#191970" points="1030.825,-255.0855 1020.2447,-254.5303 1028.1694,-261.5623 1030.825,-255.0855"/>
</g>
<!-- Node33 -->
<g id="node34" class="node">
<title>Node33</title>
<g id="a_node34"><a xlink:href="deprecated_8h.html" target="_top" xlink:title="Control deprecated API definitions. ">
<polygon fill="#ffffff" stroke="#000000" points="1165.5,-235.5 1165.5,-254.5 1284.5,-254.5 1284.5,-235.5 1165.5,-235.5"/>
<text text-anchor="middle" x="1225" y="-242.5" font-family="Helvetica,sans-Serif" font-size="10.00" fill="#000000">odp/api/deprecated.h</text>
</a>
</g>
</g>
<!-- Node28&#45;&gt;Node33 -->
<g id="edge58" class="edge">
<title>Node28&#45;&gt;Node33</title>
<path fill="none" stroke="#191970" d="M1166.2809,-291.2977C1177.8976,-282.1384 1192.6818,-270.4816 1204.5092,-261.1562"/>
<polygon fill="#191970" stroke="#191970" points="1206.8256,-263.787 1212.5112,-254.8469 1202.4914,-258.2901 1206.8256,-263.787"/>
</g>
<!-- Node29&#45;&gt;Node1 -->
<g id="edge50" class="edge">
<title>Node29&#45;&gt;Node1</title>
<path fill="none" stroke="#191970" d="M973.25,-235.3906C951.4406,-226.5664 918.5048,-213.2404 891.4714,-202.3026"/>
<polygon fill="#191970" stroke="#191970" points="892.7661,-199.0508 882.1834,-198.5446 890.1406,-205.5398 892.7661,-199.0508"/>
</g>
<!-- Node30 -->
<g id="node31" class="node">
<title>Node30</title>
<g id="a_node31"><a xlink:href="api_2spec_2schedule__types_8h.html" target="_top" xlink:title="ODP schedule types. ">
<polygon fill="#ffffff" stroke="#000000" points="960.5,-168.5 960.5,-198.5 1085.5,-198.5 1085.5,-168.5 960.5,-168.5"/>
<text text-anchor="start" x="968.5" y="-186.5" font-family="Helvetica,sans-Serif" font-size="10.00" fill="#000000">odp/api/spec/schedule</text>
<text text-anchor="middle" x="1023" y="-175.5" font-family="Helvetica,sans-Serif" font-size="10.00" fill="#000000">_types.h</text>
</a>
</g>
</g>
<!-- Node29&#45;&gt;Node30 -->
<g id="edge51" class="edge">
<title>Node29&#45;&gt;Node30</title>
<path fill="none" stroke="#191970" d="M1001.0625,-235.3906C1004.1903,-227.9922 1008.656,-217.4291 1012.7428,-207.7623"/>
<polygon fill="#191970" stroke="#191970" points="1015.9694,-209.1182 1016.6397,-198.5446 1009.5219,-206.3924 1015.9694,-209.1182"/>
</g>
<!-- Node30&#45;&gt;Node4 -->
<g id="edge52" class="edge">
<title>Node30&#45;&gt;Node4</title>
<path fill="none" stroke="#191970" d="M1037.7125,-168.2361C1047.0638,-158.2485 1059.2082,-144.7351 1069,-132 1093.6449,-99.947 1091.0064,-85.1741 1119,-56 1130.4352,-44.0826 1145.3148,-33.177 1157.8487,-24.9785"/>
<polygon fill="#191970" stroke="#191970" points="1159.9038,-27.8198 1166.4779,-19.5113 1156.1574,-21.9067 1159.9038,-27.8198"/>
</g>
<!-- Node30&#45;&gt;Node12 -->
<g id="edge57" class="edge">
<title>Node30&#45;&gt;Node12</title>
<path fill="none" stroke="#191970" d="M982.83,-168.4694C930.7962,-148.6849 837.5665,-112.1621 760,-76 742.7022,-67.9356 739.7634,-62.9792 722,-56 684.9918,-41.4596 641.7135,-29.8213 608.0858,-21.889"/>
<polygon fill="#191970" stroke="#191970" points="608.509,-18.3944 597.977,-19.5471 606.9291,-25.2138 608.509,-18.3944"/>
</g>
<!-- Node31 -->
<g id="node32" class="node">
<title>Node31</title>
<g id="a_node32"><a xlink:href="support_8h.html" target="_top" xlink:title="ODP support API &#45; platform specific header. ">
<polygon fill="#ffffff" stroke="#000000" points="958.5,-112.5 958.5,-131.5 1059.5,-131.5 1059.5,-112.5 958.5,-112.5"/>
<text text-anchor="middle" x="1009" y="-119.5" font-family="Helvetica,sans-Serif" font-size="10.00" fill="#000000">odp/api/support.h</text>
</a>
</g>
</g>
<!-- Node30&#45;&gt;Node31 -->
<g id="edge53" class="edge">
<title>Node30&#45;&gt;Node31</title>
<path fill="none" stroke="#191970" d="M1019.5393,-168.2977C1017.7174,-160.2945 1015.4615,-150.3843 1013.5048,-141.7889"/>
<polygon fill="#191970" stroke="#191970" points="1016.874,-140.8206 1011.2416,-131.8469 1010.0486,-142.3744 1016.874,-140.8206"/>
</g>
<!-- Node32 -->
<g id="node33" class="node">
<title>Node32</title>
<g id="a_node33"><a xlink:href="spec_2support_8h.html" target="_top" xlink:title="ODP support API. ">
<polygon fill="#ffffff" stroke="#000000" points="939.5,-56.5 939.5,-75.5 1066.5,-75.5 1066.5,-56.5 939.5,-56.5"/>
<text text-anchor="middle" x="1003" y="-63.5" font-family="Helvetica,sans-Serif" font-size="10.00" fill="#000000">odp/api/spec/support.h</text>
</a>
</g>
</g>
<!-- Node31&#45;&gt;Node32 -->
<g id="edge54" class="edge">
<title>Node31&#45;&gt;Node32</title>
<path fill="none" stroke="#191970" d="M1007.9549,-112.2455C1007.172,-104.9382 1006.0744,-94.6944 1005.1112,-85.7046"/>
<polygon fill="#191970" stroke="#191970" points="1008.5786,-85.2129 1004.0331,-75.6427 1001.6185,-85.9587 1008.5786,-85.2129"/>
</g>
<!-- Node32&#45;&gt;Node4 -->
<g id="edge55" class="edge">
<title>Node32&#45;&gt;Node4</title>
<path fill="none" stroke="#191970" d="M1033.9431,-56.3733C1064.0039,-47.021 1109.8026,-32.7725 1142.6978,-22.5385"/>
<polygon fill="#191970" stroke="#191970" points="1143.9519,-25.8139 1152.4607,-19.5011 1141.8723,-19.1299 1143.9519,-25.8139"/>
</g>
<!-- Node32&#45;&gt;Node12 -->
<g id="edge56" class="edge">
<title>Node32&#45;&gt;Node12</title>
<path fill="none" stroke="#191970" d="M939.3393,-58.0953C854.3228,-47.539 704.4399,-28.9282 618.1691,-18.2161"/>
<polygon fill="#191970" stroke="#191970" points="618.584,-14.7408 608.2289,-16.9819 617.7214,-21.6875 618.584,-14.7408"/>
</g>
<!-- Node34 -->
<g id="node35" class="node">
<title>Node34</title>
<g id="a_node35"><a xlink:href="spec_2deprecated_8h.html" target="_top" xlink:title="Macro for deprecated API definitions. ">
<polygon fill="#ffffff" stroke="#000000" points="1161.5,-56.5 1161.5,-75.5 1306.5,-75.5 1306.5,-56.5 1161.5,-56.5"/>
<text text-anchor="middle" x="1234" y="-63.5" font-family="Helvetica,sans-Serif" font-size="10.00" fill="#000000">odp/api/spec/deprecated.h</text>
</a>
</g>
</g>
<!-- Node33&#45;&gt;Node34 -->
<g id="edge59" class="edge">
<title>Node33&#45;&gt;Node34</title>
<path fill="none" stroke="#191970" d="M1225.4839,-235.3762C1226.9001,-207.2097 1231.058,-124.5126 1232.9908,-86.0713"/>
<polygon fill="#191970" stroke="#191970" points="1236.5071,-85.8346 1233.5137,-75.6714 1229.5159,-85.483 1236.5071,-85.8346"/>
</g>
<!-- Node34&#45;&gt;Node4 -->
<g id="edge60" class="edge">
<title>Node34&#45;&gt;Node4</title>
<path fill="none" stroke="#191970" d="M1225.1165,-56.2455C1217.8034,-48.2155 1207.2609,-36.6394 1198.5533,-27.0781"/>
<polygon fill="#191970" stroke="#191970" points="1201.1028,-24.6795 1191.7817,-19.6427 1195.9273,-29.3928 1201.1028,-24.6795"/>
</g>
<!-- Node34&#45;&gt;Node12 -->
<g id="edge61" class="edge">
<title>Node34&#45;&gt;Node12</title>
<path fill="none" stroke="#191970" d="M1161.3372,-60.0336C1028.1696,-49.099 746.9135,-26.0046 618.4839,-15.4591"/>
<polygon fill="#191970" stroke="#191970" points="618.6449,-11.9606 608.392,-14.6304 618.072,-18.9371 618.6449,-11.9606"/>
</g>
<!-- Node36 -->
<g id="node37" class="node">
<title>Node36</title>
<polygon fill="#ffffff" stroke="#bfbfbf" points="1259.5,-297 1259.5,-316 1382.5,-316 1382.5,-297 1259.5,-297"/>
<text text-anchor="middle" x="1321" y="-304" font-family="Helvetica,sans-Serif" font-size="10.00" fill="#000000">odp/api/abi/thrmask.h</text>
</g>
<!-- Node35&#45;&gt;Node36 -->
<g id="edge66" class="edge">
<title>Node35&#45;&gt;Node36</title>
<path fill="none" stroke="#191970" d="M1321,-358.3906C1321,-349.8657 1321,-337.1392 1321,-326.4235"/>
<polygon fill="#191970" stroke="#191970" points="1324.5001,-326.2448 1321,-316.2449 1317.5001,-326.2449 1324.5001,-326.2448"/>
</g>
<!-- Node37 -->
<g id="node38" class="node">
<title>Node37</title>
<g id="a_node38"><a xlink:href="api_2spec_2thrmask_8h.html" target="_top" xlink:title="ODP thread masks. ">
<polygon fill="#ffffff" stroke="#000000" points="679.5,-297 679.5,-316 810.5,-316 810.5,-297 679.5,-297"/>
<text text-anchor="middle" x="745" y="-304" font-family="Helvetica,sans-Serif" font-size="10.00" fill="#000000">odp/api/spec/thrmask.h</text>
</a>
</g>
</g>
<!-- Node35&#45;&gt;Node37 -->
<g id="edge67" class="edge">
<title>Node35&#45;&gt;Node37</title>
<path fill="none" stroke="#191970" d="M1268.3569,-362.3793C1165.9472,-351.4449 939.5787,-327.2753 820.9281,-314.6069"/>
<polygon fill="#191970" stroke="#191970" points="821.149,-311.1107 810.8339,-313.5291 820.4057,-318.0711 821.149,-311.1107"/>
</g>
<!-- Node37&#45;&gt;Node4 -->
<g id="edge68" class="edge">
<title>Node37&#45;&gt;Node4</title>
<path fill="none" stroke="#191970" d="M810.5825,-301.9405C893.8711,-295.1935 1032.056,-280.5153 1076,-255 1111.1452,-234.5936 1133,-224.1399 1133,-183.5 1133,-183.5 1133,-183.5 1133,-122 1133,-86.2001 1154.5643,-49.1175 1169.3693,-27.8769"/>
<polygon fill="#191970" stroke="#191970" points="1172.3739,-29.6952 1175.4061,-19.5435 1166.7051,-25.5886 1172.3739,-29.6952"/>
</g>
<!-- Node37&#45;&gt;Node5 -->
<g id="edge69" class="edge">
<title>Node37&#45;&gt;Node5</title>
<path fill="none" stroke="#191970" d="M679.1551,-297.7539C591.2595,-286.0788 436.4587,-265.5167 348.3219,-253.8095"/>
<polygon fill="#191970" stroke="#191970" points="348.5485,-250.3089 338.1747,-252.4616 347.6267,-257.248 348.5485,-250.3089"/>
</g>
<!-- Node37&#45;&gt;Node12 -->
<g id="edge70" class="edge">
<title>Node37&#45;&gt;Node12</title>
<path fill="none" stroke="#191970" d="M739.3183,-296.8843C721.5637,-267.2877 664.6186,-175.7129 603,-112 584.9521,-93.3386 569.245,-98.8918 557,-76 549.4628,-61.9093 548.6388,-43.6518 549.4587,-29.9123"/>
<polygon fill="#191970" stroke="#191970" points="552.9744,-29.9074 550.4228,-19.6244 546.0049,-29.2542 552.9744,-29.9074"/>
</g>
</g>
</svg>
