<?xml version="1.0" encoding="UTF-8" standalone="no"?>
<!DOCTYPE svg PUBLIC "-//W3C//DTD SVG 1.1//EN"
 "http://www.w3.org/Graphics/SVG/1.1/DTD/svg11.dtd">
<!-- Generated by graphviz version 2.40.1 (20161225.0304)
 -->
<!-- Title: event.h Pages: 1 -->
<svg width="468pt" height="644pt"
 viewBox="0.00 0.00 467.50 644.00" xmlns="http://www.w3.org/2000/svg" xmlns:xlink="http://www.w3.org/1999/xlink">
<g id="graph0" class="graph" transform="scale(1 1) rotate(0) translate(4 640)">
<title>event.h</title>
<polygon fill="#ffffff" stroke="transparent" points="-4,4 -4,-640 463.5,-640 463.5,4 -4,4"/>
<!-- Node21 -->
<g id="node1" class="node">
<title>Node21</title>
<polygon fill="#bfbfbf" stroke="#000000" points="246.5,-616.5 246.5,-635.5 299.5,-635.5 299.5,-616.5 246.5,-616.5"/>
<text text-anchor="middle" x="273" y="-623.5" font-family="Helvetica,sans-Serif" font-size="10.00" fill="#000000">event.h</text>
</g>
<!-- Node22 -->
<g id="node2" class="node">
<title>Node22</title>
<g id="a_node2"><a xlink:href="api_2event_8h.html" target="_top" xlink:title="ODP event. ">
<polygon fill="#ffffff" stroke="#000000" points="246.5,-560.5 246.5,-579.5 299.5,-579.5 299.5,-560.5 246.5,-560.5"/>
<text text-anchor="middle" x="273" y="-567.5" font-family="Helvetica,sans-Serif" font-size="10.00" fill="#000000">event.h</text>
</a>
</g>
</g>
<!-- Node21&#45;&gt;Node22 -->
<g id="edge1" class="edge">
<title>Node21&#45;&gt;Node22</title>
<path fill="none" stroke="#191970" d="M273,-606.1575C273,-597.155 273,-586.9199 273,-579.6427"/>
<polygon fill="#191970" stroke="#191970" points="269.5001,-606.2455 273,-616.2455 276.5001,-606.2456 269.5001,-606.2455"/>
</g>
<!-- Node23 -->
<g id="node3" class="node">
<title>Node23</title>
<g id="a_node3"><a xlink:href="api_2spec_2queue_8h.html" target="_top" xlink:title="ODP queue. ">
<polygon fill="#ffffff" stroke="#000000" points="245,-504.5 245,-523.5 301,-523.5 301,-504.5 245,-504.5"/>
<text text-anchor="middle" x="273" y="-511.5" font-family="Helvetica,sans-Serif" font-size="10.00" fill="#000000">queue.h</text>
</a>
</g>
</g>
<!-- Node22&#45;&gt;Node23 -->
<g id="edge2" class="edge">
<title>Node22&#45;&gt;Node23</title>
<path fill="none" stroke="#191970" d="M273,-550.1575C273,-541.155 273,-530.9199 273,-523.6427"/>
<polygon fill="#191970" stroke="#191970" points="269.5001,-550.2455 273,-560.2455 276.5001,-550.2456 269.5001,-550.2455"/>
</g>
<!-- Node28 -->
<g id="node8" class="node">
<title>Node28</title>
<g id="a_node8"><a xlink:href="odp__api_8h.html" target="_top" xlink:title="The OpenDataPlane API. ">
<polygon fill="#ffffff" stroke="#000000" points="173,-56.5 173,-75.5 237,-75.5 237,-56.5 173,-56.5"/>
<text text-anchor="middle" x="205" y="-63.5" font-family="Helvetica,sans-Serif" font-size="10.00" fill="#000000">odp_api.h</text>
</a>
</g>
</g>
<!-- Node22&#45;&gt;Node28 -->
<g id="edge27" class="edge">
<title>Node22&#45;&gt;Node28</title>
<path fill="none" stroke="#191970" d="M236.4354,-562.9882C162.0319,-547.6721 0,-508.5182 0,-458 0,-458 0,-458 0,-178 0,-100.1333 115.3125,-76.0667 172.9688,-68.9"/>
<polygon fill="#191970" stroke="#191970" points="235.831,-566.4368 246.3265,-564.9899 237.2195,-559.5758 235.831,-566.4368"/>
</g>
<!-- Node36 -->
<g id="node16" class="node">
<title>Node36</title>
<g id="a_node16"><a xlink:href="api_2spec_2schedule_8h.html" target="_top" xlink:title="ODP schedule. ">
<polygon fill="#ffffff" stroke="#000000" points="390.5,-392.5 390.5,-411.5 459.5,-411.5 459.5,-392.5 390.5,-392.5"/>
<text text-anchor="middle" x="425" y="-399.5" font-family="Helvetica,sans-Serif" font-size="10.00" fill="#000000">schedule.h</text>
</a>
</g>
</g>
<!-- Node22&#45;&gt;Node36 -->
<g id="edge26" class="edge">
<title>Node22&#45;&gt;Node36</title>
<path fill="none" stroke="#191970" d="M288.3886,-552.9915C319.9421,-518.1166 391.1029,-439.4652 416.1081,-411.8279"/>
<polygon fill="#191970" stroke="#191970" points="285.7215,-550.7226 281.6077,-560.4862 290.9122,-555.4191 285.7215,-550.7226"/>
</g>
<!-- Node24 -->
<g id="node4" class="node">
<title>Node24</title>
<g id="a_node4"><a xlink:href="api_2queue_8h.html" target="_top" xlink:title="ODP queue. ">
<polygon fill="#ffffff" stroke="#000000" points="245,-448.5 245,-467.5 301,-467.5 301,-448.5 245,-448.5"/>
<text text-anchor="middle" x="273" y="-455.5" font-family="Helvetica,sans-Serif" font-size="10.00" fill="#000000">queue.h</text>
</a>
</g>
</g>
<!-- Node23&#45;&gt;Node24 -->
<g id="edge3" class="edge">
<title>Node23&#45;&gt;Node24</title>
<path fill="none" stroke="#191970" d="M273,-494.1575C273,-485.155 273,-474.9199 273,-467.6427"/>
<polygon fill="#191970" stroke="#191970" points="269.5001,-494.2455 273,-504.2455 276.5001,-494.2456 269.5001,-494.2455"/>
</g>
<!-- Node25 -->
<g id="node5" class="node">
<title>Node25</title>
<g id="a_node5"><a xlink:href="api_2crypto_8h.html" target="_top" xlink:title="ODP crypto. ">
<polygon fill="#ffffff" stroke="#000000" points="351,-224.5 351,-243.5 407,-243.5 407,-224.5 351,-224.5"/>
<text text-anchor="middle" x="379" y="-231.5" font-family="Helvetica,sans-Serif" font-size="10.00" fill="#000000">crypto.h</text>
</a>
</g>
</g>
<!-- Node24&#45;&gt;Node25 -->
<g id="edge4" class="edge">
<title>Node24&#45;&gt;Node25</title>
<path fill="none" stroke="#191970" d="M281.8568,-439.2838C303.4686,-393.6135 358.3163,-277.709 374.4623,-243.5891"/>
<polygon fill="#191970" stroke="#191970" points="278.6685,-437.8389 277.5547,-448.375 284.9958,-440.8331 278.6685,-437.8389"/>
</g>
<!-- Node24&#45;&gt;Node28 -->
<g id="edge25" class="edge">
<title>Node24&#45;&gt;Node28</title>
<path fill="none" stroke="#191970" d="M234.9401,-448.2703C168.4171,-430.1386 38,-389.0959 38,-346 38,-346 38,-346 38,-178 38,-113.7662 124.2725,-84.0091 172.8007,-72.3518"/>
<polygon fill="#191970" stroke="#191970" points="234.0879,-451.6654 244.6535,-450.8788 235.9034,-444.905 234.0879,-451.6654"/>
</g>
<!-- Node30 -->
<g id="node10" class="node">
<title>Node30</title>
<g id="a_node10"><a xlink:href="api_2spec_2packet__io_8h.html" target="_top" xlink:title="ODP Packet IO. ">
<polygon fill="#ffffff" stroke="#000000" points="198.5,-392.5 198.5,-411.5 271.5,-411.5 271.5,-392.5 198.5,-392.5"/>
<text text-anchor="middle" x="235" y="-399.5" font-family="Helvetica,sans-Serif" font-size="10.00" fill="#000000">packet_io.h</text>
</a>
</g>
</g>
<!-- Node24&#45;&gt;Node30 -->
<g id="edge10" class="edge">
<title>Node24&#45;&gt;Node30</title>
<path fill="none" stroke="#191970" d="M260.7321,-439.9209C254.3512,-430.5176 246.8069,-419.3997 241.5432,-411.6427"/>
<polygon fill="#191970" stroke="#191970" points="257.8697,-441.936 266.3809,-448.2455 263.662,-438.0055 257.8697,-441.936"/>
</g>
<!-- Node24&#45;&gt;Node36 -->
<g id="edge22" class="edge">
<title>Node24&#45;&gt;Node36</title>
<path fill="none" stroke="#191970" d="M308.859,-444.7888C336.6123,-434.5639 374.3819,-420.6488 399.2112,-411.5011"/>
<polygon fill="#191970" stroke="#191970" points="307.3032,-441.6319 299.1297,-448.3733 309.7232,-448.2003 307.3032,-441.6319"/>
</g>
<!-- Node26 -->
<g id="node6" class="node">
<title>Node26</title>
<g id="a_node6"><a xlink:href="api_2spec_2ipsec_8h.html" target="_top" xlink:title="ODP IPSEC API. ">
<polygon fill="#ffffff" stroke="#000000" points="206.5,-168.5 206.5,-187.5 257.5,-187.5 257.5,-168.5 206.5,-168.5"/>
<text text-anchor="middle" x="232" y="-175.5" font-family="Helvetica,sans-Serif" font-size="10.00" fill="#000000">ipsec.h</text>
</a>
</g>
</g>
<!-- Node25&#45;&gt;Node26 -->
<g id="edge5" class="edge">
<title>Node25&#45;&gt;Node26</title>
<path fill="none" stroke="#191970" d="M344.3206,-220.7888C317.4802,-210.5639 280.953,-196.6488 256.9404,-187.5011"/>
<polygon fill="#191970" stroke="#191970" points="343.1389,-224.0839 353.7298,-224.3733 345.6309,-217.5425 343.1389,-224.0839"/>
</g>
<!-- Node25&#45;&gt;Node28 -->
<g id="edge9" class="edge">
<title>Node25&#45;&gt;Node28</title>
<path fill="none" stroke="#191970" d="M368.1819,-215.7445C352.3679,-190.185 320.8885,-143.3544 285,-112 267.3848,-96.6103 243.8415,-83.8127 226.8612,-75.6562"/>
<polygon fill="#191970" stroke="#191970" points="365.2698,-217.6921 373.4523,-224.4223 371.2528,-214.0583 365.2698,-217.6921"/>
</g>
<!-- Node27 -->
<g id="node7" class="node">
<title>Node27</title>
<g id="a_node7"><a xlink:href="api_2ipsec_8h.html" target="_top" xlink:title="ODP IPSEC API &#45; platform specific header. ">
<polygon fill="#ffffff" stroke="#000000" points="206.5,-112.5 206.5,-131.5 257.5,-131.5 257.5,-112.5 206.5,-112.5"/>
<text text-anchor="middle" x="232" y="-119.5" font-family="Helvetica,sans-Serif" font-size="10.00" fill="#000000">ipsec.h</text>
</a>
</g>
</g>
<!-- Node26&#45;&gt;Node27 -->
<g id="edge6" class="edge">
<title>Node26&#45;&gt;Node27</title>
<path fill="none" stroke="#191970" d="M232,-158.1575C232,-149.155 232,-138.9199 232,-131.6427"/>
<polygon fill="#191970" stroke="#191970" points="228.5001,-158.2455 232,-168.2455 235.5001,-158.2456 228.5001,-158.2455"/>
</g>
<!-- Node27&#45;&gt;Node28 -->
<g id="edge7" class="edge">
<title>Node27&#45;&gt;Node28</title>
<path fill="none" stroke="#191970" d="M222.8604,-103.0437C218.4195,-93.8331 213.2735,-83.1598 209.6491,-75.6427"/>
<polygon fill="#191970" stroke="#191970" points="219.8012,-104.7579 227.297,-112.2455 226.1066,-101.7178 219.8012,-104.7579"/>
</g>
<!-- Node29 -->
<g id="node9" class="node">
<title>Node29</title>
<g id="a_node9"><a xlink:href="odp_8h.html" target="_top" xlink:title="WARNING: THIS FILE IS DEPRECATED AND WILL BE REMOVED!!! ODP APPLICATIONS SHOULD NOW INCLUDE odp_api...">
<polygon fill="#ffffff" stroke="#000000" points="183,-.5 183,-19.5 227,-19.5 227,-.5 183,-.5"/>
<text text-anchor="middle" x="205" y="-7.5" font-family="Helvetica,sans-Serif" font-size="10.00" fill="#000000">odp.h</text>
</a>
</g>
</g>
<!-- Node28&#45;&gt;Node29 -->
<g id="edge8" class="edge">
<title>Node28&#45;&gt;Node29</title>
<path fill="none" stroke="#191970" d="M205,-46.1575C205,-37.155 205,-26.9199 205,-19.6427"/>
<polygon fill="#191970" stroke="#191970" points="201.5001,-46.2455 205,-56.2455 208.5001,-46.2456 201.5001,-46.2455"/>
</g>
<!-- Node31 -->
<g id="node11" class="node">
<title>Node31</title>
<g id="a_node11"><a xlink:href="api_2packet__io_8h.html" target="_top" xlink:title="ODP Packet IO. ">
<polygon fill="#ffffff" stroke="#000000" points="179.5,-336.5 179.5,-355.5 252.5,-355.5 252.5,-336.5 179.5,-336.5"/>
<text text-anchor="middle" x="216" y="-343.5" font-family="Helvetica,sans-Serif" font-size="10.00" fill="#000000">packet_io.h</text>
</a>
</g>
</g>
<!-- Node30&#45;&gt;Node31 -->
<g id="edge11" class="edge">
<title>Node30&#45;&gt;Node31</title>
<path fill="none" stroke="#191970" d="M228.4685,-382.7493C225.3664,-373.6064 221.7949,-363.0798 219.2716,-355.6427"/>
<polygon fill="#191970" stroke="#191970" points="225.163,-383.9003 231.6905,-392.2455 231.7918,-381.6512 225.163,-383.9003"/>
</g>
<!-- Node31&#45;&gt;Node26 -->
<g id="edge16" class="edge">
<title>Node31&#45;&gt;Node26</title>
<path fill="none" stroke="#191970" d="M217.88,-326.2601C221.3174,-290.1669 228.4985,-214.7656 231.064,-187.8279"/>
<polygon fill="#191970" stroke="#191970" points="214.37,-326.1994 216.9061,-336.4862 221.3385,-326.8631 214.37,-326.1994"/>
</g>
<!-- Node31&#45;&gt;Node28 -->
<g id="edge21" class="edge">
<title>Node31&#45;&gt;Node28</title>
<path fill="none" stroke="#191970" d="M205.511,-327.4209C194.2634,-305.7168 178,-268.3882 178,-234 178,-234 178,-234 178,-178 178,-139.1971 193.5056,-94.8855 201.0161,-75.6981"/>
<polygon fill="#191970" stroke="#191970" points="202.569,-329.3395 210.393,-336.4834 208.7317,-326.0196 202.569,-329.3395"/>
</g>
<!-- Node32 -->
<g id="node12" class="node">
<title>Node32</title>
<g id="a_node12"><a xlink:href="api_2spec_2classification_8h.html" target="_top" xlink:title="ODP classification descriptor. ">
<polygon fill="#ffffff" stroke="#000000" points="244.5,-280.5 244.5,-299.5 333.5,-299.5 333.5,-280.5 244.5,-280.5"/>
<text text-anchor="middle" x="289" y="-287.5" font-family="Helvetica,sans-Serif" font-size="10.00" fill="#000000">classification.h</text>
</a>
</g>
</g>
<!-- Node31&#45;&gt;Node32 -->
<g id="edge12" class="edge">
<title>Node31&#45;&gt;Node32</title>
<path fill="none" stroke="#191970" d="M236.951,-329.928C249.7107,-320.1397 265.5885,-307.9595 276.4301,-299.6427"/>
<polygon fill="#191970" stroke="#191970" points="234.5196,-327.3819 228.7156,-336.2455 238.7803,-332.9359 234.5196,-327.3819"/>
</g>
<!-- Node34 -->
<g id="node14" class="node">
<title>Node34</title>
<g id="a_node14"><a xlink:href="api_2spec_2traffic__mngr_8h.html" target="_top" xlink:title="Copyright (c) 2015&#45;2018, Linaro Limited All rights reserved. ">
<polygon fill="#ffffff" stroke="#000000" points="66,-280.5 66,-299.5 150,-299.5 150,-280.5 66,-280.5"/>
<text text-anchor="middle" x="108" y="-287.5" font-family="Helvetica,sans-Serif" font-size="10.00" fill="#000000">traffic_mngr.h</text>
</a>
</g>
</g>
<!-- Node31&#45;&gt;Node34 -->
<g id="edge17" class="edge">
<title>Node31&#45;&gt;Node34</title>
<path fill="none" stroke="#191970" d="M188.2229,-331.5971C168.8618,-321.558 143.5615,-308.4393 126.5966,-299.6427"/>
<polygon fill="#191970" stroke="#191970" points="186.6992,-334.7495 197.1878,-336.2455 189.9214,-328.5352 186.6992,-334.7495"/>
</g>
<!-- Node33 -->
<g id="node13" class="node">
<title>Node33</title>
<g id="a_node13"><a xlink:href="api_2classification_8h.html" target="_top" xlink:title="ODP classification descriptor. ">
<polygon fill="#ffffff" stroke="#000000" points="244.5,-224.5 244.5,-243.5 333.5,-243.5 333.5,-224.5 244.5,-224.5"/>
<text text-anchor="middle" x="289" y="-231.5" font-family="Helvetica,sans-Serif" font-size="10.00" fill="#000000">classification.h</text>
</a>
</g>
</g>
<!-- Node32&#45;&gt;Node33 -->
<g id="edge13" class="edge">
<title>Node32&#45;&gt;Node33</title>
<path fill="none" stroke="#191970" d="M289,-270.1575C289,-261.155 289,-250.9199 289,-243.6427"/>
<polygon fill="#191970" stroke="#191970" points="285.5001,-270.2455 289,-280.2455 292.5001,-270.2456 285.5001,-270.2455"/>
</g>
<!-- Node33&#45;&gt;Node26 -->
<g id="edge14" class="edge">
<title>Node33&#45;&gt;Node26</title>
<path fill="none" stroke="#191970" d="M271.7729,-217.0751C261.9659,-207.4402 250.036,-195.7196 241.8149,-187.6427"/>
<polygon fill="#191970" stroke="#191970" points="269.4851,-219.734 279.0714,-224.2455 274.3909,-214.7406 269.4851,-219.734"/>
</g>
<!-- Node33&#45;&gt;Node28 -->
<g id="edge15" class="edge">
<title>Node33&#45;&gt;Node28</title>
<path fill="none" stroke="#191970" d="M289.5178,-214.0271C289.273,-188.4837 285.7144,-143.7611 266,-112 255.9971,-95.8847 238.1356,-83.4199 224.3163,-75.5558"/>
<polygon fill="#191970" stroke="#191970" points="286.0161,-214.273 289.4433,-224.2982 293.0159,-214.3239 286.0161,-214.273"/>
</g>
<!-- Node35 -->
<g id="node15" class="node">
<title>Node35</title>
<g id="a_node15"><a xlink:href="api_2traffic__mngr_8h.html" target="_top" xlink:title="ODP Traffic manager. ">
<polygon fill="#ffffff" stroke="#000000" points="66,-224.5 66,-243.5 150,-243.5 150,-224.5 66,-224.5"/>
<text text-anchor="middle" x="108" y="-231.5" font-family="Helvetica,sans-Serif" font-size="10.00" fill="#000000">traffic_mngr.h</text>
</a>
</g>
</g>
<!-- Node34&#45;&gt;Node35 -->
<g id="edge18" class="edge">
<title>Node34&#45;&gt;Node35</title>
<path fill="none" stroke="#191970" d="M108,-270.1575C108,-261.155 108,-250.9199 108,-243.6427"/>
<polygon fill="#191970" stroke="#191970" points="104.5001,-270.2455 108,-280.2455 111.5001,-270.2456 104.5001,-270.2455"/>
</g>
<!-- Node35&#45;&gt;Node26 -->
<g id="edge19" class="edge">
<title>Node35&#45;&gt;Node26</title>
<path fill="none" stroke="#191970" d="M138.4524,-220.2473C160.9722,-210.0771 191.0617,-196.4883 210.9618,-187.5011"/>
<polygon fill="#191970" stroke="#191970" points="136.9895,-217.0675 129.3164,-224.3733 139.8706,-223.4471 136.9895,-217.0675"/>
</g>
<!-- Node35&#45;&gt;Node28 -->
<g id="edge20" class="edge">
<title>Node35&#45;&gt;Node28</title>
<path fill="none" stroke="#191970" d="M114.8283,-214.6336C124.0453,-189.7717 141.8887,-145.8111 164,-112 173.0169,-98.2119 186.0224,-84.3662 194.9546,-75.5219"/>
<polygon fill="#191970" stroke="#191970" points="111.434,-213.7272 111.3172,-224.3214 118.0152,-216.1123 111.434,-213.7272"/>
</g>
<!-- Node37 -->
<g id="node17" class="node">
<title>Node37</title>
<g id="a_node17"><a xlink:href="api_2schedule_8h.html" target="_top" xlink:title="ODP schedule. ">
<polygon fill="#ffffff" stroke="#000000" points="388.5,-168.5 388.5,-187.5 457.5,-187.5 457.5,-168.5 388.5,-168.5"/>
<text text-anchor="middle" x="423" y="-175.5" font-family="Helvetica,sans-Serif" font-size="10.00" fill="#000000">schedule.h</text>
</a>
</g>
</g>
<!-- Node36&#45;&gt;Node37 -->
<g id="edge23" class="edge">
<title>Node36&#45;&gt;Node37</title>
<path fill="none" stroke="#191970" d="M424.8225,-382.1177C424.4078,-335.6713 423.3877,-221.4223 423.0856,-187.5891"/>
<polygon fill="#191970" stroke="#191970" points="421.3248,-382.4067 424.9141,-392.375 428.3245,-382.3441 421.3248,-382.4067"/>
</g>
<!-- Node37&#45;&gt;Node28 -->
<g id="edge24" class="edge">
<title>Node37&#45;&gt;Node28</title>
<path fill="none" stroke="#191970" d="M410.6767,-159.9798C399.5842,-145.0674 381.988,-124.3894 362,-112 322.8911,-87.7586 270.4085,-75.777 237.1395,-70.2463"/>
<polygon fill="#191970" stroke="#191970" points="408.0364,-162.3042 416.7061,-168.3942 413.7264,-158.2269 408.0364,-162.3042"/>
</g>
</g>
</svg>
