<?xml version="1.0" encoding="UTF-8" standalone="no"?>
<!DOCTYPE svg PUBLIC "-//W3C//DTD SVG 1.1//EN"
 "http://www.w3.org/Graphics/SVG/1.1/DTD/svg11.dtd">
<!-- Generated by graphviz version 2.40.1 (20161225.0304)
 -->
<!-- Title: packet_io.h Pages: 1 -->
<svg width="1820pt" height="789pt"
 viewBox="0.00 0.00 1820.19 789.00" xmlns="http://www.w3.org/2000/svg" xmlns:xlink="http://www.w3.org/1999/xlink">
<g id="graph0" class="graph" transform="scale(1 1) rotate(0) translate(4 785)">
<title>packet_io.h</title>
<polygon fill="#ffffff" stroke="transparent" points="-4,4 -4,-785 1816.1949,-785 1816.1949,4 -4,4"/>
<!-- Node0 -->
<g id="node1" class="node">
<title>Node0</title>
<polygon fill="#bfbfbf" stroke="#000000" points="279.5,-761.5 279.5,-780.5 352.5,-780.5 352.5,-761.5 279.5,-761.5"/>
<text text-anchor="middle" x="316" y="-768.5" font-family="Helvetica,sans-Serif" font-size="10.00" fill="#000000">packet_io.h</text>
</g>
<!-- Node1 -->
<g id="node2" class="node">
<title>Node1</title>
<g id="a_node2"><a xlink:href="api_2std__types_8h.html" target="_top" xlink:title="Standard C language types and definitions for ODP. ">
<polygon fill="#ffffff" stroke="#000000" points="426,-246.5 426,-265.5 538,-265.5 538,-246.5 426,-246.5"/>
<text text-anchor="middle" x="482" y="-253.5" font-family="Helvetica,sans-Serif" font-size="10.00" fill="#000000">odp/api/std_types.h</text>
</a>
</g>
</g>
<!-- Node0&#45;&gt;Node1 -->
<g id="edge1" class="edge">
<title>Node0&#45;&gt;Node1</title>
<path fill="none" stroke="#191970" d="M279.368,-767.9418C237.6564,-763.2823 168.3866,-751.9043 115,-725 74.749,-704.7155 38,-704.0733 38,-659 38,-659 38,-659 38,-379 38,-321.8444 88.0933,-323.625 141,-302 189.4209,-282.2085 331.1797,-267.968 415.9096,-260.9459"/>
<polygon fill="#191970" stroke="#191970" points="416.268,-264.4284 425.9497,-260.1254 415.6978,-257.4516 416.268,-264.4284"/>
</g>
<!-- Node10 -->
<g id="node11" class="node">
<title>Node10</title>
<polygon fill="#ffffff" stroke="#bfbfbf" points="518,-369.5 518,-388.5 622,-388.5 622,-369.5 518,-369.5"/>
<text text-anchor="middle" x="570" y="-376.5" font-family="Helvetica,sans-Serif" font-size="10.00" fill="#000000">odp/api/abi/pool.h</text>
</g>
<!-- Node0&#45;&gt;Node10 -->
<g id="edge12" class="edge">
<title>Node0&#45;&gt;Node10</title>
<path fill="none" stroke="#191970" d="M352.7603,-762.8755C400.5571,-749.893 478,-719.5201 478,-659 478,-659 478,-659 478,-547 478,-485.2573 526.395,-424.7028 552.985,-396.0916"/>
<polygon fill="#191970" stroke="#191970" points="555.7805,-398.232 560.1544,-388.5821 550.7174,-393.3982 555.7805,-398.232"/>
</g>
<!-- Node11 -->
<g id="node12" class="node">
<title>Node11</title>
<polygon fill="#ffffff" stroke="#bfbfbf" points="142,-705.5 142,-724.5 288,-724.5 288,-705.5 142,-705.5"/>
<text text-anchor="middle" x="215" y="-712.5" font-family="Helvetica,sans-Serif" font-size="10.00" fill="#000000">odp/api/abi/classification.h</text>
</g>
<!-- Node0&#45;&gt;Node11 -->
<g id="edge13" class="edge">
<title>Node0&#45;&gt;Node11</title>
<path fill="none" stroke="#191970" d="M298.4071,-761.2455C282.621,-752.4928 259.2361,-739.527 241.2413,-729.5496"/>
<polygon fill="#191970" stroke="#191970" points="242.8341,-726.4308 232.3913,-724.6427 239.4397,-732.5528 242.8341,-726.4308"/>
</g>
<!-- Node12 -->
<g id="node13" class="node">
<title>Node12</title>
<polygon fill="#ffffff" stroke="#bfbfbf" points="104,-369.5 104,-388.5 220,-388.5 220,-369.5 104,-369.5"/>
<text text-anchor="middle" x="162" y="-376.5" font-family="Helvetica,sans-Serif" font-size="10.00" fill="#000000">odp/api/abi/packet.h</text>
</g>
<!-- Node0&#45;&gt;Node12 -->
<g id="edge14" class="edge">
<title>Node0&#45;&gt;Node12</title>
<path fill="none" stroke="#191970" d="M279.2261,-766.1413C232.0046,-759.183 153.6696,-744.9778 133,-725 111.0517,-703.7862 114,-689.5246 114,-659 114,-659 114,-659 114,-491 114,-455.4341 134.7017,-418.2782 148.9145,-396.9597"/>
<polygon fill="#191970" stroke="#191970" points="151.8933,-398.8059 154.7098,-388.5923 146.1387,-394.8202 151.8933,-398.8059"/>
</g>
<!-- Node13 -->
<g id="node14" class="node">
<title>Node13</title>
<polygon fill="#ffffff" stroke="#bfbfbf" points="238,-369.5 238,-388.5 368,-388.5 368,-369.5 238,-369.5"/>
<text text-anchor="middle" x="303" y="-376.5" font-family="Helvetica,sans-Serif" font-size="10.00" fill="#000000">odp/api/abi/packet_io.h</text>
</g>
<!-- Node0&#45;&gt;Node13 -->
<g id="edge15" class="edge">
<title>Node0&#45;&gt;Node13</title>
<path fill="none" stroke="#191970" d="M313.1438,-761.2748C304.3065,-730.2942 278,-631.0168 278,-547 278,-547 278,-547 278,-491 278,-457.7847 288.603,-420.3305 295.9987,-398.2459"/>
<polygon fill="#191970" stroke="#191970" points="299.3308,-399.3197 299.3112,-388.7249 292.7195,-397.0195 299.3308,-399.3197"/>
</g>
<!-- Node14 -->
<g id="node15" class="node">
<title>Node14</title>
<polygon fill="#ffffff" stroke="#bfbfbf" points="386.5,-369.5 386.5,-388.5 499.5,-388.5 499.5,-369.5 386.5,-369.5"/>
<text text-anchor="middle" x="443" y="-376.5" font-family="Helvetica,sans-Serif" font-size="10.00" fill="#000000">odp/api/abi/queue.h</text>
</g>
<!-- Node0&#45;&gt;Node14 -->
<g id="edge16" class="edge">
<title>Node0&#45;&gt;Node14</title>
<path fill="none" stroke="#191970" d="M321.607,-761.4834C332.1774,-742.6141 354,-698.8343 354,-659 354,-659 354,-659 354,-491 354,-449.0503 392.7437,-413.7004 419.1057,-394.503"/>
<polygon fill="#191970" stroke="#191970" points="421.3144,-397.2292 427.4974,-388.6256 417.2987,-391.4956 421.3144,-397.2292"/>
</g>
<!-- Node15 -->
<g id="node16" class="node">
<title>Node15</title>
<g id="a_node16"><a xlink:href="api_2spec_2packet__io_8h.html" target="_top" xlink:title="ODP Packet IO. ">
<polygon fill="#ffffff" stroke="#000000" points="1015.5,-705.5 1015.5,-724.5 1152.5,-724.5 1152.5,-705.5 1015.5,-705.5"/>
<text text-anchor="middle" x="1084" y="-712.5" font-family="Helvetica,sans-Serif" font-size="10.00" fill="#000000">odp/api/spec/packet_io.h</text>
</a>
</g>
</g>
<!-- Node0&#45;&gt;Node15 -->
<g id="edge17" class="edge">
<title>Node0&#45;&gt;Node15</title>
<path fill="none" stroke="#191970" d="M352.5256,-768.3367C470.2683,-759.7513 841.6681,-732.67 1005.2876,-720.7394"/>
<polygon fill="#191970" stroke="#191970" points="1005.5683,-724.2284 1015.2873,-720.0103 1005.0592,-717.2469 1005.5683,-724.2284"/>
</g>
<!-- Node2 -->
<g id="node3" class="node">
<title>Node2</title>
<polygon fill="#ffffff" stroke="#bfbfbf" points="341,-185 341,-204 471,-204 471,-185 341,-185"/>
<text text-anchor="middle" x="406" y="-192" font-family="Helvetica,sans-Serif" font-size="10.00" fill="#000000">odp/api/abi/std_types.h</text>
</g>
<!-- Node1&#45;&gt;Node2 -->
<g id="edge2" class="edge">
<title>Node1&#45;&gt;Node2</title>
<path fill="none" stroke="#191970" d="M470.125,-246.3906C458.3703,-236.8786 440.1514,-222.1357 426.1328,-210.7917"/>
<polygon fill="#191970" stroke="#191970" points="428.0178,-207.8146 418.0424,-204.2449 423.6144,-213.2562 428.0178,-207.8146"/>
</g>
<!-- Node3 -->
<g id="node4" class="node">
<title>Node3</title>
<g id="a_node4"><a xlink:href="api_2spec_2std__types_8h.html" target="_top" xlink:title="Standard C language types and definitions for ODP. ">
<polygon fill="#ffffff" stroke="#000000" points="489.5,-185 489.5,-204 626.5,-204 626.5,-185 489.5,-185"/>
<text text-anchor="middle" x="558" y="-192" font-family="Helvetica,sans-Serif" font-size="10.00" fill="#000000">odp/api/spec/std_types.h</text>
</a>
</g>
</g>
<!-- Node1&#45;&gt;Node3 -->
<g id="edge3" class="edge">
<title>Node1&#45;&gt;Node3</title>
<path fill="none" stroke="#191970" d="M493.875,-246.3906C505.6297,-236.8786 523.8486,-222.1357 537.8672,-210.7917"/>
<polygon fill="#191970" stroke="#191970" points="540.3856,-213.2562 545.9576,-204.2449 535.9822,-207.8146 540.3856,-213.2562"/>
</g>
<!-- Node4 -->
<g id="node5" class="node">
<title>Node4</title>
<g id="a_node5"><a xlink:href="visibility__begin_8h_source.html" target="_top" xlink:title="odp/visibility_begin.h">
<polygon fill="#ffffff" stroke="#000000" points="784.5,-.5 784.5,-19.5 905.5,-19.5 905.5,-.5 784.5,-.5"/>
<text text-anchor="middle" x="845" y="-7.5" font-family="Helvetica,sans-Serif" font-size="10.00" fill="#000000">odp/visibility_begin.h</text>
</a>
</g>
</g>
<!-- Node3&#45;&gt;Node4 -->
<g id="edge4" class="edge">
<title>Node3&#45;&gt;Node4</title>
<path fill="none" stroke="#191970" d="M552.7113,-184.6749C540.1167,-159.7888 511.7218,-93.5859 544,-56 558.8311,-38.7302 689.9726,-23.8751 774.1926,-16.0036"/>
<polygon fill="#191970" stroke="#191970" points="774.5836,-19.4825 784.2198,-15.0786 773.9405,-12.5121 774.5836,-19.4825"/>
</g>
<!-- Node5 -->
<g id="node6" class="node">
<title>Node5</title>
<polygon fill="#ffffff" stroke="#bfbfbf" points="442.5,-123.5 442.5,-142.5 495.5,-142.5 495.5,-123.5 442.5,-123.5"/>
<text text-anchor="middle" x="469" y="-130.5" font-family="Helvetica,sans-Serif" font-size="10.00" fill="#000000">stdint.h</text>
</g>
<!-- Node3&#45;&gt;Node5 -->
<g id="edge5" class="edge">
<title>Node3&#45;&gt;Node5</title>
<path fill="none" stroke="#191970" d="M544.0938,-184.8906C529.9862,-175.1421 507.9276,-159.8994 491.3615,-148.4521"/>
<polygon fill="#191970" stroke="#191970" points="493.0253,-145.3474 482.8086,-142.5419 489.0458,-151.1063 493.0253,-145.3474"/>
</g>
<!-- Node6 -->
<g id="node7" class="node">
<title>Node6</title>
<g id="a_node7"><a xlink:href="api_2align_8h.html" target="_top" xlink:title="ODP alignments. ">
<polygon fill="#ffffff" stroke="#000000" points="561.5,-123.5 561.5,-142.5 650.5,-142.5 650.5,-123.5 561.5,-123.5"/>
<text text-anchor="middle" x="606" y="-130.5" font-family="Helvetica,sans-Serif" font-size="10.00" fill="#000000">odp/api/align.h</text>
</a>
</g>
</g>
<!-- Node3&#45;&gt;Node6 -->
<g id="edge6" class="edge">
<title>Node3&#45;&gt;Node6</title>
<path fill="none" stroke="#191970" d="M565.5,-184.8906C572.5738,-175.8273 583.3542,-162.0149 592.0146,-150.9188"/>
<polygon fill="#191970" stroke="#191970" points="595.0006,-152.7815 598.3943,-142.7449 589.4824,-148.4746 595.0006,-152.7815"/>
</g>
<!-- Node9 -->
<g id="node10" class="node">
<title>Node9</title>
<g id="a_node10"><a xlink:href="visibility__end_8h_source.html" target="_top" xlink:title="odp/visibility_end.h">
<polygon fill="#ffffff" stroke="#000000" points="1522,-.5 1522,-19.5 1634,-19.5 1634,-.5 1522,-.5"/>
<text text-anchor="middle" x="1578" y="-7.5" font-family="Helvetica,sans-Serif" font-size="10.00" fill="#000000">odp/visibility_end.h</text>
</a>
</g>
</g>
<!-- Node3&#45;&gt;Node9 -->
<g id="edge11" class="edge">
<title>Node3&#45;&gt;Node9</title>
<path fill="none" stroke="#191970" d="M626.6179,-188.6509C781.4145,-174.7296 1153.2103,-137.0191 1268,-87 1288.2987,-78.1549 1286.7812,-65.0261 1307,-56 1342.6459,-40.0869 1443.4102,-25.7262 1511.5046,-17.4327"/>
<polygon fill="#191970" stroke="#191970" points="1512.2094,-20.8732 1521.7199,-16.204 1511.3734,-13.9233 1512.2094,-20.8732"/>
</g>
<!-- Node7 -->
<g id="node8" class="node">
<title>Node7</title>
<polygon fill="#ffffff" stroke="#bfbfbf" points="552.5,-62 552.5,-81 659.5,-81 659.5,-62 552.5,-62"/>
<text text-anchor="middle" x="606" y="-69" font-family="Helvetica,sans-Serif" font-size="10.00" fill="#000000">odp/api/abi/align.h</text>
</g>
<!-- Node6&#45;&gt;Node7 -->
<g id="edge7" class="edge">
<title>Node6&#45;&gt;Node7</title>
<path fill="none" stroke="#191970" d="M606,-123.3906C606,-114.8657 606,-102.1392 606,-91.4235"/>
<polygon fill="#191970" stroke="#191970" points="609.5001,-91.2448 606,-81.2449 602.5001,-91.2449 609.5001,-91.2448"/>
</g>
<!-- Node8 -->
<g id="node9" class="node">
<title>Node8</title>
<g id="a_node9"><a xlink:href="api_2spec_2align_8h.html" target="_top" xlink:title="ODP alignments. ">
<polygon fill="#ffffff" stroke="#000000" points="830,-62 830,-81 944,-81 944,-62 830,-62"/>
<text text-anchor="middle" x="887" y="-69" font-family="Helvetica,sans-Serif" font-size="10.00" fill="#000000">odp/api/spec/align.h</text>
</a>
</g>
</g>
<!-- Node6&#45;&gt;Node8 -->
<g id="edge8" class="edge">
<title>Node6&#45;&gt;Node8</title>
<path fill="none" stroke="#191970" d="M649.5979,-123.4581C699.1271,-112.6181 779.9807,-94.9224 833.3411,-83.2439"/>
<polygon fill="#191970" stroke="#191970" points="834.2793,-86.6214 843.2998,-81.0643 832.7827,-79.7833 834.2793,-86.6214"/>
</g>
<!-- Node8&#45;&gt;Node4 -->
<g id="edge9" class="edge">
<title>Node8&#45;&gt;Node4</title>
<path fill="none" stroke="#191970" d="M880.4375,-61.8906C874.3092,-52.917 865.0015,-39.2879 857.4628,-28.2491"/>
<polygon fill="#191970" stroke="#191970" points="860.185,-26.029 851.655,-19.7449 854.4044,-29.9768 860.185,-26.029"/>
</g>
<!-- Node8&#45;&gt;Node9 -->
<g id="edge10" class="edge">
<title>Node8&#45;&gt;Node9</title>
<path fill="none" stroke="#191970" d="M944.127,-62.3442C959.6321,-60.0568 976.4362,-57.7575 992,-56 1179.8757,-34.784 1402.7443,-20.1834 1511.5503,-13.7351"/>
<polygon fill="#191970" stroke="#191970" points="1511.9418,-17.2182 1521.7189,-13.1366 1511.5305,-10.2303 1511.9418,-17.2182"/>
</g>
<!-- Node15&#45;&gt;Node4 -->
<g id="edge18" class="edge">
<title>Node15&#45;&gt;Node4</title>
<path fill="none" stroke="#191970" d="M1015.1916,-710.5836C926.7819,-704.3071 768.756,-691.0527 635,-669 463.3756,-640.7039 412.4003,-640.8436 260,-557 221.3331,-535.7273 214.4235,-525.9195 178,-501 98.8434,-446.8443 0,-474.9094 0,-379 0,-379 0,-379 0,-133 0,-55.0431 570.4689,-22.1543 773.9535,-12.9027"/>
<polygon fill="#191970" stroke="#191970" points="774.3967,-16.3864 784.2297,-12.4414 774.0828,-9.3934 774.3967,-16.3864"/>
</g>
<!-- Node15&#45;&gt;Node9 -->
<g id="edge73" class="edge">
<title>Node15&#45;&gt;Node9</title>
<path fill="none" stroke="#191970" d="M1152.5898,-712.6634C1325.5154,-706.49 1767.3361,-688.8507 1792,-669 1815.7794,-649.8612 1811,-633.5246 1811,-603 1811,-603 1811,-603 1811,-133 1811,-57.031 1712.9334,-27.8639 1644.0431,-16.7469"/>
<polygon fill="#191970" stroke="#191970" points="1644.5187,-13.279 1634.1058,-15.2342 1643.4652,-20.1993 1644.5187,-13.279"/>
</g>
<!-- Node16 -->
<g id="node17" class="node">
<title>Node16</title>
<g id="a_node17"><a xlink:href="deprecated_8h.html" target="_top" xlink:title="Control deprecated API definitions. ">
<polygon fill="#ffffff" stroke="#000000" points="1511.5,-246.5 1511.5,-265.5 1630.5,-265.5 1630.5,-246.5 1511.5,-246.5"/>
<text text-anchor="middle" x="1571" y="-253.5" font-family="Helvetica,sans-Serif" font-size="10.00" fill="#000000">odp/api/deprecated.h</text>
</a>
</g>
</g>
<!-- Node15&#45;&gt;Node16 -->
<g id="edge19" class="edge">
<title>Node15&#45;&gt;Node16</title>
<path fill="none" stroke="#191970" d="M1152.7578,-708.4389C1228.2803,-700.5401 1344.264,-686.1715 1385,-669 1506.0621,-617.9685 1621,-622.3783 1621,-491 1621,-491 1621,-491 1621,-379 1621,-339.2909 1598.3594,-297.3275 1583.5485,-274.1244"/>
<polygon fill="#191970" stroke="#191970" points="1586.386,-272.0699 1577.9523,-265.6572 1580.5462,-275.9296 1586.386,-272.0699"/>
</g>
<!-- Node18 -->
<g id="node19" class="node">
<title>Node18</title>
<g id="a_node19"><a xlink:href="packet__io__stats_8h.html" target="_top" xlink:title="ODP packet IO stats. ">
<polygon fill="#ffffff" stroke="#000000" points="1641.5,-649.5 1641.5,-668.5 1782.5,-668.5 1782.5,-649.5 1641.5,-649.5"/>
<text text-anchor="middle" x="1712" y="-656.5" font-family="Helvetica,sans-Serif" font-size="10.00" fill="#000000">odp/api/packet_io_stats.h</text>
</a>
</g>
</g>
<!-- Node15&#45;&gt;Node18 -->
<g id="edge23" class="edge">
<title>Node15&#45;&gt;Node18</title>
<path fill="none" stroke="#191970" d="M1152.6405,-709.9063C1255.7307,-702.093 1456.628,-686.2337 1627,-669 1628.2889,-668.8696 1629.5886,-668.7365 1630.8969,-668.601"/>
<polygon fill="#191970" stroke="#191970" points="1631.4836,-672.0585 1641.0577,-667.5213 1630.7438,-665.0977 1631.4836,-672.0585"/>
</g>
<!-- Node20 -->
<g id="node21" class="node">
<title>Node20</title>
<g id="a_node21"><a xlink:href="api_2queue_8h.html" target="_top" xlink:title="ODP queue. ">
<polygon fill="#ffffff" stroke="#000000" points="685.5,-649.5 685.5,-668.5 780.5,-668.5 780.5,-649.5 685.5,-649.5"/>
<text text-anchor="middle" x="733" y="-656.5" font-family="Helvetica,sans-Serif" font-size="10.00" fill="#000000">odp/api/queue.h</text>
</a>
</g>
</g>
<!-- Node15&#45;&gt;Node20 -->
<g id="edge27" class="edge">
<title>Node15&#45;&gt;Node20</title>
<path fill="none" stroke="#191970" d="M1024.0598,-705.4369C958.7309,-695.014 854.9446,-678.4555 790.5659,-668.1843"/>
<polygon fill="#191970" stroke="#191970" points="791.0104,-664.711 780.5838,-666.5917 789.9075,-671.6236 791.0104,-664.711"/>
</g>
<!-- Node26 -->
<g id="node27" class="node">
<title>Node26</title>
<g id="a_node27"><a xlink:href="api_2packet_8h.html" target="_top" xlink:title="ODP packet descriptor. ">
<polygon fill="#ffffff" stroke="#000000" points="604,-425.5 604,-444.5 702,-444.5 702,-425.5 604,-425.5"/>
<text text-anchor="middle" x="653" y="-432.5" font-family="Helvetica,sans-Serif" font-size="10.00" fill="#000000">odp/api/packet.h</text>
</a>
</g>
</g>
<!-- Node15&#45;&gt;Node26 -->
<g id="edge72" class="edge">
<title>Node15&#45;&gt;Node26</title>
<path fill="none" stroke="#191970" d="M1015.3424,-712.8678C915.2276,-708.8169 734.8069,-697.6834 677,-669 640.6743,-650.9754 614,-643.5518 614,-603 614,-603 614,-603 614,-547 614,-512.5398 630.6696,-475.2666 642.2124,-453.5877"/>
<polygon fill="#191970" stroke="#191970" points="645.3006,-455.2355 647.0767,-444.7906 639.1748,-451.8481 645.3006,-455.2355"/>
</g>
<!-- Node28 -->
<g id="node29" class="node">
<title>Node28</title>
<g id="a_node29"><a xlink:href="api_2time_8h.html" target="_top" xlink:title="ODP time. ">
<polygon fill="#ffffff" stroke="#000000" points="862.5,-308 862.5,-327 949.5,-327 949.5,-308 862.5,-308"/>
<text text-anchor="middle" x="906" y="-315" font-family="Helvetica,sans-Serif" font-size="10.00" fill="#000000">odp/api/time.h</text>
</a>
</g>
</g>
<!-- Node15&#45;&gt;Node28 -->
<g id="edge71" class="edge">
<title>Node15&#45;&gt;Node28</title>
<path fill="none" stroke="#191970" d="M1152.7048,-707.2968C1255.1432,-693.8723 1436,-661.8393 1436,-603 1436,-603 1436,-603 1436,-491 1436,-391.5677 1094.8132,-340.0019 959.9349,-323.5017"/>
<polygon fill="#191970" stroke="#191970" points="960.17,-320.0048 949.823,-322.2833 959.3325,-326.9545 960.17,-320.0048"/>
</g>
<!-- Node17 -->
<g id="node18" class="node">
<title>Node17</title>
<g id="a_node18"><a xlink:href="spec_2deprecated_8h.html" target="_top" xlink:title="Macro for deprecated API definitions. ">
<polygon fill="#ffffff" stroke="#000000" points="1315.5,-62 1315.5,-81 1460.5,-81 1460.5,-62 1315.5,-62"/>
<text text-anchor="middle" x="1388" y="-69" font-family="Helvetica,sans-Serif" font-size="10.00" fill="#000000">odp/api/spec/deprecated.h</text>
</a>
</g>
</g>
<!-- Node16&#45;&gt;Node17 -->
<g id="edge20" class="edge">
<title>Node16&#45;&gt;Node17</title>
<path fill="none" stroke="#191970" d="M1561.4188,-246.3402C1531.8956,-216.5751 1442.0564,-125.9994 1404.6354,-88.2718"/>
<polygon fill="#191970" stroke="#191970" points="1407.0135,-85.6993 1397.4864,-81.0641 1402.0436,-90.6288 1407.0135,-85.6993"/>
</g>
<!-- Node17&#45;&gt;Node4 -->
<g id="edge21" class="edge">
<title>Node17&#45;&gt;Node4</title>
<path fill="none" stroke="#191970" d="M1316.0077,-61.9614C1300.1984,-59.9337 1283.5402,-57.8484 1268,-56 1144.2432,-41.2798 999.8859,-25.9828 915.8321,-17.2626"/>
<polygon fill="#191970" stroke="#191970" points="915.9428,-13.7554 905.6353,-16.2063 915.2214,-20.7182 915.9428,-13.7554"/>
</g>
<!-- Node17&#45;&gt;Node9 -->
<g id="edge22" class="edge">
<title>Node17&#45;&gt;Node9</title>
<path fill="none" stroke="#191970" d="M1417.6875,-61.8906C1450.3146,-51.3298 1502.8626,-34.3208 1538.8425,-22.6747"/>
<polygon fill="#191970" stroke="#191970" points="1540.0848,-25.9514 1548.521,-19.5419 1537.9291,-19.2916 1540.0848,-25.9514"/>
</g>
<!-- Node19 -->
<g id="node20" class="node">
<title>Node19</title>
<g id="a_node20"><a xlink:href="spec_2packet__io__stats_8h.html" target="_top" xlink:title="ODP Packet IO. ">
<polygon fill="#ffffff" stroke="#000000" points="1479,-56.5 1479,-86.5 1593,-86.5 1593,-56.5 1479,-56.5"/>
<text text-anchor="start" x="1487" y="-74.5" font-family="Helvetica,sans-Serif" font-size="10.00" fill="#000000">odp/api/spec/packet</text>
<text text-anchor="middle" x="1536" y="-63.5" font-family="Helvetica,sans-Serif" font-size="10.00" fill="#000000">_io_stats.h</text>
</a>
</g>
</g>
<!-- Node18&#45;&gt;Node19 -->
<g id="edge24" class="edge">
<title>Node18&#45;&gt;Node19</title>
<path fill="none" stroke="#191970" d="M1709.8509,-649.4693C1705.7032,-630.2151 1697,-585.2552 1697,-547 1697,-547 1697,-547 1697,-317.5 1697,-220.9574 1609.1121,-132.7859 1563.2069,-93.3171"/>
<polygon fill="#191970" stroke="#191970" points="1565.3192,-90.5199 1555.4204,-86.7433 1560.8035,-95.8686 1565.3192,-90.5199"/>
</g>
<!-- Node19&#45;&gt;Node4 -->
<g id="edge25" class="edge">
<title>Node19&#45;&gt;Node4</title>
<path fill="none" stroke="#191970" d="M1478.87,-57.5034C1475.8785,-56.9522 1472.9086,-56.4457 1470,-56 1270.6072,-25.4428 1032.2059,-15.0191 915.8837,-11.5938"/>
<polygon fill="#191970" stroke="#191970" points="915.7855,-8.0896 905.6896,-11.3024 915.5855,-15.0868 915.7855,-8.0896"/>
</g>
<!-- Node19&#45;&gt;Node9 -->
<g id="edge26" class="edge">
<title>Node19&#45;&gt;Node9</title>
<path fill="none" stroke="#191970" d="M1546.382,-56.2977C1552.1513,-47.8498 1559.3716,-37.2773 1565.4553,-28.369"/>
<polygon fill="#191970" stroke="#191970" points="1568.5259,-30.0788 1571.2753,-19.8469 1562.7453,-26.1311 1568.5259,-30.0788"/>
</g>
<!-- Node20&#45;&gt;Node1 -->
<g id="edge28" class="edge">
<title>Node20&#45;&gt;Node1</title>
<path fill="none" stroke="#191970" d="M685.1563,-655.7602C561.5809,-644.5082 231.8625,-595.5337 95,-389 57.2009,-331.9589 295.419,-285.4541 415.6612,-265.9272"/>
<polygon fill="#191970" stroke="#191970" points="416.5457,-269.3301 425.8644,-264.289 415.436,-262.4186 416.5457,-269.3301"/>
</g>
<!-- Node20&#45;&gt;Node10 -->
<g id="edge32" class="edge">
<title>Node20&#45;&gt;Node10</title>
<path fill="none" stroke="#191970" d="M725.6029,-649.2066C703.5246,-619.6536 637.0299,-528.2728 595,-445 587.3328,-429.8092 580.6271,-411.677 576.096,-398.2651"/>
<polygon fill="#191970" stroke="#191970" points="579.3911,-397.0807 572.9516,-388.6675 572.739,-399.2602 579.3911,-397.0807"/>
</g>
<!-- Node20&#45;&gt;Node14 -->
<g id="edge30" class="edge">
<title>Node20&#45;&gt;Node14</title>
<path fill="none" stroke="#191970" d="M721.9386,-649.2577C711.5278,-640.0334 695.5547,-625.7384 682,-613 597.0628,-533.1778 498.3894,-434.6722 459.737,-395.8538"/>
<polygon fill="#191970" stroke="#191970" points="461.9604,-393.126 452.4266,-388.5045 456.9975,-398.0627 461.9604,-393.126"/>
</g>
<!-- Node21 -->
<g id="node22" class="node">
<title>Node21</title>
<polygon fill="#ffffff" stroke="#bfbfbf" points="986,-369.5 986,-388.5 1096,-388.5 1096,-369.5 986,-369.5"/>
<text text-anchor="middle" x="1041" y="-376.5" font-family="Helvetica,sans-Serif" font-size="10.00" fill="#000000">odp/api/abi/event.h</text>
</g>
<!-- Node20&#45;&gt;Node21 -->
<g id="edge29" class="edge">
<title>Node20&#45;&gt;Node21</title>
<path fill="none" stroke="#191970" d="M743.6021,-649.3618C788.7696,-608.3004 965.4483,-447.6834 1022.8662,-395.4852"/>
<polygon fill="#191970" stroke="#191970" points="1025.3975,-397.9143 1030.4425,-388.5977 1020.6887,-392.7347 1025.3975,-397.9143"/>
</g>
<!-- Node22 -->
<g id="node23" class="node">
<title>Node22</title>
<polygon fill="#ffffff" stroke="#bfbfbf" points="678,-369.5 678,-388.5 788,-388.5 788,-369.5 678,-369.5"/>
<text text-anchor="middle" x="733" y="-376.5" font-family="Helvetica,sans-Serif" font-size="10.00" fill="#000000">odp/api/abi/buffer.h</text>
</g>
<!-- Node20&#45;&gt;Node22 -->
<g id="edge31" class="edge">
<title>Node20&#45;&gt;Node22</title>
<path fill="none" stroke="#191970" d="M733,-649.4116C733,-630.0538 733,-584.9167 733,-547 733,-547 733,-547 733,-491 733,-458.7116 733,-421.1872 733,-398.8048"/>
<polygon fill="#191970" stroke="#191970" points="736.5001,-398.5883 733,-388.5884 729.5001,-398.5884 736.5001,-398.5883"/>
</g>
<!-- Node23 -->
<g id="node24" class="node">
<title>Node23</title>
<g id="a_node24"><a xlink:href="api_2spec_2queue_8h.html" target="_top" xlink:title="ODP queue. ">
<polygon fill="#ffffff" stroke="#000000" points="1023,-593.5 1023,-612.5 1143,-612.5 1143,-593.5 1023,-593.5"/>
<text text-anchor="middle" x="1083" y="-600.5" font-family="Helvetica,sans-Serif" font-size="10.00" fill="#000000">odp/api/spec/queue.h</text>
</a>
</g>
</g>
<!-- Node20&#45;&gt;Node23 -->
<g id="edge33" class="edge">
<title>Node20&#45;&gt;Node23</title>
<path fill="none" stroke="#191970" d="M780.5668,-651.3893C840.6911,-641.7694 944.6469,-625.1365 1013.6241,-614.1001"/>
<polygon fill="#191970" stroke="#191970" points="1014.2164,-617.55 1023.5379,-612.5139 1013.1105,-610.6379 1014.2164,-617.55"/>
</g>
<!-- Node23&#45;&gt;Node4 -->
<g id="edge34" class="edge">
<title>Node23&#45;&gt;Node4</title>
<path fill="none" stroke="#191970" d="M1071.4144,-593.38C1021.4985,-551.9518 826.015,-389.9128 797,-369 772.6928,-351.4804 761.5093,-353.8598 740,-333 710.3558,-304.251 688,-297.2951 688,-256 688,-256 688,-256 688,-133 688,-94.8373 697.8337,-81.7499 726,-56 743.3662,-40.1237 766.8108,-29.5026 788.2989,-22.5091"/>
<polygon fill="#191970" stroke="#191970" points="789.4633,-25.8132 798.0052,-19.5453 787.419,-19.1183 789.4633,-25.8132"/>
</g>
<!-- Node23&#45;&gt;Node9 -->
<g id="edge70" class="edge">
<title>Node23&#45;&gt;Node9</title>
<path fill="none" stroke="#191970" d="M1143.0259,-596.3301C1310.8987,-574.0273 1773,-486.1471 1773,-194.5 1773,-194.5 1773,-194.5 1773,-133 1773,-69.0549 1697.0585,-37.0186 1639.9588,-21.9685"/>
<polygon fill="#191970" stroke="#191970" points="1640.8085,-18.5733 1630.2564,-19.5242 1639.0984,-25.3612 1640.8085,-18.5733"/>
</g>
<!-- Node24 -->
<g id="node25" class="node">
<title>Node24</title>
<g id="a_node25"><a xlink:href="api_2event_8h.html" target="_top" xlink:title="ODP event. ">
<polygon fill="#ffffff" stroke="#000000" points="1037,-537.5 1037,-556.5 1129,-556.5 1129,-537.5 1037,-537.5"/>
<text text-anchor="middle" x="1083" y="-544.5" font-family="Helvetica,sans-Serif" font-size="10.00" fill="#000000">odp/api/event.h</text>
</a>
</g>
</g>
<!-- Node23&#45;&gt;Node24 -->
<g id="edge35" class="edge">
<title>Node23&#45;&gt;Node24</title>
<path fill="none" stroke="#191970" d="M1083,-593.2455C1083,-585.9382 1083,-575.6944 1083,-566.7046"/>
<polygon fill="#191970" stroke="#191970" points="1086.5001,-566.6426 1083,-556.6427 1079.5001,-566.6427 1086.5001,-566.6426"/>
</g>
<!-- Node31 -->
<g id="node32" class="node">
<title>Node31</title>
<g id="a_node32"><a xlink:href="queue__types_8h.html" target="_top" xlink:title="ODP queue types. ">
<polygon fill="#ffffff" stroke="#000000" points="1342.5,-302.5 1342.5,-332.5 1453.5,-332.5 1453.5,-302.5 1342.5,-302.5"/>
<text text-anchor="start" x="1350.5" y="-320.5" font-family="Helvetica,sans-Serif" font-size="10.00" fill="#000000">odp/api/spec/queue</text>
<text text-anchor="middle" x="1398" y="-309.5" font-family="Helvetica,sans-Serif" font-size="10.00" fill="#000000">_types.h</text>
</a>
</g>
</g>
<!-- Node23&#45;&gt;Node31 -->
<g id="edge57" class="edge">
<title>Node23&#45;&gt;Node31</title>
<path fill="none" stroke="#191970" d="M1143.3625,-594.1387C1234.828,-578.9895 1398,-544.4707 1398,-491 1398,-491 1398,-491 1398,-435 1398,-403.3014 1398,-366.7926 1398,-342.9922"/>
<polygon fill="#191970" stroke="#191970" points="1401.5001,-342.7101 1398,-332.7101 1394.5001,-342.7102 1401.5001,-342.7101"/>
</g>
<!-- Node24&#45;&gt;Node21 -->
<g id="edge36" class="edge">
<title>Node24&#45;&gt;Node21</title>
<path fill="none" stroke="#191970" d="M1076.3415,-537.2434C1070.536,-528.241 1062.3784,-514.2952 1058,-501 1046.5661,-466.2806 1042.822,-423.5356 1041.5963,-398.9607"/>
<polygon fill="#191970" stroke="#191970" points="1045.0849,-398.6062 1041.1829,-388.7561 1038.0906,-398.8897 1045.0849,-398.6062"/>
</g>
<!-- Node25 -->
<g id="node26" class="node">
<title>Node25</title>
<g id="a_node26"><a xlink:href="api_2spec_2event_8h.html" target="_top" xlink:title="ODP event. ">
<polygon fill="#ffffff" stroke="#000000" points="1067,-481.5 1067,-500.5 1185,-500.5 1185,-481.5 1067,-481.5"/>
<text text-anchor="middle" x="1126" y="-488.5" font-family="Helvetica,sans-Serif" font-size="10.00" fill="#000000">odp/api/spec/event.h</text>
</a>
</g>
</g>
<!-- Node24&#45;&gt;Node25 -->
<g id="edge37" class="edge">
<title>Node24&#45;&gt;Node25</title>
<path fill="none" stroke="#191970" d="M1090.49,-537.2455C1096.5326,-529.3761 1105.1903,-518.101 1112.4441,-508.6542"/>
<polygon fill="#191970" stroke="#191970" points="1115.2815,-510.7058 1118.5958,-500.6427 1109.7295,-506.4426 1115.2815,-510.7058"/>
</g>
<!-- Node25&#45;&gt;Node4 -->
<g id="edge38" class="edge">
<title>Node25&#45;&gt;Node4</title>
<path fill="none" stroke="#191970" d="M1127.6945,-481.3887C1131.1563,-458.3073 1136.2792,-399.4153 1105,-369 1024.2031,-290.4348 953.7897,-385.3704 854,-333 818.0755,-314.1465 806.797,-303.7766 792,-266 783.1394,-243.3789 739.5132,-241.3596 811,-56 815.0313,-45.5472 822.1122,-35.3741 828.7721,-27.264"/>
<polygon fill="#191970" stroke="#191970" points="831.4882,-29.4744 835.4145,-19.634 826.2086,-24.8782 831.4882,-29.4744"/>
</g>
<!-- Node25&#45;&gt;Node9 -->
<g id="edge56" class="edge">
<title>Node25&#45;&gt;Node9</title>
<path fill="none" stroke="#191970" d="M1163.6361,-481.4565C1296.4118,-446.703 1735,-322.2367 1735,-194.5 1735,-194.5 1735,-194.5 1735,-133 1735,-74.8125 1667.348,-40.0162 1620.862,-22.9748"/>
<polygon fill="#191970" stroke="#191970" points="1621.8905,-19.6263 1611.2957,-19.6058 1619.5652,-26.2289 1621.8905,-19.6263"/>
</g>
<!-- Node25&#45;&gt;Node26 -->
<g id="edge39" class="edge">
<title>Node25&#45;&gt;Node26</title>
<path fill="none" stroke="#191970" d="M1066.5732,-483.9643C975.6666,-473.2015 803.0874,-452.7693 712.273,-442.0175"/>
<polygon fill="#191970" stroke="#191970" points="712.4891,-438.5187 702.1469,-440.8187 711.666,-445.4702 712.4891,-438.5187"/>
</g>
<!-- Node26&#45;&gt;Node1 -->
<g id="edge40" class="edge">
<title>Node26&#45;&gt;Node1</title>
<path fill="none" stroke="#191970" d="M651.6055,-425.2192C649.268,-411.5569 643.5241,-386.4745 631,-369 598.7592,-324.0153 543.3856,-288.8339 509.9844,-270.3474"/>
<polygon fill="#191970" stroke="#191970" points="511.6439,-267.2658 501.1838,-265.5817 508.3106,-273.4212 511.6439,-267.2658"/>
</g>
<!-- Node26&#45;&gt;Node10 -->
<g id="edge46" class="edge">
<title>Node26&#45;&gt;Node10</title>
<path fill="none" stroke="#191970" d="M638.5425,-425.2455C625.9268,-416.7337 607.4056,-404.2375 592.7955,-394.3801"/>
<polygon fill="#191970" stroke="#191970" points="594.5391,-391.3343 584.2918,-388.6427 590.6239,-397.1371 594.5391,-391.3343"/>
</g>
<!-- Node26&#45;&gt;Node12 -->
<g id="edge43" class="edge">
<title>Node26&#45;&gt;Node12</title>
<path fill="none" stroke="#191970" d="M603.9582,-430.324C526.7675,-422.8226 371.9651,-407.2079 230.2635,-389.1214"/>
<polygon fill="#191970" stroke="#191970" points="230.4491,-385.6166 220.0848,-387.8149 229.5579,-392.5596 230.4491,-385.6166"/>
</g>
<!-- Node26&#45;&gt;Node13 -->
<g id="edge42" class="edge">
<title>Node26&#45;&gt;Node13</title>
<path fill="none" stroke="#191970" d="M603.9655,-427.1545C543.7493,-417.5199 441.2041,-401.1127 372.7847,-390.1656"/>
<polygon fill="#191970" stroke="#191970" points="372.9554,-386.6484 362.528,-388.5245 371.8494,-393.5605 372.9554,-386.6484"/>
</g>
<!-- Node26&#45;&gt;Node14 -->
<g id="edge44" class="edge">
<title>Node26&#45;&gt;Node14</title>
<path fill="none" stroke="#191970" d="M616.8997,-425.3733C581.3752,-415.9001 527.012,-401.4032 488.5381,-391.1435"/>
<polygon fill="#191970" stroke="#191970" points="489.1934,-387.696 478.6292,-388.5011 487.3897,-394.4596 489.1934,-387.696"/>
</g>
<!-- Node26&#45;&gt;Node21 -->
<g id="edge41" class="edge">
<title>Node26&#45;&gt;Node21</title>
<path fill="none" stroke="#191970" d="M702.158,-428.2384C763.685,-419.727 872.5716,-404.5051 975.8719,-389.1532"/>
<polygon fill="#191970" stroke="#191970" points="976.4741,-392.6022 985.8495,-387.6673 975.443,-385.6785 976.4741,-392.6022"/>
</g>
<!-- Node26&#45;&gt;Node22 -->
<g id="edge45" class="edge">
<title>Node26&#45;&gt;Node22</title>
<path fill="none" stroke="#191970" d="M666.9349,-425.2455C679.0947,-416.7337 696.9464,-404.2375 711.0285,-394.3801"/>
<polygon fill="#191970" stroke="#191970" points="713.0395,-397.2447 719.2248,-388.6427 709.0253,-391.51 713.0395,-397.2447"/>
</g>
<!-- Node27 -->
<g id="node28" class="node">
<title>Node27</title>
<g id="a_node28"><a xlink:href="api_2spec_2packet_8h.html" target="_top" xlink:title="ODP packet descriptor. ">
<polygon fill="#ffffff" stroke="#000000" points="844.5,-369.5 844.5,-388.5 967.5,-388.5 967.5,-369.5 844.5,-369.5"/>
<text text-anchor="middle" x="906" y="-376.5" font-family="Helvetica,sans-Serif" font-size="10.00" fill="#000000">odp/api/spec/packet.h</text>
</a>
</g>
</g>
<!-- Node26&#45;&gt;Node27 -->
<g id="edge47" class="edge">
<title>Node26&#45;&gt;Node27</title>
<path fill="none" stroke="#191970" d="M696.2048,-425.4369C739.5947,-415.8328 806.5209,-401.0191 853.0726,-390.7152"/>
<polygon fill="#191970" stroke="#191970" points="853.9662,-394.1022 862.9734,-388.5237 852.4533,-387.2676 853.9662,-394.1022"/>
</g>
<!-- Node27&#45;&gt;Node4 -->
<g id="edge48" class="edge">
<title>Node27&#45;&gt;Node4</title>
<path fill="none" stroke="#191970" d="M862.427,-369.4961C809.1555,-355.013 726,-321.8576 726,-256 726,-256 726,-256 726,-133 726,-97.154 726.6071,-83.1608 750,-56 763.0163,-40.8872 782.1374,-30.31 799.8193,-23.1436"/>
<polygon fill="#191970" stroke="#191970" points="801.3291,-26.3146 809.4466,-19.506 798.8549,-19.7665 801.3291,-26.3146"/>
</g>
<!-- Node27&#45;&gt;Node9 -->
<g id="edge55" class="edge">
<title>Node27&#45;&gt;Node9</title>
<path fill="none" stroke="#191970" d="M967.5427,-370.0788C970.7388,-369.6948 973.9058,-369.3321 977,-369 1192.3547,-345.8836 1251.5299,-379.823 1463,-333 1483.5312,-328.454 1628.049,-283.3024 1640,-266 1652.2759,-248.2272 1744.8698,-284.3444 1633,-56 1626.8204,-43.3865 1615.4033,-32.9556 1604.5661,-25.2337"/>
<polygon fill="#191970" stroke="#191970" points="1606.38,-22.237 1596.1105,-19.6318 1602.5139,-28.0726 1606.38,-22.237"/>
</g>
<!-- Node27&#45;&gt;Node28 -->
<g id="edge49" class="edge">
<title>Node27&#45;&gt;Node28</title>
<path fill="none" stroke="#191970" d="M906,-369.3906C906,-360.8657 906,-348.1392 906,-337.4235"/>
<polygon fill="#191970" stroke="#191970" points="909.5001,-337.2448 906,-327.2449 902.5001,-337.2449 909.5001,-337.2448"/>
</g>
<!-- Node28&#45;&gt;Node1 -->
<g id="edge50" class="edge">
<title>Node28&#45;&gt;Node1</title>
<path fill="none" stroke="#191970" d="M862.2215,-311.1501C787.731,-300.3454 635.9066,-278.3237 548.3213,-265.6197"/>
<polygon fill="#191970" stroke="#191970" points="548.6275,-262.1276 538.2287,-264.1558 547.6227,-269.0551 548.6275,-262.1276"/>
</g>
<!-- Node29 -->
<g id="node30" class="node">
<title>Node29</title>
<polygon fill="#ffffff" stroke="#bfbfbf" points="800.5,-246.5 800.5,-265.5 905.5,-265.5 905.5,-246.5 800.5,-246.5"/>
<text text-anchor="middle" x="853" y="-253.5" font-family="Helvetica,sans-Serif" font-size="10.00" fill="#000000">odp/api/abi/time.h</text>
</g>
<!-- Node28&#45;&gt;Node29 -->
<g id="edge51" class="edge">
<title>Node28&#45;&gt;Node29</title>
<path fill="none" stroke="#191970" d="M897.7188,-307.8906C889.8307,-298.7376 877.7686,-284.7409 868.1588,-273.59"/>
<polygon fill="#191970" stroke="#191970" points="870.5775,-271.0352 861.398,-265.7449 865.2749,-275.6049 870.5775,-271.0352"/>
</g>
<!-- Node30 -->
<g id="node31" class="node">
<title>Node30</title>
<g id="a_node31"><a xlink:href="api_2spec_2time_8h.html" target="_top" xlink:title="ODP time. ">
<polygon fill="#ffffff" stroke="#000000" points="1000.5,-62 1000.5,-81 1113.5,-81 1113.5,-62 1000.5,-62"/>
<text text-anchor="middle" x="1057" y="-69" font-family="Helvetica,sans-Serif" font-size="10.00" fill="#000000">odp/api/spec/time.h</text>
</a>
</g>
</g>
<!-- Node28&#45;&gt;Node30 -->
<g id="edge52" class="edge">
<title>Node28&#45;&gt;Node30</title>
<path fill="none" stroke="#191970" d="M911.9194,-307.8565C934.565,-270.9636 1015.9319,-138.4057 1045.8554,-89.6561"/>
<polygon fill="#191970" stroke="#191970" points="1048.8731,-91.4303 1051.1215,-81.0768 1042.9073,-87.7684 1048.8731,-91.4303"/>
</g>
<!-- Node30&#45;&gt;Node4 -->
<g id="edge53" class="edge">
<title>Node30&#45;&gt;Node4</title>
<path fill="none" stroke="#191970" d="M1023.875,-61.8906C987.1589,-51.2395 927.8336,-34.0296 887.6662,-22.3772"/>
<polygon fill="#191970" stroke="#191970" points="888.4716,-18.9666 877.8924,-19.5419 886.5213,-25.6895 888.4716,-18.9666"/>
</g>
<!-- Node30&#45;&gt;Node9 -->
<g id="edge54" class="edge">
<title>Node30&#45;&gt;Node9</title>
<path fill="none" stroke="#191970" d="M1093.8303,-61.9586C1103.2882,-59.7545 1113.4808,-57.5921 1123,-56 1260.0927,-33.0718 1422.4686,-19.9904 1511.4338,-14.0108"/>
<polygon fill="#191970" stroke="#191970" points="1511.9032,-17.4875 1521.6498,-13.3338 1511.4402,-10.5028 1511.9032,-17.4875"/>
</g>
<!-- Node31&#45;&gt;Node4 -->
<g id="edge58" class="edge">
<title>Node31&#45;&gt;Node4</title>
<path fill="none" stroke="#191970" d="M1342.3759,-314.7049C1222.5614,-305.325 941.235,-264.5053 821,-87 808.8086,-69.0017 820.2307,-44.5146 831.1094,-28.0283"/>
<polygon fill="#191970" stroke="#191970" points="834.0238,-29.9689 836.9437,-19.7843 828.3099,-25.9251 834.0238,-29.9689"/>
</g>
<!-- Node31&#45;&gt;Node9 -->
<g id="edge69" class="edge">
<title>Node31&#45;&gt;Node9</title>
<path fill="none" stroke="#191970" d="M1421.8201,-302.3811C1470.2856,-269.9833 1579.0717,-188.4925 1618,-87 1622.9341,-74.136 1622.8261,-68.9049 1618,-56 1613.8851,-44.9969 1605.8185,-34.8874 1598.0006,-26.9652"/>
<polygon fill="#191970" stroke="#191970" points="1600.0985,-24.1329 1590.4212,-19.82 1595.2968,-29.2264 1600.0985,-24.1329"/>
</g>
<!-- Node31&#45;&gt;Node16 -->
<g id="edge68" class="edge">
<title>Node31&#45;&gt;Node16</title>
<path fill="none" stroke="#191970" d="M1440.3206,-302.4554C1469.1861,-292.194 1507.0239,-278.7429 1534.5516,-268.9571"/>
<polygon fill="#191970" stroke="#191970" points="1535.9412,-272.1778 1544.1911,-265.5303 1533.5964,-265.5821 1535.9412,-272.1778"/>
</g>
<!-- Node32 -->
<g id="node33" class="node">
<title>Node32</title>
<g id="a_node33"><a xlink:href="api_2schedule__types_8h.html" target="_top" xlink:title="ODP schedule. ">
<polygon fill="#ffffff" stroke="#000000" points="1308,-246.5 1308,-265.5 1448,-265.5 1448,-246.5 1308,-246.5"/>
<text text-anchor="middle" x="1378" y="-253.5" font-family="Helvetica,sans-Serif" font-size="10.00" fill="#000000">odp/api/schedule_types.h</text>
</a>
</g>
</g>
<!-- Node31&#45;&gt;Node32 -->
<g id="edge59" class="edge">
<title>Node31&#45;&gt;Node32</title>
<path fill="none" stroke="#191970" d="M1393.0562,-302.2977C1390.4246,-294.2055 1387.159,-284.1639 1384.3424,-275.5029"/>
<polygon fill="#191970" stroke="#191970" points="1387.6234,-274.2743 1381.2023,-265.8469 1380.9665,-276.4391 1387.6234,-274.2743"/>
</g>
<!-- Node33 -->
<g id="node34" class="node">
<title>Node33</title>
<polygon fill="#ffffff" stroke="#bfbfbf" points="1319.5,-179.5 1319.5,-209.5 1436.5,-209.5 1436.5,-179.5 1319.5,-179.5"/>
<text text-anchor="start" x="1327.5" y="-197.5" font-family="Helvetica,sans-Serif" font-size="10.00" fill="#000000">odp/api/abi/schedule</text>
<text text-anchor="middle" x="1378" y="-186.5" font-family="Helvetica,sans-Serif" font-size="10.00" fill="#000000">_types.h</text>
</g>
<!-- Node32&#45;&gt;Node33 -->
<g id="edge60" class="edge">
<title>Node32&#45;&gt;Node33</title>
<path fill="none" stroke="#191970" d="M1378,-246.3906C1378,-239.2234 1378,-229.0862 1378,-219.671"/>
<polygon fill="#191970" stroke="#191970" points="1381.5001,-219.5446 1378,-209.5446 1374.5001,-219.5446 1381.5001,-219.5446"/>
</g>
<!-- Node34 -->
<g id="node35" class="node">
<title>Node34</title>
<g id="a_node35"><a xlink:href="api_2spec_2schedule__types_8h.html" target="_top" xlink:title="ODP schedule types. ">
<polygon fill="#ffffff" stroke="#000000" points="1151.5,-179.5 1151.5,-209.5 1276.5,-209.5 1276.5,-179.5 1151.5,-179.5"/>
<text text-anchor="start" x="1159.5" y="-197.5" font-family="Helvetica,sans-Serif" font-size="10.00" fill="#000000">odp/api/spec/schedule</text>
<text text-anchor="middle" x="1214" y="-186.5" font-family="Helvetica,sans-Serif" font-size="10.00" fill="#000000">_types.h</text>
</a>
</g>
</g>
<!-- Node32&#45;&gt;Node34 -->
<g id="edge61" class="edge">
<title>Node32&#45;&gt;Node34</title>
<path fill="none" stroke="#191970" d="M1352.375,-246.3906C1328.741,-237.5279 1292.9972,-224.1239 1263.7584,-213.1594"/>
<polygon fill="#191970" stroke="#191970" points="1264.7112,-209.7787 1254.1189,-209.5446 1262.2533,-216.333 1264.7112,-209.7787"/>
</g>
<!-- Node34&#45;&gt;Node4 -->
<g id="edge62" class="edge">
<title>Node34&#45;&gt;Node4</title>
<path fill="none" stroke="#191970" d="M1176.5374,-179.3744C1131.3045,-160.4394 1053.6292,-125.7485 992,-87 973.2551,-75.2144 972.024,-67.3295 953,-56 930.6788,-42.707 903.8079,-31.2465 882.4532,-23.0896"/>
<polygon fill="#191970" stroke="#191970" points="883.6583,-19.8036 873.0658,-19.5796 881.2067,-26.3603 883.6583,-19.8036"/>
</g>
<!-- Node34&#45;&gt;Node9 -->
<g id="edge67" class="edge">
<title>Node34&#45;&gt;Node9</title>
<path fill="none" stroke="#191970" d="M1276.5404,-181.4883C1381.1185,-159.11 1582.0585,-113.2177 1602,-87 1615.1604,-69.6976 1603.532,-45.0624 1592.3409,-28.3516"/>
<polygon fill="#191970" stroke="#191970" points="1595.0049,-26.0609 1586.3288,-19.9801 1589.3192,-30.1442 1595.0049,-26.0609"/>
</g>
<!-- Node35 -->
<g id="node36" class="node">
<title>Node35</title>
<g id="a_node36"><a xlink:href="support_8h.html" target="_top" xlink:title="ODP support API &#45; platform specific header. ">
<polygon fill="#ffffff" stroke="#000000" points="1150.5,-123.5 1150.5,-142.5 1251.5,-142.5 1251.5,-123.5 1150.5,-123.5"/>
<text text-anchor="middle" x="1201" y="-130.5" font-family="Helvetica,sans-Serif" font-size="10.00" fill="#000000">odp/api/support.h</text>
</a>
</g>
</g>
<!-- Node34&#45;&gt;Node35 -->
<g id="edge63" class="edge">
<title>Node34&#45;&gt;Node35</title>
<path fill="none" stroke="#191970" d="M1210.7865,-179.2977C1209.0948,-171.2945 1206.9999,-161.3843 1205.183,-152.7889"/>
<polygon fill="#191970" stroke="#191970" points="1208.574,-151.9069 1203.0815,-142.8469 1201.7253,-153.3546 1208.574,-151.9069"/>
</g>
<!-- Node36 -->
<g id="node37" class="node">
<title>Node36</title>
<g id="a_node37"><a xlink:href="spec_2support_8h.html" target="_top" xlink:title="ODP support API. ">
<polygon fill="#ffffff" stroke="#000000" points="1131.5,-62 1131.5,-81 1258.5,-81 1258.5,-62 1131.5,-62"/>
<text text-anchor="middle" x="1195" y="-69" font-family="Helvetica,sans-Serif" font-size="10.00" fill="#000000">odp/api/spec/support.h</text>
</a>
</g>
</g>
<!-- Node35&#45;&gt;Node36 -->
<g id="edge64" class="edge">
<title>Node35&#45;&gt;Node36</title>
<path fill="none" stroke="#191970" d="M1200.0625,-123.3906C1199.2308,-114.8657 1197.9892,-102.1392 1196.9438,-91.4235"/>
<polygon fill="#191970" stroke="#191970" points="1200.4053,-90.8577 1195.9507,-81.2449 1193.4383,-91.5375 1200.4053,-90.8577"/>
</g>
<!-- Node36&#45;&gt;Node4 -->
<g id="edge65" class="edge">
<title>Node36&#45;&gt;Node4</title>
<path fill="none" stroke="#191970" d="M1152.4281,-61.981C1142.7703,-59.9202 1132.5464,-57.8163 1123,-56 1052.7615,-42.6365 972.1117,-29.5385 915.8319,-20.7586"/>
<polygon fill="#191970" stroke="#191970" points="916.0338,-17.248 905.6148,-19.1703 914.9585,-24.1649 916.0338,-17.248"/>
</g>
<!-- Node36&#45;&gt;Node9 -->
<g id="edge66" class="edge">
<title>Node36&#45;&gt;Node9</title>
<path fill="none" stroke="#191970" d="M1241.1277,-61.965C1251.5899,-59.905 1262.6636,-57.8055 1273,-56 1355.0753,-41.6638 1450.0464,-27.7622 1511.921,-19.0625"/>
<polygon fill="#191970" stroke="#191970" points="1512.5215,-22.5126 1521.9391,-17.6587 1511.5501,-15.5803 1512.5215,-22.5126"/>
</g>
</g>
</svg>
