<?xml version="1.0" encoding="UTF-8" standalone="no"?>
<!DOCTYPE svg PUBLIC "-//W3C//DTD SVG 1.1//EN"
 "http://www.w3.org/Graphics/SVG/1.1/DTD/svg11.dtd">
<!-- Generated by graphviz version 2.40.1 (20161225.0304)
 -->
<!-- Title: align.h Pages: 1 -->
<svg width="2670pt" height="532pt"
 viewBox="0.00 0.00 2669.50 532.00" xmlns="http://www.w3.org/2000/svg" xmlns:xlink="http://www.w3.org/1999/xlink">
<g id="graph0" class="graph" transform="scale(1 1) rotate(0) translate(4 528)">
<title>align.h</title>
<polygon fill="#ffffff" stroke="transparent" points="-4,4 -4,-528 2665.5,-528 2665.5,4 -4,4"/>
<!-- Node3 -->
<g id="node1" class="node">
<title>Node3</title>
<polygon fill="#bfbfbf" stroke="#000000" points="1633.5,-504.5 1633.5,-523.5 1683.5,-523.5 1683.5,-504.5 1633.5,-504.5"/>
<text text-anchor="middle" x="1658.5" y="-511.5" font-family="Helvetica,sans-Serif" font-size="10.00" fill="#000000">align.h</text>
</g>
<!-- Node4 -->
<g id="node2" class="node">
<title>Node4</title>
<g id="a_node2"><a xlink:href="api_2align_8h.html" target="_top" xlink:title="ODP alignments. ">
<polygon fill="#ffffff" stroke="#000000" points="1633.5,-448.5 1633.5,-467.5 1683.5,-467.5 1683.5,-448.5 1633.5,-448.5"/>
<text text-anchor="middle" x="1658.5" y="-455.5" font-family="Helvetica,sans-Serif" font-size="10.00" fill="#000000">align.h</text>
</a>
</g>
</g>
<!-- Node3&#45;&gt;Node4 -->
<g id="edge1" class="edge">
<title>Node3&#45;&gt;Node4</title>
<path fill="none" stroke="#191970" d="M1658.5,-494.1575C1658.5,-485.155 1658.5,-474.9199 1658.5,-467.6427"/>
<polygon fill="#191970" stroke="#191970" points="1655.0001,-494.2455 1658.5,-504.2455 1662.0001,-494.2456 1655.0001,-494.2455"/>
</g>
<!-- Node5 -->
<g id="node3" class="node">
<title>Node5</title>
<g id="a_node3"><a xlink:href="api_2abi-default_2atomic_8h.html" target="_top" xlink:title="ODP atomic operations. ">
<polygon fill="#ffffff" stroke="#000000" points="192,-280.5 192,-299.5 251,-299.5 251,-280.5 192,-280.5"/>
<text text-anchor="middle" x="221.5" y="-287.5" font-family="Helvetica,sans-Serif" font-size="10.00" fill="#000000">atomic.h</text>
</a>
</g>
</g>
<!-- Node4&#45;&gt;Node5 -->
<g id="edge2" class="edge">
<title>Node4&#45;&gt;Node5</title>
<path fill="none" stroke="#191970" d="M1623.3087,-455.9103C1464.2995,-446.0743 797.3375,-400.591 259.5,-300 256.8178,-299.4983 254.046,-298.9093 251.2782,-298.2725"/>
<polygon fill="#191970" stroke="#191970" points="1623.2618,-459.4139 1633.4572,-456.5321 1623.69,-452.427 1623.2618,-459.4139"/>
</g>
<!-- Node23 -->
<g id="node14" class="node">
<title>Node23</title>
<g id="a_node14"><a xlink:href="odp__api_8h.html" target="_top" xlink:title="The OpenDataPlane API. ">
<polygon fill="#ffffff" stroke="#000000" points="1716.5,-56.5 1716.5,-75.5 1780.5,-75.5 1780.5,-56.5 1716.5,-56.5"/>
<text text-anchor="middle" x="1748.5" y="-63.5" font-family="Helvetica,sans-Serif" font-size="10.00" fill="#000000">odp_api.h</text>
</a>
</g>
</g>
<!-- Node4&#45;&gt;Node23 -->
<g id="edge67" class="edge">
<title>Node4&#45;&gt;Node23</title>
<path fill="none" stroke="#191970" d="M1693.6491,-455.9604C1871.2515,-445.4281 2661.5,-395.7681 2661.5,-346 2661.5,-346 2661.5,-346 2661.5,-178 2661.5,-87.3231 1942.8445,-69.3853 1780.726,-66.4924"/>
<polygon fill="#191970" stroke="#191970" points="1693.3201,-452.4736 1683.5436,-456.5565 1693.7324,-459.4615 1693.3201,-452.4736"/>
</g>
<!-- Node52 -->
<g id="node16" class="node">
<title>Node52</title>
<g id="a_node16"><a xlink:href="api_2abi-default_2cpumask_8h.html" target="_top" xlink:title="ODP CPU masks and enumeration. ">
<polygon fill="#ffffff" stroke="#000000" points="2211.5,-280.5 2211.5,-299.5 2281.5,-299.5 2281.5,-280.5 2211.5,-280.5"/>
<text text-anchor="middle" x="2246.5" y="-287.5" font-family="Helvetica,sans-Serif" font-size="10.00" fill="#000000">cpumask.h</text>
</a>
</g>
</g>
<!-- Node4&#45;&gt;Node52 -->
<g id="edge16" class="edge">
<title>Node4&#45;&gt;Node52</title>
<path fill="none" stroke="#191970" d="M1693.5566,-447.9838C1798.5831,-417.9763 2109.7633,-329.0676 2212.8817,-299.6052"/>
<polygon fill="#191970" stroke="#191970" points="1692.4193,-444.6686 1683.7656,-450.7813 1694.3424,-451.3993 1692.4193,-444.6686"/>
</g>
<!-- Node76 -->
<g id="node26" class="node">
<title>Node76</title>
<g id="a_node26"><a xlink:href="api_2spec_2std__types_8h.html" target="_top" xlink:title="Standard C language types and definitions for ODP. ">
<polygon fill="#ffffff" stroke="#000000" points="1590,-392.5 1590,-411.5 1663,-411.5 1663,-392.5 1590,-392.5"/>
<text text-anchor="middle" x="1626.5" y="-399.5" font-family="Helvetica,sans-Serif" font-size="10.00" fill="#000000">std_types.h</text>
</a>
</g>
</g>
<!-- Node4&#45;&gt;Node76 -->
<g id="edge27" class="edge">
<title>Node4&#45;&gt;Node76</title>
<path fill="none" stroke="#191970" d="M1647.8355,-439.3372C1642.5346,-430.0605 1636.3513,-419.2398 1632.0101,-411.6427"/>
<polygon fill="#191970" stroke="#191970" points="1644.9257,-441.2996 1652.926,-448.2455 1651.0034,-437.8266 1644.9257,-441.2996"/>
</g>
<!-- Node6 -->
<g id="node4" class="node">
<title>Node6</title>
<g id="a_node4"><a xlink:href="arch_2arm32-linux_2odp_2api_2abi_2atomic_8h_source.html" target="_top" xlink:title="atomic.h">
<polygon fill="#ffffff" stroke="#000000" points="462,-224.5 462,-243.5 521,-243.5 521,-224.5 462,-224.5"/>
<text text-anchor="middle" x="491.5" y="-231.5" font-family="Helvetica,sans-Serif" font-size="10.00" fill="#000000">atomic.h</text>
</a>
</g>
</g>
<!-- Node5&#45;&gt;Node6 -->
<g id="edge3" class="edge">
<title>Node5&#45;&gt;Node6</title>
<path fill="none" stroke="#191970" d="M261.1654,-279.7393C346.3571,-260.9988 370.3808,-262.1657 452.5,-244 455.5029,-243.3357 458.6257,-242.6044 461.7384,-241.8486"/>
<polygon fill="#191970" stroke="#191970" points="260.3199,-276.3418 251.3204,-281.9329 261.8423,-283.1742 260.3199,-276.3418"/>
</g>
<!-- Node7 -->
<g id="node5" class="node">
<title>Node7</title>
<g id="a_node5"><a xlink:href="arch_2arm64-linux_2odp_2api_2abi_2atomic_8h_source.html" target="_top" xlink:title="atomic.h">
<polygon fill="#ffffff" stroke="#000000" points="0,-224.5 0,-243.5 59,-243.5 59,-224.5 0,-224.5"/>
<text text-anchor="middle" x="29.5" y="-231.5" font-family="Helvetica,sans-Serif" font-size="10.00" fill="#000000">atomic.h</text>
</a>
</g>
</g>
<!-- Node5&#45;&gt;Node7 -->
<g id="edge4" class="edge">
<title>Node5&#45;&gt;Node7</title>
<path fill="none" stroke="#191970" d="M182.106,-278.5101C145.6005,-267.8626 92.1065,-252.2602 59.1128,-242.6371"/>
<polygon fill="#191970" stroke="#191970" points="181.3407,-281.9327 191.9208,-281.3727 183.3008,-275.2127 181.3407,-281.9327"/>
</g>
<!-- Node8 -->
<g id="node6" class="node">
<title>Node8</title>
<g id="a_node6"><a xlink:href="arch_2default-linux_2odp_2api_2abi_2atomic_8h_source.html" target="_top" xlink:title="atomic.h">
<polygon fill="#ffffff" stroke="#000000" points="154,-224.5 154,-243.5 213,-243.5 213,-224.5 154,-224.5"/>
<text text-anchor="middle" x="183.5" y="-231.5" font-family="Helvetica,sans-Serif" font-size="10.00" fill="#000000">atomic.h</text>
</a>
</g>
</g>
<!-- Node5&#45;&gt;Node8 -->
<g id="edge5" class="edge">
<title>Node5&#45;&gt;Node8</title>
<path fill="none" stroke="#191970" d="M209.2321,-271.9209C202.8512,-262.5176 195.3069,-251.3997 190.0432,-243.6427"/>
<polygon fill="#191970" stroke="#191970" points="206.3697,-273.936 214.8809,-280.2455 212.162,-270.0055 206.3697,-273.936"/>
</g>
<!-- Node9 -->
<g id="node7" class="node">
<title>Node9</title>
<g id="a_node7"><a xlink:href="arch_2mips64-linux_2odp_2api_2abi_2atomic_8h_source.html" target="_top" xlink:title="atomic.h">
<polygon fill="#ffffff" stroke="#000000" points="231,-224.5 231,-243.5 290,-243.5 290,-224.5 231,-224.5"/>
<text text-anchor="middle" x="260.5" y="-231.5" font-family="Helvetica,sans-Serif" font-size="10.00" fill="#000000">atomic.h</text>
</a>
</g>
</g>
<!-- Node5&#45;&gt;Node9 -->
<g id="edge6" class="edge">
<title>Node5&#45;&gt;Node9</title>
<path fill="none" stroke="#191970" d="M234.0908,-271.9209C240.6395,-262.5176 248.3824,-251.3997 253.7846,-243.6427"/>
<polygon fill="#191970" stroke="#191970" points="231.1361,-270.0392 228.2933,-280.2455 236.8804,-274.0397 231.1361,-270.0392"/>
</g>
<!-- Node10 -->
<g id="node8" class="node">
<title>Node10</title>
<g id="a_node8"><a xlink:href="arch_2power64-linux_2odp_2api_2abi_2atomic_8h_source.html" target="_top" xlink:title="atomic.h">
<polygon fill="#ffffff" stroke="#000000" points="308,-224.5 308,-243.5 367,-243.5 367,-224.5 308,-224.5"/>
<text text-anchor="middle" x="337.5" y="-231.5" font-family="Helvetica,sans-Serif" font-size="10.00" fill="#000000">atomic.h</text>
</a>
</g>
</g>
<!-- Node5&#45;&gt;Node10 -->
<g id="edge7" class="edge">
<title>Node5&#45;&gt;Node10</title>
<path fill="none" stroke="#191970" d="M250.5537,-275.9741C271.5565,-265.8348 299.3691,-252.408 317.8191,-243.5011"/>
<polygon fill="#191970" stroke="#191970" points="248.925,-272.8738 241.4411,-280.3733 251.9683,-279.1776 248.925,-272.8738"/>
</g>
<!-- Node11 -->
<g id="node9" class="node">
<title>Node11</title>
<g id="a_node9"><a xlink:href="arch_2x86__32-linux_2odp_2api_2abi_2atomic_8h_source.html" target="_top" xlink:title="atomic.h">
<polygon fill="#ffffff" stroke="#000000" points="385,-224.5 385,-243.5 444,-243.5 444,-224.5 385,-224.5"/>
<text text-anchor="middle" x="414.5" y="-231.5" font-family="Helvetica,sans-Serif" font-size="10.00" fill="#000000">atomic.h</text>
</a>
</g>
</g>
<!-- Node5&#45;&gt;Node11 -->
<g id="edge8" class="edge">
<title>Node5&#45;&gt;Node11</title>
<path fill="none" stroke="#191970" d="M261.0992,-278.5101C297.7948,-267.8626 351.5675,-252.2602 384.7329,-242.6371"/>
<polygon fill="#191970" stroke="#191970" points="259.8618,-275.2247 251.2333,-281.3727 261.8125,-281.9474 259.8618,-275.2247"/>
</g>
<!-- Node12 -->
<g id="node10" class="node">
<title>Node12</title>
<g id="a_node10"><a xlink:href="arch_2x86__64-linux_2odp_2api_2abi_2atomic_8h_source.html" target="_top" xlink:title="atomic.h">
<polygon fill="#ffffff" stroke="#000000" points="77,-224.5 77,-243.5 136,-243.5 136,-224.5 77,-224.5"/>
<text text-anchor="middle" x="106.5" y="-231.5" font-family="Helvetica,sans-Serif" font-size="10.00" fill="#000000">atomic.h</text>
</a>
</g>
</g>
<!-- Node5&#45;&gt;Node12 -->
<g id="edge9" class="edge">
<title>Node5&#45;&gt;Node12</title>
<path fill="none" stroke="#191970" d="M192.6967,-275.9741C171.875,-265.8348 144.3022,-252.408 126.0112,-243.5011"/>
<polygon fill="#191970" stroke="#191970" points="191.2078,-279.1419 201.7308,-280.3733 194.2724,-272.8484 191.2078,-279.1419"/>
</g>
<!-- Node13 -->
<g id="node11" class="node">
<title>Node13</title>
<g id="a_node11"><a xlink:href="api_2atomic_8h.html" target="_top" xlink:title="ODP atomic operations. ">
<polygon fill="#ffffff" stroke="#ff0000" points="1325,-168.5 1325,-187.5 1384,-187.5 1384,-168.5 1325,-168.5"/>
<text text-anchor="middle" x="1354.5" y="-175.5" font-family="Helvetica,sans-Serif" font-size="10.00" fill="#000000">atomic.h</text>
</a>
</g>
</g>
<!-- Node12&#45;&gt;Node13 -->
<g id="edge10" class="edge">
<title>Node12&#45;&gt;Node13</title>
<path fill="none" stroke="#191970" d="M146.2611,-224.0676C403.0524,-188.3541 1165.0813,-179.702 1324.9054,-178.2453"/>
<polygon fill="#191970" stroke="#191970" points="145.6398,-220.621 136.2423,-225.5136 146.6397,-227.5492 145.6398,-220.621"/>
</g>
<!-- Node14 -->
<g id="node12" class="node">
<title>Node14</title>
<g id="a_node12"><a xlink:href="api_2abi-default_2barrier_8h.html" target="_top" xlink:title="ODP barrier. ">
<polygon fill="#ffffff" stroke="#ff0000" points="1440,-112.5 1440,-131.5 1497,-131.5 1497,-112.5 1440,-112.5"/>
<text text-anchor="middle" x="1468.5" y="-119.5" font-family="Helvetica,sans-Serif" font-size="10.00" fill="#000000">barrier.h</text>
</a>
</g>
</g>
<!-- Node13&#45;&gt;Node14 -->
<g id="edge11" class="edge">
<title>Node13&#45;&gt;Node14</title>
<path fill="none" stroke="#191970" d="M1383.3321,-163.8368C1403.9395,-153.7139 1431.1082,-140.3679 1449.1584,-131.5011"/>
<polygon fill="#191970" stroke="#191970" points="1381.5297,-160.8227 1374.0973,-168.3733 1384.616,-167.1056 1381.5297,-160.8227"/>
</g>
<!-- Node22 -->
<g id="node13" class="node">
<title>Node22</title>
<g id="a_node13"><a xlink:href="api_2barrier_8h.html" target="_top" xlink:title="ODP execution barriers. ">
<polygon fill="#ffffff" stroke="#000000" points="1365,-112.5 1365,-131.5 1422,-131.5 1422,-112.5 1365,-112.5"/>
<text text-anchor="middle" x="1393.5" y="-119.5" font-family="Helvetica,sans-Serif" font-size="10.00" fill="#000000">barrier.h</text>
</a>
</g>
</g>
<!-- Node13&#45;&gt;Node22 -->
<g id="edge12" class="edge">
<title>Node13&#45;&gt;Node22</title>
<path fill="none" stroke="#191970" d="M1367.0908,-159.9209C1373.6395,-150.5176 1381.3824,-139.3997 1386.7846,-131.6427"/>
<polygon fill="#191970" stroke="#191970" points="1364.1361,-158.0392 1361.2933,-168.2455 1369.8804,-162.0397 1364.1361,-158.0392"/>
</g>
<!-- Node13&#45;&gt;Node23 -->
<g id="edge15" class="edge">
<title>Node13&#45;&gt;Node23</title>
<path fill="none" stroke="#191970" d="M1348.5188,-158.0153C1345.4958,-143.4459 1344.4808,-124.1969 1355.5,-112 1379.5906,-85.3346 1626.8678,-71.5276 1716.3785,-67.3741"/>
<polygon fill="#191970" stroke="#191970" points="1345.2114,-159.213 1351.0559,-168.0501 1351.9979,-157.4972 1345.2114,-159.213"/>
</g>
<!-- Node22&#45;&gt;Node23 -->
<g id="edge13" class="edge">
<title>Node22&#45;&gt;Node23</title>
<path fill="none" stroke="#191970" d="M1431.9686,-111.8787C1541.2589,-89.7371 1660.2199,-75.4938 1716.2301,-69.3681"/>
<polygon fill="#191970" stroke="#191970" points="1431.193,-108.4648 1422.1015,-113.905 1432.6012,-115.3217 1431.193,-108.4648"/>
</g>
<!-- Node24 -->
<g id="node15" class="node">
<title>Node24</title>
<g id="a_node15"><a xlink:href="odp_8h.html" target="_top" xlink:title="WARNING: THIS FILE IS DEPRECATED AND WILL BE REMOVED!!! ODP APPLICATIONS SHOULD NOW INCLUDE odp_api...">
<polygon fill="#ffffff" stroke="#000000" points="1726.5,-.5 1726.5,-19.5 1770.5,-19.5 1770.5,-.5 1726.5,-.5"/>
<text text-anchor="middle" x="1748.5" y="-7.5" font-family="Helvetica,sans-Serif" font-size="10.00" fill="#000000">odp.h</text>
</a>
</g>
</g>
<!-- Node23&#45;&gt;Node24 -->
<g id="edge14" class="edge">
<title>Node23&#45;&gt;Node24</title>
<path fill="none" stroke="#191970" d="M1748.5,-46.1575C1748.5,-37.155 1748.5,-26.9199 1748.5,-19.6427"/>
<polygon fill="#191970" stroke="#191970" points="1745.0001,-46.2455 1748.5,-56.2455 1752.0001,-46.2456 1745.0001,-46.2455"/>
</g>
<!-- Node53 -->
<g id="node17" class="node">
<title>Node53</title>
<g id="a_node17"><a xlink:href="arch_2arm32-linux_2odp_2api_2abi_2cpumask_8h_source.html" target="_top" xlink:title="cpumask.h">
<polygon fill="#ffffff" stroke="#000000" points="2475.5,-224.5 2475.5,-243.5 2545.5,-243.5 2545.5,-224.5 2475.5,-224.5"/>
<text text-anchor="middle" x="2510.5" y="-231.5" font-family="Helvetica,sans-Serif" font-size="10.00" fill="#000000">cpumask.h</text>
</a>
</g>
</g>
<!-- Node52&#45;&gt;Node53 -->
<g id="edge17" class="edge">
<title>Node52&#45;&gt;Node53</title>
<path fill="none" stroke="#191970" d="M2291.5125,-280.8264C2336.0128,-271.7011 2406.0196,-257.1947 2466.5,-244 2469.4084,-243.3655 2472.4228,-242.699 2475.4478,-242.024"/>
<polygon fill="#191970" stroke="#191970" points="2290.6888,-277.4224 2281.5944,-282.8577 2292.0933,-284.28 2290.6888,-277.4224"/>
</g>
<!-- Node54 -->
<g id="node18" class="node">
<title>Node54</title>
<g id="a_node18"><a xlink:href="arch_2arm64-linux_2odp_2api_2abi_2cpumask_8h_source.html" target="_top" xlink:title="cpumask.h">
<polygon fill="#ffffff" stroke="#000000" points="2563.5,-224.5 2563.5,-243.5 2633.5,-243.5 2633.5,-224.5 2563.5,-224.5"/>
<text text-anchor="middle" x="2598.5" y="-231.5" font-family="Helvetica,sans-Serif" font-size="10.00" fill="#000000">cpumask.h</text>
</a>
</g>
</g>
<!-- Node52&#45;&gt;Node54 -->
<g id="edge18" class="edge">
<title>Node52&#45;&gt;Node54</title>
<path fill="none" stroke="#191970" d="M2291.6857,-284.3342C2351.8766,-276.54 2461.5776,-261.4728 2554.5,-244 2557.4255,-243.4499 2560.452,-242.8428 2563.4851,-242.2077"/>
<polygon fill="#191970" stroke="#191970" points="2291.2207,-280.8651 2281.7493,-285.613 2292.1143,-287.8079 2291.2207,-280.8651"/>
</g>
<!-- Node55 -->
<g id="node19" class="node">
<title>Node55</title>
<g id="a_node19"><a xlink:href="arch_2default-linux_2odp_2api_2abi_2cpumask_8h_source.html" target="_top" xlink:title="cpumask.h">
<polygon fill="#ffffff" stroke="#000000" points="2123.5,-224.5 2123.5,-243.5 2193.5,-243.5 2193.5,-224.5 2123.5,-224.5"/>
<text text-anchor="middle" x="2158.5" y="-231.5" font-family="Helvetica,sans-Serif" font-size="10.00" fill="#000000">cpumask.h</text>
</a>
</g>
</g>
<!-- Node52&#45;&gt;Node55 -->
<g id="edge19" class="edge">
<title>Node52&#45;&gt;Node55</title>
<path fill="none" stroke="#191970" d="M2222.5655,-274.769C2206.9717,-264.8456 2187.099,-252.1994 2173.6528,-243.6427"/>
<polygon fill="#191970" stroke="#191970" points="2220.8559,-277.8296 2231.1716,-280.2455 2224.614,-271.9239 2220.8559,-277.8296"/>
</g>
<!-- Node56 -->
<g id="node20" class="node">
<title>Node56</title>
<g id="a_node20"><a xlink:href="arch_2mips64-linux_2odp_2api_2abi_2cpumask_8h_source.html" target="_top" xlink:title="cpumask.h">
<polygon fill="#ffffff" stroke="#000000" points="2211.5,-224.5 2211.5,-243.5 2281.5,-243.5 2281.5,-224.5 2211.5,-224.5"/>
<text text-anchor="middle" x="2246.5" y="-231.5" font-family="Helvetica,sans-Serif" font-size="10.00" fill="#000000">cpumask.h</text>
</a>
</g>
</g>
<!-- Node52&#45;&gt;Node56 -->
<g id="edge20" class="edge">
<title>Node52&#45;&gt;Node56</title>
<path fill="none" stroke="#191970" d="M2246.5,-270.1575C2246.5,-261.155 2246.5,-250.9199 2246.5,-243.6427"/>
<polygon fill="#191970" stroke="#191970" points="2243.0001,-270.2455 2246.5,-280.2455 2250.0001,-270.2456 2243.0001,-270.2455"/>
</g>
<!-- Node57 -->
<g id="node21" class="node">
<title>Node57</title>
<g id="a_node21"><a xlink:href="arch_2power64-linux_2odp_2api_2abi_2cpumask_8h_source.html" target="_top" xlink:title="cpumask.h">
<polygon fill="#ffffff" stroke="#000000" points="2299.5,-224.5 2299.5,-243.5 2369.5,-243.5 2369.5,-224.5 2299.5,-224.5"/>
<text text-anchor="middle" x="2334.5" y="-231.5" font-family="Helvetica,sans-Serif" font-size="10.00" fill="#000000">cpumask.h</text>
</a>
</g>
</g>
<!-- Node52&#45;&gt;Node57 -->
<g id="edge21" class="edge">
<title>Node52&#45;&gt;Node57</title>
<path fill="none" stroke="#191970" d="M2270.4345,-274.769C2286.0283,-264.8456 2305.901,-252.1994 2319.3472,-243.6427"/>
<polygon fill="#191970" stroke="#191970" points="2268.386,-271.9239 2261.8284,-280.2455 2272.1441,-277.8296 2268.386,-271.9239"/>
</g>
<!-- Node58 -->
<g id="node22" class="node">
<title>Node58</title>
<g id="a_node22"><a xlink:href="arch_2x86__32-linux_2odp_2api_2abi_2cpumask_8h_source.html" target="_top" xlink:title="cpumask.h">
<polygon fill="#ffffff" stroke="#000000" points="2387.5,-224.5 2387.5,-243.5 2457.5,-243.5 2457.5,-224.5 2387.5,-224.5"/>
<text text-anchor="middle" x="2422.5" y="-231.5" font-family="Helvetica,sans-Serif" font-size="10.00" fill="#000000">cpumask.h</text>
</a>
</g>
</g>
<!-- Node52&#45;&gt;Node58 -->
<g id="edge22" class="edge">
<title>Node52&#45;&gt;Node58</title>
<path fill="none" stroke="#191970" d="M2286.3404,-277.3235C2318.6173,-267.0536 2363.3852,-252.8093 2392.6393,-243.5011"/>
<polygon fill="#191970" stroke="#191970" points="2285.2235,-274.0059 2276.7555,-280.3733 2287.346,-280.6764 2285.2235,-274.0059"/>
</g>
<!-- Node59 -->
<g id="node23" class="node">
<title>Node59</title>
<g id="a_node23"><a xlink:href="arch_2x86__64-linux_2odp_2api_2abi_2cpumask_8h_source.html" target="_top" xlink:title="cpumask.h">
<polygon fill="#ffffff" stroke="#000000" points="2035.5,-224.5 2035.5,-243.5 2105.5,-243.5 2105.5,-224.5 2035.5,-224.5"/>
<text text-anchor="middle" x="2070.5" y="-231.5" font-family="Helvetica,sans-Serif" font-size="10.00" fill="#000000">cpumask.h</text>
</a>
</g>
</g>
<!-- Node52&#45;&gt;Node59 -->
<g id="edge23" class="edge">
<title>Node52&#45;&gt;Node59</title>
<path fill="none" stroke="#191970" d="M2206.6596,-277.3235C2174.3827,-267.0536 2129.6148,-252.8093 2100.3607,-243.5011"/>
<polygon fill="#191970" stroke="#191970" points="2205.654,-280.6764 2216.2445,-280.3733 2207.7765,-274.0059 2205.654,-280.6764"/>
</g>
<!-- Node60 -->
<g id="node24" class="node">
<title>Node60</title>
<g id="a_node24"><a xlink:href="api_2cpumask_8h.html" target="_top" xlink:title="ODP CPU masks and enumeration. ">
<polygon fill="#ffffff" stroke="#ff0000" points="2035.5,-168.5 2035.5,-187.5 2105.5,-187.5 2105.5,-168.5 2035.5,-168.5"/>
<text text-anchor="middle" x="2070.5" y="-175.5" font-family="Helvetica,sans-Serif" font-size="10.00" fill="#000000">cpumask.h</text>
</a>
</g>
</g>
<!-- Node59&#45;&gt;Node60 -->
<g id="edge24" class="edge">
<title>Node59&#45;&gt;Node60</title>
<path fill="none" stroke="#191970" d="M2070.5,-214.1575C2070.5,-205.155 2070.5,-194.9199 2070.5,-187.6427"/>
<polygon fill="#191970" stroke="#191970" points="2067.0001,-214.2455 2070.5,-224.2455 2074.0001,-214.2456 2067.0001,-214.2455"/>
</g>
<!-- Node60&#45;&gt;Node23 -->
<g id="edge26" class="edge">
<title>Node60&#45;&gt;Node23</title>
<path fill="none" stroke="#191970" d="M2061.5276,-158.9598C2053.3115,-143.724 2039.6691,-123.1282 2021.5,-112 1981.5376,-87.5238 1844.0566,-73.6456 1780.8073,-68.4216"/>
<polygon fill="#191970" stroke="#191970" points="2058.4907,-160.7098 2066.1362,-168.0445 2064.7334,-157.5429 2058.4907,-160.7098"/>
</g>
<!-- Node72 -->
<g id="node25" class="node">
<title>Node72</title>
<g id="a_node25"><a xlink:href="api_2spec_2init_8h.html" target="_top" xlink:title="init.h">
<polygon fill="#ffffff" stroke="#ff0000" points="1938,-112.5 1938,-131.5 1979,-131.5 1979,-112.5 1938,-112.5"/>
<text text-anchor="middle" x="1958.5" y="-119.5" font-family="Helvetica,sans-Serif" font-size="10.00" fill="#000000">init.h</text>
</a>
</g>
</g>
<!-- Node60&#45;&gt;Node72 -->
<g id="edge25" class="edge">
<title>Node60&#45;&gt;Node72</title>
<path fill="none" stroke="#191970" d="M2042.1737,-163.8368C2021.9279,-153.7139 1995.2358,-140.3679 1977.5022,-131.5011"/>
<polygon fill="#191970" stroke="#191970" points="2040.737,-167.0316 2051.2465,-168.3733 2043.8675,-160.7706 2040.737,-167.0316"/>
</g>
<!-- Node77 -->
<g id="node27" class="node">
<title>Node77</title>
<g id="a_node27"><a xlink:href="api_2std__types_8h.html" target="_top" xlink:title="Standard C language types and definitions for ODP. ">
<polygon fill="#ffffff" stroke="#ff0000" points="1395,-336.5 1395,-355.5 1468,-355.5 1468,-336.5 1395,-336.5"/>
<text text-anchor="middle" x="1431.5" y="-343.5" font-family="Helvetica,sans-Serif" font-size="10.00" fill="#000000">std_types.h</text>
</a>
</g>
</g>
<!-- Node76&#45;&gt;Node77 -->
<g id="edge28" class="edge">
<title>Node76&#45;&gt;Node77</title>
<path fill="none" stroke="#191970" d="M1583.2804,-389.5882C1547.4538,-379.2996 1497.2759,-364.8895 1464.5843,-355.5011"/>
<polygon fill="#191970" stroke="#191970" points="1582.4007,-392.977 1592.9783,-392.3733 1584.3329,-386.2489 1582.4007,-392.977"/>
</g>
<!-- Node77&#45;&gt;Node5 -->
<g id="edge29" class="edge">
<title>Node77&#45;&gt;Node5</title>
<path fill="none" stroke="#191970" d="M1384.7467,-345.5253C1195.0344,-343.3889 482.2355,-333.2706 259.5,-300 256.8012,-299.5969 254.0181,-299.0756 251.2428,-298.4829"/>
<polygon fill="#191970" stroke="#191970" points="1384.9006,-349.0271 1394.9388,-345.638 1384.9781,-342.0275 1384.9006,-349.0271"/>
</g>
<!-- Node77&#45;&gt;Node14 -->
<g id="edge30" class="edge">
<title>Node77&#45;&gt;Node14</title>
<path fill="none" stroke="#191970" d="M1454.2482,-329.757C1463.2863,-321.9119 1472.6688,-311.6637 1477.5,-300 1502.2479,-240.2533 1480.5884,-159.4214 1471.8012,-131.7547"/>
<polygon fill="#191970" stroke="#191970" points="1451.7734,-327.2564 1446.1852,-336.2577 1456.167,-332.7058 1451.7734,-327.2564"/>
</g>
<!-- Node77&#45;&gt;Node22 -->
<g id="edge40" class="edge">
<title>Node77&#45;&gt;Node22</title>
<path fill="none" stroke="#191970" d="M1438.5372,-326.3899C1442.3831,-313.2856 1445.9166,-295.646 1443.5,-280 1434.5408,-221.9944 1408.1099,-156.1037 1397.7419,-131.7289"/>
<polygon fill="#191970" stroke="#191970" points="1435.1154,-325.5954 1435.357,-336.1875 1441.7734,-327.7567 1435.1154,-325.5954"/>
</g>
<!-- Node77&#45;&gt;Node23 -->
<g id="edge66" class="edge">
<title>Node77&#45;&gt;Node23</title>
<path fill="none" stroke="#191970" d="M1478.373,-338.9826C1530.3209,-330.5998 1610.2433,-315.7243 1636.5,-300 1669.7518,-280.0866 1693.5,-272.7585 1693.5,-234 1693.5,-234 1693.5,-234 1693.5,-178 1693.5,-136.4081 1724.4375,-94.204 1739.9063,-75.7015"/>
<polygon fill="#191970" stroke="#191970" points="1477.7071,-335.5444 1468.3806,-340.5709 1478.8061,-342.4576 1477.7071,-335.5444"/>
</g>
<!-- Node77&#45;&gt;Node52 -->
<g id="edge32" class="edge">
<title>Node77&#45;&gt;Node52</title>
<path fill="none" stroke="#191970" d="M1478.4474,-343.0052C1589.4288,-335.891 1876.662,-317.2771 2116.5,-300 2148.6731,-297.6824 2185.3088,-294.8464 2211.4702,-292.7873"/>
<polygon fill="#191970" stroke="#191970" points="1478.0208,-339.5252 1468.265,-343.6573 1478.4683,-346.5109 1478.0208,-339.5252"/>
</g>
<!-- Node77&#45;&gt;Node72 -->
<g id="edge60" class="edge">
<title>Node77&#45;&gt;Node72</title>
<path fill="none" stroke="#191970" d="M1478.347,-341.1022C1565.0871,-331.8198 1744.2938,-311.5629 1770.5,-300 1806.0067,-284.3334 1821.0645,-279.1575 1837.5,-244 1851.8244,-213.3584 1814.1483,-195.7419 1833.5,-168 1845.7376,-150.4567 1905.567,-134.2463 1937.8124,-126.604"/>
<polygon fill="#191970" stroke="#191970" points="1477.8168,-337.6388 1468.2438,-342.1784 1478.5583,-344.5994 1477.8168,-337.6388"/>
</g>
<!-- Node78 -->
<g id="node28" class="node">
<title>Node78</title>
<g id="a_node28"><a xlink:href="api_2abi-default_2byteorder_8h.html" target="_top" xlink:title="ODP byteorder. ">
<polygon fill="#ffffff" stroke="#ff0000" points="2035.5,-280.5 2035.5,-299.5 2107.5,-299.5 2107.5,-280.5 2035.5,-280.5"/>
<text text-anchor="middle" x="2071.5" y="-287.5" font-family="Helvetica,sans-Serif" font-size="10.00" fill="#000000">byteorder.h</text>
</a>
</g>
</g>
<!-- Node77&#45;&gt;Node78 -->
<g id="edge31" class="edge">
<title>Node77&#45;&gt;Node78</title>
<path fill="none" stroke="#191970" d="M1478.4198,-344.629C1579.2422,-341.189 1823.8528,-330.1947 2026.5,-300 2029.3496,-299.5754 2032.2877,-299.0725 2035.233,-298.5216"/>
<polygon fill="#191970" stroke="#191970" points="1478.1424,-341.1361 1468.2642,-344.9663 1478.3749,-348.1323 1478.1424,-341.1361"/>
</g>
<!-- Node87 -->
<g id="node29" class="node">
<title>Node87</title>
<g id="a_node29"><a xlink:href="api_2abi-default_2init_8h.html" target="_top" xlink:title="ODP initialization. ">
<polygon fill="#ffffff" stroke="#ff0000" points="269,-280.5 269,-299.5 310,-299.5 310,-280.5 269,-280.5"/>
<text text-anchor="middle" x="289.5" y="-287.5" font-family="Helvetica,sans-Serif" font-size="10.00" fill="#000000">init.h</text>
</a>
</g>
</g>
<!-- Node77&#45;&gt;Node87 -->
<g id="edge33" class="edge">
<title>Node77&#45;&gt;Node87</title>
<path fill="none" stroke="#191970" d="M1384.7904,-344.87C1187.0588,-339.9775 424.2152,-319.9677 318.5,-300 315.7788,-299.486 312.9665,-298.7682 310.2125,-297.9507"/>
<polygon fill="#191970" stroke="#191970" points="1384.7713,-348.3704 1394.8545,-345.118 1384.9438,-341.3726 1384.7713,-348.3704"/>
</g>
<!-- Node95 -->
<g id="node30" class="node">
<title>Node95</title>
<g id="a_node30"><a xlink:href="api_2abi-default_2ipsec_8h.html" target="_top" xlink:title="ODP IPSEC API &#45; platform specific types. ">
<polygon fill="#ffffff" stroke="#ff0000" points="328,-280.5 328,-299.5 379,-299.5 379,-280.5 328,-280.5"/>
<text text-anchor="middle" x="353.5" y="-287.5" font-family="Helvetica,sans-Serif" font-size="10.00" fill="#000000">ipsec.h</text>
</a>
</g>
</g>
<!-- Node77&#45;&gt;Node95 -->
<g id="edge34" class="edge">
<title>Node77&#45;&gt;Node95</title>
<path fill="none" stroke="#191970" d="M1384.7212,-345.4413C1208.3186,-343.1011 583.4847,-332.6427 387.5,-300 384.8296,-299.5552 382.0727,-298.9679 379.338,-298.3002"/>
<polygon fill="#191970" stroke="#191970" points="1384.9185,-348.944 1394.9632,-345.5746 1385.0097,-341.9446 1384.9185,-348.944"/>
</g>
<!-- Node104 -->
<g id="node31" class="node">
<title>Node104</title>
<g id="a_node31"><a xlink:href="api_2abi-default_2packet__io_8h.html" target="_top" xlink:title="ODP Packet IO. ">
<polygon fill="#ffffff" stroke="#ff0000" points="397,-280.5 397,-299.5 470,-299.5 470,-280.5 397,-280.5"/>
<text text-anchor="middle" x="433.5" y="-287.5" font-family="Helvetica,sans-Serif" font-size="10.00" fill="#000000">packet_io.h</text>
</a>
</g>
</g>
<!-- Node77&#45;&gt;Node104 -->
<g id="edge35" class="edge">
<title>Node77&#45;&gt;Node104</title>
<path fill="none" stroke="#191970" d="M1384.5898,-344.7643C1218.323,-340.2234 657.582,-323.4941 479.5,-300 476.4211,-299.5938 473.2427,-299.0879 470.0621,-298.5207"/>
<polygon fill="#191970" stroke="#191970" points="1384.8716,-348.2731 1394.9628,-345.0457 1385.0615,-341.2757 1384.8716,-348.2731"/>
</g>
<!-- Node34 -->
<g id="node32" class="node">
<title>Node34</title>
<g id="a_node32"><a xlink:href="api_2abi-default_2rwlock__recursive_8h.html" target="_top" xlink:title="ODP recursive read/write lock. ">
<polygon fill="#ffffff" stroke="#ff0000" points="488.5,-280.5 488.5,-299.5 596.5,-299.5 596.5,-280.5 488.5,-280.5"/>
<text text-anchor="middle" x="542.5" y="-287.5" font-family="Helvetica,sans-Serif" font-size="10.00" fill="#000000">rwlock_recursive.h</text>
</a>
</g>
</g>
<!-- Node77&#45;&gt;Node34 -->
<g id="edge36" class="edge">
<title>Node77&#45;&gt;Node34</title>
<path fill="none" stroke="#191970" d="M1384.6676,-345.0608C1258.4921,-342.1698 901.0222,-331.6 605.5,-300 602.637,-299.6939 599.7057,-299.3468 596.7494,-298.9702"/>
<polygon fill="#191970" stroke="#191970" points="1384.6781,-348.5618 1394.754,-345.2867 1384.8349,-341.5635 1384.6781,-348.5618"/>
</g>
<!-- Node130 -->
<g id="node33" class="node">
<title>Node130</title>
<g id="a_node33"><a xlink:href="api_2abi-default_2schedule_8h.html" target="_top" xlink:title="ODP schedule. ">
<polygon fill="#ffffff" stroke="#ff0000" points="615,-280.5 615,-299.5 684,-299.5 684,-280.5 615,-280.5"/>
<text text-anchor="middle" x="649.5" y="-287.5" font-family="Helvetica,sans-Serif" font-size="10.00" fill="#000000">schedule.h</text>
</a>
</g>
</g>
<!-- Node77&#45;&gt;Node130 -->
<g id="edge37" class="edge">
<title>Node77&#45;&gt;Node130</title>
<path fill="none" stroke="#191970" d="M1384.9369,-344.0825C1244.7402,-338.1534 828.0005,-319.347 693.5,-300 690.5535,-299.5762 687.5123,-299.0578 684.4694,-298.4824"/>
<polygon fill="#191970" stroke="#191970" points="1384.7955,-347.5796 1394.9339,-344.5033 1385.0899,-340.5858 1384.7955,-347.5796"/>
</g>
<!-- Node138 -->
<g id="node34" class="node">
<title>Node138</title>
<g id="a_node34"><a xlink:href="api_2abi-default_2spinlock__recursive_8h.html" target="_top" xlink:title="ODP recursive spinlock. ">
<polygon fill="#ffffff" stroke="#ff0000" points="702.5,-280.5 702.5,-299.5 818.5,-299.5 818.5,-280.5 702.5,-280.5"/>
<text text-anchor="middle" x="760.5" y="-287.5" font-family="Helvetica,sans-Serif" font-size="10.00" fill="#000000">spinlock_recursive.h</text>
</a>
</g>
</g>
<!-- Node77&#45;&gt;Node138 -->
<g id="edge38" class="edge">
<title>Node77&#45;&gt;Node138</title>
<path fill="none" stroke="#191970" d="M1384.7628,-343.5924C1283.1648,-338.1059 1034.6648,-323.318 827.5,-300 824.5783,-299.6711 821.5882,-299.3111 818.571,-298.9292"/>
<polygon fill="#191970" stroke="#191970" points="1384.8161,-347.1001 1394.989,-344.1399 1385.1904,-340.1101 1384.8161,-347.1001"/>
</g>
<!-- Node147 -->
<g id="node35" class="node">
<title>Node147</title>
<g id="a_node35"><a xlink:href="api_2abi-default_2traffic__mngr_8h.html" target="_top" xlink:title="ODP traffic mngr. ">
<polygon fill="#ffffff" stroke="#ff0000" points="836.5,-280.5 836.5,-299.5 920.5,-299.5 920.5,-280.5 836.5,-280.5"/>
<text text-anchor="middle" x="878.5" y="-287.5" font-family="Helvetica,sans-Serif" font-size="10.00" fill="#000000">traffic_mngr.h</text>
</a>
</g>
</g>
<!-- Node77&#45;&gt;Node147 -->
<g id="edge39" class="edge">
<title>Node77&#45;&gt;Node147</title>
<path fill="none" stroke="#191970" d="M1384.7819,-343.3197C1295.8351,-337.8625 1096.1628,-323.9115 929.5,-300 926.642,-299.59 923.7016,-299.1262 920.7441,-298.6285"/>
<polygon fill="#191970" stroke="#191970" points="1384.624,-346.8164 1394.8175,-343.928 1385.0476,-339.8293 1384.624,-346.8164"/>
</g>
<!-- Node155 -->
<g id="node36" class="node">
<title>Node155</title>
<g id="a_node36"><a xlink:href="api_2buffer_8h.html" target="_top" xlink:title="ODP buffer descriptor. ">
<polygon fill="#ffffff" stroke="#000000" points="1722,-168.5 1722,-187.5 1775,-187.5 1775,-168.5 1722,-168.5"/>
<text text-anchor="middle" x="1748.5" y="-175.5" font-family="Helvetica,sans-Serif" font-size="10.00" fill="#000000">buffer.h</text>
</a>
</g>
</g>
<!-- Node77&#45;&gt;Node155 -->
<g id="edge41" class="edge">
<title>Node77&#45;&gt;Node155</title>
<path fill="none" stroke="#191970" d="M1478.4758,-343.9052C1548.0175,-339.8756 1673.7858,-328.737 1707.5,-300 1742.0209,-270.5754 1747.5746,-211.1029 1748.3945,-187.7387"/>
<polygon fill="#191970" stroke="#191970" points="1478.0224,-340.4248 1468.2307,-344.471 1478.4085,-347.4142 1478.0224,-340.4248"/>
</g>
<!-- Node112 -->
<g id="node37" class="node">
<title>Node112</title>
<g id="a_node37"><a xlink:href="api_2classification_8h.html" target="_top" xlink:title="ODP classification descriptor. ">
<polygon fill="#ffffff" stroke="#ff0000" points="1843,-168.5 1843,-187.5 1932,-187.5 1932,-168.5 1843,-168.5"/>
<text text-anchor="middle" x="1887.5" y="-175.5" font-family="Helvetica,sans-Serif" font-size="10.00" fill="#000000">classification.h</text>
</a>
</g>
</g>
<!-- Node77&#45;&gt;Node112 -->
<g id="edge43" class="edge">
<title>Node77&#45;&gt;Node112</title>
<path fill="none" stroke="#191970" d="M1478.6157,-344.3219C1586.3856,-340.03 1843.7465,-327.0348 1871.5,-300 1902.5631,-269.7414 1894.4228,-210.7575 1889.7209,-187.6314"/>
<polygon fill="#191970" stroke="#191970" points="1478.2171,-340.8347 1468.3612,-344.7219 1478.49,-347.8294 1478.2171,-340.8347"/>
</g>
<!-- Node118 -->
<g id="node38" class="node">
<title>Node118</title>
<g id="a_node38"><a xlink:href="api_2crypto_8h.html" target="_top" xlink:title="ODP crypto. ">
<polygon fill="#ffffff" stroke="#ff0000" points="1923.5,-224.5 1923.5,-243.5 1979.5,-243.5 1979.5,-224.5 1923.5,-224.5"/>
<text text-anchor="middle" x="1951.5" y="-231.5" font-family="Helvetica,sans-Serif" font-size="10.00" fill="#000000">crypto.h</text>
</a>
</g>
</g>
<!-- Node77&#45;&gt;Node118 -->
<g id="edge45" class="edge">
<title>Node77&#45;&gt;Node118</title>
<path fill="none" stroke="#191970" d="M1478.359,-343.8186C1591.5575,-338.2209 1873.2725,-322.2114 1909.5,-300 1930.8048,-286.9378 1943.1812,-258.5568 1948.4577,-243.6258"/>
<polygon fill="#191970" stroke="#191970" points="1478.0797,-340.328 1468.2626,-344.3123 1478.4217,-347.3196 1478.0797,-340.328"/>
</g>
<!-- Node114 -->
<g id="node39" class="node">
<title>Node114</title>
<g id="a_node39"><a xlink:href="api_2packet_8h.html" target="_top" xlink:title="ODP packet descriptor. ">
<polygon fill="#ffffff" stroke="#ff0000" points="1530,-280.5 1530,-299.5 1589,-299.5 1589,-280.5 1530,-280.5"/>
<text text-anchor="middle" x="1559.5" y="-287.5" font-family="Helvetica,sans-Serif" font-size="10.00" fill="#000000">packet.h</text>
</a>
</g>
</g>
<!-- Node77&#45;&gt;Node114 -->
<g id="edge47" class="edge">
<title>Node77&#45;&gt;Node114</title>
<path fill="none" stroke="#191970" d="M1462.9348,-332.2473C1486.1809,-322.0771 1517.2411,-308.4883 1537.7831,-299.5011"/>
<polygon fill="#191970" stroke="#191970" points="1461.2627,-329.1585 1453.504,-336.3733 1464.0685,-335.5716 1461.2627,-329.1585"/>
</g>
<!-- Node128 -->
<g id="node40" class="node">
<title>Node128</title>
<g id="a_node40"><a xlink:href="api_2spec_2packet__flags_8h.html" target="_top" xlink:title="ODP packet flags. ">
<polygon fill="#ffffff" stroke="#ff0000" points="1540,-224.5 1540,-243.5 1627,-243.5 1627,-224.5 1540,-224.5"/>
<text text-anchor="middle" x="1583.5" y="-231.5" font-family="Helvetica,sans-Serif" font-size="10.00" fill="#000000">packet_flags.h</text>
</a>
</g>
</g>
<!-- Node77&#45;&gt;Node128 -->
<g id="edge61" class="edge">
<title>Node77&#45;&gt;Node128</title>
<path fill="none" stroke="#191970" d="M1478.2672,-339.4205C1522.1223,-332.1796 1583.0557,-318.9913 1597.5,-300 1610.2636,-283.2184 1598.157,-257.4066 1589.8438,-243.5598"/>
<polygon fill="#191970" stroke="#191970" points="1477.682,-335.9695 1468.3599,-341.0042 1478.7871,-342.8817 1477.682,-335.9695"/>
</g>
<!-- Node124 -->
<g id="node41" class="node">
<title>Node124</title>
<g id="a_node41"><a xlink:href="api_2packet__io_8h.html" target="_top" xlink:title="ODP Packet IO. ">
<polygon fill="#ffffff" stroke="#ff0000" points="1592,-112.5 1592,-131.5 1665,-131.5 1665,-112.5 1592,-112.5"/>
<text text-anchor="middle" x="1628.5" y="-119.5" font-family="Helvetica,sans-Serif" font-size="10.00" fill="#000000">packet_io.h</text>
</a>
</g>
</g>
<!-- Node77&#45;&gt;Node124 -->
<g id="edge50" class="edge">
<title>Node77&#45;&gt;Node124</title>
<path fill="none" stroke="#191970" d="M1478.0857,-339.3117C1525.419,-331.6577 1594.5281,-317.8424 1614.5,-300 1663.7387,-256.0112 1640.733,-161.9974 1631.6153,-131.6557"/>
<polygon fill="#191970" stroke="#191970" points="1477.3782,-335.88 1468.0462,-340.8962 1478.4696,-342.7944 1477.3782,-335.88"/>
</g>
<!-- Node122 -->
<g id="node42" class="node">
<title>Node122</title>
<g id="a_node42"><a xlink:href="api_2queue_8h.html" target="_top" xlink:title="ODP queue. ">
<polygon fill="#ffffff" stroke="#ff0000" points="1961.5,-280.5 1961.5,-299.5 2017.5,-299.5 2017.5,-280.5 1961.5,-280.5"/>
<text text-anchor="middle" x="1989.5" y="-287.5" font-family="Helvetica,sans-Serif" font-size="10.00" fill="#000000">queue.h</text>
</a>
</g>
</g>
<!-- Node77&#45;&gt;Node122 -->
<g id="edge52" class="edge">
<title>Node77&#45;&gt;Node122</title>
<path fill="none" stroke="#191970" d="M1478.2541,-344.1019C1569.1564,-339.9113 1775.8665,-327.932 1947.5,-300 1951.9389,-299.2776 1956.6042,-298.3445 1961.1459,-297.3392"/>
<polygon fill="#191970" stroke="#191970" points="1477.8428,-340.6168 1468.0106,-344.5635 1478.158,-347.6097 1477.8428,-340.6168"/>
</g>
<!-- Node70 -->
<g id="node43" class="node">
<title>Node70</title>
<g id="a_node43"><a xlink:href="api_2spec_2schedule_8h.html" target="_top" xlink:title="ODP schedule. ">
<polygon fill="#ffffff" stroke="#ff0000" points="1760,-224.5 1760,-243.5 1829,-243.5 1829,-224.5 1760,-224.5"/>
<text text-anchor="middle" x="1794.5" y="-231.5" font-family="Helvetica,sans-Serif" font-size="10.00" fill="#000000">schedule.h</text>
</a>
</g>
</g>
<!-- Node77&#45;&gt;Node70 -->
<g id="edge63" class="edge">
<title>Node77&#45;&gt;Node70</title>
<path fill="none" stroke="#191970" d="M1478.3456,-343.5154C1554.5633,-338.7566 1701.3508,-326.3931 1745.5,-300 1768.0383,-286.5263 1783.4913,-258.3253 1790.4007,-243.5281"/>
<polygon fill="#191970" stroke="#191970" points="1477.8475,-340.0391 1468.0773,-344.1371 1478.2706,-347.0263 1477.8475,-340.0391"/>
</g>
<!-- Node156 -->
<g id="node44" class="node">
<title>Node156</title>
<g id="a_node44"><a xlink:href="spec_2chksum_8h.html" target="_top" xlink:title="ODP checksum functions. ">
<polygon fill="#ffffff" stroke="#ff0000" points="938.5,-280.5 938.5,-299.5 1002.5,-299.5 1002.5,-280.5 938.5,-280.5"/>
<text text-anchor="middle" x="970.5" y="-287.5" font-family="Helvetica,sans-Serif" font-size="10.00" fill="#000000">chksum.h</text>
</a>
</g>
</g>
<!-- Node77&#45;&gt;Node156 -->
<g id="edge56" class="edge">
<title>Node77&#45;&gt;Node156</title>
<path fill="none" stroke="#191970" d="M1384.3072,-342.8442C1306.2895,-337.1775 1145.7006,-323.6116 1011.5,-300 1008.6136,-299.4922 1005.6283,-298.8989 1002.6454,-298.2593"/>
<polygon fill="#191970" stroke="#191970" points="1384.5322,-346.3691 1394.7564,-343.5915 1385.0316,-339.387 1384.5322,-346.3691"/>
</g>
<!-- Node158 -->
<g id="node45" class="node">
<title>Node158</title>
<g id="a_node45"><a xlink:href="api_2spec_2cpu_8h.html" target="_top" xlink:title="ODP CPU API. ">
<polygon fill="#ffffff" stroke="#ff0000" points="1021,-280.5 1021,-299.5 1064,-299.5 1064,-280.5 1021,-280.5"/>
<text text-anchor="middle" x="1042.5" y="-287.5" font-family="Helvetica,sans-Serif" font-size="10.00" fill="#000000">cpu.h</text>
</a>
</g>
</g>
<!-- Node77&#45;&gt;Node158 -->
<g id="edge57" class="edge">
<title>Node77&#45;&gt;Node158</title>
<path fill="none" stroke="#191970" d="M1384.8037,-342.9263C1315.8177,-337.7324 1182.9154,-325.2243 1072.5,-300 1069.8239,-299.3886 1067.0488,-298.6346 1064.3153,-297.817"/>
<polygon fill="#191970" stroke="#191970" points="1384.6811,-346.4266 1394.9108,-343.669 1385.1942,-339.4454 1384.6811,-346.4266"/>
</g>
<!-- Node160 -->
<g id="node46" class="node">
<title>Node160</title>
<g id="a_node46"><a xlink:href="spec_2feature_8h.html" target="_top" xlink:title="ODP features. ">
<polygon fill="#ffffff" stroke="#ff0000" points="1082,-280.5 1082,-299.5 1143,-299.5 1143,-280.5 1082,-280.5"/>
<text text-anchor="middle" x="1112.5" y="-287.5" font-family="Helvetica,sans-Serif" font-size="10.00" fill="#000000">feature.h</text>
</a>
</g>
</g>
<!-- Node77&#45;&gt;Node160 -->
<g id="edge58" class="edge">
<title>Node77&#45;&gt;Node160</title>
<path fill="none" stroke="#191970" d="M1384.6784,-339.5966C1328.8855,-331.6694 1232.9697,-317.1022 1151.5,-300 1148.7637,-299.4256 1145.9303,-298.7865 1143.0971,-298.1171"/>
<polygon fill="#191970" stroke="#191970" points="1384.2258,-343.0673 1394.6167,-340.9986 1385.2037,-336.1359 1384.2258,-343.0673"/>
</g>
<!-- Node162 -->
<g id="node47" class="node">
<title>Node162</title>
<g id="a_node47"><a xlink:href="api_2spec_2hash_8h.html" target="_top" xlink:title="ODP Hash functions. ">
<polygon fill="#ffffff" stroke="#ff0000" points="1161,-280.5 1161,-299.5 1210,-299.5 1210,-280.5 1161,-280.5"/>
<text text-anchor="middle" x="1185.5" y="-287.5" font-family="Helvetica,sans-Serif" font-size="10.00" fill="#000000">hash.h</text>
</a>
</g>
</g>
<!-- Node77&#45;&gt;Node162 -->
<g id="edge59" class="edge">
<title>Node77&#45;&gt;Node162</title>
<path fill="none" stroke="#191970" d="M1384.7623,-337.0472C1341.4341,-328.478 1275.2906,-314.7108 1218.5,-300 1215.8342,-299.3095 1213.061,-298.5442 1210.3049,-297.7534"/>
<polygon fill="#191970" stroke="#191970" points="1384.2392,-340.5112 1394.7265,-339.0057 1385.5893,-333.6427 1384.2392,-340.5112"/>
</g>
<!-- Node164 -->
<g id="node48" class="node">
<title>Node164</title>
<g id="a_node48"><a xlink:href="api_2spec_2pool_8h.html" target="_top" xlink:title="ODP pool. ">
<polygon fill="#ffffff" stroke="#ff0000" points="1228,-280.5 1228,-299.5 1275,-299.5 1275,-280.5 1228,-280.5"/>
<text text-anchor="middle" x="1251.5" y="-287.5" font-family="Helvetica,sans-Serif" font-size="10.00" fill="#000000">pool.h</text>
</a>
</g>
</g>
<!-- Node77&#45;&gt;Node164 -->
<g id="edge62" class="edge">
<title>Node77&#45;&gt;Node164</title>
<path fill="none" stroke="#191970" d="M1390.9248,-333.3766C1355.256,-322.2797 1304.5743,-306.512 1275.1576,-297.3601"/>
<polygon fill="#191970" stroke="#191970" points="1389.9686,-336.7445 1400.5569,-336.3733 1392.0481,-330.0605 1389.9686,-336.7445"/>
</g>
<!-- Node166 -->
<g id="node49" class="node">
<title>Node166</title>
<g id="a_node49"><a xlink:href="api_2spec_2stash_8h.html" target="_top" xlink:title="ODP stash. ">
<polygon fill="#ffffff" stroke="#ff0000" points="1293.5,-280.5 1293.5,-299.5 1345.5,-299.5 1345.5,-280.5 1293.5,-280.5"/>
<text text-anchor="middle" x="1319.5" y="-287.5" font-family="Helvetica,sans-Serif" font-size="10.00" fill="#000000">stash.h</text>
</a>
</g>
</g>
<!-- Node77&#45;&gt;Node166 -->
<g id="edge64" class="edge">
<title>Node77&#45;&gt;Node166</title>
<path fill="none" stroke="#191970" d="M1403.1737,-331.8368C1382.9279,-321.7139 1356.2358,-308.3679 1338.5022,-299.5011"/>
<polygon fill="#191970" stroke="#191970" points="1401.737,-335.0316 1412.2465,-336.3733 1404.8675,-328.7706 1401.737,-335.0316"/>
</g>
<!-- Node168 -->
<g id="node50" class="node">
<title>Node168</title>
<g id="a_node50"><a xlink:href="spec_2threshold_8h.html" target="_top" xlink:title="ODP threshold descriptor. ">
<polygon fill="#ffffff" stroke="#ff0000" points="1364,-280.5 1364,-299.5 1435,-299.5 1435,-280.5 1364,-280.5"/>
<text text-anchor="middle" x="1399.5" y="-287.5" font-family="Helvetica,sans-Serif" font-size="10.00" fill="#000000">threshold.h</text>
</a>
</g>
</g>
<!-- Node77&#45;&gt;Node168 -->
<g id="edge65" class="edge">
<title>Node77&#45;&gt;Node168</title>
<path fill="none" stroke="#191970" d="M1420.8355,-327.3372C1415.5346,-318.0605 1409.3513,-307.2398 1405.0101,-299.6427"/>
<polygon fill="#191970" stroke="#191970" points="1417.9257,-329.2996 1425.926,-336.2455 1424.0034,-325.8266 1417.9257,-329.2996"/>
</g>
<!-- Node155&#45;&gt;Node23 -->
<g id="edge42" class="edge">
<title>Node155&#45;&gt;Node23</title>
<path fill="none" stroke="#191970" d="M1748.5,-158.2702C1748.5,-133.9985 1748.5,-93.7725 1748.5,-75.5249"/>
<polygon fill="#191970" stroke="#191970" points="1745.0001,-158.4509 1748.5,-168.4509 1752.0001,-158.451 1745.0001,-158.4509"/>
</g>
<!-- Node112&#45;&gt;Node23 -->
<g id="edge44" class="edge">
<title>Node112&#45;&gt;Node23</title>
<path fill="none" stroke="#191970" d="M1867.7382,-162.0768C1838.3929,-138.4317 1784.1973,-94.7633 1760.3211,-75.5249"/>
<polygon fill="#191970" stroke="#191970" points="1865.6661,-164.902 1875.6489,-168.4509 1870.0581,-159.4513 1865.6661,-164.902"/>
</g>
<!-- Node118&#45;&gt;Node23 -->
<g id="edge46" class="edge">
<title>Node118&#45;&gt;Node23</title>
<path fill="none" stroke="#191970" d="M1952.631,-214.3668C1952.467,-200.2393 1950.1375,-181.3915 1940.5,-168 1901.3648,-113.6206 1824.1956,-85.6139 1780.5491,-73.5512"/>
<polygon fill="#191970" stroke="#191970" points="1949.1291,-214.412 1952.3966,-224.4904 1956.1273,-214.5742 1949.1291,-214.412"/>
</g>
<!-- Node114&#45;&gt;Node23 -->
<g id="edge49" class="edge">
<title>Node114&#45;&gt;Node23</title>
<path fill="none" stroke="#191970" d="M1544.8413,-272.0113C1539.1878,-263.9515 1533.3938,-254.0164 1530.5,-244 1528.0328,-235.4604 1528.5833,-232.6798 1530.5,-224 1542.3339,-170.4098 1540.6388,-147.4907 1582.5,-112 1602.6305,-94.933 1673.9103,-79.5339 1716.2404,-71.6156"/>
<polygon fill="#191970" stroke="#191970" points="1542.1997,-274.3224 1551.0023,-280.2186 1547.7979,-270.12 1542.1997,-274.3224"/>
</g>
<!-- Node114&#45;&gt;Node128 -->
<g id="edge48" class="edge">
<title>Node114&#45;&gt;Node128</title>
<path fill="none" stroke="#191970" d="M1567.6241,-271.0437C1571.5715,-261.8331 1576.1458,-251.1598 1579.3674,-243.6427"/>
<polygon fill="#191970" stroke="#191970" points="1564.4027,-269.6753 1563.6805,-280.2455 1570.8367,-272.4328 1564.4027,-269.6753"/>
</g>
<!-- Node124&#45;&gt;Node23 -->
<g id="edge51" class="edge">
<title>Node124&#45;&gt;Node23</title>
<path fill="none" stroke="#191970" d="M1658.2624,-108.1109C1680.0232,-97.9559 1708.9682,-84.4482 1728.1405,-75.5011"/>
<polygon fill="#191970" stroke="#191970" points="1656.7105,-104.9727 1649.1287,-112.3733 1659.6707,-111.316 1656.7105,-104.9727"/>
</g>
<!-- Node122&#45;&gt;Node23 -->
<g id="edge55" class="edge">
<title>Node122&#45;&gt;Node23</title>
<path fill="none" stroke="#191970" d="M1996.2982,-270.7958C2007.6225,-234.9948 2025.5664,-157.5678 1987.5,-112 1961.426,-80.7878 1839.4262,-70.5059 1780.5072,-67.3255"/>
<polygon fill="#191970" stroke="#191970" points="1992.9091,-269.8951 1993.0656,-280.4888 1999.5496,-272.1097 1992.9091,-269.8951"/>
</g>
<!-- Node122&#45;&gt;Node118 -->
<g id="edge53" class="edge">
<title>Node122&#45;&gt;Node118</title>
<path fill="none" stroke="#191970" d="M1977.2321,-271.9209C1970.8512,-262.5176 1963.3069,-251.3997 1958.0432,-243.6427"/>
<polygon fill="#191970" stroke="#191970" points="1974.3697,-273.936 1982.8809,-280.2455 1980.162,-270.0055 1974.3697,-273.936"/>
</g>
<!-- Node122&#45;&gt;Node70 -->
<g id="edge54" class="edge">
<title>Node122&#45;&gt;Node70</title>
<path fill="none" stroke="#191970" d="M1951.498,-279.0866C1915.5431,-268.7611 1862.1108,-253.4164 1827.7906,-243.5604"/>
<polygon fill="#191970" stroke="#191970" points="1950.5677,-282.4608 1961.1453,-281.8571 1952.4999,-275.7328 1950.5677,-282.4608"/>
</g>
</g>
</svg>
