<?xml version="1.0" encoding="UTF-8" standalone="no"?>
<!DOCTYPE svg PUBLIC "-//W3C//DTD SVG 1.1//EN"
 "http://www.w3.org/Graphics/SVG/1.1/DTD/svg11.dtd">
<!-- Generated by graphviz version 2.40.1 (20161225.0304)
 -->
<!-- Title: init.h Pages: 1 -->
<svg width="1292pt" height="487pt"
 viewBox="0.00 0.00 1292.00 487.00" xmlns="http://www.w3.org/2000/svg" xmlns:xlink="http://www.w3.org/1999/xlink">
<g id="graph0" class="graph" transform="scale(1 1) rotate(0) translate(4 483)">
<title>init.h</title>
<polygon fill="#ffffff" stroke="transparent" points="-4,4 -4,-483 1287.9972,-483 1287.9972,4 -4,4"/>
<!-- Node0 -->
<g id="node1" class="node">
<title>Node0</title>
<polygon fill="#bfbfbf" stroke="#000000" points="429.5,-459.5 429.5,-478.5 470.5,-478.5 470.5,-459.5 429.5,-459.5"/>
<text text-anchor="middle" x="450" y="-466.5" font-family="Helvetica,sans-Serif" font-size="10.00" fill="#000000">init.h</text>
</g>
<!-- Node1 -->
<g id="node2" class="node">
<title>Node1</title>
<polygon fill="#ffffff" stroke="#bfbfbf" points="341,-403.5 341,-422.5 439,-422.5 439,-403.5 341,-403.5"/>
<text text-anchor="middle" x="390" y="-410.5" font-family="Helvetica,sans-Serif" font-size="10.00" fill="#000000">odp/api/abi/init.h</text>
</g>
<!-- Node0&#45;&gt;Node1 -->
<g id="edge1" class="edge">
<title>Node0&#45;&gt;Node1</title>
<path fill="none" stroke="#191970" d="M439.5488,-459.2455C430.7731,-451.0549 418.0446,-439.1749 407.686,-429.5069"/>
<polygon fill="#191970" stroke="#191970" points="410.0301,-426.9072 400.3314,-422.6427 405.2539,-432.0246 410.0301,-426.9072"/>
</g>
<!-- Node2 -->
<g id="node3" class="node">
<title>Node2</title>
<g id="a_node3"><a xlink:href="api_2spec_2init_8h.html" target="_top" xlink:title="odp/api/spec/init.h">
<polygon fill="#ffffff" stroke="#000000" points="457,-403.5 457,-422.5 563,-422.5 563,-403.5 457,-403.5"/>
<text text-anchor="middle" x="510" y="-410.5" font-family="Helvetica,sans-Serif" font-size="10.00" fill="#000000">odp/api/spec/init.h</text>
</a>
</g>
</g>
<!-- Node0&#45;&gt;Node2 -->
<g id="edge2" class="edge">
<title>Node0&#45;&gt;Node2</title>
<path fill="none" stroke="#191970" d="M460.4512,-459.2455C469.2269,-451.0549 481.9554,-439.1749 492.314,-429.5069"/>
<polygon fill="#191970" stroke="#191970" points="494.7461,-432.0246 499.6686,-422.6427 489.9699,-426.9072 494.7461,-432.0246"/>
</g>
<!-- Node3 -->
<g id="node4" class="node">
<title>Node3</title>
<g id="a_node4"><a xlink:href="visibility__begin_8h_source.html" target="_top" xlink:title="odp/visibility_begin.h">
<polygon fill="#ffffff" stroke="#000000" points="100.5,-.5 100.5,-19.5 221.5,-19.5 221.5,-.5 100.5,-.5"/>
<text text-anchor="middle" x="161" y="-7.5" font-family="Helvetica,sans-Serif" font-size="10.00" fill="#000000">odp/visibility_begin.h</text>
</a>
</g>
</g>
<!-- Node2&#45;&gt;Node3 -->
<g id="edge3" class="edge">
<title>Node2&#45;&gt;Node3</title>
<path fill="none" stroke="#191970" d="M456.9197,-404.3069C453.9037,-403.854 450.9144,-403.4152 448,-403 346.9171,-388.6006 0,-403.1033 0,-301 0,-301 0,-301 0,-133 0,-74.0949 68.8943,-39.6221 116.5482,-22.823"/>
<polygon fill="#191970" stroke="#191970" points="117.7162,-26.1228 126.0654,-19.6004 115.4711,-19.4926 117.7162,-26.1228"/>
</g>
<!-- Node4 -->
<g id="node5" class="node">
<title>Node4</title>
<g id="a_node5"><a xlink:href="api_2std__types_8h.html" target="_top" xlink:title="Standard C language types and definitions for ODP. ">
<polygon fill="#ffffff" stroke="#000000" points="363,-235.5 363,-254.5 475,-254.5 475,-235.5 363,-235.5"/>
<text text-anchor="middle" x="419" y="-242.5" font-family="Helvetica,sans-Serif" font-size="10.00" fill="#000000">odp/api/std_types.h</text>
</a>
</g>
</g>
<!-- Node2&#45;&gt;Node4 -->
<g id="edge4" class="edge">
<title>Node2&#45;&gt;Node4</title>
<path fill="none" stroke="#191970" d="M492.1862,-403.4252C478.9132,-395.3957 461.3611,-382.7269 451,-367 430.1064,-335.2862 422.8355,-290.5469 420.3187,-264.9877"/>
<polygon fill="#191970" stroke="#191970" points="423.7809,-264.3856 419.4651,-254.7097 416.8049,-264.9651 423.7809,-264.3856"/>
</g>
<!-- Node11 -->
<g id="node12" class="node">
<title>Node11</title>
<g id="a_node12"><a xlink:href="visibility__end_8h_source.html" target="_top" xlink:title="odp/visibility_end.h">
<polygon fill="#ffffff" stroke="#000000" points="537,-.5 537,-19.5 649,-19.5 649,-.5 537,-.5"/>
<text text-anchor="middle" x="593" y="-7.5" font-family="Helvetica,sans-Serif" font-size="10.00" fill="#000000">odp/visibility_end.h</text>
</a>
</g>
</g>
<!-- Node2&#45;&gt;Node11 -->
<g id="edge35" class="edge">
<title>Node2&#45;&gt;Node11</title>
<path fill="none" stroke="#191970" d="M563.0627,-410.9033C737.4794,-403.3147 1282,-373.7941 1282,-301 1282,-301 1282,-301 1282,-133 1282,-97.7513 1289.9889,-78.6731 1263,-56 1240.115,-36.7745 823.918,-18.8311 659.2589,-12.4538"/>
<polygon fill="#191970" stroke="#191970" points="659.3804,-8.956 649.2531,-12.0685 659.111,-15.9508 659.3804,-8.956"/>
</g>
<!-- Node12 -->
<g id="node13" class="node">
<title>Node12</title>
<g id="a_node13"><a xlink:href="hints_8h.html" target="_top" xlink:title="ODP compiler hints. ">
<polygon fill="#ffffff" stroke="#000000" points="166.5,-347.5 166.5,-366.5 255.5,-366.5 255.5,-347.5 166.5,-347.5"/>
<text text-anchor="middle" x="211" y="-354.5" font-family="Helvetica,sans-Serif" font-size="10.00" fill="#000000">odp/api/hints.h</text>
</a>
</g>
</g>
<!-- Node2&#45;&gt;Node12 -->
<g id="edge15" class="edge">
<title>Node2&#45;&gt;Node12</title>
<path fill="none" stroke="#191970" d="M458.9398,-403.4369C405.082,-393.3498 320.5407,-377.516 265.4398,-367.1961"/>
<polygon fill="#191970" stroke="#191970" points="265.9813,-363.7367 255.5079,-365.3359 264.6926,-370.6171 265.9813,-363.7367"/>
</g>
<!-- Node14 -->
<g id="node15" class="node">
<title>Node14</title>
<g id="a_node15"><a xlink:href="feature_8h.html" target="_top" xlink:title="ODP features. ">
<polygon fill="#ffffff" stroke="#000000" points="460,-347.5 460,-366.5 560,-366.5 560,-347.5 460,-347.5"/>
<text text-anchor="middle" x="510" y="-354.5" font-family="Helvetica,sans-Serif" font-size="10.00" fill="#000000">odp/api/feature.h</text>
</a>
</g>
</g>
<!-- Node2&#45;&gt;Node14 -->
<g id="edge19" class="edge">
<title>Node2&#45;&gt;Node14</title>
<path fill="none" stroke="#191970" d="M510,-403.2455C510,-395.9382 510,-385.6944 510,-376.7046"/>
<polygon fill="#191970" stroke="#191970" points="513.5001,-376.6426 510,-366.6427 506.5001,-376.6427 513.5001,-376.6426"/>
</g>
<!-- Node16 -->
<g id="node17" class="node">
<title>Node16</title>
<g id="a_node17"><a xlink:href="api_2thread_8h.html" target="_top" xlink:title="ODP thread API. ">
<polygon fill="#ffffff" stroke="#000000" points="776,-123.5 776,-142.5 872,-142.5 872,-123.5 776,-123.5"/>
<text text-anchor="middle" x="824" y="-130.5" font-family="Helvetica,sans-Serif" font-size="10.00" fill="#000000">odp/api/thread.h</text>
</a>
</g>
</g>
<!-- Node2&#45;&gt;Node16 -->
<g id="edge24" class="edge">
<title>Node2&#45;&gt;Node16</title>
<path fill="none" stroke="#191970" d="M563.2909,-411.88C689.2807,-407.7912 995,-388.8216 995,-301 995,-301 995,-301 995,-245 995,-189.272 930.6589,-159.7699 880.9108,-145.2881"/>
<polygon fill="#191970" stroke="#191970" points="881.7509,-141.889 871.1792,-142.5887 879.8798,-148.6343 881.7509,-141.889"/>
</g>
<!-- Node20 -->
<g id="node21" class="node">
<title>Node20</title>
<g id="a_node21"><a xlink:href="api_2cpumask_8h.html" target="_top" xlink:title="ODP CPU masks and enumeration. ">
<polygon fill="#ffffff" stroke="#000000" points="985.5,-123.5 985.5,-142.5 1094.5,-142.5 1094.5,-123.5 985.5,-123.5"/>
<text text-anchor="middle" x="1040" y="-130.5" font-family="Helvetica,sans-Serif" font-size="10.00" fill="#000000">odp/api/cpumask.h</text>
</a>
</g>
</g>
<!-- Node2&#45;&gt;Node20 -->
<g id="edge30" class="edge">
<title>Node2&#45;&gt;Node20</title>
<path fill="none" stroke="#191970" d="M563.2671,-411.211C665.3086,-407.1762 884.4028,-395.4063 954,-367 997.6353,-349.1901 1037,-348.13 1037,-301 1037,-301 1037,-301 1037,-245 1037,-212.7 1038.2622,-175.1791 1039.1492,-152.8005"/>
<polygon fill="#191970" stroke="#191970" points="1042.6553,-152.7217 1039.5702,-142.5861 1035.6613,-152.4334 1042.6553,-152.7217"/>
</g>
<!-- Node5 -->
<g id="node6" class="node">
<title>Node5</title>
<polygon fill="#ffffff" stroke="#bfbfbf" points="202,-179.5 202,-198.5 332,-198.5 332,-179.5 202,-179.5"/>
<text text-anchor="middle" x="267" y="-186.5" font-family="Helvetica,sans-Serif" font-size="10.00" fill="#000000">odp/api/abi/std_types.h</text>
</g>
<!-- Node4&#45;&gt;Node5 -->
<g id="edge5" class="edge">
<title>Node4&#45;&gt;Node5</title>
<path fill="none" stroke="#191970" d="M392.8703,-235.3733C367.9232,-226.1822 330.1408,-212.2624 302.4794,-202.0713"/>
<polygon fill="#191970" stroke="#191970" points="303.3822,-198.674 292.7888,-198.5011 300.9622,-205.2424 303.3822,-198.674"/>
</g>
<!-- Node6 -->
<g id="node7" class="node">
<title>Node6</title>
<g id="a_node7"><a xlink:href="api_2spec_2std__types_8h.html" target="_top" xlink:title="Standard C language types and definitions for ODP. ">
<polygon fill="#ffffff" stroke="#000000" points="350.5,-179.5 350.5,-198.5 487.5,-198.5 487.5,-179.5 350.5,-179.5"/>
<text text-anchor="middle" x="419" y="-186.5" font-family="Helvetica,sans-Serif" font-size="10.00" fill="#000000">odp/api/spec/std_types.h</text>
</a>
</g>
</g>
<!-- Node4&#45;&gt;Node6 -->
<g id="edge6" class="edge">
<title>Node4&#45;&gt;Node6</title>
<path fill="none" stroke="#191970" d="M419,-235.2455C419,-227.9382 419,-217.6944 419,-208.7046"/>
<polygon fill="#191970" stroke="#191970" points="422.5001,-208.6426 419,-198.6427 415.5001,-208.6427 422.5001,-208.6426"/>
</g>
<!-- Node6&#45;&gt;Node3 -->
<g id="edge7" class="edge">
<title>Node6&#45;&gt;Node3</title>
<path fill="none" stroke="#191970" d="M362.7737,-179.4615C278.7666,-163.9353 126.9161,-130.5079 95,-87 86.8506,-75.8908 88.6248,-68.2141 95,-56 102.1245,-42.3502 115.3523,-31.926 128.1056,-24.4806"/>
<polygon fill="#191970" stroke="#191970" points="130.0647,-27.4012 137.2141,-19.5822 126.7492,-21.2362 130.0647,-27.4012"/>
</g>
<!-- Node7 -->
<g id="node8" class="node">
<title>Node7</title>
<polygon fill="#ffffff" stroke="#bfbfbf" points="303.5,-123.5 303.5,-142.5 356.5,-142.5 356.5,-123.5 303.5,-123.5"/>
<text text-anchor="middle" x="330" y="-130.5" font-family="Helvetica,sans-Serif" font-size="10.00" fill="#000000">stdint.h</text>
</g>
<!-- Node6&#45;&gt;Node7 -->
<g id="edge8" class="edge">
<title>Node6&#45;&gt;Node7</title>
<path fill="none" stroke="#191970" d="M403.4974,-179.2455C389.842,-170.6534 369.7343,-158.0014 354.0011,-148.1018"/>
<polygon fill="#191970" stroke="#191970" points="355.6529,-145.006 345.325,-142.6427 351.9249,-150.9307 355.6529,-145.006"/>
</g>
<!-- Node8 -->
<g id="node9" class="node">
<title>Node8</title>
<g id="a_node9"><a xlink:href="api_2align_8h.html" target="_top" xlink:title="ODP alignments. ">
<polygon fill="#ffffff" stroke="#000000" points="374.5,-123.5 374.5,-142.5 463.5,-142.5 463.5,-123.5 374.5,-123.5"/>
<text text-anchor="middle" x="419" y="-130.5" font-family="Helvetica,sans-Serif" font-size="10.00" fill="#000000">odp/api/align.h</text>
</a>
</g>
</g>
<!-- Node6&#45;&gt;Node8 -->
<g id="edge9" class="edge">
<title>Node6&#45;&gt;Node8</title>
<path fill="none" stroke="#191970" d="M419,-179.2455C419,-171.9382 419,-161.6944 419,-152.7046"/>
<polygon fill="#191970" stroke="#191970" points="422.5001,-152.6426 419,-142.6427 415.5001,-152.6427 422.5001,-152.6426"/>
</g>
<!-- Node6&#45;&gt;Node11 -->
<g id="edge14" class="edge">
<title>Node6&#45;&gt;Node11</title>
<path fill="none" stroke="#191970" d="M432.2758,-179.4465C443.7016,-170.7919 460.1675,-157.2463 472,-143 500.6371,-108.5209 492.1281,-88.4933 523,-56 534.8819,-43.4941 550.7825,-32.701 564.4262,-24.7187"/>
<polygon fill="#191970" stroke="#191970" points="566.4322,-27.6062 573.4342,-19.655 563.002,-21.5042 566.4322,-27.6062"/>
</g>
<!-- Node9 -->
<g id="node10" class="node">
<title>Node9</title>
<polygon fill="#ffffff" stroke="#bfbfbf" points="236.5,-62 236.5,-81 343.5,-81 343.5,-62 236.5,-62"/>
<text text-anchor="middle" x="290" y="-69" font-family="Helvetica,sans-Serif" font-size="10.00" fill="#000000">odp/api/abi/align.h</text>
</g>
<!-- Node8&#45;&gt;Node9 -->
<g id="edge10" class="edge">
<title>Node8&#45;&gt;Node9</title>
<path fill="none" stroke="#191970" d="M398.8438,-123.3906C377.449,-113.1908 343.438,-96.9763 319.1298,-85.3875"/>
<polygon fill="#191970" stroke="#191970" points="320.5476,-82.186 310.0147,-81.0419 317.5352,-88.5047 320.5476,-82.186"/>
</g>
<!-- Node10 -->
<g id="node11" class="node">
<title>Node10</title>
<g id="a_node11"><a xlink:href="api_2spec_2align_8h.html" target="_top" xlink:title="ODP alignments. ">
<polygon fill="#ffffff" stroke="#000000" points="362,-62 362,-81 476,-81 476,-62 362,-62"/>
<text text-anchor="middle" x="419" y="-69" font-family="Helvetica,sans-Serif" font-size="10.00" fill="#000000">odp/api/spec/align.h</text>
</a>
</g>
</g>
<!-- Node8&#45;&gt;Node10 -->
<g id="edge11" class="edge">
<title>Node8&#45;&gt;Node10</title>
<path fill="none" stroke="#191970" d="M419,-123.3906C419,-114.8657 419,-102.1392 419,-91.4235"/>
<polygon fill="#191970" stroke="#191970" points="422.5001,-91.2448 419,-81.2449 415.5001,-91.2449 422.5001,-91.2448"/>
</g>
<!-- Node10&#45;&gt;Node3 -->
<g id="edge12" class="edge">
<title>Node10&#45;&gt;Node3</title>
<path fill="none" stroke="#191970" d="M378.9706,-61.9581C333.6845,-51.1632 259.8766,-33.5694 210.8794,-21.8899"/>
<polygon fill="#191970" stroke="#191970" points="211.6624,-18.4785 201.1233,-19.5643 210.0392,-25.2877 211.6624,-18.4785"/>
</g>
<!-- Node10&#45;&gt;Node11 -->
<g id="edge13" class="edge">
<title>Node10&#45;&gt;Node11</title>
<path fill="none" stroke="#191970" d="M446.1875,-61.8906C475.8117,-51.42 523.3687,-34.6111 556.2918,-22.9745"/>
<polygon fill="#191970" stroke="#191970" points="557.7414,-26.1744 566.0034,-19.5419 555.4086,-19.5745 557.7414,-26.1744"/>
</g>
<!-- Node13 -->
<g id="node14" class="node">
<title>Node13</title>
<g id="a_node14"><a xlink:href="spec_2hints_8h.html" target="_top" xlink:title="ODP compiler hints. ">
<polygon fill="#ffffff" stroke="#000000" points="104,-62 104,-81 218,-81 218,-62 104,-62"/>
<text text-anchor="middle" x="161" y="-69" font-family="Helvetica,sans-Serif" font-size="10.00" fill="#000000">odp/api/spec/hints.h</text>
</a>
</g>
</g>
<!-- Node12&#45;&gt;Node13 -->
<g id="edge16" class="edge">
<title>Node12&#45;&gt;Node13</title>
<path fill="none" stroke="#191970" d="M181.707,-347.4925C142.0024,-332.5496 76,-299.5114 76,-245 76,-245 76,-245 76,-189 76,-145.7953 114.1928,-107.7165 139.3757,-87.3047"/>
<polygon fill="#191970" stroke="#191970" points="141.6193,-89.9933 147.3433,-81.0778 137.3088,-84.4779 141.6193,-89.9933"/>
</g>
<!-- Node13&#45;&gt;Node3 -->
<g id="edge17" class="edge">
<title>Node13&#45;&gt;Node3</title>
<path fill="none" stroke="#191970" d="M161,-61.8906C161,-53.3657 161,-40.6392 161,-29.9235"/>
<polygon fill="#191970" stroke="#191970" points="164.5001,-29.7448 161,-19.7449 157.5001,-29.7449 164.5001,-29.7448"/>
</g>
<!-- Node13&#45;&gt;Node11 -->
<g id="edge18" class="edge">
<title>Node13&#45;&gt;Node11</title>
<path fill="none" stroke="#191970" d="M198.5513,-61.957C207.8118,-59.8042 217.7325,-57.6658 227,-56 331.1459,-37.2801 453.3206,-23.5624 526.8675,-16.1881"/>
<polygon fill="#191970" stroke="#191970" points="527.3106,-19.6613 536.9156,-15.1897 526.6185,-12.6956 527.3106,-19.6613"/>
</g>
<!-- Node15 -->
<g id="node16" class="node">
<title>Node15</title>
<g id="a_node16"><a xlink:href="spec_2feature_8h.html" target="_top" xlink:title="ODP features. ">
<polygon fill="#ffffff" stroke="#000000" points="447.5,-291.5 447.5,-310.5 572.5,-310.5 572.5,-291.5 447.5,-291.5"/>
<text text-anchor="middle" x="510" y="-298.5" font-family="Helvetica,sans-Serif" font-size="10.00" fill="#000000">odp/api/spec/feature.h</text>
</a>
</g>
</g>
<!-- Node14&#45;&gt;Node15 -->
<g id="edge20" class="edge">
<title>Node14&#45;&gt;Node15</title>
<path fill="none" stroke="#191970" d="M510,-347.2455C510,-339.9382 510,-329.6944 510,-320.7046"/>
<polygon fill="#191970" stroke="#191970" points="513.5001,-320.6426 510,-310.6427 506.5001,-320.6427 513.5001,-320.6426"/>
</g>
<!-- Node15&#45;&gt;Node3 -->
<g id="edge21" class="edge">
<title>Node15&#45;&gt;Node3</title>
<path fill="none" stroke="#191970" d="M447.322,-299.1561C318.9288,-293.671 38,-272.1671 38,-189 38,-189 38,-189 38,-133 38,-81.0211 93.6011,-43.3361 130.0376,-24.2209"/>
<polygon fill="#191970" stroke="#191970" points="131.9462,-27.178 139.2932,-19.5443 128.7894,-20.9302 131.9462,-27.178"/>
</g>
<!-- Node15&#45;&gt;Node4 -->
<g id="edge22" class="edge">
<title>Node15&#45;&gt;Node4</title>
<path fill="none" stroke="#191970" d="M494.149,-291.2455C480.1868,-282.6534 459.6272,-270.0014 443.5404,-260.1018"/>
<polygon fill="#191970" stroke="#191970" points="445.0203,-256.9029 434.6693,-254.6427 441.3516,-262.8645 445.0203,-256.9029"/>
</g>
<!-- Node15&#45;&gt;Node11 -->
<g id="edge23" class="edge">
<title>Node15&#45;&gt;Node11</title>
<path fill="none" stroke="#191970" d="M534.1646,-291.4893C602.9824,-264.4648 806.006,-185.1599 976,-123 1021.5441,-106.3464 1050.9312,-126.5443 1079,-87 1086.9748,-75.7648 1088.272,-66.191 1079,-56 1051.3314,-25.5889 786.3785,-14.8512 659.7555,-11.4351"/>
<polygon fill="#191970" stroke="#191970" points="659.501,-7.9273 649.4127,-11.164 659.3176,-14.9249 659.501,-7.9273"/>
</g>
<!-- Node17 -->
<g id="node18" class="node">
<title>Node17</title>
<g id="a_node18"><a xlink:href="thread__types_8h.html" target="_top" xlink:title="ODP thread API types. ">
<polygon fill="#ffffff" stroke="#000000" points="804.5,-56.5 804.5,-86.5 917.5,-86.5 917.5,-56.5 804.5,-56.5"/>
<text text-anchor="start" x="812.5" y="-74.5" font-family="Helvetica,sans-Serif" font-size="10.00" fill="#000000">odp/api/spec/thread</text>
<text text-anchor="middle" x="861" y="-63.5" font-family="Helvetica,sans-Serif" font-size="10.00" fill="#000000">_types.h</text>
</a>
</g>
</g>
<!-- Node16&#45;&gt;Node17 -->
<g id="edge25" class="edge">
<title>Node16&#45;&gt;Node17</title>
<path fill="none" stroke="#191970" d="M829.7813,-123.3906C834.3251,-115.838 840.853,-104.9876 846.7659,-95.1593"/>
<polygon fill="#191970" stroke="#191970" points="849.7926,-96.9177 851.9488,-86.5446 843.7945,-93.309 849.7926,-96.9177"/>
</g>
<!-- Node18 -->
<g id="node19" class="node">
<title>Node18</title>
<polygon fill="#ffffff" stroke="#bfbfbf" points="672,-62 672,-81 786,-81 786,-62 672,-62"/>
<text text-anchor="middle" x="729" y="-69" font-family="Helvetica,sans-Serif" font-size="10.00" fill="#000000">odp/api/abi/thread.h</text>
</g>
<!-- Node16&#45;&gt;Node18 -->
<g id="edge26" class="edge">
<title>Node16&#45;&gt;Node18</title>
<path fill="none" stroke="#191970" d="M809.1563,-123.3906C793.9582,-113.5519 770.1152,-98.1167 752.3794,-86.6351"/>
<polygon fill="#191970" stroke="#191970" points="754.0361,-83.5382 743.7395,-81.0419 750.232,-89.4144 754.0361,-83.5382"/>
</g>
<!-- Node19 -->
<g id="node20" class="node">
<title>Node19</title>
<g id="a_node20"><a xlink:href="api_2spec_2thread_8h.html" target="_top" xlink:title="ODP thread API. ">
<polygon fill="#ffffff" stroke="#000000" points="532,-62 532,-81 654,-81 654,-62 532,-62"/>
<text text-anchor="middle" x="593" y="-69" font-family="Helvetica,sans-Serif" font-size="10.00" fill="#000000">odp/api/spec/thread.h</text>
</a>
</g>
</g>
<!-- Node16&#45;&gt;Node19 -->
<g id="edge27" class="edge">
<title>Node16&#45;&gt;Node19</title>
<path fill="none" stroke="#191970" d="M788.1597,-123.4581C747.9515,-112.7533 682.6309,-95.3628 638.7631,-83.6837"/>
<polygon fill="#191970" stroke="#191970" points="639.4882,-80.2549 628.9244,-81.0643 637.6873,-87.0193 639.4882,-80.2549"/>
</g>
<!-- Node19&#45;&gt;Node3 -->
<g id="edge28" class="edge">
<title>Node19&#45;&gt;Node3</title>
<path fill="none" stroke="#191970" d="M531.8882,-62.7129C516.5786,-60.5161 500.1891,-58.1682 485,-56 397.8444,-43.5588 297.4869,-29.3247 231.8442,-20.0267"/>
<polygon fill="#191970" stroke="#191970" points="232.0064,-16.5148 221.6143,-18.5778 231.0247,-23.4457 232.0064,-16.5148"/>
</g>
<!-- Node19&#45;&gt;Node11 -->
<g id="edge29" class="edge">
<title>Node19&#45;&gt;Node11</title>
<path fill="none" stroke="#191970" d="M593,-61.8906C593,-53.3657 593,-40.6392 593,-29.9235"/>
<polygon fill="#191970" stroke="#191970" points="596.5001,-29.7448 593,-19.7449 589.5001,-29.7449 596.5001,-29.7448"/>
</g>
<!-- Node21 -->
<g id="node22" class="node">
<title>Node21</title>
<polygon fill="#ffffff" stroke="#bfbfbf" points="1126.5,-62 1126.5,-81 1253.5,-81 1253.5,-62 1126.5,-62"/>
<text text-anchor="middle" x="1190" y="-69" font-family="Helvetica,sans-Serif" font-size="10.00" fill="#000000">odp/api/abi/cpumask.h</text>
</g>
<!-- Node20&#45;&gt;Node21 -->
<g id="edge31" class="edge">
<title>Node20&#45;&gt;Node21</title>
<path fill="none" stroke="#191970" d="M1063.4375,-123.3906C1088.6453,-113.0554 1128.9153,-96.5447 1157.2477,-84.9284"/>
<polygon fill="#191970" stroke="#191970" points="1158.8023,-88.0739 1166.7271,-81.0419 1156.1468,-81.5971 1158.8023,-88.0739"/>
</g>
<!-- Node22 -->
<g id="node23" class="node">
<title>Node22</title>
<g id="a_node23"><a xlink:href="api_2spec_2cpumask_8h.html" target="_top" xlink:title="ODP CPU masks and enumeration. ">
<polygon fill="#ffffff" stroke="#000000" points="936,-62 936,-81 1070,-81 1070,-62 936,-62"/>
<text text-anchor="middle" x="1003" y="-69" font-family="Helvetica,sans-Serif" font-size="10.00" fill="#000000">odp/api/spec/cpumask.h</text>
</a>
</g>
</g>
<!-- Node20&#45;&gt;Node22 -->
<g id="edge32" class="edge">
<title>Node20&#45;&gt;Node22</title>
<path fill="none" stroke="#191970" d="M1034.2188,-123.3906C1028.874,-114.5068 1020.7841,-101.0601 1014.1789,-90.0811"/>
<polygon fill="#191970" stroke="#191970" points="1017.0171,-88.0093 1008.8628,-81.2449 1011.0189,-91.618 1017.0171,-88.0093"/>
</g>
<!-- Node22&#45;&gt;Node3 -->
<g id="edge33" class="edge">
<title>Node22&#45;&gt;Node3</title>
<path fill="none" stroke="#191970" d="M961.2146,-61.9929C949.844,-59.7062 937.4939,-57.4951 926,-56 672.0332,-22.9646 367.4888,-13.6016 232.0045,-10.9891"/>
<polygon fill="#191970" stroke="#191970" points="231.8271,-7.4853 221.7636,-10.7984 231.6967,-14.4841 231.8271,-7.4853"/>
</g>
<!-- Node22&#45;&gt;Node11 -->
<g id="edge34" class="edge">
<title>Node22&#45;&gt;Node11</title>
<path fill="none" stroke="#191970" d="M957.8915,-61.9377C947.443,-59.8569 936.3521,-57.7552 926,-56 833.7788,-40.3635 726.5089,-26.2759 659.1799,-17.9266"/>
<polygon fill="#191970" stroke="#191970" points="659.4876,-14.4381 649.1342,-16.6867 658.6301,-21.3854 659.4876,-14.4381"/>
</g>
</g>
</svg>
