<?xml version="1.0" encoding="UTF-8" standalone="no"?>
<!DOCTYPE svg PUBLIC "-//W3C//DTD SVG 1.1//EN"
 "http://www.w3.org/Graphics/SVG/1.1/DTD/svg11.dtd">
<!-- Generated by graphviz version 2.40.1 (20161225.0304)
 -->
<!-- Title: event.h Pages: 1 -->
<svg width="1108pt" height="476pt"
 viewBox="0.00 0.00 1108.00 476.00" xmlns="http://www.w3.org/2000/svg" xmlns:xlink="http://www.w3.org/1999/xlink">
<g id="graph0" class="graph" transform="scale(1 1) rotate(0) translate(4 472)">
<title>event.h</title>
<polygon fill="#ffffff" stroke="transparent" points="-4,4 -4,-472 1104,-472 1104,4 -4,4"/>
<!-- Node0 -->
<g id="node1" class="node">
<title>Node0</title>
<polygon fill="#bfbfbf" stroke="#000000" points="532.5,-448.5 532.5,-467.5 585.5,-467.5 585.5,-448.5 532.5,-448.5"/>
<text text-anchor="middle" x="559" y="-455.5" font-family="Helvetica,sans-Serif" font-size="10.00" fill="#000000">event.h</text>
</g>
<!-- Node1 -->
<g id="node2" class="node">
<title>Node1</title>
<g id="a_node2"><a xlink:href="visibility__begin_8h_source.html" target="_top" xlink:title="odp/visibility_begin.h">
<polygon fill="#ffffff" stroke="#000000" points="535.5,-.5 535.5,-19.5 656.5,-19.5 656.5,-.5 535.5,-.5"/>
<text text-anchor="middle" x="596" y="-7.5" font-family="Helvetica,sans-Serif" font-size="10.00" fill="#000000">odp/visibility_begin.h</text>
</a>
</g>
</g>
<!-- Node0&#45;&gt;Node1 -->
<g id="edge1" class="edge">
<title>Node0&#45;&gt;Node1</title>
<path fill="none" stroke="#191970" d="M532.4143,-455.5409C421.3232,-444.9158 0,-400.9943 0,-346 0,-346 0,-346 0,-122 0,-69.1049 367.2798,-30.2372 525.2025,-15.9697"/>
<polygon fill="#191970" stroke="#191970" points="525.6479,-19.4439 535.2957,-15.0656 525.0233,-12.4718 525.6479,-19.4439"/>
</g>
<!-- Node2 -->
<g id="node3" class="node">
<title>Node2</title>
<g id="a_node3"><a xlink:href="api_2packet_8h.html" target="_top" xlink:title="ODP packet descriptor. ">
<polygon fill="#ffffff" stroke="#000000" points="510,-392.5 510,-411.5 608,-411.5 608,-392.5 510,-392.5"/>
<text text-anchor="middle" x="559" y="-399.5" font-family="Helvetica,sans-Serif" font-size="10.00" fill="#000000">odp/api/packet.h</text>
</a>
</g>
</g>
<!-- Node0&#45;&gt;Node2 -->
<g id="edge2" class="edge">
<title>Node0&#45;&gt;Node2</title>
<path fill="none" stroke="#191970" d="M559,-448.2455C559,-440.9382 559,-430.6944 559,-421.7046"/>
<polygon fill="#191970" stroke="#191970" points="562.5001,-421.6426 559,-411.6427 555.5001,-421.6427 562.5001,-421.6426"/>
</g>
<!-- Node10 -->
<g id="node11" class="node">
<title>Node10</title>
<g id="a_node11"><a xlink:href="visibility__end_8h_source.html" target="_top" xlink:title="odp/visibility_end.h">
<polygon fill="#ffffff" stroke="#000000" points="921,-.5 921,-19.5 1033,-19.5 1033,-.5 921,-.5"/>
<text text-anchor="middle" x="977" y="-7.5" font-family="Helvetica,sans-Serif" font-size="10.00" fill="#000000">odp/visibility_end.h</text>
</a>
</g>
</g>
<!-- Node0&#45;&gt;Node10 -->
<g id="edge29" class="edge">
<title>Node0&#45;&gt;Node10</title>
<path fill="none" stroke="#191970" d="M585.8283,-455.3398C694.9909,-444.1622 1100,-399.1131 1100,-346 1100,-346 1100,-346 1100,-122 1100,-73.8817 1047.9004,-40.9564 1011.5167,-23.8297"/>
<polygon fill="#191970" stroke="#191970" points="1012.742,-20.5428 1002.1877,-19.6172 1009.8612,-26.9225 1012.742,-20.5428"/>
</g>
<!-- Node3 -->
<g id="node4" class="node">
<title>Node3</title>
<g id="a_node4"><a xlink:href="api_2std__types_8h.html" target="_top" xlink:title="Standard C language types and definitions for ODP. ">
<polygon fill="#ffffff" stroke="#000000" points="646,-224.5 646,-243.5 758,-243.5 758,-224.5 646,-224.5"/>
<text text-anchor="middle" x="702" y="-231.5" font-family="Helvetica,sans-Serif" font-size="10.00" fill="#000000">odp/api/std_types.h</text>
</a>
</g>
</g>
<!-- Node2&#45;&gt;Node3 -->
<g id="edge3" class="edge">
<title>Node2&#45;&gt;Node3</title>
<path fill="none" stroke="#191970" d="M608.2921,-395.7935C634.3704,-389.8979 664.6953,-378.4044 683,-356 706.8646,-326.7906 706.8991,-280.0967 704.5879,-253.7541"/>
<polygon fill="#191970" stroke="#191970" points="708.0357,-253.0831 703.4774,-243.519 701.0766,-253.8382 708.0357,-253.0831"/>
</g>
<!-- Node11 -->
<g id="node12" class="node">
<title>Node11</title>
<polygon fill="#ffffff" stroke="#bfbfbf" points="872,-336.5 872,-355.5 982,-355.5 982,-336.5 872,-336.5"/>
<text text-anchor="middle" x="927" y="-343.5" font-family="Helvetica,sans-Serif" font-size="10.00" fill="#000000">odp/api/abi/event.h</text>
</g>
<!-- Node2&#45;&gt;Node11 -->
<g id="edge14" class="edge">
<title>Node2&#45;&gt;Node11</title>
<path fill="none" stroke="#191970" d="M608.2419,-394.6235C666.3193,-385.9068 766.0667,-370.8841 861.7081,-356.1934"/>
<polygon fill="#191970" stroke="#191970" points="862.4925,-359.614 871.8446,-354.6353 861.4289,-352.6953 862.4925,-359.614"/>
</g>
<!-- Node12 -->
<g id="node13" class="node">
<title>Node12</title>
<polygon fill="#ffffff" stroke="#bfbfbf" points="28,-336.5 28,-355.5 158,-355.5 158,-336.5 28,-336.5"/>
<text text-anchor="middle" x="93" y="-343.5" font-family="Helvetica,sans-Serif" font-size="10.00" fill="#000000">odp/api/abi/packet_io.h</text>
</g>
<!-- Node2&#45;&gt;Node12 -->
<g id="edge15" class="edge">
<title>Node2&#45;&gt;Node12</title>
<path fill="none" stroke="#191970" d="M509.7695,-396.503C437.3448,-388.3543 297.5489,-372.3912 168.4302,-356.1645"/>
<polygon fill="#191970" stroke="#191970" points="168.721,-352.6735 158.3619,-354.8958 167.8458,-359.6186 168.721,-352.6735"/>
</g>
<!-- Node13 -->
<g id="node14" class="node">
<title>Node13</title>
<polygon fill="#ffffff" stroke="#bfbfbf" points="176,-336.5 176,-355.5 292,-355.5 292,-336.5 176,-336.5"/>
<text text-anchor="middle" x="234" y="-343.5" font-family="Helvetica,sans-Serif" font-size="10.00" fill="#000000">odp/api/abi/packet.h</text>
</g>
<!-- Node2&#45;&gt;Node13 -->
<g id="edge16" class="edge">
<title>Node2&#45;&gt;Node13</title>
<path fill="none" stroke="#191970" d="M509.9923,-393.5556C453.8882,-383.8884 361.7338,-368.0095 299.5067,-357.2873"/>
<polygon fill="#191970" stroke="#191970" points="299.8528,-353.7954 289.4037,-355.5465 298.6641,-360.6938 299.8528,-353.7954"/>
</g>
<!-- Node14 -->
<g id="node15" class="node">
<title>Node14</title>
<polygon fill="#ffffff" stroke="#bfbfbf" points="310.5,-336.5 310.5,-355.5 423.5,-355.5 423.5,-336.5 310.5,-336.5"/>
<text text-anchor="middle" x="367" y="-343.5" font-family="Helvetica,sans-Serif" font-size="10.00" fill="#000000">odp/api/abi/queue.h</text>
</g>
<!-- Node2&#45;&gt;Node14 -->
<g id="edge17" class="edge">
<title>Node2&#45;&gt;Node14</title>
<path fill="none" stroke="#191970" d="M525.994,-392.3733C493.7909,-382.9807 444.6558,-368.6496 409.5361,-358.4064"/>
<polygon fill="#191970" stroke="#191970" points="410.1553,-354.9412 399.5753,-355.5011 408.1953,-361.6612 410.1553,-354.9412"/>
</g>
<!-- Node15 -->
<g id="node16" class="node">
<title>Node15</title>
<polygon fill="#ffffff" stroke="#bfbfbf" points="442,-336.5 442,-355.5 552,-355.5 552,-336.5 442,-336.5"/>
<text text-anchor="middle" x="497" y="-343.5" font-family="Helvetica,sans-Serif" font-size="10.00" fill="#000000">odp/api/abi/buffer.h</text>
</g>
<!-- Node2&#45;&gt;Node15 -->
<g id="edge18" class="edge">
<title>Node2&#45;&gt;Node15</title>
<path fill="none" stroke="#191970" d="M548.2004,-392.2455C539.1322,-384.0549 525.9794,-372.1749 515.2755,-362.5069"/>
<polygon fill="#191970" stroke="#191970" points="517.4429,-359.7482 507.6758,-355.6427 512.7509,-364.9429 517.4429,-359.7482"/>
</g>
<!-- Node16 -->
<g id="node17" class="node">
<title>Node16</title>
<polygon fill="#ffffff" stroke="#bfbfbf" points="570,-336.5 570,-355.5 674,-355.5 674,-336.5 570,-336.5"/>
<text text-anchor="middle" x="622" y="-343.5" font-family="Helvetica,sans-Serif" font-size="10.00" fill="#000000">odp/api/abi/pool.h</text>
</g>
<!-- Node2&#45;&gt;Node16 -->
<g id="edge19" class="edge">
<title>Node2&#45;&gt;Node16</title>
<path fill="none" stroke="#191970" d="M569.9738,-392.2455C579.1882,-384.0549 592.5532,-372.1749 603.4297,-362.5069"/>
<polygon fill="#191970" stroke="#191970" points="606.0032,-364.9023 611.152,-355.6427 601.3526,-359.6704 606.0032,-364.9023"/>
</g>
<!-- Node17 -->
<g id="node18" class="node">
<title>Node17</title>
<g id="a_node18"><a xlink:href="api_2spec_2packet_8h.html" target="_top" xlink:title="ODP packet descriptor. ">
<polygon fill="#ffffff" stroke="#000000" points="730.5,-336.5 730.5,-355.5 853.5,-355.5 853.5,-336.5 730.5,-336.5"/>
<text text-anchor="middle" x="792" y="-343.5" font-family="Helvetica,sans-Serif" font-size="10.00" fill="#000000">odp/api/spec/packet.h</text>
</a>
</g>
</g>
<!-- Node2&#45;&gt;Node17 -->
<g id="edge20" class="edge">
<title>Node2&#45;&gt;Node17</title>
<path fill="none" stroke="#191970" d="M598.7894,-392.4369C638.498,-382.8932 699.6104,-368.2052 742.4455,-357.9101"/>
<polygon fill="#191970" stroke="#191970" points="743.4695,-361.2637 752.3747,-355.5237 741.8337,-354.4575 743.4695,-361.2637"/>
</g>
<!-- Node4 -->
<g id="node5" class="node">
<title>Node4</title>
<polygon fill="#ffffff" stroke="#bfbfbf" points="588,-168.5 588,-187.5 718,-187.5 718,-168.5 588,-168.5"/>
<text text-anchor="middle" x="653" y="-175.5" font-family="Helvetica,sans-Serif" font-size="10.00" fill="#000000">odp/api/abi/std_types.h</text>
</g>
<!-- Node3&#45;&gt;Node4 -->
<g id="edge4" class="edge">
<title>Node3&#45;&gt;Node4</title>
<path fill="none" stroke="#191970" d="M693.4649,-224.2455C686.5088,-216.2958 676.5117,-204.8706 668.1949,-195.3656"/>
<polygon fill="#191970" stroke="#191970" points="670.6564,-192.8637 661.4373,-187.6427 665.3884,-197.4732 670.6564,-192.8637"/>
</g>
<!-- Node5 -->
<g id="node6" class="node">
<title>Node5</title>
<g id="a_node6"><a xlink:href="api_2spec_2std__types_8h.html" target="_top" xlink:title="Standard C language types and definitions for ODP. ">
<polygon fill="#ffffff" stroke="#000000" points="736.5,-168.5 736.5,-187.5 873.5,-187.5 873.5,-168.5 736.5,-168.5"/>
<text text-anchor="middle" x="805" y="-175.5" font-family="Helvetica,sans-Serif" font-size="10.00" fill="#000000">odp/api/spec/std_types.h</text>
</a>
</g>
</g>
<!-- Node3&#45;&gt;Node5 -->
<g id="edge5" class="edge">
<title>Node3&#45;&gt;Node5</title>
<path fill="none" stroke="#191970" d="M719.9412,-224.2455C736.04,-215.4928 759.8879,-202.527 778.2391,-192.5496"/>
<polygon fill="#191970" stroke="#191970" points="780.1507,-195.4942 787.2644,-187.6427 776.8071,-189.3444 780.1507,-195.4942"/>
</g>
<!-- Node5&#45;&gt;Node1 -->
<g id="edge6" class="edge">
<title>Node5&#45;&gt;Node1</title>
<path fill="none" stroke="#191970" d="M764.0462,-168.4671C719.1646,-155.666 649.0282,-128.2286 615,-76 605.858,-61.9682 601.0282,-43.4666 598.5307,-29.6236"/>
<polygon fill="#191970" stroke="#191970" points="601.9821,-29.04 596.99,-19.6949 595.0649,-30.1134 601.9821,-29.04"/>
</g>
<!-- Node6 -->
<g id="node7" class="node">
<title>Node6</title>
<polygon fill="#ffffff" stroke="#bfbfbf" points="691.5,-112.5 691.5,-131.5 744.5,-131.5 744.5,-112.5 691.5,-112.5"/>
<text text-anchor="middle" x="718" y="-119.5" font-family="Helvetica,sans-Serif" font-size="10.00" fill="#000000">stdint.h</text>
</g>
<!-- Node5&#45;&gt;Node6 -->
<g id="edge7" class="edge">
<title>Node5&#45;&gt;Node6</title>
<path fill="none" stroke="#191970" d="M789.8458,-168.2455C776.4973,-159.6534 756.8414,-147.0014 741.4617,-137.1018"/>
<polygon fill="#191970" stroke="#191970" points="743.2836,-134.1121 732.9806,-131.6427 739.4949,-139.9982 743.2836,-134.1121"/>
</g>
<!-- Node7 -->
<g id="node8" class="node">
<title>Node7</title>
<g id="a_node8"><a xlink:href="api_2align_8h.html" target="_top" xlink:title="ODP alignments. ">
<polygon fill="#ffffff" stroke="#000000" points="762.5,-112.5 762.5,-131.5 851.5,-131.5 851.5,-112.5 762.5,-112.5"/>
<text text-anchor="middle" x="807" y="-119.5" font-family="Helvetica,sans-Serif" font-size="10.00" fill="#000000">odp/api/align.h</text>
</a>
</g>
</g>
<!-- Node5&#45;&gt;Node7 -->
<g id="edge8" class="edge">
<title>Node5&#45;&gt;Node7</title>
<path fill="none" stroke="#191970" d="M805.3484,-168.2455C805.6093,-160.9382 805.9752,-150.6944 806.2963,-141.7046"/>
<polygon fill="#191970" stroke="#191970" points="809.7964,-141.7613 806.6556,-131.6427 802.8008,-141.5113 809.7964,-141.7613"/>
</g>
<!-- Node5&#45;&gt;Node10 -->
<g id="edge13" class="edge">
<title>Node5&#45;&gt;Node10</title>
<path fill="none" stroke="#191970" d="M818.5591,-168.3289C830.2766,-159.5989 847.2815,-146.0088 860,-132 887.511,-101.6981 883.2897,-85.1681 912,-56 923.7057,-44.1076 938.8231,-33.2035 951.5327,-24.9994"/>
<polygon fill="#191970" stroke="#191970" points="953.6576,-27.7986 960.2785,-19.5273 949.9446,-21.8644 953.6576,-27.7986"/>
</g>
<!-- Node8 -->
<g id="node9" class="node">
<title>Node8</title>
<polygon fill="#ffffff" stroke="#bfbfbf" points="756.5,-56.5 756.5,-75.5 863.5,-75.5 863.5,-56.5 756.5,-56.5"/>
<text text-anchor="middle" x="810" y="-63.5" font-family="Helvetica,sans-Serif" font-size="10.00" fill="#000000">odp/api/abi/align.h</text>
</g>
<!-- Node7&#45;&gt;Node8 -->
<g id="edge9" class="edge">
<title>Node7&#45;&gt;Node8</title>
<path fill="none" stroke="#191970" d="M807.5226,-112.2455C807.914,-104.9382 808.4628,-94.6944 808.9444,-85.7046"/>
<polygon fill="#191970" stroke="#191970" points="812.4434,-85.8156 809.4834,-75.6427 805.4534,-85.4411 812.4434,-85.8156"/>
</g>
<!-- Node9 -->
<g id="node10" class="node">
<title>Node9</title>
<g id="a_node10"><a xlink:href="api_2spec_2align_8h.html" target="_top" xlink:title="ODP alignments. ">
<polygon fill="#ffffff" stroke="#000000" points="624,-56.5 624,-75.5 738,-75.5 738,-56.5 624,-56.5"/>
<text text-anchor="middle" x="681" y="-63.5" font-family="Helvetica,sans-Serif" font-size="10.00" fill="#000000">odp/api/spec/align.h</text>
</a>
</g>
</g>
<!-- Node7&#45;&gt;Node9 -->
<g id="edge10" class="edge">
<title>Node7&#45;&gt;Node9</title>
<path fill="none" stroke="#191970" d="M785.3398,-112.3733C765.0228,-103.3435 734.436,-89.7494 711.625,-79.6111"/>
<polygon fill="#191970" stroke="#191970" points="712.9372,-76.3642 702.3775,-75.5011 710.0941,-82.7609 712.9372,-76.3642"/>
</g>
<!-- Node9&#45;&gt;Node1 -->
<g id="edge11" class="edge">
<title>Node9&#45;&gt;Node1</title>
<path fill="none" stroke="#191970" d="M666.1941,-56.2455C653.2744,-47.7337 634.3069,-35.2375 619.3448,-25.3801"/>
<polygon fill="#191970" stroke="#191970" points="620.9124,-22.2216 610.6362,-19.6427 617.0613,-28.067 620.9124,-22.2216"/>
</g>
<!-- Node9&#45;&gt;Node10 -->
<g id="edge12" class="edge">
<title>Node9&#45;&gt;Node10</title>
<path fill="none" stroke="#191970" d="M731.5479,-56.4369C782.8445,-46.7321 862.2579,-31.708 916.7818,-21.3926"/>
<polygon fill="#191970" stroke="#191970" points="917.4855,-24.8217 926.6606,-19.5237 916.1842,-17.9437 917.4855,-24.8217"/>
</g>
<!-- Node17&#45;&gt;Node1 -->
<g id="edge21" class="edge">
<title>Node17&#45;&gt;Node1</title>
<path fill="none" stroke="#191970" d="M764.8111,-336.4207C715.5513,-317.3099 613.4548,-269.1603 579,-188 556.1224,-134.1103 576.1775,-63.0196 588.3257,-29.3168"/>
<polygon fill="#191970" stroke="#191970" points="591.6769,-30.3491 591.9276,-19.7572 585.1264,-27.8809 591.6769,-30.3491"/>
</g>
<!-- Node17&#45;&gt;Node10 -->
<g id="edge28" class="edge">
<title>Node17&#45;&gt;Node10</title>
<path fill="none" stroke="#191970" d="M839.6491,-336.4535C917.1607,-319.5422 1062,-281.5762 1062,-234 1062,-234 1062,-234 1062,-122 1062,-91.4754 1060.7658,-80.822 1043,-56 1033.7115,-43.0223 1019.5658,-32.4653 1006.7494,-24.7535"/>
<polygon fill="#191970" stroke="#191970" points="1008.1661,-21.5334 997.7405,-19.6471 1004.7142,-27.6232 1008.1661,-21.5334"/>
</g>
<!-- Node18 -->
<g id="node19" class="node">
<title>Node18</title>
<g id="a_node19"><a xlink:href="api_2time_8h.html" target="_top" xlink:title="ODP time. ">
<polygon fill="#ffffff" stroke="#000000" points="776.5,-280.5 776.5,-299.5 863.5,-299.5 863.5,-280.5 776.5,-280.5"/>
<text text-anchor="middle" x="820" y="-287.5" font-family="Helvetica,sans-Serif" font-size="10.00" fill="#000000">odp/api/time.h</text>
</a>
</g>
</g>
<!-- Node17&#45;&gt;Node18 -->
<g id="edge22" class="edge">
<title>Node17&#45;&gt;Node18</title>
<path fill="none" stroke="#191970" d="M796.8772,-336.2455C800.6513,-328.6973 805.9921,-318.0158 810.5901,-308.8197"/>
<polygon fill="#191970" stroke="#191970" points="813.837,-310.1522 815.1787,-299.6427 807.576,-307.0217 813.837,-310.1522"/>
</g>
<!-- Node18&#45;&gt;Node3 -->
<g id="edge23" class="edge">
<title>Node18&#45;&gt;Node3</title>
<path fill="none" stroke="#191970" d="M799.7151,-280.3733C780.8579,-271.4241 752.554,-257.9917 731.2545,-247.8835"/>
<polygon fill="#191970" stroke="#191970" points="732.5551,-244.6266 722.0202,-243.5011 729.5539,-250.9506 732.5551,-244.6266"/>
</g>
<!-- Node19 -->
<g id="node20" class="node">
<title>Node19</title>
<polygon fill="#ffffff" stroke="#bfbfbf" points="776.5,-224.5 776.5,-243.5 881.5,-243.5 881.5,-224.5 776.5,-224.5"/>
<text text-anchor="middle" x="829" y="-231.5" font-family="Helvetica,sans-Serif" font-size="10.00" fill="#000000">odp/api/abi/time.h</text>
</g>
<!-- Node18&#45;&gt;Node19 -->
<g id="edge24" class="edge">
<title>Node18&#45;&gt;Node19</title>
<path fill="none" stroke="#191970" d="M821.5677,-280.2455C822.7421,-272.9382 824.3884,-262.6944 825.8332,-253.7046"/>
<polygon fill="#191970" stroke="#191970" points="829.3191,-254.0714 827.4503,-243.6427 822.4078,-252.9606 829.3191,-254.0714"/>
</g>
<!-- Node20 -->
<g id="node21" class="node">
<title>Node20</title>
<g id="a_node21"><a xlink:href="api_2spec_2time_8h.html" target="_top" xlink:title="ODP time. ">
<polygon fill="#ffffff" stroke="#000000" points="920.5,-56.5 920.5,-75.5 1033.5,-75.5 1033.5,-56.5 920.5,-56.5"/>
<text text-anchor="middle" x="977" y="-63.5" font-family="Helvetica,sans-Serif" font-size="10.00" fill="#000000">odp/api/spec/time.h</text>
</a>
</g>
</g>
<!-- Node18&#45;&gt;Node20 -->
<g id="edge25" class="edge">
<title>Node18&#45;&gt;Node20</title>
<path fill="none" stroke="#191970" d="M840.8432,-280.3964C856.291,-272.4311 877.0067,-259.8587 891,-244 934.2339,-195.0027 960.7286,-120.4292 971.4689,-85.4251"/>
<polygon fill="#191970" stroke="#191970" points="974.9148,-86.1155 974.4036,-75.533 968.2039,-84.1245 974.9148,-86.1155"/>
</g>
<!-- Node20&#45;&gt;Node1 -->
<g id="edge26" class="edge">
<title>Node20&#45;&gt;Node1</title>
<path fill="none" stroke="#191970" d="M920.3719,-57.6767C852.8598,-47.7537 739.9891,-31.1637 666.7813,-20.4036"/>
<polygon fill="#191970" stroke="#191970" points="667.1262,-16.9167 656.7235,-18.9252 666.1082,-23.8423 667.1262,-16.9167"/>
</g>
<!-- Node20&#45;&gt;Node10 -->
<g id="edge27" class="edge">
<title>Node20&#45;&gt;Node10</title>
<path fill="none" stroke="#191970" d="M977,-56.2455C977,-48.9382 977,-38.6944 977,-29.7046"/>
<polygon fill="#191970" stroke="#191970" points="980.5001,-29.6426 977,-19.6427 973.5001,-29.6427 980.5001,-29.6426"/>
</g>
</g>
</svg>
