<?xml version="1.0" encoding="UTF-8" standalone="no"?>
<!DOCTYPE svg PUBLIC "-//W3C//DTD SVG 1.1//EN"
 "http://www.w3.org/Graphics/SVG/1.1/DTD/svg11.dtd">
<!-- Generated by graphviz version 2.40.1 (20161225.0304)
 -->
<!-- Title: align.h Pages: 1 -->
<svg width="2535pt" height="588pt"
 viewBox="0.00 0.00 2534.50 588.00" xmlns="http://www.w3.org/2000/svg" xmlns:xlink="http://www.w3.org/1999/xlink">
<g id="graph0" class="graph" transform="scale(1 1) rotate(0) translate(4 584)">
<title>align.h</title>
<polygon fill="#ffffff" stroke="transparent" points="-4,4 -4,-584 2530.5,-584 2530.5,4 -4,4"/>
<!-- Node2 -->
<g id="node1" class="node">
<title>Node2</title>
<polygon fill="#bfbfbf" stroke="#000000" points="1016.5,-560.5 1016.5,-579.5 1066.5,-579.5 1066.5,-560.5 1016.5,-560.5"/>
<text text-anchor="middle" x="1041.5" y="-567.5" font-family="Helvetica,sans-Serif" font-size="10.00" fill="#000000">align.h</text>
</g>
<!-- Node3 -->
<g id="node2" class="node">
<title>Node3</title>
<g id="a_node2"><a xlink:href="arch_2arm32-linux_2odp_2api_2abi_2align_8h_source.html" target="_top" xlink:title="align.h">
<polygon fill="#ffffff" stroke="#000000" points="812.5,-504.5 812.5,-523.5 862.5,-523.5 862.5,-504.5 812.5,-504.5"/>
<text text-anchor="middle" x="837.5" y="-511.5" font-family="Helvetica,sans-Serif" font-size="10.00" fill="#000000">align.h</text>
</a>
</g>
</g>
<!-- Node2&#45;&gt;Node3 -->
<g id="edge1" class="edge">
<title>Node2&#45;&gt;Node3</title>
<path fill="none" stroke="#191970" d="M1006.3669,-560.7327C971.9476,-551.5972 918.0331,-537.1371 871.5,-524 868.6578,-523.1976 865.686,-522.3445 862.7333,-521.488"/>
<polygon fill="#191970" stroke="#191970" points="1005.8303,-564.2112 1016.3932,-563.3895 1007.6234,-557.4447 1005.8303,-564.2112"/>
</g>
<!-- Node4 -->
<g id="node3" class="node">
<title>Node4</title>
<g id="a_node3"><a xlink:href="arch_2arm64-linux_2odp_2api_2abi_2align_8h_source.html" target="_top" xlink:title="align.h">
<polygon fill="#ffffff" stroke="#000000" points="880.5,-504.5 880.5,-523.5 930.5,-523.5 930.5,-504.5 880.5,-504.5"/>
<text text-anchor="middle" x="905.5" y="-511.5" font-family="Helvetica,sans-Serif" font-size="10.00" fill="#000000">align.h</text>
</a>
</g>
</g>
<!-- Node2&#45;&gt;Node4 -->
<g id="edge2" class="edge">
<title>Node2&#45;&gt;Node4</title>
<path fill="none" stroke="#191970" d="M1008.7601,-556.5189C983.9917,-546.3201 950.595,-532.5685 928.5742,-523.5011"/>
<polygon fill="#191970" stroke="#191970" points="1007.5413,-559.8021 1018.1208,-560.3733 1010.2066,-553.3293 1007.5413,-559.8021"/>
</g>
<!-- Node5 -->
<g id="node4" class="node">
<title>Node5</title>
<g id="a_node4"><a xlink:href="arch_2default-linux_2odp_2api_2abi_2align_8h_source.html" target="_top" xlink:title="align.h">
<polygon fill="#ffffff" stroke="#000000" points="948.5,-504.5 948.5,-523.5 998.5,-523.5 998.5,-504.5 948.5,-504.5"/>
<text text-anchor="middle" x="973.5" y="-511.5" font-family="Helvetica,sans-Serif" font-size="10.00" fill="#000000">align.h</text>
</a>
</g>
</g>
<!-- Node2&#45;&gt;Node5 -->
<g id="edge3" class="edge">
<title>Node2&#45;&gt;Node5</title>
<path fill="none" stroke="#191970" d="M1021.6404,-553.645C1009.8142,-543.9058 995.2108,-531.8795 985.209,-523.6427"/>
<polygon fill="#191970" stroke="#191970" points="1019.711,-556.5902 1029.6553,-560.2455 1024.161,-551.1867 1019.711,-556.5902"/>
</g>
<!-- Node6 -->
<g id="node5" class="node">
<title>Node6</title>
<g id="a_node5"><a xlink:href="arch_2mips64-linux_2odp_2api_2abi_2align_8h_source.html" target="_top" xlink:title="align.h">
<polygon fill="#ffffff" stroke="#000000" points="1016.5,-504.5 1016.5,-523.5 1066.5,-523.5 1066.5,-504.5 1016.5,-504.5"/>
<text text-anchor="middle" x="1041.5" y="-511.5" font-family="Helvetica,sans-Serif" font-size="10.00" fill="#000000">align.h</text>
</a>
</g>
</g>
<!-- Node2&#45;&gt;Node6 -->
<g id="edge4" class="edge">
<title>Node2&#45;&gt;Node6</title>
<path fill="none" stroke="#191970" d="M1041.5,-550.1575C1041.5,-541.155 1041.5,-530.9199 1041.5,-523.6427"/>
<polygon fill="#191970" stroke="#191970" points="1038.0001,-550.2455 1041.5,-560.2455 1045.0001,-550.2456 1038.0001,-550.2455"/>
</g>
<!-- Node7 -->
<g id="node6" class="node">
<title>Node7</title>
<g id="a_node6"><a xlink:href="arch_2power64-linux_2odp_2api_2abi_2align_8h_source.html" target="_top" xlink:title="align.h">
<polygon fill="#ffffff" stroke="#000000" points="1084.5,-504.5 1084.5,-523.5 1134.5,-523.5 1134.5,-504.5 1084.5,-504.5"/>
<text text-anchor="middle" x="1109.5" y="-511.5" font-family="Helvetica,sans-Serif" font-size="10.00" fill="#000000">align.h</text>
</a>
</g>
</g>
<!-- Node2&#45;&gt;Node7 -->
<g id="edge5" class="edge">
<title>Node2&#45;&gt;Node7</title>
<path fill="none" stroke="#191970" d="M1061.3596,-553.645C1073.1858,-543.9058 1087.7892,-531.8795 1097.791,-523.6427"/>
<polygon fill="#191970" stroke="#191970" points="1058.839,-551.1867 1053.3447,-560.2455 1063.289,-556.5902 1058.839,-551.1867"/>
</g>
<!-- Node8 -->
<g id="node7" class="node">
<title>Node8</title>
<g id="a_node7"><a xlink:href="arch_2x86__32-linux_2odp_2api_2abi_2align_8h_source.html" target="_top" xlink:title="align.h">
<polygon fill="#ffffff" stroke="#000000" points="1152.5,-504.5 1152.5,-523.5 1202.5,-523.5 1202.5,-504.5 1152.5,-504.5"/>
<text text-anchor="middle" x="1177.5" y="-511.5" font-family="Helvetica,sans-Serif" font-size="10.00" fill="#000000">align.h</text>
</a>
</g>
</g>
<!-- Node2&#45;&gt;Node8 -->
<g id="edge6" class="edge">
<title>Node2&#45;&gt;Node8</title>
<path fill="none" stroke="#191970" d="M1074.2399,-556.5189C1099.0083,-546.3201 1132.405,-532.5685 1154.4258,-523.5011"/>
<polygon fill="#191970" stroke="#191970" points="1072.7934,-553.3293 1064.8792,-560.3733 1075.4587,-559.8021 1072.7934,-553.3293"/>
</g>
<!-- Node9 -->
<g id="node8" class="node">
<title>Node9</title>
<g id="a_node8"><a xlink:href="arch_2x86__64-linux_2odp_2api_2abi_2align_8h_source.html" target="_top" xlink:title="align.h">
<polygon fill="#ffffff" stroke="#000000" points="1220.5,-504.5 1220.5,-523.5 1270.5,-523.5 1270.5,-504.5 1220.5,-504.5"/>
<text text-anchor="middle" x="1245.5" y="-511.5" font-family="Helvetica,sans-Serif" font-size="10.00" fill="#000000">align.h</text>
</a>
</g>
</g>
<!-- Node2&#45;&gt;Node9 -->
<g id="edge7" class="edge">
<title>Node2&#45;&gt;Node9</title>
<path fill="none" stroke="#191970" d="M1076.6331,-560.7327C1111.0524,-551.5972 1164.9669,-537.1371 1211.5,-524 1214.3422,-523.1976 1217.314,-522.3445 1220.2667,-521.488"/>
<polygon fill="#191970" stroke="#191970" points="1075.3766,-557.4447 1066.6068,-563.3895 1077.1697,-564.2112 1075.3766,-557.4447"/>
</g>
<!-- Node10 -->
<g id="node9" class="node">
<title>Node10</title>
<g id="a_node9"><a xlink:href="api_2align_8h.html" target="_top" xlink:title="ODP alignments. ">
<polygon fill="#ffffff" stroke="#000000" points="1220.5,-448.5 1220.5,-467.5 1270.5,-467.5 1270.5,-448.5 1220.5,-448.5"/>
<text text-anchor="middle" x="1245.5" y="-455.5" font-family="Helvetica,sans-Serif" font-size="10.00" fill="#000000">align.h</text>
</a>
</g>
</g>
<!-- Node9&#45;&gt;Node10 -->
<g id="edge8" class="edge">
<title>Node9&#45;&gt;Node10</title>
<path fill="none" stroke="#191970" d="M1245.5,-494.1575C1245.5,-485.155 1245.5,-474.9199 1245.5,-467.6427"/>
<polygon fill="#191970" stroke="#191970" points="1242.0001,-494.2455 1245.5,-504.2455 1249.0001,-494.2456 1242.0001,-494.2455"/>
</g>
<!-- Node11 -->
<g id="node10" class="node">
<title>Node11</title>
<g id="a_node10"><a xlink:href="api_2abi-default_2atomic_8h.html" target="_top" xlink:title="ODP atomic operations. ">
<polygon fill="#ffffff" stroke="#000000" points="308,-280.5 308,-299.5 367,-299.5 367,-280.5 308,-280.5"/>
<text text-anchor="middle" x="337.5" y="-287.5" font-family="Helvetica,sans-Serif" font-size="10.00" fill="#000000">atomic.h</text>
</a>
</g>
</g>
<!-- Node10&#45;&gt;Node11 -->
<g id="edge9" class="edge">
<title>Node10&#45;&gt;Node11</title>
<path fill="none" stroke="#191970" d="M1210.0136,-451.4342C1062.9159,-424.2179 502.4481,-320.519 367.0651,-295.4702"/>
<polygon fill="#191970" stroke="#191970" points="1209.7973,-454.9535 1220.2672,-453.3314 1211.0709,-448.0704 1209.7973,-454.9535"/>
</g>
<!-- Node29 -->
<g id="node21" class="node">
<title>Node29</title>
<g id="a_node21"><a xlink:href="odp__api_8h.html" target="_top" xlink:title="The OpenDataPlane API. ">
<polygon fill="#ffffff" stroke="#000000" points="1400.5,-56.5 1400.5,-75.5 1464.5,-75.5 1464.5,-56.5 1400.5,-56.5"/>
<text text-anchor="middle" x="1432.5" y="-63.5" font-family="Helvetica,sans-Serif" font-size="10.00" fill="#000000">odp_api.h</text>
</a>
</g>
</g>
<!-- Node10&#45;&gt;Node29 -->
<g id="edge64" class="edge">
<title>Node10&#45;&gt;Node29</title>
<path fill="none" stroke="#191970" d="M1280.7663,-456.8137C1486.8756,-449.6551 2526.5,-410.3567 2526.5,-346 2526.5,-346 2526.5,-346 2526.5,-178 2526.5,-123.1692 1645.3529,-76.5466 1464.6489,-67.5618"/>
<polygon fill="#191970" stroke="#191970" points="1280.3876,-453.3246 1270.5141,-457.1671 1280.6287,-460.3205 1280.3876,-453.3246"/>
</g>
<!-- Node58 -->
<g id="node23" class="node">
<title>Node58</title>
<g id="a_node23"><a xlink:href="api_2abi-default_2cpumask_8h.html" target="_top" xlink:title="ODP CPU masks and enumeration. ">
<polygon fill="#ffffff" stroke="#000000" points="891.5,-280.5 891.5,-299.5 961.5,-299.5 961.5,-280.5 891.5,-280.5"/>
<text text-anchor="middle" x="926.5" y="-287.5" font-family="Helvetica,sans-Serif" font-size="10.00" fill="#000000">cpumask.h</text>
</a>
</g>
</g>
<!-- Node10&#45;&gt;Node58 -->
<g id="edge23" class="edge">
<title>Node10&#45;&gt;Node58</title>
<path fill="none" stroke="#191970" d="M1218.4384,-443.7481C1155.0534,-410.3667 998.2971,-327.8116 944.7621,-299.6177"/>
<polygon fill="#191970" stroke="#191970" points="1216.9563,-446.9232 1227.4352,-448.4862 1220.2181,-440.7296 1216.9563,-446.9232"/>
</g>
<!-- Node82 -->
<g id="node32" class="node">
<title>Node82</title>
<g id="a_node32"><a xlink:href="api_2spec_2std__types_8h.html" target="_top" xlink:title="Standard C language types and definitions for ODP. ">
<polygon fill="#ffffff" stroke="#000000" points="1521,-392.5 1521,-411.5 1594,-411.5 1594,-392.5 1521,-392.5"/>
<text text-anchor="middle" x="1557.5" y="-399.5" font-family="Helvetica,sans-Serif" font-size="10.00" fill="#000000">std_types.h</text>
</a>
</g>
</g>
<!-- Node10&#45;&gt;Node82 -->
<g id="edge33" class="edge">
<title>Node10&#45;&gt;Node82</title>
<path fill="none" stroke="#191970" d="M1280.5381,-451.7111C1340.0291,-441.0332 1460.2192,-419.4607 1520.812,-408.585"/>
<polygon fill="#191970" stroke="#191970" points="1279.7292,-448.3003 1270.5049,-453.5119 1280.9659,-455.1902 1279.7292,-448.3003"/>
</g>
<!-- Node12 -->
<g id="node11" class="node">
<title>Node12</title>
<g id="a_node11"><a xlink:href="arch_2arm32-linux_2odp_2api_2abi_2atomic_8h_source.html" target="_top" xlink:title="atomic.h">
<polygon fill="#ffffff" stroke="#000000" points="0,-224.5 0,-243.5 59,-243.5 59,-224.5 0,-224.5"/>
<text text-anchor="middle" x="29.5" y="-231.5" font-family="Helvetica,sans-Serif" font-size="10.00" fill="#000000">atomic.h</text>
</a>
</g>
</g>
<!-- Node11&#45;&gt;Node12 -->
<g id="edge10" class="edge">
<title>Node11&#45;&gt;Node12</title>
<path fill="none" stroke="#191970" d="M297.7994,-284.3619C244.9671,-276.6025 148.7595,-261.578 67.5,-244 64.833,-243.4231 62.0716,-242.7823 59.3106,-242.1117"/>
<polygon fill="#191970" stroke="#191970" points="297.3699,-287.8362 307.7702,-285.8156 298.3798,-280.9095 297.3699,-287.8362"/>
</g>
<!-- Node13 -->
<g id="node12" class="node">
<title>Node13</title>
<g id="a_node12"><a xlink:href="arch_2arm64-linux_2odp_2api_2abi_2atomic_8h_source.html" target="_top" xlink:title="atomic.h">
<polygon fill="#ffffff" stroke="#000000" points="77,-224.5 77,-243.5 136,-243.5 136,-224.5 77,-224.5"/>
<text text-anchor="middle" x="106.5" y="-231.5" font-family="Helvetica,sans-Serif" font-size="10.00" fill="#000000">atomic.h</text>
</a>
</g>
</g>
<!-- Node11&#45;&gt;Node13 -->
<g id="edge11" class="edge">
<title>Node11&#45;&gt;Node13</title>
<path fill="none" stroke="#191970" d="M297.7721,-280.8169C258.7057,-271.7194 197.4069,-257.2645 144.5,-244 141.8532,-243.3364 139.1058,-242.636 136.3538,-241.9266"/>
<polygon fill="#191970" stroke="#191970" points="297.1579,-284.2674 307.6908,-283.1228 298.7431,-277.4492 297.1579,-284.2674"/>
</g>
<!-- Node14 -->
<g id="node13" class="node">
<title>Node14</title>
<g id="a_node13"><a xlink:href="arch_2default-linux_2odp_2api_2abi_2atomic_8h_source.html" target="_top" xlink:title="atomic.h">
<polygon fill="#ffffff" stroke="#000000" points="154,-224.5 154,-243.5 213,-243.5 213,-224.5 154,-224.5"/>
<text text-anchor="middle" x="183.5" y="-231.5" font-family="Helvetica,sans-Serif" font-size="10.00" fill="#000000">atomic.h</text>
</a>
</g>
</g>
<!-- Node11&#45;&gt;Node14 -->
<g id="edge12" class="edge">
<title>Node11&#45;&gt;Node14</title>
<path fill="none" stroke="#191970" d="M301.5386,-276.9231C273.3866,-266.686 234.8945,-252.6889 209.6281,-243.5011"/>
<polygon fill="#191970" stroke="#191970" points="300.4324,-280.245 311.0265,-280.3733 302.8246,-273.6665 300.4324,-280.245"/>
</g>
<!-- Node15 -->
<g id="node14" class="node">
<title>Node15</title>
<g id="a_node14"><a xlink:href="arch_2mips64-linux_2odp_2api_2abi_2atomic_8h_source.html" target="_top" xlink:title="atomic.h">
<polygon fill="#ffffff" stroke="#000000" points="231,-224.5 231,-243.5 290,-243.5 290,-224.5 231,-224.5"/>
<text text-anchor="middle" x="260.5" y="-231.5" font-family="Helvetica,sans-Serif" font-size="10.00" fill="#000000">atomic.h</text>
</a>
</g>
</g>
<!-- Node11&#45;&gt;Node15 -->
<g id="edge13" class="edge">
<title>Node11&#45;&gt;Node15</title>
<path fill="none" stroke="#191970" d="M315.7884,-274.2097C302.2647,-264.3743 285.3042,-252.0394 273.7587,-243.6427"/>
<polygon fill="#191970" stroke="#191970" points="313.9416,-277.1944 324.0876,-280.2455 318.0589,-271.5332 313.9416,-277.1944"/>
</g>
<!-- Node16 -->
<g id="node15" class="node">
<title>Node16</title>
<g id="a_node15"><a xlink:href="arch_2power64-linux_2odp_2api_2abi_2atomic_8h_source.html" target="_top" xlink:title="atomic.h">
<polygon fill="#ffffff" stroke="#000000" points="308,-224.5 308,-243.5 367,-243.5 367,-224.5 308,-224.5"/>
<text text-anchor="middle" x="337.5" y="-231.5" font-family="Helvetica,sans-Serif" font-size="10.00" fill="#000000">atomic.h</text>
</a>
</g>
</g>
<!-- Node11&#45;&gt;Node16 -->
<g id="edge14" class="edge">
<title>Node11&#45;&gt;Node16</title>
<path fill="none" stroke="#191970" d="M337.5,-270.1575C337.5,-261.155 337.5,-250.9199 337.5,-243.6427"/>
<polygon fill="#191970" stroke="#191970" points="334.0001,-270.2455 337.5,-280.2455 341.0001,-270.2456 334.0001,-270.2455"/>
</g>
<!-- Node17 -->
<g id="node16" class="node">
<title>Node17</title>
<g id="a_node16"><a xlink:href="arch_2x86__32-linux_2odp_2api_2abi_2atomic_8h_source.html" target="_top" xlink:title="atomic.h">
<polygon fill="#ffffff" stroke="#000000" points="385,-224.5 385,-243.5 444,-243.5 444,-224.5 385,-224.5"/>
<text text-anchor="middle" x="414.5" y="-231.5" font-family="Helvetica,sans-Serif" font-size="10.00" fill="#000000">atomic.h</text>
</a>
</g>
</g>
<!-- Node11&#45;&gt;Node17 -->
<g id="edge15" class="edge">
<title>Node11&#45;&gt;Node17</title>
<path fill="none" stroke="#191970" d="M359.2116,-274.2097C372.7353,-264.3743 389.6958,-252.0394 401.2413,-243.6427"/>
<polygon fill="#191970" stroke="#191970" points="356.9411,-271.5332 350.9124,-280.2455 361.0584,-277.1944 356.9411,-271.5332"/>
</g>
<!-- Node18 -->
<g id="node17" class="node">
<title>Node18</title>
<g id="a_node17"><a xlink:href="arch_2x86__64-linux_2odp_2api_2abi_2atomic_8h_source.html" target="_top" xlink:title="atomic.h">
<polygon fill="#ffffff" stroke="#000000" points="462,-224.5 462,-243.5 521,-243.5 521,-224.5 462,-224.5"/>
<text text-anchor="middle" x="491.5" y="-231.5" font-family="Helvetica,sans-Serif" font-size="10.00" fill="#000000">atomic.h</text>
</a>
</g>
</g>
<!-- Node11&#45;&gt;Node18 -->
<g id="edge16" class="edge">
<title>Node11&#45;&gt;Node18</title>
<path fill="none" stroke="#191970" d="M373.4614,-276.9231C401.6134,-266.686 440.1055,-252.6889 465.3719,-243.5011"/>
<polygon fill="#191970" stroke="#191970" points="372.1754,-273.6665 363.9735,-280.3733 374.5676,-280.245 372.1754,-273.6665"/>
</g>
<!-- Node19 -->
<g id="node18" class="node">
<title>Node19</title>
<g id="a_node18"><a xlink:href="api_2atomic_8h.html" target="_top" xlink:title="ODP atomic operations. ">
<polygon fill="#ffffff" stroke="#ff0000" points="1060,-168.5 1060,-187.5 1119,-187.5 1119,-168.5 1060,-168.5"/>
<text text-anchor="middle" x="1089.5" y="-175.5" font-family="Helvetica,sans-Serif" font-size="10.00" fill="#000000">atomic.h</text>
</a>
</g>
</g>
<!-- Node18&#45;&gt;Node19 -->
<g id="edge17" class="edge">
<title>Node18&#45;&gt;Node19</title>
<path fill="none" stroke="#191970" d="M531.3664,-224.1363C738.8218,-190.0016 977.5402,-180.9365 1059.8873,-178.6786"/>
<polygon fill="#191970" stroke="#191970" points="530.4869,-220.7347 521.1998,-225.8337 531.6396,-227.6391 530.4869,-220.7347"/>
</g>
<!-- Node20 -->
<g id="node19" class="node">
<title>Node20</title>
<g id="a_node19"><a xlink:href="api_2abi-default_2barrier_8h.html" target="_top" xlink:title="ODP barrier. ">
<polygon fill="#ffffff" stroke="#ff0000" points="1175,-112.5 1175,-131.5 1232,-131.5 1232,-112.5 1175,-112.5"/>
<text text-anchor="middle" x="1203.5" y="-119.5" font-family="Helvetica,sans-Serif" font-size="10.00" fill="#000000">barrier.h</text>
</a>
</g>
</g>
<!-- Node19&#45;&gt;Node20 -->
<g id="edge18" class="edge">
<title>Node19&#45;&gt;Node20</title>
<path fill="none" stroke="#191970" d="M1118.3321,-163.8368C1138.9395,-153.7139 1166.1082,-140.3679 1184.1584,-131.5011"/>
<polygon fill="#191970" stroke="#191970" points="1116.5297,-160.8227 1109.0973,-168.3733 1119.616,-167.1056 1116.5297,-160.8227"/>
</g>
<!-- Node28 -->
<g id="node20" class="node">
<title>Node28</title>
<g id="a_node20"><a xlink:href="api_2barrier_8h.html" target="_top" xlink:title="ODP execution barriers. ">
<polygon fill="#ffffff" stroke="#000000" points="1100,-112.5 1100,-131.5 1157,-131.5 1157,-112.5 1100,-112.5"/>
<text text-anchor="middle" x="1128.5" y="-119.5" font-family="Helvetica,sans-Serif" font-size="10.00" fill="#000000">barrier.h</text>
</a>
</g>
</g>
<!-- Node19&#45;&gt;Node28 -->
<g id="edge19" class="edge">
<title>Node19&#45;&gt;Node28</title>
<path fill="none" stroke="#191970" d="M1102.0908,-159.9209C1108.6395,-150.5176 1116.3824,-139.3997 1121.7846,-131.6427"/>
<polygon fill="#191970" stroke="#191970" points="1099.1361,-158.0392 1096.2933,-168.2455 1104.8804,-162.0397 1099.1361,-158.0392"/>
</g>
<!-- Node19&#45;&gt;Node29 -->
<g id="edge22" class="edge">
<title>Node19&#45;&gt;Node29</title>
<path fill="none" stroke="#191970" d="M1083.5798,-158.0699C1080.5883,-143.5288 1079.5859,-124.2912 1090.5,-112 1110.9362,-88.9852 1318.9415,-73.2783 1400.2109,-67.9771"/>
<polygon fill="#191970" stroke="#191970" points="1080.2631,-159.2332 1086.0908,-168.0813 1087.0528,-157.5303 1080.2631,-159.2332"/>
</g>
<!-- Node28&#45;&gt;Node29 -->
<g id="edge20" class="edge">
<title>Node28&#45;&gt;Node29</title>
<path fill="none" stroke="#191970" d="M1166.8939,-111.8347C1256.5459,-92.3612 1351.6455,-77.6524 1400.2537,-70.5613"/>
<polygon fill="#191970" stroke="#191970" points="1166.1342,-108.418 1157.118,-113.9822 1167.6361,-115.255 1166.1342,-108.418"/>
</g>
<!-- Node30 -->
<g id="node22" class="node">
<title>Node30</title>
<g id="a_node22"><a xlink:href="odp_8h.html" target="_top" xlink:title="WARNING: THIS FILE IS DEPRECATED AND WILL BE REMOVED!!! ODP APPLICATIONS SHOULD NOW INCLUDE odp_api...">
<polygon fill="#ffffff" stroke="#000000" points="1410.5,-.5 1410.5,-19.5 1454.5,-19.5 1454.5,-.5 1410.5,-.5"/>
<text text-anchor="middle" x="1432.5" y="-7.5" font-family="Helvetica,sans-Serif" font-size="10.00" fill="#000000">odp.h</text>
</a>
</g>
</g>
<!-- Node29&#45;&gt;Node30 -->
<g id="edge21" class="edge">
<title>Node29&#45;&gt;Node30</title>
<path fill="none" stroke="#191970" d="M1432.5,-46.1575C1432.5,-37.155 1432.5,-26.9199 1432.5,-19.6427"/>
<polygon fill="#191970" stroke="#191970" points="1429.0001,-46.2455 1432.5,-56.2455 1436.0001,-46.2456 1429.0001,-46.2455"/>
</g>
<!-- Node59 -->
<g id="node24" class="node">
<title>Node59</title>
<g id="a_node24"><a xlink:href="arch_2arm32-linux_2odp_2api_2abi_2cpumask_8h_source.html" target="_top" xlink:title="cpumask.h">
<polygon fill="#ffffff" stroke="#000000" points="891.5,-224.5 891.5,-243.5 961.5,-243.5 961.5,-224.5 891.5,-224.5"/>
<text text-anchor="middle" x="926.5" y="-231.5" font-family="Helvetica,sans-Serif" font-size="10.00" fill="#000000">cpumask.h</text>
</a>
</g>
</g>
<!-- Node58&#45;&gt;Node59 -->
<g id="edge24" class="edge">
<title>Node58&#45;&gt;Node59</title>
<path fill="none" stroke="#191970" d="M926.5,-270.1575C926.5,-261.155 926.5,-250.9199 926.5,-243.6427"/>
<polygon fill="#191970" stroke="#191970" points="923.0001,-270.2455 926.5,-280.2455 930.0001,-270.2456 923.0001,-270.2455"/>
</g>
<!-- Node60 -->
<g id="node25" class="node">
<title>Node60</title>
<g id="a_node25"><a xlink:href="arch_2arm64-linux_2odp_2api_2abi_2cpumask_8h_source.html" target="_top" xlink:title="cpumask.h">
<polygon fill="#ffffff" stroke="#000000" points="979.5,-224.5 979.5,-243.5 1049.5,-243.5 1049.5,-224.5 979.5,-224.5"/>
<text text-anchor="middle" x="1014.5" y="-231.5" font-family="Helvetica,sans-Serif" font-size="10.00" fill="#000000">cpumask.h</text>
</a>
</g>
</g>
<!-- Node58&#45;&gt;Node60 -->
<g id="edge25" class="edge">
<title>Node58&#45;&gt;Node60</title>
<path fill="none" stroke="#191970" d="M950.4345,-274.769C966.0283,-264.8456 985.901,-252.1994 999.3472,-243.6427"/>
<polygon fill="#191970" stroke="#191970" points="948.386,-271.9239 941.8284,-280.2455 952.1441,-277.8296 948.386,-271.9239"/>
</g>
<!-- Node61 -->
<g id="node26" class="node">
<title>Node61</title>
<g id="a_node26"><a xlink:href="arch_2default-linux_2odp_2api_2abi_2cpumask_8h_source.html" target="_top" xlink:title="cpumask.h">
<polygon fill="#ffffff" stroke="#000000" points="1067.5,-224.5 1067.5,-243.5 1137.5,-243.5 1137.5,-224.5 1067.5,-224.5"/>
<text text-anchor="middle" x="1102.5" y="-231.5" font-family="Helvetica,sans-Serif" font-size="10.00" fill="#000000">cpumask.h</text>
</a>
</g>
</g>
<!-- Node58&#45;&gt;Node61 -->
<g id="edge26" class="edge">
<title>Node58&#45;&gt;Node61</title>
<path fill="none" stroke="#191970" d="M966.3404,-277.3235C998.6173,-267.0536 1043.3852,-252.8093 1072.6393,-243.5011"/>
<polygon fill="#191970" stroke="#191970" points="965.2235,-274.0059 956.7555,-280.3733 967.346,-280.6764 965.2235,-274.0059"/>
</g>
<!-- Node62 -->
<g id="node27" class="node">
<title>Node62</title>
<g id="a_node27"><a xlink:href="arch_2mips64-linux_2odp_2api_2abi_2cpumask_8h_source.html" target="_top" xlink:title="cpumask.h">
<polygon fill="#ffffff" stroke="#000000" points="627.5,-224.5 627.5,-243.5 697.5,-243.5 697.5,-224.5 627.5,-224.5"/>
<text text-anchor="middle" x="662.5" y="-231.5" font-family="Helvetica,sans-Serif" font-size="10.00" fill="#000000">cpumask.h</text>
</a>
</g>
</g>
<!-- Node58&#45;&gt;Node62 -->
<g id="edge27" class="edge">
<title>Node58&#45;&gt;Node62</title>
<path fill="none" stroke="#191970" d="M881.4875,-280.8264C836.9872,-271.7011 766.9804,-257.1947 706.5,-244 703.5916,-243.3655 700.5772,-242.699 697.5522,-242.024"/>
<polygon fill="#191970" stroke="#191970" points="880.9067,-284.28 891.4056,-282.8577 882.3112,-277.4224 880.9067,-284.28"/>
</g>
<!-- Node63 -->
<g id="node28" class="node">
<title>Node63</title>
<g id="a_node28"><a xlink:href="arch_2power64-linux_2odp_2api_2abi_2cpumask_8h_source.html" target="_top" xlink:title="cpumask.h">
<polygon fill="#ffffff" stroke="#000000" points="715.5,-224.5 715.5,-243.5 785.5,-243.5 785.5,-224.5 715.5,-224.5"/>
<text text-anchor="middle" x="750.5" y="-231.5" font-family="Helvetica,sans-Serif" font-size="10.00" fill="#000000">cpumask.h</text>
</a>
</g>
</g>
<!-- Node58&#45;&gt;Node63 -->
<g id="edge28" class="edge">
<title>Node58&#45;&gt;Node63</title>
<path fill="none" stroke="#191970" d="M886.6596,-277.3235C854.3827,-267.0536 809.6148,-252.8093 780.3607,-243.5011"/>
<polygon fill="#191970" stroke="#191970" points="885.654,-280.6764 896.2445,-280.3733 887.7765,-274.0059 885.654,-280.6764"/>
</g>
<!-- Node64 -->
<g id="node29" class="node">
<title>Node64</title>
<g id="a_node29"><a xlink:href="arch_2x86__32-linux_2odp_2api_2abi_2cpumask_8h_source.html" target="_top" xlink:title="cpumask.h">
<polygon fill="#ffffff" stroke="#000000" points="803.5,-224.5 803.5,-243.5 873.5,-243.5 873.5,-224.5 803.5,-224.5"/>
<text text-anchor="middle" x="838.5" y="-231.5" font-family="Helvetica,sans-Serif" font-size="10.00" fill="#000000">cpumask.h</text>
</a>
</g>
</g>
<!-- Node58&#45;&gt;Node64 -->
<g id="edge29" class="edge">
<title>Node58&#45;&gt;Node64</title>
<path fill="none" stroke="#191970" d="M902.5655,-274.769C886.9717,-264.8456 867.099,-252.1994 853.6528,-243.6427"/>
<polygon fill="#191970" stroke="#191970" points="900.8559,-277.8296 911.1716,-280.2455 904.614,-271.9239 900.8559,-277.8296"/>
</g>
<!-- Node65 -->
<g id="node30" class="node">
<title>Node65</title>
<g id="a_node30"><a xlink:href="arch_2x86__64-linux_2odp_2api_2abi_2cpumask_8h_source.html" target="_top" xlink:title="cpumask.h">
<polygon fill="#ffffff" stroke="#000000" points="539.5,-224.5 539.5,-243.5 609.5,-243.5 609.5,-224.5 539.5,-224.5"/>
<text text-anchor="middle" x="574.5" y="-231.5" font-family="Helvetica,sans-Serif" font-size="10.00" fill="#000000">cpumask.h</text>
</a>
</g>
</g>
<!-- Node58&#45;&gt;Node65 -->
<g id="edge30" class="edge">
<title>Node58&#45;&gt;Node65</title>
<path fill="none" stroke="#191970" d="M881.3143,-284.3342C821.1234,-276.54 711.4224,-261.4728 618.5,-244 615.5745,-243.4499 612.548,-242.8428 609.5149,-242.2077"/>
<polygon fill="#191970" stroke="#191970" points="880.8857,-287.8079 891.2507,-285.613 881.7793,-280.8651 880.8857,-287.8079"/>
</g>
<!-- Node66 -->
<g id="node31" class="node">
<title>Node66</title>
<g id="a_node31"><a xlink:href="api_2cpumask_8h.html" target="_top" xlink:title="ODP CPU masks and enumeration. ">
<polygon fill="#ffffff" stroke="#ff0000" points="755.5,-168.5 755.5,-187.5 825.5,-187.5 825.5,-168.5 755.5,-168.5"/>
<text text-anchor="middle" x="790.5" y="-175.5" font-family="Helvetica,sans-Serif" font-size="10.00" fill="#000000">cpumask.h</text>
</a>
</g>
</g>
<!-- Node65&#45;&gt;Node66 -->
<g id="edge31" class="edge">
<title>Node65&#45;&gt;Node66</title>
<path fill="none" stroke="#191970" d="M619.5355,-222.3241C659.9039,-211.8583 718.3075,-196.7166 755.3302,-187.1181"/>
<polygon fill="#191970" stroke="#191970" points="618.4864,-218.9803 609.6849,-224.878 620.2432,-225.7563 618.4864,-218.9803"/>
</g>
<!-- Node66&#45;&gt;Node29 -->
<g id="edge32" class="edge">
<title>Node66&#45;&gt;Node29</title>
<path fill="none" stroke="#191970" d="M835.7781,-166.2033C892.272,-151.8139 991.9883,-127.4967 1078.5,-112 1196.2378,-90.9099 1337.6537,-75.4745 1400.1264,-69.1546"/>
<polygon fill="#191970" stroke="#191970" points="834.5657,-162.9007 825.7453,-168.7703 836.3008,-169.6823 834.5657,-162.9007"/>
</g>
<!-- Node83 -->
<g id="node33" class="node">
<title>Node83</title>
<g id="a_node33"><a xlink:href="api_2std__types_8h.html" target="_top" xlink:title="Standard C language types and definitions for ODP. ">
<polygon fill="#ffffff" stroke="#ff0000" points="1521,-336.5 1521,-355.5 1594,-355.5 1594,-336.5 1521,-336.5"/>
<text text-anchor="middle" x="1557.5" y="-343.5" font-family="Helvetica,sans-Serif" font-size="10.00" fill="#000000">std_types.h</text>
</a>
</g>
</g>
<!-- Node82&#45;&gt;Node83 -->
<g id="edge34" class="edge">
<title>Node82&#45;&gt;Node83</title>
<path fill="none" stroke="#191970" d="M1557.5,-382.1575C1557.5,-373.155 1557.5,-362.9199 1557.5,-355.6427"/>
<polygon fill="#191970" stroke="#191970" points="1554.0001,-382.2455 1557.5,-392.2455 1561.0001,-382.2456 1554.0001,-382.2455"/>
</g>
<!-- Node83&#45;&gt;Node11 -->
<g id="edge35" class="edge">
<title>Node83&#45;&gt;Node11</title>
<path fill="none" stroke="#191970" d="M1510.8189,-343.8573C1310.8403,-334.6779 529.2597,-298.8021 367.0694,-291.3573"/>
<polygon fill="#191970" stroke="#191970" points="1510.8378,-347.3617 1520.9878,-344.324 1511.1589,-340.3691 1510.8378,-347.3617"/>
</g>
<!-- Node83&#45;&gt;Node20 -->
<g id="edge36" class="edge">
<title>Node83&#45;&gt;Node20</title>
<path fill="none" stroke="#191970" d="M1510.4972,-344.2834C1437.8355,-340.7082 1302.8083,-330.1057 1266.5,-300 1212.7497,-255.432 1204.8299,-161.8028 1203.6858,-131.6067"/>
<polygon fill="#191970" stroke="#191970" points="1510.5939,-347.7916 1520.7461,-344.7614 1510.92,-340.7992 1510.5939,-347.7916"/>
</g>
<!-- Node83&#45;&gt;Node28 -->
<g id="edge46" class="edge">
<title>Node83&#45;&gt;Node28</title>
<path fill="none" stroke="#191970" d="M1510.4909,-343.7397C1434.4279,-339.3205 1288.539,-327.4558 1245.5,-300 1179.0927,-257.6368 1142.195,-162.5435 1131.6733,-131.7933"/>
<polygon fill="#191970" stroke="#191970" points="1510.562,-347.2491 1520.7424,-344.3147 1510.9541,-340.2601 1510.562,-347.2491"/>
</g>
<!-- Node83&#45;&gt;Node29 -->
<g id="edge63" class="edge">
<title>Node83&#45;&gt;Node29</title>
<path fill="none" stroke="#191970" d="M1603.8876,-337.3587C1627.1359,-330.7831 1653.9917,-319.4158 1671.5,-300 1691.9419,-277.331 1690.5,-264.5246 1690.5,-234 1690.5,-234 1690.5,-234 1690.5,-178 1690.5,-129.292 1533.8157,-88.482 1464.6542,-72.8407"/>
<polygon fill="#191970" stroke="#191970" points="1602.9739,-333.9798 1594.1827,-339.8929 1604.7425,-340.7527 1602.9739,-333.9798"/>
</g>
<!-- Node83&#45;&gt;Node58 -->
<g id="edge38" class="edge">
<title>Node83&#45;&gt;Node58</title>
<path fill="none" stroke="#191970" d="M1510.7964,-341.8551C1389.8887,-331.1248 1068.636,-302.6143 961.6887,-293.1229"/>
<polygon fill="#191970" stroke="#191970" points="1510.5771,-345.3494 1520.8474,-342.7472 1511.1959,-338.3768 1510.5771,-345.3494"/>
</g>
<!-- Node84 -->
<g id="node34" class="node">
<title>Node84</title>
<g id="a_node34"><a xlink:href="api_2abi-default_2byteorder_8h.html" target="_top" xlink:title="ODP byteorder. ">
<polygon fill="#ffffff" stroke="#ff0000" points="1756.5,-280.5 1756.5,-299.5 1828.5,-299.5 1828.5,-280.5 1756.5,-280.5"/>
<text text-anchor="middle" x="1792.5" y="-287.5" font-family="Helvetica,sans-Serif" font-size="10.00" fill="#000000">byteorder.h</text>
</a>
</g>
</g>
<!-- Node83&#45;&gt;Node84 -->
<g id="edge37" class="edge">
<title>Node83&#45;&gt;Node84</title>
<path fill="none" stroke="#191970" d="M1603.9778,-334.9244C1648.7462,-324.2562 1715.5295,-308.3419 1756.4246,-298.5967"/>
<polygon fill="#191970" stroke="#191970" points="1603.135,-331.5272 1594.2188,-337.25 1604.7577,-338.3365 1603.135,-331.5272"/>
</g>
<!-- Node93 -->
<g id="node35" class="node">
<title>Node93</title>
<g id="a_node35"><a xlink:href="api_2abi-default_2init_8h.html" target="_top" xlink:title="ODP initialization. ">
<polygon fill="#ffffff" stroke="#ff0000" points="1847,-280.5 1847,-299.5 1888,-299.5 1888,-280.5 1847,-280.5"/>
<text text-anchor="middle" x="1867.5" y="-287.5" font-family="Helvetica,sans-Serif" font-size="10.00" fill="#000000">init.h</text>
</a>
</g>
</g>
<!-- Node83&#45;&gt;Node93 -->
<g id="edge39" class="edge">
<title>Node83&#45;&gt;Node93</title>
<path fill="none" stroke="#191970" d="M1604.0818,-340.6497C1660.0247,-333.6969 1756.461,-320.0285 1837.5,-300 1840.5912,-299.236 1843.8217,-298.3049 1846.9695,-297.3216"/>
<polygon fill="#191970" stroke="#191970" points="1603.6204,-337.18 1594.1201,-341.8698 1604.4715,-344.128 1603.6204,-337.18"/>
</g>
<!-- Node101 -->
<g id="node36" class="node">
<title>Node101</title>
<g id="a_node36"><a xlink:href="api_2abi-default_2ipsec_8h.html" target="_top" xlink:title="ODP IPSEC API &#45; platform specific types. ">
<polygon fill="#ffffff" stroke="#ff0000" points="1906,-280.5 1906,-299.5 1957,-299.5 1957,-280.5 1906,-280.5"/>
<text text-anchor="middle" x="1931.5" y="-287.5" font-family="Helvetica,sans-Serif" font-size="10.00" fill="#000000">ipsec.h</text>
</a>
</g>
</g>
<!-- Node83&#45;&gt;Node101 -->
<g id="edge40" class="edge">
<title>Node83&#45;&gt;Node101</title>
<path fill="none" stroke="#191970" d="M1604.1024,-341.9521C1669.9666,-335.7212 1793.821,-322.1271 1897.5,-300 1900.268,-299.4093 1903.1389,-298.708 1905.9866,-297.9549"/>
<polygon fill="#191970" stroke="#191970" points="1603.6738,-338.4767 1594.0415,-342.889 1604.323,-345.4466 1603.6738,-338.4767"/>
</g>
<!-- Node110 -->
<g id="node37" class="node">
<title>Node110</title>
<g id="a_node37"><a xlink:href="api_2abi-default_2packet__io_8h.html" target="_top" xlink:title="ODP Packet IO. ">
<polygon fill="#ffffff" stroke="#ff0000" points="1975,-280.5 1975,-299.5 2048,-299.5 2048,-280.5 1975,-280.5"/>
<text text-anchor="middle" x="2011.5" y="-287.5" font-family="Helvetica,sans-Serif" font-size="10.00" fill="#000000">packet_io.h</text>
</a>
</g>
</g>
<!-- Node83&#45;&gt;Node110 -->
<g id="edge41" class="edge">
<title>Node83&#45;&gt;Node110</title>
<path fill="none" stroke="#191970" d="M1604.2842,-342.3729C1680.5043,-336.0978 1836.0789,-321.7617 1966.5,-300 1969.1839,-299.5522 1971.9487,-299.0469 1974.7255,-298.5073"/>
<polygon fill="#191970" stroke="#191970" points="1603.7497,-338.9048 1594.0667,-343.2048 1604.3178,-345.8817 1603.7497,-338.9048"/>
</g>
<!-- Node40 -->
<g id="node38" class="node">
<title>Node40</title>
<g id="a_node38"><a xlink:href="api_2abi-default_2rwlock__recursive_8h.html" target="_top" xlink:title="ODP recursive read/write lock. ">
<polygon fill="#ffffff" stroke="#ff0000" points="2066.5,-280.5 2066.5,-299.5 2174.5,-299.5 2174.5,-280.5 2066.5,-280.5"/>
<text text-anchor="middle" x="2120.5" y="-287.5" font-family="Helvetica,sans-Serif" font-size="10.00" fill="#000000">rwlock_recursive.h</text>
</a>
</g>
</g>
<!-- Node83&#45;&gt;Node40 -->
<g id="edge42" class="edge">
<title>Node83&#45;&gt;Node40</title>
<path fill="none" stroke="#191970" d="M1604.2891,-342.7262C1692.9194,-336.2964 1891.3035,-320.8124 2057.5,-300 2060.357,-299.6422 2063.2836,-299.254 2066.236,-298.8451"/>
<polygon fill="#191970" stroke="#191970" points="1604.0089,-339.2373 1594.2864,-343.4472 1604.5122,-346.2192 1604.0089,-339.2373"/>
</g>
<!-- Node136 -->
<g id="node39" class="node">
<title>Node136</title>
<g id="a_node39"><a xlink:href="api_2abi-default_2schedule_8h.html" target="_top" xlink:title="ODP schedule. ">
<polygon fill="#ffffff" stroke="#ff0000" points="2193,-280.5 2193,-299.5 2262,-299.5 2262,-280.5 2193,-280.5"/>
<text text-anchor="middle" x="2227.5" y="-287.5" font-family="Helvetica,sans-Serif" font-size="10.00" fill="#000000">schedule.h</text>
</a>
</g>
</g>
<!-- Node83&#45;&gt;Node136 -->
<g id="edge43" class="edge">
<title>Node83&#45;&gt;Node136</title>
<path fill="none" stroke="#191970" d="M1604.252,-344.9605C1708.676,-342.1161 1968.5934,-332.1313 2183.5,-300 2186.4441,-299.5598 2189.4836,-299.03 2192.5254,-298.4468"/>
<polygon fill="#191970" stroke="#191970" points="1603.9559,-341.467 1594.0515,-345.2289 1604.1401,-348.4646 1603.9559,-341.467"/>
</g>
<!-- Node144 -->
<g id="node40" class="node">
<title>Node144</title>
<g id="a_node40"><a xlink:href="api_2abi-default_2spinlock__recursive_8h.html" target="_top" xlink:title="ODP recursive spinlock. ">
<polygon fill="#ffffff" stroke="#ff0000" points="2280.5,-280.5 2280.5,-299.5 2396.5,-299.5 2396.5,-280.5 2280.5,-280.5"/>
<text text-anchor="middle" x="2338.5" y="-287.5" font-family="Helvetica,sans-Serif" font-size="10.00" fill="#000000">spinlock_recursive.h</text>
</a>
</g>
</g>
<!-- Node83&#45;&gt;Node144 -->
<g id="edge44" class="edge">
<title>Node83&#45;&gt;Node144</title>
<path fill="none" stroke="#191970" d="M1604.1314,-344.35C1718.2478,-340.0178 2020.57,-326.7617 2271.5,-300 2274.4236,-299.6882 2277.4152,-299.3419 2280.4335,-298.9709"/>
<polygon fill="#191970" stroke="#191970" points="1603.8632,-340.8575 1594.0014,-344.7298 1604.1255,-347.8526 1603.8632,-340.8575"/>
</g>
<!-- Node153 -->
<g id="node41" class="node">
<title>Node153</title>
<g id="a_node41"><a xlink:href="api_2abi-default_2traffic__mngr_8h.html" target="_top" xlink:title="ODP traffic mngr. ">
<polygon fill="#ffffff" stroke="#ff0000" points="2414.5,-280.5 2414.5,-299.5 2498.5,-299.5 2498.5,-280.5 2414.5,-280.5"/>
<text text-anchor="middle" x="2456.5" y="-287.5" font-family="Helvetica,sans-Serif" font-size="10.00" fill="#000000">traffic_mngr.h</text>
</a>
</g>
</g>
<!-- Node83&#45;&gt;Node153 -->
<g id="edge45" class="edge">
<title>Node83&#45;&gt;Node153</title>
<path fill="none" stroke="#191970" d="M1604.0819,-344.331C1757.8433,-338.6869 2248.3545,-319.5717 2405.5,-300 2408.3652,-299.6432 2411.3109,-299.2193 2414.2723,-298.7507"/>
<polygon fill="#191970" stroke="#191970" points="1603.8899,-340.8355 1594.0244,-344.6985 1604.1456,-347.8309 1603.8899,-340.8355"/>
</g>
<!-- Node161 -->
<g id="node42" class="node">
<title>Node161</title>
<g id="a_node42"><a xlink:href="api_2buffer_8h.html" target="_top" xlink:title="ODP buffer descriptor. ">
<polygon fill="#ffffff" stroke="#000000" points="1719,-168.5 1719,-187.5 1772,-187.5 1772,-168.5 1719,-168.5"/>
<text text-anchor="middle" x="1745.5" y="-175.5" font-family="Helvetica,sans-Serif" font-size="10.00" fill="#000000">buffer.h</text>
</a>
</g>
</g>
<!-- Node83&#45;&gt;Node161 -->
<g id="edge47" class="edge">
<title>Node83&#45;&gt;Node161</title>
<path fill="none" stroke="#191970" d="M1604.2562,-336.2307C1641.639,-327.5598 1690.0923,-314.1092 1704.5,-300 1736.7484,-268.4197 1743.6322,-210.7175 1745.1014,-187.7795"/>
<polygon fill="#191970" stroke="#191970" points="1603.022,-332.9216 1594.0434,-338.5462 1604.5698,-339.7484 1603.022,-332.9216"/>
</g>
<!-- Node118 -->
<g id="node43" class="node">
<title>Node118</title>
<g id="a_node43"><a xlink:href="api_2classification_8h.html" target="_top" xlink:title="ODP classification descriptor. ">
<polygon fill="#ffffff" stroke="#ff0000" points="1250,-112.5 1250,-131.5 1339,-131.5 1339,-112.5 1250,-112.5"/>
<text text-anchor="middle" x="1294.5" y="-119.5" font-family="Helvetica,sans-Serif" font-size="10.00" fill="#000000">classification.h</text>
</a>
</g>
</g>
<!-- Node83&#45;&gt;Node118 -->
<g id="edge49" class="edge">
<title>Node83&#45;&gt;Node118</title>
<path fill="none" stroke="#191970" d="M1510.89,-344.0335C1442.6211,-340.1858 1320.1022,-329.2987 1288.5,-300 1244.5208,-259.2266 1241.7342,-224.9604 1260.5,-168 1265.2233,-153.6632 1276.324,-140.1346 1284.5638,-131.5087"/>
<polygon fill="#191970" stroke="#191970" points="1510.7824,-347.5327 1520.9552,-344.572 1511.1564,-340.5427 1510.7824,-347.5327"/>
</g>
<!-- Node124 -->
<g id="node44" class="node">
<title>Node124</title>
<g id="a_node44"><a xlink:href="api_2crypto_8h.html" target="_top" xlink:title="ODP crypto. ">
<polygon fill="#ffffff" stroke="#ff0000" points="1469.5,-224.5 1469.5,-243.5 1525.5,-243.5 1525.5,-224.5 1469.5,-224.5"/>
<text text-anchor="middle" x="1497.5" y="-231.5" font-family="Helvetica,sans-Serif" font-size="10.00" fill="#000000">crypto.h</text>
</a>
</g>
</g>
<!-- Node83&#45;&gt;Node124 -->
<g id="edge51" class="edge">
<title>Node83&#45;&gt;Node124</title>
<path fill="none" stroke="#191970" d="M1510.6736,-340.7479C1462.1463,-334.2269 1391.0964,-321.2845 1374.5,-300 1346.6338,-264.2623 1425.1093,-245.5186 1469.4369,-238.0108"/>
<polygon fill="#191970" stroke="#191970" points="1510.2922,-344.2277 1520.6593,-342.0427 1511.1924,-337.2858 1510.2922,-344.2277"/>
</g>
<!-- Node120 -->
<g id="node45" class="node">
<title>Node120</title>
<g id="a_node45"><a xlink:href="api_2packet_8h.html" target="_top" xlink:title="ODP packet descriptor. ">
<polygon fill="#ffffff" stroke="#ff0000" points="1270,-168.5 1270,-187.5 1329,-187.5 1329,-168.5 1270,-168.5"/>
<text text-anchor="middle" x="1299.5" y="-175.5" font-family="Helvetica,sans-Serif" font-size="10.00" fill="#000000">packet.h</text>
</a>
</g>
</g>
<!-- Node83&#45;&gt;Node120 -->
<g id="edge53" class="edge">
<title>Node83&#45;&gt;Node120</title>
<path fill="none" stroke="#191970" d="M1510.7277,-344.3231C1444.8696,-340.8814 1329.8746,-330.5484 1303.5,-300 1275.525,-267.5979 1289.2076,-210.3708 1296.2246,-187.6698"/>
<polygon fill="#191970" stroke="#191970" points="1510.6954,-347.8257 1520.8545,-344.8184 1511.0374,-340.834 1510.6954,-347.8257"/>
</g>
<!-- Node130 -->
<g id="node46" class="node">
<title>Node130</title>
<g id="a_node46"><a xlink:href="api_2packet__io_8h.html" target="_top" xlink:title="ODP Packet IO. ">
<polygon fill="#ffffff" stroke="#ff0000" points="1396,-112.5 1396,-131.5 1469,-131.5 1469,-112.5 1396,-112.5"/>
<text text-anchor="middle" x="1432.5" y="-119.5" font-family="Helvetica,sans-Serif" font-size="10.00" fill="#000000">packet_io.h</text>
</a>
</g>
</g>
<!-- Node83&#45;&gt;Node130 -->
<g id="edge55" class="edge">
<title>Node83&#45;&gt;Node130</title>
<path fill="none" stroke="#191970" d="M1510.8668,-341.3857C1459.9535,-335.2712 1383.2735,-322.5347 1365.5,-300 1322.5588,-245.5555 1395.1531,-160.6556 1422.6282,-131.9025"/>
<polygon fill="#191970" stroke="#191970" points="1510.6593,-344.8849 1520.9951,-342.5561 1511.463,-337.9312 1510.6593,-344.8849"/>
</g>
<!-- Node128 -->
<g id="node47" class="node">
<title>Node128</title>
<g id="a_node47"><a xlink:href="api_2queue_8h.html" target="_top" xlink:title="ODP queue. ">
<polygon fill="#ffffff" stroke="#ff0000" points="1606.5,-280.5 1606.5,-299.5 1662.5,-299.5 1662.5,-280.5 1606.5,-280.5"/>
<text text-anchor="middle" x="1634.5" y="-287.5" font-family="Helvetica,sans-Serif" font-size="10.00" fill="#000000">queue.h</text>
</a>
</g>
</g>
<!-- Node83&#45;&gt;Node128 -->
<g id="edge57" class="edge">
<title>Node83&#45;&gt;Node128</title>
<path fill="none" stroke="#191970" d="M1579.2116,-330.2097C1592.7353,-320.3743 1609.6958,-308.0394 1621.2413,-299.6427"/>
<polygon fill="#191970" stroke="#191970" points="1576.9411,-327.5332 1570.9124,-336.2455 1581.0584,-333.1944 1576.9411,-327.5332"/>
</g>
<!-- Node162 -->
<g id="node48" class="node">
<title>Node162</title>
<g id="a_node48"><a xlink:href="spec_2chksum_8h.html" target="_top" xlink:title="ODP checksum functions. ">
<polygon fill="#ffffff" stroke="#ff0000" points="1383.5,-280.5 1383.5,-299.5 1447.5,-299.5 1447.5,-280.5 1383.5,-280.5"/>
<text text-anchor="middle" x="1415.5" y="-287.5" font-family="Helvetica,sans-Serif" font-size="10.00" fill="#000000">chksum.h</text>
</a>
</g>
</g>
<!-- Node83&#45;&gt;Node162 -->
<g id="edge60" class="edge">
<title>Node83&#45;&gt;Node162</title>
<path fill="none" stroke="#191970" d="M1523.6585,-332.6541C1497.7634,-322.4419 1462.6862,-308.6086 1439.5921,-299.5011"/>
<polygon fill="#191970" stroke="#191970" points="1522.5025,-335.9605 1533.0893,-336.3733 1525.0707,-329.4486 1522.5025,-335.9605"/>
</g>
<!-- Node164 -->
<g id="node49" class="node">
<title>Node164</title>
<g id="a_node49"><a xlink:href="api_2spec_2cpu_8h.html" target="_top" xlink:title="ODP CPU API. ">
<polygon fill="#ffffff" stroke="#ff0000" points="1466,-280.5 1466,-299.5 1509,-299.5 1509,-280.5 1466,-280.5"/>
<text text-anchor="middle" x="1487.5" y="-287.5" font-family="Helvetica,sans-Serif" font-size="10.00" fill="#000000">cpu.h</text>
</a>
</g>
</g>
<!-- Node83&#45;&gt;Node164 -->
<g id="edge61" class="edge">
<title>Node83&#45;&gt;Node164</title>
<path fill="none" stroke="#191970" d="M1537.41,-329.928C1525.1747,-320.1397 1509.9493,-307.9595 1499.5533,-299.6427"/>
<polygon fill="#191970" stroke="#191970" points="1535.3118,-332.7316 1545.3069,-336.2455 1539.6847,-327.2655 1535.3118,-332.7316"/>
</g>
<!-- Node166 -->
<g id="node50" class="node">
<title>Node166</title>
<g id="a_node50"><a xlink:href="spec_2feature_8h.html" target="_top" xlink:title="ODP features. ">
<polygon fill="#ffffff" stroke="#ff0000" points="1527,-280.5 1527,-299.5 1588,-299.5 1588,-280.5 1527,-280.5"/>
<text text-anchor="middle" x="1557.5" y="-287.5" font-family="Helvetica,sans-Serif" font-size="10.00" fill="#000000">feature.h</text>
</a>
</g>
</g>
<!-- Node83&#45;&gt;Node166 -->
<g id="edge62" class="edge">
<title>Node83&#45;&gt;Node166</title>
<path fill="none" stroke="#191970" d="M1557.5,-326.1575C1557.5,-317.155 1557.5,-306.9199 1557.5,-299.6427"/>
<polygon fill="#191970" stroke="#191970" points="1554.0001,-326.2455 1557.5,-336.2455 1561.0001,-326.2456 1554.0001,-326.2455"/>
</g>
<!-- Node161&#45;&gt;Node29 -->
<g id="edge48" class="edge">
<title>Node161&#45;&gt;Node29</title>
<path fill="none" stroke="#191970" d="M1738.5994,-158.5744C1732.17,-143.4137 1721.0613,-123.1182 1704.5,-112 1665.7308,-85.9728 1528.2055,-72.9065 1464.8673,-68.1574"/>
<polygon fill="#191970" stroke="#191970" points="1735.4122,-160.0344 1742.3125,-168.0741 1741.9319,-157.4861 1735.4122,-160.0344"/>
</g>
<!-- Node118&#45;&gt;Node29 -->
<g id="edge50" class="edge">
<title>Node118&#45;&gt;Node29</title>
<path fill="none" stroke="#191970" d="M1327.7213,-108.5189C1352.854,-98.3201 1386.7418,-84.5685 1409.0865,-75.5011"/>
<polygon fill="#191970" stroke="#191970" points="1326.1731,-105.3699 1318.223,-112.3733 1328.8053,-111.8562 1326.1731,-105.3699"/>
</g>
<!-- Node124&#45;&gt;Node29 -->
<g id="edge52" class="edge">
<title>Node124&#45;&gt;Node29</title>
<path fill="none" stroke="#191970" d="M1497.8405,-214.1034C1497.4885,-188.9797 1494.2233,-145.049 1477.5,-112 1470.0346,-97.2467 1456.1608,-84.1774 1445.7834,-75.776"/>
<polygon fill="#191970" stroke="#191970" points="1494.3405,-214.2148 1497.8351,-224.2167 1501.3405,-214.2186 1494.3405,-214.2148"/>
</g>
<!-- Node120&#45;&gt;Node29 -->
<g id="edge54" class="edge">
<title>Node120&#45;&gt;Node29</title>
<path fill="none" stroke="#191970" d="M1318.7716,-161.7713C1346.9319,-138.0573 1398.4416,-94.6807 1421.1892,-75.5249"/>
<polygon fill="#191970" stroke="#191970" points="1316.2342,-159.3324 1310.8395,-168.4509 1320.7431,-164.6867 1316.2342,-159.3324"/>
</g>
<!-- Node130&#45;&gt;Node29 -->
<g id="edge56" class="edge">
<title>Node130&#45;&gt;Node29</title>
<path fill="none" stroke="#191970" d="M1432.5,-102.1575C1432.5,-93.155 1432.5,-82.9199 1432.5,-75.6427"/>
<polygon fill="#191970" stroke="#191970" points="1429.0001,-102.2455 1432.5,-112.2455 1436.0001,-102.2456 1429.0001,-102.2455"/>
</g>
<!-- Node128&#45;&gt;Node29 -->
<g id="edge59" class="edge">
<title>Node128&#45;&gt;Node29</title>
<path fill="none" stroke="#191970" d="M1622.7714,-271.499C1600.6885,-237.5139 1550.2972,-163.8797 1496.5,-112 1481.6272,-97.6573 1462.033,-84.2304 1448.4617,-75.629"/>
<polygon fill="#191970" stroke="#191970" points="1620.1071,-273.8268 1628.4595,-280.3451 1625.995,-270.0409 1620.1071,-273.8268"/>
</g>
<!-- Node128&#45;&gt;Node124 -->
<g id="edge58" class="edge">
<title>Node128&#45;&gt;Node124</title>
<path fill="none" stroke="#191970" d="M1601.5194,-276.5189C1576.5689,-266.3201 1542.9266,-252.5685 1520.7438,-243.5011"/>
<polygon fill="#191970" stroke="#191970" points="1600.368,-279.8293 1610.9489,-280.3733 1603.0166,-273.3497 1600.368,-279.8293"/>
</g>
</g>
</svg>
