<?xml version="1.0" encoding="UTF-8" standalone="no"?>
<!DOCTYPE svg PUBLIC "-//W3C//DTD SVG 1.1//EN"
 "http://www.w3.org/Graphics/SVG/1.1/DTD/svg11.dtd">
<!-- Generated by graphviz version 2.40.1 (20161225.0304)
 -->
<!-- Title: time.h Pages: 1 -->
<svg width="1107pt" height="924pt"
 viewBox="0.00 0.00 1106.50 924.00" xmlns="http://www.w3.org/2000/svg" xmlns:xlink="http://www.w3.org/1999/xlink">
<g id="graph0" class="graph" transform="scale(1 1) rotate(0) translate(4 920)">
<title>time.h</title>
<polygon fill="#ffffff" stroke="transparent" points="-4,4 -4,-920 1102.5,-920 1102.5,4 -4,4"/>
<!-- Node1 -->
<g id="node1" class="node">
<title>Node1</title>
<polygon fill="#bfbfbf" stroke="#000000" points="198,-896.5 198,-915.5 246,-915.5 246,-896.5 198,-896.5"/>
<text text-anchor="middle" x="222" y="-903.5" font-family="Helvetica,sans-Serif" font-size="10.00" fill="#000000">time.h</text>
</g>
<!-- Node2 -->
<g id="node2" class="node">
<title>Node2</title>
<g id="a_node2"><a xlink:href="arch_2arm32-linux_2odp_2api_2abi_2time_8h_source.html" target="_top" xlink:title="time.h">
<polygon fill="#ffffff" stroke="#000000" points="0,-840.5 0,-859.5 48,-859.5 48,-840.5 0,-840.5"/>
<text text-anchor="middle" x="24" y="-847.5" font-family="Helvetica,sans-Serif" font-size="10.00" fill="#000000">time.h</text>
</a>
</g>
</g>
<!-- Node1&#45;&gt;Node2 -->
<g id="edge1" class="edge">
<title>Node1&#45;&gt;Node2</title>
<path fill="none" stroke="#191970" d="M188.1836,-896.81C154.7873,-887.6783 102.2861,-873.1724 57,-860 54.1259,-859.164 51.1156,-858.2731 48.132,-857.3806"/>
<polygon fill="#191970" stroke="#191970" points="187.3367,-900.2069 197.9055,-899.4641 189.1803,-893.454 187.3367,-900.2069"/>
</g>
<!-- Node3 -->
<g id="node3" class="node">
<title>Node3</title>
<g id="a_node3"><a xlink:href="arch_2arm64-linux_2odp_2api_2abi_2time_8h_source.html" target="_top" xlink:title="time.h">
<polygon fill="#ffffff" stroke="#000000" points="66,-840.5 66,-859.5 114,-859.5 114,-840.5 66,-840.5"/>
<text text-anchor="middle" x="90" y="-847.5" font-family="Helvetica,sans-Serif" font-size="10.00" fill="#000000">time.h</text>
</a>
</g>
</g>
<!-- Node1&#45;&gt;Node3 -->
<g id="edge2" class="edge">
<title>Node1&#45;&gt;Node3</title>
<path fill="none" stroke="#191970" d="M189.9035,-892.3833C165.8965,-882.1985 133.6741,-868.5284 112.3955,-859.5011"/>
<polygon fill="#191970" stroke="#191970" points="188.7356,-895.6897 199.3084,-896.3733 191.4695,-889.2457 188.7356,-895.6897"/>
</g>
<!-- Node4 -->
<g id="node4" class="node">
<title>Node4</title>
<g id="a_node4"><a xlink:href="arch_2default-linux_2odp_2api_2abi_2time_8h_source.html" target="_top" xlink:title="time.h">
<polygon fill="#ffffff" stroke="#000000" points="132,-840.5 132,-859.5 180,-859.5 180,-840.5 132,-840.5"/>
<text text-anchor="middle" x="156" y="-847.5" font-family="Helvetica,sans-Serif" font-size="10.00" fill="#000000">time.h</text>
</a>
</g>
</g>
<!-- Node1&#45;&gt;Node4 -->
<g id="edge3" class="edge">
<title>Node1&#45;&gt;Node4</title>
<path fill="none" stroke="#191970" d="M202.7245,-889.645C191.2462,-879.9058 177.0723,-867.8795 167.3646,-859.6427"/>
<polygon fill="#191970" stroke="#191970" points="200.6141,-892.4445 210.5037,-896.2455 205.143,-887.1069 200.6141,-892.4445"/>
</g>
<!-- Node5 -->
<g id="node5" class="node">
<title>Node5</title>
<g id="a_node5"><a xlink:href="arch_2mips64-linux_2odp_2api_2abi_2time_8h_source.html" target="_top" xlink:title="time.h">
<polygon fill="#ffffff" stroke="#000000" points="198,-840.5 198,-859.5 246,-859.5 246,-840.5 198,-840.5"/>
<text text-anchor="middle" x="222" y="-847.5" font-family="Helvetica,sans-Serif" font-size="10.00" fill="#000000">time.h</text>
</a>
</g>
</g>
<!-- Node1&#45;&gt;Node5 -->
<g id="edge4" class="edge">
<title>Node1&#45;&gt;Node5</title>
<path fill="none" stroke="#191970" d="M222,-886.1575C222,-877.155 222,-866.9199 222,-859.6427"/>
<polygon fill="#191970" stroke="#191970" points="218.5001,-886.2455 222,-896.2455 225.5001,-886.2456 218.5001,-886.2455"/>
</g>
<!-- Node6 -->
<g id="node6" class="node">
<title>Node6</title>
<g id="a_node6"><a xlink:href="arch_2power64-linux_2odp_2api_2abi_2time_8h_source.html" target="_top" xlink:title="time.h">
<polygon fill="#ffffff" stroke="#000000" points="264,-840.5 264,-859.5 312,-859.5 312,-840.5 264,-840.5"/>
<text text-anchor="middle" x="288" y="-847.5" font-family="Helvetica,sans-Serif" font-size="10.00" fill="#000000">time.h</text>
</a>
</g>
</g>
<!-- Node1&#45;&gt;Node6 -->
<g id="edge5" class="edge">
<title>Node1&#45;&gt;Node6</title>
<path fill="none" stroke="#191970" d="M241.2755,-889.645C252.7538,-879.9058 266.9277,-867.8795 276.6354,-859.6427"/>
<polygon fill="#191970" stroke="#191970" points="238.857,-887.1069 233.4963,-896.2455 243.3859,-892.4445 238.857,-887.1069"/>
</g>
<!-- Node7 -->
<g id="node7" class="node">
<title>Node7</title>
<g id="a_node7"><a xlink:href="arch_2x86__32-linux_2odp_2api_2abi_2time_8h_source.html" target="_top" xlink:title="time.h">
<polygon fill="#ffffff" stroke="#000000" points="330,-840.5 330,-859.5 378,-859.5 378,-840.5 330,-840.5"/>
<text text-anchor="middle" x="354" y="-847.5" font-family="Helvetica,sans-Serif" font-size="10.00" fill="#000000">time.h</text>
</a>
</g>
</g>
<!-- Node1&#45;&gt;Node7 -->
<g id="edge6" class="edge">
<title>Node1&#45;&gt;Node7</title>
<path fill="none" stroke="#191970" d="M254.0965,-892.3833C278.1035,-882.1985 310.3259,-868.5284 331.6045,-859.5011"/>
<polygon fill="#191970" stroke="#191970" points="252.5305,-889.2457 244.6916,-896.3733 255.2644,-895.6897 252.5305,-889.2457"/>
</g>
<!-- Node8 -->
<g id="node8" class="node">
<title>Node8</title>
<g id="a_node8"><a xlink:href="arch_2x86__64-linux_2odp_2api_2abi_2time_8h_source.html" target="_top" xlink:title="time.h">
<polygon fill="#ffffff" stroke="#000000" points="396,-840.5 396,-859.5 444,-859.5 444,-840.5 396,-840.5"/>
<text text-anchor="middle" x="420" y="-847.5" font-family="Helvetica,sans-Serif" font-size="10.00" fill="#000000">time.h</text>
</a>
</g>
</g>
<!-- Node1&#45;&gt;Node8 -->
<g id="edge7" class="edge">
<title>Node1&#45;&gt;Node8</title>
<path fill="none" stroke="#191970" d="M255.8164,-896.81C289.2127,-887.6783 341.7139,-873.1724 387,-860 389.8741,-859.164 392.8844,-858.2731 395.868,-857.3806"/>
<polygon fill="#191970" stroke="#191970" points="254.8197,-893.454 246.0945,-899.4641 256.6633,-900.2069 254.8197,-893.454"/>
</g>
<!-- Node9 -->
<g id="node9" class="node">
<title>Node9</title>
<g id="a_node9"><a xlink:href="api_2time_8h.html" target="_top" xlink:title="ODP time. ">
<polygon fill="#ffffff" stroke="#000000" points="396,-784.5 396,-803.5 444,-803.5 444,-784.5 396,-784.5"/>
<text text-anchor="middle" x="420" y="-791.5" font-family="Helvetica,sans-Serif" font-size="10.00" fill="#000000">time.h</text>
</a>
</g>
</g>
<!-- Node8&#45;&gt;Node9 -->
<g id="edge8" class="edge">
<title>Node8&#45;&gt;Node9</title>
<path fill="none" stroke="#191970" d="M420,-830.1575C420,-821.155 420,-810.9199 420,-803.6427"/>
<polygon fill="#191970" stroke="#191970" points="416.5001,-830.2455 420,-840.2455 423.5001,-830.2456 416.5001,-830.2455"/>
</g>
<!-- Node10 -->
<g id="node10" class="node">
<title>Node10</title>
<g id="a_node10"><a xlink:href="api_2spec_2packet_8h.html" target="_top" xlink:title="ODP packet descriptor. ">
<polygon fill="#ffffff" stroke="#000000" points="571.5,-728.5 571.5,-747.5 630.5,-747.5 630.5,-728.5 571.5,-728.5"/>
<text text-anchor="middle" x="601" y="-735.5" font-family="Helvetica,sans-Serif" font-size="10.00" fill="#000000">packet.h</text>
</a>
</g>
</g>
<!-- Node9&#45;&gt;Node10 -->
<g id="edge9" class="edge">
<title>Node9&#45;&gt;Node10</title>
<path fill="none" stroke="#191970" d="M453.9324,-783.5016C487.7772,-773.0303 539.2421,-757.1074 571.4548,-747.141"/>
<polygon fill="#191970" stroke="#191970" points="452.5541,-780.2642 444.0354,-786.5636 454.6231,-786.9515 452.5541,-780.2642"/>
</g>
<!-- Node14 -->
<g id="node14" class="node">
<title>Node14</title>
<g id="a_node14"><a xlink:href="odp__api_8h.html" target="_top" xlink:title="The OpenDataPlane API. ">
<polygon fill="#ffffff" stroke="#000000" points="716,-56.5 716,-75.5 780,-75.5 780,-56.5 716,-56.5"/>
<text text-anchor="middle" x="748" y="-63.5" font-family="Helvetica,sans-Serif" font-size="10.00" fill="#000000">odp_api.h</text>
</a>
</g>
</g>
<!-- Node9&#45;&gt;Node14 -->
<g id="edge50" class="edge">
<title>Node9&#45;&gt;Node14</title>
<path fill="none" stroke="#191970" d="M409.511,-775.4209C398.2634,-753.7168 382,-716.3882 382,-682 382,-682 382,-682 382,-178 382,-136.5164 410.9915,-130.742 448,-112 494.5377,-88.4322 648.5491,-73.8034 715.9467,-68.3845"/>
<polygon fill="#191970" stroke="#191970" points="406.569,-777.3395 414.393,-784.4834 412.7317,-774.0196 406.569,-777.3395"/>
</g>
<!-- Node24 -->
<g id="node24" class="node">
<title>Node24</title>
<g id="a_node24"><a xlink:href="api_2spec_2packet__io_8h.html" target="_top" xlink:title="ODP Packet IO. ">
<polygon fill="#ffffff" stroke="#000000" points="606.5,-392.5 606.5,-411.5 679.5,-411.5 679.5,-392.5 606.5,-392.5"/>
<text text-anchor="middle" x="643" y="-399.5" font-family="Helvetica,sans-Serif" font-size="10.00" fill="#000000">packet_io.h</text>
</a>
</g>
</g>
<!-- Node9&#45;&gt;Node24 -->
<g id="edge49" class="edge">
<title>Node9&#45;&gt;Node24</title>
<path fill="none" stroke="#191970" d="M420,-774.1952C420,-751.8128 420,-714.2884 420,-682 420,-682 420,-682 420,-514 420,-431.6846 542.8378,-409.8618 606.1761,-404.0807"/>
<polygon fill="#191970" stroke="#191970" points="416.5001,-774.4116 420,-784.4116 423.5001,-774.4117 416.5001,-774.4116"/>
</g>
<!-- Node11 -->
<g id="node11" class="node">
<title>Node11</title>
<g id="a_node11"><a xlink:href="api_2packet_8h.html" target="_top" xlink:title="ODP packet descriptor. ">
<polygon fill="#ffffff" stroke="#000000" points="695.5,-672.5 695.5,-691.5 754.5,-691.5 754.5,-672.5 695.5,-672.5"/>
<text text-anchor="middle" x="725" y="-679.5" font-family="Helvetica,sans-Serif" font-size="10.00" fill="#000000">packet.h</text>
</a>
</g>
</g>
<!-- Node10&#45;&gt;Node11 -->
<g id="edge10" class="edge">
<title>Node10&#45;&gt;Node11</title>
<path fill="none" stroke="#191970" d="M631.4524,-724.2473C653.9722,-714.0771 684.0617,-700.4883 703.9618,-691.5011"/>
<polygon fill="#191970" stroke="#191970" points="629.9895,-721.0675 622.3164,-728.3733 632.8706,-727.4471 629.9895,-721.0675"/>
</g>
<!-- Node12 -->
<g id="node12" class="node">
<title>Node12</title>
<g id="a_node12"><a xlink:href="api_2spec_2comp_8h.html" target="_top" xlink:title="ODP Compression. ">
<polygon fill="#ffffff" stroke="#000000" points="501.5,-616.5 501.5,-635.5 554.5,-635.5 554.5,-616.5 501.5,-616.5"/>
<text text-anchor="middle" x="528" y="-623.5" font-family="Helvetica,sans-Serif" font-size="10.00" fill="#000000">comp.h</text>
</a>
</g>
</g>
<!-- Node11&#45;&gt;Node12 -->
<g id="edge11" class="edge">
<title>Node11&#45;&gt;Node12</title>
<path fill="none" stroke="#191970" d="M685.1557,-670.6737C646.3099,-659.6312 588.3198,-643.1467 554.7172,-633.5947"/>
<polygon fill="#191970" stroke="#191970" points="684.504,-674.127 695.0799,-673.4948 686.4181,-667.3938 684.504,-674.127"/>
</g>
<!-- Node11&#45;&gt;Node14 -->
<g id="edge48" class="edge">
<title>Node11&#45;&gt;Node14</title>
<path fill="none" stroke="#191970" d="M764.7118,-673.4288C837.0708,-656.6573 983,-617.0066 983,-570 983,-570 983,-570 983,-178 983,-133.5956 844.5436,-91.3712 780.183,-74.1421"/>
<polygon fill="#191970" stroke="#191970" points="763.5675,-670.0998 754.5959,-675.7354 765.1238,-676.9246 763.5675,-670.0998"/>
</g>
<!-- Node16 -->
<g id="node16" class="node">
<title>Node16</title>
<g id="a_node16"><a xlink:href="api_2spec_2crypto_8h.html" target="_top" xlink:title="ODP crypto. ">
<polygon fill="#ffffff" stroke="#000000" points="697,-448.5 697,-467.5 753,-467.5 753,-448.5 697,-448.5"/>
<text text-anchor="middle" x="725" y="-455.5" font-family="Helvetica,sans-Serif" font-size="10.00" fill="#000000">crypto.h</text>
</a>
</g>
</g>
<!-- Node11&#45;&gt;Node16 -->
<g id="edge15" class="edge">
<title>Node11&#45;&gt;Node16</title>
<path fill="none" stroke="#191970" d="M725,-662.1177C725,-615.6713 725,-501.4223 725,-467.5891"/>
<polygon fill="#191970" stroke="#191970" points="721.5001,-662.375 725,-672.375 728.5001,-662.375 721.5001,-662.375"/>
</g>
<!-- Node20 -->
<g id="node20" class="node">
<title>Node20</title>
<g id="a_node20"><a xlink:href="api_2spec_2event_8h.html" target="_top" xlink:title="ODP event. ">
<polygon fill="#ffffff" stroke="#000000" points="753.5,-616.5 753.5,-635.5 806.5,-635.5 806.5,-616.5 753.5,-616.5"/>
<text text-anchor="middle" x="780" y="-623.5" font-family="Helvetica,sans-Serif" font-size="10.00" fill="#000000">event.h</text>
</a>
</g>
</g>
<!-- Node11&#45;&gt;Node20 -->
<g id="edge21" class="edge">
<title>Node11&#45;&gt;Node20</title>
<path fill="none" stroke="#191970" d="M741.6226,-665.0751C751.0855,-655.4402 762.5969,-643.7196 770.5295,-635.6427"/>
<polygon fill="#191970" stroke="#191970" points="739.0903,-662.6585 734.5803,-672.2455 744.0845,-667.5635 739.0903,-662.6585"/>
</g>
<!-- Node11&#45;&gt;Node24 -->
<g id="edge47" class="edge">
<title>Node11&#45;&gt;Node24</title>
<path fill="none" stroke="#191970" d="M705.2361,-665.3895C683.6171,-645.2465 652,-609.1035 652,-570 652,-570 652,-570 652,-514 652,-475.9611 646.7781,-430.888 644.2895,-411.5676"/>
<polygon fill="#191970" stroke="#191970" points="703.1627,-668.2312 712.9455,-672.2989 707.8346,-663.0183 703.1627,-668.2312"/>
</g>
<!-- Node32 -->
<g id="node32" class="node">
<title>Node32</title>
<g id="a_node32"><a xlink:href="api_2spec_2packet__flags_8h.html" target="_top" xlink:title="ODP packet flags. ">
<polygon fill="#ffffff" stroke="#000000" points="1011.5,-560.5 1011.5,-579.5 1098.5,-579.5 1098.5,-560.5 1011.5,-560.5"/>
<text text-anchor="middle" x="1055" y="-567.5" font-family="Helvetica,sans-Serif" font-size="10.00" fill="#000000">packet_flags.h</text>
</a>
</g>
</g>
<!-- Node11&#45;&gt;Node32 -->
<g id="edge44" class="edge">
<title>Node11&#45;&gt;Node32</title>
<path fill="none" stroke="#191970" d="M764.6097,-678.576C830.1417,-672.3741 957.7914,-657.8637 997,-636 1021.2474,-622.479 1040.3331,-594.8247 1049.341,-579.9668"/>
<polygon fill="#191970" stroke="#191970" points="764.2826,-675.0913 754.6486,-679.4999 764.9291,-682.0613 764.2826,-675.0913"/>
</g>
<!-- Node13 -->
<g id="node13" class="node">
<title>Node13</title>
<g id="a_node13"><a xlink:href="api_2comp_8h.html" target="_top" xlink:title="ODP crypto. ">
<polygon fill="#ffffff" stroke="#000000" points="457.5,-504.5 457.5,-523.5 510.5,-523.5 510.5,-504.5 457.5,-504.5"/>
<text text-anchor="middle" x="484" y="-511.5" font-family="Helvetica,sans-Serif" font-size="10.00" fill="#000000">comp.h</text>
</a>
</g>
</g>
<!-- Node12&#45;&gt;Node13 -->
<g id="edge12" class="edge">
<title>Node12&#45;&gt;Node13</title>
<path fill="none" stroke="#191970" d="M520.5064,-606.9253C511.0004,-582.7284 494.9755,-541.9376 487.7419,-523.5249"/>
<polygon fill="#191970" stroke="#191970" points="517.3344,-608.4232 524.2486,-616.4509 523.8496,-605.8636 517.3344,-608.4232"/>
</g>
<!-- Node13&#45;&gt;Node14 -->
<g id="edge13" class="edge">
<title>Node13&#45;&gt;Node14</title>
<path fill="none" stroke="#191970" d="M476.3803,-494.5889C459.4127,-449.5574 420,-334.1756 420,-234 420,-234 420,-234 420,-178 420,-130.87 460.1349,-131.5912 503,-112 540.5904,-94.8196 658.4696,-77.6694 715.9067,-70.0679"/>
<polygon fill="#191970" stroke="#191970" points="473.1479,-495.9349 479.9965,-504.0187 479.6838,-493.4285 473.1479,-495.9349"/>
</g>
<!-- Node15 -->
<g id="node15" class="node">
<title>Node15</title>
<g id="a_node15"><a xlink:href="odp_8h.html" target="_top" xlink:title="WARNING: THIS FILE IS DEPRECATED AND WILL BE REMOVED!!! ODP APPLICATIONS SHOULD NOW INCLUDE odp_api...">
<polygon fill="#ffffff" stroke="#000000" points="726,-.5 726,-19.5 770,-19.5 770,-.5 726,-.5"/>
<text text-anchor="middle" x="748" y="-7.5" font-family="Helvetica,sans-Serif" font-size="10.00" fill="#000000">odp.h</text>
</a>
</g>
</g>
<!-- Node14&#45;&gt;Node15 -->
<g id="edge14" class="edge">
<title>Node14&#45;&gt;Node15</title>
<path fill="none" stroke="#191970" d="M748,-46.1575C748,-37.155 748,-26.9199 748,-19.6427"/>
<polygon fill="#191970" stroke="#191970" points="744.5001,-46.2455 748,-56.2455 751.5001,-46.2456 744.5001,-46.2455"/>
</g>
<!-- Node17 -->
<g id="node17" class="node">
<title>Node17</title>
<g id="a_node17"><a xlink:href="api_2crypto_8h.html" target="_top" xlink:title="ODP crypto. ">
<polygon fill="#ffffff" stroke="#000000" points="720,-336.5 720,-355.5 776,-355.5 776,-336.5 720,-336.5"/>
<text text-anchor="middle" x="748" y="-343.5" font-family="Helvetica,sans-Serif" font-size="10.00" fill="#000000">crypto.h</text>
</a>
</g>
</g>
<!-- Node16&#45;&gt;Node17 -->
<g id="edge16" class="edge">
<title>Node16&#45;&gt;Node17</title>
<path fill="none" stroke="#191970" d="M728.9842,-438.5987C733.9612,-414.363 742.2798,-373.8551 746.044,-355.5249"/>
<polygon fill="#191970" stroke="#191970" points="725.5442,-437.9513 726.961,-448.4509 732.4011,-439.3594 725.5442,-437.9513"/>
</g>
<!-- Node17&#45;&gt;Node14 -->
<g id="edge20" class="edge">
<title>Node17&#45;&gt;Node14</title>
<path fill="none" stroke="#191970" d="M757.1089,-327.2634C766.8765,-305.4131 781,-267.949 781,-234 781,-234 781,-234 781,-178 781,-138.6744 762.0488,-94.6323 752.8693,-75.6061"/>
<polygon fill="#191970" stroke="#191970" points="753.9063,-325.8499 752.8693,-336.3939 760.2552,-328.798 753.9063,-325.8499"/>
</g>
<!-- Node18 -->
<g id="node18" class="node">
<title>Node18</title>
<g id="a_node18"><a xlink:href="api_2spec_2ipsec_8h.html" target="_top" xlink:title="ODP IPSEC API. ">
<polygon fill="#ffffff" stroke="#000000" points="679.5,-168.5 679.5,-187.5 730.5,-187.5 730.5,-168.5 679.5,-168.5"/>
<text text-anchor="middle" x="705" y="-175.5" font-family="Helvetica,sans-Serif" font-size="10.00" fill="#000000">ipsec.h</text>
</a>
</g>
</g>
<!-- Node17&#45;&gt;Node18 -->
<g id="edge17" class="edge">
<title>Node17&#45;&gt;Node18</title>
<path fill="none" stroke="#191970" d="M743.7429,-326.4368C738.392,-302.2619 728.725,-259.9194 719,-224 715.5967,-211.43 711.1425,-197.0982 708.1819,-187.8194"/>
<polygon fill="#191970" stroke="#191970" points="740.38,-327.4414 745.9435,-336.4579 747.2171,-325.9399 740.38,-327.4414"/>
</g>
<!-- Node19 -->
<g id="node19" class="node">
<title>Node19</title>
<g id="a_node19"><a xlink:href="api_2ipsec_8h.html" target="_top" xlink:title="ODP IPSEC API &#45; platform specific header. ">
<polygon fill="#ffffff" stroke="#000000" points="690.5,-112.5 690.5,-131.5 741.5,-131.5 741.5,-112.5 690.5,-112.5"/>
<text text-anchor="middle" x="716" y="-119.5" font-family="Helvetica,sans-Serif" font-size="10.00" fill="#000000">ipsec.h</text>
</a>
</g>
</g>
<!-- Node18&#45;&gt;Node19 -->
<g id="edge18" class="edge">
<title>Node18&#45;&gt;Node19</title>
<path fill="none" stroke="#191970" d="M708.8976,-158.1575C710.666,-149.155 712.6765,-138.9199 714.1059,-131.6427"/>
<polygon fill="#191970" stroke="#191970" points="705.4092,-157.7584 706.9161,-168.2455 712.278,-159.1077 705.4092,-157.7584"/>
</g>
<!-- Node19&#45;&gt;Node14 -->
<g id="edge19" class="edge">
<title>Node19&#45;&gt;Node14</title>
<path fill="none" stroke="#191970" d="M726.6645,-103.3372C731.9654,-94.0605 738.1487,-83.2398 742.4899,-75.6427"/>
<polygon fill="#191970" stroke="#191970" points="723.4966,-101.8266 721.574,-112.2455 729.5743,-105.2996 723.4966,-101.8266"/>
</g>
<!-- Node21 -->
<g id="node21" class="node">
<title>Node21</title>
<g id="a_node21"><a xlink:href="api_2event_8h.html" target="_top" xlink:title="ODP event. ">
<polygon fill="#ffffff" stroke="#000000" points="782.5,-560.5 782.5,-579.5 835.5,-579.5 835.5,-560.5 782.5,-560.5"/>
<text text-anchor="middle" x="809" y="-567.5" font-family="Helvetica,sans-Serif" font-size="10.00" fill="#000000">event.h</text>
</a>
</g>
</g>
<!-- Node20&#45;&gt;Node21 -->
<g id="edge22" class="edge">
<title>Node20&#45;&gt;Node21</title>
<path fill="none" stroke="#191970" d="M789.6647,-607.3372C794.4687,-598.0605 800.0723,-587.2398 804.0065,-579.6427"/>
<polygon fill="#191970" stroke="#191970" points="786.542,-605.7561 785.0514,-616.2455 792.758,-608.9751 786.542,-605.7561"/>
</g>
<!-- Node21&#45;&gt;Node14 -->
<g id="edge43" class="edge">
<title>Node21&#45;&gt;Node14</title>
<path fill="none" stroke="#191970" d="M804.268,-550.2549C802.5579,-542.1687 800.8418,-532.6868 800,-524 796.7419,-490.3797 798.5049,-481.7447 800,-448 804.2264,-352.6083 819,-329.4852 819,-234 819,-234 819,-234 819,-178 819,-134.2576 779.8902,-93.751 759.7242,-75.7722"/>
<polygon fill="#191970" stroke="#191970" points="800.899,-551.2257 806.5135,-560.2105 807.7274,-549.6854 800.899,-551.2257"/>
</g>
<!-- Node22 -->
<g id="node22" class="node">
<title>Node22</title>
<g id="a_node22"><a xlink:href="api_2spec_2queue_8h.html" target="_top" xlink:title="ODP queue. ">
<polygon fill="#ffffff" stroke="#000000" points="809,-504.5 809,-523.5 865,-523.5 865,-504.5 809,-504.5"/>
<text text-anchor="middle" x="837" y="-511.5" font-family="Helvetica,sans-Serif" font-size="10.00" fill="#000000">queue.h</text>
</a>
</g>
</g>
<!-- Node21&#45;&gt;Node22 -->
<g id="edge23" class="edge">
<title>Node21&#45;&gt;Node22</title>
<path fill="none" stroke="#191970" d="M818.4781,-551.0437C823.0835,-541.8331 828.4201,-531.1598 832.1787,-523.6427"/>
<polygon fill="#191970" stroke="#191970" points="815.2189,-549.736 813.8772,-560.2455 821.4799,-552.8665 815.2189,-549.736"/>
</g>
<!-- Node30 -->
<g id="node30" class="node">
<title>Node30</title>
<g id="a_node30"><a xlink:href="api_2spec_2schedule_8h.html" target="_top" xlink:title="ODP schedule. ">
<polygon fill="#ffffff" stroke="#000000" points="885.5,-392.5 885.5,-411.5 954.5,-411.5 954.5,-392.5 885.5,-392.5"/>
<text text-anchor="middle" x="920" y="-399.5" font-family="Helvetica,sans-Serif" font-size="10.00" fill="#000000">schedule.h</text>
</a>
</g>
</g>
<!-- Node21&#45;&gt;Node30 -->
<g id="edge42" class="edge">
<title>Node21&#45;&gt;Node30</title>
<path fill="none" stroke="#191970" d="M837.3018,-555.1363C849.9619,-547.3027 864.2068,-536.6773 874,-524 901.6765,-488.1728 914.1846,-433.8627 918.3326,-411.8164"/>
<polygon fill="#191970" stroke="#191970" points="835.2991,-552.2535 828.4496,-560.3365 838.8448,-558.2891 835.2991,-552.2535"/>
</g>
<!-- Node23 -->
<g id="node23" class="node">
<title>Node23</title>
<g id="a_node23"><a xlink:href="api_2queue_8h.html" target="_top" xlink:title="ODP queue. ">
<polygon fill="#ffffff" stroke="#000000" points="809,-448.5 809,-467.5 865,-467.5 865,-448.5 809,-448.5"/>
<text text-anchor="middle" x="837" y="-455.5" font-family="Helvetica,sans-Serif" font-size="10.00" fill="#000000">queue.h</text>
</a>
</g>
</g>
<!-- Node22&#45;&gt;Node23 -->
<g id="edge24" class="edge">
<title>Node22&#45;&gt;Node23</title>
<path fill="none" stroke="#191970" d="M837,-494.1575C837,-485.155 837,-474.9199 837,-467.6427"/>
<polygon fill="#191970" stroke="#191970" points="833.5001,-494.2455 837,-504.2455 840.5001,-494.2456 833.5001,-494.2455"/>
</g>
<!-- Node23&#45;&gt;Node14 -->
<g id="edge41" class="edge">
<title>Node23&#45;&gt;Node14</title>
<path fill="none" stroke="#191970" d="M842.6819,-438.3467C848.5945,-416.1295 857,-378.7807 857,-346 857,-346 857,-346 857,-178 857,-146.7875 853.3871,-135.6345 833,-112 818.2044,-94.8476 795.3757,-82.9934 777.1009,-75.6194"/>
<polygon fill="#191970" stroke="#191970" points="839.2445,-437.6455 839.9511,-448.2168 845.991,-439.5122 839.2445,-437.6455"/>
</g>
<!-- Node23&#45;&gt;Node17 -->
<g id="edge25" class="edge">
<title>Node23&#45;&gt;Node17</title>
<path fill="none" stroke="#191970" d="M823.1155,-440.5274C804.077,-416.5688 770.5285,-374.3505 755.5689,-355.5249"/>
<polygon fill="#191970" stroke="#191970" points="820.4503,-442.7993 829.4119,-448.4509 825.9307,-438.4443 820.4503,-442.7993"/>
</g>
<!-- Node23&#45;&gt;Node24 -->
<g id="edge26" class="edge">
<title>Node23&#45;&gt;Node24</title>
<path fill="none" stroke="#191970" d="M798.7334,-446.954C762.9684,-436.63 710.1182,-421.3743 676.1199,-411.5604"/>
<polygon fill="#191970" stroke="#191970" points="798.2123,-450.4464 808.7907,-449.8571 800.1537,-443.721 798.2123,-450.4464"/>
</g>
<!-- Node23&#45;&gt;Node30 -->
<g id="edge38" class="edge">
<title>Node23&#45;&gt;Node30</title>
<path fill="none" stroke="#191970" d="M859.988,-442.49C874.6322,-432.6096 893.1444,-420.1194 905.7082,-411.6427"/>
<polygon fill="#191970" stroke="#191970" points="857.7896,-439.7511 851.4575,-448.2455 861.7047,-445.5539 857.7896,-439.7511"/>
</g>
<!-- Node25 -->
<g id="node25" class="node">
<title>Node25</title>
<g id="a_node25"><a xlink:href="api_2packet__io_8h.html" target="_top" xlink:title="ODP Packet IO. ">
<polygon fill="#ffffff" stroke="#000000" points="598.5,-336.5 598.5,-355.5 671.5,-355.5 671.5,-336.5 598.5,-336.5"/>
<text text-anchor="middle" x="635" y="-343.5" font-family="Helvetica,sans-Serif" font-size="10.00" fill="#000000">packet_io.h</text>
</a>
</g>
</g>
<!-- Node24&#45;&gt;Node25 -->
<g id="edge27" class="edge">
<title>Node24&#45;&gt;Node25</title>
<path fill="none" stroke="#191970" d="M640.1654,-382.1575C638.8793,-373.155 637.4171,-362.9199 636.3775,-355.6427"/>
<polygon fill="#191970" stroke="#191970" points="636.7274,-382.8411 641.6065,-392.2455 643.657,-381.851 636.7274,-382.8411"/>
</g>
<!-- Node25&#45;&gt;Node14 -->
<g id="edge37" class="edge">
<title>Node25&#45;&gt;Node14</title>
<path fill="none" stroke="#191970" d="M588.1895,-337.5449C547.4937,-329.2944 492.6666,-315.7138 477,-300 455.4483,-278.3834 458,-264.5246 458,-234 458,-234 458,-234 458,-178 458,-123.2189 640.3518,-84.8917 715.8569,-71.3698"/>
<polygon fill="#191970" stroke="#191970" points="587.7098,-341.0178 598.199,-339.5258 589.0687,-334.151 587.7098,-341.0178"/>
</g>
<!-- Node25&#45;&gt;Node18 -->
<g id="edge32" class="edge">
<title>Node25&#45;&gt;Node18</title>
<path fill="none" stroke="#191970" d="M658.6826,-330.2912C668.7021,-322.3981 679.531,-311.9635 686,-300 706.3918,-262.2884 706.5181,-209.0383 705.5976,-187.5459"/>
<polygon fill="#191970" stroke="#191970" points="656.5217,-327.5362 650.5701,-336.3015 660.6888,-333.1608 656.5217,-327.5362"/>
</g>
<!-- Node26 -->
<g id="node26" class="node">
<title>Node26</title>
<g id="a_node26"><a xlink:href="api_2spec_2classification_8h.html" target="_top" xlink:title="ODP classification descriptor. ">
<polygon fill="#ffffff" stroke="#000000" points="486.5,-280.5 486.5,-299.5 575.5,-299.5 575.5,-280.5 486.5,-280.5"/>
<text text-anchor="middle" x="531" y="-287.5" font-family="Helvetica,sans-Serif" font-size="10.00" fill="#000000">classification.h</text>
</a>
</g>
</g>
<!-- Node25&#45;&gt;Node26 -->
<g id="edge28" class="edge">
<title>Node25&#45;&gt;Node26</title>
<path fill="none" stroke="#191970" d="M607.9971,-331.46C589.3864,-321.4388 565.1701,-308.3993 548.9078,-299.6427"/>
<polygon fill="#191970" stroke="#191970" points="606.4205,-334.5861 616.8846,-336.2455 609.7392,-328.4228 606.4205,-334.5861"/>
</g>
<!-- Node28 -->
<g id="node28" class="node">
<title>Node28</title>
<g id="a_node28"><a xlink:href="api_2spec_2traffic__mngr_8h.html" target="_top" xlink:title="Copyright (c) 2015&#45;2018, Linaro Limited All rights reserved. ">
<polygon fill="#ffffff" stroke="#000000" points="593,-280.5 593,-299.5 677,-299.5 677,-280.5 593,-280.5"/>
<text text-anchor="middle" x="635" y="-287.5" font-family="Helvetica,sans-Serif" font-size="10.00" fill="#000000">traffic_mngr.h</text>
</a>
</g>
</g>
<!-- Node25&#45;&gt;Node28 -->
<g id="edge33" class="edge">
<title>Node25&#45;&gt;Node28</title>
<path fill="none" stroke="#191970" d="M635,-326.1575C635,-317.155 635,-306.9199 635,-299.6427"/>
<polygon fill="#191970" stroke="#191970" points="631.5001,-326.2455 635,-336.2455 638.5001,-326.2456 631.5001,-326.2455"/>
</g>
<!-- Node27 -->
<g id="node27" class="node">
<title>Node27</title>
<g id="a_node27"><a xlink:href="api_2classification_8h.html" target="_top" xlink:title="ODP classification descriptor. ">
<polygon fill="#ffffff" stroke="#000000" points="486.5,-224.5 486.5,-243.5 575.5,-243.5 575.5,-224.5 486.5,-224.5"/>
<text text-anchor="middle" x="531" y="-231.5" font-family="Helvetica,sans-Serif" font-size="10.00" fill="#000000">classification.h</text>
</a>
</g>
</g>
<!-- Node26&#45;&gt;Node27 -->
<g id="edge29" class="edge">
<title>Node26&#45;&gt;Node27</title>
<path fill="none" stroke="#191970" d="M531,-270.1575C531,-261.155 531,-250.9199 531,-243.6427"/>
<polygon fill="#191970" stroke="#191970" points="527.5001,-270.2455 531,-280.2455 534.5001,-270.2456 527.5001,-270.2455"/>
</g>
<!-- Node27&#45;&gt;Node14 -->
<g id="edge31" class="edge">
<title>Node27&#45;&gt;Node14</title>
<path fill="none" stroke="#191970" d="M547.0632,-217.0496C571.1839,-192.1597 618.866,-145.097 665,-112 685.2132,-97.4988 710.4582,-84.1004 727.7665,-75.549"/>
<polygon fill="#191970" stroke="#191970" points="544.4959,-214.6699 540.0915,-224.3058 549.5437,-219.5197 544.4959,-214.6699"/>
</g>
<!-- Node27&#45;&gt;Node18 -->
<g id="edge30" class="edge">
<title>Node27&#45;&gt;Node18</title>
<path fill="none" stroke="#191970" d="M570.8085,-221.1881C604.1848,-210.4463 650.8482,-195.4282 679.4367,-186.2273"/>
<polygon fill="#191970" stroke="#191970" points="569.3585,-217.9779 560.9117,-224.3733 571.5031,-224.6413 569.3585,-217.9779"/>
</g>
<!-- Node29 -->
<g id="node29" class="node">
<title>Node29</title>
<g id="a_node29"><a xlink:href="api_2traffic__mngr_8h.html" target="_top" xlink:title="ODP Traffic manager. ">
<polygon fill="#ffffff" stroke="#000000" points="593,-224.5 593,-243.5 677,-243.5 677,-224.5 593,-224.5"/>
<text text-anchor="middle" x="635" y="-231.5" font-family="Helvetica,sans-Serif" font-size="10.00" fill="#000000">traffic_mngr.h</text>
</a>
</g>
</g>
<!-- Node28&#45;&gt;Node29 -->
<g id="edge34" class="edge">
<title>Node28&#45;&gt;Node29</title>
<path fill="none" stroke="#191970" d="M635,-270.1575C635,-261.155 635,-250.9199 635,-243.6427"/>
<polygon fill="#191970" stroke="#191970" points="631.5001,-270.2455 635,-280.2455 638.5001,-270.2456 631.5001,-270.2455"/>
</g>
<!-- Node29&#45;&gt;Node14 -->
<g id="edge36" class="edge">
<title>Node29&#45;&gt;Node14</title>
<path fill="none" stroke="#191970" d="M638.5529,-214.4906C644.0259,-188.7859 656.5483,-143.1919 681,-112 693.5349,-96.0098 713.1673,-83.4539 727.9463,-75.5281"/>
<polygon fill="#191970" stroke="#191970" points="635.0832,-213.9944 636.5705,-224.4843 641.9494,-215.3565 635.0832,-213.9944"/>
</g>
<!-- Node29&#45;&gt;Node18 -->
<g id="edge35" class="edge">
<title>Node29&#45;&gt;Node18</title>
<path fill="none" stroke="#191970" d="M655.09,-217.928C667.3253,-208.1397 682.5507,-195.9595 692.9467,-187.6427"/>
<polygon fill="#191970" stroke="#191970" points="652.8153,-215.2655 647.1931,-224.2455 657.1882,-220.7316 652.8153,-215.2655"/>
</g>
<!-- Node31 -->
<g id="node31" class="node">
<title>Node31</title>
<g id="a_node31"><a xlink:href="api_2schedule_8h.html" target="_top" xlink:title="ODP schedule. ">
<polygon fill="#ffffff" stroke="#000000" points="885.5,-168.5 885.5,-187.5 954.5,-187.5 954.5,-168.5 885.5,-168.5"/>
<text text-anchor="middle" x="920" y="-175.5" font-family="Helvetica,sans-Serif" font-size="10.00" fill="#000000">schedule.h</text>
</a>
</g>
</g>
<!-- Node30&#45;&gt;Node31 -->
<g id="edge39" class="edge">
<title>Node30&#45;&gt;Node31</title>
<path fill="none" stroke="#191970" d="M920,-382.1177C920,-335.6713 920,-221.4223 920,-187.5891"/>
<polygon fill="#191970" stroke="#191970" points="916.5001,-382.375 920,-392.375 923.5001,-382.375 916.5001,-382.375"/>
</g>
<!-- Node31&#45;&gt;Node14 -->
<g id="edge40" class="edge">
<title>Node31&#45;&gt;Node14</title>
<path fill="none" stroke="#191970" d="M910.1471,-159.3491C901.5538,-144.6801 887.8384,-124.6688 871,-112 843.7639,-91.5082 806.3911,-79.2625 780.0094,-72.6201"/>
<polygon fill="#191970" stroke="#191970" points="907.0985,-161.0686 915.0357,-168.0865 913.2073,-157.6506 907.0985,-161.0686"/>
</g>
<!-- Node33 -->
<g id="node33" class="node">
<title>Node33</title>
<g id="a_node33"><a xlink:href="api_2packet__flags_8h.html" target="_top" xlink:title="ODP packet flags. ">
<polygon fill="#ffffff" stroke="#000000" points="1011.5,-112.5 1011.5,-131.5 1098.5,-131.5 1098.5,-112.5 1011.5,-112.5"/>
<text text-anchor="middle" x="1055" y="-119.5" font-family="Helvetica,sans-Serif" font-size="10.00" fill="#000000">packet_flags.h</text>
</a>
</g>
</g>
<!-- Node32&#45;&gt;Node33 -->
<g id="edge45" class="edge">
<title>Node32&#45;&gt;Node33</title>
<path fill="none" stroke="#191970" d="M1055,-550.1952C1055,-527.8128 1055,-490.2884 1055,-458 1055,-458 1055,-458 1055,-234 1055,-196.0833 1055,-150.9462 1055,-131.5884"/>
<polygon fill="#191970" stroke="#191970" points="1051.5001,-550.4116 1055,-560.4116 1058.5001,-550.4117 1051.5001,-550.4116"/>
</g>
<!-- Node33&#45;&gt;Node14 -->
<g id="edge46" class="edge">
<title>Node33&#45;&gt;Node14</title>
<path fill="none" stroke="#191970" d="M1001.4535,-112.2326C937.5756,-100.5806 832.8385,-81.4754 780.2532,-71.8833"/>
<polygon fill="#191970" stroke="#191970" points="1000.8746,-115.6846 1011.3404,-114.036 1002.1308,-108.7983 1000.8746,-115.6846"/>
</g>
</g>
</svg>
