<?xml version="1.0" encoding="UTF-8" standalone="no"?>
<!DOCTYPE svg PUBLIC "-//W3C//DTD SVG 1.1//EN"
 "http://www.w3.org/Graphics/SVG/1.1/DTD/svg11.dtd">
<!-- Generated by graphviz version 2.40.1 (20161225.0304)
 -->
<!-- Title: schedule_types.h Pages: 1 -->
<svg width="894pt" height="756pt"
 viewBox="0.00 0.00 893.50 756.00" xmlns="http://www.w3.org/2000/svg" xmlns:xlink="http://www.w3.org/1999/xlink">
<g id="graph0" class="graph" transform="scale(1 1) rotate(0) translate(4 752)">
<title>schedule_types.h</title>
<polygon fill="#ffffff" stroke="transparent" points="-4,4 -4,-752 889.5,-752 889.5,4 -4,4"/>
<!-- Node1 -->
<g id="node1" class="node">
<title>Node1</title>
<polygon fill="#bfbfbf" stroke="#000000" points="357,-728.5 357,-747.5 458,-747.5 458,-728.5 357,-728.5"/>
<text text-anchor="middle" x="407.5" y="-735.5" font-family="Helvetica,sans-Serif" font-size="10.00" fill="#000000">schedule_types.h</text>
</g>
<!-- Node2 -->
<g id="node2" class="node">
<title>Node2</title>
<g id="a_node2"><a xlink:href="arch_2arm32-linux_2odp_2api_2abi_2schedule__types_8h_source.html" target="_top" xlink:title="schedule_types.h">
<polygon fill="#ffffff" stroke="#000000" points="0,-672.5 0,-691.5 101,-691.5 101,-672.5 0,-672.5"/>
<text text-anchor="middle" x="50.5" y="-679.5" font-family="Helvetica,sans-Serif" font-size="10.00" fill="#000000">schedule_types.h</text>
</a>
</g>
</g>
<!-- Node1&#45;&gt;Node2 -->
<g id="edge1" class="edge">
<title>Node1&#45;&gt;Node2</title>
<path fill="none" stroke="#191970" d="M346.7464,-728.89C286.4969,-719.7925 191.5677,-705.2882 109.5,-692 106.731,-691.5516 103.8898,-691.0866 101.0224,-690.6135"/>
<polygon fill="#191970" stroke="#191970" points="346.4354,-732.3826 356.8456,-730.4134 347.4795,-725.4609 346.4354,-732.3826"/>
</g>
<!-- Node3 -->
<g id="node3" class="node">
<title>Node3</title>
<g id="a_node3"><a xlink:href="arch_2arm64-linux_2odp_2api_2abi_2schedule__types_8h_source.html" target="_top" xlink:title="schedule_types.h">
<polygon fill="#ffffff" stroke="#000000" points="119,-672.5 119,-691.5 220,-691.5 220,-672.5 119,-672.5"/>
<text text-anchor="middle" x="169.5" y="-679.5" font-family="Helvetica,sans-Serif" font-size="10.00" fill="#000000">schedule_types.h</text>
</a>
</g>
</g>
<!-- Node1&#45;&gt;Node3 -->
<g id="edge2" class="edge">
<title>Node1&#45;&gt;Node3</title>
<path fill="none" stroke="#191970" d="M356.978,-726.1125C313.1588,-715.8021 250.5614,-701.0733 209.9756,-691.5237"/>
<polygon fill="#191970" stroke="#191970" points="356.3209,-729.5534 366.8568,-728.4369 357.9243,-722.7395 356.3209,-729.5534"/>
</g>
<!-- Node4 -->
<g id="node4" class="node">
<title>Node4</title>
<g id="a_node4"><a xlink:href="arch_2default-linux_2odp_2api_2abi_2schedule__types_8h_source.html" target="_top" xlink:title="schedule_types.h">
<polygon fill="#ffffff" stroke="#000000" points="238,-672.5 238,-691.5 339,-691.5 339,-672.5 238,-672.5"/>
<text text-anchor="middle" x="288.5" y="-679.5" font-family="Helvetica,sans-Serif" font-size="10.00" fill="#000000">schedule_types.h</text>
</a>
</g>
</g>
<!-- Node1&#45;&gt;Node4 -->
<g id="edge3" class="edge">
<title>Node1&#45;&gt;Node4</title>
<path fill="none" stroke="#191970" d="M377.9856,-724.1109C356.4062,-713.9559 327.7024,-700.4482 308.6899,-691.5011"/>
<polygon fill="#191970" stroke="#191970" points="376.5047,-727.2821 387.0432,-728.3733 379.4853,-720.9484 376.5047,-727.2821"/>
</g>
<!-- Node5 -->
<g id="node5" class="node">
<title>Node5</title>
<g id="a_node5"><a xlink:href="arch_2mips64-linux_2odp_2api_2abi_2schedule__types_8h_source.html" target="_top" xlink:title="schedule_types.h">
<polygon fill="#ffffff" stroke="#000000" points="357,-672.5 357,-691.5 458,-691.5 458,-672.5 357,-672.5"/>
<text text-anchor="middle" x="407.5" y="-679.5" font-family="Helvetica,sans-Serif" font-size="10.00" fill="#000000">schedule_types.h</text>
</a>
</g>
</g>
<!-- Node1&#45;&gt;Node5 -->
<g id="edge4" class="edge">
<title>Node1&#45;&gt;Node5</title>
<path fill="none" stroke="#191970" d="M407.5,-718.1575C407.5,-709.155 407.5,-698.9199 407.5,-691.6427"/>
<polygon fill="#191970" stroke="#191970" points="404.0001,-718.2455 407.5,-728.2455 411.0001,-718.2456 404.0001,-718.2455"/>
</g>
<!-- Node6 -->
<g id="node6" class="node">
<title>Node6</title>
<g id="a_node6"><a xlink:href="arch_2power64-linux_2odp_2api_2abi_2schedule__types_8h_source.html" target="_top" xlink:title="schedule_types.h">
<polygon fill="#ffffff" stroke="#000000" points="476,-672.5 476,-691.5 577,-691.5 577,-672.5 476,-672.5"/>
<text text-anchor="middle" x="526.5" y="-679.5" font-family="Helvetica,sans-Serif" font-size="10.00" fill="#000000">schedule_types.h</text>
</a>
</g>
</g>
<!-- Node1&#45;&gt;Node6 -->
<g id="edge5" class="edge">
<title>Node1&#45;&gt;Node6</title>
<path fill="none" stroke="#191970" d="M437.0144,-724.1109C458.5938,-713.9559 487.2976,-700.4482 506.3101,-691.5011"/>
<polygon fill="#191970" stroke="#191970" points="435.5147,-720.9484 427.9568,-728.3733 438.4953,-727.2821 435.5147,-720.9484"/>
</g>
<!-- Node7 -->
<g id="node7" class="node">
<title>Node7</title>
<g id="a_node7"><a xlink:href="arch_2x86__32-linux_2odp_2api_2abi_2schedule__types_8h_source.html" target="_top" xlink:title="schedule_types.h">
<polygon fill="#ffffff" stroke="#000000" points="595,-672.5 595,-691.5 696,-691.5 696,-672.5 595,-672.5"/>
<text text-anchor="middle" x="645.5" y="-679.5" font-family="Helvetica,sans-Serif" font-size="10.00" fill="#000000">schedule_types.h</text>
</a>
</g>
</g>
<!-- Node1&#45;&gt;Node7 -->
<g id="edge6" class="edge">
<title>Node1&#45;&gt;Node7</title>
<path fill="none" stroke="#191970" d="M458.022,-726.1125C501.8412,-715.8021 564.4386,-701.0733 605.0244,-691.5237"/>
<polygon fill="#191970" stroke="#191970" points="457.0757,-722.7395 448.1432,-728.4369 458.6791,-729.5534 457.0757,-722.7395"/>
</g>
<!-- Node8 -->
<g id="node8" class="node">
<title>Node8</title>
<g id="a_node8"><a xlink:href="arch_2x86__64-linux_2odp_2api_2abi_2schedule__types_8h_source.html" target="_top" xlink:title="schedule_types.h">
<polygon fill="#ffffff" stroke="#000000" points="714,-672.5 714,-691.5 815,-691.5 815,-672.5 714,-672.5"/>
<text text-anchor="middle" x="764.5" y="-679.5" font-family="Helvetica,sans-Serif" font-size="10.00" fill="#000000">schedule_types.h</text>
</a>
</g>
</g>
<!-- Node1&#45;&gt;Node8 -->
<g id="edge7" class="edge">
<title>Node1&#45;&gt;Node8</title>
<path fill="none" stroke="#191970" d="M468.2536,-728.89C528.5031,-719.7925 623.4323,-705.2882 705.5,-692 708.269,-691.5516 711.1102,-691.0866 713.9776,-690.6135"/>
<polygon fill="#191970" stroke="#191970" points="467.5205,-725.4609 458.1544,-730.4134 468.5646,-732.3826 467.5205,-725.4609"/>
</g>
<!-- Node9 -->
<g id="node9" class="node">
<title>Node9</title>
<g id="a_node9"><a xlink:href="api_2schedule_8h.html" target="_top" xlink:title="ODP schedule. ">
<polygon fill="#ffffff" stroke="#000000" points="770,-336.5 770,-355.5 839,-355.5 839,-336.5 770,-336.5"/>
<text text-anchor="middle" x="804.5" y="-343.5" font-family="Helvetica,sans-Serif" font-size="10.00" fill="#000000">schedule.h</text>
</a>
</g>
</g>
<!-- Node8&#45;&gt;Node9 -->
<g id="edge8" class="edge">
<title>Node8&#45;&gt;Node9</title>
<path fill="none" stroke="#191970" d="M775.5642,-663.4471C787.403,-641.8004 804.5,-604.5568 804.5,-570 804.5,-570 804.5,-570 804.5,-458 804.5,-420.0833 804.5,-374.9462 804.5,-355.5884"/>
<polygon fill="#191970" stroke="#191970" points="772.4713,-661.8059 770.5751,-672.2297 778.5578,-665.2635 772.4713,-661.8059"/>
</g>
<!-- Node12 -->
<g id="node12" class="node">
<title>Node12</title>
<g id="a_node12"><a xlink:href="api_2schedule__types_8h.html" target="_top" xlink:title="ODP schedule. ">
<polygon fill="#ffffff" stroke="#000000" points="675,-616.5 675,-635.5 776,-635.5 776,-616.5 675,-616.5"/>
<text text-anchor="middle" x="725.5" y="-623.5" font-family="Helvetica,sans-Serif" font-size="10.00" fill="#000000">schedule_types.h</text>
</a>
</g>
</g>
<!-- Node8&#45;&gt;Node12 -->
<g id="edge11" class="edge">
<title>Node8&#45;&gt;Node12</title>
<path fill="none" stroke="#191970" d="M751.9092,-663.9209C745.3605,-654.5176 737.6176,-643.3997 732.2154,-635.6427"/>
<polygon fill="#191970" stroke="#191970" points="749.1196,-666.0397 757.7067,-672.2455 754.8639,-662.0392 749.1196,-666.0397"/>
</g>
<!-- Node10 -->
<g id="node10" class="node">
<title>Node10</title>
<g id="a_node10"><a xlink:href="odp__api_8h.html" target="_top" xlink:title="The OpenDataPlane API. ">
<polygon fill="#ffffff" stroke="#000000" points="654.5,-56.5 654.5,-75.5 718.5,-75.5 718.5,-56.5 654.5,-56.5"/>
<text text-anchor="middle" x="686.5" y="-63.5" font-family="Helvetica,sans-Serif" font-size="10.00" fill="#000000">odp_api.h</text>
</a>
</g>
</g>
<!-- Node9&#45;&gt;Node10 -->
<g id="edge9" class="edge">
<title>Node9&#45;&gt;Node10</title>
<path fill="none" stroke="#191970" d="M826.1782,-330.0606C850.1719,-310.4028 885.5,-274.5703 885.5,-234 885.5,-234 885.5,-234 885.5,-178 885.5,-102.4771 775.3047,-77.334 718.9157,-69.4119"/>
<polygon fill="#191970" stroke="#191970" points="823.9253,-327.3798 818.2405,-336.3205 828.26,-332.8763 823.9253,-327.3798"/>
</g>
<!-- Node11 -->
<g id="node11" class="node">
<title>Node11</title>
<g id="a_node11"><a xlink:href="odp_8h.html" target="_top" xlink:title="WARNING: THIS FILE IS DEPRECATED AND WILL BE REMOVED!!! ODP APPLICATIONS SHOULD NOW INCLUDE odp_api...">
<polygon fill="#ffffff" stroke="#000000" points="664.5,-.5 664.5,-19.5 708.5,-19.5 708.5,-.5 664.5,-.5"/>
<text text-anchor="middle" x="686.5" y="-7.5" font-family="Helvetica,sans-Serif" font-size="10.00" fill="#000000">odp.h</text>
</a>
</g>
</g>
<!-- Node10&#45;&gt;Node11 -->
<g id="edge10" class="edge">
<title>Node10&#45;&gt;Node11</title>
<path fill="none" stroke="#191970" d="M686.5,-46.1575C686.5,-37.155 686.5,-26.9199 686.5,-19.6427"/>
<polygon fill="#191970" stroke="#191970" points="683.0001,-46.2455 686.5,-56.2455 690.0001,-46.2456 683.0001,-46.2455"/>
</g>
<!-- Node13 -->
<g id="node13" class="node">
<title>Node13</title>
<g id="a_node13"><a xlink:href="queue__types_8h.html" target="_top" xlink:title="ODP queue types. ">
<polygon fill="#ffffff" stroke="#000000" points="611.5,-560.5 611.5,-579.5 699.5,-579.5 699.5,-560.5 611.5,-560.5"/>
<text text-anchor="middle" x="655.5" y="-567.5" font-family="Helvetica,sans-Serif" font-size="10.00" fill="#000000">queue_types.h</text>
</a>
</g>
</g>
<!-- Node12&#45;&gt;Node13 -->
<g id="edge12" class="edge">
<title>Node12&#45;&gt;Node13</title>
<path fill="none" stroke="#191970" d="M705.41,-609.928C693.1747,-600.1397 677.9493,-587.9595 667.5533,-579.6427"/>
<polygon fill="#191970" stroke="#191970" points="703.3118,-612.7316 713.3069,-616.2455 707.6847,-607.2655 703.3118,-612.7316"/>
</g>
<!-- Node25 -->
<g id="node25" class="node">
<title>Node25</title>
<g id="a_node25"><a xlink:href="api_2spec_2schedule_8h.html" target="_top" xlink:title="ODP schedule. ">
<polygon fill="#ffffff" stroke="#000000" points="703,-392.5 703,-411.5 772,-411.5 772,-392.5 703,-392.5"/>
<text text-anchor="middle" x="737.5" y="-399.5" font-family="Helvetica,sans-Serif" font-size="10.00" fill="#000000">schedule.h</text>
</a>
</g>
</g>
<!-- Node12&#45;&gt;Node25 -->
<g id="edge35" class="edge">
<title>Node12&#45;&gt;Node25</title>
<path fill="none" stroke="#191970" d="M726.5651,-606.1177C729.0533,-559.6713 735.1738,-445.4223 736.9863,-411.5891"/>
<polygon fill="#191970" stroke="#191970" points="723.0557,-606.2021 726.0156,-616.375 730.0457,-606.5766 723.0557,-606.2021"/>
</g>
<!-- Node14 -->
<g id="node14" class="node">
<title>Node14</title>
<g id="a_node14"><a xlink:href="api_2spec_2queue_8h.html" target="_top" xlink:title="ODP queue. ">
<polygon fill="#ffffff" stroke="#000000" points="623.5,-504.5 623.5,-523.5 679.5,-523.5 679.5,-504.5 623.5,-504.5"/>
<text text-anchor="middle" x="651.5" y="-511.5" font-family="Helvetica,sans-Serif" font-size="10.00" fill="#000000">queue.h</text>
</a>
</g>
</g>
<!-- Node13&#45;&gt;Node14 -->
<g id="edge13" class="edge">
<title>Node13&#45;&gt;Node14</title>
<path fill="none" stroke="#191970" d="M654.0827,-550.1575C653.4396,-541.155 652.7086,-530.9199 652.1888,-523.6427"/>
<polygon fill="#191970" stroke="#191970" points="650.5996,-550.5204 654.8033,-560.2455 657.5818,-550.0216 650.5996,-550.5204"/>
</g>
<!-- Node15 -->
<g id="node15" class="node">
<title>Node15</title>
<g id="a_node15"><a xlink:href="api_2queue_8h.html" target="_top" xlink:title="ODP queue. ">
<polygon fill="#ffffff" stroke="#000000" points="620.5,-448.5 620.5,-467.5 676.5,-467.5 676.5,-448.5 620.5,-448.5"/>
<text text-anchor="middle" x="648.5" y="-455.5" font-family="Helvetica,sans-Serif" font-size="10.00" fill="#000000">queue.h</text>
</a>
</g>
</g>
<!-- Node14&#45;&gt;Node15 -->
<g id="edge14" class="edge">
<title>Node14&#45;&gt;Node15</title>
<path fill="none" stroke="#191970" d="M650.437,-494.1575C649.9547,-485.155 649.4064,-474.9199 649.0166,-467.6427"/>
<polygon fill="#191970" stroke="#191970" points="646.9474,-494.4471 650.9774,-504.2455 653.9374,-494.0726 646.9474,-494.4471"/>
</g>
<!-- Node15&#45;&gt;Node10 -->
<g id="edge34" class="edge">
<title>Node15&#45;&gt;Node10</title>
<path fill="none" stroke="#191970" d="M610.3245,-449.2059C562.9971,-435.7762 488.5,-405.2298 488.5,-346 488.5,-346 488.5,-346 488.5,-178 488.5,-102.7651 598.1416,-77.4814 654.2472,-69.4685"/>
<polygon fill="#191970" stroke="#191970" points="609.6968,-452.6617 620.2635,-451.8902 611.522,-445.9038 609.6968,-452.6617"/>
</g>
<!-- Node16 -->
<g id="node16" class="node">
<title>Node16</title>
<g id="a_node16"><a xlink:href="api_2crypto_8h.html" target="_top" xlink:title="ODP crypto. ">
<polygon fill="#ffffff" stroke="#000000" points="516.5,-224.5 516.5,-243.5 572.5,-243.5 572.5,-224.5 516.5,-224.5"/>
<text text-anchor="middle" x="544.5" y="-231.5" font-family="Helvetica,sans-Serif" font-size="10.00" fill="#000000">crypto.h</text>
</a>
</g>
</g>
<!-- Node15&#45;&gt;Node16 -->
<g id="edge15" class="edge">
<title>Node15&#45;&gt;Node16</title>
<path fill="none" stroke="#191970" d="M628.152,-441.551C619.2362,-433.4503 609.2817,-423.0564 602.5,-412 566.8131,-353.8187 550.6461,-271.3127 545.9883,-243.5406"/>
<polygon fill="#191970" stroke="#191970" points="626.0807,-444.3876 635.9272,-448.2989 630.669,-439.101 626.0807,-444.3876"/>
</g>
<!-- Node19 -->
<g id="node19" class="node">
<title>Node19</title>
<g id="a_node19"><a xlink:href="api_2spec_2packet__io_8h.html" target="_top" xlink:title="ODP Packet IO. ">
<polygon fill="#ffffff" stroke="#000000" points="612,-392.5 612,-411.5 685,-411.5 685,-392.5 612,-392.5"/>
<text text-anchor="middle" x="648.5" y="-399.5" font-family="Helvetica,sans-Serif" font-size="10.00" fill="#000000">packet_io.h</text>
</a>
</g>
</g>
<!-- Node15&#45;&gt;Node19 -->
<g id="edge20" class="edge">
<title>Node15&#45;&gt;Node19</title>
<path fill="none" stroke="#191970" d="M648.5,-438.1575C648.5,-429.155 648.5,-418.9199 648.5,-411.6427"/>
<polygon fill="#191970" stroke="#191970" points="645.0001,-438.2455 648.5,-448.2455 652.0001,-438.2456 645.0001,-438.2455"/>
</g>
<!-- Node15&#45;&gt;Node25 -->
<g id="edge32" class="edge">
<title>Node15&#45;&gt;Node25</title>
<path fill="none" stroke="#191970" d="M672.7064,-442.769C688.4775,-432.8456 708.576,-420.1994 722.175,-411.6427"/>
<polygon fill="#191970" stroke="#191970" points="670.6026,-439.9575 664.0026,-448.2455 674.3305,-445.8823 670.6026,-439.9575"/>
</g>
<!-- Node16&#45;&gt;Node10 -->
<g id="edge19" class="edge">
<title>Node16&#45;&gt;Node10</title>
<path fill="none" stroke="#191970" d="M548.6742,-214.3461C555.1216,-188.1534 569.7623,-141.6676 597.5,-112 613.5362,-94.8481 637.4094,-82.9938 656.3944,-75.6197"/>
<polygon fill="#191970" stroke="#191970" points="545.2336,-213.6903 546.3983,-224.221 552.0548,-215.2625 545.2336,-213.6903"/>
</g>
<!-- Node17 -->
<g id="node17" class="node">
<title>Node17</title>
<g id="a_node17"><a xlink:href="api_2spec_2ipsec_8h.html" target="_top" xlink:title="ODP IPSEC API. ">
<polygon fill="#ffffff" stroke="#000000" points="607,-168.5 607,-187.5 658,-187.5 658,-168.5 607,-168.5"/>
<text text-anchor="middle" x="632.5" y="-175.5" font-family="Helvetica,sans-Serif" font-size="10.00" fill="#000000">ipsec.h</text>
</a>
</g>
</g>
<!-- Node16&#45;&gt;Node17 -->
<g id="edge16" class="edge">
<title>Node16&#45;&gt;Node17</title>
<path fill="none" stroke="#191970" d="M568.4345,-218.769C584.0283,-208.8456 603.901,-196.1994 617.3472,-187.6427"/>
<polygon fill="#191970" stroke="#191970" points="566.386,-215.9239 559.8284,-224.2455 570.1441,-221.8296 566.386,-215.9239"/>
</g>
<!-- Node18 -->
<g id="node18" class="node">
<title>Node18</title>
<g id="a_node18"><a xlink:href="api_2ipsec_8h.html" target="_top" xlink:title="ODP IPSEC API &#45; platform specific header. ">
<polygon fill="#ffffff" stroke="#000000" points="607,-112.5 607,-131.5 658,-131.5 658,-112.5 607,-112.5"/>
<text text-anchor="middle" x="632.5" y="-119.5" font-family="Helvetica,sans-Serif" font-size="10.00" fill="#000000">ipsec.h</text>
</a>
</g>
</g>
<!-- Node17&#45;&gt;Node18 -->
<g id="edge17" class="edge">
<title>Node17&#45;&gt;Node18</title>
<path fill="none" stroke="#191970" d="M632.5,-158.1575C632.5,-149.155 632.5,-138.9199 632.5,-131.6427"/>
<polygon fill="#191970" stroke="#191970" points="629.0001,-158.2455 632.5,-168.2455 636.0001,-158.2456 629.0001,-158.2455"/>
</g>
<!-- Node18&#45;&gt;Node10 -->
<g id="edge18" class="edge">
<title>Node18&#45;&gt;Node10</title>
<path fill="none" stroke="#191970" d="M649.0969,-104.7884C658.3347,-95.2085 669.4904,-83.6396 677.2017,-75.6427"/>
<polygon fill="#191970" stroke="#191970" points="646.328,-102.6176 641.9061,-112.2455 651.3669,-107.4766 646.328,-102.6176"/>
</g>
<!-- Node20 -->
<g id="node20" class="node">
<title>Node20</title>
<g id="a_node20"><a xlink:href="api_2packet__io_8h.html" target="_top" xlink:title="ODP Packet IO. ">
<polygon fill="#ffffff" stroke="#000000" points="634,-336.5 634,-355.5 707,-355.5 707,-336.5 634,-336.5"/>
<text text-anchor="middle" x="670.5" y="-343.5" font-family="Helvetica,sans-Serif" font-size="10.00" fill="#000000">packet_io.h</text>
</a>
</g>
</g>
<!-- Node19&#45;&gt;Node20 -->
<g id="edge21" class="edge">
<title>Node19&#45;&gt;Node20</title>
<path fill="none" stroke="#191970" d="M656.0628,-382.7493C659.6546,-373.6064 663.7901,-363.0798 666.7118,-355.6427"/>
<polygon fill="#191970" stroke="#191970" points="652.7311,-381.6582 652.3321,-392.2455 659.2463,-384.2178 652.7311,-381.6582"/>
</g>
<!-- Node20&#45;&gt;Node10 -->
<g id="edge31" class="edge">
<title>Node20&#45;&gt;Node10</title>
<path fill="none" stroke="#191970" d="M717.3105,-337.5449C758.0063,-329.2944 812.8334,-315.7138 828.5,-300 850.0517,-278.3834 847.5,-264.5246 847.5,-234 847.5,-234 847.5,-234 847.5,-178 847.5,-115.8597 765.6777,-85.398 718.6938,-73.0287"/>
<polygon fill="#191970" stroke="#191970" points="716.4313,-334.151 707.301,-339.5258 717.7902,-341.0178 716.4313,-334.151"/>
</g>
<!-- Node20&#45;&gt;Node17 -->
<g id="edge26" class="edge">
<title>Node20&#45;&gt;Node17</title>
<path fill="none" stroke="#191970" d="M645.5289,-330.3964C635.4599,-322.6245 624.9508,-312.2568 619.5,-300 602.2759,-261.2693 619.6853,-209.0326 628.2918,-187.6911"/>
<polygon fill="#191970" stroke="#191970" points="643.596,-333.3172 653.7627,-336.2988 647.6744,-327.6279 643.596,-333.3172"/>
</g>
<!-- Node21 -->
<g id="node21" class="node">
<title>Node21</title>
<g id="a_node21"><a xlink:href="api_2spec_2classification_8h.html" target="_top" xlink:title="ODP classification descriptor. ">
<polygon fill="#ffffff" stroke="#000000" points="730,-280.5 730,-299.5 819,-299.5 819,-280.5 730,-280.5"/>
<text text-anchor="middle" x="774.5" y="-287.5" font-family="Helvetica,sans-Serif" font-size="10.00" fill="#000000">classification.h</text>
</a>
</g>
</g>
<!-- Node20&#45;&gt;Node21 -->
<g id="edge22" class="edge">
<title>Node20&#45;&gt;Node21</title>
<path fill="none" stroke="#191970" d="M697.5029,-331.46C716.1136,-321.4388 740.3299,-308.3993 756.5922,-299.6427"/>
<polygon fill="#191970" stroke="#191970" points="695.7608,-328.4228 688.6154,-336.2455 699.0795,-334.5861 695.7608,-328.4228"/>
</g>
<!-- Node23 -->
<g id="node23" class="node">
<title>Node23</title>
<g id="a_node23"><a xlink:href="api_2spec_2traffic__mngr_8h.html" target="_top" xlink:title="Copyright (c) 2015&#45;2018, Linaro Limited All rights reserved. ">
<polygon fill="#ffffff" stroke="#000000" points="628.5,-280.5 628.5,-299.5 712.5,-299.5 712.5,-280.5 628.5,-280.5"/>
<text text-anchor="middle" x="670.5" y="-287.5" font-family="Helvetica,sans-Serif" font-size="10.00" fill="#000000">traffic_mngr.h</text>
</a>
</g>
</g>
<!-- Node20&#45;&gt;Node23 -->
<g id="edge27" class="edge">
<title>Node20&#45;&gt;Node23</title>
<path fill="none" stroke="#191970" d="M670.5,-326.1575C670.5,-317.155 670.5,-306.9199 670.5,-299.6427"/>
<polygon fill="#191970" stroke="#191970" points="667.0001,-326.2455 670.5,-336.2455 674.0001,-326.2456 667.0001,-326.2455"/>
</g>
<!-- Node22 -->
<g id="node22" class="node">
<title>Node22</title>
<g id="a_node22"><a xlink:href="api_2classification_8h.html" target="_top" xlink:title="ODP classification descriptor. ">
<polygon fill="#ffffff" stroke="#000000" points="730,-224.5 730,-243.5 819,-243.5 819,-224.5 730,-224.5"/>
<text text-anchor="middle" x="774.5" y="-231.5" font-family="Helvetica,sans-Serif" font-size="10.00" fill="#000000">classification.h</text>
</a>
</g>
</g>
<!-- Node21&#45;&gt;Node22 -->
<g id="edge23" class="edge">
<title>Node21&#45;&gt;Node22</title>
<path fill="none" stroke="#191970" d="M774.5,-270.1575C774.5,-261.155 774.5,-250.9199 774.5,-243.6427"/>
<polygon fill="#191970" stroke="#191970" points="771.0001,-270.2455 774.5,-280.2455 778.0001,-270.2456 771.0001,-270.2455"/>
</g>
<!-- Node22&#45;&gt;Node10 -->
<g id="edge25" class="edge">
<title>Node22&#45;&gt;Node10</title>
<path fill="none" stroke="#191970" d="M764.6465,-215.1887C745.9399,-179.4762 705.8803,-102.9988 691.6479,-75.8279"/>
<polygon fill="#191970" stroke="#191970" points="761.7761,-217.252 769.5166,-224.4862 767.9769,-214.0039 761.7761,-217.252"/>
</g>
<!-- Node22&#45;&gt;Node17 -->
<g id="edge24" class="edge">
<title>Node22&#45;&gt;Node17</title>
<path fill="none" stroke="#191970" d="M740.6585,-220.6541C714.7634,-210.4419 679.6862,-196.6086 656.5921,-187.5011"/>
<polygon fill="#191970" stroke="#191970" points="739.5025,-223.9605 750.0893,-224.3733 742.0707,-217.4486 739.5025,-223.9605"/>
</g>
<!-- Node24 -->
<g id="node24" class="node">
<title>Node24</title>
<g id="a_node24"><a xlink:href="api_2traffic__mngr_8h.html" target="_top" xlink:title="ODP Traffic manager. ">
<polygon fill="#ffffff" stroke="#000000" points="628.5,-224.5 628.5,-243.5 712.5,-243.5 712.5,-224.5 628.5,-224.5"/>
<text text-anchor="middle" x="670.5" y="-231.5" font-family="Helvetica,sans-Serif" font-size="10.00" fill="#000000">traffic_mngr.h</text>
</a>
</g>
</g>
<!-- Node23&#45;&gt;Node24 -->
<g id="edge28" class="edge">
<title>Node23&#45;&gt;Node24</title>
<path fill="none" stroke="#191970" d="M670.5,-270.1575C670.5,-261.155 670.5,-250.9199 670.5,-243.6427"/>
<polygon fill="#191970" stroke="#191970" points="667.0001,-270.2455 670.5,-280.2455 674.0001,-270.2456 667.0001,-270.2455"/>
</g>
<!-- Node24&#45;&gt;Node10 -->
<g id="edge30" class="edge">
<title>Node24&#45;&gt;Node10</title>
<path fill="none" stroke="#191970" d="M672.38,-214.2601C675.8174,-178.1669 682.9985,-102.7656 685.564,-75.8279"/>
<polygon fill="#191970" stroke="#191970" points="668.87,-214.1994 671.4061,-224.4862 675.8385,-214.8631 668.87,-214.1994"/>
</g>
<!-- Node24&#45;&gt;Node17 -->
<g id="edge29" class="edge">
<title>Node24&#45;&gt;Node17</title>
<path fill="none" stroke="#191970" d="M658.2321,-215.9209C651.8512,-206.5176 644.3069,-195.3997 639.0432,-187.6427"/>
<polygon fill="#191970" stroke="#191970" points="655.3697,-217.936 663.8809,-224.2455 661.162,-214.0055 655.3697,-217.936"/>
</g>
<!-- Node25&#45;&gt;Node9 -->
<g id="edge33" class="edge">
<title>Node25&#45;&gt;Node9</title>
<path fill="none" stroke="#191970" d="M757.0676,-385.645C768.7198,-375.9058 783.1084,-363.8795 792.9632,-355.6427"/>
<polygon fill="#191970" stroke="#191970" points="754.5988,-383.1469 749.1705,-392.2455 759.0879,-388.5179 754.5988,-383.1469"/>
</g>
</g>
</svg>
