<?xml version="1.0" encoding="UTF-8" standalone="no"?>
<!DOCTYPE svg PUBLIC "-//W3C//DTD SVG 1.1//EN"
 "http://www.w3.org/Graphics/SVG/1.1/DTD/svg11.dtd">
<!-- Generated by graphviz version 2.40.1 (20161225.0304)
 -->
<!-- Title: schedule.h Pages: 1 -->
<svg width="1527pt" height="722pt"
 viewBox="0.00 0.00 1527.00 722.00" xmlns="http://www.w3.org/2000/svg" xmlns:xlink="http://www.w3.org/1999/xlink">
<g id="graph0" class="graph" transform="scale(1 1) rotate(0) translate(4 718)">
<title>schedule.h</title>
<polygon fill="#ffffff" stroke="transparent" points="-4,4 -4,-718 1523,-718 1523,4 -4,4"/>
<!-- Node0 -->
<g id="node1" class="node">
<title>Node0</title>
<polygon fill="#bfbfbf" stroke="#000000" points="1203.5,-694.5 1203.5,-713.5 1272.5,-713.5 1272.5,-694.5 1203.5,-694.5"/>
<text text-anchor="middle" x="1238" y="-701.5" font-family="Helvetica,sans-Serif" font-size="10.00" fill="#000000">schedule.h</text>
</g>
<!-- Node1 -->
<g id="node2" class="node">
<title>Node1</title>
<g id="a_node2"><a xlink:href="visibility__begin_8h_source.html" target="_top" xlink:title="odp/visibility_begin.h">
<polygon fill="#ffffff" stroke="#000000" points="1243.5,-.5 1243.5,-19.5 1364.5,-19.5 1364.5,-.5 1243.5,-.5"/>
<text text-anchor="middle" x="1304" y="-7.5" font-family="Helvetica,sans-Serif" font-size="10.00" fill="#000000">odp/visibility_begin.h</text>
</a>
</g>
</g>
<!-- Node0&#45;&gt;Node1 -->
<g id="edge1" class="edge">
<title>Node0&#45;&gt;Node1</title>
<path fill="none" stroke="#191970" d="M1272.7379,-697.7513C1347.9197,-683.2385 1519,-644.4514 1519,-592 1519,-592 1519,-592 1519,-122 1519,-55.5829 1437.3014,-28.4904 1374.6282,-17.4783"/>
<polygon fill="#191970" stroke="#191970" points="1375.1852,-14.0229 1364.7483,-15.8454 1374.0437,-20.9292 1375.1852,-14.0229"/>
</g>
<!-- Node2 -->
<g id="node3" class="node">
<title>Node2</title>
<g id="a_node3"><a xlink:href="api_2std__types_8h.html" target="_top" xlink:title="Standard C language types and definitions for ODP. ">
<polygon fill="#ffffff" stroke="#000000" points="797,-235.5 797,-254.5 909,-254.5 909,-235.5 797,-235.5"/>
<text text-anchor="middle" x="853" y="-242.5" font-family="Helvetica,sans-Serif" font-size="10.00" fill="#000000">odp/api/std_types.h</text>
</a>
</g>
</g>
<!-- Node0&#45;&gt;Node2 -->
<g id="edge2" class="edge">
<title>Node0&#45;&gt;Node2</title>
<path fill="none" stroke="#191970" d="M1238,-694.4116C1238,-675.0538 1238,-629.9167 1238,-592 1238,-592 1238,-592 1238,-424 1238,-308.9145 994.6126,-335.3968 965,-322 944.8263,-312.8734 944.0602,-303.8102 926,-291 910.4645,-279.9806 892.3532,-268.5598 878.0571,-259.8546"/>
<polygon fill="#191970" stroke="#191970" points="879.6492,-256.7275 869.2789,-254.5578 876.0326,-262.7209 879.6492,-256.7275"/>
</g>
<!-- Node9 -->
<g id="node10" class="node">
<title>Node9</title>
<g id="a_node10"><a xlink:href="visibility__end_8h_source.html" target="_top" xlink:title="odp/visibility_end.h">
<polygon fill="#ffffff" stroke="#000000" points="484,-.5 484,-19.5 596,-19.5 596,-.5 484,-.5"/>
<text text-anchor="middle" x="540" y="-7.5" font-family="Helvetica,sans-Serif" font-size="10.00" fill="#000000">odp/visibility_end.h</text>
</a>
</g>
</g>
<!-- Node0&#45;&gt;Node9 -->
<g id="edge68" class="edge">
<title>Node0&#45;&gt;Node9</title>
<path fill="none" stroke="#191970" d="M1203.2707,-702.7261C1002.5624,-695.1417 0,-654.1461 0,-592 0,-592 0,-592 0,-122 0,-74.1099 329.8313,-32.666 473.9437,-16.8437"/>
<polygon fill="#191970" stroke="#191970" points="474.4297,-20.3115 483.9918,-15.749 473.6715,-13.3527 474.4297,-20.3115"/>
</g>
<!-- Node10 -->
<g id="node11" class="node">
<title>Node10</title>
<g id="a_node11"><a xlink:href="api_2event_8h.html" target="_top" xlink:title="ODP event. ">
<polygon fill="#ffffff" stroke="#000000" points="300,-526.5 300,-545.5 392,-545.5 392,-526.5 300,-526.5"/>
<text text-anchor="middle" x="346" y="-533.5" font-family="Helvetica,sans-Serif" font-size="10.00" fill="#000000">odp/api/event.h</text>
</a>
</g>
</g>
<!-- Node0&#45;&gt;Node10 -->
<g id="edge13" class="edge">
<title>Node0&#45;&gt;Node10</title>
<path fill="none" stroke="#191970" d="M1203.2707,-701.3436C1134.7565,-695.7883 977.5044,-681.4764 847,-658 675.3791,-627.1271 474.8721,-572.6038 388.7975,-548.2946"/>
<polygon fill="#191970" stroke="#191970" points="389.6959,-544.9114 379.1205,-545.5526 387.7875,-551.6463 389.6959,-544.9114"/>
</g>
<!-- Node23 -->
<g id="node24" class="node">
<title>Node23</title>
<g id="a_node24"><a xlink:href="api_2queue_8h.html" target="_top" xlink:title="ODP queue. ">
<polygon fill="#ffffff" stroke="#000000" points="856.5,-638.5 856.5,-657.5 951.5,-657.5 951.5,-638.5 856.5,-638.5"/>
<text text-anchor="middle" x="904" y="-645.5" font-family="Helvetica,sans-Serif" font-size="10.00" fill="#000000">odp/api/queue.h</text>
</a>
</g>
</g>
<!-- Node0&#45;&gt;Node23 -->
<g id="edge35" class="edge">
<title>Node0&#45;&gt;Node23</title>
<path fill="none" stroke="#191970" d="M1203.2014,-698.1655C1145.8715,-688.5533 1031.0046,-669.2942 961.4676,-657.6353"/>
<polygon fill="#191970" stroke="#191970" points="961.9903,-654.1741 951.5492,-655.9723 960.8327,-661.0778 961.9903,-654.1741"/>
</g>
<!-- Node26 -->
<g id="node27" class="node">
<title>Node26</title>
<g id="a_node27"><a xlink:href="api_2schedule__types_8h.html" target="_top" xlink:title="ODP schedule. ">
<polygon fill="#ffffff" stroke="#000000" points="1231,-235.5 1231,-254.5 1371,-254.5 1371,-235.5 1231,-235.5"/>
<text text-anchor="middle" x="1301" y="-242.5" font-family="Helvetica,sans-Serif" font-size="10.00" fill="#000000">odp/api/schedule_types.h</text>
</a>
</g>
</g>
<!-- Node0&#45;&gt;Node26 -->
<g id="edge61" class="edge">
<title>Node0&#45;&gt;Node26</title>
<path fill="none" stroke="#191970" d="M1248.122,-694.2465C1265.9307,-675.984 1301,-634.6112 1301,-592 1301,-592 1301,-592 1301,-368 1301,-331.4994 1301,-288.906 1301,-264.6285"/>
<polygon fill="#191970" stroke="#191970" points="1304.5001,-264.5691 1301,-254.5691 1297.5001,-264.5692 1304.5001,-264.5691"/>
</g>
<!-- Node33 -->
<g id="node34" class="node">
<title>Node33</title>
<g id="a_node34"><a xlink:href="api_2thrmask_8h.html" target="_top" xlink:title="ODP thread masks. ">
<polygon fill="#ffffff" stroke="#000000" points="1329.5,-358.5 1329.5,-377.5 1434.5,-377.5 1434.5,-358.5 1329.5,-358.5"/>
<text text-anchor="middle" x="1382" y="-365.5" font-family="Helvetica,sans-Serif" font-size="10.00" fill="#000000">odp/api/thrmask.h</text>
</a>
</g>
</g>
<!-- Node0&#45;&gt;Node33 -->
<g id="edge62" class="edge">
<title>Node0&#45;&gt;Node33</title>
<path fill="none" stroke="#191970" d="M1263.1877,-694.3828C1299.173,-678.8068 1361,-644.4182 1361,-592 1361,-592 1361,-592 1361,-480 1361,-447.1675 1369.8257,-409.834 1376.034,-387.634"/>
<polygon fill="#191970" stroke="#191970" points="1379.4701,-388.3521 1378.9014,-377.7725 1372.7485,-386.3977 1379.4701,-388.3521"/>
</g>
<!-- Node3 -->
<g id="node4" class="node">
<title>Node3</title>
<polygon fill="#ffffff" stroke="#bfbfbf" points="788,-174 788,-193 918,-193 918,-174 788,-174"/>
<text text-anchor="middle" x="853" y="-181" font-family="Helvetica,sans-Serif" font-size="10.00" fill="#000000">odp/api/abi/std_types.h</text>
</g>
<!-- Node2&#45;&gt;Node3 -->
<g id="edge3" class="edge">
<title>Node2&#45;&gt;Node3</title>
<path fill="none" stroke="#191970" d="M853,-235.3906C853,-226.8657 853,-214.1392 853,-203.4235"/>
<polygon fill="#191970" stroke="#191970" points="856.5001,-203.2448 853,-193.2449 849.5001,-203.2449 856.5001,-203.2448"/>
</g>
<!-- Node4 -->
<g id="node5" class="node">
<title>Node4</title>
<g id="a_node5"><a xlink:href="api_2spec_2std__types_8h.html" target="_top" xlink:title="Standard C language types and definitions for ODP. ">
<polygon fill="#ffffff" stroke="#000000" points="556.5,-174 556.5,-193 693.5,-193 693.5,-174 556.5,-174"/>
<text text-anchor="middle" x="625" y="-181" font-family="Helvetica,sans-Serif" font-size="10.00" fill="#000000">odp/api/spec/std_types.h</text>
</a>
</g>
</g>
<!-- Node2&#45;&gt;Node4 -->
<g id="edge4" class="edge">
<title>Node2&#45;&gt;Node4</title>
<path fill="none" stroke="#191970" d="M817.375,-235.3906C777.6369,-224.6718 713.2732,-207.3105 670.0651,-195.6557"/>
<polygon fill="#191970" stroke="#191970" points="670.9413,-192.267 660.3748,-193.0419 669.1182,-199.0255 670.9413,-192.267"/>
</g>
<!-- Node4&#45;&gt;Node1 -->
<g id="edge5" class="edge">
<title>Node4&#45;&gt;Node1</title>
<path fill="none" stroke="#191970" d="M645.0461,-173.8775C695.9099,-149.8919 834.6366,-87.1445 957,-56 1050.8805,-32.1051 1162.3923,-20.1322 1233.1754,-14.499"/>
<polygon fill="#191970" stroke="#191970" points="1233.6166,-17.9754 1243.3163,-13.7132 1233.0757,-10.9963 1233.6166,-17.9754"/>
</g>
<!-- Node5 -->
<g id="node6" class="node">
<title>Node5</title>
<polygon fill="#ffffff" stroke="#bfbfbf" points="480.5,-112.5 480.5,-131.5 533.5,-131.5 533.5,-112.5 480.5,-112.5"/>
<text text-anchor="middle" x="507" y="-119.5" font-family="Helvetica,sans-Serif" font-size="10.00" fill="#000000">stdint.h</text>
</g>
<!-- Node4&#45;&gt;Node5 -->
<g id="edge6" class="edge">
<title>Node4&#45;&gt;Node5</title>
<path fill="none" stroke="#191970" d="M606.5625,-173.8906C587.1653,-163.7811 556.431,-147.7628 534.2383,-136.1962"/>
<polygon fill="#191970" stroke="#191970" points="535.7936,-133.06 525.308,-131.5419 532.5582,-139.2675 535.7936,-133.06"/>
</g>
<!-- Node6 -->
<g id="node7" class="node">
<title>Node6</title>
<g id="a_node7"><a xlink:href="api_2align_8h.html" target="_top" xlink:title="ODP alignments. ">
<polygon fill="#ffffff" stroke="#000000" points="590.5,-112.5 590.5,-131.5 679.5,-131.5 679.5,-112.5 590.5,-112.5"/>
<text text-anchor="middle" x="635" y="-119.5" font-family="Helvetica,sans-Serif" font-size="10.00" fill="#000000">odp/api/align.h</text>
</a>
</g>
</g>
<!-- Node4&#45;&gt;Node6 -->
<g id="edge7" class="edge">
<title>Node4&#45;&gt;Node6</title>
<path fill="none" stroke="#191970" d="M626.5625,-173.8906C627.9487,-165.3657 630.018,-152.6392 631.7604,-141.9235"/>
<polygon fill="#191970" stroke="#191970" points="635.2651,-142.177 633.4155,-131.7449 628.3558,-141.0535 635.2651,-142.177"/>
</g>
<!-- Node4&#45;&gt;Node9 -->
<g id="edge12" class="edge">
<title>Node4&#45;&gt;Node9</title>
<path fill="none" stroke="#191970" d="M566.4575,-173.9855C514.2625,-161.7672 442.7048,-134.6511 420,-76 408.7892,-47.0404 440.2523,-30.4512 473.7641,-21.1479"/>
<polygon fill="#191970" stroke="#191970" points="474.89,-24.4726 483.709,-18.601 473.1533,-17.6915 474.89,-24.4726"/>
</g>
<!-- Node7 -->
<g id="node8" class="node">
<title>Node7</title>
<polygon fill="#ffffff" stroke="#bfbfbf" points="462.5,-56.5 462.5,-75.5 569.5,-75.5 569.5,-56.5 462.5,-56.5"/>
<text text-anchor="middle" x="516" y="-63.5" font-family="Helvetica,sans-Serif" font-size="10.00" fill="#000000">odp/api/abi/align.h</text>
</g>
<!-- Node6&#45;&gt;Node7 -->
<g id="edge8" class="edge">
<title>Node6&#45;&gt;Node7</title>
<path fill="none" stroke="#191970" d="M614.5432,-112.3733C595.5262,-103.4241 566.9825,-89.9917 545.5024,-79.8835"/>
<polygon fill="#191970" stroke="#191970" points="546.7284,-76.5923 536.1899,-75.5011 543.7478,-82.926 546.7284,-76.5923"/>
</g>
<!-- Node8 -->
<g id="node9" class="node">
<title>Node8</title>
<g id="a_node9"><a xlink:href="api_2spec_2align_8h.html" target="_top" xlink:title="ODP alignments. ">
<polygon fill="#ffffff" stroke="#000000" points="588,-56.5 588,-75.5 702,-75.5 702,-56.5 588,-56.5"/>
<text text-anchor="middle" x="645" y="-63.5" font-family="Helvetica,sans-Serif" font-size="10.00" fill="#000000">odp/api/spec/align.h</text>
</a>
</g>
</g>
<!-- Node6&#45;&gt;Node8 -->
<g id="edge9" class="edge">
<title>Node6&#45;&gt;Node8</title>
<path fill="none" stroke="#191970" d="M636.7419,-112.2455C638.0467,-104.9382 639.876,-94.6944 641.4813,-85.7046"/>
<polygon fill="#191970" stroke="#191970" points="644.9656,-86.1022 643.2781,-75.6427 638.0746,-84.8717 644.9656,-86.1022"/>
</g>
<!-- Node8&#45;&gt;Node1 -->
<g id="edge10" class="edge">
<title>Node8&#45;&gt;Node1</title>
<path fill="none" stroke="#191970" d="M702.2044,-60.3631C717.4101,-58.9021 733.8241,-57.3585 749,-56 922.8107,-40.4414 1127.4138,-23.956 1232.992,-15.5845"/>
<polygon fill="#191970" stroke="#191970" points="1233.5126,-19.0543 1243.205,-14.7755 1232.9598,-12.0762 1233.5126,-19.0543"/>
</g>
<!-- Node8&#45;&gt;Node9 -->
<g id="edge11" class="edge">
<title>Node8&#45;&gt;Node9</title>
<path fill="none" stroke="#191970" d="M626.7104,-56.2455C610.2238,-47.4527 585.7648,-34.4079 567.0235,-24.4125"/>
<polygon fill="#191970" stroke="#191970" points="568.5506,-21.2604 558.08,-19.6427 565.2565,-27.4368 568.5506,-21.2604"/>
</g>
<!-- Node11 -->
<g id="node12" class="node">
<title>Node11</title>
<polygon fill="#ffffff" stroke="#bfbfbf" points="160,-358.5 160,-377.5 270,-377.5 270,-358.5 160,-358.5"/>
<text text-anchor="middle" x="215" y="-365.5" font-family="Helvetica,sans-Serif" font-size="10.00" fill="#000000">odp/api/abi/event.h</text>
</g>
<!-- Node10&#45;&gt;Node11 -->
<g id="edge14" class="edge">
<title>Node10&#45;&gt;Node11</title>
<path fill="none" stroke="#191970" d="M323.867,-526.4815C307.7659,-518.6364 286.3586,-506.1791 272,-490 244.7079,-459.2476 228.0127,-413.1675 220.2354,-387.335"/>
<polygon fill="#191970" stroke="#191970" points="223.5664,-386.2537 217.4434,-377.6073 216.838,-388.1849 223.5664,-386.2537"/>
</g>
<!-- Node12 -->
<g id="node13" class="node">
<title>Node12</title>
<g id="a_node13"><a xlink:href="api_2spec_2event_8h.html" target="_top" xlink:title="ODP event. ">
<polygon fill="#ffffff" stroke="#000000" points="281,-470.5 281,-489.5 399,-489.5 399,-470.5 281,-470.5"/>
<text text-anchor="middle" x="340" y="-477.5" font-family="Helvetica,sans-Serif" font-size="10.00" fill="#000000">odp/api/spec/event.h</text>
</a>
</g>
</g>
<!-- Node10&#45;&gt;Node12 -->
<g id="edge15" class="edge">
<title>Node10&#45;&gt;Node12</title>
<path fill="none" stroke="#191970" d="M344.9549,-526.2455C344.172,-518.9382 343.0744,-508.6944 342.1112,-499.7046"/>
<polygon fill="#191970" stroke="#191970" points="345.5786,-499.2129 341.0331,-489.6427 338.6185,-499.9587 345.5786,-499.2129"/>
</g>
<!-- Node12&#45;&gt;Node1 -->
<g id="edge16" class="edge">
<title>Node12&#45;&gt;Node1</title>
<path fill="none" stroke="#191970" d="M399.2734,-470.8768C457.7273,-461.8064 549.589,-447.3553 629,-434 769.6574,-410.3444 805.6927,-408.6197 945,-378 979.1135,-370.5019 986.8326,-365.2484 1021,-358 1118.7795,-337.2568 1146.9312,-349.6024 1243,-322 1252.2128,-319.353 1395.0335,-261.5841 1402,-255 1427.7137,-230.6976 1437,-218.8808 1437,-183.5 1437,-183.5 1437,-183.5 1437,-122 1437,-72.0478 1381.4295,-39.8768 1342.1292,-23.371"/>
<polygon fill="#191970" stroke="#191970" points="1343.1156,-19.9953 1332.5318,-19.5108 1340.5034,-26.4897 1343.1156,-19.9953"/>
</g>
<!-- Node12&#45;&gt;Node9 -->
<g id="edge34" class="edge">
<title>Node12&#45;&gt;Node9</title>
<path fill="none" stroke="#191970" d="M335.8288,-470.3611C322.5299,-438.7239 282,-334.9289 282,-245 282,-245 282,-245 282,-122 282,-90.7875 282.2903,-76.2996 306,-56 330.7505,-34.8094 413.5202,-22.2874 473.6103,-15.7849"/>
<polygon fill="#191970" stroke="#191970" points="474.2156,-19.2407 483.7958,-14.7163 473.4851,-12.2789 474.2156,-19.2407"/>
</g>
<!-- Node13 -->
<g id="node14" class="node">
<title>Node13</title>
<g id="a_node14"><a xlink:href="api_2packet_8h.html" target="_top" xlink:title="ODP packet descriptor. ">
<polygon fill="#ffffff" stroke="#000000" points="522,-414.5 522,-433.5 620,-433.5 620,-414.5 522,-414.5"/>
<text text-anchor="middle" x="571" y="-421.5" font-family="Helvetica,sans-Serif" font-size="10.00" fill="#000000">odp/api/packet.h</text>
</a>
</g>
</g>
<!-- Node12&#45;&gt;Node13 -->
<g id="edge17" class="edge">
<title>Node12&#45;&gt;Node13</title>
<path fill="none" stroke="#191970" d="M379.4478,-470.4369C418.8156,-460.8932 479.4034,-446.2052 521.8708,-435.9101"/>
<polygon fill="#191970" stroke="#191970" points="522.821,-439.2812 531.7149,-433.5237 521.1717,-432.4783 522.821,-439.2812"/>
</g>
<!-- Node13&#45;&gt;Node2 -->
<g id="edge18" class="edge">
<title>Node13&#45;&gt;Node2</title>
<path fill="none" stroke="#191970" d="M620.4401,-417.8094C673.7513,-410.321 754.3109,-396.3958 779,-378 817.7042,-349.1617 838.8505,-293.7635 847.7897,-264.3905"/>
<polygon fill="#191970" stroke="#191970" points="851.229,-265.0947 850.6293,-254.5169 844.5017,-263.16 851.229,-265.0947"/>
</g>
<!-- Node13&#45;&gt;Node11 -->
<g id="edge19" class="edge">
<title>Node13&#45;&gt;Node11</title>
<path fill="none" stroke="#191970" d="M521.8735,-416.2722C458.9702,-406.3773 349.7868,-389.2024 280.0384,-378.2308"/>
<polygon fill="#191970" stroke="#191970" points="280.4665,-374.7551 270.044,-376.6586 279.3787,-381.6701 280.4665,-374.7551"/>
</g>
<!-- Node14 -->
<g id="node15" class="node">
<title>Node14</title>
<polygon fill="#ffffff" stroke="#bfbfbf" points="506,-358.5 506,-377.5 636,-377.5 636,-358.5 506,-358.5"/>
<text text-anchor="middle" x="571" y="-365.5" font-family="Helvetica,sans-Serif" font-size="10.00" fill="#000000">odp/api/abi/packet_io.h</text>
</g>
<!-- Node13&#45;&gt;Node14 -->
<g id="edge20" class="edge">
<title>Node13&#45;&gt;Node14</title>
<path fill="none" stroke="#191970" d="M571,-414.2455C571,-406.9382 571,-396.6944 571,-387.7046"/>
<polygon fill="#191970" stroke="#191970" points="574.5001,-387.6426 571,-377.6427 567.5001,-387.6427 574.5001,-387.6426"/>
</g>
<!-- Node15 -->
<g id="node16" class="node">
<title>Node15</title>
<polygon fill="#ffffff" stroke="#bfbfbf" points="654,-358.5 654,-377.5 770,-377.5 770,-358.5 654,-358.5"/>
<text text-anchor="middle" x="712" y="-365.5" font-family="Helvetica,sans-Serif" font-size="10.00" fill="#000000">odp/api/abi/packet.h</text>
</g>
<!-- Node13&#45;&gt;Node15 -->
<g id="edge21" class="edge">
<title>Node13&#45;&gt;Node15</title>
<path fill="none" stroke="#191970" d="M595.2388,-414.3733C618.2789,-405.2226 653.1214,-391.3844 678.7501,-381.2057"/>
<polygon fill="#191970" stroke="#191970" points="680.0756,-384.4452 688.0775,-377.5011 677.4918,-377.9395 680.0756,-384.4452"/>
</g>
<!-- Node16 -->
<g id="node17" class="node">
<title>Node16</title>
<polygon fill="#ffffff" stroke="#bfbfbf" points="28.5,-358.5 28.5,-377.5 141.5,-377.5 141.5,-358.5 28.5,-358.5"/>
<text text-anchor="middle" x="85" y="-365.5" font-family="Helvetica,sans-Serif" font-size="10.00" fill="#000000">odp/api/abi/queue.h</text>
</g>
<!-- Node13&#45;&gt;Node16 -->
<g id="edge22" class="edge">
<title>Node13&#45;&gt;Node16</title>
<path fill="none" stroke="#191970" d="M521.7794,-419.2742C445.0952,-411.7654 292.2168,-396.2117 151.6056,-378.0315"/>
<polygon fill="#191970" stroke="#191970" points="151.8718,-374.5367 141.504,-376.718 150.9692,-381.4783 151.8718,-374.5367"/>
</g>
<!-- Node17 -->
<g id="node18" class="node">
<title>Node17</title>
<polygon fill="#ffffff" stroke="#bfbfbf" points="826,-358.5 826,-377.5 936,-377.5 936,-358.5 826,-358.5"/>
<text text-anchor="middle" x="881" y="-365.5" font-family="Helvetica,sans-Serif" font-size="10.00" fill="#000000">odp/api/abi/buffer.h</text>
</g>
<!-- Node13&#45;&gt;Node17 -->
<g id="edge23" class="edge">
<title>Node13&#45;&gt;Node17</title>
<path fill="none" stroke="#191970" d="M620.1204,-415.1266C673.7823,-405.4329 759.8765,-389.8804 818.359,-379.3158"/>
<polygon fill="#191970" stroke="#191970" points="819.0015,-382.7565 828.22,-377.5345 817.757,-375.868 819.0015,-382.7565"/>
</g>
<!-- Node18 -->
<g id="node19" class="node">
<title>Node18</title>
<polygon fill="#ffffff" stroke="#bfbfbf" points="1030,-358.5 1030,-377.5 1134,-377.5 1134,-358.5 1030,-358.5"/>
<text text-anchor="middle" x="1082" y="-365.5" font-family="Helvetica,sans-Serif" font-size="10.00" fill="#000000">odp/api/abi/pool.h</text>
</g>
<!-- Node13&#45;&gt;Node18 -->
<g id="edge24" class="edge">
<title>Node13&#45;&gt;Node18</title>
<path fill="none" stroke="#191970" d="M620.4611,-418.5796C714.0541,-408.3228 916.867,-386.0968 1019.6275,-374.8353"/>
<polygon fill="#191970" stroke="#191970" points="1020.2933,-378.2834 1029.8525,-373.7148 1019.5307,-371.3251 1020.2933,-378.2834"/>
</g>
<!-- Node19 -->
<g id="node20" class="node">
<title>Node19</title>
<g id="a_node20"><a xlink:href="api_2spec_2packet_8h.html" target="_top" xlink:title="ODP packet descriptor. ">
<polygon fill="#ffffff" stroke="#000000" points="364.5,-358.5 364.5,-377.5 487.5,-377.5 487.5,-358.5 364.5,-358.5"/>
<text text-anchor="middle" x="426" y="-365.5" font-family="Helvetica,sans-Serif" font-size="10.00" fill="#000000">odp/api/spec/packet.h</text>
</a>
</g>
</g>
<!-- Node13&#45;&gt;Node19 -->
<g id="edge25" class="edge">
<title>Node13&#45;&gt;Node19</title>
<path fill="none" stroke="#191970" d="M546.0736,-414.3733C522.3798,-405.2226 486.5489,-391.3844 460.1932,-381.2057"/>
<polygon fill="#191970" stroke="#191970" points="461.1906,-377.8389 450.6011,-377.5011 458.6686,-384.3689 461.1906,-377.8389"/>
</g>
<!-- Node19&#45;&gt;Node1 -->
<g id="edge26" class="edge">
<title>Node19&#45;&gt;Node1</title>
<path fill="none" stroke="#191970" d="M487.7123,-358.9797C571.5277,-346.6199 711.5295,-325.541 716,-322 773.9687,-276.0841 721.7213,-214.7739 779,-168 864.1378,-98.4764 1175.0375,-139.1564 1265,-76 1281.108,-64.6917 1291.6198,-44.4257 1297.6258,-29.3238"/>
<polygon fill="#191970" stroke="#191970" points="1300.9365,-30.4612 1301.0774,-19.8673 1294.3608,-28.061 1300.9365,-30.4612"/>
</g>
<!-- Node19&#45;&gt;Node9 -->
<g id="edge33" class="edge">
<title>Node19&#45;&gt;Node9</title>
<path fill="none" stroke="#191970" d="M416.2573,-358.4817C397.4547,-339.0416 358,-292.5805 358,-245 358,-245 358,-245 358,-122 358,-65.0129 423.5205,-36.0903 475.9366,-22.0701"/>
<polygon fill="#191970" stroke="#191970" points="477.0569,-25.3968 485.8868,-19.5416 475.3328,-18.6124 477.0569,-25.3968"/>
</g>
<!-- Node20 -->
<g id="node21" class="node">
<title>Node20</title>
<g id="a_node21"><a xlink:href="api_2time_8h.html" target="_top" xlink:title="ODP time. ">
<polygon fill="#ffffff" stroke="#000000" points="620.5,-297 620.5,-316 707.5,-316 707.5,-297 620.5,-297"/>
<text text-anchor="middle" x="664" y="-304" font-family="Helvetica,sans-Serif" font-size="10.00" fill="#000000">odp/api/time.h</text>
</a>
</g>
</g>
<!-- Node19&#45;&gt;Node20 -->
<g id="edge27" class="edge">
<title>Node19&#45;&gt;Node20</title>
<path fill="none" stroke="#191970" d="M462.9264,-358.4581C504.4402,-347.7308 571.9365,-330.2895 617.1353,-318.61"/>
<polygon fill="#191970" stroke="#191970" points="618.1807,-321.9549 626.987,-316.0643 616.4293,-315.1775 618.1807,-321.9549"/>
</g>
<!-- Node20&#45;&gt;Node2 -->
<g id="edge28" class="edge">
<title>Node20&#45;&gt;Node2</title>
<path fill="none" stroke="#191970" d="M693.5313,-296.8906C725.9866,-286.3298 778.2581,-269.3208 814.0486,-257.6747"/>
<polygon fill="#191970" stroke="#191970" points="815.2499,-260.9645 823.6761,-254.5419 813.0839,-254.308 815.2499,-260.9645"/>
</g>
<!-- Node21 -->
<g id="node22" class="node">
<title>Node21</title>
<polygon fill="#ffffff" stroke="#bfbfbf" points="588.5,-235.5 588.5,-254.5 693.5,-254.5 693.5,-235.5 588.5,-235.5"/>
<text text-anchor="middle" x="641" y="-242.5" font-family="Helvetica,sans-Serif" font-size="10.00" fill="#000000">odp/api/abi/time.h</text>
</g>
<!-- Node20&#45;&gt;Node21 -->
<g id="edge29" class="edge">
<title>Node20&#45;&gt;Node21</title>
<path fill="none" stroke="#191970" d="M660.4063,-296.8906C657.1509,-288.1862 652.2575,-275.1015 648.199,-264.2494"/>
<polygon fill="#191970" stroke="#191970" points="651.4256,-262.8852 644.6444,-254.7449 644.8691,-265.3373 651.4256,-262.8852"/>
</g>
<!-- Node22 -->
<g id="node23" class="node">
<title>Node22</title>
<g id="a_node23"><a xlink:href="api_2spec_2time_8h.html" target="_top" xlink:title="ODP time. ">
<polygon fill="#ffffff" stroke="#000000" points="758.5,-56.5 758.5,-75.5 871.5,-75.5 871.5,-56.5 758.5,-56.5"/>
<text text-anchor="middle" x="815" y="-63.5" font-family="Helvetica,sans-Serif" font-size="10.00" fill="#000000">odp/api/spec/time.h</text>
</a>
</g>
</g>
<!-- Node20&#45;&gt;Node22 -->
<g id="edge30" class="edge">
<title>Node20&#45;&gt;Node22</title>
<path fill="none" stroke="#191970" d="M671.7899,-296.9681C679.8513,-286.8793 692.5613,-270.3274 702,-255 724.7207,-218.1042 724.0391,-205.353 746,-168 763.9474,-137.4735 787.5551,-103.7499 801.9856,-83.7451"/>
<polygon fill="#191970" stroke="#191970" points="804.8714,-85.7276 807.9167,-75.5799 799.2079,-81.6137 804.8714,-85.7276"/>
</g>
<!-- Node22&#45;&gt;Node1 -->
<g id="edge31" class="edge">
<title>Node22&#45;&gt;Node1</title>
<path fill="none" stroke="#191970" d="M871.5607,-57.8762C876.442,-57.2229 881.3065,-56.5886 886,-56 1007.8682,-40.7156 1150.08,-25.6543 1233.2673,-17.1235"/>
<polygon fill="#191970" stroke="#191970" points="1233.7707,-20.5904 1243.3625,-16.0906 1233.0582,-13.6267 1233.7707,-20.5904"/>
</g>
<!-- Node22&#45;&gt;Node9 -->
<g id="edge32" class="edge">
<title>Node22&#45;&gt;Node9</title>
<path fill="none" stroke="#191970" d="M768.0383,-56.4369C720.5787,-46.7724 647.2134,-31.8326 596.5777,-21.5213"/>
<polygon fill="#191970" stroke="#191970" points="597.2653,-18.0895 586.768,-19.5237 595.8685,-24.9488 597.2653,-18.0895"/>
</g>
<!-- Node23&#45;&gt;Node2 -->
<g id="edge36" class="edge">
<title>Node23&#45;&gt;Node2</title>
<path fill="none" stroke="#191970" d="M951.5266,-640.1568C986.6032,-633.1924 1034.8416,-621.1034 1074,-602 1117.939,-580.5643 1162,-584.8889 1162,-536 1162,-536 1162,-536 1162,-424 1162,-393.4754 1165.7514,-378.3501 1143,-358 1072.0931,-294.577 1016.7837,-365.1508 932,-322 904.2764,-307.89 879.9312,-280.6889 865.8373,-262.6881"/>
<polygon fill="#191970" stroke="#191970" points="868.6027,-260.5423 859.7721,-254.6881 863.0246,-264.7714 868.6027,-260.5423"/>
</g>
<!-- Node23&#45;&gt;Node11 -->
<g id="edge37" class="edge">
<title>Node23&#45;&gt;Node11</title>
<path fill="none" stroke="#191970" d="M856.3704,-645.2977C700.4126,-635.8221 215,-601.1008 215,-536 215,-536 215,-536 215,-480 215,-447.7116 215,-410.1872 215,-387.8048"/>
<polygon fill="#191970" stroke="#191970" points="218.5001,-387.5883 215,-377.5884 211.5001,-387.5884 218.5001,-387.5883"/>
</g>
<!-- Node23&#45;&gt;Node16 -->
<g id="edge38" class="edge">
<title>Node23&#45;&gt;Node16</title>
<path fill="none" stroke="#191970" d="M856.0625,-645.9574C734.3144,-640.5003 415.5153,-624.4536 312,-602 228.3203,-583.8489 131,-621.6257 131,-536 131,-536 131,-536 131,-480 131,-444.66 111.1609,-407.4332 97.5403,-386.0395"/>
<polygon fill="#191970" stroke="#191970" points="100.4212,-384.0507 91.9864,-377.6394 94.5821,-387.9114 100.4212,-384.0507"/>
</g>
<!-- Node23&#45;&gt;Node17 -->
<g id="edge39" class="edge">
<title>Node23&#45;&gt;Node17</title>
<path fill="none" stroke="#191970" d="M904,-638.4116C904,-619.0538 904,-573.9167 904,-536 904,-536 904,-536 904,-480 904,-446.906 894.2452,-409.4151 887.4412,-387.2901"/>
<polygon fill="#191970" stroke="#191970" points="890.7706,-386.2105 884.3937,-377.7497 884.1026,-388.3405 890.7706,-386.2105"/>
</g>
<!-- Node23&#45;&gt;Node18 -->
<g id="edge40" class="edge">
<title>Node23&#45;&gt;Node18</title>
<path fill="none" stroke="#191970" d="M951.8184,-639.9269C1005.7418,-627.7657 1086,-599.0714 1086,-536 1086,-536 1086,-536 1086,-480 1086,-447.691 1084.317,-410.1727 1083.1344,-387.7971"/>
<polygon fill="#191970" stroke="#191970" points="1086.6167,-387.3771 1082.5731,-377.5843 1079.6272,-387.7613 1086.6167,-387.3771"/>
</g>
<!-- Node24 -->
<g id="node25" class="node">
<title>Node24</title>
<g id="a_node25"><a xlink:href="api_2spec_2queue_8h.html" target="_top" xlink:title="ODP queue. ">
<polygon fill="#ffffff" stroke="#000000" points="756,-582.5 756,-601.5 876,-601.5 876,-582.5 756,-582.5"/>
<text text-anchor="middle" x="816" y="-589.5" font-family="Helvetica,sans-Serif" font-size="10.00" fill="#000000">odp/api/spec/queue.h</text>
</a>
</g>
</g>
<!-- Node23&#45;&gt;Node24 -->
<g id="edge41" class="edge">
<title>Node23&#45;&gt;Node24</title>
<path fill="none" stroke="#191970" d="M888.6716,-638.2455C875.1697,-629.6534 855.2878,-617.0014 839.7314,-607.1018"/>
<polygon fill="#191970" stroke="#191970" points="841.4685,-604.0587 831.1528,-601.6427 837.7103,-609.9643 841.4685,-604.0587"/>
</g>
<!-- Node24&#45;&gt;Node1 -->
<g id="edge42" class="edge">
<title>Node24&#45;&gt;Node1</title>
<path fill="none" stroke="#191970" d="M871.0495,-582.4218C905.8992,-575.1448 951.3271,-563.3821 989,-546 1170.0115,-462.4819 1187.6129,-394.4828 1358,-291 1418.357,-254.3428 1475,-254.1167 1475,-183.5 1475,-183.5 1475,-183.5 1475,-122 1475,-66.272 1410.6589,-36.7699 1360.9108,-22.2881"/>
<polygon fill="#191970" stroke="#191970" points="1361.7509,-18.889 1351.1792,-19.5887 1359.8798,-25.6343 1361.7509,-18.889"/>
</g>
<!-- Node24&#45;&gt;Node9 -->
<g id="edge60" class="edge">
<title>Node24&#45;&gt;Node9</title>
<path fill="none" stroke="#191970" d="M762.0913,-582.4588C665.4761,-562.4697 462.8708,-506.915 355,-378 315.7749,-331.1226 320,-306.1236 320,-245 320,-245 320,-245 320,-122 320,-52.2292 408.9618,-25.9036 473.7434,-15.9827"/>
<polygon fill="#191970" stroke="#191970" points="474.5121,-19.4085 483.9155,-14.5272 473.5205,-12.4791 474.5121,-19.4085"/>
</g>
<!-- Node24&#45;&gt;Node10 -->
<g id="edge43" class="edge">
<title>Node24&#45;&gt;Node10</title>
<path fill="none" stroke="#191970" d="M755.837,-585.7877C677.0002,-577.4971 534.4817,-561.9942 413,-546 409.5129,-545.5409 405.9261,-545.0526 402.3106,-544.5481"/>
<polygon fill="#191970" stroke="#191970" points="402.4977,-541.0396 392.1041,-543.0948 401.5108,-547.9696 402.4977,-541.0396"/>
</g>
<!-- Node25 -->
<g id="node26" class="node">
<title>Node25</title>
<g id="a_node26"><a xlink:href="queue__types_8h.html" target="_top" xlink:title="ODP queue types. ">
<polygon fill="#ffffff" stroke="#000000" points="1123.5,-291.5 1123.5,-321.5 1234.5,-321.5 1234.5,-291.5 1123.5,-291.5"/>
<text text-anchor="start" x="1131.5" y="-309.5" font-family="Helvetica,sans-Serif" font-size="10.00" fill="#000000">odp/api/spec/queue</text>
<text text-anchor="middle" x="1179" y="-298.5" font-family="Helvetica,sans-Serif" font-size="10.00" fill="#000000">_types.h</text>
</a>
</g>
</g>
<!-- Node24&#45;&gt;Node25 -->
<g id="edge44" class="edge">
<title>Node24&#45;&gt;Node25</title>
<path fill="none" stroke="#191970" d="M872.8168,-582.487C927.516,-569.6947 1002,-541.0643 1002,-480 1002,-480 1002,-480 1002,-424 1002,-393.4754 999.7945,-379.9564 1021,-358 1027.9814,-350.7714 1074.1657,-336.1561 1114.8119,-324.3358"/>
<polygon fill="#191970" stroke="#191970" points="1115.8203,-327.6877 1124.4577,-321.5521 1113.8793,-320.9622 1115.8203,-327.6877"/>
</g>
<!-- Node25&#45;&gt;Node1 -->
<g id="edge45" class="edge">
<title>Node25&#45;&gt;Node1</title>
<path fill="none" stroke="#191970" d="M1234.6141,-293.709C1292.2514,-280.2331 1374.707,-260.246 1380,-255 1403.3534,-231.8537 1399,-216.3806 1399,-183.5 1399,-183.5 1399,-183.5 1399,-122 1399,-90.7875 1394.4397,-80.4196 1375,-56 1364.446,-42.7424 1348.9838,-32.0914 1335.1812,-24.3904"/>
<polygon fill="#191970" stroke="#191970" points="1336.4496,-21.1025 1325.9714,-19.5344 1333.1847,-27.2945 1336.4496,-21.1025"/>
</g>
<!-- Node25&#45;&gt;Node9 -->
<g id="edge59" class="edge">
<title>Node25&#45;&gt;Node9</title>
<path fill="none" stroke="#191970" d="M1126.4517,-291.3884C1089.1009,-280.187 1042.5707,-265.1624 1025,-255 974.5828,-225.84 980.3025,-191.4743 927,-168 785.5059,-105.6862 729.2067,-176.0271 581,-132 562.3269,-126.4529 559.7135,-120.1048 542,-112 503.1996,-94.247 476.8531,-111.379 453,-76 437.3639,-52.8085 468.6448,-34.4274 497.9591,-23.0147"/>
<polygon fill="#191970" stroke="#191970" points="499.1719,-26.2979 507.3456,-19.5569 496.7522,-19.7294 499.1719,-26.2979"/>
</g>
<!-- Node25&#45;&gt;Node26 -->
<g id="edge46" class="edge">
<title>Node25&#45;&gt;Node26</title>
<path fill="none" stroke="#191970" d="M1208.8446,-291.4554C1228.397,-281.599 1253.7872,-268.7999 1272.9645,-259.1327"/>
<polygon fill="#191970" stroke="#191970" points="1274.7402,-262.1571 1282.0943,-254.5303 1271.5892,-255.9064 1274.7402,-262.1571"/>
</g>
<!-- Node31 -->
<g id="node32" class="node">
<title>Node31</title>
<g id="a_node32"><a xlink:href="deprecated_8h.html" target="_top" xlink:title="Control deprecated API definitions. ">
<polygon fill="#ffffff" stroke="#000000" points="1034.5,-235.5 1034.5,-254.5 1153.5,-254.5 1153.5,-235.5 1034.5,-235.5"/>
<text text-anchor="middle" x="1094" y="-242.5" font-family="Helvetica,sans-Serif" font-size="10.00" fill="#000000">odp/api/deprecated.h</text>
</a>
</g>
</g>
<!-- Node25&#45;&gt;Node31 -->
<g id="edge55" class="edge">
<title>Node25&#45;&gt;Node31</title>
<path fill="none" stroke="#191970" d="M1157.9888,-291.2977C1145.2066,-282.0495 1128.9054,-270.2551 1115.9552,-260.8853"/>
<polygon fill="#191970" stroke="#191970" points="1117.763,-257.8732 1107.6096,-254.8469 1113.6597,-263.5445 1117.763,-257.8732"/>
</g>
<!-- Node27 -->
<g id="node28" class="node">
<title>Node27</title>
<polygon fill="#ffffff" stroke="#bfbfbf" points="1253.5,-168.5 1253.5,-198.5 1370.5,-198.5 1370.5,-168.5 1253.5,-168.5"/>
<text text-anchor="start" x="1261.5" y="-186.5" font-family="Helvetica,sans-Serif" font-size="10.00" fill="#000000">odp/api/abi/schedule</text>
<text text-anchor="middle" x="1312" y="-175.5" font-family="Helvetica,sans-Serif" font-size="10.00" fill="#000000">_types.h</text>
</g>
<!-- Node26&#45;&gt;Node27 -->
<g id="edge47" class="edge">
<title>Node26&#45;&gt;Node27</title>
<path fill="none" stroke="#191970" d="M1302.7188,-235.3906C1304.0007,-228.2234 1305.8138,-218.0862 1307.4979,-208.671"/>
<polygon fill="#191970" stroke="#191970" points="1310.9937,-209.0046 1309.3091,-198.5446 1304.103,-207.7721 1310.9937,-209.0046"/>
</g>
<!-- Node28 -->
<g id="node29" class="node">
<title>Node28</title>
<g id="a_node29"><a xlink:href="api_2spec_2schedule__types_8h.html" target="_top" xlink:title="ODP schedule types. ">
<polygon fill="#ffffff" stroke="#000000" points="1071.5,-168.5 1071.5,-198.5 1196.5,-198.5 1196.5,-168.5 1071.5,-168.5"/>
<text text-anchor="start" x="1079.5" y="-186.5" font-family="Helvetica,sans-Serif" font-size="10.00" fill="#000000">odp/api/spec/schedule</text>
<text text-anchor="middle" x="1134" y="-175.5" font-family="Helvetica,sans-Serif" font-size="10.00" fill="#000000">_types.h</text>
</a>
</g>
</g>
<!-- Node26&#45;&gt;Node28 -->
<g id="edge48" class="edge">
<title>Node26&#45;&gt;Node28</title>
<path fill="none" stroke="#191970" d="M1274.9063,-235.3906C1250.7353,-226.4893 1214.1255,-213.0073 1184.2806,-202.0165"/>
<polygon fill="#191970" stroke="#191970" points="1185.4462,-198.716 1174.8528,-198.5446 1183.0272,-205.2848 1185.4462,-198.716"/>
</g>
<!-- Node28&#45;&gt;Node1 -->
<g id="edge49" class="edge">
<title>Node28&#45;&gt;Node1</title>
<path fill="none" stroke="#191970" d="M1178.2085,-168.4155C1200.3279,-159.6912 1226.8265,-147.3797 1248,-132 1275.2367,-112.2162 1285.6692,-106.9116 1299,-76 1305.257,-61.4913 1306.235,-43.528 1305.7998,-30.0067"/>
<polygon fill="#191970" stroke="#191970" points="1309.284,-29.6374 1305.1867,-19.8669 1302.2967,-30.0599 1309.284,-29.6374"/>
</g>
<!-- Node28&#45;&gt;Node9 -->
<g id="edge54" class="edge">
<title>Node28&#45;&gt;Node9</title>
<path fill="none" stroke="#191970" d="M1110.604,-168.3987C1067.1123,-141.1094 970.0365,-83.8367 880,-56 787.8452,-27.5084 676.2308,-16.656 606.6506,-12.5275"/>
<polygon fill="#191970" stroke="#191970" points="606.4565,-9.0111 596.2756,-11.9434 606.063,-16.0001 606.4565,-9.0111"/>
</g>
<!-- Node29 -->
<g id="node30" class="node">
<title>Node29</title>
<g id="a_node30"><a xlink:href="support_8h.html" target="_top" xlink:title="ODP support API &#45; platform specific header. ">
<polygon fill="#ffffff" stroke="#000000" points="1138.5,-112.5 1138.5,-131.5 1239.5,-131.5 1239.5,-112.5 1138.5,-112.5"/>
<text text-anchor="middle" x="1189" y="-119.5" font-family="Helvetica,sans-Serif" font-size="10.00" fill="#000000">odp/api/support.h</text>
</a>
</g>
</g>
<!-- Node28&#45;&gt;Node29 -->
<g id="edge50" class="edge">
<title>Node28&#45;&gt;Node29</title>
<path fill="none" stroke="#191970" d="M1147.5955,-168.2977C1155.3891,-159.5831 1165.2047,-148.6075 1173.3226,-139.5302"/>
<polygon fill="#191970" stroke="#191970" points="1176.1365,-141.6341 1180.1938,-131.8469 1170.9187,-136.9678 1176.1365,-141.6341"/>
</g>
<!-- Node30 -->
<g id="node31" class="node">
<title>Node30</title>
<g id="a_node31"><a xlink:href="spec_2support_8h.html" target="_top" xlink:title="ODP support API. ">
<polygon fill="#ffffff" stroke="#000000" points="1129.5,-56.5 1129.5,-75.5 1256.5,-75.5 1256.5,-56.5 1129.5,-56.5"/>
<text text-anchor="middle" x="1193" y="-63.5" font-family="Helvetica,sans-Serif" font-size="10.00" fill="#000000">odp/api/spec/support.h</text>
</a>
</g>
</g>
<!-- Node29&#45;&gt;Node30 -->
<g id="edge51" class="edge">
<title>Node29&#45;&gt;Node30</title>
<path fill="none" stroke="#191970" d="M1189.6967,-112.2455C1190.2187,-104.9382 1190.9504,-94.6944 1191.5925,-85.7046"/>
<polygon fill="#191970" stroke="#191970" points="1195.0898,-85.8667 1192.3112,-75.6427 1188.1076,-85.3679 1195.0898,-85.8667"/>
</g>
<!-- Node30&#45;&gt;Node1 -->
<g id="edge52" class="edge">
<title>Node30&#45;&gt;Node1</title>
<path fill="none" stroke="#191970" d="M1212.0816,-56.3733C1229.7402,-47.4644 1256.2053,-34.1127 1276.2098,-24.0203"/>
<polygon fill="#191970" stroke="#191970" points="1277.8158,-27.1303 1285.1674,-19.5011 1274.6628,-20.8806 1277.8158,-27.1303"/>
</g>
<!-- Node30&#45;&gt;Node9 -->
<g id="edge53" class="edge">
<title>Node30&#45;&gt;Node9</title>
<path fill="none" stroke="#191970" d="M1129.325,-57.0599C1126.1739,-56.6857 1123.0523,-56.3298 1120,-56 934.1805,-35.9204 713.9767,-20.8362 606.1667,-14.016"/>
<polygon fill="#191970" stroke="#191970" points="606.2894,-10.5169 596.0893,-13.3819 605.8497,-17.5031 606.2894,-10.5169"/>
</g>
<!-- Node32 -->
<g id="node33" class="node">
<title>Node32</title>
<g id="a_node33"><a xlink:href="spec_2deprecated_8h.html" target="_top" xlink:title="Macro for deprecated API definitions. ">
<polygon fill="#ffffff" stroke="#000000" points="966.5,-56.5 966.5,-75.5 1111.5,-75.5 1111.5,-56.5 966.5,-56.5"/>
<text text-anchor="middle" x="1039" y="-63.5" font-family="Helvetica,sans-Serif" font-size="10.00" fill="#000000">odp/api/spec/deprecated.h</text>
</a>
</g>
</g>
<!-- Node31&#45;&gt;Node32 -->
<g id="edge56" class="edge">
<title>Node31&#45;&gt;Node32</title>
<path fill="none" stroke="#191970" d="M1085.2275,-235.1659C1077.8437,-226.3314 1067.6154,-212.6795 1062,-199 1046.4195,-161.0446 1041.3925,-112.7932 1039.7712,-86.0844"/>
<polygon fill="#191970" stroke="#191970" points="1043.2492,-85.5574 1039.252,-75.7455 1036.258,-85.9085 1043.2492,-85.5574"/>
</g>
<!-- Node32&#45;&gt;Node1 -->
<g id="edge57" class="edge">
<title>Node32&#45;&gt;Node1</title>
<path fill="none" stroke="#191970" d="M1084.254,-56.4369C1129.7973,-46.8127 1200.0965,-31.957 1248.8686,-21.6504"/>
<polygon fill="#191970" stroke="#191970" points="1249.8724,-25.0157 1258.9326,-19.5237 1248.425,-18.1669 1249.8724,-25.0157"/>
</g>
<!-- Node32&#45;&gt;Node9 -->
<g id="edge58" class="edge">
<title>Node32&#45;&gt;Node9</title>
<path fill="none" stroke="#191970" d="M966.3711,-57.634C961.5079,-57.0793 956.6832,-56.5306 952,-56 830.0964,-42.1888 687.8668,-26.3753 606.4276,-17.3495"/>
<polygon fill="#191970" stroke="#191970" points="606.6428,-13.852 596.3181,-16.2293 605.8718,-20.8094 606.6428,-13.852"/>
</g>
<!-- Node34 -->
<g id="node35" class="node">
<title>Node34</title>
<polygon fill="#ffffff" stroke="#bfbfbf" points="1367.5,-297 1367.5,-316 1490.5,-316 1490.5,-297 1367.5,-297"/>
<text text-anchor="middle" x="1429" y="-304" font-family="Helvetica,sans-Serif" font-size="10.00" fill="#000000">odp/api/abi/thrmask.h</text>
</g>
<!-- Node33&#45;&gt;Node34 -->
<g id="edge63" class="edge">
<title>Node33&#45;&gt;Node34</title>
<path fill="none" stroke="#191970" d="M1389.3438,-358.3906C1396.2702,-349.3273 1406.826,-335.5149 1415.306,-324.4188"/>
<polygon fill="#191970" stroke="#191970" points="1418.2615,-326.3155 1421.5527,-316.2449 1412.6997,-322.065 1418.2615,-326.3155"/>
</g>
<!-- Node35 -->
<g id="node36" class="node">
<title>Node35</title>
<g id="a_node36"><a xlink:href="api_2spec_2thrmask_8h.html" target="_top" xlink:title="ODP thread masks. ">
<polygon fill="#ffffff" stroke="#000000" points="974.5,-297 974.5,-316 1105.5,-316 1105.5,-297 974.5,-297"/>
<text text-anchor="middle" x="1040" y="-304" font-family="Helvetica,sans-Serif" font-size="10.00" fill="#000000">odp/api/spec/thrmask.h</text>
</a>
</g>
</g>
<!-- Node33&#45;&gt;Node35 -->
<g id="edge64" class="edge">
<title>Node33&#45;&gt;Node35</title>
<path fill="none" stroke="#191970" d="M1329.2654,-359.5319C1275.1445,-350.7044 1188.5468,-336.2 1114,-322 1107.6536,-320.7911 1101.0123,-319.4741 1094.4239,-318.1353"/>
<polygon fill="#191970" stroke="#191970" points="1094.6643,-314.6116 1084.1643,-316.0258 1093.2545,-321.4682 1094.6643,-314.6116"/>
</g>
<!-- Node35&#45;&gt;Node1 -->
<g id="edge65" class="edge">
<title>Node35&#45;&gt;Node1</title>
<path fill="none" stroke="#191970" d="M1072.4669,-296.9919C1098.2075,-288.5006 1134.3264,-274.3992 1162,-255 1169.6292,-249.652 1270.1138,-139.222 1276,-132 1295.3236,-108.2913 1306.6658,-105.127 1316,-76 1320.9358,-60.5979 1316.9851,-42.4837 1312.3368,-29.1325"/>
<polygon fill="#191970" stroke="#191970" points="1315.5094,-27.6345 1308.6158,-19.589 1308.9876,-30.1773 1315.5094,-27.6345"/>
</g>
<!-- Node35&#45;&gt;Node2 -->
<g id="edge66" class="edge">
<title>Node35&#45;&gt;Node2</title>
<path fill="none" stroke="#191970" d="M1010.7813,-296.8906C978.6693,-286.3298 926.951,-269.3208 891.5392,-257.6747"/>
<polygon fill="#191970" stroke="#191970" points="892.6065,-254.3413 882.0136,-254.5419 890.4196,-260.9909 892.6065,-254.3413"/>
</g>
<!-- Node35&#45;&gt;Node9 -->
<g id="edge67" class="edge">
<title>Node35&#45;&gt;Node9</title>
<path fill="none" stroke="#191970" d="M1034.2141,-296.9728C1019.1431,-272.7859 976.3973,-208.0882 927,-168 857.8523,-111.8834 827.9585,-117.1828 749,-76 732.0782,-67.174 728.7685,-62.9661 711,-56 673.7781,-41.4073 630.2452,-29.7699 596.4186,-21.851"/>
<polygon fill="#191970" stroke="#191970" points="596.78,-18.3429 586.25,-19.5137 595.2118,-25.165 596.78,-18.3429"/>
</g>
</g>
</svg>
