<?xml version="1.0" encoding="UTF-8" standalone="no"?>
<!DOCTYPE svg PUBLIC "-//W3C//DTD SVG 1.1//EN"
 "http://www.w3.org/Graphics/SVG/1.1/DTD/svg11.dtd">
<!-- Generated by graphviz version 2.40.1 (20161225.0304)
 -->
<!-- Title: std_clib.h Pages: 1 -->
<svg width="558pt" height="252pt"
 viewBox="0.00 0.00 557.50 252.00" xmlns="http://www.w3.org/2000/svg" xmlns:xlink="http://www.w3.org/1999/xlink">
<g id="graph0" class="graph" transform="scale(1 1) rotate(0) translate(4 248)">
<title>std_clib.h</title>
<polygon fill="#ffffff" stroke="transparent" points="-4,4 -4,-248 553.5,-248 553.5,4 -4,4"/>
<!-- Node1 -->
<g id="node1" class="node">
<title>Node1</title>
<polygon fill="#bfbfbf" stroke="#000000" points="243,-224.5 243,-243.5 306,-243.5 306,-224.5 243,-224.5"/>
<text text-anchor="middle" x="274.5" y="-231.5" font-family="Helvetica,sans-Serif" font-size="10.00" fill="#000000">std_clib.h</text>
</g>
<!-- Node2 -->
<g id="node2" class="node">
<title>Node2</title>
<g id="a_node2"><a xlink:href="arch_2arm32-linux_2odp_2api_2abi_2std__clib_8h_source.html" target="_top" xlink:title="std_clib.h">
<polygon fill="#ffffff" stroke="#000000" points="0,-168.5 0,-187.5 63,-187.5 63,-168.5 0,-168.5"/>
<text text-anchor="middle" x="31.5" y="-175.5" font-family="Helvetica,sans-Serif" font-size="10.00" fill="#000000">std_clib.h</text>
</a>
</g>
</g>
<!-- Node1&#45;&gt;Node2 -->
<g id="edge1" class="edge">
<title>Node1&#45;&gt;Node2</title>
<path fill="none" stroke="#191970" d="M233.1103,-224.7694C192.2494,-215.6109 128.0083,-201.0887 72.5,-188 69.5049,-187.2938 66.389,-186.5501 63.2726,-185.8003"/>
<polygon fill="#191970" stroke="#191970" points="232.4522,-228.2087 242.9754,-226.9782 233.9817,-221.3778 232.4522,-228.2087"/>
</g>
<!-- Node3 -->
<g id="node3" class="node">
<title>Node3</title>
<g id="a_node3"><a xlink:href="arch_2arm64-linux_2odp_2api_2abi_2std__clib_8h_source.html" target="_top" xlink:title="std_clib.h">
<polygon fill="#ffffff" stroke="#000000" points="81,-168.5 81,-187.5 144,-187.5 144,-168.5 81,-168.5"/>
<text text-anchor="middle" x="112.5" y="-175.5" font-family="Helvetica,sans-Serif" font-size="10.00" fill="#000000">std_clib.h</text>
</a>
</g>
</g>
<!-- Node1&#45;&gt;Node3 -->
<g id="edge2" class="edge">
<title>Node1&#45;&gt;Node3</title>
<path fill="none" stroke="#191970" d="M237.0578,-221.057C207.4099,-210.8084 166.6804,-196.729 139.9854,-187.5011"/>
<polygon fill="#191970" stroke="#191970" points="236.0564,-224.414 246.6512,-224.3733 238.3435,-217.7982 236.0564,-224.414"/>
</g>
<!-- Node4 -->
<g id="node4" class="node">
<title>Node4</title>
<g id="a_node4"><a xlink:href="arch_2default-linux_2odp_2api_2abi_2std__clib_8h_source.html" target="_top" xlink:title="std_clib.h">
<polygon fill="#ffffff" stroke="#000000" points="162,-168.5 162,-187.5 225,-187.5 225,-168.5 162,-168.5"/>
<text text-anchor="middle" x="193.5" y="-175.5" font-family="Helvetica,sans-Serif" font-size="10.00" fill="#000000">std_clib.h</text>
</a>
</g>
</g>
<!-- Node1&#45;&gt;Node4 -->
<g id="edge3" class="edge">
<title>Node1&#45;&gt;Node4</title>
<path fill="none" stroke="#191970" d="M252.066,-218.49C237.7746,-208.6096 219.7084,-196.1194 207.4474,-187.6427"/>
<polygon fill="#191970" stroke="#191970" points="250.1749,-221.4376 260.3909,-224.2455 254.1557,-215.6797 250.1749,-221.4376"/>
</g>
<!-- Node5 -->
<g id="node5" class="node">
<title>Node5</title>
<g id="a_node5"><a xlink:href="arch_2mips64-linux_2odp_2api_2abi_2std__clib_8h_source.html" target="_top" xlink:title="std_clib.h">
<polygon fill="#ffffff" stroke="#000000" points="243,-168.5 243,-187.5 306,-187.5 306,-168.5 243,-168.5"/>
<text text-anchor="middle" x="274.5" y="-175.5" font-family="Helvetica,sans-Serif" font-size="10.00" fill="#000000">std_clib.h</text>
</a>
</g>
</g>
<!-- Node1&#45;&gt;Node5 -->
<g id="edge4" class="edge">
<title>Node1&#45;&gt;Node5</title>
<path fill="none" stroke="#191970" d="M274.5,-214.1575C274.5,-205.155 274.5,-194.9199 274.5,-187.6427"/>
<polygon fill="#191970" stroke="#191970" points="271.0001,-214.2455 274.5,-224.2455 278.0001,-214.2456 271.0001,-214.2455"/>
</g>
<!-- Node6 -->
<g id="node6" class="node">
<title>Node6</title>
<g id="a_node6"><a xlink:href="arch_2power64-linux_2odp_2api_2abi_2std__clib_8h_source.html" target="_top" xlink:title="std_clib.h">
<polygon fill="#ffffff" stroke="#000000" points="324,-168.5 324,-187.5 387,-187.5 387,-168.5 324,-168.5"/>
<text text-anchor="middle" x="355.5" y="-175.5" font-family="Helvetica,sans-Serif" font-size="10.00" fill="#000000">std_clib.h</text>
</a>
</g>
</g>
<!-- Node1&#45;&gt;Node6 -->
<g id="edge5" class="edge">
<title>Node1&#45;&gt;Node6</title>
<path fill="none" stroke="#191970" d="M296.934,-218.49C311.2254,-208.6096 329.2916,-196.1194 341.5526,-187.6427"/>
<polygon fill="#191970" stroke="#191970" points="294.8443,-215.6797 288.6091,-224.2455 298.8251,-221.4376 294.8443,-215.6797"/>
</g>
<!-- Node7 -->
<g id="node7" class="node">
<title>Node7</title>
<g id="a_node7"><a xlink:href="arch_2x86__32-linux_2odp_2api_2abi_2std__clib_8h_source.html" target="_top" xlink:title="std_clib.h">
<polygon fill="#ffffff" stroke="#000000" points="405,-168.5 405,-187.5 468,-187.5 468,-168.5 405,-168.5"/>
<text text-anchor="middle" x="436.5" y="-175.5" font-family="Helvetica,sans-Serif" font-size="10.00" fill="#000000">std_clib.h</text>
</a>
</g>
</g>
<!-- Node1&#45;&gt;Node7 -->
<g id="edge6" class="edge">
<title>Node1&#45;&gt;Node7</title>
<path fill="none" stroke="#191970" d="M311.9422,-221.057C341.5901,-210.8084 382.3196,-196.729 409.0146,-187.5011"/>
<polygon fill="#191970" stroke="#191970" points="310.6565,-217.7982 302.3488,-224.3733 312.9436,-224.414 310.6565,-217.7982"/>
</g>
<!-- Node8 -->
<g id="node8" class="node">
<title>Node8</title>
<g id="a_node8"><a xlink:href="arch_2x86__64-linux_2odp_2api_2abi_2std__clib_8h_source.html" target="_top" xlink:title="std_clib.h">
<polygon fill="#ffffff" stroke="#000000" points="486,-168.5 486,-187.5 549,-187.5 549,-168.5 486,-168.5"/>
<text text-anchor="middle" x="517.5" y="-175.5" font-family="Helvetica,sans-Serif" font-size="10.00" fill="#000000">std_clib.h</text>
</a>
</g>
</g>
<!-- Node1&#45;&gt;Node8 -->
<g id="edge7" class="edge">
<title>Node1&#45;&gt;Node8</title>
<path fill="none" stroke="#191970" d="M316.1139,-224.8529C357.1916,-215.7571 421.7613,-201.2808 477.5,-188 480.146,-187.3695 482.8879,-186.7059 485.6388,-186.0328"/>
<polygon fill="#191970" stroke="#191970" points="315.205,-221.4693 306.1963,-227.0455 316.7161,-228.3042 315.205,-221.4693"/>
</g>
<!-- Node9 -->
<g id="node9" class="node">
<title>Node9</title>
<g id="a_node9"><a xlink:href="api_2std__clib_8h_source.html" target="_top" xlink:title="std_clib.h">
<polygon fill="#ffffff" stroke="#000000" points="486,-112.5 486,-131.5 549,-131.5 549,-112.5 486,-112.5"/>
<text text-anchor="middle" x="517.5" y="-119.5" font-family="Helvetica,sans-Serif" font-size="10.00" fill="#000000">std_clib.h</text>
</a>
</g>
</g>
<!-- Node8&#45;&gt;Node9 -->
<g id="edge8" class="edge">
<title>Node8&#45;&gt;Node9</title>
<path fill="none" stroke="#191970" d="M517.5,-158.1575C517.5,-149.155 517.5,-138.9199 517.5,-131.6427"/>
<polygon fill="#191970" stroke="#191970" points="514.0001,-158.2455 517.5,-168.2455 521.0001,-158.2456 514.0001,-158.2455"/>
</g>
<!-- Node10 -->
<g id="node10" class="node">
<title>Node10</title>
<g id="a_node10"><a xlink:href="odp__api_8h.html" target="_top" xlink:title="The OpenDataPlane API. ">
<polygon fill="#ffffff" stroke="#000000" points="485.5,-56.5 485.5,-75.5 549.5,-75.5 549.5,-56.5 485.5,-56.5"/>
<text text-anchor="middle" x="517.5" y="-63.5" font-family="Helvetica,sans-Serif" font-size="10.00" fill="#000000">odp_api.h</text>
</a>
</g>
</g>
<!-- Node9&#45;&gt;Node10 -->
<g id="edge9" class="edge">
<title>Node9&#45;&gt;Node10</title>
<path fill="none" stroke="#191970" d="M517.5,-102.1575C517.5,-93.155 517.5,-82.9199 517.5,-75.6427"/>
<polygon fill="#191970" stroke="#191970" points="514.0001,-102.2455 517.5,-112.2455 521.0001,-102.2456 514.0001,-102.2455"/>
</g>
<!-- Node11 -->
<g id="node11" class="node">
<title>Node11</title>
<g id="a_node11"><a xlink:href="odp_8h.html" target="_top" xlink:title="WARNING: THIS FILE IS DEPRECATED AND WILL BE REMOVED!!! ODP APPLICATIONS SHOULD NOW INCLUDE odp_api...">
<polygon fill="#ffffff" stroke="#000000" points="495.5,-.5 495.5,-19.5 539.5,-19.5 539.5,-.5 495.5,-.5"/>
<text text-anchor="middle" x="517.5" y="-7.5" font-family="Helvetica,sans-Serif" font-size="10.00" fill="#000000">odp.h</text>
</a>
</g>
</g>
<!-- Node10&#45;&gt;Node11 -->
<g id="edge10" class="edge">
<title>Node10&#45;&gt;Node11</title>
<path fill="none" stroke="#191970" d="M517.5,-46.1575C517.5,-37.155 517.5,-26.9199 517.5,-19.6427"/>
<polygon fill="#191970" stroke="#191970" points="514.0001,-46.2455 517.5,-56.2455 521.0001,-46.2456 514.0001,-46.2455"/>
</g>
</g>
</svg>
