<?xml version="1.0" encoding="UTF-8" standalone="no"?>
<!DOCTYPE svg PUBLIC "-//W3C//DTD SVG 1.1//EN"
 "http://www.w3.org/Graphics/SVG/1.1/DTD/svg11.dtd">
<!-- Generated by graphviz version 2.40.1 (20161225.0304)
 -->
<!-- Title: event.h Pages: 1 -->
<svg width="1028pt" height="532pt"
 viewBox="0.00 0.00 1028.00 532.00" xmlns="http://www.w3.org/2000/svg" xmlns:xlink="http://www.w3.org/1999/xlink">
<g id="graph0" class="graph" transform="scale(1 1) rotate(0) translate(4 528)">
<title>event.h</title>
<polygon fill="#ffffff" stroke="transparent" points="-4,4 -4,-528 1024,-528 1024,4 -4,4"/>
<!-- Node0 -->
<g id="node1" class="node">
<title>Node0</title>
<polygon fill="#bfbfbf" stroke="#000000" points="94.5,-504.5 94.5,-523.5 147.5,-523.5 147.5,-504.5 94.5,-504.5"/>
<text text-anchor="middle" x="121" y="-511.5" font-family="Helvetica,sans-Serif" font-size="10.00" fill="#000000">event.h</text>
</g>
<!-- Node1 -->
<g id="node2" class="node">
<title>Node1</title>
<polygon fill="#ffffff" stroke="#bfbfbf" points="0,-336.5 0,-355.5 110,-355.5 110,-336.5 0,-336.5"/>
<text text-anchor="middle" x="55" y="-343.5" font-family="Helvetica,sans-Serif" font-size="10.00" fill="#000000">odp/api/abi/event.h</text>
</g>
<!-- Node0&#45;&gt;Node1 -->
<g id="edge1" class="edge">
<title>Node0&#45;&gt;Node1</title>
<path fill="none" stroke="#191970" d="M117.2625,-504.4862C106.7391,-477.6994 76.7079,-401.2565 62.5542,-365.2289"/>
<polygon fill="#191970" stroke="#191970" points="65.7752,-363.8556 58.861,-355.8279 59.2599,-366.4152 65.7752,-363.8556"/>
</g>
<!-- Node2 -->
<g id="node3" class="node">
<title>Node2</title>
<g id="a_node3"><a xlink:href="api_2spec_2event_8h.html" target="_top" xlink:title="ODP event. ">
<polygon fill="#ffffff" stroke="#000000" points="218,-448.5 218,-467.5 336,-467.5 336,-448.5 218,-448.5"/>
<text text-anchor="middle" x="277" y="-455.5" font-family="Helvetica,sans-Serif" font-size="10.00" fill="#000000">odp/api/spec/event.h</text>
</a>
</g>
</g>
<!-- Node0&#45;&gt;Node2 -->
<g id="edge2" class="edge">
<title>Node0&#45;&gt;Node2</title>
<path fill="none" stroke="#191970" d="M147.8174,-504.3733C173.5332,-495.1419 212.538,-481.1402 240.9599,-470.9375"/>
<polygon fill="#191970" stroke="#191970" points="242.3032,-474.174 250.5326,-467.5011 239.9381,-467.5857 242.3032,-474.174"/>
</g>
<!-- Node3 -->
<g id="node4" class="node">
<title>Node3</title>
<g id="a_node4"><a xlink:href="visibility__begin_8h_source.html" target="_top" xlink:title="odp/visibility_begin.h">
<polygon fill="#ffffff" stroke="#000000" points="191.5,-.5 191.5,-19.5 312.5,-19.5 312.5,-.5 191.5,-.5"/>
<text text-anchor="middle" x="252" y="-7.5" font-family="Helvetica,sans-Serif" font-size="10.00" fill="#000000">odp/visibility_begin.h</text>
</a>
</g>
</g>
<!-- Node2&#45;&gt;Node3 -->
<g id="edge3" class="edge">
<title>Node2&#45;&gt;Node3</title>
<path fill="none" stroke="#191970" d="M245.8057,-448.3822C204.8239,-433.5796 138,-401.0089 138,-346 138,-346 138,-346 138,-122 138,-75.4628 186.9383,-41.828 220.6864,-24.1659"/>
<polygon fill="#191970" stroke="#191970" points="222.3862,-27.2289 229.749,-19.6105 219.2424,-20.9746 222.3862,-27.2289"/>
</g>
<!-- Node4 -->
<g id="node5" class="node">
<title>Node4</title>
<g id="a_node5"><a xlink:href="api_2packet_8h.html" target="_top" xlink:title="ODP packet descriptor. ">
<polygon fill="#ffffff" stroke="#000000" points="362,-392.5 362,-411.5 460,-411.5 460,-392.5 362,-392.5"/>
<text text-anchor="middle" x="411" y="-399.5" font-family="Helvetica,sans-Serif" font-size="10.00" fill="#000000">odp/api/packet.h</text>
</a>
</g>
</g>
<!-- Node2&#45;&gt;Node4 -->
<g id="edge4" class="edge">
<title>Node2&#45;&gt;Node4</title>
<path fill="none" stroke="#191970" d="M300.0354,-448.3733C321.7388,-439.3032 354.4618,-425.6279 378.755,-415.4755"/>
<polygon fill="#191970" stroke="#191970" points="380.3881,-418.5865 388.2652,-411.5011 377.6889,-412.1278 380.3881,-418.5865"/>
</g>
<!-- Node12 -->
<g id="node13" class="node">
<title>Node12</title>
<g id="a_node13"><a xlink:href="visibility__end_8h_source.html" target="_top" xlink:title="odp/visibility_end.h">
<polygon fill="#ffffff" stroke="#000000" points="577,-.5 577,-19.5 689,-19.5 689,-.5 577,-.5"/>
<text text-anchor="middle" x="633" y="-7.5" font-family="Helvetica,sans-Serif" font-size="10.00" fill="#000000">odp/visibility_end.h</text>
</a>
</g>
</g>
<!-- Node2&#45;&gt;Node12 -->
<g id="edge31" class="edge">
<title>Node2&#45;&gt;Node12</title>
<path fill="none" stroke="#191970" d="M336.2346,-455.2921C512.2583,-446.4637 1020,-415.0164 1020,-346 1020,-346 1020,-346 1020,-122 1020,-56.0381 809.9277,-26.4769 699.3309,-15.4845"/>
<polygon fill="#191970" stroke="#191970" points="699.5644,-11.9908 689.2731,-14.5087 698.8884,-18.9581 699.5644,-11.9908"/>
</g>
<!-- Node4&#45;&gt;Node1 -->
<g id="edge16" class="edge">
<title>Node4&#45;&gt;Node1</title>
<path fill="none" stroke="#191970" d="M361.8735,-394.2722C298.9702,-384.3773 189.7868,-367.2024 120.0384,-356.2308"/>
<polygon fill="#191970" stroke="#191970" points="120.4665,-352.7551 110.044,-354.6586 119.3787,-359.6701 120.4665,-352.7551"/>
</g>
<!-- Node5 -->
<g id="node6" class="node">
<title>Node5</title>
<g id="a_node6"><a xlink:href="api_2std__types_8h.html" target="_top" xlink:title="Standard C language types and definitions for ODP. ">
<polygon fill="#ffffff" stroke="#000000" points="317,-224.5 317,-243.5 429,-243.5 429,-224.5 317,-224.5"/>
<text text-anchor="middle" x="373" y="-231.5" font-family="Helvetica,sans-Serif" font-size="10.00" fill="#000000">odp/api/std_types.h</text>
</a>
</g>
</g>
<!-- Node4&#45;&gt;Node5 -->
<g id="edge5" class="edge">
<title>Node4&#45;&gt;Node5</title>
<path fill="none" stroke="#191970" d="M361.9453,-398.5584C304.8103,-393.4097 215.595,-381.4428 195,-356 152.7371,-303.7889 256.9873,-264.8685 323.2535,-246.2326"/>
<polygon fill="#191970" stroke="#191970" points="324.4148,-249.5435 333.1335,-243.5239 322.5639,-242.7926 324.4148,-249.5435"/>
</g>
<!-- Node13 -->
<g id="node14" class="node">
<title>Node13</title>
<polygon fill="#ffffff" stroke="#bfbfbf" points="346,-336.5 346,-355.5 476,-355.5 476,-336.5 346,-336.5"/>
<text text-anchor="middle" x="411" y="-343.5" font-family="Helvetica,sans-Serif" font-size="10.00" fill="#000000">odp/api/abi/packet_io.h</text>
</g>
<!-- Node4&#45;&gt;Node13 -->
<g id="edge17" class="edge">
<title>Node4&#45;&gt;Node13</title>
<path fill="none" stroke="#191970" d="M411,-392.2455C411,-384.9382 411,-374.6944 411,-365.7046"/>
<polygon fill="#191970" stroke="#191970" points="414.5001,-365.6426 411,-355.6427 407.5001,-365.6427 414.5001,-365.6426"/>
</g>
<!-- Node14 -->
<g id="node15" class="node">
<title>Node14</title>
<polygon fill="#ffffff" stroke="#bfbfbf" points="494,-336.5 494,-355.5 610,-355.5 610,-336.5 494,-336.5"/>
<text text-anchor="middle" x="552" y="-343.5" font-family="Helvetica,sans-Serif" font-size="10.00" fill="#000000">odp/api/abi/packet.h</text>
</g>
<!-- Node4&#45;&gt;Node14 -->
<g id="edge18" class="edge">
<title>Node4&#45;&gt;Node14</title>
<path fill="none" stroke="#191970" d="M435.2388,-392.3733C458.2789,-383.2226 493.1214,-369.3844 518.7501,-359.2057"/>
<polygon fill="#191970" stroke="#191970" points="520.0756,-362.4452 528.0775,-355.5011 517.4918,-355.9395 520.0756,-362.4452"/>
</g>
<!-- Node15 -->
<g id="node16" class="node">
<title>Node15</title>
<polygon fill="#ffffff" stroke="#bfbfbf" points="628.5,-336.5 628.5,-355.5 741.5,-355.5 741.5,-336.5 628.5,-336.5"/>
<text text-anchor="middle" x="685" y="-343.5" font-family="Helvetica,sans-Serif" font-size="10.00" fill="#000000">odp/api/abi/queue.h</text>
</g>
<!-- Node4&#45;&gt;Node15 -->
<g id="edge19" class="edge">
<title>Node4&#45;&gt;Node15</title>
<path fill="none" stroke="#191970" d="M457.791,-392.4369C504.9795,-382.7925 577.872,-367.8948 628.3124,-357.5858"/>
<polygon fill="#191970" stroke="#191970" points="629.3054,-360.9553 638.402,-355.5237 627.9037,-354.097 629.3054,-360.9553"/>
</g>
<!-- Node16 -->
<g id="node17" class="node">
<title>Node16</title>
<polygon fill="#ffffff" stroke="#bfbfbf" points="760,-336.5 760,-355.5 870,-355.5 870,-336.5 760,-336.5"/>
<text text-anchor="middle" x="815" y="-343.5" font-family="Helvetica,sans-Serif" font-size="10.00" fill="#000000">odp/api/abi/buffer.h</text>
</g>
<!-- Node4&#45;&gt;Node16 -->
<g id="edge20" class="edge">
<title>Node4&#45;&gt;Node16</title>
<path fill="none" stroke="#191970" d="M460.0289,-395.6877C524.15,-387.3612 640.2555,-372.0411 749.6307,-356.1774"/>
<polygon fill="#191970" stroke="#191970" points="750.4609,-359.5935 759.8529,-354.6903 749.4531,-352.6664 750.4609,-359.5935"/>
</g>
<!-- Node17 -->
<g id="node18" class="node">
<title>Node17</title>
<polygon fill="#ffffff" stroke="#bfbfbf" points="888,-336.5 888,-355.5 992,-355.5 992,-336.5 888,-336.5"/>
<text text-anchor="middle" x="940" y="-343.5" font-family="Helvetica,sans-Serif" font-size="10.00" fill="#000000">odp/api/abi/pool.h</text>
</g>
<!-- Node4&#45;&gt;Node17 -->
<g id="edge21" class="edge">
<title>Node4&#45;&gt;Node17</title>
<path fill="none" stroke="#191970" d="M460.3061,-398.2065C544.0031,-391.5368 719.4277,-376.5631 877.8612,-356.0802"/>
<polygon fill="#191970" stroke="#191970" points="878.3255,-359.5494 887.7893,-354.7865 877.4209,-352.6081 878.3255,-359.5494"/>
</g>
<!-- Node18 -->
<g id="node19" class="node">
<title>Node18</title>
<g id="a_node19"><a xlink:href="api_2spec_2packet_8h.html" target="_top" xlink:title="ODP packet descriptor. ">
<polygon fill="#ffffff" stroke="#000000" points="204.5,-336.5 204.5,-355.5 327.5,-355.5 327.5,-336.5 204.5,-336.5"/>
<text text-anchor="middle" x="266" y="-343.5" font-family="Helvetica,sans-Serif" font-size="10.00" fill="#000000">odp/api/spec/packet.h</text>
</a>
</g>
</g>
<!-- Node4&#45;&gt;Node18 -->
<g id="edge22" class="edge">
<title>Node4&#45;&gt;Node18</title>
<path fill="none" stroke="#191970" d="M386.0736,-392.3733C362.3798,-383.2226 326.5489,-369.3844 300.1932,-359.2057"/>
<polygon fill="#191970" stroke="#191970" points="301.1906,-355.8389 290.6011,-355.5011 298.6686,-362.3689 301.1906,-355.8389"/>
</g>
<!-- Node6 -->
<g id="node7" class="node">
<title>Node6</title>
<polygon fill="#ffffff" stroke="#bfbfbf" points="243,-168.5 243,-187.5 373,-187.5 373,-168.5 243,-168.5"/>
<text text-anchor="middle" x="308" y="-175.5" font-family="Helvetica,sans-Serif" font-size="10.00" fill="#000000">odp/api/abi/std_types.h</text>
</g>
<!-- Node5&#45;&gt;Node6 -->
<g id="edge6" class="edge">
<title>Node5&#45;&gt;Node6</title>
<path fill="none" stroke="#191970" d="M361.6779,-224.2455C352.0777,-215.9746 338.1108,-203.9416 326.8305,-194.2232"/>
<polygon fill="#191970" stroke="#191970" points="329.053,-191.5182 319.1924,-187.6427 324.484,-196.8214 329.053,-191.5182"/>
</g>
<!-- Node7 -->
<g id="node8" class="node">
<title>Node7</title>
<g id="a_node8"><a xlink:href="api_2spec_2std__types_8h.html" target="_top" xlink:title="Standard C language types and definitions for ODP. ">
<polygon fill="#ffffff" stroke="#000000" points="391.5,-168.5 391.5,-187.5 528.5,-187.5 528.5,-168.5 391.5,-168.5"/>
<text text-anchor="middle" x="460" y="-175.5" font-family="Helvetica,sans-Serif" font-size="10.00" fill="#000000">odp/api/spec/std_types.h</text>
</a>
</g>
</g>
<!-- Node5&#45;&gt;Node7 -->
<g id="edge7" class="edge">
<title>Node5&#45;&gt;Node7</title>
<path fill="none" stroke="#191970" d="M388.1542,-224.2455C401.5027,-215.6534 421.1586,-203.0014 436.5383,-193.1018"/>
<polygon fill="#191970" stroke="#191970" points="438.5051,-195.9982 445.0194,-187.6427 434.7164,-190.1121 438.5051,-195.9982"/>
</g>
<!-- Node7&#45;&gt;Node3 -->
<g id="edge8" class="edge">
<title>Node7&#45;&gt;Node3</title>
<path fill="none" stroke="#191970" d="M419.1336,-168.4812C374.372,-155.693 304.4995,-128.2672 271,-76 261.9631,-61.9003 257.1231,-43.4053 254.595,-29.5821"/>
<polygon fill="#191970" stroke="#191970" points="258.0467,-29.0012 253.0271,-19.671 251.1327,-30.095 258.0467,-29.0012"/>
</g>
<!-- Node8 -->
<g id="node9" class="node">
<title>Node8</title>
<polygon fill="#ffffff" stroke="#bfbfbf" points="345.5,-112.5 345.5,-131.5 398.5,-131.5 398.5,-112.5 345.5,-112.5"/>
<text text-anchor="middle" x="372" y="-119.5" font-family="Helvetica,sans-Serif" font-size="10.00" fill="#000000">stdint.h</text>
</g>
<!-- Node7&#45;&gt;Node8 -->
<g id="edge9" class="edge">
<title>Node7&#45;&gt;Node8</title>
<path fill="none" stroke="#191970" d="M444.6716,-168.2455C431.1697,-159.6534 411.2878,-147.0014 395.7314,-137.1018"/>
<polygon fill="#191970" stroke="#191970" points="397.4685,-134.0587 387.1528,-131.6427 393.7103,-139.9643 397.4685,-134.0587"/>
</g>
<!-- Node9 -->
<g id="node10" class="node">
<title>Node9</title>
<g id="a_node10"><a xlink:href="api_2align_8h.html" target="_top" xlink:title="ODP alignments. ">
<polygon fill="#ffffff" stroke="#000000" points="416.5,-112.5 416.5,-131.5 505.5,-131.5 505.5,-112.5 416.5,-112.5"/>
<text text-anchor="middle" x="461" y="-119.5" font-family="Helvetica,sans-Serif" font-size="10.00" fill="#000000">odp/api/align.h</text>
</a>
</g>
</g>
<!-- Node7&#45;&gt;Node9 -->
<g id="edge10" class="edge">
<title>Node7&#45;&gt;Node9</title>
<path fill="none" stroke="#191970" d="M460.1742,-168.2455C460.3047,-160.9382 460.4876,-150.6944 460.6481,-141.7046"/>
<polygon fill="#191970" stroke="#191970" points="464.1486,-141.7036 460.8278,-131.6427 457.1497,-141.5786 464.1486,-141.7036"/>
</g>
<!-- Node7&#45;&gt;Node12 -->
<g id="edge15" class="edge">
<title>Node7&#45;&gt;Node12</title>
<path fill="none" stroke="#191970" d="M473.2355,-168.228C484.6906,-159.4332 501.3571,-145.8048 514,-132 541.9854,-101.4426 538.6727,-85.272 568,-56 579.8105,-44.2117 594.9339,-33.3135 607.6205,-25.0867"/>
<polygon fill="#191970" stroke="#191970" points="609.7476,-27.8835 616.3455,-19.5938 606.0182,-21.9596 609.7476,-27.8835"/>
</g>
<!-- Node10 -->
<g id="node11" class="node">
<title>Node10</title>
<polygon fill="#ffffff" stroke="#bfbfbf" points="280.5,-56.5 280.5,-75.5 387.5,-75.5 387.5,-56.5 280.5,-56.5"/>
<text text-anchor="middle" x="334" y="-63.5" font-family="Helvetica,sans-Serif" font-size="10.00" fill="#000000">odp/api/abi/align.h</text>
</g>
<!-- Node9&#45;&gt;Node10 -->
<g id="edge11" class="edge">
<title>Node9&#45;&gt;Node10</title>
<path fill="none" stroke="#191970" d="M439.1679,-112.3733C418.6897,-103.3435 387.8601,-89.7494 364.8681,-79.6111"/>
<polygon fill="#191970" stroke="#191970" points="366.1093,-76.3333 355.5472,-75.5011 363.285,-82.7383 366.1093,-76.3333"/>
</g>
<!-- Node11 -->
<g id="node12" class="node">
<title>Node11</title>
<g id="a_node12"><a xlink:href="api_2spec_2align_8h.html" target="_top" xlink:title="ODP alignments. ">
<polygon fill="#ffffff" stroke="#000000" points="406,-56.5 406,-75.5 520,-75.5 520,-56.5 406,-56.5"/>
<text text-anchor="middle" x="463" y="-63.5" font-family="Helvetica,sans-Serif" font-size="10.00" fill="#000000">odp/api/spec/align.h</text>
</a>
</g>
</g>
<!-- Node9&#45;&gt;Node11 -->
<g id="edge12" class="edge">
<title>Node9&#45;&gt;Node11</title>
<path fill="none" stroke="#191970" d="M461.3484,-112.2455C461.6093,-104.9382 461.9752,-94.6944 462.2963,-85.7046"/>
<polygon fill="#191970" stroke="#191970" points="465.7964,-85.7613 462.6556,-75.6427 458.8008,-85.5113 465.7964,-85.7613"/>
</g>
<!-- Node11&#45;&gt;Node3 -->
<g id="edge13" class="edge">
<title>Node11&#45;&gt;Node3</title>
<path fill="none" stroke="#191970" d="M426.7278,-56.3733C391.0342,-46.9001 336.4121,-32.4032 297.7549,-22.1435"/>
<polygon fill="#191970" stroke="#191970" points="298.3621,-18.6835 287.7989,-19.5011 296.5664,-25.4493 298.3621,-18.6835"/>
</g>
<!-- Node11&#45;&gt;Node12 -->
<g id="edge14" class="edge">
<title>Node11&#45;&gt;Node12</title>
<path fill="none" stroke="#191970" d="M492.224,-56.3733C520.4925,-47.0613 563.4965,-32.8953 594.5344,-22.671"/>
<polygon fill="#191970" stroke="#191970" points="595.7544,-25.9542 604.1573,-19.5011 593.5643,-19.3056 595.7544,-25.9542"/>
</g>
<!-- Node18&#45;&gt;Node3 -->
<g id="edge23" class="edge">
<title>Node18&#45;&gt;Node3</title>
<path fill="none" stroke="#191970" d="M257.875,-336.2177C243.25,-317.5805 214,-275.1609 214,-234 214,-234 214,-234 214,-122 214,-87.6118 230.2634,-50.2832 241.511,-28.5791"/>
<polygon fill="#191970" stroke="#191970" points="244.7317,-29.9804 246.393,-19.5166 238.569,-26.6605 244.7317,-29.9804"/>
</g>
<!-- Node18&#45;&gt;Node12 -->
<g id="edge30" class="edge">
<title>Node18&#45;&gt;Node12</title>
<path fill="none" stroke="#191970" d="M327.7289,-337.3192C397.9876,-327.2001 508.2765,-310.5239 549,-300 629.4814,-279.2017 724,-317.1254 724,-234 724,-234 724,-234 724,-122 724,-90.6328 718.2837,-80.7395 699,-56 689.0505,-43.2356 674.5859,-32.602 661.7321,-24.7854"/>
<polygon fill="#191970" stroke="#191970" points="663.1559,-21.5662 652.7448,-19.6014 659.6583,-27.6297 663.1559,-21.5662"/>
</g>
<!-- Node19 -->
<g id="node20" class="node">
<title>Node19</title>
<g id="a_node20"><a xlink:href="api_2time_8h.html" target="_top" xlink:title="ODP time. ">
<polygon fill="#ffffff" stroke="#000000" points="452.5,-280.5 452.5,-299.5 539.5,-299.5 539.5,-280.5 452.5,-280.5"/>
<text text-anchor="middle" x="496" y="-287.5" font-family="Helvetica,sans-Serif" font-size="10.00" fill="#000000">odp/api/time.h</text>
</a>
</g>
</g>
<!-- Node18&#45;&gt;Node19 -->
<g id="edge24" class="edge">
<title>Node18&#45;&gt;Node19</title>
<path fill="none" stroke="#191970" d="M305.2771,-336.4369C344.4744,-326.8932 404.8,-312.2052 447.0835,-301.9101"/>
<polygon fill="#191970" stroke="#191970" points="447.9968,-305.2901 456.8849,-299.5237 446.3408,-298.4888 447.9968,-305.2901"/>
</g>
<!-- Node19&#45;&gt;Node5 -->
<g id="edge25" class="edge">
<title>Node19&#45;&gt;Node5</title>
<path fill="none" stroke="#191970" d="M474.8555,-280.3733C455.1108,-271.3838 425.4302,-257.8706 403.1945,-247.7471"/>
<polygon fill="#191970" stroke="#191970" points="404.42,-244.4594 393.8685,-243.5011 401.5194,-250.8302 404.42,-244.4594"/>
</g>
<!-- Node20 -->
<g id="node21" class="node">
<title>Node20</title>
<polygon fill="#ffffff" stroke="#bfbfbf" points="590.5,-224.5 590.5,-243.5 695.5,-243.5 695.5,-224.5 590.5,-224.5"/>
<text text-anchor="middle" x="643" y="-231.5" font-family="Helvetica,sans-Serif" font-size="10.00" fill="#000000">odp/api/abi/time.h</text>
</g>
<!-- Node19&#45;&gt;Node20 -->
<g id="edge26" class="edge">
<title>Node19&#45;&gt;Node20</title>
<path fill="none" stroke="#191970" d="M521.2702,-280.3733C545.3966,-271.1822 581.9362,-257.2624 608.6877,-247.0713"/>
<polygon fill="#191970" stroke="#191970" points="609.9607,-250.3318 618.0596,-243.5011 607.4687,-243.7904 609.9607,-250.3318"/>
</g>
<!-- Node21 -->
<g id="node22" class="node">
<title>Node21</title>
<g id="a_node22"><a xlink:href="api_2spec_2time_8h.html" target="_top" xlink:title="ODP time. ">
<polygon fill="#ffffff" stroke="#000000" points="576.5,-56.5 576.5,-75.5 689.5,-75.5 689.5,-56.5 576.5,-56.5"/>
<text text-anchor="middle" x="633" y="-63.5" font-family="Helvetica,sans-Serif" font-size="10.00" fill="#000000">odp/api/spec/time.h</text>
</a>
</g>
</g>
<!-- Node19&#45;&gt;Node21 -->
<g id="edge27" class="edge">
<title>Node19&#45;&gt;Node21</title>
<path fill="none" stroke="#191970" d="M501.8867,-280.375C522.8336,-246.1261 593.9782,-129.802 621.7576,-84.3817"/>
<polygon fill="#191970" stroke="#191970" points="624.9034,-85.9463 627.1352,-75.5891 618.9318,-82.2939 624.9034,-85.9463"/>
</g>
<!-- Node21&#45;&gt;Node3 -->
<g id="edge28" class="edge">
<title>Node21&#45;&gt;Node3</title>
<path fill="none" stroke="#191970" d="M576.3719,-57.6767C508.8598,-47.7537 395.9891,-31.1637 322.7813,-20.4036"/>
<polygon fill="#191970" stroke="#191970" points="323.1262,-16.9167 312.7235,-18.9252 322.1082,-23.8423 323.1262,-16.9167"/>
</g>
<!-- Node21&#45;&gt;Node12 -->
<g id="edge29" class="edge">
<title>Node21&#45;&gt;Node12</title>
<path fill="none" stroke="#191970" d="M633,-56.2455C633,-48.9382 633,-38.6944 633,-29.7046"/>
<polygon fill="#191970" stroke="#191970" points="636.5001,-29.6426 633,-19.6427 629.5001,-29.6427 636.5001,-29.6426"/>
</g>
</g>
</svg>
