<?xml version="1.0" encoding="UTF-8" standalone="no"?>
<!DOCTYPE svg PUBLIC "-//W3C//DTD SVG 1.1//EN"
 "http://www.w3.org/Graphics/SVG/1.1/DTD/svg11.dtd">
<!-- Generated by graphviz version 2.40.1 (20161225.0304)
 -->
<!-- Title: schedule_types.h Pages: 1 -->
<svg width="465pt" height="644pt"
 viewBox="0.00 0.00 465.14 644.00" xmlns="http://www.w3.org/2000/svg" xmlns:xlink="http://www.w3.org/1999/xlink">
<g id="graph0" class="graph" transform="scale(1 1) rotate(0) translate(4 640)">
<title>schedule_types.h</title>
<polygon fill="#ffffff" stroke="transparent" points="-4,4 -4,-640 461.1379,-640 461.1379,4 -4,4"/>
<!-- Node7 -->
<g id="node1" class="node">
<title>Node7</title>
<polygon fill="#bfbfbf" stroke="#000000" points="336.1379,-616.5 336.1379,-635.5 437.1379,-635.5 437.1379,-616.5 336.1379,-616.5"/>
<text text-anchor="middle" x="386.6379" y="-623.5" font-family="Helvetica,sans-Serif" font-size="10.00" fill="#000000">schedule_types.h</text>
</g>
<!-- Node8 -->
<g id="node2" class="node">
<title>Node8</title>
<g id="a_node2"><a xlink:href="queue__types_8h.html" target="_top" xlink:title="ODP queue types. ">
<polygon fill="#ffffff" stroke="#000000" points="306.6379,-560.5 306.6379,-579.5 394.6379,-579.5 394.6379,-560.5 306.6379,-560.5"/>
<text text-anchor="middle" x="350.6379" y="-567.5" font-family="Helvetica,sans-Serif" font-size="10.00" fill="#000000">queue_types.h</text>
</a>
</g>
</g>
<!-- Node7&#45;&gt;Node8 -->
<g id="edge1" class="edge">
<title>Node7&#45;&gt;Node8</title>
<path fill="none" stroke="#191970" d="M374.8284,-607.6296C368.8235,-598.2887 361.772,-587.3197 356.8368,-579.6427"/>
<polygon fill="#191970" stroke="#191970" points="372.0154,-609.7264 380.3672,-616.2455 377.9037,-605.9411 372.0154,-609.7264"/>
</g>
<!-- Node22 -->
<g id="node16" class="node">
<title>Node22</title>
<g id="a_node16"><a xlink:href="api_2spec_2schedule_8h.html" target="_top" xlink:title="ODP schedule. ">
<polygon fill="#ffffff" stroke="#000000" points="388.1379,-392.5 388.1379,-411.5 457.1379,-411.5 457.1379,-392.5 388.1379,-392.5"/>
<text text-anchor="middle" x="422.6379" y="-399.5" font-family="Helvetica,sans-Serif" font-size="10.00" fill="#000000">schedule.h</text>
</a>
</g>
</g>
<!-- Node7&#45;&gt;Node22 -->
<g id="edge26" class="edge">
<title>Node7&#45;&gt;Node22</title>
<path fill="none" stroke="#191970" d="M394.8617,-607.0081C398.0816,-598.8382 401.5073,-589.0925 403.6379,-580 418.3856,-517.0618 421.7113,-438.8904 422.4399,-411.7887"/>
<polygon fill="#191970" stroke="#191970" points="391.5875,-605.7672 391.0063,-616.3461 398.0577,-608.4387 391.5875,-605.7672"/>
</g>
<!-- Node9 -->
<g id="node3" class="node">
<title>Node9</title>
<g id="a_node3"><a xlink:href="api_2spec_2queue_8h.html" target="_top" xlink:title="ODP queue. ">
<polygon fill="#ffffff" stroke="#000000" points="322.6379,-504.5 322.6379,-523.5 378.6379,-523.5 378.6379,-504.5 322.6379,-504.5"/>
<text text-anchor="middle" x="350.6379" y="-511.5" font-family="Helvetica,sans-Serif" font-size="10.00" fill="#000000">queue.h</text>
</a>
</g>
</g>
<!-- Node8&#45;&gt;Node9 -->
<g id="edge2" class="edge">
<title>Node8&#45;&gt;Node9</title>
<path fill="none" stroke="#191970" d="M350.6379,-550.1575C350.6379,-541.155 350.6379,-530.9199 350.6379,-523.6427"/>
<polygon fill="#191970" stroke="#191970" points="347.138,-550.2455 350.6379,-560.2455 354.138,-550.2456 347.138,-550.2455"/>
</g>
<!-- Node10 -->
<g id="node4" class="node">
<title>Node10</title>
<g id="a_node4"><a xlink:href="api_2queue_8h.html" target="_top" xlink:title="ODP queue. ">
<polygon fill="#ffffff" stroke="#000000" points="322.6379,-448.5 322.6379,-467.5 378.6379,-467.5 378.6379,-448.5 322.6379,-448.5"/>
<text text-anchor="middle" x="350.6379" y="-455.5" font-family="Helvetica,sans-Serif" font-size="10.00" fill="#000000">queue.h</text>
</a>
</g>
</g>
<!-- Node9&#45;&gt;Node10 -->
<g id="edge3" class="edge">
<title>Node9&#45;&gt;Node10</title>
<path fill="none" stroke="#191970" d="M350.6379,-494.1575C350.6379,-485.155 350.6379,-474.9199 350.6379,-467.6427"/>
<polygon fill="#191970" stroke="#191970" points="347.138,-494.2455 350.6379,-504.2455 354.138,-494.2456 347.138,-494.2455"/>
</g>
<!-- Node11 -->
<g id="node5" class="node">
<title>Node11</title>
<g id="a_node5"><a xlink:href="api_2crypto_8h.html" target="_top" xlink:title="ODP crypto. ">
<polygon fill="#ffffff" stroke="#000000" points="275.6379,-224.5 275.6379,-243.5 331.6379,-243.5 331.6379,-224.5 275.6379,-224.5"/>
<text text-anchor="middle" x="303.6379" y="-231.5" font-family="Helvetica,sans-Serif" font-size="10.00" fill="#000000">crypto.h</text>
</a>
</g>
</g>
<!-- Node10&#45;&gt;Node11 -->
<g id="edge4" class="edge">
<title>Node10&#45;&gt;Node11</title>
<path fill="none" stroke="#191970" d="M346.5279,-438.4119C336.8224,-392.1557 312.7639,-277.494 305.6499,-243.5891"/>
<polygon fill="#191970" stroke="#191970" points="343.1394,-439.3069 348.6184,-448.375 349.9902,-437.8694 343.1394,-439.3069"/>
</g>
<!-- Node14 -->
<g id="node8" class="node">
<title>Node14</title>
<g id="a_node8"><a xlink:href="odp__api_8h.html" target="_top" xlink:title="The OpenDataPlane API. ">
<polygon fill="#ffffff" stroke="#000000" points="205.6379,-56.5 205.6379,-75.5 269.6379,-75.5 269.6379,-56.5 205.6379,-56.5"/>
<text text-anchor="middle" x="237.6379" y="-63.5" font-family="Helvetica,sans-Serif" font-size="10.00" fill="#000000">odp_api.h</text>
</a>
</g>
</g>
<!-- Node10&#45;&gt;Node14 -->
<g id="edge25" class="edge">
<title>Node10&#45;&gt;Node14</title>
<path fill="none" stroke="#191970" d="M353.1903,-438.2338C355.8512,-415.8859 359.6379,-378.3925 359.6379,-346 359.6379,-346 359.6379,-346 359.6379,-178 359.6379,-125.6706 297.9752,-91.1387 262.3264,-75.5474"/>
<polygon fill="#191970" stroke="#191970" points="349.6829,-438.0781 351.9274,-448.4324 356.6298,-438.9384 349.6829,-438.0781"/>
</g>
<!-- Node16 -->
<g id="node10" class="node">
<title>Node16</title>
<g id="a_node10"><a xlink:href="api_2spec_2packet__io_8h.html" target="_top" xlink:title="ODP Packet IO. ">
<polygon fill="#ffffff" stroke="#000000" points="181.1379,-392.5 181.1379,-411.5 254.1379,-411.5 254.1379,-392.5 181.1379,-392.5"/>
<text text-anchor="middle" x="217.6379" y="-399.5" font-family="Helvetica,sans-Serif" font-size="10.00" fill="#000000">packet_io.h</text>
</a>
</g>
</g>
<!-- Node10&#45;&gt;Node16 -->
<g id="edge10" class="edge">
<title>Node10&#45;&gt;Node16</title>
<path fill="none" stroke="#191970" d="M318.2982,-444.3833C294.1094,-434.1985 261.6429,-420.5284 240.2031,-411.5011"/>
<polygon fill="#191970" stroke="#191970" points="317.1998,-447.7184 327.7744,-448.3733 319.9163,-441.2669 317.1998,-447.7184"/>
</g>
<!-- Node10&#45;&gt;Node22 -->
<g id="edge22" class="edge">
<title>Node10&#45;&gt;Node22</title>
<path fill="none" stroke="#191970" d="M371.3019,-441.928C383.8869,-432.1397 399.5472,-419.9595 410.2402,-411.6427"/>
<polygon fill="#191970" stroke="#191970" points="368.9241,-439.3434 363.1794,-448.2455 373.2217,-444.8688 368.9241,-439.3434"/>
</g>
<!-- Node12 -->
<g id="node6" class="node">
<title>Node12</title>
<g id="a_node6"><a xlink:href="api_2spec_2ipsec_8h.html" target="_top" xlink:title="ODP IPSEC API. ">
<polygon fill="#ffffff" stroke="#000000" points="212.1379,-168.5 212.1379,-187.5 263.1379,-187.5 263.1379,-168.5 212.1379,-168.5"/>
<text text-anchor="middle" x="237.6379" y="-175.5" font-family="Helvetica,sans-Serif" font-size="10.00" fill="#000000">ipsec.h</text>
</a>
</g>
</g>
<!-- Node11&#45;&gt;Node12 -->
<g id="edge5" class="edge">
<title>Node11&#45;&gt;Node12</title>
<path fill="none" stroke="#191970" d="M284.3624,-217.645C272.8841,-207.9058 258.7102,-195.8795 249.0025,-187.6427"/>
<polygon fill="#191970" stroke="#191970" points="282.2521,-220.4445 292.1416,-224.2455 286.7809,-215.1069 282.2521,-220.4445"/>
</g>
<!-- Node11&#45;&gt;Node14 -->
<g id="edge9" class="edge">
<title>Node11&#45;&gt;Node14</title>
<path fill="none" stroke="#191970" d="M300.8563,-214.4329C296.8149,-189.6537 287.9555,-146.083 271.6379,-112 265.0339,-98.206 254.0715,-84.3615 246.3842,-75.5191"/>
<polygon fill="#191970" stroke="#191970" points="297.4084,-215.04 302.3837,-224.394 304.3276,-213.9791 297.4084,-215.04"/>
</g>
<!-- Node13 -->
<g id="node7" class="node">
<title>Node13</title>
<g id="a_node7"><a xlink:href="api_2ipsec_8h.html" target="_top" xlink:title="ODP IPSEC API &#45; platform specific header. ">
<polygon fill="#ffffff" stroke="#000000" points="212.1379,-112.5 212.1379,-131.5 263.1379,-131.5 263.1379,-112.5 212.1379,-112.5"/>
<text text-anchor="middle" x="237.6379" y="-119.5" font-family="Helvetica,sans-Serif" font-size="10.00" fill="#000000">ipsec.h</text>
</a>
</g>
</g>
<!-- Node12&#45;&gt;Node13 -->
<g id="edge6" class="edge">
<title>Node12&#45;&gt;Node13</title>
<path fill="none" stroke="#191970" d="M237.6379,-158.1575C237.6379,-149.155 237.6379,-138.9199 237.6379,-131.6427"/>
<polygon fill="#191970" stroke="#191970" points="234.138,-158.2455 237.6379,-168.2455 241.138,-158.2456 234.138,-158.2455"/>
</g>
<!-- Node13&#45;&gt;Node14 -->
<g id="edge7" class="edge">
<title>Node13&#45;&gt;Node14</title>
<path fill="none" stroke="#191970" d="M237.6379,-102.1575C237.6379,-93.155 237.6379,-82.9199 237.6379,-75.6427"/>
<polygon fill="#191970" stroke="#191970" points="234.138,-102.2455 237.6379,-112.2455 241.138,-102.2456 234.138,-102.2455"/>
</g>
<!-- Node15 -->
<g id="node9" class="node">
<title>Node15</title>
<g id="a_node9"><a xlink:href="odp_8h.html" target="_top" xlink:title="WARNING: THIS FILE IS DEPRECATED AND WILL BE REMOVED!!! ODP APPLICATIONS SHOULD NOW INCLUDE odp_api...">
<polygon fill="#ffffff" stroke="#000000" points="215.6379,-.5 215.6379,-19.5 259.6379,-19.5 259.6379,-.5 215.6379,-.5"/>
<text text-anchor="middle" x="237.6379" y="-7.5" font-family="Helvetica,sans-Serif" font-size="10.00" fill="#000000">odp.h</text>
</a>
</g>
</g>
<!-- Node14&#45;&gt;Node15 -->
<g id="edge8" class="edge">
<title>Node14&#45;&gt;Node15</title>
<path fill="none" stroke="#191970" d="M237.6379,-46.1575C237.6379,-37.155 237.6379,-26.9199 237.6379,-19.6427"/>
<polygon fill="#191970" stroke="#191970" points="234.138,-46.2455 237.6379,-56.2455 241.138,-46.2456 234.138,-46.2455"/>
</g>
<!-- Node17 -->
<g id="node11" class="node">
<title>Node17</title>
<g id="a_node11"><a xlink:href="api_2packet__io_8h.html" target="_top" xlink:title="ODP Packet IO. ">
<polygon fill="#ffffff" stroke="#000000" points="141.1379,-336.5 141.1379,-355.5 214.1379,-355.5 214.1379,-336.5 141.1379,-336.5"/>
<text text-anchor="middle" x="177.6379" y="-343.5" font-family="Helvetica,sans-Serif" font-size="10.00" fill="#000000">packet_io.h</text>
</a>
</g>
</g>
<!-- Node16&#45;&gt;Node17 -->
<g id="edge11" class="edge">
<title>Node16&#45;&gt;Node17</title>
<path fill="none" stroke="#191970" d="M204.7243,-383.9209C198.0076,-374.5176 190.0663,-363.3997 184.5255,-355.6427"/>
<polygon fill="#191970" stroke="#191970" points="202.01,-386.1425 210.6705,-392.2455 207.7061,-382.0738 202.01,-386.1425"/>
</g>
<!-- Node17&#45;&gt;Node12 -->
<g id="edge16" class="edge">
<title>Node17&#45;&gt;Node12</title>
<path fill="none" stroke="#191970" d="M201.7713,-330.5233C211.882,-322.6772 222.6578,-312.2152 228.6379,-300 247.2215,-262.041 242.3518,-209.3763 239.2619,-187.8058"/>
<polygon fill="#191970" stroke="#191970" points="199.5967,-327.7768 193.5546,-336.4799 203.7053,-333.4443 199.5967,-327.7768"/>
</g>
<!-- Node17&#45;&gt;Node14 -->
<g id="edge21" class="edge">
<title>Node17&#45;&gt;Node14</title>
<path fill="none" stroke="#191970" d="M130.8274,-337.5449C90.1317,-329.2944 35.3045,-315.7138 19.6379,-300 -1.9138,-278.3834 .6379,-264.5246 .6379,-234 .6379,-234 .6379,-234 .6379,-178 .6379,-133.2874 140.2727,-91.2279 205.181,-74.0922"/>
<polygon fill="#191970" stroke="#191970" points="130.3477,-341.0178 140.8369,-339.5258 131.7066,-334.151 130.3477,-341.0178"/>
</g>
<!-- Node18 -->
<g id="node12" class="node">
<title>Node18</title>
<g id="a_node12"><a xlink:href="api_2spec_2classification_8h.html" target="_top" xlink:title="ODP classification descriptor. ">
<polygon fill="#ffffff" stroke="#000000" points="29.1379,-280.5 29.1379,-299.5 118.1379,-299.5 118.1379,-280.5 29.1379,-280.5"/>
<text text-anchor="middle" x="73.6379" y="-287.5" font-family="Helvetica,sans-Serif" font-size="10.00" fill="#000000">classification.h</text>
</a>
</g>
</g>
<!-- Node17&#45;&gt;Node18 -->
<g id="edge12" class="edge">
<title>Node17&#45;&gt;Node18</title>
<path fill="none" stroke="#191970" d="M150.6351,-331.46C132.0243,-321.4388 107.8081,-308.3993 91.5457,-299.6427"/>
<polygon fill="#191970" stroke="#191970" points="149.0584,-334.5861 159.5225,-336.2455 152.3771,-328.4228 149.0584,-334.5861"/>
</g>
<!-- Node20 -->
<g id="node14" class="node">
<title>Node20</title>
<g id="a_node14"><a xlink:href="api_2spec_2traffic__mngr_8h.html" target="_top" xlink:title="Copyright (c) 2015&#45;2018, Linaro Limited All rights reserved. ">
<polygon fill="#ffffff" stroke="#000000" points="135.6379,-280.5 135.6379,-299.5 219.6379,-299.5 219.6379,-280.5 135.6379,-280.5"/>
<text text-anchor="middle" x="177.6379" y="-287.5" font-family="Helvetica,sans-Serif" font-size="10.00" fill="#000000">traffic_mngr.h</text>
</a>
</g>
</g>
<!-- Node17&#45;&gt;Node20 -->
<g id="edge17" class="edge">
<title>Node17&#45;&gt;Node20</title>
<path fill="none" stroke="#191970" d="M177.6379,-326.1575C177.6379,-317.155 177.6379,-306.9199 177.6379,-299.6427"/>
<polygon fill="#191970" stroke="#191970" points="174.138,-326.2455 177.6379,-336.2455 181.138,-326.2456 174.138,-326.2455"/>
</g>
<!-- Node19 -->
<g id="node13" class="node">
<title>Node19</title>
<g id="a_node13"><a xlink:href="api_2classification_8h.html" target="_top" xlink:title="ODP classification descriptor. ">
<polygon fill="#ffffff" stroke="#000000" points="29.1379,-224.5 29.1379,-243.5 118.1379,-243.5 118.1379,-224.5 29.1379,-224.5"/>
<text text-anchor="middle" x="73.6379" y="-231.5" font-family="Helvetica,sans-Serif" font-size="10.00" fill="#000000">classification.h</text>
</a>
</g>
</g>
<!-- Node18&#45;&gt;Node19 -->
<g id="edge13" class="edge">
<title>Node18&#45;&gt;Node19</title>
<path fill="none" stroke="#191970" d="M73.6379,-270.1575C73.6379,-261.155 73.6379,-250.9199 73.6379,-243.6427"/>
<polygon fill="#191970" stroke="#191970" points="70.138,-270.2455 73.6379,-280.2455 77.138,-270.2456 70.138,-270.2455"/>
</g>
<!-- Node19&#45;&gt;Node12 -->
<g id="edge14" class="edge">
<title>Node19&#45;&gt;Node12</title>
<path fill="none" stroke="#191970" d="M111.3882,-221.1097C142.2238,-210.5804 184.977,-195.9818 211.9693,-186.7649"/>
<polygon fill="#191970" stroke="#191970" points="110.163,-217.8295 101.8305,-224.3733 112.4251,-224.454 110.163,-217.8295"/>
</g>
<!-- Node19&#45;&gt;Node14 -->
<g id="edge15" class="edge">
<title>Node19&#45;&gt;Node14</title>
<path fill="none" stroke="#191970" d="M89.9208,-216.987C112.6012,-193.3304 155.0422,-149.2108 191.6379,-112 203.992,-99.4383 218.3711,-85.1046 227.7197,-75.8232"/>
<polygon fill="#191970" stroke="#191970" points="87.1553,-214.8142 82.7645,-224.4564 92.2099,-219.6569 87.1553,-214.8142"/>
</g>
<!-- Node21 -->
<g id="node15" class="node">
<title>Node21</title>
<g id="a_node15"><a xlink:href="api_2traffic__mngr_8h.html" target="_top" xlink:title="ODP Traffic manager. ">
<polygon fill="#ffffff" stroke="#000000" points="135.6379,-224.5 135.6379,-243.5 219.6379,-243.5 219.6379,-224.5 135.6379,-224.5"/>
<text text-anchor="middle" x="177.6379" y="-231.5" font-family="Helvetica,sans-Serif" font-size="10.00" fill="#000000">traffic_mngr.h</text>
</a>
</g>
</g>
<!-- Node20&#45;&gt;Node21 -->
<g id="edge18" class="edge">
<title>Node20&#45;&gt;Node21</title>
<path fill="none" stroke="#191970" d="M177.6379,-270.1575C177.6379,-261.155 177.6379,-250.9199 177.6379,-243.6427"/>
<polygon fill="#191970" stroke="#191970" points="174.138,-270.2455 177.6379,-280.2455 181.138,-270.2456 174.138,-270.2455"/>
</g>
<!-- Node21&#45;&gt;Node12 -->
<g id="edge19" class="edge">
<title>Node21&#45;&gt;Node12</title>
<path fill="none" stroke="#191970" d="M195.4657,-217.3607C205.8458,-207.6727 218.567,-195.7995 227.3065,-187.6427"/>
<polygon fill="#191970" stroke="#191970" points="193.0116,-214.8636 188.0891,-224.2455 197.7878,-219.981 193.0116,-214.8636"/>
</g>
<!-- Node21&#45;&gt;Node14 -->
<g id="edge20" class="edge">
<title>Node21&#45;&gt;Node14</title>
<path fill="none" stroke="#191970" d="M178.9574,-214.3976C181.2222,-189.5814 187.2107,-145.9721 202.6379,-112 208.9448,-98.1118 220.1011,-84.499 228.1247,-75.7308"/>
<polygon fill="#191970" stroke="#191970" points="175.4679,-214.1275 178.1583,-224.375 182.4456,-214.6864 175.4679,-214.1275"/>
</g>
<!-- Node23 -->
<g id="node17" class="node">
<title>Node23</title>
<g id="a_node17"><a xlink:href="api_2schedule_8h.html" target="_top" xlink:title="ODP schedule. ">
<polygon fill="#ffffff" stroke="#000000" points="388.1379,-168.5 388.1379,-187.5 457.1379,-187.5 457.1379,-168.5 388.1379,-168.5"/>
<text text-anchor="middle" x="422.6379" y="-175.5" font-family="Helvetica,sans-Serif" font-size="10.00" fill="#000000">schedule.h</text>
</a>
</g>
</g>
<!-- Node22&#45;&gt;Node23 -->
<g id="edge23" class="edge">
<title>Node22&#45;&gt;Node23</title>
<path fill="none" stroke="#191970" d="M422.6379,-382.1177C422.6379,-335.6713 422.6379,-221.4223 422.6379,-187.5891"/>
<polygon fill="#191970" stroke="#191970" points="419.138,-382.375 422.6379,-392.375 426.138,-382.375 419.138,-382.375"/>
</g>
<!-- Node23&#45;&gt;Node14 -->
<g id="edge24" class="edge">
<title>Node23&#45;&gt;Node14</title>
<path fill="none" stroke="#191970" d="M413.1743,-159.6945C404.6637,-144.8992 390.8644,-124.5379 373.6379,-112 342.4015,-89.2653 299.1338,-77.1976 269.8551,-71.2143"/>
<polygon fill="#191970" stroke="#191970" points="410.111,-161.3877 417.9861,-168.4753 416.2497,-158.0237 410.111,-161.3877"/>
</g>
</g>
</svg>
