<?xml version="1.0" encoding="UTF-8" standalone="no"?>
<!DOCTYPE svg PUBLIC "-//W3C//DTD SVG 1.1//EN"
 "http://www.w3.org/Graphics/SVG/1.1/DTD/svg11.dtd">
<!-- Generated by graphviz version 2.40.1 (20161225.0304)
 -->
<!-- Title: align.h Pages: 1 -->
<svg width="2834pt" height="476pt"
 viewBox="0.00 0.00 2833.50 476.00" xmlns="http://www.w3.org/2000/svg" xmlns:xlink="http://www.w3.org/1999/xlink">
<g id="graph0" class="graph" transform="scale(1 1) rotate(0) translate(4 472)">
<title>align.h</title>
<polygon fill="#ffffff" stroke="transparent" points="-4,4 -4,-472 2829.5,-472 2829.5,4 -4,4"/>
<!-- Node5 -->
<g id="node1" class="node">
<title>Node5</title>
<polygon fill="#bfbfbf" stroke="#000000" points="1686.5,-448.5 1686.5,-467.5 1736.5,-467.5 1736.5,-448.5 1686.5,-448.5"/>
<text text-anchor="middle" x="1711.5" y="-455.5" font-family="Helvetica,sans-Serif" font-size="10.00" fill="#000000">align.h</text>
</g>
<!-- Node6 -->
<g id="node2" class="node">
<title>Node6</title>
<g id="a_node2"><a xlink:href="api_2abi-default_2atomic_8h.html" target="_top" xlink:title="ODP atomic operations. ">
<polygon fill="#ffffff" stroke="#000000" points="231,-280.5 231,-299.5 290,-299.5 290,-280.5 231,-280.5"/>
<text text-anchor="middle" x="260.5" y="-287.5" font-family="Helvetica,sans-Serif" font-size="10.00" fill="#000000">atomic.h</text>
</a>
</g>
</g>
<!-- Node5&#45;&gt;Node6 -->
<g id="edge1" class="edge">
<title>Node5&#45;&gt;Node6</title>
<path fill="none" stroke="#191970" d="M1676.1844,-455.4954C1516.5971,-443.8716 847.038,-391.8194 304.5,-300 299.8657,-299.2157 294.9867,-298.2497 290.2323,-297.2303"/>
<polygon fill="#191970" stroke="#191970" points="1676.1428,-459.0015 1686.3694,-456.2326 1676.6482,-452.0197 1676.1428,-459.0015"/>
</g>
<!-- Node24 -->
<g id="node13" class="node">
<title>Node24</title>
<g id="a_node13"><a xlink:href="odp__api_8h.html" target="_top" xlink:title="The OpenDataPlane API. ">
<polygon fill="#ffffff" stroke="#000000" points="1977.5,-56.5 1977.5,-75.5 2041.5,-75.5 2041.5,-56.5 1977.5,-56.5"/>
<text text-anchor="middle" x="2009.5" y="-63.5" font-family="Helvetica,sans-Serif" font-size="10.00" fill="#000000">odp_api.h</text>
</a>
</g>
</g>
<!-- Node5&#45;&gt;Node24 -->
<g id="edge67" class="edge">
<title>Node5&#45;&gt;Node24</title>
<path fill="none" stroke="#191970" d="M1746.8398,-456.3447C1936.5386,-447.232 2825.5,-401.5643 2825.5,-346 2825.5,-346 2825.5,-346 2825.5,-178 2825.5,-97.4313 2193.0565,-71.9174 2041.7395,-66.966"/>
<polygon fill="#191970" stroke="#191970" points="1746.416,-452.8608 1736.5943,-456.8338 1746.7499,-459.8528 1746.416,-452.8608"/>
</g>
<!-- Node53 -->
<g id="node15" class="node">
<title>Node53</title>
<g id="a_node15"><a xlink:href="api_2abi-default_2cpumask_8h.html" target="_top" xlink:title="ODP CPU masks and enumeration. ">
<polygon fill="#ffffff" stroke="#000000" points="2375.5,-280.5 2375.5,-299.5 2445.5,-299.5 2445.5,-280.5 2375.5,-280.5"/>
<text text-anchor="middle" x="2410.5" y="-287.5" font-family="Helvetica,sans-Serif" font-size="10.00" fill="#000000">cpumask.h</text>
</a>
</g>
</g>
<!-- Node5&#45;&gt;Node53 -->
<g id="edge15" class="edge">
<title>Node5&#45;&gt;Node53</title>
<path fill="none" stroke="#191970" d="M1746.5217,-449.5828C1865.8521,-420.9025 2255.7704,-327.1882 2375.3279,-298.4534"/>
<polygon fill="#191970" stroke="#191970" points="1745.6959,-446.1815 1736.7907,-451.9215 1747.3318,-452.9877 1745.6959,-446.1815"/>
</g>
<!-- Node77 -->
<g id="node25" class="node">
<title>Node77</title>
<g id="a_node25"><a xlink:href="api_2spec_2std__types_8h.html" target="_top" xlink:title="Standard C language types and definitions for ODP. ">
<polygon fill="#ffffff" stroke="#000000" points="1643,-392.5 1643,-411.5 1716,-411.5 1716,-392.5 1643,-392.5"/>
<text text-anchor="middle" x="1679.5" y="-399.5" font-family="Helvetica,sans-Serif" font-size="10.00" fill="#000000">std_types.h</text>
</a>
</g>
</g>
<!-- Node5&#45;&gt;Node77 -->
<g id="edge26" class="edge">
<title>Node5&#45;&gt;Node77</title>
<path fill="none" stroke="#191970" d="M1700.8355,-439.3372C1695.5346,-430.0605 1689.3513,-419.2398 1685.0101,-411.6427"/>
<polygon fill="#191970" stroke="#191970" points="1697.9257,-441.2996 1705.926,-448.2455 1704.0034,-437.8266 1697.9257,-441.2996"/>
</g>
<!-- Node7 -->
<g id="node3" class="node">
<title>Node7</title>
<g id="a_node3"><a xlink:href="arch_2arm32-linux_2odp_2api_2abi_2atomic_8h_source.html" target="_top" xlink:title="atomic.h">
<polygon fill="#ffffff" stroke="#000000" points="385,-224.5 385,-243.5 444,-243.5 444,-224.5 385,-224.5"/>
<text text-anchor="middle" x="414.5" y="-231.5" font-family="Helvetica,sans-Serif" font-size="10.00" fill="#000000">atomic.h</text>
</a>
</g>
</g>
<!-- Node6&#45;&gt;Node7 -->
<g id="edge2" class="edge">
<title>Node6&#45;&gt;Node7</title>
<path fill="none" stroke="#191970" d="M296.4614,-276.9231C324.6134,-266.686 363.1055,-252.6889 388.3719,-243.5011"/>
<polygon fill="#191970" stroke="#191970" points="295.1754,-273.6665 286.9735,-280.3733 297.5676,-280.245 295.1754,-273.6665"/>
</g>
<!-- Node8 -->
<g id="node4" class="node">
<title>Node8</title>
<g id="a_node4"><a xlink:href="arch_2arm64-linux_2odp_2api_2abi_2atomic_8h_source.html" target="_top" xlink:title="atomic.h">
<polygon fill="#ffffff" stroke="#000000" points="0,-224.5 0,-243.5 59,-243.5 59,-224.5 0,-224.5"/>
<text text-anchor="middle" x="29.5" y="-231.5" font-family="Helvetica,sans-Serif" font-size="10.00" fill="#000000">atomic.h</text>
</a>
</g>
</g>
<!-- Node6&#45;&gt;Node8 -->
<g id="edge3" class="edge">
<title>Node6&#45;&gt;Node8</title>
<path fill="none" stroke="#191970" d="M220.7721,-280.8169C181.7057,-271.7194 120.4069,-257.2645 67.5,-244 64.8532,-243.3364 62.1058,-242.636 59.3538,-241.9266"/>
<polygon fill="#191970" stroke="#191970" points="220.1579,-284.2674 230.6908,-283.1228 221.7431,-277.4492 220.1579,-284.2674"/>
</g>
<!-- Node9 -->
<g id="node5" class="node">
<title>Node9</title>
<g id="a_node5"><a xlink:href="arch_2default-linux_2odp_2api_2abi_2atomic_8h_source.html" target="_top" xlink:title="atomic.h">
<polygon fill="#ffffff" stroke="#000000" points="77,-224.5 77,-243.5 136,-243.5 136,-224.5 77,-224.5"/>
<text text-anchor="middle" x="106.5" y="-231.5" font-family="Helvetica,sans-Serif" font-size="10.00" fill="#000000">atomic.h</text>
</a>
</g>
</g>
<!-- Node6&#45;&gt;Node9 -->
<g id="edge4" class="edge">
<title>Node6&#45;&gt;Node9</title>
<path fill="none" stroke="#191970" d="M224.5386,-276.9231C196.3866,-266.686 157.8945,-252.6889 132.6281,-243.5011"/>
<polygon fill="#191970" stroke="#191970" points="223.4324,-280.245 234.0265,-280.3733 225.8246,-273.6665 223.4324,-280.245"/>
</g>
<!-- Node10 -->
<g id="node6" class="node">
<title>Node10</title>
<g id="a_node6"><a xlink:href="arch_2mips64-linux_2odp_2api_2abi_2atomic_8h_source.html" target="_top" xlink:title="atomic.h">
<polygon fill="#ffffff" stroke="#000000" points="154,-224.5 154,-243.5 213,-243.5 213,-224.5 154,-224.5"/>
<text text-anchor="middle" x="183.5" y="-231.5" font-family="Helvetica,sans-Serif" font-size="10.00" fill="#000000">atomic.h</text>
</a>
</g>
</g>
<!-- Node6&#45;&gt;Node10 -->
<g id="edge5" class="edge">
<title>Node6&#45;&gt;Node10</title>
<path fill="none" stroke="#191970" d="M238.7884,-274.2097C225.2647,-264.3743 208.3042,-252.0394 196.7587,-243.6427"/>
<polygon fill="#191970" stroke="#191970" points="236.9416,-277.1944 247.0876,-280.2455 241.0589,-271.5332 236.9416,-277.1944"/>
</g>
<!-- Node11 -->
<g id="node7" class="node">
<title>Node11</title>
<g id="a_node7"><a xlink:href="arch_2power64-linux_2odp_2api_2abi_2atomic_8h_source.html" target="_top" xlink:title="atomic.h">
<polygon fill="#ffffff" stroke="#000000" points="231,-224.5 231,-243.5 290,-243.5 290,-224.5 231,-224.5"/>
<text text-anchor="middle" x="260.5" y="-231.5" font-family="Helvetica,sans-Serif" font-size="10.00" fill="#000000">atomic.h</text>
</a>
</g>
</g>
<!-- Node6&#45;&gt;Node11 -->
<g id="edge6" class="edge">
<title>Node6&#45;&gt;Node11</title>
<path fill="none" stroke="#191970" d="M260.5,-270.1575C260.5,-261.155 260.5,-250.9199 260.5,-243.6427"/>
<polygon fill="#191970" stroke="#191970" points="257.0001,-270.2455 260.5,-280.2455 264.0001,-270.2456 257.0001,-270.2455"/>
</g>
<!-- Node12 -->
<g id="node8" class="node">
<title>Node12</title>
<g id="a_node8"><a xlink:href="arch_2x86__32-linux_2odp_2api_2abi_2atomic_8h_source.html" target="_top" xlink:title="atomic.h">
<polygon fill="#ffffff" stroke="#000000" points="308,-224.5 308,-243.5 367,-243.5 367,-224.5 308,-224.5"/>
<text text-anchor="middle" x="337.5" y="-231.5" font-family="Helvetica,sans-Serif" font-size="10.00" fill="#000000">atomic.h</text>
</a>
</g>
</g>
<!-- Node6&#45;&gt;Node12 -->
<g id="edge7" class="edge">
<title>Node6&#45;&gt;Node12</title>
<path fill="none" stroke="#191970" d="M282.2116,-274.2097C295.7353,-264.3743 312.6958,-252.0394 324.2413,-243.6427"/>
<polygon fill="#191970" stroke="#191970" points="279.9411,-271.5332 273.9124,-280.2455 284.0584,-277.1944 279.9411,-271.5332"/>
</g>
<!-- Node13 -->
<g id="node9" class="node">
<title>Node13</title>
<g id="a_node9"><a xlink:href="arch_2x86__64-linux_2odp_2api_2abi_2atomic_8h_source.html" target="_top" xlink:title="atomic.h">
<polygon fill="#ffffff" stroke="#000000" points="462,-224.5 462,-243.5 521,-243.5 521,-224.5 462,-224.5"/>
<text text-anchor="middle" x="491.5" y="-231.5" font-family="Helvetica,sans-Serif" font-size="10.00" fill="#000000">atomic.h</text>
</a>
</g>
</g>
<!-- Node6&#45;&gt;Node13 -->
<g id="edge8" class="edge">
<title>Node6&#45;&gt;Node13</title>
<path fill="none" stroke="#191970" d="M300.0009,-280.7293C338.849,-271.5664 399.8187,-257.0639 452.5,-244 455.4851,-243.2597 458.5962,-242.4785 461.7018,-241.6923"/>
<polygon fill="#191970" stroke="#191970" points="299.0688,-277.353 290.1379,-283.0531 300.6741,-284.1665 299.0688,-277.353"/>
</g>
<!-- Node14 -->
<g id="node10" class="node">
<title>Node14</title>
<g id="a_node10"><a xlink:href="api_2atomic_8h.html" target="_top" xlink:title="ODP atomic operations. ">
<polygon fill="#ffffff" stroke="#ff0000" points="581,-168.5 581,-187.5 640,-187.5 640,-168.5 581,-168.5"/>
<text text-anchor="middle" x="610.5" y="-175.5" font-family="Helvetica,sans-Serif" font-size="10.00" fill="#000000">atomic.h</text>
</a>
</g>
</g>
<!-- Node13&#45;&gt;Node14 -->
<g id="edge9" class="edge">
<title>Node13&#45;&gt;Node14</title>
<path fill="none" stroke="#191970" d="M521.0144,-220.1109C542.5938,-209.9559 571.2976,-196.4482 590.3101,-187.5011"/>
<polygon fill="#191970" stroke="#191970" points="519.5147,-216.9484 511.9568,-224.3733 522.4953,-223.2821 519.5147,-216.9484"/>
</g>
<!-- Node15 -->
<g id="node11" class="node">
<title>Node15</title>
<g id="a_node11"><a xlink:href="api_2abi-default_2barrier_8h.html" target="_top" xlink:title="ODP barrier. ">
<polygon fill="#ffffff" stroke="#ff0000" points="1774,-112.5 1774,-131.5 1831,-131.5 1831,-112.5 1774,-112.5"/>
<text text-anchor="middle" x="1802.5" y="-119.5" font-family="Helvetica,sans-Serif" font-size="10.00" fill="#000000">barrier.h</text>
</a>
</g>
</g>
<!-- Node14&#45;&gt;Node15 -->
<g id="edge10" class="edge">
<title>Node14&#45;&gt;Node15</title>
<path fill="none" stroke="#191970" d="M650.4052,-176.1253C836.2099,-167.3962 1614.267,-130.8432 1773.8295,-123.3469"/>
<polygon fill="#191970" stroke="#191970" points="650.0874,-172.6362 640.2627,-176.6018 650.416,-179.6285 650.0874,-172.6362"/>
</g>
<!-- Node23 -->
<g id="node12" class="node">
<title>Node23</title>
<g id="a_node12"><a xlink:href="api_2barrier_8h.html" target="_top" xlink:title="ODP execution barriers. ">
<polygon fill="#ffffff" stroke="#000000" points="640,-112.5 640,-131.5 697,-131.5 697,-112.5 640,-112.5"/>
<text text-anchor="middle" x="668.5" y="-119.5" font-family="Helvetica,sans-Serif" font-size="10.00" fill="#000000">barrier.h</text>
</a>
</g>
</g>
<!-- Node14&#45;&gt;Node23 -->
<g id="edge11" class="edge">
<title>Node14&#45;&gt;Node23</title>
<path fill="none" stroke="#191970" d="M628.0293,-161.0751C638.0083,-151.4402 650.1476,-139.7196 658.5129,-131.6427"/>
<polygon fill="#191970" stroke="#191970" points="625.3658,-158.7817 620.6028,-168.2455 630.228,-163.8175 625.3658,-158.7817"/>
</g>
<!-- Node14&#45;&gt;Node24 -->
<g id="edge14" class="edge">
<title>Node14&#45;&gt;Node24</title>
<path fill="none" stroke="#191970" d="M610.6702,-158.4538C611.9543,-143.1834 616.4409,-122.7981 630.5,-112 658.1059,-90.7973 1773.0129,-70.165 1977.4702,-66.5557"/>
<polygon fill="#191970" stroke="#191970" points="607.1733,-158.3087 610.2101,-168.4589 614.1659,-158.6303 607.1733,-158.3087"/>
</g>
<!-- Node23&#45;&gt;Node24 -->
<g id="edge12" class="edge">
<title>Node23&#45;&gt;Node24</title>
<path fill="none" stroke="#191970" d="M707.3199,-120.3789C904.8718,-112.1291 1796.2607,-74.9048 1977.3429,-67.3429"/>
<polygon fill="#191970" stroke="#191970" points="706.9743,-116.8902 697.1291,-120.8045 707.2664,-123.8841 706.9743,-116.8902"/>
</g>
<!-- Node25 -->
<g id="node14" class="node">
<title>Node25</title>
<g id="a_node14"><a xlink:href="odp_8h.html" target="_top" xlink:title="WARNING: THIS FILE IS DEPRECATED AND WILL BE REMOVED!!! ODP APPLICATIONS SHOULD NOW INCLUDE odp_api...">
<polygon fill="#ffffff" stroke="#000000" points="1987.5,-.5 1987.5,-19.5 2031.5,-19.5 2031.5,-.5 1987.5,-.5"/>
<text text-anchor="middle" x="2009.5" y="-7.5" font-family="Helvetica,sans-Serif" font-size="10.00" fill="#000000">odp.h</text>
</a>
</g>
</g>
<!-- Node24&#45;&gt;Node25 -->
<g id="edge13" class="edge">
<title>Node24&#45;&gt;Node25</title>
<path fill="none" stroke="#191970" d="M2009.5,-46.1575C2009.5,-37.155 2009.5,-26.9199 2009.5,-19.6427"/>
<polygon fill="#191970" stroke="#191970" points="2006.0001,-46.2455 2009.5,-56.2455 2013.0001,-46.2456 2006.0001,-46.2455"/>
</g>
<!-- Node54 -->
<g id="node16" class="node">
<title>Node54</title>
<g id="a_node16"><a xlink:href="arch_2arm32-linux_2odp_2api_2abi_2cpumask_8h_source.html" target="_top" xlink:title="cpumask.h">
<polygon fill="#ffffff" stroke="#000000" points="2551.5,-224.5 2551.5,-243.5 2621.5,-243.5 2621.5,-224.5 2551.5,-224.5"/>
<text text-anchor="middle" x="2586.5" y="-231.5" font-family="Helvetica,sans-Serif" font-size="10.00" fill="#000000">cpumask.h</text>
</a>
</g>
</g>
<!-- Node53&#45;&gt;Node54 -->
<g id="edge16" class="edge">
<title>Node53&#45;&gt;Node54</title>
<path fill="none" stroke="#191970" d="M2450.3404,-277.3235C2482.6173,-267.0536 2527.3852,-252.8093 2556.6393,-243.5011"/>
<polygon fill="#191970" stroke="#191970" points="2449.2235,-274.0059 2440.7555,-280.3733 2451.346,-280.6764 2449.2235,-274.0059"/>
</g>
<!-- Node55 -->
<g id="node17" class="node">
<title>Node55</title>
<g id="a_node17"><a xlink:href="arch_2arm64-linux_2odp_2api_2abi_2cpumask_8h_source.html" target="_top" xlink:title="cpumask.h">
<polygon fill="#ffffff" stroke="#000000" points="2639.5,-224.5 2639.5,-243.5 2709.5,-243.5 2709.5,-224.5 2639.5,-224.5"/>
<text text-anchor="middle" x="2674.5" y="-231.5" font-family="Helvetica,sans-Serif" font-size="10.00" fill="#000000">cpumask.h</text>
</a>
</g>
</g>
<!-- Node53&#45;&gt;Node55 -->
<g id="edge17" class="edge">
<title>Node53&#45;&gt;Node55</title>
<path fill="none" stroke="#191970" d="M2455.5125,-280.8264C2500.0128,-271.7011 2570.0196,-257.1947 2630.5,-244 2633.4084,-243.3655 2636.4228,-242.699 2639.4478,-242.024"/>
<polygon fill="#191970" stroke="#191970" points="2454.6888,-277.4224 2445.5944,-282.8577 2456.0933,-284.28 2454.6888,-277.4224"/>
</g>
<!-- Node56 -->
<g id="node18" class="node">
<title>Node56</title>
<g id="a_node18"><a xlink:href="arch_2default-linux_2odp_2api_2abi_2cpumask_8h_source.html" target="_top" xlink:title="cpumask.h">
<polygon fill="#ffffff" stroke="#000000" points="2199.5,-224.5 2199.5,-243.5 2269.5,-243.5 2269.5,-224.5 2199.5,-224.5"/>
<text text-anchor="middle" x="2234.5" y="-231.5" font-family="Helvetica,sans-Serif" font-size="10.00" fill="#000000">cpumask.h</text>
</a>
</g>
</g>
<!-- Node53&#45;&gt;Node56 -->
<g id="edge18" class="edge">
<title>Node53&#45;&gt;Node56</title>
<path fill="none" stroke="#191970" d="M2370.6596,-277.3235C2338.3827,-267.0536 2293.6148,-252.8093 2264.3607,-243.5011"/>
<polygon fill="#191970" stroke="#191970" points="2369.654,-280.6764 2380.2445,-280.3733 2371.7765,-274.0059 2369.654,-280.6764"/>
</g>
<!-- Node57 -->
<g id="node19" class="node">
<title>Node57</title>
<g id="a_node19"><a xlink:href="arch_2mips64-linux_2odp_2api_2abi_2cpumask_8h_source.html" target="_top" xlink:title="cpumask.h">
<polygon fill="#ffffff" stroke="#000000" points="2287.5,-224.5 2287.5,-243.5 2357.5,-243.5 2357.5,-224.5 2287.5,-224.5"/>
<text text-anchor="middle" x="2322.5" y="-231.5" font-family="Helvetica,sans-Serif" font-size="10.00" fill="#000000">cpumask.h</text>
</a>
</g>
</g>
<!-- Node53&#45;&gt;Node57 -->
<g id="edge19" class="edge">
<title>Node53&#45;&gt;Node57</title>
<path fill="none" stroke="#191970" d="M2386.5655,-274.769C2370.9717,-264.8456 2351.099,-252.1994 2337.6528,-243.6427"/>
<polygon fill="#191970" stroke="#191970" points="2384.8559,-277.8296 2395.1716,-280.2455 2388.614,-271.9239 2384.8559,-277.8296"/>
</g>
<!-- Node58 -->
<g id="node20" class="node">
<title>Node58</title>
<g id="a_node20"><a xlink:href="arch_2power64-linux_2odp_2api_2abi_2cpumask_8h_source.html" target="_top" xlink:title="cpumask.h">
<polygon fill="#ffffff" stroke="#000000" points="2375.5,-224.5 2375.5,-243.5 2445.5,-243.5 2445.5,-224.5 2375.5,-224.5"/>
<text text-anchor="middle" x="2410.5" y="-231.5" font-family="Helvetica,sans-Serif" font-size="10.00" fill="#000000">cpumask.h</text>
</a>
</g>
</g>
<!-- Node53&#45;&gt;Node58 -->
<g id="edge20" class="edge">
<title>Node53&#45;&gt;Node58</title>
<path fill="none" stroke="#191970" d="M2410.5,-270.1575C2410.5,-261.155 2410.5,-250.9199 2410.5,-243.6427"/>
<polygon fill="#191970" stroke="#191970" points="2407.0001,-270.2455 2410.5,-280.2455 2414.0001,-270.2456 2407.0001,-270.2455"/>
</g>
<!-- Node59 -->
<g id="node21" class="node">
<title>Node59</title>
<g id="a_node21"><a xlink:href="arch_2x86__32-linux_2odp_2api_2abi_2cpumask_8h_source.html" target="_top" xlink:title="cpumask.h">
<polygon fill="#ffffff" stroke="#000000" points="2463.5,-224.5 2463.5,-243.5 2533.5,-243.5 2533.5,-224.5 2463.5,-224.5"/>
<text text-anchor="middle" x="2498.5" y="-231.5" font-family="Helvetica,sans-Serif" font-size="10.00" fill="#000000">cpumask.h</text>
</a>
</g>
</g>
<!-- Node53&#45;&gt;Node59 -->
<g id="edge21" class="edge">
<title>Node53&#45;&gt;Node59</title>
<path fill="none" stroke="#191970" d="M2434.4345,-274.769C2450.0283,-264.8456 2469.901,-252.1994 2483.3472,-243.6427"/>
<polygon fill="#191970" stroke="#191970" points="2432.386,-271.9239 2425.8284,-280.2455 2436.1441,-277.8296 2432.386,-271.9239"/>
</g>
<!-- Node60 -->
<g id="node22" class="node">
<title>Node60</title>
<g id="a_node22"><a xlink:href="arch_2x86__64-linux_2odp_2api_2abi_2cpumask_8h_source.html" target="_top" xlink:title="cpumask.h">
<polygon fill="#ffffff" stroke="#000000" points="2727.5,-224.5 2727.5,-243.5 2797.5,-243.5 2797.5,-224.5 2727.5,-224.5"/>
<text text-anchor="middle" x="2762.5" y="-231.5" font-family="Helvetica,sans-Serif" font-size="10.00" fill="#000000">cpumask.h</text>
</a>
</g>
</g>
<!-- Node53&#45;&gt;Node60 -->
<g id="edge22" class="edge">
<title>Node53&#45;&gt;Node60</title>
<path fill="none" stroke="#191970" d="M2455.6857,-284.3342C2515.8766,-276.54 2625.5776,-261.4728 2718.5,-244 2721.4255,-243.4499 2724.452,-242.8428 2727.4851,-242.2077"/>
<polygon fill="#191970" stroke="#191970" points="2455.2207,-280.8651 2445.7493,-285.613 2456.1143,-287.8079 2455.2207,-280.8651"/>
</g>
<!-- Node61 -->
<g id="node23" class="node">
<title>Node61</title>
<g id="a_node23"><a xlink:href="api_2cpumask_8h.html" target="_top" xlink:title="ODP CPU masks and enumeration. ">
<polygon fill="#ffffff" stroke="#ff0000" points="2302.5,-168.5 2302.5,-187.5 2372.5,-187.5 2372.5,-168.5 2302.5,-168.5"/>
<text text-anchor="middle" x="2337.5" y="-175.5" font-family="Helvetica,sans-Serif" font-size="10.00" fill="#000000">cpumask.h</text>
</a>
</g>
</g>
<!-- Node60&#45;&gt;Node61 -->
<g id="edge23" class="edge">
<title>Node60&#45;&gt;Node61</title>
<path fill="none" stroke="#191970" d="M2717.1015,-223.8955C2584.5983,-201.3179 2438.3408,-186.925 2372.6086,-181.0156"/>
<polygon fill="#191970" stroke="#191970" points="2716.5725,-227.3559 2727.0218,-225.6059 2717.7619,-220.4577 2716.5725,-227.3559"/>
</g>
<!-- Node61&#45;&gt;Node24 -->
<g id="edge25" class="edge">
<title>Node61&#45;&gt;Node24</title>
<path fill="none" stroke="#191970" d="M2333.4815,-158.1908C2329.3473,-143.1102 2321.3412,-123.1117 2306.5,-112 2265.0977,-81.0019 2109.7045,-70.4275 2041.7023,-67.2341"/>
<polygon fill="#191970" stroke="#191970" points="2330.1222,-159.1923 2335.8499,-168.1054 2336.9306,-157.5658 2330.1222,-159.1923"/>
</g>
<!-- Node73 -->
<g id="node24" class="node">
<title>Node73</title>
<g id="a_node24"><a xlink:href="api_2spec_2init_8h.html" target="_top" xlink:title="init.h">
<polygon fill="#ffffff" stroke="#ff0000" points="2257,-112.5 2257,-131.5 2298,-131.5 2298,-112.5 2257,-112.5"/>
<text text-anchor="middle" x="2277.5" y="-119.5" font-family="Helvetica,sans-Serif" font-size="10.00" fill="#000000">init.h</text>
</a>
</g>
</g>
<!-- Node61&#45;&gt;Node73 -->
<g id="edge24" class="edge">
<title>Node61&#45;&gt;Node73</title>
<path fill="none" stroke="#191970" d="M2319.6722,-161.3607C2309.2922,-151.6727 2296.5709,-139.7995 2287.8314,-131.6427"/>
<polygon fill="#191970" stroke="#191970" points="2317.3501,-163.981 2327.0488,-168.2455 2322.1263,-158.8636 2317.3501,-163.981"/>
</g>
<!-- Node78 -->
<g id="node26" class="node">
<title>Node78</title>
<g id="a_node26"><a xlink:href="api_2std__types_8h.html" target="_top" xlink:title="Standard C language types and definitions for ODP. ">
<polygon fill="#ffffff" stroke="#ff0000" points="1421,-336.5 1421,-355.5 1494,-355.5 1494,-336.5 1421,-336.5"/>
<text text-anchor="middle" x="1457.5" y="-343.5" font-family="Helvetica,sans-Serif" font-size="10.00" fill="#000000">std_types.h</text>
</a>
</g>
</g>
<!-- Node77&#45;&gt;Node78 -->
<g id="edge27" class="edge">
<title>Node77&#45;&gt;Node78</title>
<path fill="none" stroke="#191970" d="M1633.0252,-390.2766C1591.7479,-379.8643 1532.2336,-364.8517 1494.2132,-355.261"/>
<polygon fill="#191970" stroke="#191970" points="1632.2889,-393.7005 1642.8412,-392.7527 1634.001,-386.9131 1632.2889,-393.7005"/>
</g>
<!-- Node78&#45;&gt;Node6 -->
<g id="edge28" class="edge">
<title>Node78&#45;&gt;Node6</title>
<path fill="none" stroke="#191970" d="M1410.9108,-345.2833C1223.4546,-342.2228 523.8997,-329.0577 304.5,-300 299.8405,-299.3829 294.9481,-298.5057 290.188,-297.5243"/>
<polygon fill="#191970" stroke="#191970" points="1410.9316,-348.784 1420.9868,-345.4461 1411.0447,-341.7849 1410.9316,-348.784"/>
</g>
<!-- Node78&#45;&gt;Node15 -->
<g id="edge29" class="edge">
<title>Node78&#45;&gt;Node15</title>
<path fill="none" stroke="#191970" d="M1504.3192,-343.5538C1598.6829,-338.1434 1804.5537,-323.7276 1825.5,-300 1869.2177,-250.4774 1824.7548,-160.9058 1808.1792,-131.5785"/>
<polygon fill="#191970" stroke="#191970" points="1503.9798,-340.0672 1494.1925,-344.1243 1504.3736,-347.0562 1503.9798,-340.0672"/>
</g>
<!-- Node78&#45;&gt;Node23 -->
<g id="edge39" class="edge">
<title>Node78&#45;&gt;Node23</title>
<path fill="none" stroke="#191970" d="M1410.6714,-345.7939C1207.6104,-344.675 411.8033,-337.8794 375.5,-300 369.3495,-293.5825 369.7232,-286.7558 375.5,-280 442.4562,-201.6956 515.6266,-296.1176 604.5,-244 646.7958,-219.1967 662.3923,-155.8849 666.9278,-131.6434"/>
<polygon fill="#191970" stroke="#191970" points="1410.7001,-349.294 1420.7185,-345.8472 1410.7373,-342.2941 1410.7001,-349.294"/>
</g>
<!-- Node78&#45;&gt;Node24 -->
<g id="edge66" class="edge">
<title>Node78&#45;&gt;Node24</title>
<path fill="none" stroke="#191970" d="M1504.4667,-345.0467C1632.3568,-342.0523 1979.9708,-331.1088 2020.5,-300 2087.8567,-248.2994 2086.5625,-190.6249 2054.5,-112 2048.3409,-96.8965 2034.5705,-84.0586 2023.8737,-75.8147"/>
<polygon fill="#191970" stroke="#191970" points="1504.131,-341.5533 1494.2135,-345.2807 1504.2907,-348.5515 1504.131,-341.5533"/>
</g>
<!-- Node78&#45;&gt;Node53 -->
<g id="edge31" class="edge">
<title>Node78&#45;&gt;Node53</title>
<path fill="none" stroke="#191970" d="M1504.6694,-343.2282C1671.2075,-333.4422 2229.4391,-300.6395 2375.3574,-292.065"/>
<polygon fill="#191970" stroke="#191970" points="1504.0522,-339.7584 1494.2748,-343.839 1504.4629,-346.7463 1504.0522,-339.7584"/>
</g>
<!-- Node78&#45;&gt;Node73 -->
<g id="edge59" class="edge">
<title>Node78&#45;&gt;Node73</title>
<path fill="none" stroke="#191970" d="M1504.3367,-344.7689C1646.4395,-340.7552 2066.3413,-326.7401 2121.5,-300 2162.5525,-280.0984 2154.8259,-252.4383 2190.5,-224 2216.0194,-203.6567 2233.5539,-213.0269 2254.5,-188 2268.5182,-171.2507 2274.1942,-145.4257 2276.3288,-131.5683"/>
<polygon fill="#191970" stroke="#191970" points="1504.0989,-341.2741 1494.2003,-345.0515 1504.294,-348.2714 1504.0989,-341.2741"/>
</g>
<!-- Node79 -->
<g id="node27" class="node">
<title>Node79</title>
<g id="a_node27"><a xlink:href="api_2abi-default_2byteorder_8h.html" target="_top" xlink:title="ODP byteorder. ">
<polygon fill="#ffffff" stroke="#ff0000" points="384.5,-280.5 384.5,-299.5 456.5,-299.5 456.5,-280.5 384.5,-280.5"/>
<text text-anchor="middle" x="420.5" y="-287.5" font-family="Helvetica,sans-Serif" font-size="10.00" fill="#000000">byteorder.h</text>
</a>
</g>
</g>
<!-- Node78&#45;&gt;Node79 -->
<g id="edge30" class="edge">
<title>Node78&#45;&gt;Node79</title>
<path fill="none" stroke="#191970" d="M1410.5818,-344.8978C1239.8183,-340.7189 651.7228,-324.8206 465.5,-300 462.6441,-299.6194 459.7016,-299.148 456.7532,-298.619"/>
<polygon fill="#191970" stroke="#191970" points="1410.6693,-348.4008 1420.7514,-345.1448 1410.8393,-341.4029 1410.6693,-348.4008"/>
</g>
<!-- Node88 -->
<g id="node28" class="node">
<title>Node88</title>
<g id="a_node28"><a xlink:href="api_2abi-default_2init_8h.html" target="_top" xlink:title="ODP initialization. ">
<polygon fill="#ffffff" stroke="#ff0000" points="475,-280.5 475,-299.5 516,-299.5 516,-280.5 475,-280.5"/>
<text text-anchor="middle" x="495.5" y="-287.5" font-family="Helvetica,sans-Serif" font-size="10.00" fill="#000000">init.h</text>
</a>
</g>
</g>
<!-- Node78&#45;&gt;Node88 -->
<g id="edge32" class="edge">
<title>Node78&#45;&gt;Node88</title>
<path fill="none" stroke="#191970" d="M1410.579,-345.4362C1246.2099,-343.1885 697.0663,-333.3063 524.5,-300 521.7808,-299.4752 518.9698,-298.751 516.2164,-297.93"/>
<polygon fill="#191970" stroke="#191970" points="1410.7952,-348.9393 1420.8412,-345.5734 1410.8889,-341.94 1410.7952,-348.9393"/>
</g>
<!-- Node96 -->
<g id="node29" class="node">
<title>Node96</title>
<g id="a_node29"><a xlink:href="api_2abi-default_2ipsec_8h.html" target="_top" xlink:title="ODP IPSEC API &#45; platform specific types. ">
<polygon fill="#ffffff" stroke="#ff0000" points="534,-280.5 534,-299.5 585,-299.5 585,-280.5 534,-280.5"/>
<text text-anchor="middle" x="559.5" y="-287.5" font-family="Helvetica,sans-Serif" font-size="10.00" fill="#000000">ipsec.h</text>
</a>
</g>
</g>
<!-- Node78&#45;&gt;Node96 -->
<g id="edge33" class="edge">
<title>Node78&#45;&gt;Node96</title>
<path fill="none" stroke="#191970" d="M1410.4891,-344.9389C1254.1661,-341.1845 752.7043,-327.2664 593.5,-300 590.8316,-299.543 588.0761,-298.9477 585.3422,-298.2751"/>
<polygon fill="#191970" stroke="#191970" points="1410.6293,-348.4431 1420.7096,-345.1816 1410.7956,-341.4451 1410.6293,-348.4431"/>
</g>
<!-- Node105 -->
<g id="node30" class="node">
<title>Node105</title>
<g id="a_node30"><a xlink:href="api_2abi-default_2packet__io_8h.html" target="_top" xlink:title="ODP Packet IO. ">
<polygon fill="#ffffff" stroke="#ff0000" points="603,-280.5 603,-299.5 676,-299.5 676,-280.5 603,-280.5"/>
<text text-anchor="middle" x="639.5" y="-287.5" font-family="Helvetica,sans-Serif" font-size="10.00" fill="#000000">packet_io.h</text>
</a>
</g>
</g>
<!-- Node78&#45;&gt;Node105 -->
<g id="edge34" class="edge">
<title>Node78&#45;&gt;Node105</title>
<path fill="none" stroke="#191970" d="M1410.3104,-344.1464C1265.1861,-338.2946 826.7805,-319.4469 685.5,-300 682.4234,-299.5765 679.2466,-299.0584 676.0672,-298.4831"/>
<polygon fill="#191970" stroke="#191970" points="1410.513,-347.6573 1420.6454,-344.5611 1410.7938,-340.6629 1410.513,-347.6573"/>
</g>
<!-- Node35 -->
<g id="node31" class="node">
<title>Node35</title>
<g id="a_node31"><a xlink:href="api_2abi-default_2rwlock__recursive_8h.html" target="_top" xlink:title="ODP recursive read/write lock. ">
<polygon fill="#ffffff" stroke="#ff0000" points="694.5,-280.5 694.5,-299.5 802.5,-299.5 802.5,-280.5 694.5,-280.5"/>
<text text-anchor="middle" x="748.5" y="-287.5" font-family="Helvetica,sans-Serif" font-size="10.00" fill="#000000">rwlock_recursive.h</text>
</a>
</g>
</g>
<!-- Node78&#45;&gt;Node35 -->
<g id="edge35" class="edge">
<title>Node78&#45;&gt;Node35</title>
<path fill="none" stroke="#191970" d="M1410.885,-344.0631C1304.412,-339.337 1035.275,-325.6786 811.5,-300 808.6394,-299.6717 805.7101,-299.307 802.7554,-298.9166"/>
<polygon fill="#191970" stroke="#191970" points="1410.8289,-347.5639 1420.9727,-344.5056 1411.1357,-340.5706 1410.8289,-347.5639"/>
</g>
<!-- Node131 -->
<g id="node32" class="node">
<title>Node131</title>
<g id="a_node32"><a xlink:href="api_2abi-default_2schedule_8h.html" target="_top" xlink:title="ODP schedule. ">
<polygon fill="#ffffff" stroke="#ff0000" points="821,-280.5 821,-299.5 890,-299.5 890,-280.5 821,-280.5"/>
<text text-anchor="middle" x="855.5" y="-287.5" font-family="Helvetica,sans-Serif" font-size="10.00" fill="#000000">schedule.h</text>
</a>
</g>
</g>
<!-- Node78&#45;&gt;Node131 -->
<g id="edge36" class="edge">
<title>Node78&#45;&gt;Node131</title>
<path fill="none" stroke="#191970" d="M1410.4492,-344.365C1314.0778,-340.5234 1087.4757,-328.9606 899.5,-300 896.5579,-299.5467 893.5198,-299.0077 890.4789,-298.4183"/>
<polygon fill="#191970" stroke="#191970" points="1410.6008,-347.8734 1420.7293,-344.765 1410.873,-340.8787 1410.6008,-347.8734"/>
</g>
<!-- Node139 -->
<g id="node33" class="node">
<title>Node139</title>
<g id="a_node33"><a xlink:href="api_2abi-default_2spinlock__recursive_8h.html" target="_top" xlink:title="ODP recursive spinlock. ">
<polygon fill="#ffffff" stroke="#ff0000" points="908.5,-280.5 908.5,-299.5 1024.5,-299.5 1024.5,-280.5 908.5,-280.5"/>
<text text-anchor="middle" x="966.5" y="-287.5" font-family="Helvetica,sans-Serif" font-size="10.00" fill="#000000">spinlock_recursive.h</text>
</a>
</g>
</g>
<!-- Node78&#45;&gt;Node139 -->
<g id="edge37" class="edge">
<title>Node78&#45;&gt;Node139</title>
<path fill="none" stroke="#191970" d="M1410.8513,-341.5564C1332.6901,-333.9727 1170.3718,-317.6318 1033.5,-300 1030.5839,-299.6243 1027.5984,-299.2267 1024.5848,-298.8149"/>
<polygon fill="#191970" stroke="#191970" points="1410.5698,-345.0454 1420.8603,-342.5242 1411.2436,-338.0779 1410.5698,-345.0454"/>
</g>
<!-- Node148 -->
<g id="node34" class="node">
<title>Node148</title>
<g id="a_node34"><a xlink:href="api_2abi-default_2traffic__mngr_8h.html" target="_top" xlink:title="ODP traffic mngr. ">
<polygon fill="#ffffff" stroke="#ff0000" points="1042.5,-280.5 1042.5,-299.5 1126.5,-299.5 1126.5,-280.5 1042.5,-280.5"/>
<text text-anchor="middle" x="1084.5" y="-287.5" font-family="Helvetica,sans-Serif" font-size="10.00" fill="#000000">traffic_mngr.h</text>
</a>
</g>
</g>
<!-- Node78&#45;&gt;Node148 -->
<g id="edge38" class="edge">
<title>Node78&#45;&gt;Node148</title>
<path fill="none" stroke="#191970" d="M1410.7169,-340.0884C1347.9493,-331.9808 1233.0717,-316.5239 1135.5,-300 1132.6532,-299.5179 1129.7213,-299.0001 1126.77,-298.463"/>
<polygon fill="#191970" stroke="#191970" points="1410.3384,-343.5685 1420.7032,-341.3731 1411.2315,-336.6257 1410.3384,-343.5685"/>
</g>
<!-- Node156 -->
<g id="node35" class="node">
<title>Node156</title>
<g id="a_node35"><a xlink:href="api_2buffer_8h.html" target="_top" xlink:title="ODP buffer descriptor. ">
<polygon fill="#ffffff" stroke="#000000" points="2086,-168.5 2086,-187.5 2139,-187.5 2139,-168.5 2086,-168.5"/>
<text text-anchor="middle" x="2112.5" y="-175.5" font-family="Helvetica,sans-Serif" font-size="10.00" fill="#000000">buffer.h</text>
</a>
</g>
</g>
<!-- Node78&#45;&gt;Node156 -->
<g id="edge40" class="edge">
<title>Node78&#45;&gt;Node156</title>
<path fill="none" stroke="#191970" d="M1504.0826,-345.4362C1639.6205,-343.3943 2027.0287,-334.5632 2071.5,-300 2107.4911,-272.0276 2112.1568,-211.165 2112.5672,-187.5937"/>
<polygon fill="#191970" stroke="#191970" points="1503.9609,-341.9375 1494.0128,-345.5823 1504.0625,-348.9368 1503.9609,-341.9375"/>
</g>
<!-- Node113 -->
<g id="node36" class="node">
<title>Node113</title>
<g id="a_node36"><a xlink:href="api_2classification_8h.html" target="_top" xlink:title="ODP classification descriptor. ">
<polygon fill="#ffffff" stroke="#ff0000" points="2157,-168.5 2157,-187.5 2246,-187.5 2246,-168.5 2157,-168.5"/>
<text text-anchor="middle" x="2201.5" y="-175.5" font-family="Helvetica,sans-Serif" font-size="10.00" fill="#000000">classification.h</text>
</a>
</g>
</g>
<!-- Node78&#45;&gt;Node113 -->
<g id="edge42" class="edge">
<title>Node78&#45;&gt;Node113</title>
<path fill="none" stroke="#191970" d="M1504.3227,-344.7311C1642.5471,-340.6926 2042.4359,-326.7995 2094.5,-300 2133.5095,-279.9202 2128.3182,-256.7622 2157.5,-224 2168.9668,-211.1264 2182.7973,-196.8609 2191.8527,-187.6804"/>
<polygon fill="#191970" stroke="#191970" points="1503.9582,-341.2401 1494.0632,-345.0268 1504.1599,-348.2372 1503.9582,-341.2401"/>
</g>
<!-- Node119 -->
<g id="node37" class="node">
<title>Node119</title>
<g id="a_node37"><a xlink:href="api_2crypto_8h.html" target="_top" xlink:title="ODP crypto. ">
<polygon fill="#ffffff" stroke="#ff0000" points="539.5,-224.5 539.5,-243.5 595.5,-243.5 595.5,-224.5 539.5,-224.5"/>
<text text-anchor="middle" x="567.5" y="-231.5" font-family="Helvetica,sans-Serif" font-size="10.00" fill="#000000">crypto.h</text>
</a>
</g>
</g>
<!-- Node78&#45;&gt;Node119 -->
<g id="edge44" class="edge">
<title>Node78&#45;&gt;Node119</title>
<path fill="none" stroke="#191970" d="M1410.7279,-344.9468C1201.556,-340.1283 361.2876,-319.5787 342.5,-300 298.2941,-253.9328 237.6167,-310.4226 529.5,-244 532.6929,-243.2734 536.0243,-242.4677 539.3302,-241.6382"/>
<polygon fill="#191970" stroke="#191970" points="1410.6972,-348.4469 1420.7749,-345.1773 1410.8578,-341.4487 1410.6972,-348.4469"/>
</g>
<!-- Node115 -->
<g id="node38" class="node">
<title>Node115</title>
<g id="a_node38"><a xlink:href="api_2packet_8h.html" target="_top" xlink:title="ODP packet descriptor. ">
<polygon fill="#ffffff" stroke="#ff0000" points="1932,-280.5 1932,-299.5 1991,-299.5 1991,-280.5 1932,-280.5"/>
<text text-anchor="middle" x="1961.5" y="-287.5" font-family="Helvetica,sans-Serif" font-size="10.00" fill="#000000">packet.h</text>
</a>
</g>
</g>
<!-- Node78&#45;&gt;Node115 -->
<g id="edge46" class="edge">
<title>Node78&#45;&gt;Node115</title>
<path fill="none" stroke="#191970" d="M1504.2389,-343.2451C1587.6482,-337.9027 1767.469,-324.4541 1917.5,-300 1922.139,-299.2439 1927.0205,-298.2929 1931.7759,-297.2799"/>
<polygon fill="#191970" stroke="#191970" points="1503.8354,-339.7635 1494.0756,-343.8863 1504.2762,-346.7496 1503.8354,-339.7635"/>
</g>
<!-- Node129 -->
<g id="node39" class="node">
<title>Node129</title>
<g id="a_node39"><a xlink:href="api_2spec_2packet__flags_8h.html" target="_top" xlink:title="ODP packet flags. ">
<polygon fill="#ffffff" stroke="#ff0000" points="1865,-224.5 1865,-243.5 1952,-243.5 1952,-224.5 1865,-224.5"/>
<text text-anchor="middle" x="1908.5" y="-231.5" font-family="Helvetica,sans-Serif" font-size="10.00" fill="#000000">packet_flags.h</text>
</a>
</g>
</g>
<!-- Node78&#45;&gt;Node129 -->
<g id="edge60" class="edge">
<title>Node78&#45;&gt;Node129</title>
<path fill="none" stroke="#191970" d="M1504.4061,-343.5199C1608.042,-337.6673 1849.7287,-321.8294 1879.5,-300 1897.8695,-286.5308 1904.7774,-258.8546 1907.2361,-243.9797"/>
<polygon fill="#191970" stroke="#191970" points="1504.0207,-340.0358 1494.2311,-344.0874 1504.4105,-347.025 1504.0207,-340.0358"/>
</g>
<!-- Node125 -->
<g id="node40" class="node">
<title>Node125</title>
<g id="a_node40"><a xlink:href="api_2packet__io_8h.html" target="_top" xlink:title="ODP Packet IO. ">
<polygon fill="#ffffff" stroke="#ff0000" points="1973,-112.5 1973,-131.5 2046,-131.5 2046,-112.5 1973,-112.5"/>
<text text-anchor="middle" x="2009.5" y="-119.5" font-family="Helvetica,sans-Serif" font-size="10.00" fill="#000000">packet_io.h</text>
</a>
</g>
</g>
<!-- Node78&#45;&gt;Node125 -->
<g id="edge49" class="edge">
<title>Node78&#45;&gt;Node125</title>
<path fill="none" stroke="#191970" d="M1504.0798,-345.4664C1629.1675,-343.5654 1965.2912,-335.1996 1999.5,-300 2045.2314,-252.9441 2022.0781,-161.7537 2012.7682,-131.7971"/>
<polygon fill="#191970" stroke="#191970" points="1503.9902,-341.9673 1494.042,-345.6119 1504.0917,-348.9665 1503.9902,-341.9673"/>
</g>
<!-- Node123 -->
<g id="node41" class="node">
<title>Node123</title>
<g id="a_node41"><a xlink:href="api_2queue_8h.html" target="_top" xlink:title="ODP queue. ">
<polygon fill="#ffffff" stroke="#ff0000" points="1743.5,-280.5 1743.5,-299.5 1799.5,-299.5 1799.5,-280.5 1743.5,-280.5"/>
<text text-anchor="middle" x="1771.5" y="-287.5" font-family="Helvetica,sans-Serif" font-size="10.00" fill="#000000">queue.h</text>
</a>
</g>
</g>
<!-- Node78&#45;&gt;Node123 -->
<g id="edge51" class="edge">
<title>Node78&#45;&gt;Node123</title>
<path fill="none" stroke="#191970" d="M1504.2001,-339.6913C1559.4792,-331.8906 1654.1737,-317.4793 1734.5,-300 1737.3608,-299.3775 1740.3313,-298.6735 1743.2892,-297.9345"/>
<polygon fill="#191970" stroke="#191970" points="1503.436,-336.2641 1494.0176,-341.1163 1504.4062,-343.1965 1503.436,-336.2641"/>
</g>
<!-- Node71 -->
<g id="node42" class="node">
<title>Node71</title>
<g id="a_node42"><a xlink:href="api_2spec_2schedule_8h.html" target="_top" xlink:title="ODP schedule. ">
<polygon fill="#ffffff" stroke="#ff0000" points="1739,-224.5 1739,-243.5 1808,-243.5 1808,-224.5 1739,-224.5"/>
<text text-anchor="middle" x="1773.5" y="-231.5" font-family="Helvetica,sans-Serif" font-size="10.00" fill="#000000">schedule.h</text>
</a>
</g>
</g>
<!-- Node78&#45;&gt;Node71 -->
<g id="edge62" class="edge">
<title>Node78&#45;&gt;Node71</title>
<path fill="none" stroke="#191970" d="M1504.1076,-343.2655C1594.9784,-337.4567 1788.7158,-322.5462 1808.5,-300 1823.8125,-282.5498 1800.5997,-257.2348 1785.2504,-243.5849"/>
<polygon fill="#191970" stroke="#191970" points="1503.836,-339.7755 1494.0755,-343.8964 1504.2755,-346.7617 1503.836,-339.7755"/>
</g>
<!-- Node157 -->
<g id="node43" class="node">
<title>Node157</title>
<g id="a_node43"><a xlink:href="spec_2chksum_8h.html" target="_top" xlink:title="ODP checksum functions. ">
<polygon fill="#ffffff" stroke="#ff0000" points="1144.5,-280.5 1144.5,-299.5 1208.5,-299.5 1208.5,-280.5 1144.5,-280.5"/>
<text text-anchor="middle" x="1176.5" y="-287.5" font-family="Helvetica,sans-Serif" font-size="10.00" fill="#000000">chksum.h</text>
</a>
</g>
</g>
<!-- Node78&#45;&gt;Node157 -->
<g id="edge55" class="edge">
<title>Node78&#45;&gt;Node157</title>
<path fill="none" stroke="#191970" d="M1410.9128,-337.7816C1362.4547,-329.0669 1284.4541,-314.5721 1217.5,-300 1214.6364,-299.3767 1211.6666,-298.7041 1208.6939,-298.0128"/>
<polygon fill="#191970" stroke="#191970" points="1410.3296,-341.2328 1420.7902,-339.5514 1411.5643,-334.3425 1410.3296,-341.2328"/>
</g>
<!-- Node159 -->
<g id="node44" class="node">
<title>Node159</title>
<g id="a_node44"><a xlink:href="api_2spec_2cpu_8h.html" target="_top" xlink:title="ODP CPU API. ">
<polygon fill="#ffffff" stroke="#ff0000" points="1227,-280.5 1227,-299.5 1270,-299.5 1270,-280.5 1227,-280.5"/>
<text text-anchor="middle" x="1248.5" y="-287.5" font-family="Helvetica,sans-Serif" font-size="10.00" fill="#000000">cpu.h</text>
</a>
</g>
</g>
<!-- Node78&#45;&gt;Node159 -->
<g id="edge56" class="edge">
<title>Node78&#45;&gt;Node159</title>
<path fill="none" stroke="#191970" d="M1411.1469,-335.0354C1374.8643,-326.225 1323.23,-313.1847 1278.5,-300 1275.7616,-299.1928 1272.898,-298.301 1270.0728,-297.3922"/>
<polygon fill="#191970" stroke="#191970" points="1410.4126,-338.4586 1420.9549,-337.4048 1412.0564,-331.6543 1410.4126,-338.4586"/>
</g>
<!-- Node161 -->
<g id="node45" class="node">
<title>Node161</title>
<g id="a_node45"><a xlink:href="spec_2feature_8h.html" target="_top" xlink:title="ODP features. ">
<polygon fill="#ffffff" stroke="#ff0000" points="1288,-280.5 1288,-299.5 1349,-299.5 1349,-280.5 1288,-280.5"/>
<text text-anchor="middle" x="1318.5" y="-287.5" font-family="Helvetica,sans-Serif" font-size="10.00" fill="#000000">feature.h</text>
</a>
</g>
</g>
<!-- Node78&#45;&gt;Node161 -->
<g id="edge57" class="edge">
<title>Node78&#45;&gt;Node161</title>
<path fill="none" stroke="#191970" d="M1424.0379,-332.5189C1398.7231,-322.3201 1364.5897,-308.5685 1342.0831,-299.5011"/>
<polygon fill="#191970" stroke="#191970" points="1423.0216,-335.8827 1433.605,-336.3733 1425.6374,-329.3899 1423.0216,-335.8827"/>
</g>
<!-- Node163 -->
<g id="node46" class="node">
<title>Node163</title>
<g id="a_node46"><a xlink:href="api_2spec_2hash_8h.html" target="_top" xlink:title="ODP Hash functions. ">
<polygon fill="#ffffff" stroke="#ff0000" points="1367,-280.5 1367,-299.5 1416,-299.5 1416,-280.5 1367,-280.5"/>
<text text-anchor="middle" x="1391.5" y="-287.5" font-family="Helvetica,sans-Serif" font-size="10.00" fill="#000000">hash.h</text>
</a>
</g>
</g>
<!-- Node78&#45;&gt;Node163 -->
<g id="edge58" class="edge">
<title>Node78&#45;&gt;Node163</title>
<path fill="none" stroke="#191970" d="M1438.2245,-329.645C1426.7462,-319.9058 1412.5723,-307.8795 1402.8646,-299.6427"/>
<polygon fill="#191970" stroke="#191970" points="1436.1141,-332.4445 1446.0037,-336.2455 1440.643,-327.1069 1436.1141,-332.4445"/>
</g>
<!-- Node165 -->
<g id="node47" class="node">
<title>Node165</title>
<g id="a_node47"><a xlink:href="api_2spec_2pool_8h.html" target="_top" xlink:title="ODP pool. ">
<polygon fill="#ffffff" stroke="#ff0000" points="1434,-280.5 1434,-299.5 1481,-299.5 1481,-280.5 1434,-280.5"/>
<text text-anchor="middle" x="1457.5" y="-287.5" font-family="Helvetica,sans-Serif" font-size="10.00" fill="#000000">pool.h</text>
</a>
</g>
</g>
<!-- Node78&#45;&gt;Node165 -->
<g id="edge61" class="edge">
<title>Node78&#45;&gt;Node165</title>
<path fill="none" stroke="#191970" d="M1457.5,-326.1575C1457.5,-317.155 1457.5,-306.9199 1457.5,-299.6427"/>
<polygon fill="#191970" stroke="#191970" points="1454.0001,-326.2455 1457.5,-336.2455 1461.0001,-326.2456 1454.0001,-326.2455"/>
</g>
<!-- Node167 -->
<g id="node48" class="node">
<title>Node167</title>
<g id="a_node48"><a xlink:href="api_2spec_2stash_8h.html" target="_top" xlink:title="ODP stash. ">
<polygon fill="#ffffff" stroke="#ff0000" points="1499.5,-280.5 1499.5,-299.5 1551.5,-299.5 1551.5,-280.5 1499.5,-280.5"/>
<text text-anchor="middle" x="1525.5" y="-287.5" font-family="Helvetica,sans-Serif" font-size="10.00" fill="#000000">stash.h</text>
</a>
</g>
</g>
<!-- Node78&#45;&gt;Node167 -->
<g id="edge63" class="edge">
<title>Node78&#45;&gt;Node167</title>
<path fill="none" stroke="#191970" d="M1477.3596,-329.645C1489.1858,-319.9058 1503.7892,-307.8795 1513.791,-299.6427"/>
<polygon fill="#191970" stroke="#191970" points="1474.839,-327.1867 1469.3447,-336.2455 1479.289,-332.5902 1474.839,-327.1867"/>
</g>
<!-- Node169 -->
<g id="node49" class="node">
<title>Node169</title>
<g id="a_node49"><a xlink:href="spec_2threshold_8h.html" target="_top" xlink:title="ODP threshold descriptor. ">
<polygon fill="#ffffff" stroke="#ff0000" points="1570,-280.5 1570,-299.5 1641,-299.5 1641,-280.5 1570,-280.5"/>
<text text-anchor="middle" x="1605.5" y="-287.5" font-family="Helvetica,sans-Serif" font-size="10.00" fill="#000000">threshold.h</text>
</a>
</g>
</g>
<!-- Node78&#45;&gt;Node169 -->
<g id="edge64" class="edge">
<title>Node78&#45;&gt;Node169</title>
<path fill="none" stroke="#191970" d="M1492.4153,-332.7888C1519.4383,-322.5639 1556.214,-308.6488 1580.3899,-299.5011"/>
<polygon fill="#191970" stroke="#191970" points="1491.0563,-329.5608 1482.9421,-336.3733 1493.5336,-336.1078 1491.0563,-329.5608"/>
</g>
<!-- Node171 -->
<g id="node50" class="node">
<title>Node171</title>
<g id="a_node50"><a xlink:href="api_2spec_2thrmask_8h.html" target="_top" xlink:title="ODP thread masks. ">
<polygon fill="#ffffff" stroke="#ff0000" points="1659.5,-280.5 1659.5,-299.5 1725.5,-299.5 1725.5,-280.5 1659.5,-280.5"/>
<text text-anchor="middle" x="1692.5" y="-287.5" font-family="Helvetica,sans-Serif" font-size="10.00" fill="#000000">thrmask.h</text>
</a>
</g>
</g>
<!-- Node78&#45;&gt;Node171 -->
<g id="edge65" class="edge">
<title>Node78&#45;&gt;Node171</title>
<path fill="none" stroke="#191970" d="M1504.2149,-334.8679C1550.1068,-323.932 1618.964,-307.5235 1659.4528,-297.8751"/>
<polygon fill="#191970" stroke="#191970" points="1503.135,-331.5272 1494.2188,-337.25 1504.7577,-338.3365 1503.135,-331.5272"/>
</g>
<!-- Node156&#45;&gt;Node24 -->
<g id="edge41" class="edge">
<title>Node156&#45;&gt;Node24</title>
<path fill="none" stroke="#191970" d="M2109.0679,-158.3051C2105.775,-144.1469 2099.6047,-125.2877 2088.5,-112 2074.4552,-95.1942 2052.5959,-83.1401 2035.4285,-75.5983"/>
<polygon fill="#191970" stroke="#191970" points="2105.7093,-159.3533 2111.1313,-168.4556 2112.569,-157.9588 2105.7093,-159.3533"/>
</g>
<!-- Node113&#45;&gt;Node24 -->
<g id="edge43" class="edge">
<title>Node113&#45;&gt;Node24</title>
<path fill="none" stroke="#191970" d="M2181.1603,-161.9234C2162.7869,-147.8063 2134.6904,-127.2078 2108.5,-112 2083.7517,-97.6296 2053.755,-84.2077 2033.3117,-75.615"/>
<polygon fill="#191970" stroke="#191970" points="2179.3029,-164.9124 2189.348,-168.2809 2183.596,-159.3834 2179.3029,-164.9124"/>
</g>
<!-- Node119&#45;&gt;Node24 -->
<g id="edge45" class="edge">
<title>Node119&#45;&gt;Node24</title>
<path fill="none" stroke="#191970" d="M565.7795,-214.191C565.3077,-200.7567 566.0578,-182.8162 571.5,-168 582.2268,-138.7966 585.9063,-126.3697 613.5,-112 675.9394,-79.484 1774.0773,-68.106 1977.2959,-66.2747"/>
<polygon fill="#191970" stroke="#191970" points="562.2903,-214.4777 566.3869,-224.2485 569.2776,-214.0556 562.2903,-214.4777"/>
</g>
<!-- Node115&#45;&gt;Node24 -->
<g id="edge48" class="edge">
<title>Node115&#45;&gt;Node24</title>
<path fill="none" stroke="#191970" d="M1961.3226,-270.1835C1960.9752,-225.2941 1960.4813,-119.1734 1963.5,-112 1969.8957,-96.8015 1983.9581,-83.977 1994.8621,-75.7621"/>
<polygon fill="#191970" stroke="#191970" points="1957.8245,-270.4381 1961.4076,-280.4086 1964.8243,-270.3798 1957.8245,-270.4381"/>
</g>
<!-- Node115&#45;&gt;Node129 -->
<g id="edge47" class="edge">
<title>Node115&#45;&gt;Node129</title>
<path fill="none" stroke="#191970" d="M1945.2104,-272.7884C1936.1438,-263.2085 1925.1946,-251.6396 1917.6261,-243.6427"/>
<polygon fill="#191970" stroke="#191970" points="1942.8522,-275.3884 1952.2681,-280.2455 1947.9363,-270.5767 1942.8522,-275.3884"/>
</g>
<!-- Node125&#45;&gt;Node24 -->
<g id="edge50" class="edge">
<title>Node125&#45;&gt;Node24</title>
<path fill="none" stroke="#191970" d="M2009.5,-102.1575C2009.5,-93.155 2009.5,-82.9199 2009.5,-75.6427"/>
<polygon fill="#191970" stroke="#191970" points="2006.0001,-102.2455 2009.5,-112.2455 2013.0001,-102.2456 2006.0001,-102.2455"/>
</g>
<!-- Node123&#45;&gt;Node24 -->
<g id="edge54" class="edge">
<title>Node123&#45;&gt;Node24</title>
<path fill="none" stroke="#191970" d="M1750.7749,-273.4619C1742.4902,-265.537 1733.8858,-255.308 1729.5,-244 1712.3711,-199.836 1713.3213,-157.5023 1764.5,-112 1795.5494,-84.3944 1917.8372,-72.3222 1977.0405,-68.0114"/>
<polygon fill="#191970" stroke="#191970" points="1748.6756,-276.279 1758.472,-280.3141 1753.3301,-271.0506 1748.6756,-276.279"/>
</g>
<!-- Node123&#45;&gt;Node119 -->
<g id="edge52" class="edge">
<title>Node123&#45;&gt;Node119</title>
<path fill="none" stroke="#191970" d="M1733.285,-280.2004C1484.2445,-244.6345 748.5088,-235.7512 595.5376,-234.2515"/>
<polygon fill="#191970" stroke="#191970" points="1732.9523,-283.6893 1743.3577,-281.6948 1733.9797,-276.7651 1732.9523,-283.6893"/>
</g>
<!-- Node123&#45;&gt;Node71 -->
<g id="edge53" class="edge">
<title>Node123&#45;&gt;Node71</title>
<path fill="none" stroke="#191970" d="M1772.2087,-270.1575C1772.5302,-261.155 1772.8957,-250.9199 1773.1556,-243.6427"/>
<polygon fill="#191970" stroke="#191970" points="1768.7076,-270.127 1771.8484,-280.2455 1775.7032,-270.3769 1768.7076,-270.127"/>
</g>
</g>
</svg>
