<?xml version="1.0" encoding="UTF-8" standalone="no"?>
<!DOCTYPE svg PUBLIC "-//W3C//DTD SVG 1.1//EN"
 "http://www.w3.org/Graphics/SVG/1.1/DTD/svg11.dtd">
<!-- Generated by graphviz version 2.40.1 (20161225.0304)
 -->
<!-- Title: time.h Pages: 1 -->
<svg width="744pt" height="868pt"
 viewBox="0.00 0.00 743.50 868.00" xmlns="http://www.w3.org/2000/svg" xmlns:xlink="http://www.w3.org/1999/xlink">
<g id="graph0" class="graph" transform="scale(1 1) rotate(0) translate(4 864)">
<title>time.h</title>
<polygon fill="#ffffff" stroke="transparent" points="-4,4 -4,-864 739.5,-864 739.5,4 -4,4"/>
<!-- Node3 -->
<g id="node1" class="node">
<title>Node3</title>
<polygon fill="#bfbfbf" stroke="#000000" points="14,-840.5 14,-859.5 62,-859.5 62,-840.5 14,-840.5"/>
<text text-anchor="middle" x="38" y="-847.5" font-family="Helvetica,sans-Serif" font-size="10.00" fill="#000000">time.h</text>
</g>
<!-- Node4 -->
<g id="node2" class="node">
<title>Node4</title>
<g id="a_node2"><a xlink:href="api_2time_8h.html" target="_top" xlink:title="ODP time. ">
<polygon fill="#ffffff" stroke="#000000" points="14,-784.5 14,-803.5 62,-803.5 62,-784.5 14,-784.5"/>
<text text-anchor="middle" x="38" y="-791.5" font-family="Helvetica,sans-Serif" font-size="10.00" fill="#000000">time.h</text>
</a>
</g>
</g>
<!-- Node3&#45;&gt;Node4 -->
<g id="edge1" class="edge">
<title>Node3&#45;&gt;Node4</title>
<path fill="none" stroke="#191970" d="M38,-830.1575C38,-821.155 38,-810.9199 38,-803.6427"/>
<polygon fill="#191970" stroke="#191970" points="34.5001,-830.2455 38,-840.2455 41.5001,-830.2456 34.5001,-830.2455"/>
</g>
<!-- Node5 -->
<g id="node3" class="node">
<title>Node5</title>
<g id="a_node3"><a xlink:href="api_2spec_2packet_8h.html" target="_top" xlink:title="ODP packet descriptor. ">
<polygon fill="#ffffff" stroke="#000000" points="189.5,-728.5 189.5,-747.5 248.5,-747.5 248.5,-728.5 189.5,-728.5"/>
<text text-anchor="middle" x="219" y="-735.5" font-family="Helvetica,sans-Serif" font-size="10.00" fill="#000000">packet.h</text>
</a>
</g>
</g>
<!-- Node4&#45;&gt;Node5 -->
<g id="edge2" class="edge">
<title>Node4&#45;&gt;Node5</title>
<path fill="none" stroke="#191970" d="M71.9324,-783.5016C105.7772,-773.0303 157.2421,-757.1074 189.4548,-747.141"/>
<polygon fill="#191970" stroke="#191970" points="70.5541,-780.2642 62.0354,-786.5636 72.6231,-786.9515 70.5541,-780.2642"/>
</g>
<!-- Node9 -->
<g id="node7" class="node">
<title>Node9</title>
<g id="a_node7"><a xlink:href="odp__api_8h.html" target="_top" xlink:title="The OpenDataPlane API. ">
<polygon fill="#ffffff" stroke="#000000" points="353,-56.5 353,-75.5 417,-75.5 417,-56.5 353,-56.5"/>
<text text-anchor="middle" x="385" y="-63.5" font-family="Helvetica,sans-Serif" font-size="10.00" fill="#000000">odp_api.h</text>
</a>
</g>
</g>
<!-- Node4&#45;&gt;Node9 -->
<g id="edge43" class="edge">
<title>Node4&#45;&gt;Node9</title>
<path fill="none" stroke="#191970" d="M27.511,-775.4209C16.2634,-753.7168 0,-716.3882 0,-682 0,-682 0,-682 0,-178 0,-130.1711 41.0628,-130.8977 85,-112 132.8601,-91.415 285.7889,-75.1842 352.9055,-68.8637"/>
<polygon fill="#191970" stroke="#191970" points="24.569,-777.3395 32.393,-784.4834 30.7317,-774.0196 24.569,-777.3395"/>
</g>
<!-- Node19 -->
<g id="node17" class="node">
<title>Node19</title>
<g id="a_node17"><a xlink:href="api_2spec_2packet__io_8h.html" target="_top" xlink:title="ODP Packet IO. ">
<polygon fill="#ffffff" stroke="#000000" points="243.5,-392.5 243.5,-411.5 316.5,-411.5 316.5,-392.5 243.5,-392.5"/>
<text text-anchor="middle" x="280" y="-399.5" font-family="Helvetica,sans-Serif" font-size="10.00" fill="#000000">packet_io.h</text>
</a>
</g>
</g>
<!-- Node4&#45;&gt;Node19 -->
<g id="edge42" class="edge">
<title>Node4&#45;&gt;Node19</title>
<path fill="none" stroke="#191970" d="M38,-774.1952C38,-751.8128 38,-714.2884 38,-682 38,-682 38,-682 38,-514 38,-469.3251 175.5467,-428.3536 243.2454,-410.8936"/>
<polygon fill="#191970" stroke="#191970" points="34.5001,-774.4116 38,-784.4116 41.5001,-774.4117 34.5001,-774.4116"/>
</g>
<!-- Node6 -->
<g id="node4" class="node">
<title>Node6</title>
<g id="a_node4"><a xlink:href="api_2packet_8h.html" target="_top" xlink:title="ODP packet descriptor. ">
<polygon fill="#ffffff" stroke="#000000" points="332.5,-672.5 332.5,-691.5 391.5,-691.5 391.5,-672.5 332.5,-672.5"/>
<text text-anchor="middle" x="362" y="-679.5" font-family="Helvetica,sans-Serif" font-size="10.00" fill="#000000">packet.h</text>
</a>
</g>
</g>
<!-- Node5&#45;&gt;Node6 -->
<g id="edge3" class="edge">
<title>Node5&#45;&gt;Node6</title>
<path fill="none" stroke="#191970" d="M253.0798,-724.6541C279.1573,-714.4419 314.4815,-700.6086 337.7382,-691.5011"/>
<polygon fill="#191970" stroke="#191970" points="251.6178,-721.4677 243.5826,-728.3733 254.1703,-727.9858 251.6178,-721.4677"/>
</g>
<!-- Node7 -->
<g id="node5" class="node">
<title>Node7</title>
<g id="a_node5"><a xlink:href="api_2spec_2comp_8h.html" target="_top" xlink:title="ODP Compression. ">
<polygon fill="#ffffff" stroke="#000000" points="172.5,-616.5 172.5,-635.5 225.5,-635.5 225.5,-616.5 172.5,-616.5"/>
<text text-anchor="middle" x="199" y="-623.5" font-family="Helvetica,sans-Serif" font-size="10.00" fill="#000000">comp.h</text>
</a>
</g>
</g>
<!-- Node6&#45;&gt;Node7 -->
<g id="edge4" class="edge">
<title>Node6&#45;&gt;Node7</title>
<path fill="none" stroke="#191970" d="M324.204,-669.0149C293.9806,-658.6314 252.3707,-644.336 225.5757,-635.1303"/>
<polygon fill="#191970" stroke="#191970" points="323.3846,-672.4341 333.9793,-672.3733 325.6591,-665.8139 323.3846,-672.4341"/>
</g>
<!-- Node6&#45;&gt;Node9 -->
<g id="edge41" class="edge">
<title>Node6&#45;&gt;Node9</title>
<path fill="none" stroke="#191970" d="M401.7118,-673.4288C474.0708,-656.6573 620,-617.0066 620,-570 620,-570 620,-570 620,-178 620,-133.5956 481.5436,-91.3712 417.183,-74.1421"/>
<polygon fill="#191970" stroke="#191970" points="400.5675,-670.0998 391.5959,-675.7354 402.1238,-676.9246 400.5675,-670.0998"/>
</g>
<!-- Node11 -->
<g id="node9" class="node">
<title>Node11</title>
<g id="a_node9"><a xlink:href="api_2spec_2crypto_8h.html" target="_top" xlink:title="ODP crypto. ">
<polygon fill="#ffffff" stroke="#000000" points="334,-448.5 334,-467.5 390,-467.5 390,-448.5 334,-448.5"/>
<text text-anchor="middle" x="362" y="-455.5" font-family="Helvetica,sans-Serif" font-size="10.00" fill="#000000">crypto.h</text>
</a>
</g>
</g>
<!-- Node6&#45;&gt;Node11 -->
<g id="edge8" class="edge">
<title>Node6&#45;&gt;Node11</title>
<path fill="none" stroke="#191970" d="M362,-662.1177C362,-615.6713 362,-501.4223 362,-467.5891"/>
<polygon fill="#191970" stroke="#191970" points="358.5001,-662.375 362,-672.375 365.5001,-662.375 358.5001,-662.375"/>
</g>
<!-- Node15 -->
<g id="node13" class="node">
<title>Node15</title>
<g id="a_node13"><a xlink:href="api_2spec_2event_8h.html" target="_top" xlink:title="ODP event. ">
<polygon fill="#ffffff" stroke="#000000" points="405.5,-616.5 405.5,-635.5 458.5,-635.5 458.5,-616.5 405.5,-616.5"/>
<text text-anchor="middle" x="432" y="-623.5" font-family="Helvetica,sans-Serif" font-size="10.00" fill="#000000">event.h</text>
</a>
</g>
</g>
<!-- Node6&#45;&gt;Node15 -->
<g id="edge14" class="edge">
<title>Node6&#45;&gt;Node15</title>
<path fill="none" stroke="#191970" d="M382.09,-665.928C394.3253,-656.1397 409.5507,-643.9595 419.9467,-635.6427"/>
<polygon fill="#191970" stroke="#191970" points="379.8153,-663.2655 374.1931,-672.2455 384.1882,-668.7316 379.8153,-663.2655"/>
</g>
<!-- Node6&#45;&gt;Node19 -->
<g id="edge40" class="edge">
<title>Node6&#45;&gt;Node19</title>
<path fill="none" stroke="#191970" d="M342.2361,-665.3895C320.6171,-645.2465 289,-609.1035 289,-570 289,-570 289,-570 289,-514 289,-475.9611 283.7781,-430.888 281.2895,-411.5676"/>
<polygon fill="#191970" stroke="#191970" points="340.1627,-668.2312 349.9455,-672.2989 344.8346,-663.0183 340.1627,-668.2312"/>
</g>
<!-- Node27 -->
<g id="node25" class="node">
<title>Node27</title>
<g id="a_node25"><a xlink:href="api_2spec_2packet__flags_8h.html" target="_top" xlink:title="ODP packet flags. ">
<polygon fill="#ffffff" stroke="#000000" points="648.5,-560.5 648.5,-579.5 735.5,-579.5 735.5,-560.5 648.5,-560.5"/>
<text text-anchor="middle" x="692" y="-567.5" font-family="Helvetica,sans-Serif" font-size="10.00" fill="#000000">packet_flags.h</text>
</a>
</g>
</g>
<!-- Node6&#45;&gt;Node27 -->
<g id="edge37" class="edge">
<title>Node6&#45;&gt;Node27</title>
<path fill="none" stroke="#191970" d="M401.6097,-678.576C467.1417,-672.3741 594.7914,-657.8637 634,-636 658.2474,-622.479 677.3331,-594.8247 686.341,-579.9668"/>
<polygon fill="#191970" stroke="#191970" points="401.2826,-675.0913 391.6486,-679.4999 401.9291,-682.0613 401.2826,-675.0913"/>
</g>
<!-- Node8 -->
<g id="node6" class="node">
<title>Node8</title>
<g id="a_node6"><a xlink:href="api_2comp_8h.html" target="_top" xlink:title="ODP crypto. ">
<polygon fill="#ffffff" stroke="#000000" points="138.5,-504.5 138.5,-523.5 191.5,-523.5 191.5,-504.5 138.5,-504.5"/>
<text text-anchor="middle" x="165" y="-511.5" font-family="Helvetica,sans-Serif" font-size="10.00" fill="#000000">comp.h</text>
</a>
</g>
</g>
<!-- Node7&#45;&gt;Node8 -->
<g id="edge5" class="edge">
<title>Node7&#45;&gt;Node8</title>
<path fill="none" stroke="#191970" d="M193.1103,-606.5987C185.753,-582.363 173.456,-541.8551 167.8915,-523.5249"/>
<polygon fill="#191970" stroke="#191970" points="189.8472,-607.8988 196.1012,-616.4509 196.5454,-605.8654 189.8472,-607.8988"/>
</g>
<!-- Node8&#45;&gt;Node9 -->
<g id="edge6" class="edge">
<title>Node8&#45;&gt;Node9</title>
<path fill="none" stroke="#191970" d="M152.6809,-496.0354C124.3535,-452.9206 57,-339.3322 57,-234 57,-234 57,-234 57,-178 57,-130.87 97.1349,-131.5912 140,-112 177.5904,-94.8196 295.4696,-77.6694 352.9067,-70.0679"/>
<polygon fill="#191970" stroke="#191970" points="149.7766,-497.9887 158.2441,-504.3567 155.5959,-494.0982 149.7766,-497.9887"/>
</g>
<!-- Node10 -->
<g id="node8" class="node">
<title>Node10</title>
<g id="a_node8"><a xlink:href="odp_8h.html" target="_top" xlink:title="WARNING: THIS FILE IS DEPRECATED AND WILL BE REMOVED!!! ODP APPLICATIONS SHOULD NOW INCLUDE odp_api...">
<polygon fill="#ffffff" stroke="#000000" points="363,-.5 363,-19.5 407,-19.5 407,-.5 363,-.5"/>
<text text-anchor="middle" x="385" y="-7.5" font-family="Helvetica,sans-Serif" font-size="10.00" fill="#000000">odp.h</text>
</a>
</g>
</g>
<!-- Node9&#45;&gt;Node10 -->
<g id="edge7" class="edge">
<title>Node9&#45;&gt;Node10</title>
<path fill="none" stroke="#191970" d="M385,-46.1575C385,-37.155 385,-26.9199 385,-19.6427"/>
<polygon fill="#191970" stroke="#191970" points="381.5001,-46.2455 385,-56.2455 388.5001,-46.2456 381.5001,-46.2455"/>
</g>
<!-- Node12 -->
<g id="node10" class="node">
<title>Node12</title>
<g id="a_node10"><a xlink:href="api_2crypto_8h.html" target="_top" xlink:title="ODP crypto. ">
<polygon fill="#ffffff" stroke="#000000" points="357,-336.5 357,-355.5 413,-355.5 413,-336.5 357,-336.5"/>
<text text-anchor="middle" x="385" y="-343.5" font-family="Helvetica,sans-Serif" font-size="10.00" fill="#000000">crypto.h</text>
</a>
</g>
</g>
<!-- Node11&#45;&gt;Node12 -->
<g id="edge9" class="edge">
<title>Node11&#45;&gt;Node12</title>
<path fill="none" stroke="#191970" d="M365.9842,-438.5987C370.9612,-414.363 379.2798,-373.8551 383.044,-355.5249"/>
<polygon fill="#191970" stroke="#191970" points="362.5442,-437.9513 363.961,-448.4509 369.4011,-439.3594 362.5442,-437.9513"/>
</g>
<!-- Node12&#45;&gt;Node9 -->
<g id="edge13" class="edge">
<title>Node12&#45;&gt;Node9</title>
<path fill="none" stroke="#191970" d="M394.1089,-327.2634C403.8765,-305.4131 418,-267.949 418,-234 418,-234 418,-234 418,-178 418,-138.6744 399.0488,-94.6323 389.8693,-75.6061"/>
<polygon fill="#191970" stroke="#191970" points="390.9063,-325.8499 389.8693,-336.3939 397.2552,-328.798 390.9063,-325.8499"/>
</g>
<!-- Node13 -->
<g id="node11" class="node">
<title>Node13</title>
<g id="a_node11"><a xlink:href="api_2spec_2ipsec_8h.html" target="_top" xlink:title="ODP IPSEC API. ">
<polygon fill="#ffffff" stroke="#000000" points="316.5,-168.5 316.5,-187.5 367.5,-187.5 367.5,-168.5 316.5,-168.5"/>
<text text-anchor="middle" x="342" y="-175.5" font-family="Helvetica,sans-Serif" font-size="10.00" fill="#000000">ipsec.h</text>
</a>
</g>
</g>
<!-- Node12&#45;&gt;Node13 -->
<g id="edge10" class="edge">
<title>Node12&#45;&gt;Node13</title>
<path fill="none" stroke="#191970" d="M380.7429,-326.4368C375.392,-302.2619 365.725,-259.9194 356,-224 352.5967,-211.43 348.1425,-197.0982 345.1819,-187.8194"/>
<polygon fill="#191970" stroke="#191970" points="377.38,-327.4414 382.9435,-336.4579 384.2171,-325.9399 377.38,-327.4414"/>
</g>
<!-- Node14 -->
<g id="node12" class="node">
<title>Node14</title>
<g id="a_node12"><a xlink:href="api_2ipsec_8h.html" target="_top" xlink:title="ODP IPSEC API &#45; platform specific header. ">
<polygon fill="#ffffff" stroke="#000000" points="327.5,-112.5 327.5,-131.5 378.5,-131.5 378.5,-112.5 327.5,-112.5"/>
<text text-anchor="middle" x="353" y="-119.5" font-family="Helvetica,sans-Serif" font-size="10.00" fill="#000000">ipsec.h</text>
</a>
</g>
</g>
<!-- Node13&#45;&gt;Node14 -->
<g id="edge11" class="edge">
<title>Node13&#45;&gt;Node14</title>
<path fill="none" stroke="#191970" d="M345.8976,-158.1575C347.666,-149.155 349.6765,-138.9199 351.1059,-131.6427"/>
<polygon fill="#191970" stroke="#191970" points="342.4092,-157.7584 343.9161,-168.2455 349.278,-159.1077 342.4092,-157.7584"/>
</g>
<!-- Node14&#45;&gt;Node9 -->
<g id="edge12" class="edge">
<title>Node14&#45;&gt;Node9</title>
<path fill="none" stroke="#191970" d="M363.6645,-103.3372C368.9654,-94.0605 375.1487,-83.2398 379.4899,-75.6427"/>
<polygon fill="#191970" stroke="#191970" points="360.4966,-101.8266 358.574,-112.2455 366.5743,-105.2996 360.4966,-101.8266"/>
</g>
<!-- Node16 -->
<g id="node14" class="node">
<title>Node16</title>
<g id="a_node14"><a xlink:href="api_2event_8h.html" target="_top" xlink:title="ODP event. ">
<polygon fill="#ffffff" stroke="#000000" points="419.5,-560.5 419.5,-579.5 472.5,-579.5 472.5,-560.5 419.5,-560.5"/>
<text text-anchor="middle" x="446" y="-567.5" font-family="Helvetica,sans-Serif" font-size="10.00" fill="#000000">event.h</text>
</a>
</g>
</g>
<!-- Node15&#45;&gt;Node16 -->
<g id="edge15" class="edge">
<title>Node15&#45;&gt;Node16</title>
<path fill="none" stroke="#191970" d="M436.8865,-606.4538C439.1549,-597.3803 441.75,-586.9998 443.5893,-579.6427"/>
<polygon fill="#191970" stroke="#191970" points="433.4685,-605.6952 434.4386,-616.2455 440.2595,-607.393 433.4685,-605.6952"/>
</g>
<!-- Node16&#45;&gt;Node9 -->
<g id="edge36" class="edge">
<title>Node16&#45;&gt;Node9</title>
<path fill="none" stroke="#191970" d="M441.268,-550.2549C439.5579,-542.1687 437.8418,-532.6868 437,-524 433.7419,-490.3797 435.5049,-481.7447 437,-448 441.2264,-352.6083 456,-329.4852 456,-234 456,-234 456,-234 456,-178 456,-134.2576 416.8902,-93.751 396.7242,-75.7722"/>
<polygon fill="#191970" stroke="#191970" points="437.899,-551.2257 443.5135,-560.2105 444.7274,-549.6854 437.899,-551.2257"/>
</g>
<!-- Node17 -->
<g id="node15" class="node">
<title>Node17</title>
<g id="a_node15"><a xlink:href="api_2spec_2queue_8h.html" target="_top" xlink:title="ODP queue. ">
<polygon fill="#ffffff" stroke="#000000" points="446,-504.5 446,-523.5 502,-523.5 502,-504.5 446,-504.5"/>
<text text-anchor="middle" x="474" y="-511.5" font-family="Helvetica,sans-Serif" font-size="10.00" fill="#000000">queue.h</text>
</a>
</g>
</g>
<!-- Node16&#45;&gt;Node17 -->
<g id="edge16" class="edge">
<title>Node16&#45;&gt;Node17</title>
<path fill="none" stroke="#191970" d="M455.4781,-551.0437C460.0835,-541.8331 465.4201,-531.1598 469.1787,-523.6427"/>
<polygon fill="#191970" stroke="#191970" points="452.2189,-549.736 450.8772,-560.2455 458.4799,-552.8665 452.2189,-549.736"/>
</g>
<!-- Node25 -->
<g id="node23" class="node">
<title>Node25</title>
<g id="a_node23"><a xlink:href="api_2spec_2schedule_8h.html" target="_top" xlink:title="ODP schedule. ">
<polygon fill="#ffffff" stroke="#000000" points="522.5,-392.5 522.5,-411.5 591.5,-411.5 591.5,-392.5 522.5,-392.5"/>
<text text-anchor="middle" x="557" y="-399.5" font-family="Helvetica,sans-Serif" font-size="10.00" fill="#000000">schedule.h</text>
</a>
</g>
</g>
<!-- Node16&#45;&gt;Node25 -->
<g id="edge35" class="edge">
<title>Node16&#45;&gt;Node25</title>
<path fill="none" stroke="#191970" d="M474.3018,-555.1363C486.9619,-547.3027 501.2068,-536.6773 511,-524 538.6765,-488.1728 551.1846,-433.8627 555.3326,-411.8164"/>
<polygon fill="#191970" stroke="#191970" points="472.2991,-552.2535 465.4496,-560.3365 475.8448,-558.2891 472.2991,-552.2535"/>
</g>
<!-- Node18 -->
<g id="node16" class="node">
<title>Node18</title>
<g id="a_node16"><a xlink:href="api_2queue_8h.html" target="_top" xlink:title="ODP queue. ">
<polygon fill="#ffffff" stroke="#000000" points="446,-448.5 446,-467.5 502,-467.5 502,-448.5 446,-448.5"/>
<text text-anchor="middle" x="474" y="-455.5" font-family="Helvetica,sans-Serif" font-size="10.00" fill="#000000">queue.h</text>
</a>
</g>
</g>
<!-- Node17&#45;&gt;Node18 -->
<g id="edge17" class="edge">
<title>Node17&#45;&gt;Node18</title>
<path fill="none" stroke="#191970" d="M474,-494.1575C474,-485.155 474,-474.9199 474,-467.6427"/>
<polygon fill="#191970" stroke="#191970" points="470.5001,-494.2455 474,-504.2455 477.5001,-494.2456 470.5001,-494.2455"/>
</g>
<!-- Node18&#45;&gt;Node9 -->
<g id="edge34" class="edge">
<title>Node18&#45;&gt;Node9</title>
<path fill="none" stroke="#191970" d="M479.6819,-438.3467C485.5945,-416.1295 494,-378.7807 494,-346 494,-346 494,-346 494,-178 494,-146.7875 490.3871,-135.6345 470,-112 455.2044,-94.8476 432.3757,-82.9934 414.1009,-75.6194"/>
<polygon fill="#191970" stroke="#191970" points="476.2445,-437.6455 476.9511,-448.2168 482.991,-439.5122 476.2445,-437.6455"/>
</g>
<!-- Node18&#45;&gt;Node12 -->
<g id="edge18" class="edge">
<title>Node18&#45;&gt;Node12</title>
<path fill="none" stroke="#191970" d="M460.1155,-440.5274C441.077,-416.5688 407.5285,-374.3505 392.5689,-355.5249"/>
<polygon fill="#191970" stroke="#191970" points="457.4503,-442.7993 466.4119,-448.4509 462.9307,-438.4443 457.4503,-442.7993"/>
</g>
<!-- Node18&#45;&gt;Node19 -->
<g id="edge19" class="edge">
<title>Node18&#45;&gt;Node19</title>
<path fill="none" stroke="#191970" d="M435.7334,-446.954C399.9684,-436.63 347.1182,-421.3743 313.1199,-411.5604"/>
<polygon fill="#191970" stroke="#191970" points="435.2123,-450.4464 445.7907,-449.8571 437.1537,-443.721 435.2123,-450.4464"/>
</g>
<!-- Node18&#45;&gt;Node25 -->
<g id="edge31" class="edge">
<title>Node18&#45;&gt;Node25</title>
<path fill="none" stroke="#191970" d="M496.988,-442.49C511.6322,-432.6096 530.1444,-420.1194 542.7082,-411.6427"/>
<polygon fill="#191970" stroke="#191970" points="494.7896,-439.7511 488.4575,-448.2455 498.7047,-445.5539 494.7896,-439.7511"/>
</g>
<!-- Node20 -->
<g id="node18" class="node">
<title>Node20</title>
<g id="a_node18"><a xlink:href="api_2packet__io_8h.html" target="_top" xlink:title="ODP Packet IO. ">
<polygon fill="#ffffff" stroke="#000000" points="235.5,-336.5 235.5,-355.5 308.5,-355.5 308.5,-336.5 235.5,-336.5"/>
<text text-anchor="middle" x="272" y="-343.5" font-family="Helvetica,sans-Serif" font-size="10.00" fill="#000000">packet_io.h</text>
</a>
</g>
</g>
<!-- Node19&#45;&gt;Node20 -->
<g id="edge20" class="edge">
<title>Node19&#45;&gt;Node20</title>
<path fill="none" stroke="#191970" d="M277.1654,-382.1575C275.8793,-373.155 274.4171,-362.9199 273.3775,-355.6427"/>
<polygon fill="#191970" stroke="#191970" points="273.7274,-382.8411 278.6065,-392.2455 280.657,-381.851 273.7274,-382.8411"/>
</g>
<!-- Node20&#45;&gt;Node9 -->
<g id="edge30" class="edge">
<title>Node20&#45;&gt;Node9</title>
<path fill="none" stroke="#191970" d="M225.1895,-337.5449C184.4937,-329.2944 129.6666,-315.7138 114,-300 92.4483,-278.3834 95,-264.5246 95,-234 95,-234 95,-234 95,-178 95,-123.2189 277.3518,-84.8917 352.8569,-71.3698"/>
<polygon fill="#191970" stroke="#191970" points="224.7098,-341.0178 235.199,-339.5258 226.0687,-334.151 224.7098,-341.0178"/>
</g>
<!-- Node20&#45;&gt;Node13 -->
<g id="edge25" class="edge">
<title>Node20&#45;&gt;Node13</title>
<path fill="none" stroke="#191970" d="M295.6826,-330.2912C305.7021,-322.3981 316.531,-311.9635 323,-300 343.3918,-262.2884 343.5181,-209.0383 342.5976,-187.5459"/>
<polygon fill="#191970" stroke="#191970" points="293.5217,-327.5362 287.5701,-336.3015 297.6888,-333.1608 293.5217,-327.5362"/>
</g>
<!-- Node21 -->
<g id="node19" class="node">
<title>Node21</title>
<g id="a_node19"><a xlink:href="api_2spec_2classification_8h.html" target="_top" xlink:title="ODP classification descriptor. ">
<polygon fill="#ffffff" stroke="#000000" points="123.5,-280.5 123.5,-299.5 212.5,-299.5 212.5,-280.5 123.5,-280.5"/>
<text text-anchor="middle" x="168" y="-287.5" font-family="Helvetica,sans-Serif" font-size="10.00" fill="#000000">classification.h</text>
</a>
</g>
</g>
<!-- Node20&#45;&gt;Node21 -->
<g id="edge21" class="edge">
<title>Node20&#45;&gt;Node21</title>
<path fill="none" stroke="#191970" d="M244.9971,-331.46C226.3864,-321.4388 202.1701,-308.3993 185.9078,-299.6427"/>
<polygon fill="#191970" stroke="#191970" points="243.4205,-334.5861 253.8846,-336.2455 246.7392,-328.4228 243.4205,-334.5861"/>
</g>
<!-- Node23 -->
<g id="node21" class="node">
<title>Node23</title>
<g id="a_node21"><a xlink:href="api_2spec_2traffic__mngr_8h.html" target="_top" xlink:title="Copyright (c) 2015&#45;2018, Linaro Limited All rights reserved. ">
<polygon fill="#ffffff" stroke="#000000" points="230,-280.5 230,-299.5 314,-299.5 314,-280.5 230,-280.5"/>
<text text-anchor="middle" x="272" y="-287.5" font-family="Helvetica,sans-Serif" font-size="10.00" fill="#000000">traffic_mngr.h</text>
</a>
</g>
</g>
<!-- Node20&#45;&gt;Node23 -->
<g id="edge26" class="edge">
<title>Node20&#45;&gt;Node23</title>
<path fill="none" stroke="#191970" d="M272,-326.1575C272,-317.155 272,-306.9199 272,-299.6427"/>
<polygon fill="#191970" stroke="#191970" points="268.5001,-326.2455 272,-336.2455 275.5001,-326.2456 268.5001,-326.2455"/>
</g>
<!-- Node22 -->
<g id="node20" class="node">
<title>Node22</title>
<g id="a_node20"><a xlink:href="api_2classification_8h.html" target="_top" xlink:title="ODP classification descriptor. ">
<polygon fill="#ffffff" stroke="#000000" points="123.5,-224.5 123.5,-243.5 212.5,-243.5 212.5,-224.5 123.5,-224.5"/>
<text text-anchor="middle" x="168" y="-231.5" font-family="Helvetica,sans-Serif" font-size="10.00" fill="#000000">classification.h</text>
</a>
</g>
</g>
<!-- Node21&#45;&gt;Node22 -->
<g id="edge22" class="edge">
<title>Node21&#45;&gt;Node22</title>
<path fill="none" stroke="#191970" d="M168,-270.1575C168,-261.155 168,-250.9199 168,-243.6427"/>
<polygon fill="#191970" stroke="#191970" points="164.5001,-270.2455 168,-280.2455 171.5001,-270.2456 164.5001,-270.2455"/>
</g>
<!-- Node22&#45;&gt;Node9 -->
<g id="edge24" class="edge">
<title>Node22&#45;&gt;Node9</title>
<path fill="none" stroke="#191970" d="M184.0632,-217.0496C208.1839,-192.1597 255.866,-145.097 302,-112 322.2132,-97.4988 347.4582,-84.1004 364.7665,-75.549"/>
<polygon fill="#191970" stroke="#191970" points="181.4959,-214.6699 177.0915,-224.3058 186.5437,-219.5197 181.4959,-214.6699"/>
</g>
<!-- Node22&#45;&gt;Node13 -->
<g id="edge23" class="edge">
<title>Node22&#45;&gt;Node13</title>
<path fill="none" stroke="#191970" d="M207.8085,-221.1881C241.1848,-210.4463 287.8482,-195.4282 316.4367,-186.2273"/>
<polygon fill="#191970" stroke="#191970" points="206.3585,-217.9779 197.9117,-224.3733 208.5031,-224.6413 206.3585,-217.9779"/>
</g>
<!-- Node24 -->
<g id="node22" class="node">
<title>Node24</title>
<g id="a_node22"><a xlink:href="api_2traffic__mngr_8h.html" target="_top" xlink:title="ODP Traffic manager. ">
<polygon fill="#ffffff" stroke="#000000" points="230,-224.5 230,-243.5 314,-243.5 314,-224.5 230,-224.5"/>
<text text-anchor="middle" x="272" y="-231.5" font-family="Helvetica,sans-Serif" font-size="10.00" fill="#000000">traffic_mngr.h</text>
</a>
</g>
</g>
<!-- Node23&#45;&gt;Node24 -->
<g id="edge27" class="edge">
<title>Node23&#45;&gt;Node24</title>
<path fill="none" stroke="#191970" d="M272,-270.1575C272,-261.155 272,-250.9199 272,-243.6427"/>
<polygon fill="#191970" stroke="#191970" points="268.5001,-270.2455 272,-280.2455 275.5001,-270.2456 268.5001,-270.2455"/>
</g>
<!-- Node24&#45;&gt;Node9 -->
<g id="edge29" class="edge">
<title>Node24&#45;&gt;Node9</title>
<path fill="none" stroke="#191970" d="M275.5529,-214.4906C281.0259,-188.7859 293.5483,-143.1919 318,-112 330.5349,-96.0098 350.1673,-83.4539 364.9463,-75.5281"/>
<polygon fill="#191970" stroke="#191970" points="272.0832,-213.9944 273.5705,-224.4843 278.9494,-215.3565 272.0832,-213.9944"/>
</g>
<!-- Node24&#45;&gt;Node13 -->
<g id="edge28" class="edge">
<title>Node24&#45;&gt;Node13</title>
<path fill="none" stroke="#191970" d="M292.09,-217.928C304.3253,-208.1397 319.5507,-195.9595 329.9467,-187.6427"/>
<polygon fill="#191970" stroke="#191970" points="289.8153,-215.2655 284.1931,-224.2455 294.1882,-220.7316 289.8153,-215.2655"/>
</g>
<!-- Node26 -->
<g id="node24" class="node">
<title>Node26</title>
<g id="a_node24"><a xlink:href="api_2schedule_8h.html" target="_top" xlink:title="ODP schedule. ">
<polygon fill="#ffffff" stroke="#000000" points="522.5,-168.5 522.5,-187.5 591.5,-187.5 591.5,-168.5 522.5,-168.5"/>
<text text-anchor="middle" x="557" y="-175.5" font-family="Helvetica,sans-Serif" font-size="10.00" fill="#000000">schedule.h</text>
</a>
</g>
</g>
<!-- Node25&#45;&gt;Node26 -->
<g id="edge32" class="edge">
<title>Node25&#45;&gt;Node26</title>
<path fill="none" stroke="#191970" d="M557,-382.1177C557,-335.6713 557,-221.4223 557,-187.5891"/>
<polygon fill="#191970" stroke="#191970" points="553.5001,-382.375 557,-392.375 560.5001,-382.375 553.5001,-382.375"/>
</g>
<!-- Node26&#45;&gt;Node9 -->
<g id="edge33" class="edge">
<title>Node26&#45;&gt;Node9</title>
<path fill="none" stroke="#191970" d="M547.1471,-159.3491C538.5538,-144.6801 524.8384,-124.6688 508,-112 480.7639,-91.5082 443.3911,-79.2625 417.0094,-72.6201"/>
<polygon fill="#191970" stroke="#191970" points="544.0985,-161.0686 552.0357,-168.0865 550.2073,-157.6506 544.0985,-161.0686"/>
</g>
<!-- Node28 -->
<g id="node26" class="node">
<title>Node28</title>
<g id="a_node26"><a xlink:href="api_2packet__flags_8h.html" target="_top" xlink:title="ODP packet flags. ">
<polygon fill="#ffffff" stroke="#000000" points="648.5,-112.5 648.5,-131.5 735.5,-131.5 735.5,-112.5 648.5,-112.5"/>
<text text-anchor="middle" x="692" y="-119.5" font-family="Helvetica,sans-Serif" font-size="10.00" fill="#000000">packet_flags.h</text>
</a>
</g>
</g>
<!-- Node27&#45;&gt;Node28 -->
<g id="edge38" class="edge">
<title>Node27&#45;&gt;Node28</title>
<path fill="none" stroke="#191970" d="M692,-550.1952C692,-527.8128 692,-490.2884 692,-458 692,-458 692,-458 692,-234 692,-196.0833 692,-150.9462 692,-131.5884"/>
<polygon fill="#191970" stroke="#191970" points="688.5001,-550.4116 692,-560.4116 695.5001,-550.4117 688.5001,-550.4116"/>
</g>
<!-- Node28&#45;&gt;Node9 -->
<g id="edge39" class="edge">
<title>Node28&#45;&gt;Node9</title>
<path fill="none" stroke="#191970" d="M638.4535,-112.2326C574.5756,-100.5806 469.8385,-81.4754 417.2532,-71.8833"/>
<polygon fill="#191970" stroke="#191970" points="637.8746,-115.6846 648.3404,-114.036 639.1308,-108.7983 637.8746,-115.6846"/>
</g>
</g>
</svg>
