<?xml version="1.0" encoding="UTF-8" standalone="no"?>
<!DOCTYPE svg PUBLIC "-//W3C//DTD SVG 1.1//EN"
 "http://www.w3.org/Graphics/SVG/1.1/DTD/svg11.dtd">
<!-- Generated by graphviz version 2.40.1 (20161225.0304)
 -->
<!-- Title: classification.h Pages: 1 -->
<svg width="1603pt" height="845pt"
 viewBox="0.00 0.00 1602.58 845.00" xmlns="http://www.w3.org/2000/svg" xmlns:xlink="http://www.w3.org/1999/xlink">
<g id="graph0" class="graph" transform="scale(1 1) rotate(0) translate(4 841)">
<title>classification.h</title>
<polygon fill="#ffffff" stroke="transparent" points="-4,4 -4,-841 1598.5837,-841 1598.5837,4 -4,4"/>
<!-- Node0 -->
<g id="node1" class="node">
<title>Node0</title>
<polygon fill="#bfbfbf" stroke="#000000" points="122.0837,-817.5 122.0837,-836.5 211.0837,-836.5 211.0837,-817.5 122.0837,-817.5"/>
<text text-anchor="middle" x="166.5837" y="-824.5" font-family="Helvetica,sans-Serif" font-size="10.00" fill="#000000">classification.h</text>
</g>
<!-- Node1 -->
<g id="node2" class="node">
<title>Node1</title>
<g id="a_node2"><a xlink:href="visibility__begin_8h_source.html" target="_top" xlink:title="odp/visibility_begin.h">
<polygon fill="#ffffff" stroke="#000000" points="516.0837,-.5 516.0837,-19.5 637.0837,-19.5 637.0837,-.5 516.0837,-.5"/>
<text text-anchor="middle" x="576.5837" y="-7.5" font-family="Helvetica,sans-Serif" font-size="10.00" fill="#000000">odp/visibility_begin.h</text>
</a>
</g>
</g>
<!-- Node0&#45;&gt;Node1 -->
<g id="edge1" class="edge">
<title>Node0&#45;&gt;Node1</title>
<path fill="none" stroke="#191970" d="M122.0244,-817.9248C84.248,-809.3812 33.9753,-795.7261 19.5837,-781 -1.7511,-759.1693 .5837,-745.5246 .5837,-715 .5837,-715 .5837,-715 .5837,-133 .5837,-94.2287 9.2306,-77.3655 41.5837,-56 79.4449,-30.997 369.1138,-17.4198 505.7149,-12.3499"/>
<polygon fill="#191970" stroke="#191970" points="506.207,-15.8343 516.0723,-11.9709 505.9509,-8.839 506.207,-15.8343"/>
</g>
<!-- Node2 -->
<g id="node3" class="node">
<title>Node2</title>
<g id="a_node3"><a xlink:href="api_2packet__io_8h.html" target="_top" xlink:title="ODP Packet IO. ">
<polygon fill="#ffffff" stroke="#000000" points="540.5837,-761.5 540.5837,-780.5 652.5837,-780.5 652.5837,-761.5 540.5837,-761.5"/>
<text text-anchor="middle" x="596.5837" y="-768.5" font-family="Helvetica,sans-Serif" font-size="10.00" fill="#000000">odp/api/packet_io.h</text>
</a>
</g>
</g>
<!-- Node0&#45;&gt;Node2 -->
<g id="edge2" class="edge">
<title>Node0&#45;&gt;Node2</title>
<path fill="none" stroke="#191970" d="M211.3844,-821.1655C287.3983,-811.266 441.9812,-791.1343 530.466,-779.6107"/>
<polygon fill="#191970" stroke="#191970" points="530.9295,-783.08 540.3937,-778.3178 530.0254,-776.1386 530.9295,-783.08"/>
</g>
<!-- Node10 -->
<g id="node11" class="node">
<title>Node10</title>
<g id="a_node11"><a xlink:href="visibility__end_8h_source.html" target="_top" xlink:title="odp/visibility_end.h">
<polygon fill="#ffffff" stroke="#000000" points="1147.5837,-.5 1147.5837,-19.5 1259.5837,-19.5 1259.5837,-.5 1147.5837,-.5"/>
<text text-anchor="middle" x="1203.5837" y="-7.5" font-family="Helvetica,sans-Serif" font-size="10.00" fill="#000000">odp/visibility_end.h</text>
</a>
</g>
</g>
<!-- Node0&#45;&gt;Node10 -->
<g id="edge82" class="edge">
<title>Node0&#45;&gt;Node10</title>
<path fill="none" stroke="#191970" d="M211.2823,-825.8904C453.165,-819.5997 1594.5837,-786.1452 1594.5837,-715 1594.5837,-715 1594.5837,-715 1594.5837,-133 1594.5837,-75.8444 1544.2238,-78.2661 1491.5837,-56 1452.7476,-39.5728 1342.5345,-25.0493 1270.2625,-16.906"/>
<polygon fill="#191970" stroke="#191970" points="1270.2135,-13.379 1259.8877,-15.7513 1269.4392,-20.336 1270.2135,-13.379"/>
</g>
<!-- Node36 -->
<g id="node37" class="node">
<title>Node36</title>
<g id="a_node37"><a xlink:href="support_8h.html" target="_top" xlink:title="ODP support API &#45; platform specific header. ">
<polygon fill="#ffffff" stroke="#000000" points="1010.0837,-123.5 1010.0837,-142.5 1111.0837,-142.5 1111.0837,-123.5 1010.0837,-123.5"/>
<text text-anchor="middle" x="1060.5837" y="-130.5" font-family="Helvetica,sans-Serif" font-size="10.00" fill="#000000">odp/api/support.h</text>
</a>
</g>
</g>
<!-- Node0&#45;&gt;Node36 -->
<g id="edge76" class="edge">
<title>Node0&#45;&gt;Node36</title>
<path fill="none" stroke="#191970" d="M166.091,-817.2875C163.9514,-766.9465 159.0477,-531.792 243.5837,-369 291.2604,-277.1885 333.2493,-275.1829 413.5837,-210 430.509,-196.2669 431.3413,-187.0814 451.5837,-179 454.7498,-177.736 846.2945,-148.7839 999.8172,-137.4716"/>
<polygon fill="#191970" stroke="#191970" points="1000.2993,-140.9456 1010.0151,-136.7203 999.785,-133.9645 1000.2993,-140.9456"/>
</g>
<!-- Node38 -->
<g id="node39" class="node">
<title>Node38</title>
<g id="a_node39"><a xlink:href="threshold_8h.html" target="_top" xlink:title="ODP threshold API &#45; platform specific header. ">
<polygon fill="#ffffff" stroke="#000000" points="28.5837,-761.5 28.5837,-780.5 138.5837,-780.5 138.5837,-761.5 28.5837,-761.5"/>
<text text-anchor="middle" x="83.5837" y="-768.5" font-family="Helvetica,sans-Serif" font-size="10.00" fill="#000000">odp/api/threshold.h</text>
</a>
</g>
</g>
<!-- Node0&#45;&gt;Node38 -->
<g id="edge77" class="edge">
<title>Node0&#45;&gt;Node38</title>
<path fill="none" stroke="#191970" d="M152.1262,-817.2455C139.5105,-808.7337 120.9893,-796.2375 106.3792,-786.3801"/>
<polygon fill="#191970" stroke="#191970" points="108.1228,-783.3343 97.8755,-780.6427 104.2076,-789.1371 108.1228,-783.3343"/>
</g>
<!-- Node3 -->
<g id="node4" class="node">
<title>Node3</title>
<g id="a_node4"><a xlink:href="api_2std__types_8h.html" target="_top" xlink:title="Standard C language types and definitions for ODP. ">
<polygon fill="#ffffff" stroke="#000000" points="448.5837,-246.5 448.5837,-265.5 560.5837,-265.5 560.5837,-246.5 448.5837,-246.5"/>
<text text-anchor="middle" x="504.5837" y="-253.5" font-family="Helvetica,sans-Serif" font-size="10.00" fill="#000000">odp/api/std_types.h</text>
</a>
</g>
</g>
<!-- Node2&#45;&gt;Node3 -->
<g id="edge3" class="edge">
<title>Node2&#45;&gt;Node3</title>
<path fill="none" stroke="#191970" d="M540.3053,-765.1102C471.5163,-757.3041 359.5735,-742.4625 321.5837,-725 280.0132,-705.8916 242.5837,-704.7519 242.5837,-659 242.5837,-659 242.5837,-659 242.5837,-435 242.5837,-404.4754 241.7351,-392.1902 261.5837,-369 309.716,-312.7642 391.8765,-282.7826 447.1796,-268.1425"/>
<polygon fill="#191970" stroke="#191970" points="448.3585,-271.4537 457.1791,-265.5845 446.6236,-264.6721 448.3585,-271.4537"/>
</g>
<!-- Node11 -->
<g id="node12" class="node">
<title>Node11</title>
<polygon fill="#ffffff" stroke="#bfbfbf" points="1292.5837,-369.5 1292.5837,-388.5 1396.5837,-388.5 1396.5837,-369.5 1292.5837,-369.5"/>
<text text-anchor="middle" x="1344.5837" y="-376.5" font-family="Helvetica,sans-Serif" font-size="10.00" fill="#000000">odp/api/abi/pool.h</text>
</g>
<!-- Node2&#45;&gt;Node11 -->
<g id="edge14" class="edge">
<title>Node2&#45;&gt;Node11</title>
<path fill="none" stroke="#191970" d="M652.8801,-769.5047C842.2772,-763.7368 1444.5837,-739.0976 1444.5837,-659 1444.5837,-659 1444.5837,-659 1444.5837,-603 1444.5837,-519.7667 1386.3015,-433.0665 1358.7256,-396.7031"/>
<polygon fill="#191970" stroke="#191970" points="1361.321,-394.3382 1352.4305,-388.5754 1355.7868,-398.6246 1361.321,-394.3382"/>
</g>
<!-- Node12 -->
<g id="node13" class="node">
<title>Node12</title>
<polygon fill="#ffffff" stroke="#bfbfbf" points="603.5837,-705.5 603.5837,-724.5 749.5837,-724.5 749.5837,-705.5 603.5837,-705.5"/>
<text text-anchor="middle" x="676.5837" y="-712.5" font-family="Helvetica,sans-Serif" font-size="10.00" fill="#000000">odp/api/abi/classification.h</text>
</g>
<!-- Node2&#45;&gt;Node12 -->
<g id="edge15" class="edge">
<title>Node2&#45;&gt;Node12</title>
<path fill="none" stroke="#191970" d="M610.5186,-761.2455C622.6784,-752.7337 640.5302,-740.2375 654.6122,-730.3801"/>
<polygon fill="#191970" stroke="#191970" points="656.6233,-733.2447 662.8085,-724.6427 652.609,-727.51 656.6233,-733.2447"/>
</g>
<!-- Node13 -->
<g id="node14" class="node">
<title>Node13</title>
<polygon fill="#ffffff" stroke="#bfbfbf" points="1044.5837,-369.5 1044.5837,-388.5 1160.5837,-388.5 1160.5837,-369.5 1044.5837,-369.5"/>
<text text-anchor="middle" x="1102.5837" y="-376.5" font-family="Helvetica,sans-Serif" font-size="10.00" fill="#000000">odp/api/abi/packet.h</text>
</g>
<!-- Node2&#45;&gt;Node13 -->
<g id="edge16" class="edge">
<title>Node2&#45;&gt;Node13</title>
<path fill="none" stroke="#191970" d="M652.6577,-768.345C824.2407,-759.4818 1330.5837,-727.5213 1330.5837,-659 1330.5837,-659 1330.5837,-659 1330.5837,-603 1330.5837,-494.7991 1198.3078,-421.472 1135.26,-392.6669"/>
<polygon fill="#191970" stroke="#191970" points="1136.6828,-389.4691 1126.125,-388.584 1133.8264,-395.8599 1136.6828,-389.4691"/>
</g>
<!-- Node14 -->
<g id="node15" class="node">
<title>Node14</title>
<polygon fill="#ffffff" stroke="#bfbfbf" points="270.5837,-369.5 270.5837,-388.5 400.5837,-388.5 400.5837,-369.5 270.5837,-369.5"/>
<text text-anchor="middle" x="335.5837" y="-376.5" font-family="Helvetica,sans-Serif" font-size="10.00" fill="#000000">odp/api/abi/packet_io.h</text>
</g>
<!-- Node2&#45;&gt;Node14 -->
<g id="edge17" class="edge">
<title>Node2&#45;&gt;Node14</title>
<path fill="none" stroke="#191970" d="M540.4534,-762.8964C449.6476,-748.1909 280.5837,-713.4945 280.5837,-659 280.5837,-659 280.5837,-659 280.5837,-491 280.5837,-454.6071 304.2702,-417.7455 320.5547,-396.7035"/>
<polygon fill="#191970" stroke="#191970" points="323.4504,-398.6876 326.99,-388.7015 317.9956,-394.3008 323.4504,-398.6876"/>
</g>
<!-- Node15 -->
<g id="node16" class="node">
<title>Node15</title>
<polygon fill="#ffffff" stroke="#bfbfbf" points="1415.0837,-369.5 1415.0837,-388.5 1528.0837,-388.5 1528.0837,-369.5 1415.0837,-369.5"/>
<text text-anchor="middle" x="1471.5837" y="-376.5" font-family="Helvetica,sans-Serif" font-size="10.00" fill="#000000">odp/api/abi/queue.h</text>
</g>
<!-- Node2&#45;&gt;Node15 -->
<g id="edge18" class="edge">
<title>Node2&#45;&gt;Node15</title>
<path fill="none" stroke="#191970" d="M652.733,-770.0348C801.5937,-767.0708 1203.7476,-756.3185 1332.5837,-725 1403.3573,-707.7958 1482.5837,-731.8347 1482.5837,-659 1482.5837,-659 1482.5837,-659 1482.5837,-491 1482.5837,-458.5562 1477.9555,-421.078 1474.7032,-398.7472"/>
<polygon fill="#191970" stroke="#191970" points="1478.118,-397.9203 1473.1597,-388.5573 1471.1969,-398.9687 1478.118,-397.9203"/>
</g>
<!-- Node16 -->
<g id="node17" class="node">
<title>Node16</title>
<g id="a_node17"><a xlink:href="api_2spec_2packet__io_8h.html" target="_top" xlink:title="ODP Packet IO. ">
<polygon fill="#ffffff" stroke="#000000" points="448.0837,-705.5 448.0837,-724.5 585.0837,-724.5 585.0837,-705.5 448.0837,-705.5"/>
<text text-anchor="middle" x="516.5837" y="-712.5" font-family="Helvetica,sans-Serif" font-size="10.00" fill="#000000">odp/api/spec/packet_io.h</text>
</a>
</g>
</g>
<!-- Node2&#45;&gt;Node16 -->
<g id="edge19" class="edge">
<title>Node2&#45;&gt;Node16</title>
<path fill="none" stroke="#191970" d="M582.6488,-761.2455C570.489,-752.7337 552.6373,-740.2375 538.5553,-730.3801"/>
<polygon fill="#191970" stroke="#191970" points="540.5584,-727.51 530.359,-724.6427 536.5442,-733.2447 540.5584,-727.51"/>
</g>
<!-- Node4 -->
<g id="node5" class="node">
<title>Node4</title>
<polygon fill="#ffffff" stroke="#bfbfbf" points="460.5837,-185 460.5837,-204 590.5837,-204 590.5837,-185 460.5837,-185"/>
<text text-anchor="middle" x="525.5837" y="-192" font-family="Helvetica,sans-Serif" font-size="10.00" fill="#000000">odp/api/abi/std_types.h</text>
</g>
<!-- Node3&#45;&gt;Node4 -->
<g id="edge4" class="edge">
<title>Node3&#45;&gt;Node4</title>
<path fill="none" stroke="#191970" d="M507.865,-246.3906C510.8372,-237.6862 515.3052,-224.6015 519.0107,-213.7494"/>
<polygon fill="#191970" stroke="#191970" points="522.3369,-214.8394 522.2562,-204.2449 515.7125,-212.5773 522.3369,-214.8394"/>
</g>
<!-- Node5 -->
<g id="node6" class="node">
<title>Node5</title>
<g id="a_node6"><a xlink:href="api_2spec_2std__types_8h.html" target="_top" xlink:title="Standard C language types and definitions for ODP. ">
<polygon fill="#ffffff" stroke="#000000" points="267.0837,-185 267.0837,-204 404.0837,-204 404.0837,-185 267.0837,-185"/>
<text text-anchor="middle" x="335.5837" y="-192" font-family="Helvetica,sans-Serif" font-size="10.00" fill="#000000">odp/api/spec/std_types.h</text>
</a>
</g>
</g>
<!-- Node3&#45;&gt;Node5 -->
<g id="edge5" class="edge">
<title>Node3&#45;&gt;Node5</title>
<path fill="none" stroke="#191970" d="M478.1775,-246.3906C449.4046,-235.92 403.2141,-219.1111 371.2371,-207.4745"/>
<polygon fill="#191970" stroke="#191970" points="372.3986,-204.1726 361.8045,-204.0419 370.0048,-210.7506 372.3986,-204.1726"/>
</g>
<!-- Node5&#45;&gt;Node1 -->
<g id="edge6" class="edge">
<title>Node5&#45;&gt;Node1</title>
<path fill="none" stroke="#191970" d="M327.6603,-184.9923C320.0445,-175.1834 309.0523,-159.0883 304.5837,-143 294.2357,-105.7437 279.6257,-85.5332 304.5837,-56 317.5086,-40.7058 429.631,-25.7626 505.8262,-17.239"/>
<polygon fill="#191970" stroke="#191970" points="506.3046,-20.7076 515.8597,-16.1304 505.5358,-13.7499 506.3046,-20.7076"/>
</g>
<!-- Node6 -->
<g id="node7" class="node">
<title>Node6</title>
<polygon fill="#ffffff" stroke="#bfbfbf" points="313.0837,-123.5 313.0837,-142.5 366.0837,-142.5 366.0837,-123.5 313.0837,-123.5"/>
<text text-anchor="middle" x="339.5837" y="-130.5" font-family="Helvetica,sans-Serif" font-size="10.00" fill="#000000">stdint.h</text>
</g>
<!-- Node5&#45;&gt;Node6 -->
<g id="edge7" class="edge">
<title>Node5&#45;&gt;Node6</title>
<path fill="none" stroke="#191970" d="M336.2087,-184.8906C336.7632,-176.3657 337.5909,-163.6392 338.2879,-152.9235"/>
<polygon fill="#191970" stroke="#191970" points="341.7934,-152.951 338.9499,-142.7449 334.8081,-152.4966 341.7934,-152.951"/>
</g>
<!-- Node7 -->
<g id="node8" class="node">
<title>Node7</title>
<g id="a_node8"><a xlink:href="api_2align_8h.html" target="_top" xlink:title="ODP alignments. ">
<polygon fill="#ffffff" stroke="#000000" points="384.0837,-123.5 384.0837,-142.5 473.0837,-142.5 473.0837,-123.5 384.0837,-123.5"/>
<text text-anchor="middle" x="428.5837" y="-130.5" font-family="Helvetica,sans-Serif" font-size="10.00" fill="#000000">odp/api/align.h</text>
</a>
</g>
</g>
<!-- Node5&#45;&gt;Node7 -->
<g id="edge8" class="edge">
<title>Node5&#45;&gt;Node7</title>
<path fill="none" stroke="#191970" d="M350.115,-184.8906C364.9931,-175.0519 388.3341,-159.6167 405.6965,-148.1351"/>
<polygon fill="#191970" stroke="#191970" points="407.7439,-150.9773 414.1545,-142.5419 403.8828,-145.1385 407.7439,-150.9773"/>
</g>
<!-- Node5&#45;&gt;Node10 -->
<g id="edge13" class="edge">
<title>Node5&#45;&gt;Node10</title>
<path fill="none" stroke="#191970" d="M385.1224,-184.9204C396.1246,-182.8845 407.739,-180.8063 418.5837,-179 696.8408,-132.6545 787.7083,-199.0645 1046.5837,-87 1066.9036,-78.2037 1066.3867,-67.0338 1085.5837,-56 1109.6868,-42.1464 1138.7652,-30.7564 1162.0248,-22.7757"/>
<polygon fill="#191970" stroke="#191970" points="1163.2347,-26.0617 1171.6054,-19.5669 1161.0116,-19.424 1163.2347,-26.0617"/>
</g>
<!-- Node8 -->
<g id="node9" class="node">
<title>Node8</title>
<polygon fill="#ffffff" stroke="#bfbfbf" points="313.0837,-62 313.0837,-81 420.0837,-81 420.0837,-62 313.0837,-62"/>
<text text-anchor="middle" x="366.5837" y="-69" font-family="Helvetica,sans-Serif" font-size="10.00" fill="#000000">odp/api/abi/align.h</text>
</g>
<!-- Node7&#45;&gt;Node8 -->
<g id="edge9" class="edge">
<title>Node7&#45;&gt;Node8</title>
<path fill="none" stroke="#191970" d="M418.8962,-123.3906C409.4878,-114.0581 395.0031,-99.6902 383.6588,-88.4374"/>
<polygon fill="#191970" stroke="#191970" points="385.9723,-85.8024 376.4078,-81.2449 381.0426,-90.7722 385.9723,-85.8024"/>
</g>
<!-- Node9 -->
<g id="node10" class="node">
<title>Node9</title>
<g id="a_node10"><a xlink:href="api_2spec_2align_8h.html" target="_top" xlink:title="ODP alignments. ">
<polygon fill="#ffffff" stroke="#000000" points="476.5837,-62 476.5837,-81 590.5837,-81 590.5837,-62 476.5837,-62"/>
<text text-anchor="middle" x="533.5837" y="-69" font-family="Helvetica,sans-Serif" font-size="10.00" fill="#000000">odp/api/spec/align.h</text>
</a>
</g>
</g>
<!-- Node7&#45;&gt;Node9 -->
<g id="edge10" class="edge">
<title>Node7&#45;&gt;Node9</title>
<path fill="none" stroke="#191970" d="M444.99,-123.3906C462.019,-113.4165 488.8678,-97.6908 508.5488,-86.1633"/>
<polygon fill="#191970" stroke="#191970" points="510.4327,-89.1161 517.2927,-81.0419 506.8949,-83.0759 510.4327,-89.1161"/>
</g>
<!-- Node9&#45;&gt;Node1 -->
<g id="edge11" class="edge">
<title>Node9&#45;&gt;Node1</title>
<path fill="none" stroke="#191970" d="M540.3025,-61.8906C546.5767,-52.917 556.106,-39.2879 563.8241,-28.2491"/>
<polygon fill="#191970" stroke="#191970" points="566.9085,-29.9459 569.7702,-19.7449 561.1716,-25.9348 566.9085,-29.9459"/>
</g>
<!-- Node9&#45;&gt;Node10 -->
<g id="edge12" class="edge">
<title>Node9&#45;&gt;Node10</title>
<path fill="none" stroke="#191970" d="M590.7075,-66.2565C714.2599,-54.9155 1005.7609,-28.1584 1137.2273,-16.0909"/>
<polygon fill="#191970" stroke="#191970" points="1137.9113,-19.5429 1147.5495,-15.1434 1137.2714,-12.5722 1137.9113,-19.5429"/>
</g>
<!-- Node16&#45;&gt;Node1 -->
<g id="edge20" class="edge">
<title>Node16&#45;&gt;Node1</title>
<path fill="none" stroke="#191970" d="M447.8436,-706.7891C315.5712,-686.7535 38.5837,-622.4221 38.5837,-435 38.5837,-435 38.5837,-435 38.5837,-133 38.5837,-95.4083 42.9381,-77.7712 73.5837,-56 107.9935,-31.5547 375.1636,-17.8601 505.5154,-12.5724"/>
<polygon fill="#191970" stroke="#191970" points="505.9452,-16.0581 515.7973,-12.1613 505.6654,-9.0637 505.9452,-16.0581"/>
</g>
<!-- Node16&#45;&gt;Node10 -->
<g id="edge75" class="edge">
<title>Node16&#45;&gt;Node10</title>
<path fill="none" stroke="#191970" d="M585.3846,-706.0148C771.3266,-681.7026 1270.5203,-616.2294 1278.5837,-613 1371.4829,-575.7945 1556.5837,-417.1671 1556.5837,-379 1556.5837,-379 1556.5837,-379 1556.5837,-133 1556.5837,-72.9407 1372.063,-35.4318 1269.8366,-19.2599"/>
<polygon fill="#191970" stroke="#191970" points="1270.3271,-15.7942 1259.9079,-17.7153 1269.251,-22.711 1270.3271,-15.7942"/>
</g>
<!-- Node17 -->
<g id="node18" class="node">
<title>Node17</title>
<g id="a_node18"><a xlink:href="deprecated_8h.html" target="_top" xlink:title="Control deprecated API definitions. ">
<polygon fill="#ffffff" stroke="#000000" points="876.0837,-246.5 876.0837,-265.5 995.0837,-265.5 995.0837,-246.5 876.0837,-246.5"/>
<text text-anchor="middle" x="935.5837" y="-253.5" font-family="Helvetica,sans-Serif" font-size="10.00" fill="#000000">odp/api/deprecated.h</text>
</a>
</g>
</g>
<!-- Node16&#45;&gt;Node17 -->
<g id="edge21" class="edge">
<title>Node16&#45;&gt;Node17</title>
<path fill="none" stroke="#191970" d="M515.2843,-705.4101C508.6916,-655.1674 480.8883,-422.5576 523.5837,-369 564.7061,-317.4156 603.8718,-350.1111 667.5837,-333 747.962,-311.4128 841.2491,-284.0932 893.8566,-268.4763"/>
<polygon fill="#191970" stroke="#191970" points="894.9189,-271.812 903.5069,-265.6073 892.9241,-265.1022 894.9189,-271.812"/>
</g>
<!-- Node19 -->
<g id="node20" class="node">
<title>Node19</title>
<g id="a_node20"><a xlink:href="packet__io__stats_8h.html" target="_top" xlink:title="ODP packet IO stats. ">
<polygon fill="#ffffff" stroke="#000000" points="309.0837,-649.5 309.0837,-668.5 450.0837,-668.5 450.0837,-649.5 309.0837,-649.5"/>
<text text-anchor="middle" x="379.5837" y="-656.5" font-family="Helvetica,sans-Serif" font-size="10.00" fill="#000000">odp/api/packet_io_stats.h</text>
</a>
</g>
</g>
<!-- Node16&#45;&gt;Node19 -->
<g id="edge25" class="edge">
<title>Node16&#45;&gt;Node19</title>
<path fill="none" stroke="#191970" d="M493.0326,-705.3733C470.7446,-696.2629 437.09,-682.5062 412.22,-672.3404"/>
<polygon fill="#191970" stroke="#191970" points="413.4084,-669.0451 402.8275,-668.5011 410.7598,-675.5247 413.4084,-669.0451"/>
</g>
<!-- Node21 -->
<g id="node22" class="node">
<title>Node21</title>
<g id="a_node22"><a xlink:href="api_2queue_8h.html" target="_top" xlink:title="ODP queue. ">
<polygon fill="#ffffff" stroke="#000000" points="621.0837,-649.5 621.0837,-668.5 716.0837,-668.5 716.0837,-649.5 621.0837,-649.5"/>
<text text-anchor="middle" x="668.5837" y="-656.5" font-family="Helvetica,sans-Serif" font-size="10.00" fill="#000000">odp/api/queue.h</text>
</a>
</g>
</g>
<!-- Node16&#45;&gt;Node21 -->
<g id="edge29" class="edge">
<title>Node16&#45;&gt;Node21</title>
<path fill="none" stroke="#191970" d="M542.7134,-705.3733C567.6605,-696.1822 605.4429,-682.2624 633.1043,-672.0713"/>
<polygon fill="#191970" stroke="#191970" points="634.6215,-675.2424 642.7949,-668.5011 632.2015,-668.674 634.6215,-675.2424"/>
</g>
<!-- Node27 -->
<g id="node28" class="node">
<title>Node27</title>
<g id="a_node28"><a xlink:href="api_2packet_8h.html" target="_top" xlink:title="ODP packet descriptor. ">
<polygon fill="#ffffff" stroke="#000000" points="822.5837,-425.5 822.5837,-444.5 920.5837,-444.5 920.5837,-425.5 822.5837,-425.5"/>
<text text-anchor="middle" x="871.5837" y="-432.5" font-family="Helvetica,sans-Serif" font-size="10.00" fill="#000000">odp/api/packet.h</text>
</a>
</g>
</g>
<!-- Node16&#45;&gt;Node27 -->
<g id="edge74" class="edge">
<title>Node16&#45;&gt;Node27</title>
<path fill="none" stroke="#191970" d="M528.8036,-705.3618C581.077,-664.1321 786.1747,-502.3649 851.4895,-450.8489"/>
<polygon fill="#191970" stroke="#191970" points="853.731,-453.5387 859.4152,-444.5977 849.396,-448.0425 853.731,-453.5387"/>
</g>
<!-- Node29 -->
<g id="node30" class="node">
<title>Node29</title>
<g id="a_node30"><a xlink:href="api_2time_8h.html" target="_top" xlink:title="ODP time. ">
<polygon fill="#ffffff" stroke="#000000" points="571.0837,-308 571.0837,-327 658.0837,-327 658.0837,-308 571.0837,-308"/>
<text text-anchor="middle" x="614.5837" y="-315" font-family="Helvetica,sans-Serif" font-size="10.00" fill="#000000">odp/api/time.h</text>
</a>
</g>
</g>
<!-- Node16&#45;&gt;Node29 -->
<g id="edge73" class="edge">
<title>Node16&#45;&gt;Node29</title>
<path fill="none" stroke="#191970" d="M510.047,-705.3101C481.3879,-661.5182 371.8006,-479.4479 452.5837,-369 465.6486,-351.1375 519.0064,-336.5287 560.9621,-327.492"/>
<polygon fill="#191970" stroke="#191970" points="561.7377,-330.9056 570.8062,-325.4273 560.3007,-324.0547 561.7377,-330.9056"/>
</g>
<!-- Node18 -->
<g id="node19" class="node">
<title>Node18</title>
<g id="a_node19"><a xlink:href="spec_2deprecated_8h.html" target="_top" xlink:title="Macro for deprecated API definitions. ">
<polygon fill="#ffffff" stroke="#000000" points="892.0837,-62 892.0837,-81 1037.0837,-81 1037.0837,-62 892.0837,-62"/>
<text text-anchor="middle" x="964.5837" y="-69" font-family="Helvetica,sans-Serif" font-size="10.00" fill="#000000">odp/api/spec/deprecated.h</text>
</a>
</g>
</g>
<!-- Node17&#45;&gt;Node18 -->
<g id="edge22" class="edge">
<title>Node17&#45;&gt;Node18</title>
<path fill="none" stroke="#191970" d="M937.102,-246.3402C941.6729,-217.26 955.3672,-130.136 961.5251,-90.959"/>
<polygon fill="#191970" stroke="#191970" points="964.9851,-91.4863 963.0804,-81.0641 958.07,-90.3993 964.9851,-91.4863"/>
</g>
<!-- Node18&#45;&gt;Node1 -->
<g id="edge23" class="edge">
<title>Node18&#45;&gt;Node1</title>
<path fill="none" stroke="#191970" d="M916.2417,-61.9187C905.5045,-59.8829 894.1691,-57.8051 883.5837,-56 802.8119,-42.2263 709.6985,-28.5882 647.3913,-19.7828"/>
<polygon fill="#191970" stroke="#191970" points="647.6698,-16.2875 637.2793,-18.3579 646.6931,-23.2191 647.6698,-16.2875"/>
</g>
<!-- Node18&#45;&gt;Node10 -->
<g id="edge24" class="edge">
<title>Node18&#45;&gt;Node10</title>
<path fill="none" stroke="#191970" d="M1001.6652,-61.9581C1043.3535,-51.2308 1111.1334,-33.7895 1156.5221,-22.11"/>
<polygon fill="#191970" stroke="#191970" points="1157.6029,-25.446 1166.4152,-19.5643 1155.8584,-18.6668 1157.6029,-25.446"/>
</g>
<!-- Node20 -->
<g id="node21" class="node">
<title>Node20</title>
<g id="a_node21"><a xlink:href="spec_2packet__io__stats_8h.html" target="_top" xlink:title="ODP Packet IO. ">
<polygon fill="#ffffff" stroke="#000000" points="104.5837,-56.5 104.5837,-86.5 218.5837,-86.5 218.5837,-56.5 104.5837,-56.5"/>
<text text-anchor="start" x="112.5837" y="-74.5" font-family="Helvetica,sans-Serif" font-size="10.00" fill="#000000">odp/api/spec/packet</text>
<text text-anchor="middle" x="161.5837" y="-63.5" font-family="Helvetica,sans-Serif" font-size="10.00" fill="#000000">_io_stats.h</text>
</a>
</g>
</g>
<!-- Node19&#45;&gt;Node20 -->
<g id="edge26" class="edge">
<title>Node19&#45;&gt;Node20</title>
<path fill="none" stroke="#191970" d="M359.703,-649.4774C292.2937,-616.5474 76.5837,-505.6517 76.5837,-435 76.5837,-435 76.5837,-435 76.5837,-317.5 76.5837,-232.0121 123.0076,-138.524 147.2382,-95.5508"/>
<polygon fill="#191970" stroke="#191970" points="150.3803,-97.1075 152.3254,-86.6927 144.3101,-93.6214 150.3803,-97.1075"/>
</g>
<!-- Node20&#45;&gt;Node1 -->
<g id="edge27" class="edge">
<title>Node20&#45;&gt;Node1</title>
<path fill="none" stroke="#191970" d="M218.8551,-58.5749C223.4909,-57.6575 228.1102,-56.786 232.5837,-56 326.7609,-39.4521 436.369,-25.7435 506.0862,-17.713"/>
<polygon fill="#191970" stroke="#191970" points="506.5392,-21.1841 516.0763,-16.5698 505.7432,-14.2295 506.5392,-21.1841"/>
</g>
<!-- Node20&#45;&gt;Node10 -->
<g id="edge28" class="edge">
<title>Node20&#45;&gt;Node10</title>
<path fill="none" stroke="#191970" d="M218.7897,-58.1492C223.4401,-57.3273 228.0807,-56.5939 232.5837,-56 408.1725,-32.8407 948.5424,-16.7359 1137.5125,-11.6855"/>
<polygon fill="#191970" stroke="#191970" points="1137.6781,-15.1825 1147.5816,-11.418 1137.4922,-8.1849 1137.6781,-15.1825"/>
</g>
<!-- Node21&#45;&gt;Node3 -->
<g id="edge30" class="edge">
<title>Node21&#45;&gt;Node3</title>
<path fill="none" stroke="#191970" d="M660.7692,-649.4787C653.5177,-640.4106 642.6586,-626.2212 634.5837,-613 576.6709,-518.1781 556.5229,-495.1136 523.5837,-389 511.4765,-349.9967 507.0428,-302.1308 505.4496,-275.7704"/>
<polygon fill="#191970" stroke="#191970" points="508.9341,-275.3812 504.9133,-265.579 501.9437,-275.7491 508.9341,-275.3812"/>
</g>
<!-- Node21&#45;&gt;Node11 -->
<g id="edge34" class="edge">
<title>Node21&#45;&gt;Node11</title>
<path fill="none" stroke="#191970" d="M716.0873,-657.07C841.5473,-651.6873 1175.1873,-635.4196 1219.5837,-613 1303.5101,-570.6183 1333.0716,-447.0384 1341.6049,-398.7038"/>
<polygon fill="#191970" stroke="#191970" points="1345.0956,-399.0466 1343.269,-388.6104 1338.1888,-397.9078 1345.0956,-399.0466"/>
</g>
<!-- Node21&#45;&gt;Node15 -->
<g id="edge32" class="edge">
<title>Node21&#45;&gt;Node15</title>
<path fill="none" stroke="#191970" d="M716.5468,-657.1369C846.7268,-651.8073 1200.1176,-635.4291 1247.5837,-613 1351.782,-563.7634 1432.6956,-443.4118 1460.835,-397.3476"/>
<polygon fill="#191970" stroke="#191970" points="1463.8814,-399.073 1466.028,-388.6979 1457.88,-395.4699 1463.8814,-399.073"/>
</g>
<!-- Node22 -->
<g id="node23" class="node">
<title>Node22</title>
<polygon fill="#ffffff" stroke="#bfbfbf" points="660.5837,-369.5 660.5837,-388.5 770.5837,-388.5 770.5837,-369.5 660.5837,-369.5"/>
<text text-anchor="middle" x="715.5837" y="-376.5" font-family="Helvetica,sans-Serif" font-size="10.00" fill="#000000">odp/api/abi/event.h</text>
</g>
<!-- Node21&#45;&gt;Node22 -->
<g id="edge31" class="edge">
<title>Node21&#45;&gt;Node22</title>
<path fill="none" stroke="#191970" d="M668.5837,-649.4116C668.5837,-630.0538 668.5837,-584.9167 668.5837,-547 668.5837,-547 668.5837,-547 668.5837,-491 668.5837,-455.5481 688.8541,-418.3564 702.7708,-396.9999"/>
<polygon fill="#191970" stroke="#191970" points="705.7386,-398.8593 708.4454,-388.6161 699.9417,-394.9356 705.7386,-398.8593"/>
</g>
<!-- Node23 -->
<g id="node24" class="node">
<title>Node23</title>
<polygon fill="#ffffff" stroke="#bfbfbf" points="532.5837,-369.5 532.5837,-388.5 642.5837,-388.5 642.5837,-369.5 532.5837,-369.5"/>
<text text-anchor="middle" x="587.5837" y="-376.5" font-family="Helvetica,sans-Serif" font-size="10.00" fill="#000000">odp/api/abi/buffer.h</text>
</g>
<!-- Node21&#45;&gt;Node23 -->
<g id="edge33" class="edge">
<title>Node21&#45;&gt;Node23</title>
<path fill="none" stroke="#191970" d="M662.9767,-649.4834C652.4063,-630.6141 630.5837,-586.8343 630.5837,-547 630.5837,-547 630.5837,-547 630.5837,-491 630.5837,-456.1403 612.2044,-418.9899 599.4778,-397.444"/>
<polygon fill="#191970" stroke="#191970" points="602.3289,-395.3983 594.1145,-388.7069 596.3631,-399.0603 602.3289,-395.3983"/>
</g>
<!-- Node24 -->
<g id="node25" class="node">
<title>Node24</title>
<g id="a_node25"><a xlink:href="api_2spec_2queue_8h.html" target="_top" xlink:title="ODP queue. ">
<polygon fill="#ffffff" stroke="#000000" points="1090.5837,-593.5 1090.5837,-612.5 1210.5837,-612.5 1210.5837,-593.5 1090.5837,-593.5"/>
<text text-anchor="middle" x="1150.5837" y="-600.5" font-family="Helvetica,sans-Serif" font-size="10.00" fill="#000000">odp/api/spec/queue.h</text>
</a>
</g>
</g>
<!-- Node21&#45;&gt;Node24 -->
<g id="edge35" class="edge">
<title>Node21&#45;&gt;Node24</title>
<path fill="none" stroke="#191970" d="M716.1188,-653.4772C801.4214,-643.5666 980.8431,-622.7209 1080.3589,-611.1589"/>
<polygon fill="#191970" stroke="#191970" points="1080.7931,-614.6321 1090.3223,-610.0013 1079.9852,-607.6789 1080.7931,-614.6321"/>
</g>
<!-- Node24&#45;&gt;Node1 -->
<g id="edge36" class="edge">
<title>Node24&#45;&gt;Node1</title>
<path fill="none" stroke="#191970" d="M1152.1086,-593.2587C1158.5753,-551.3245 1182.806,-387.4798 1169.5837,-369 1087.0632,-253.6676 990.2921,-337.0905 867.5837,-266 805.6968,-230.1461 645.9222,-77.3037 593.512,-26.496"/>
<polygon fill="#191970" stroke="#191970" points="595.9291,-23.9645 586.3172,-19.5077 591.0519,-28.9858 595.9291,-23.9645"/>
</g>
<!-- Node24&#45;&gt;Node10 -->
<g id="edge72" class="edge">
<title>Node24&#45;&gt;Node10</title>
<path fill="none" stroke="#191970" d="M1157.2424,-593.2679C1163.4737,-584.0508 1172.9423,-569.7607 1180.5837,-557 1229.5311,-475.2609 1233.9561,-450.328 1283.5837,-369 1332.3513,-289.0813 1401.5837,-288.1231 1401.5837,-194.5 1401.5837,-194.5 1401.5837,-194.5 1401.5837,-133 1401.5837,-94.8373 1392.8665,-80.4727 1363.5837,-56 1348.0604,-43.0267 1301.6696,-30.4865 1262.8123,-21.7852"/>
<polygon fill="#191970" stroke="#191970" points="1263.1207,-18.2698 1252.6031,-19.5469 1261.6215,-25.1074 1263.1207,-18.2698"/>
</g>
<!-- Node25 -->
<g id="node26" class="node">
<title>Node25</title>
<g id="a_node26"><a xlink:href="api_2event_8h.html" target="_top" xlink:title="ODP event. ">
<polygon fill="#ffffff" stroke="#000000" points="932.5837,-537.5 932.5837,-556.5 1024.5837,-556.5 1024.5837,-537.5 932.5837,-537.5"/>
<text text-anchor="middle" x="978.5837" y="-544.5" font-family="Helvetica,sans-Serif" font-size="10.00" fill="#000000">odp/api/event.h</text>
</a>
</g>
</g>
<!-- Node24&#45;&gt;Node25 -->
<g id="edge37" class="edge">
<title>Node24&#45;&gt;Node25</title>
<path fill="none" stroke="#191970" d="M1121.0159,-593.3733C1092.4149,-584.0613 1048.9049,-569.8953 1017.5019,-559.671"/>
<polygon fill="#191970" stroke="#191970" points="1018.358,-556.269 1007.7657,-556.5011 1016.1909,-562.9251 1018.358,-556.269"/>
</g>
<!-- Node32 -->
<g id="node33" class="node">
<title>Node32</title>
<g id="a_node33"><a xlink:href="queue__types_8h.html" target="_top" xlink:title="ODP queue types. ">
<polygon fill="#ffffff" stroke="#000000" points="1164.0837,-302.5 1164.0837,-332.5 1275.0837,-332.5 1275.0837,-302.5 1164.0837,-302.5"/>
<text text-anchor="start" x="1172.0837" y="-320.5" font-family="Helvetica,sans-Serif" font-size="10.00" fill="#000000">odp/api/spec/queue</text>
<text text-anchor="middle" x="1219.5837" y="-309.5" font-family="Helvetica,sans-Serif" font-size="10.00" fill="#000000">_types.h</text>
</a>
</g>
</g>
<!-- Node24&#45;&gt;Node32 -->
<g id="edge59" class="edge">
<title>Node24&#45;&gt;Node32</title>
<path fill="none" stroke="#191970" d="M1153.7876,-593.1865C1156.7637,-583.9119 1161.2285,-569.5829 1164.5837,-557 1185.2551,-479.4771 1205.2369,-386.604 1214.3866,-342.7702"/>
<polygon fill="#191970" stroke="#191970" points="1217.8669,-343.2245 1216.4733,-332.7218 1211.0131,-341.8012 1217.8669,-343.2245"/>
</g>
<!-- Node25&#45;&gt;Node22 -->
<g id="edge38" class="edge">
<title>Node25&#45;&gt;Node22</title>
<path fill="none" stroke="#191970" d="M962.5259,-537.3586C932.8758,-519.4933 867.6271,-479.8838 813.5837,-445 787.2801,-428.0216 757.5069,-407.8286 737.7507,-394.289"/>
<polygon fill="#191970" stroke="#191970" points="739.6513,-391.3484 729.4268,-388.5717 735.6881,-397.1184 739.6513,-391.3484"/>
</g>
<!-- Node26 -->
<g id="node27" class="node">
<title>Node26</title>
<g id="a_node27"><a xlink:href="api_2spec_2event_8h.html" target="_top" xlink:title="ODP event. ">
<polygon fill="#ffffff" stroke="#000000" points="919.5837,-481.5 919.5837,-500.5 1037.5837,-500.5 1037.5837,-481.5 919.5837,-481.5"/>
<text text-anchor="middle" x="978.5837" y="-488.5" font-family="Helvetica,sans-Serif" font-size="10.00" fill="#000000">odp/api/spec/event.h</text>
</a>
</g>
</g>
<!-- Node25&#45;&gt;Node26 -->
<g id="edge39" class="edge">
<title>Node25&#45;&gt;Node26</title>
<path fill="none" stroke="#191970" d="M978.5837,-537.2455C978.5837,-529.9382 978.5837,-519.6944 978.5837,-510.7046"/>
<polygon fill="#191970" stroke="#191970" points="982.0838,-510.6426 978.5837,-500.6427 975.0838,-510.6427 982.0838,-510.6426"/>
</g>
<!-- Node26&#45;&gt;Node1 -->
<g id="edge40" class="edge">
<title>Node26&#45;&gt;Node1</title>
<path fill="none" stroke="#191970" d="M979.4863,-481.2776C981.0316,-459.424 982.1007,-405.4825 959.5837,-369 914.1451,-295.3792 698.6637,-208.8766 642.5837,-143 614.625,-110.1571 618.7839,-94.6225 599.5837,-56 595.1191,-47.019 590.1443,-37.0631 585.9666,-28.7169"/>
<polygon fill="#191970" stroke="#191970" points="588.962,-26.8818 581.3539,-19.5084 582.7033,-30.017 588.962,-26.8818"/>
</g>
<!-- Node26&#45;&gt;Node10 -->
<g id="edge58" class="edge">
<title>Node26&#45;&gt;Node10</title>
<path fill="none" stroke="#191970" d="M982.0726,-481.3763C989.9721,-460.169 1010.5033,-408.1834 1035.5837,-369 1106.4815,-258.2358 1148.4155,-248.7589 1226.5837,-143 1244.1704,-119.2058 1254.2458,-115.389 1262.5837,-87 1266.4663,-73.7806 1268.6297,-68.3803 1262.5837,-56 1256.1796,-42.8865 1244.0316,-32.4229 1232.4153,-24.8092"/>
<polygon fill="#191970" stroke="#191970" points="1234.1048,-21.7405 1223.7398,-19.5457 1230.4739,-27.7252 1234.1048,-21.7405"/>
</g>
<!-- Node26&#45;&gt;Node27 -->
<g id="edge41" class="edge">
<title>Node26&#45;&gt;Node27</title>
<path fill="none" stroke="#191970" d="M959.9457,-481.2455C943.1451,-472.4527 918.2203,-459.4079 899.1219,-449.4125"/>
<polygon fill="#191970" stroke="#191970" points="900.491,-446.1787 890.0081,-444.6427 897.2451,-452.3807 900.491,-446.1787"/>
</g>
<!-- Node27&#45;&gt;Node3 -->
<g id="edge42" class="edge">
<title>Node27&#45;&gt;Node3</title>
<path fill="none" stroke="#191970" d="M861.5126,-425.324C845.5447,-410.5895 812.8091,-382.7878 779.5837,-369 689.2873,-331.5289 646.1928,-383.6661 562.5837,-333 539.7587,-319.1683 522.8641,-292.6901 513.3685,-274.6882"/>
<polygon fill="#191970" stroke="#191970" points="516.4713,-273.0674 508.8637,-265.6934 510.2123,-276.202 516.4713,-273.0674"/>
</g>
<!-- Node27&#45;&gt;Node11 -->
<g id="edge48" class="edge">
<title>Node27&#45;&gt;Node11</title>
<path fill="none" stroke="#191970" d="M920.8644,-429.1655C1007.6172,-418.8946 1187.4034,-397.6091 1282.4953,-386.3508"/>
<polygon fill="#191970" stroke="#191970" points="1283.025,-389.8127 1292.5441,-385.1611 1282.2019,-382.8612 1283.025,-389.8127"/>
</g>
<!-- Node27&#45;&gt;Node13 -->
<g id="edge45" class="edge">
<title>Node27&#45;&gt;Node13</title>
<path fill="none" stroke="#191970" d="M911.0316,-425.4369C950.3993,-415.8932 1010.9871,-401.2052 1053.4545,-390.9101"/>
<polygon fill="#191970" stroke="#191970" points="1054.4047,-394.2812 1063.2986,-388.5237 1052.7554,-387.4783 1054.4047,-394.2812"/>
</g>
<!-- Node27&#45;&gt;Node14 -->
<g id="edge44" class="edge">
<title>Node27&#45;&gt;Node14</title>
<path fill="none" stroke="#191970" d="M822.1189,-429.832C728.0006,-419.9988 522.6185,-398.541 411.1637,-386.8964"/>
<polygon fill="#191970" stroke="#191970" points="411.3158,-383.3933 401.0062,-385.8352 410.5883,-390.3554 411.3158,-383.3933"/>
</g>
<!-- Node27&#45;&gt;Node15 -->
<g id="edge46" class="edge">
<title>Node27&#45;&gt;Node15</title>
<path fill="none" stroke="#191970" d="M920.6512,-431.8353C1013.1459,-425.6386 1219.8328,-410.6948 1404.5604,-389.0528"/>
<polygon fill="#191970" stroke="#191970" points="1405.213,-392.5001 1414.7335,-387.8514 1404.392,-385.5484 1405.213,-392.5001"/>
</g>
<!-- Node27&#45;&gt;Node22 -->
<g id="edge43" class="edge">
<title>Node27&#45;&gt;Node22</title>
<path fill="none" stroke="#191970" d="M844.7664,-425.3733C819.0505,-416.1419 780.0457,-402.1402 751.6238,-391.9375"/>
<polygon fill="#191970" stroke="#191970" points="752.6456,-388.5857 742.0511,-388.5011 750.2805,-395.174 752.6456,-388.5857"/>
</g>
<!-- Node27&#45;&gt;Node23 -->
<g id="edge47" class="edge">
<title>Node27&#45;&gt;Node23</title>
<path fill="none" stroke="#191970" d="M823.0851,-425.4369C774.0722,-415.7724 698.306,-400.8326 646.013,-390.5213"/>
<polygon fill="#191970" stroke="#191970" points="646.3705,-387.0244 635.8823,-388.5237 645.0163,-393.8922 646.3705,-387.0244"/>
</g>
<!-- Node28 -->
<g id="node29" class="node">
<title>Node28</title>
<g id="a_node29"><a xlink:href="api_2spec_2packet_8h.html" target="_top" xlink:title="ODP packet descriptor. ">
<polygon fill="#ffffff" stroke="#000000" points="827.0837,-369.5 827.0837,-388.5 950.0837,-388.5 950.0837,-369.5 827.0837,-369.5"/>
<text text-anchor="middle" x="888.5837" y="-376.5" font-family="Helvetica,sans-Serif" font-size="10.00" fill="#000000">odp/api/spec/packet.h</text>
</a>
</g>
</g>
<!-- Node27&#45;&gt;Node28 -->
<g id="edge49" class="edge">
<title>Node27&#45;&gt;Node28</title>
<path fill="none" stroke="#191970" d="M874.5449,-425.2455C876.7876,-417.8579 879.9414,-407.4689 882.6918,-398.4087"/>
<polygon fill="#191970" stroke="#191970" points="886.1007,-399.2282 885.6565,-388.6427 879.4025,-397.1948 886.1007,-399.2282"/>
</g>
<!-- Node28&#45;&gt;Node1 -->
<g id="edge50" class="edge">
<title>Node28&#45;&gt;Node1</title>
<path fill="none" stroke="#191970" d="M881.4334,-369.4483C862.8568,-345.2766 810.4674,-281.1129 752.5837,-246 708.6026,-219.3206 688.4357,-233.3178 642.5837,-210 621.5835,-199.3204 618.8041,-192.625 599.5837,-179 541.2449,-137.6447 500.6723,-150.3942 467.5837,-87 461.2085,-74.7859 459.9673,-67.4812 467.5837,-56 478.0742,-40.1864 495.1898,-29.7957 512.7821,-22.9732"/>
<polygon fill="#191970" stroke="#191970" points="514.2898,-26.1534 522.5657,-19.5383 511.9708,-19.5486 514.2898,-26.1534"/>
</g>
<!-- Node28&#45;&gt;Node10 -->
<g id="edge57" class="edge">
<title>Node28&#45;&gt;Node10</title>
<path fill="none" stroke="#191970" d="M898.6994,-369.303C923.5149,-345.8743 990.0259,-285.2307 1053.5837,-246 1086.4175,-225.7335 1100.565,-231.5312 1132.5837,-210 1168.5877,-185.7888 1174.5014,-175.1977 1203.5837,-143 1232.4946,-110.9921 1262.4158,-96.1209 1246.5837,-56 1242.0368,-44.4774 1233.0905,-34.143 1224.5303,-26.2024"/>
<polygon fill="#191970" stroke="#191970" points="1226.7684,-23.5106 1216.9147,-19.6175 1222.1899,-28.8057 1226.7684,-23.5106"/>
</g>
<!-- Node28&#45;&gt;Node29 -->
<g id="edge51" class="edge">
<title>Node28&#45;&gt;Node29</title>
<path fill="none" stroke="#191970" d="M846.0718,-369.4581C797.877,-358.6406 719.2647,-340.9959 667.2308,-329.3168"/>
<polygon fill="#191970" stroke="#191970" points="667.7191,-325.8394 657.1953,-327.0643 666.186,-332.6694 667.7191,-325.8394"/>
</g>
<!-- Node29&#45;&gt;Node3 -->
<g id="edge52" class="edge">
<title>Node29&#45;&gt;Node3</title>
<path fill="none" stroke="#191970" d="M597.3962,-307.8906C579.4755,-297.8713 551.1742,-282.0483 530.5314,-270.5071"/>
<polygon fill="#191970" stroke="#191970" points="532.087,-267.367 521.6505,-265.5419 528.671,-273.4769 532.087,-267.367"/>
</g>
<!-- Node30 -->
<g id="node31" class="node">
<title>Node30</title>
<polygon fill="#ffffff" stroke="#bfbfbf" points="638.0837,-246.5 638.0837,-265.5 743.0837,-265.5 743.0837,-246.5 638.0837,-246.5"/>
<text text-anchor="middle" x="690.5837" y="-253.5" font-family="Helvetica,sans-Serif" font-size="10.00" fill="#000000">odp/api/abi/time.h</text>
</g>
<!-- Node29&#45;&gt;Node30 -->
<g id="edge53" class="edge">
<title>Node29&#45;&gt;Node30</title>
<path fill="none" stroke="#191970" d="M626.4587,-307.8906C638.2134,-298.3786 656.4323,-283.6357 670.4509,-272.2917"/>
<polygon fill="#191970" stroke="#191970" points="672.9693,-274.7562 678.5413,-265.7449 668.5659,-269.3146 672.9693,-274.7562"/>
</g>
<!-- Node31 -->
<g id="node32" class="node">
<title>Node31</title>
<g id="a_node32"><a xlink:href="api_2spec_2time_8h.html" target="_top" xlink:title="ODP time. ">
<polygon fill="#ffffff" stroke="#000000" points="761.0837,-62 761.0837,-81 874.0837,-81 874.0837,-62 761.0837,-62"/>
<text text-anchor="middle" x="817.5837" y="-69" font-family="Helvetica,sans-Serif" font-size="10.00" fill="#000000">odp/api/spec/time.h</text>
</a>
</g>
</g>
<!-- Node29&#45;&gt;Node31 -->
<g id="edge54" class="edge">
<title>Node29&#45;&gt;Node31</title>
<path fill="none" stroke="#191970" d="M614.7932,-307.591C615.4949,-293.1476 618.3449,-265.8722 629.5837,-246 670.7528,-173.2057 752.6908,-113.3068 793.4283,-86.5572"/>
<polygon fill="#191970" stroke="#191970" points="795.4284,-89.432 801.9288,-81.0656 791.6298,-83.5522 795.4284,-89.432"/>
</g>
<!-- Node31&#45;&gt;Node1 -->
<g id="edge55" class="edge">
<title>Node31&#45;&gt;Node1</title>
<path fill="none" stroke="#191970" d="M780.1919,-61.9581C738.1547,-51.2308 669.8077,-33.7895 624.0391,-22.11"/>
<polygon fill="#191970" stroke="#191970" points="624.6182,-18.6457 614.0633,-19.5643 622.8873,-25.4283 624.6182,-18.6457"/>
</g>
<!-- Node31&#45;&gt;Node10 -->
<g id="edge56" class="edge">
<title>Node31&#45;&gt;Node10</title>
<path fill="none" stroke="#191970" d="M855.504,-61.9927C864.6641,-59.863 874.447,-57.7261 883.5837,-56 970.878,-39.5083 1072.5563,-25.8249 1137.4606,-17.7816"/>
<polygon fill="#191970" stroke="#191970" points="1138.0561,-21.2348 1147.5537,-16.5396 1137.2011,-14.2872 1138.0561,-21.2348"/>
</g>
<!-- Node32&#45;&gt;Node1 -->
<g id="edge60" class="edge">
<title>Node32&#45;&gt;Node1</title>
<path fill="none" stroke="#191970" d="M1176.2259,-302.4899C1085.5693,-270.1485 870.9332,-188.5307 708.5837,-87 690.104,-75.4431 688.9373,-67.7562 670.5837,-56 651.0413,-43.4823 627.5982,-32.004 609.0123,-23.6443"/>
<polygon fill="#191970" stroke="#191970" points="610.3439,-20.4063 599.7823,-19.568 607.5159,-26.8096 610.3439,-20.4063"/>
</g>
<!-- Node32&#45;&gt;Node10 -->
<g id="edge71" class="edge">
<title>Node32&#45;&gt;Node10</title>
<path fill="none" stroke="#191970" d="M1261.2345,-302.4879C1303.7632,-284.1648 1363.5837,-248.7496 1363.5837,-194.5 1363.5837,-194.5 1363.5837,-194.5 1363.5837,-133 1363.5837,-97.154 1364.6246,-81.6494 1339.5837,-56 1321.0611,-37.0273 1294.4485,-25.8794 1269.6678,-19.3294"/>
<polygon fill="#191970" stroke="#191970" points="1270.4635,-15.921 1259.9194,-16.9565 1268.8079,-22.7224 1270.4635,-15.921"/>
</g>
<!-- Node32&#45;&gt;Node17 -->
<g id="edge70" class="edge">
<title>Node32&#45;&gt;Node17</title>
<path fill="none" stroke="#191970" d="M1163.8133,-305.423C1113.3365,-294.4923 1039.4643,-278.4953 989.5537,-267.6872"/>
<polygon fill="#191970" stroke="#191970" points="990.1091,-264.2264 979.5948,-265.5306 988.6275,-271.0678 990.1091,-264.2264"/>
</g>
<!-- Node33 -->
<g id="node34" class="node">
<title>Node33</title>
<g id="a_node34"><a xlink:href="api_2schedule__types_8h.html" target="_top" xlink:title="ODP schedule. ">
<polygon fill="#ffffff" stroke="#000000" points="1149.5837,-246.5 1149.5837,-265.5 1289.5837,-265.5 1289.5837,-246.5 1149.5837,-246.5"/>
<text text-anchor="middle" x="1219.5837" y="-253.5" font-family="Helvetica,sans-Serif" font-size="10.00" fill="#000000">odp/api/schedule_types.h</text>
</a>
</g>
</g>
<!-- Node32&#45;&gt;Node33 -->
<g id="edge61" class="edge">
<title>Node32&#45;&gt;Node33</title>
<path fill="none" stroke="#191970" d="M1219.5837,-302.2977C1219.5837,-294.3834 1219.5837,-284.6043 1219.5837,-276.0759"/>
<polygon fill="#191970" stroke="#191970" points="1223.0838,-275.8469 1219.5837,-265.8469 1216.0838,-275.847 1223.0838,-275.8469"/>
</g>
<!-- Node34 -->
<g id="node35" class="node">
<title>Node34</title>
<polygon fill="#ffffff" stroke="#bfbfbf" points="1218.0837,-179.5 1218.0837,-209.5 1335.0837,-209.5 1335.0837,-179.5 1218.0837,-179.5"/>
<text text-anchor="start" x="1226.0837" y="-197.5" font-family="Helvetica,sans-Serif" font-size="10.00" fill="#000000">odp/api/abi/schedule</text>
<text text-anchor="middle" x="1276.5837" y="-186.5" font-family="Helvetica,sans-Serif" font-size="10.00" fill="#000000">_types.h</text>
</g>
<!-- Node33&#45;&gt;Node34 -->
<g id="edge62" class="edge">
<title>Node33&#45;&gt;Node34</title>
<path fill="none" stroke="#191970" d="M1228.49,-246.3906C1235.7756,-238.5298 1246.3724,-227.0964 1255.766,-216.9612"/>
<polygon fill="#191970" stroke="#191970" points="1258.4093,-219.2581 1262.6399,-209.5446 1253.2752,-214.4997 1258.4093,-219.2581"/>
</g>
<!-- Node35 -->
<g id="node36" class="node">
<title>Node35</title>
<g id="a_node36"><a xlink:href="api_2spec_2schedule__types_8h.html" target="_top" xlink:title="ODP schedule types. ">
<polygon fill="#ffffff" stroke="#000000" points="998.0837,-179.5 998.0837,-209.5 1123.0837,-209.5 1123.0837,-179.5 998.0837,-179.5"/>
<text text-anchor="start" x="1006.0837" y="-197.5" font-family="Helvetica,sans-Serif" font-size="10.00" fill="#000000">odp/api/spec/schedule</text>
<text text-anchor="middle" x="1060.5837" y="-186.5" font-family="Helvetica,sans-Serif" font-size="10.00" fill="#000000">_types.h</text>
</a>
</g>
</g>
<!-- Node33&#45;&gt;Node35 -->
<g id="edge63" class="edge">
<title>Node33&#45;&gt;Node35</title>
<path fill="none" stroke="#191970" d="M1194.74,-246.3906C1171.8265,-237.5279 1137.1724,-224.1239 1108.8251,-213.1594"/>
<polygon fill="#191970" stroke="#191970" points="1110.0688,-209.8878 1099.4795,-209.5446 1107.5435,-216.4165 1110.0688,-209.8878"/>
</g>
<!-- Node35&#45;&gt;Node1 -->
<g id="edge64" class="edge">
<title>Node35&#45;&gt;Node1</title>
<path fill="none" stroke="#191970" d="M1002.4258,-179.4405C938.9913,-161.8331 835.4442,-129.5907 752.5837,-87 731.308,-76.0642 729.862,-66.9307 708.5837,-56 681.0202,-41.8406 648.1139,-30.3622 622.0517,-22.4128"/>
<polygon fill="#191970" stroke="#191970" points="623.0069,-19.0454 612.4237,-19.5407 621.0059,-25.7533 623.0069,-19.0454"/>
</g>
<!-- Node35&#45;&gt;Node10 -->
<g id="edge69" class="edge">
<title>Node35&#45;&gt;Node10</title>
<path fill="none" stroke="#191970" d="M1107.289,-179.4896C1148.024,-163.6278 1204.5544,-134.2565 1230.5837,-87 1241.1367,-67.8408 1229.1374,-43.7816 1217.9514,-27.7031"/>
<polygon fill="#191970" stroke="#191970" points="1220.7503,-25.6015 1211.9691,-19.6735 1215.1369,-29.7837 1220.7503,-25.6015"/>
</g>
<!-- Node35&#45;&gt;Node36 -->
<g id="edge65" class="edge">
<title>Node35&#45;&gt;Node36</title>
<path fill="none" stroke="#191970" d="M1060.5837,-179.2977C1060.5837,-171.3834 1060.5837,-161.6043 1060.5837,-153.0759"/>
<polygon fill="#191970" stroke="#191970" points="1064.0838,-152.8469 1060.5837,-142.8469 1057.0838,-152.847 1064.0838,-152.8469"/>
</g>
<!-- Node37 -->
<g id="node38" class="node">
<title>Node37</title>
<g id="a_node38"><a xlink:href="spec_2support_8h.html" target="_top" xlink:title="ODP support API. ">
<polygon fill="#ffffff" stroke="#000000" points="1094.0837,-62 1094.0837,-81 1221.0837,-81 1221.0837,-62 1094.0837,-62"/>
<text text-anchor="middle" x="1157.5837" y="-69" font-family="Helvetica,sans-Serif" font-size="10.00" fill="#000000">odp/api/spec/support.h</text>
</a>
</g>
</g>
<!-- Node36&#45;&gt;Node37 -->
<g id="edge66" class="edge">
<title>Node36&#45;&gt;Node37</title>
<path fill="none" stroke="#191970" d="M1075.74,-123.3906C1091.258,-113.5519 1115.603,-98.1167 1133.7121,-86.6351"/>
<polygon fill="#191970" stroke="#191970" points="1135.9625,-89.3526 1142.5339,-81.0419 1132.2142,-83.4407 1135.9625,-89.3526"/>
</g>
<!-- Node37&#45;&gt;Node1 -->
<g id="edge67" class="edge">
<title>Node37&#45;&gt;Node1</title>
<path fill="none" stroke="#191970" d="M1093.9549,-62.1563C1078.47,-60.0092 1061.9448,-57.8234 1046.5837,-56 905.1348,-39.2093 739.2049,-24.0223 647.171,-15.9957"/>
<polygon fill="#191970" stroke="#191970" points="647.403,-12.5028 637.1375,-15.1235 646.7968,-19.4765 647.403,-12.5028"/>
</g>
<!-- Node37&#45;&gt;Node10 -->
<g id="edge68" class="edge">
<title>Node37&#45;&gt;Node10</title>
<path fill="none" stroke="#191970" d="M1164.7712,-61.8906C1171.5503,-52.8273 1181.8815,-39.0149 1190.1811,-27.9188"/>
<polygon fill="#191970" stroke="#191970" points="1193.108,-29.849 1196.2949,-19.7449 1187.5025,-25.6563 1193.108,-29.849"/>
</g>
<!-- Node39 -->
<g id="node40" class="node">
<title>Node39</title>
<g id="a_node40"><a xlink:href="spec_2threshold_8h.html" target="_top" xlink:title="ODP threshold descriptor. ">
<polygon fill="#ffffff" stroke="#000000" points="104.5837,-308 104.5837,-327 240.5837,-327 240.5837,-308 104.5837,-308"/>
<text text-anchor="middle" x="172.5837" y="-315" font-family="Helvetica,sans-Serif" font-size="10.00" fill="#000000">odp/api/spec/threshold.h</text>
</a>
</g>
</g>
<!-- Node38&#45;&gt;Node39 -->
<g id="edge78" class="edge">
<title>Node38&#45;&gt;Node39</title>
<path fill="none" stroke="#191970" d="M83.5837,-761.4116C83.5837,-742.0538 83.5837,-696.9167 83.5837,-659 83.5837,-659 83.5837,-659 83.5837,-603 83.5837,-497.9969 139.132,-380.7124 162.4596,-336.0881"/>
<polygon fill="#191970" stroke="#191970" points="165.6755,-337.4951 167.2829,-327.0229 159.4958,-334.207 165.6755,-337.4951"/>
</g>
<!-- Node39&#45;&gt;Node1 -->
<g id="edge79" class="edge">
<title>Node39&#45;&gt;Node1</title>
<path fill="none" stroke="#191970" d="M164.073,-307.7563C132.2677,-270.1682 25.7121,-132.8725 95.5837,-56 122.6053,-26.2709 378.5171,-15.2767 505.6362,-11.6255"/>
<polygon fill="#191970" stroke="#191970" points="505.7751,-15.1231 515.6733,-11.3448 505.5793,-8.1258 505.7751,-15.1231"/>
</g>
<!-- Node39&#45;&gt;Node3 -->
<g id="edge80" class="edge">
<title>Node39&#45;&gt;Node3</title>
<path fill="none" stroke="#191970" d="M224.0944,-307.9581C283.1857,-297.012 380.015,-279.0752 443.0282,-267.4026"/>
<polygon fill="#191970" stroke="#191970" points="444.0301,-270.7766 453.2253,-265.5137 442.7551,-263.8937 444.0301,-270.7766"/>
</g>
<!-- Node39&#45;&gt;Node10 -->
<g id="edge81" class="edge">
<title>Node39&#45;&gt;Node10</title>
<path fill="none" stroke="#191970" d="M173.9865,-307.8814C180.3224,-268.3351 210.1899,-117.4705 304.5837,-56 339.3587,-33.3541 935.4585,-16.6169 1137.3513,-11.5758"/>
<polygon fill="#191970" stroke="#191970" points="1137.6096,-15.0706 1147.5197,-11.3235 1137.4359,-8.0727 1137.6096,-15.0706"/>
</g>
</g>
</svg>
