<?xml version="1.0" encoding="UTF-8" standalone="no"?>
<!DOCTYPE svg PUBLIC "-//W3C//DTD SVG 1.1//EN"
 "http://www.w3.org/Graphics/SVG/1.1/DTD/svg11.dtd">
<!-- Generated by graphviz version 2.40.1 (20161225.0304)
 -->
<!-- Title: packet.h Pages: 1 -->
<svg width="704pt" height="700pt"
 viewBox="0.00 0.00 703.50 700.00" xmlns="http://www.w3.org/2000/svg" xmlns:xlink="http://www.w3.org/1999/xlink">
<g id="graph0" class="graph" transform="scale(1 1) rotate(0) translate(4 696)">
<title>packet.h</title>
<polygon fill="#ffffff" stroke="transparent" points="-4,4 -4,-696 699.5,-696 699.5,4 -4,4"/>
<!-- Node20 -->
<g id="node1" class="node">
<title>Node20</title>
<polygon fill="#bfbfbf" stroke="#000000" points="248.5,-672.5 248.5,-691.5 307.5,-691.5 307.5,-672.5 248.5,-672.5"/>
<text text-anchor="middle" x="278" y="-679.5" font-family="Helvetica,sans-Serif" font-size="10.00" fill="#000000">packet.h</text>
</g>
<!-- Node21 -->
<g id="node2" class="node">
<title>Node21</title>
<g id="a_node2"><a xlink:href="api_2spec_2comp_8h.html" target="_top" xlink:title="ODP Compression. ">
<polygon fill="#ffffff" stroke="#000000" points="43.5,-616.5 43.5,-635.5 96.5,-635.5 96.5,-616.5 43.5,-616.5"/>
<text text-anchor="middle" x="70" y="-623.5" font-family="Helvetica,sans-Serif" font-size="10.00" fill="#000000">comp.h</text>
</a>
</g>
</g>
<!-- Node20&#45;&gt;Node21 -->
<g id="edge1" class="edge">
<title>Node20&#45;&gt;Node21</title>
<path fill="none" stroke="#191970" d="M238.4138,-671.3422C196.8765,-660.1591 132.7264,-642.8879 96.7748,-633.2086"/>
<polygon fill="#191970" stroke="#191970" points="237.6326,-674.7564 248.1987,-673.9766 239.4524,-667.9971 237.6326,-674.7564"/>
</g>
<!-- Node23 -->
<g id="node4" class="node">
<title>Node23</title>
<g id="a_node4"><a xlink:href="odp__api_8h.html" target="_top" xlink:title="The OpenDataPlane API. ">
<polygon fill="#ffffff" stroke="#000000" points="225,-56.5 225,-75.5 289,-75.5 289,-56.5 225,-56.5"/>
<text text-anchor="middle" x="257" y="-63.5" font-family="Helvetica,sans-Serif" font-size="10.00" fill="#000000">odp_api.h</text>
</a>
</g>
</g>
<!-- Node20&#45;&gt;Node23 -->
<g id="edge38" class="edge">
<title>Node20&#45;&gt;Node23</title>
<path fill="none" stroke="#191970" d="M238.3639,-678.7439C177.7678,-673.0789 65.7694,-659.6893 34,-636 7.5476,-616.2754 0,-602.9968 0,-570 0,-570 0,-570 0,-178 0,-138.6547 25.1486,-132.0533 59,-112 86.7819,-95.5422 176.0227,-79.1078 224.6588,-71.0734"/>
<polygon fill="#191970" stroke="#191970" points="238.0633,-682.2309 248.339,-679.65 238.6967,-675.2596 238.0633,-682.2309"/>
</g>
<!-- Node25 -->
<g id="node6" class="node">
<title>Node25</title>
<g id="a_node6"><a xlink:href="api_2spec_2crypto_8h.html" target="_top" xlink:title="ODP crypto. ">
<polygon fill="#ffffff" stroke="#000000" points="266,-448.5 266,-467.5 322,-467.5 322,-448.5 266,-448.5"/>
<text text-anchor="middle" x="294" y="-455.5" font-family="Helvetica,sans-Serif" font-size="10.00" fill="#000000">crypto.h</text>
</a>
</g>
</g>
<!-- Node20&#45;&gt;Node25 -->
<g id="edge5" class="edge">
<title>Node20&#45;&gt;Node25</title>
<path fill="none" stroke="#191970" d="M279.4202,-662.1177C282.7378,-615.6713 290.8984,-501.4223 293.3151,-467.5891"/>
<polygon fill="#191970" stroke="#191970" points="275.909,-662.151 278.6875,-672.375 282.8912,-662.6498 275.909,-662.151"/>
</g>
<!-- Node29 -->
<g id="node10" class="node">
<title>Node29</title>
<g id="a_node10"><a xlink:href="api_2spec_2event_8h.html" target="_top" xlink:title="ODP event. ">
<polygon fill="#ffffff" stroke="#000000" points="183.5,-616.5 183.5,-635.5 236.5,-635.5 236.5,-616.5 183.5,-616.5"/>
<text text-anchor="middle" x="210" y="-623.5" font-family="Helvetica,sans-Serif" font-size="10.00" fill="#000000">event.h</text>
</a>
</g>
</g>
<!-- Node20&#45;&gt;Node29 -->
<g id="edge11" class="edge">
<title>Node20&#45;&gt;Node29</title>
<path fill="none" stroke="#191970" d="M258.1404,-665.645C246.3142,-655.9058 231.7108,-643.8795 221.709,-635.6427"/>
<polygon fill="#191970" stroke="#191970" points="256.211,-668.5902 266.1553,-672.2455 260.661,-663.1867 256.211,-668.5902"/>
</g>
<!-- Node33 -->
<g id="node14" class="node">
<title>Node33</title>
<g id="a_node14"><a xlink:href="api_2spec_2packet__io_8h.html" target="_top" xlink:title="ODP Packet IO. ">
<polygon fill="#ffffff" stroke="#000000" points="323.5,-392.5 323.5,-411.5 396.5,-411.5 396.5,-392.5 323.5,-392.5"/>
<text text-anchor="middle" x="360" y="-399.5" font-family="Helvetica,sans-Serif" font-size="10.00" fill="#000000">packet_io.h</text>
</a>
</g>
</g>
<!-- Node20&#45;&gt;Node33 -->
<g id="edge37" class="edge">
<title>Node20&#45;&gt;Node33</title>
<path fill="none" stroke="#191970" d="M298.5461,-665.8802C321.356,-646.0081 355,-609.9296 355,-570 355,-570 355,-570 355,-514 355,-476.0456 357.9011,-430.9282 359.2836,-411.5819"/>
<polygon fill="#191970" stroke="#191970" points="296.1297,-663.3386 290.715,-672.4453 300.6269,-668.703 296.1297,-663.3386"/>
</g>
<!-- Node41 -->
<g id="node22" class="node">
<title>Node41</title>
<g id="a_node22"><a xlink:href="api_2spec_2packet__flags_8h.html" target="_top" xlink:title="ODP packet flags. ">
<polygon fill="#ffffff" stroke="#000000" points="481.5,-560.5 481.5,-579.5 568.5,-579.5 568.5,-560.5 481.5,-560.5"/>
<text text-anchor="middle" x="525" y="-567.5" font-family="Helvetica,sans-Serif" font-size="10.00" fill="#000000">packet_flags.h</text>
</a>
</g>
</g>
<!-- Node20&#45;&gt;Node41 -->
<g id="edge34" class="edge">
<title>Node20&#45;&gt;Node41</title>
<path fill="none" stroke="#191970" d="M308.2213,-668.2964C359.0065,-645.2683 460.201,-599.3826 503.9942,-579.5249"/>
<polygon fill="#191970" stroke="#191970" points="306.7211,-665.1336 299.0591,-672.4509 309.612,-671.5088 306.7211,-665.1336"/>
</g>
<!-- Node22 -->
<g id="node3" class="node">
<title>Node22</title>
<g id="a_node3"><a xlink:href="api_2comp_8h.html" target="_top" xlink:title="ODP crypto. ">
<polygon fill="#ffffff" stroke="#000000" points="28.5,-504.5 28.5,-523.5 81.5,-523.5 81.5,-504.5 28.5,-504.5"/>
<text text-anchor="middle" x="55" y="-511.5" font-family="Helvetica,sans-Serif" font-size="10.00" fill="#000000">comp.h</text>
</a>
</g>
</g>
<!-- Node21&#45;&gt;Node22 -->
<g id="edge2" class="edge">
<title>Node21&#45;&gt;Node22</title>
<path fill="none" stroke="#191970" d="M67.3576,-606.2702C64.1069,-581.9985 58.7195,-541.7725 56.2757,-523.5249"/>
<polygon fill="#191970" stroke="#191970" points="63.9246,-607.0041 68.7211,-616.4509 70.8626,-606.0748 63.9246,-607.0041"/>
</g>
<!-- Node22&#45;&gt;Node23 -->
<g id="edge3" class="edge">
<title>Node22&#45;&gt;Node23</title>
<path fill="none" stroke="#191970" d="M55,-494.1952C55,-471.8128 55,-434.2884 55,-402 55,-402 55,-402 55,-178 55,-146.7875 55.8971,-132.9876 79,-112 100.2625,-92.6842 179.6251,-77.7896 224.8727,-70.6482"/>
<polygon fill="#191970" stroke="#191970" points="51.5001,-494.4116 55,-504.4116 58.5001,-494.4117 51.5001,-494.4116"/>
</g>
<!-- Node24 -->
<g id="node5" class="node">
<title>Node24</title>
<g id="a_node5"><a xlink:href="odp_8h.html" target="_top" xlink:title="WARNING: THIS FILE IS DEPRECATED AND WILL BE REMOVED!!! ODP APPLICATIONS SHOULD NOW INCLUDE odp_api...">
<polygon fill="#ffffff" stroke="#000000" points="235,-.5 235,-19.5 279,-19.5 279,-.5 235,-.5"/>
<text text-anchor="middle" x="257" y="-7.5" font-family="Helvetica,sans-Serif" font-size="10.00" fill="#000000">odp.h</text>
</a>
</g>
</g>
<!-- Node23&#45;&gt;Node24 -->
<g id="edge4" class="edge">
<title>Node23&#45;&gt;Node24</title>
<path fill="none" stroke="#191970" d="M257,-46.1575C257,-37.155 257,-26.9199 257,-19.6427"/>
<polygon fill="#191970" stroke="#191970" points="253.5001,-46.2455 257,-56.2455 260.5001,-46.2456 253.5001,-46.2455"/>
</g>
<!-- Node26 -->
<g id="node7" class="node">
<title>Node26</title>
<g id="a_node7"><a xlink:href="api_2crypto_8h.html" target="_top" xlink:title="ODP crypto. ">
<polygon fill="#ffffff" stroke="#000000" points="257,-336.5 257,-355.5 313,-355.5 313,-336.5 257,-336.5"/>
<text text-anchor="middle" x="285" y="-343.5" font-family="Helvetica,sans-Serif" font-size="10.00" fill="#000000">crypto.h</text>
</a>
</g>
</g>
<!-- Node25&#45;&gt;Node26 -->
<g id="edge6" class="edge">
<title>Node25&#45;&gt;Node26</title>
<path fill="none" stroke="#191970" d="M292.4146,-438.2702C290.4642,-413.9985 287.2317,-373.7725 285.7654,-355.5249"/>
<polygon fill="#191970" stroke="#191970" points="288.9428,-438.7635 293.2327,-448.4509 295.9203,-438.2027 288.9428,-438.7635"/>
</g>
<!-- Node26&#45;&gt;Node23 -->
<g id="edge10" class="edge">
<title>Node26&#45;&gt;Node23</title>
<path fill="none" stroke="#191970" d="M277.1585,-326.8271C268.8754,-304.8089 257,-267.4152 257,-234 257,-234 257,-234 257,-178 257,-140.0833 257,-94.9462 257,-75.5884"/>
<polygon fill="#191970" stroke="#191970" points="273.9674,-328.2771 280.8685,-336.3161 280.4868,-325.7281 273.9674,-328.2771"/>
</g>
<!-- Node27 -->
<g id="node8" class="node">
<title>Node27</title>
<g id="a_node8"><a xlink:href="api_2spec_2ipsec_8h.html" target="_top" xlink:title="ODP IPSEC API. ">
<polygon fill="#ffffff" stroke="#000000" points="307.5,-168.5 307.5,-187.5 358.5,-187.5 358.5,-168.5 307.5,-168.5"/>
<text text-anchor="middle" x="333" y="-175.5" font-family="Helvetica,sans-Serif" font-size="10.00" fill="#000000">ipsec.h</text>
</a>
</g>
</g>
<!-- Node26&#45;&gt;Node27 -->
<g id="edge7" class="edge">
<title>Node26&#45;&gt;Node27</title>
<path fill="none" stroke="#191970" d="M290.1953,-326.817C296.7473,-302.7528 308.4354,-260.2453 319,-224 322.6441,-211.4977 327.0457,-197.151 329.9284,-187.8504"/>
<polygon fill="#191970" stroke="#191970" points="286.8125,-325.9191 287.5689,-336.4869 293.5677,-327.754 286.8125,-325.9191"/>
</g>
<!-- Node28 -->
<g id="node9" class="node">
<title>Node28</title>
<g id="a_node9"><a xlink:href="api_2ipsec_8h.html" target="_top" xlink:title="ODP IPSEC API &#45; platform specific header. ">
<polygon fill="#ffffff" stroke="#000000" points="296.5,-112.5 296.5,-131.5 347.5,-131.5 347.5,-112.5 296.5,-112.5"/>
<text text-anchor="middle" x="322" y="-119.5" font-family="Helvetica,sans-Serif" font-size="10.00" fill="#000000">ipsec.h</text>
</a>
</g>
</g>
<!-- Node27&#45;&gt;Node28 -->
<g id="edge8" class="edge">
<title>Node27&#45;&gt;Node28</title>
<path fill="none" stroke="#191970" d="M329.1024,-158.1575C327.334,-149.155 325.3235,-138.9199 323.8941,-131.6427"/>
<polygon fill="#191970" stroke="#191970" points="325.722,-159.1077 331.0839,-168.2455 332.5908,-157.7584 325.722,-159.1077"/>
</g>
<!-- Node28&#45;&gt;Node23 -->
<g id="edge9" class="edge">
<title>Node28&#45;&gt;Node23</title>
<path fill="none" stroke="#191970" d="M303.0165,-105.645C291.7121,-95.9058 277.753,-83.8795 268.1924,-75.6427"/>
<polygon fill="#191970" stroke="#191970" points="300.8173,-108.3701 310.6779,-112.2455 305.3862,-103.0668 300.8173,-108.3701"/>
</g>
<!-- Node30 -->
<g id="node11" class="node">
<title>Node30</title>
<g id="a_node11"><a xlink:href="api_2event_8h.html" target="_top" xlink:title="ODP event. ">
<polygon fill="#ffffff" stroke="#000000" points="149.5,-560.5 149.5,-579.5 202.5,-579.5 202.5,-560.5 149.5,-560.5"/>
<text text-anchor="middle" x="176" y="-567.5" font-family="Helvetica,sans-Serif" font-size="10.00" fill="#000000">event.h</text>
</a>
</g>
</g>
<!-- Node29&#45;&gt;Node30 -->
<g id="edge12" class="edge">
<title>Node29&#45;&gt;Node30</title>
<path fill="none" stroke="#191970" d="M198.8465,-607.6296C193.1753,-598.2887 186.5155,-587.3197 181.8545,-579.6427"/>
<polygon fill="#191970" stroke="#191970" points="195.8961,-609.5141 204.0777,-616.2455 201.8796,-605.8812 195.8961,-609.5141"/>
</g>
<!-- Node30&#45;&gt;Node23 -->
<g id="edge33" class="edge">
<title>Node30&#45;&gt;Node23</title>
<path fill="none" stroke="#191970" d="M163.9699,-551.4575C140.9651,-514.1576 93,-426.7098 93,-346 93,-346 93,-346 93,-178 93,-114.7323 177.2628,-84.6194 224.9898,-72.6376"/>
<polygon fill="#191970" stroke="#191970" points="161.1954,-553.6197 169.4871,-560.215 167.1181,-549.8884 161.1954,-553.6197"/>
</g>
<!-- Node31 -->
<g id="node12" class="node">
<title>Node31</title>
<g id="a_node12"><a xlink:href="api_2spec_2queue_8h.html" target="_top" xlink:title="ODP queue. ">
<polygon fill="#ffffff" stroke="#000000" points="189,-504.5 189,-523.5 245,-523.5 245,-504.5 189,-504.5"/>
<text text-anchor="middle" x="217" y="-511.5" font-family="Helvetica,sans-Serif" font-size="10.00" fill="#000000">queue.h</text>
</a>
</g>
</g>
<!-- Node30&#45;&gt;Node31 -->
<g id="edge13" class="edge">
<title>Node30&#45;&gt;Node31</title>
<path fill="none" stroke="#191970" d="M189.2364,-551.9209C196.1211,-542.5176 204.2609,-531.3997 209.9402,-523.6427"/>
<polygon fill="#191970" stroke="#191970" points="186.2251,-550.1093 183.1417,-560.2455 191.8731,-554.2445 186.2251,-550.1093"/>
</g>
<!-- Node39 -->
<g id="node20" class="node">
<title>Node39</title>
<g id="a_node20"><a xlink:href="api_2spec_2schedule_8h.html" target="_top" xlink:title="ODP schedule. ">
<polygon fill="#ffffff" stroke="#000000" points="121.5,-392.5 121.5,-411.5 190.5,-411.5 190.5,-392.5 121.5,-392.5"/>
<text text-anchor="middle" x="156" y="-399.5" font-family="Helvetica,sans-Serif" font-size="10.00" fill="#000000">schedule.h</text>
</a>
</g>
</g>
<!-- Node30&#45;&gt;Node39 -->
<g id="edge32" class="edge">
<title>Node30&#45;&gt;Node39</title>
<path fill="none" stroke="#191970" d="M173.65,-550.2601C169.3532,-514.1669 160.3769,-438.7656 157.17,-411.8279"/>
<polygon fill="#191970" stroke="#191970" points="170.2097,-550.9701 174.8674,-560.4862 177.1607,-550.1426 170.2097,-550.9701"/>
</g>
<!-- Node32 -->
<g id="node13" class="node">
<title>Node32</title>
<g id="a_node13"><a xlink:href="api_2queue_8h.html" target="_top" xlink:title="ODP queue. ">
<polygon fill="#ffffff" stroke="#000000" points="191,-448.5 191,-467.5 247,-467.5 247,-448.5 191,-448.5"/>
<text text-anchor="middle" x="219" y="-455.5" font-family="Helvetica,sans-Serif" font-size="10.00" fill="#000000">queue.h</text>
</a>
</g>
</g>
<!-- Node31&#45;&gt;Node32 -->
<g id="edge14" class="edge">
<title>Node31&#45;&gt;Node32</title>
<path fill="none" stroke="#191970" d="M217.7087,-494.1575C218.0302,-485.155 218.3957,-474.9199 218.6556,-467.6427"/>
<polygon fill="#191970" stroke="#191970" points="214.2076,-494.127 217.3484,-504.2455 221.2032,-494.3769 214.2076,-494.127"/>
</g>
<!-- Node32&#45;&gt;Node23 -->
<g id="edge31" class="edge">
<title>Node32&#45;&gt;Node23</title>
<path fill="none" stroke="#191970" d="M219,-438.1952C219,-415.8128 219,-378.2884 219,-346 219,-346 219,-346 219,-178 219,-138.1657 240.8226,-94.3859 251.393,-75.5166"/>
<polygon fill="#191970" stroke="#191970" points="215.5001,-438.4116 219,-448.4116 222.5001,-438.4117 215.5001,-438.4116"/>
</g>
<!-- Node32&#45;&gt;Node26 -->
<g id="edge15" class="edge">
<title>Node32&#45;&gt;Node26</title>
<path fill="none" stroke="#191970" d="M229.8592,-439.5723C244.0671,-415.4618 268.4394,-374.1028 279.3871,-355.5249"/>
<polygon fill="#191970" stroke="#191970" points="226.6887,-438.0586 224.6271,-448.4509 232.7195,-441.6125 226.6887,-438.0586"/>
</g>
<!-- Node32&#45;&gt;Node33 -->
<g id="edge16" class="edge">
<title>Node32&#45;&gt;Node33</title>
<path fill="none" stroke="#191970" d="M252.6032,-444.6541C278.3159,-434.4419 313.1461,-420.6086 336.0775,-411.5011"/>
<polygon fill="#191970" stroke="#191970" points="251.2407,-441.4292 243.2388,-448.3733 253.8245,-447.9349 251.2407,-441.4292"/>
</g>
<!-- Node32&#45;&gt;Node39 -->
<g id="edge28" class="edge">
<title>Node32&#45;&gt;Node39</title>
<path fill="none" stroke="#191970" d="M200.2808,-441.3607C189.3818,-431.6727 176.0245,-419.7995 166.848,-411.6427"/>
<polygon fill="#191970" stroke="#191970" points="198.2268,-444.2178 208.0262,-448.2455 202.8774,-438.9859 198.2268,-444.2178"/>
</g>
<!-- Node34 -->
<g id="node15" class="node">
<title>Node34</title>
<g id="a_node15"><a xlink:href="api_2packet__io_8h.html" target="_top" xlink:title="ODP Packet IO. ">
<polygon fill="#ffffff" stroke="#000000" points="369.5,-336.5 369.5,-355.5 442.5,-355.5 442.5,-336.5 369.5,-336.5"/>
<text text-anchor="middle" x="406" y="-343.5" font-family="Helvetica,sans-Serif" font-size="10.00" fill="#000000">packet_io.h</text>
</a>
</g>
</g>
<!-- Node33&#45;&gt;Node34 -->
<g id="edge17" class="edge">
<title>Node33&#45;&gt;Node34</title>
<path fill="none" stroke="#191970" d="M374.3747,-384.5004C382.1971,-374.9775 391.576,-363.5596 398.0792,-355.6427"/>
<polygon fill="#191970" stroke="#191970" points="371.6555,-382.2967 368.0126,-392.2455 377.0646,-386.7399 371.6555,-382.2967"/>
</g>
<!-- Node34&#45;&gt;Node23 -->
<g id="edge27" class="edge">
<title>Node34&#45;&gt;Node23</title>
<path fill="none" stroke="#191970" d="M452.6417,-337.2871C492.4949,-328.9477 545.7386,-315.387 561,-300 582.4956,-278.3276 580,-264.5246 580,-234 580,-234 580,-234 580,-178 580,-116.8675 370.8504,-81.5977 289.1513,-70.1524"/>
<polygon fill="#191970" stroke="#191970" points="451.9259,-333.861 442.8293,-339.2928 453.3277,-340.7192 451.9259,-333.861"/>
</g>
<!-- Node34&#45;&gt;Node27 -->
<g id="edge22" class="edge">
<title>Node34&#45;&gt;Node27</title>
<path fill="none" stroke="#191970" d="M381.4369,-330.4483C371.0343,-322.5869 359.775,-312.1338 353,-300 332.0728,-262.5201 331.6373,-209.1397 332.4482,-187.5792"/>
<polygon fill="#191970" stroke="#191970" points="379.6754,-333.4899 389.8564,-336.4222 383.7261,-327.781 379.6754,-333.4899"/>
</g>
<!-- Node35 -->
<g id="node16" class="node">
<title>Node35</title>
<g id="a_node16"><a xlink:href="api_2spec_2classification_8h.html" target="_top" xlink:title="ODP classification descriptor. ">
<polygon fill="#ffffff" stroke="#000000" points="361.5,-280.5 361.5,-299.5 450.5,-299.5 450.5,-280.5 361.5,-280.5"/>
<text text-anchor="middle" x="406" y="-287.5" font-family="Helvetica,sans-Serif" font-size="10.00" fill="#000000">classification.h</text>
</a>
</g>
</g>
<!-- Node34&#45;&gt;Node35 -->
<g id="edge18" class="edge">
<title>Node34&#45;&gt;Node35</title>
<path fill="none" stroke="#191970" d="M406,-326.1575C406,-317.155 406,-306.9199 406,-299.6427"/>
<polygon fill="#191970" stroke="#191970" points="402.5001,-326.2455 406,-336.2455 409.5001,-326.2456 402.5001,-326.2455"/>
</g>
<!-- Node37 -->
<g id="node18" class="node">
<title>Node37</title>
<g id="a_node18"><a xlink:href="api_2spec_2traffic__mngr_8h.html" target="_top" xlink:title="Copyright (c) 2015&#45;2018, Linaro Limited All rights reserved. ">
<polygon fill="#ffffff" stroke="#000000" points="468,-280.5 468,-299.5 552,-299.5 552,-280.5 468,-280.5"/>
<text text-anchor="middle" x="510" y="-287.5" font-family="Helvetica,sans-Serif" font-size="10.00" fill="#000000">traffic_mngr.h</text>
</a>
</g>
</g>
<!-- Node34&#45;&gt;Node37 -->
<g id="edge23" class="edge">
<title>Node34&#45;&gt;Node37</title>
<path fill="none" stroke="#191970" d="M433.0029,-331.46C451.6136,-321.4388 475.8299,-308.3993 492.0922,-299.6427"/>
<polygon fill="#191970" stroke="#191970" points="431.2608,-328.4228 424.1154,-336.2455 434.5795,-334.5861 431.2608,-328.4228"/>
</g>
<!-- Node36 -->
<g id="node17" class="node">
<title>Node36</title>
<g id="a_node17"><a xlink:href="api_2classification_8h.html" target="_top" xlink:title="ODP classification descriptor. ">
<polygon fill="#ffffff" stroke="#000000" points="361.5,-224.5 361.5,-243.5 450.5,-243.5 450.5,-224.5 361.5,-224.5"/>
<text text-anchor="middle" x="406" y="-231.5" font-family="Helvetica,sans-Serif" font-size="10.00" fill="#000000">classification.h</text>
</a>
</g>
</g>
<!-- Node35&#45;&gt;Node36 -->
<g id="edge19" class="edge">
<title>Node35&#45;&gt;Node36</title>
<path fill="none" stroke="#191970" d="M406,-270.1575C406,-261.155 406,-250.9199 406,-243.6427"/>
<polygon fill="#191970" stroke="#191970" points="402.5001,-270.2455 406,-280.2455 409.5001,-270.2456 402.5001,-270.2455"/>
</g>
<!-- Node36&#45;&gt;Node23 -->
<g id="edge21" class="edge">
<title>Node36&#45;&gt;Node23</title>
<path fill="none" stroke="#191970" d="M402.6253,-214.5757C397.1353,-188.2721 383.943,-141.2591 356,-112 337.9366,-93.0857 310.5795,-81.1963 289.1976,-74.2544"/>
<polygon fill="#191970" stroke="#191970" points="399.2021,-215.3092 404.5271,-224.4686 406.0763,-213.9877 399.2021,-215.3092"/>
</g>
<!-- Node36&#45;&gt;Node27 -->
<g id="edge20" class="edge">
<title>Node36&#45;&gt;Node27</title>
<path fill="none" stroke="#191970" d="M385.049,-217.928C372.2893,-208.1397 356.4115,-195.9595 345.5699,-187.6427"/>
<polygon fill="#191970" stroke="#191970" points="383.2197,-220.9359 393.2844,-224.2455 387.4804,-215.3819 383.2197,-220.9359"/>
</g>
<!-- Node38 -->
<g id="node19" class="node">
<title>Node38</title>
<g id="a_node19"><a xlink:href="api_2traffic__mngr_8h.html" target="_top" xlink:title="ODP Traffic manager. ">
<polygon fill="#ffffff" stroke="#000000" points="468,-224.5 468,-243.5 552,-243.5 552,-224.5 468,-224.5"/>
<text text-anchor="middle" x="510" y="-231.5" font-family="Helvetica,sans-Serif" font-size="10.00" fill="#000000">traffic_mngr.h</text>
</a>
</g>
</g>
<!-- Node37&#45;&gt;Node38 -->
<g id="edge24" class="edge">
<title>Node37&#45;&gt;Node38</title>
<path fill="none" stroke="#191970" d="M510,-270.1575C510,-261.155 510,-250.9199 510,-243.6427"/>
<polygon fill="#191970" stroke="#191970" points="506.5001,-270.2455 510,-280.2455 513.5001,-270.2456 506.5001,-270.2455"/>
</g>
<!-- Node38&#45;&gt;Node23 -->
<g id="edge26" class="edge">
<title>Node38&#45;&gt;Node23</title>
<path fill="none" stroke="#191970" d="M495.196,-216.5891C472.3659,-190.6775 426.1425,-141.8266 378,-112 350.0121,-94.6601 314.4312,-82.1018 289.1134,-74.5311"/>
<polygon fill="#191970" stroke="#191970" points="492.8112,-219.1809 502.0106,-224.4365 498.0965,-214.5912 492.8112,-219.1809"/>
</g>
<!-- Node38&#45;&gt;Node27 -->
<g id="edge25" class="edge">
<title>Node38&#45;&gt;Node27</title>
<path fill="none" stroke="#191970" d="M469.9141,-221.3175C435.827,-210.5328 387.8973,-195.3686 358.7248,-186.1389"/>
<polygon fill="#191970" stroke="#191970" points="468.9826,-224.6937 479.5726,-224.3733 471.0942,-218.0197 468.9826,-224.6937"/>
</g>
<!-- Node40 -->
<g id="node21" class="node">
<title>Node40</title>
<g id="a_node21"><a xlink:href="api_2schedule_8h.html" target="_top" xlink:title="ODP schedule. ">
<polygon fill="#ffffff" stroke="#000000" points="121.5,-168.5 121.5,-187.5 190.5,-187.5 190.5,-168.5 121.5,-168.5"/>
<text text-anchor="middle" x="156" y="-175.5" font-family="Helvetica,sans-Serif" font-size="10.00" fill="#000000">schedule.h</text>
</a>
</g>
</g>
<!-- Node39&#45;&gt;Node40 -->
<g id="edge29" class="edge">
<title>Node39&#45;&gt;Node40</title>
<path fill="none" stroke="#191970" d="M156,-382.1177C156,-335.6713 156,-221.4223 156,-187.5891"/>
<polygon fill="#191970" stroke="#191970" points="152.5001,-382.375 156,-392.375 159.5001,-382.375 152.5001,-382.375"/>
</g>
<!-- Node40&#45;&gt;Node23 -->
<g id="edge30" class="edge">
<title>Node40&#45;&gt;Node23</title>
<path fill="none" stroke="#191970" d="M168.147,-159.5622C177.5283,-145.8665 191.2005,-127.0346 205,-112 217.5515,-98.3251 233.8196,-84.4565 244.7907,-75.5758"/>
<polygon fill="#191970" stroke="#191970" points="165.0711,-157.8638 162.3889,-168.1135 170.8775,-161.7736 165.0711,-157.8638"/>
</g>
<!-- Node42 -->
<g id="node23" class="node">
<title>Node42</title>
<g id="a_node23"><a xlink:href="api_2packet__flags_8h.html" target="_top" xlink:title="ODP packet flags. ">
<polygon fill="#ffffff" stroke="#000000" points="608.5,-112.5 608.5,-131.5 695.5,-131.5 695.5,-112.5 608.5,-112.5"/>
<text text-anchor="middle" x="652" y="-119.5" font-family="Helvetica,sans-Serif" font-size="10.00" fill="#000000">packet_flags.h</text>
</a>
</g>
</g>
<!-- Node41&#45;&gt;Node42 -->
<g id="edge35" class="edge">
<title>Node41&#45;&gt;Node42</title>
<path fill="none" stroke="#191970" d="M555.1023,-555.6023C587.6699,-537.6822 635,-503.7663 635,-458 635,-458 635,-458 635,-234 635,-195.649 644.8637,-150.7392 649.5643,-131.5144"/>
<polygon fill="#191970" stroke="#191970" points="553.1564,-552.6718 545.9491,-560.4375 556.426,-558.8613 553.1564,-552.6718"/>
</g>
<!-- Node42&#45;&gt;Node23 -->
<g id="edge36" class="edge">
<title>Node42&#45;&gt;Node23</title>
<path fill="none" stroke="#191970" d="M598.4077,-112.6901C596.9231,-112.4546 595.4516,-112.2241 594,-112 482.2446,-94.7441 349.1093,-77.5642 289.1158,-70.0026"/>
<polygon fill="#191970" stroke="#191970" points="597.8907,-116.1519 608.3226,-114.3006 599.0131,-109.2425 597.8907,-116.1519"/>
</g>
</g>
</svg>
