<?xml version="1.0" encoding="UTF-8" standalone="no"?>
<!DOCTYPE svg PUBLIC "-//W3C//DTD SVG 1.1//EN"
 "http://www.w3.org/Graphics/SVG/1.1/DTD/svg11.dtd">
<!-- Generated by graphviz version 2.40.1 (20161225.0304)
 -->
<!-- Title: queue.h Pages: 1 -->
<svg width="1319pt" height="610pt"
 viewBox="0.00 0.00 1319.00 610.00" xmlns="http://www.w3.org/2000/svg" xmlns:xlink="http://www.w3.org/1999/xlink">
<g id="graph0" class="graph" transform="scale(1 1) rotate(0) translate(4 606)">
<title>queue.h</title>
<polygon fill="#ffffff" stroke="transparent" points="-4,4 -4,-606 1315,-606 1315,4 -4,4"/>
<!-- Node0 -->
<g id="node1" class="node">
<title>Node0</title>
<polygon fill="#bfbfbf" stroke="#000000" points="316,-582.5 316,-601.5 372,-601.5 372,-582.5 316,-582.5"/>
<text text-anchor="middle" x="344" y="-589.5" font-family="Helvetica,sans-Serif" font-size="10.00" fill="#000000">queue.h</text>
</g>
<!-- Node1 -->
<g id="node2" class="node">
<title>Node1</title>
<g id="a_node2"><a xlink:href="visibility__begin_8h_source.html" target="_top" xlink:title="odp/visibility_begin.h">
<polygon fill="#ffffff" stroke="#000000" points="142.5,-.5 142.5,-19.5 263.5,-19.5 263.5,-.5 142.5,-.5"/>
<text text-anchor="middle" x="203" y="-7.5" font-family="Helvetica,sans-Serif" font-size="10.00" fill="#000000">odp/visibility_begin.h</text>
</a>
</g>
</g>
<!-- Node0&#45;&gt;Node1 -->
<g id="edge1" class="edge">
<title>Node0&#45;&gt;Node1</title>
<path fill="none" stroke="#191970" d="M315.849,-588.9769C233.6918,-579.381 0,-546.2623 0,-480 0,-480 0,-480 0,-122 0,-59.8834 73.7689,-31.9572 132.3678,-19.5727"/>
<polygon fill="#191970" stroke="#191970" points="133.2473,-22.9662 142.3683,-17.5757 131.8765,-16.1018 133.2473,-22.9662"/>
</g>
<!-- Node2 -->
<g id="node3" class="node">
<title>Node2</title>
<g id="a_node3"><a xlink:href="api_2event_8h.html" target="_top" xlink:title="ODP event. ">
<polygon fill="#ffffff" stroke="#000000" points="683,-526.5 683,-545.5 775,-545.5 775,-526.5 683,-526.5"/>
<text text-anchor="middle" x="729" y="-533.5" font-family="Helvetica,sans-Serif" font-size="10.00" fill="#000000">odp/api/event.h</text>
</a>
</g>
</g>
<!-- Node0&#45;&gt;Node2 -->
<g id="edge2" class="edge">
<title>Node0&#45;&gt;Node2</title>
<path fill="none" stroke="#191970" d="M372.31,-587.8822C435.5731,-578.6803 589.3936,-556.3064 672.8734,-544.1639"/>
<polygon fill="#191970" stroke="#191970" points="673.5481,-547.6026 682.9402,-542.6996 672.5405,-540.6755 673.5481,-547.6026"/>
</g>
<!-- Node13 -->
<g id="node14" class="node">
<title>Node13</title>
<g id="a_node14"><a xlink:href="visibility__end_8h_source.html" target="_top" xlink:title="odp/visibility_end.h">
<polygon fill="#ffffff" stroke="#000000" points="804,-.5 804,-19.5 916,-19.5 916,-.5 804,-.5"/>
<text text-anchor="middle" x="860" y="-7.5" font-family="Helvetica,sans-Serif" font-size="10.00" fill="#000000">odp/visibility_end.h</text>
</a>
</g>
</g>
<!-- Node0&#45;&gt;Node13 -->
<g id="edge50" class="edge">
<title>Node0&#45;&gt;Node13</title>
<path fill="none" stroke="#191970" d="M372.1566,-591.7733C531.2955,-590.1303 1311,-577.1246 1311,-480 1311,-480 1311,-480 1311,-122 1311,-43.7253 1051.8799,-19.764 926.4595,-12.7507"/>
<polygon fill="#191970" stroke="#191970" points="926.3814,-9.2416 916.2076,-12.1986 926.0048,-16.2314 926.3814,-9.2416"/>
</g>
<!-- Node23 -->
<g id="node24" class="node">
<title>Node23</title>
<g id="a_node24"><a xlink:href="queue__types_8h.html" target="_top" xlink:title="ODP queue types. ">
<polygon fill="#ffffff" stroke="#000000" points="146.5,-291.5 146.5,-321.5 257.5,-321.5 257.5,-291.5 146.5,-291.5"/>
<text text-anchor="start" x="154.5" y="-309.5" font-family="Helvetica,sans-Serif" font-size="10.00" fill="#000000">odp/api/spec/queue</text>
<text text-anchor="middle" x="202" y="-298.5" font-family="Helvetica,sans-Serif" font-size="10.00" fill="#000000">_types.h</text>
</a>
</g>
</g>
<!-- Node0&#45;&gt;Node23 -->
<g id="edge34" class="edge">
<title>Node0&#45;&gt;Node23</title>
<path fill="none" stroke="#191970" d="M315.8258,-586.4859C247.0179,-572.2158 76,-531.562 76,-480 76,-480 76,-480 76,-424 76,-378.3652 120.7539,-345.3903 156.917,-326.1942"/>
<polygon fill="#191970" stroke="#191970" points="158.5785,-329.2758 165.8935,-321.6114 155.3955,-323.0413 158.5785,-329.2758"/>
</g>
<!-- Node3 -->
<g id="node4" class="node">
<title>Node3</title>
<polygon fill="#ffffff" stroke="#bfbfbf" points="1135,-358.5 1135,-377.5 1245,-377.5 1245,-358.5 1135,-358.5"/>
<text text-anchor="middle" x="1190" y="-365.5" font-family="Helvetica,sans-Serif" font-size="10.00" fill="#000000">odp/api/abi/event.h</text>
</g>
<!-- Node2&#45;&gt;Node3 -->
<g id="edge3" class="edge">
<title>Node2&#45;&gt;Node3</title>
<path fill="none" stroke="#191970" d="M755.1062,-526.4862C833.2236,-498.0183 1065.2395,-413.4659 1154.4768,-380.9455"/>
<polygon fill="#191970" stroke="#191970" points="1155.6979,-384.2258 1163.8951,-377.5133 1153.3011,-377.6489 1155.6979,-384.2258"/>
</g>
<!-- Node4 -->
<g id="node5" class="node">
<title>Node4</title>
<g id="a_node5"><a xlink:href="api_2spec_2event_8h.html" target="_top" xlink:title="ODP event. ">
<polygon fill="#ffffff" stroke="#000000" points="670,-470.5 670,-489.5 788,-489.5 788,-470.5 670,-470.5"/>
<text text-anchor="middle" x="729" y="-477.5" font-family="Helvetica,sans-Serif" font-size="10.00" fill="#000000">odp/api/spec/event.h</text>
</a>
</g>
</g>
<!-- Node2&#45;&gt;Node4 -->
<g id="edge4" class="edge">
<title>Node2&#45;&gt;Node4</title>
<path fill="none" stroke="#191970" d="M729,-526.2455C729,-518.9382 729,-508.6944 729,-499.7046"/>
<polygon fill="#191970" stroke="#191970" points="732.5001,-499.6426 729,-489.6427 725.5001,-499.6427 732.5001,-499.6426"/>
</g>
<!-- Node4&#45;&gt;Node1 -->
<g id="edge5" class="edge">
<title>Node4&#45;&gt;Node1</title>
<path fill="none" stroke="#191970" d="M669.787,-477.7733C502.4292,-469.8836 38,-436.2962 38,-306.5 38,-306.5 38,-306.5 38,-122 38,-67.0984 101.3103,-37.2384 149.4978,-22.4624"/>
<polygon fill="#191970" stroke="#191970" points="150.6008,-25.7865 159.2162,-19.62 148.6358,-19.068 150.6008,-25.7865"/>
</g>
<!-- Node5 -->
<g id="node6" class="node">
<title>Node5</title>
<g id="a_node6"><a xlink:href="api_2packet_8h.html" target="_top" xlink:title="ODP packet descriptor. ">
<polygon fill="#ffffff" stroke="#000000" points="680,-414.5 680,-433.5 778,-433.5 778,-414.5 680,-414.5"/>
<text text-anchor="middle" x="729" y="-421.5" font-family="Helvetica,sans-Serif" font-size="10.00" fill="#000000">odp/api/packet.h</text>
</a>
</g>
</g>
<!-- Node4&#45;&gt;Node5 -->
<g id="edge6" class="edge">
<title>Node4&#45;&gt;Node5</title>
<path fill="none" stroke="#191970" d="M729,-470.2455C729,-462.9382 729,-452.6944 729,-443.7046"/>
<polygon fill="#191970" stroke="#191970" points="732.5001,-443.6426 729,-433.6427 725.5001,-443.6427 732.5001,-443.6426"/>
</g>
<!-- Node4&#45;&gt;Node13 -->
<g id="edge33" class="edge">
<title>Node4&#45;&gt;Node13</title>
<path fill="none" stroke="#191970" d="M788.2205,-476.2617C910.9071,-467.3186 1187.0044,-440.5983 1254,-378 1278.0252,-355.5517 1273,-339.3806 1273,-306.5 1273,-306.5 1273,-306.5 1273,-122 1273,-51.0572 1043.1352,-23.6303 926.3816,-14.2751"/>
<polygon fill="#191970" stroke="#191970" points="926.3704,-10.7637 916.1288,-13.4767 925.8269,-17.7426 926.3704,-10.7637"/>
</g>
<!-- Node5&#45;&gt;Node3 -->
<g id="edge18" class="edge">
<title>Node5&#45;&gt;Node3</title>
<path fill="none" stroke="#191970" d="M778.2824,-418.9247C851.5023,-411.2444 993.5933,-395.8045 1124.6438,-378.1421"/>
<polygon fill="#191970" stroke="#191970" points="1125.423,-381.5686 1134.8623,-376.7573 1124.4828,-374.632 1125.423,-381.5686"/>
</g>
<!-- Node6 -->
<g id="node7" class="node">
<title>Node6</title>
<g id="a_node7"><a xlink:href="api_2std__types_8h.html" target="_top" xlink:title="Standard C language types and definitions for ODP. ">
<polygon fill="#ffffff" stroke="#000000" points="780,-235.5 780,-254.5 892,-254.5 892,-235.5 780,-235.5"/>
<text text-anchor="middle" x="836" y="-242.5" font-family="Helvetica,sans-Serif" font-size="10.00" fill="#000000">odp/api/std_types.h</text>
</a>
</g>
</g>
<!-- Node5&#45;&gt;Node6 -->
<g id="edge7" class="edge">
<title>Node5&#45;&gt;Node6</title>
<path fill="none" stroke="#191970" d="M679.9958,-419.2329C627.772,-412.1317 556.1376,-395.3591 584,-358 617.5435,-313.0235 653.549,-344.3797 705,-322 745.0747,-304.5687 788.139,-277.4545 813.5432,-260.4879"/>
<polygon fill="#191970" stroke="#191970" points="815.7368,-263.2299 822.0654,-254.7329 811.8193,-257.4288 815.7368,-263.2299"/>
</g>
<!-- Node14 -->
<g id="node15" class="node">
<title>Node14</title>
<polygon fill="#ffffff" stroke="#bfbfbf" points="593,-358.5 593,-377.5 723,-377.5 723,-358.5 593,-358.5"/>
<text text-anchor="middle" x="658" y="-365.5" font-family="Helvetica,sans-Serif" font-size="10.00" fill="#000000">odp/api/abi/packet_io.h</text>
</g>
<!-- Node5&#45;&gt;Node14 -->
<g id="edge19" class="edge">
<title>Node5&#45;&gt;Node14</title>
<path fill="none" stroke="#191970" d="M716.6327,-414.2455C706.0446,-405.8943 690.5936,-393.7076 678.2107,-383.9408"/>
<polygon fill="#191970" stroke="#191970" points="680.2447,-381.0875 670.2255,-377.6427 675.9097,-386.5837 680.2447,-381.0875"/>
</g>
<!-- Node15 -->
<g id="node16" class="node">
<title>Node15</title>
<polygon fill="#ffffff" stroke="#bfbfbf" points="741,-358.5 741,-377.5 857,-377.5 857,-358.5 741,-358.5"/>
<text text-anchor="middle" x="799" y="-365.5" font-family="Helvetica,sans-Serif" font-size="10.00" fill="#000000">odp/api/abi/packet.h</text>
</g>
<!-- Node5&#45;&gt;Node15 -->
<g id="edge20" class="edge">
<title>Node5&#45;&gt;Node15</title>
<path fill="none" stroke="#191970" d="M741.1931,-414.2455C751.6321,-405.8943 766.8655,-393.7076 779.074,-383.9408"/>
<polygon fill="#191970" stroke="#191970" points="781.3244,-386.6227 786.9467,-377.6427 776.9515,-381.1566 781.3244,-386.6227"/>
</g>
<!-- Node16 -->
<g id="node17" class="node">
<title>Node16</title>
<polygon fill="#ffffff" stroke="#bfbfbf" points="875.5,-358.5 875.5,-377.5 988.5,-377.5 988.5,-358.5 875.5,-358.5"/>
<text text-anchor="middle" x="932" y="-365.5" font-family="Helvetica,sans-Serif" font-size="10.00" fill="#000000">odp/api/abi/queue.h</text>
</g>
<!-- Node5&#45;&gt;Node16 -->
<g id="edge21" class="edge">
<title>Node5&#45;&gt;Node16</title>
<path fill="none" stroke="#191970" d="M763.8969,-414.3733C798.0911,-404.9404 850.3415,-390.5265 887.5042,-380.2747"/>
<polygon fill="#191970" stroke="#191970" points="888.8493,-383.5345 897.5584,-377.5011 886.9877,-376.7865 888.8493,-383.5345"/>
</g>
<!-- Node17 -->
<g id="node18" class="node">
<title>Node17</title>
<polygon fill="#ffffff" stroke="#bfbfbf" points="1007,-358.5 1007,-377.5 1117,-377.5 1117,-358.5 1007,-358.5"/>
<text text-anchor="middle" x="1062" y="-365.5" font-family="Helvetica,sans-Serif" font-size="10.00" fill="#000000">odp/api/abi/buffer.h</text>
</g>
<!-- Node5&#45;&gt;Node17 -->
<g id="edge22" class="edge">
<title>Node5&#45;&gt;Node17</title>
<path fill="none" stroke="#191970" d="M778.1353,-415.737C836.0941,-405.9902 932.6578,-389.7512 996.8245,-378.9604"/>
<polygon fill="#191970" stroke="#191970" points="997.5527,-382.3872 1006.8338,-377.2772 996.3918,-375.4841 997.5527,-382.3872"/>
</g>
<!-- Node18 -->
<g id="node19" class="node">
<title>Node18</title>
<polygon fill="#ffffff" stroke="#bfbfbf" points="291,-358.5 291,-377.5 395,-377.5 395,-358.5 291,-358.5"/>
<text text-anchor="middle" x="343" y="-365.5" font-family="Helvetica,sans-Serif" font-size="10.00" fill="#000000">odp/api/abi/pool.h</text>
</g>
<!-- Node5&#45;&gt;Node18 -->
<g id="edge23" class="edge">
<title>Node5&#45;&gt;Node18</title>
<path fill="none" stroke="#191970" d="M679.8307,-417.3134C616.307,-408.6071 502.3182,-392.7553 405,-378 404.8989,-377.9847 404.7978,-377.9693 404.6965,-377.954"/>
<polygon fill="#191970" stroke="#191970" points="405.5003,-374.5366 395.084,-376.4738 404.4349,-381.455 405.5003,-374.5366"/>
</g>
<!-- Node19 -->
<g id="node20" class="node">
<title>Node19</title>
<g id="a_node20"><a xlink:href="api_2spec_2packet_8h.html" target="_top" xlink:title="ODP packet descriptor. ">
<polygon fill="#ffffff" stroke="#000000" points="413.5,-358.5 413.5,-377.5 536.5,-377.5 536.5,-358.5 413.5,-358.5"/>
<text text-anchor="middle" x="475" y="-365.5" font-family="Helvetica,sans-Serif" font-size="10.00" fill="#000000">odp/api/spec/packet.h</text>
</a>
</g>
</g>
<!-- Node5&#45;&gt;Node19 -->
<g id="edge24" class="edge">
<title>Node5&#45;&gt;Node19</title>
<path fill="none" stroke="#191970" d="M685.6244,-414.4369C642.063,-404.8328 574.8723,-390.0191 528.1366,-379.7152"/>
<polygon fill="#191970" stroke="#191970" points="528.7157,-376.2588 518.1966,-377.5237 527.2085,-383.0947 528.7157,-376.2588"/>
</g>
<!-- Node7 -->
<g id="node8" class="node">
<title>Node7</title>
<polygon fill="#ffffff" stroke="#bfbfbf" points="869,-174 869,-193 999,-193 999,-174 869,-174"/>
<text text-anchor="middle" x="934" y="-181" font-family="Helvetica,sans-Serif" font-size="10.00" fill="#000000">odp/api/abi/std_types.h</text>
</g>
<!-- Node6&#45;&gt;Node7 -->
<g id="edge8" class="edge">
<title>Node6&#45;&gt;Node7</title>
<path fill="none" stroke="#191970" d="M851.3125,-235.3906C867.0624,-225.5067 891.8123,-209.9749 910.1337,-198.4773"/>
<polygon fill="#191970" stroke="#191970" points="912.1852,-201.3221 918.795,-193.0419 908.4643,-195.3929 912.1852,-201.3221"/>
</g>
<!-- Node8 -->
<g id="node9" class="node">
<title>Node8</title>
<g id="a_node9"><a xlink:href="api_2spec_2std__types_8h.html" target="_top" xlink:title="Standard C language types and definitions for ODP. ">
<polygon fill="#ffffff" stroke="#000000" points="675.5,-174 675.5,-193 812.5,-193 812.5,-174 675.5,-174"/>
<text text-anchor="middle" x="744" y="-181" font-family="Helvetica,sans-Serif" font-size="10.00" fill="#000000">odp/api/spec/std_types.h</text>
</a>
</g>
</g>
<!-- Node6&#45;&gt;Node8 -->
<g id="edge9" class="edge">
<title>Node6&#45;&gt;Node8</title>
<path fill="none" stroke="#191970" d="M821.625,-235.3906C806.9069,-225.5519 783.8168,-210.1167 766.6411,-198.6351"/>
<polygon fill="#191970" stroke="#191970" points="768.5327,-195.6896 758.2741,-193.0419 764.6425,-201.5091 768.5327,-195.6896"/>
</g>
<!-- Node8&#45;&gt;Node1 -->
<g id="edge10" class="edge">
<title>Node8&#45;&gt;Node1</title>
<path fill="none" stroke="#191970" d="M675.2866,-180.1137C585.4033,-174.5873 433.8429,-161.1732 387,-132 352.2591,-110.3637 367.5064,-80.8676 335,-56 314.078,-39.9946 287.1672,-29.292 263.1074,-22.2729"/>
<polygon fill="#191970" stroke="#191970" points="263.9192,-18.8661 253.3482,-19.5772 262.0554,-25.6135 263.9192,-18.8661"/>
</g>
<!-- Node9 -->
<g id="node10" class="node">
<title>Node9</title>
<polygon fill="#ffffff" stroke="#bfbfbf" points="687.5,-112.5 687.5,-131.5 740.5,-131.5 740.5,-112.5 687.5,-112.5"/>
<text text-anchor="middle" x="714" y="-119.5" font-family="Helvetica,sans-Serif" font-size="10.00" fill="#000000">stdint.h</text>
</g>
<!-- Node8&#45;&gt;Node9 -->
<g id="edge11" class="edge">
<title>Node8&#45;&gt;Node9</title>
<path fill="none" stroke="#191970" d="M739.3125,-173.8906C735.0227,-165.0965 728.5518,-151.8312 723.2266,-140.9145"/>
<polygon fill="#191970" stroke="#191970" points="726.2836,-139.1981 718.7536,-131.7449 719.9922,-142.2671 726.2836,-139.1981"/>
</g>
<!-- Node10 -->
<g id="node11" class="node">
<title>Node10</title>
<g id="a_node11"><a xlink:href="api_2align_8h.html" target="_top" xlink:title="ODP alignments. ">
<polygon fill="#ffffff" stroke="#000000" points="758.5,-112.5 758.5,-131.5 847.5,-131.5 847.5,-112.5 758.5,-112.5"/>
<text text-anchor="middle" x="803" y="-119.5" font-family="Helvetica,sans-Serif" font-size="10.00" fill="#000000">odp/api/align.h</text>
</a>
</g>
</g>
<!-- Node8&#45;&gt;Node10 -->
<g id="edge12" class="edge">
<title>Node8&#45;&gt;Node10</title>
<path fill="none" stroke="#191970" d="M753.2188,-173.8906C762.0858,-164.6478 775.6912,-150.466 786.4389,-139.2628"/>
<polygon fill="#191970" stroke="#191970" points="789.2541,-141.3841 793.6513,-131.7449 784.2027,-136.5381 789.2541,-141.3841"/>
</g>
<!-- Node8&#45;&gt;Node13 -->
<g id="edge17" class="edge">
<title>Node8&#45;&gt;Node13</title>
<path fill="none" stroke="#191970" d="M791.5024,-173.9793C840.8595,-161.2106 915.2377,-133.1722 947,-76 960.2766,-52.1021 930.9928,-34.1859 902.8829,-23.0951"/>
<polygon fill="#191970" stroke="#191970" points="904.0511,-19.7954 893.4581,-19.5967 901.6151,-26.3579 904.0511,-19.7954"/>
</g>
<!-- Node11 -->
<g id="node12" class="node">
<title>Node11</title>
<polygon fill="#ffffff" stroke="#bfbfbf" points="830.5,-56.5 830.5,-75.5 937.5,-75.5 937.5,-56.5 830.5,-56.5"/>
<text text-anchor="middle" x="884" y="-63.5" font-family="Helvetica,sans-Serif" font-size="10.00" fill="#000000">odp/api/abi/align.h</text>
</g>
<!-- Node10&#45;&gt;Node11 -->
<g id="edge13" class="edge">
<title>Node10&#45;&gt;Node11</title>
<path fill="none" stroke="#191970" d="M817.1091,-112.2455C829.4209,-103.7337 847.4958,-91.2375 861.7538,-81.3801"/>
<polygon fill="#191970" stroke="#191970" points="863.8174,-84.2085 870.0526,-75.6427 859.8366,-78.4506 863.8174,-84.2085"/>
</g>
<!-- Node12 -->
<g id="node13" class="node">
<title>Node12</title>
<g id="a_node13"><a xlink:href="api_2spec_2align_8h.html" target="_top" xlink:title="ODP alignments. ">
<polygon fill="#ffffff" stroke="#000000" points="698,-56.5 698,-75.5 812,-75.5 812,-56.5 698,-56.5"/>
<text text-anchor="middle" x="755" y="-63.5" font-family="Helvetica,sans-Serif" font-size="10.00" fill="#000000">odp/api/spec/align.h</text>
</a>
</g>
</g>
<!-- Node10&#45;&gt;Node12 -->
<g id="edge14" class="edge">
<title>Node10&#45;&gt;Node12</title>
<path fill="none" stroke="#191970" d="M794.639,-112.2455C787.825,-104.2958 778.0319,-92.8706 769.8848,-83.3656"/>
<polygon fill="#191970" stroke="#191970" points="772.4305,-80.9575 763.2651,-75.6427 767.1157,-85.513 772.4305,-80.9575"/>
</g>
<!-- Node12&#45;&gt;Node1 -->
<g id="edge15" class="edge">
<title>Node12&#45;&gt;Node1</title>
<path fill="none" stroke="#191970" d="M697.7895,-57.1313C694.819,-56.7336 691.8756,-56.3537 689,-56 541.6927,-37.8834 368.5019,-23.0274 273.7698,-15.4485"/>
<polygon fill="#191970" stroke="#191970" points="273.9783,-11.9541 263.732,-14.6492 273.4226,-18.932 273.9783,-11.9541"/>
</g>
<!-- Node12&#45;&gt;Node13 -->
<g id="edge16" class="edge">
<title>Node12&#45;&gt;Node13</title>
<path fill="none" stroke="#191970" d="M773.2896,-56.2455C789.7762,-47.4527 814.2352,-34.4079 832.9765,-24.4125"/>
<polygon fill="#191970" stroke="#191970" points="834.7435,-27.4368 841.92,-19.6427 831.4494,-21.2604 834.7435,-27.4368"/>
</g>
<!-- Node19&#45;&gt;Node1 -->
<g id="edge25" class="edge">
<title>Node19&#45;&gt;Node1</title>
<path fill="none" stroke="#191970" d="M413.4292,-359.3073C410.2405,-358.8636 407.0828,-358.4257 404,-358 285.8214,-341.6806 241.9017,-380.6253 138,-322 99.7339,-300.4089 76,-288.9371 76,-245 76,-245 76,-245 76,-122 76,-73.155 129.4979,-40.5347 167.0499,-23.6541"/>
<polygon fill="#191970" stroke="#191970" points="168.8848,-26.6747 176.6855,-19.5053 166.1166,-20.2454 168.8848,-26.6747"/>
</g>
<!-- Node19&#45;&gt;Node13 -->
<g id="edge32" class="edge">
<title>Node19&#45;&gt;Node13</title>
<path fill="none" stroke="#191970" d="M536.5268,-358.6469C665.8694,-337.4923 958.1713,-281.3191 1008,-199 1030.7828,-161.3618 1017.3984,-100.8603 977,-56 962.5655,-39.9712 941.839,-29.4627 921.8297,-22.6011"/>
<polygon fill="#191970" stroke="#191970" points="922.6854,-19.2008 912.0953,-19.5174 920.5714,-25.8739 922.6854,-19.2008"/>
</g>
<!-- Node20 -->
<g id="node21" class="node">
<title>Node20</title>
<g id="a_node21"><a xlink:href="api_2time_8h.html" target="_top" xlink:title="ODP time. ">
<polygon fill="#ffffff" stroke="#000000" points="608.5,-297 608.5,-316 695.5,-316 695.5,-297 608.5,-297"/>
<text text-anchor="middle" x="652" y="-304" font-family="Helvetica,sans-Serif" font-size="10.00" fill="#000000">odp/api/time.h</text>
</a>
</g>
</g>
<!-- Node19&#45;&gt;Node20 -->
<g id="edge26" class="edge">
<title>Node19&#45;&gt;Node20</title>
<path fill="none" stroke="#191970" d="M502.6563,-358.3906C532.9211,-347.8749 581.5855,-330.966 615.0911,-319.3243"/>
<polygon fill="#191970" stroke="#191970" points="616.2407,-322.6302 624.538,-316.0419 613.9431,-316.0179 616.2407,-322.6302"/>
</g>
<!-- Node20&#45;&gt;Node6 -->
<g id="edge27" class="edge">
<title>Node20&#45;&gt;Node6</title>
<path fill="none" stroke="#191970" d="M680.75,-296.8906C712.2117,-286.3749 762.8008,-269.466 797.6314,-257.8243"/>
<polygon fill="#191970" stroke="#191970" points="799.0772,-261.0315 807.4519,-254.5419 796.8581,-254.3925 799.0772,-261.0315"/>
</g>
<!-- Node21 -->
<g id="node22" class="node">
<title>Node21</title>
<polygon fill="#ffffff" stroke="#bfbfbf" points="656.5,-235.5 656.5,-254.5 761.5,-254.5 761.5,-235.5 656.5,-235.5"/>
<text text-anchor="middle" x="709" y="-242.5" font-family="Helvetica,sans-Serif" font-size="10.00" fill="#000000">odp/api/abi/time.h</text>
</g>
<!-- Node20&#45;&gt;Node21 -->
<g id="edge28" class="edge">
<title>Node20&#45;&gt;Node21</title>
<path fill="none" stroke="#191970" d="M660.9063,-296.8906C669.4728,-287.6478 682.6169,-273.466 693.0003,-262.2628"/>
<polygon fill="#191970" stroke="#191970" points="695.7375,-264.4584 699.9682,-254.7449 690.6035,-259.7 695.7375,-264.4584"/>
</g>
<!-- Node22 -->
<g id="node23" class="node">
<title>Node22</title>
<g id="a_node23"><a xlink:href="api_2spec_2time_8h.html" target="_top" xlink:title="ODP time. ">
<polygon fill="#ffffff" stroke="#000000" points="566.5,-56.5 566.5,-75.5 679.5,-75.5 679.5,-56.5 566.5,-56.5"/>
<text text-anchor="middle" x="623" y="-63.5" font-family="Helvetica,sans-Serif" font-size="10.00" fill="#000000">odp/api/spec/time.h</text>
</a>
</g>
</g>
<!-- Node20&#45;&gt;Node22 -->
<g id="edge29" class="edge">
<title>Node20&#45;&gt;Node22</title>
<path fill="none" stroke="#191970" d="M650.8272,-296.7742C646.482,-260.739 631.2476,-134.3983 625.3534,-85.5168"/>
<polygon fill="#191970" stroke="#191970" points="628.8276,-85.0923 624.1556,-75.5833 621.878,-85.9304 628.8276,-85.0923"/>
</g>
<!-- Node22&#45;&gt;Node1 -->
<g id="edge30" class="edge">
<title>Node22&#45;&gt;Node1</title>
<path fill="none" stroke="#191970" d="M566.3569,-58.4476C490.5888,-48.3452 356.2573,-30.4343 273.8684,-19.4491"/>
<polygon fill="#191970" stroke="#191970" points="274.2133,-15.9642 263.8384,-18.1118 273.2881,-22.9028 274.2133,-15.9642"/>
</g>
<!-- Node22&#45;&gt;Node13 -->
<g id="edge31" class="edge">
<title>Node22&#45;&gt;Node13</title>
<path fill="none" stroke="#191970" d="M663.4725,-56.4369C703.948,-46.8731 766.2867,-32.1432 809.8703,-21.845"/>
<polygon fill="#191970" stroke="#191970" points="810.7673,-25.2295 819.6945,-19.5237 809.1576,-18.4171 810.7673,-25.2295"/>
</g>
<!-- Node23&#45;&gt;Node1 -->
<g id="edge35" class="edge">
<title>Node23&#45;&gt;Node1</title>
<path fill="none" stroke="#191970" d="M174.3088,-291.4347C160.3484,-282.5346 144.2502,-270.0576 134,-255 115.4315,-227.7227 114,-216.4976 114,-183.5 114,-183.5 114,-183.5 114,-122 114,-80.0503 152.7437,-44.7004 179.1057,-25.503"/>
<polygon fill="#191970" stroke="#191970" points="181.3144,-28.2292 187.4974,-19.6256 177.2987,-22.4956 181.3144,-28.2292"/>
</g>
<!-- Node23&#45;&gt;Node13 -->
<g id="edge49" class="edge">
<title>Node23&#45;&gt;Node13</title>
<path fill="none" stroke="#191970" d="M257.5522,-297.653C404.9005,-274.0821 796.2204,-210.7603 822,-199 841.83,-189.9538 842.2594,-180.6623 860,-168 909.6904,-132.5335 942.0451,-133.6959 962,-76 964.9055,-67.5994 966.8234,-63.4664 962,-56 951.8164,-40.2361 934.7925,-29.819 917.5415,-22.9582"/>
<polygon fill="#191970" stroke="#191970" points="918.5705,-19.6086 907.9762,-19.5012 916.1912,-26.1919 918.5705,-19.6086"/>
</g>
<!-- Node24 -->
<g id="node25" class="node">
<title>Node24</title>
<g id="a_node25"><a xlink:href="api_2schedule__types_8h.html" target="_top" xlink:title="ODP schedule. ">
<polygon fill="#ffffff" stroke="#000000" points="280,-235.5 280,-254.5 420,-254.5 420,-235.5 280,-235.5"/>
<text text-anchor="middle" x="350" y="-242.5" font-family="Helvetica,sans-Serif" font-size="10.00" fill="#000000">odp/api/schedule_types.h</text>
</a>
</g>
</g>
<!-- Node23&#45;&gt;Node24 -->
<g id="edge36" class="edge">
<title>Node23&#45;&gt;Node24</title>
<path fill="none" stroke="#191970" d="M238.2049,-291.4554C262.4658,-281.374 294.1356,-268.2139 317.5712,-258.4755"/>
<polygon fill="#191970" stroke="#191970" points="319.1739,-261.5997 327.0653,-254.5303 316.4877,-255.1356 319.1739,-261.5997"/>
</g>
<!-- Node29 -->
<g id="node30" class="node">
<title>Node29</title>
<g id="a_node30"><a xlink:href="deprecated_8h.html" target="_top" xlink:title="Control deprecated API definitions. ">
<polygon fill="#ffffff" stroke="#000000" points="142.5,-235.5 142.5,-254.5 261.5,-254.5 261.5,-235.5 142.5,-235.5"/>
<text text-anchor="middle" x="202" y="-242.5" font-family="Helvetica,sans-Serif" font-size="10.00" fill="#000000">odp/api/deprecated.h</text>
</a>
</g>
</g>
<!-- Node23&#45;&gt;Node29 -->
<g id="edge45" class="edge">
<title>Node23&#45;&gt;Node29</title>
<path fill="none" stroke="#191970" d="M202,-291.2977C202,-283.3834 202,-273.6043 202,-265.0759"/>
<polygon fill="#191970" stroke="#191970" points="205.5001,-264.8469 202,-254.8469 198.5001,-264.847 205.5001,-264.8469"/>
</g>
<!-- Node25 -->
<g id="node26" class="node">
<title>Node25</title>
<polygon fill="#ffffff" stroke="#bfbfbf" points="248.5,-168.5 248.5,-198.5 365.5,-198.5 365.5,-168.5 248.5,-168.5"/>
<text text-anchor="start" x="256.5" y="-186.5" font-family="Helvetica,sans-Serif" font-size="10.00" fill="#000000">odp/api/abi/schedule</text>
<text text-anchor="middle" x="307" y="-175.5" font-family="Helvetica,sans-Serif" font-size="10.00" fill="#000000">_types.h</text>
</g>
<!-- Node24&#45;&gt;Node25 -->
<g id="edge37" class="edge">
<title>Node24&#45;&gt;Node25</title>
<path fill="none" stroke="#191970" d="M343.2813,-235.3906C337.9467,-227.761 330.259,-216.7658 323.3321,-206.8588"/>
<polygon fill="#191970" stroke="#191970" points="326.1176,-204.7345 317.519,-198.5446 320.3808,-208.7456 326.1176,-204.7345"/>
</g>
<!-- Node26 -->
<g id="node27" class="node">
<title>Node26</title>
<g id="a_node27"><a xlink:href="api_2spec_2schedule__types_8h.html" target="_top" xlink:title="ODP schedule types. ">
<polygon fill="#ffffff" stroke="#000000" points="383.5,-168.5 383.5,-198.5 508.5,-198.5 508.5,-168.5 383.5,-168.5"/>
<text text-anchor="start" x="391.5" y="-186.5" font-family="Helvetica,sans-Serif" font-size="10.00" fill="#000000">odp/api/spec/schedule</text>
<text text-anchor="middle" x="446" y="-175.5" font-family="Helvetica,sans-Serif" font-size="10.00" fill="#000000">_types.h</text>
</a>
</g>
</g>
<!-- Node24&#45;&gt;Node26 -->
<g id="edge38" class="edge">
<title>Node24&#45;&gt;Node26</title>
<path fill="none" stroke="#191970" d="M365,-235.3906C377.9924,-227.0673 397.2368,-214.7389 413.7078,-204.1872"/>
<polygon fill="#191970" stroke="#191970" points="415.9834,-206.886 422.5158,-198.5446 412.2074,-200.9918 415.9834,-206.886"/>
</g>
<!-- Node26&#45;&gt;Node1 -->
<g id="edge39" class="edge">
<title>Node26&#45;&gt;Node1</title>
<path fill="none" stroke="#191970" d="M386.1224,-168.4434C313.2775,-148.7736 196.9015,-112.5192 172,-76 161.5072,-60.6119 173.3139,-41.1121 185.2544,-27.3091"/>
<polygon fill="#191970" stroke="#191970" points="187.8845,-29.6205 192.1327,-19.9146 182.7591,-24.8528 187.8845,-29.6205"/>
</g>
<!-- Node26&#45;&gt;Node13 -->
<g id="edge44" class="edge">
<title>Node26&#45;&gt;Node13</title>
<path fill="none" stroke="#191970" d="M466.0815,-168.4542C478.3314,-158.7642 493.9056,-145.4936 506,-132 533.3167,-101.5228 523.3446,-77.7731 558,-56 596.1967,-32.002 716.9816,-19.5855 793.7285,-13.9553"/>
<polygon fill="#191970" stroke="#191970" points="794.0626,-17.4405 803.7881,-13.2376 793.5643,-10.4583 794.0626,-17.4405"/>
</g>
<!-- Node27 -->
<g id="node28" class="node">
<title>Node27</title>
<g id="a_node28"><a xlink:href="support_8h.html" target="_top" xlink:title="ODP support API &#45; platform specific header. ">
<polygon fill="#ffffff" stroke="#000000" points="395.5,-112.5 395.5,-131.5 496.5,-131.5 496.5,-112.5 395.5,-112.5"/>
<text text-anchor="middle" x="446" y="-119.5" font-family="Helvetica,sans-Serif" font-size="10.00" fill="#000000">odp/api/support.h</text>
</a>
</g>
</g>
<!-- Node26&#45;&gt;Node27 -->
<g id="edge40" class="edge">
<title>Node26&#45;&gt;Node27</title>
<path fill="none" stroke="#191970" d="M446,-168.2977C446,-160.3834 446,-150.6043 446,-142.0759"/>
<polygon fill="#191970" stroke="#191970" points="449.5001,-141.8469 446,-131.8469 442.5001,-141.847 449.5001,-141.8469"/>
</g>
<!-- Node28 -->
<g id="node29" class="node">
<title>Node28</title>
<g id="a_node29"><a xlink:href="spec_2support_8h.html" target="_top" xlink:title="ODP support API. ">
<polygon fill="#ffffff" stroke="#000000" points="382.5,-56.5 382.5,-75.5 509.5,-75.5 509.5,-56.5 382.5,-56.5"/>
<text text-anchor="middle" x="446" y="-63.5" font-family="Helvetica,sans-Serif" font-size="10.00" fill="#000000">odp/api/spec/support.h</text>
</a>
</g>
</g>
<!-- Node27&#45;&gt;Node28 -->
<g id="edge41" class="edge">
<title>Node27&#45;&gt;Node28</title>
<path fill="none" stroke="#191970" d="M446,-112.2455C446,-104.9382 446,-94.6944 446,-85.7046"/>
<polygon fill="#191970" stroke="#191970" points="449.5001,-85.6426 446,-75.6427 442.5001,-85.6427 449.5001,-85.6426"/>
</g>
<!-- Node28&#45;&gt;Node1 -->
<g id="edge42" class="edge">
<title>Node28&#45;&gt;Node1</title>
<path fill="none" stroke="#191970" d="M404.5029,-56.4369C362.9153,-46.8529 298.8166,-32.0812 254.1169,-21.78"/>
<polygon fill="#191970" stroke="#191970" points="254.8565,-18.3588 244.3259,-19.5237 253.2845,-25.18 254.8565,-18.3588"/>
</g>
<!-- Node28&#45;&gt;Node13 -->
<g id="edge43" class="edge">
<title>Node28&#45;&gt;Node13</title>
<path fill="none" stroke="#191970" d="M509.7802,-57.3727C586.7319,-46.9638 715.4772,-29.549 793.5879,-18.9833"/>
<polygon fill="#191970" stroke="#191970" points="794.3528,-22.4118 803.7934,-17.6028 793.4145,-15.4749 794.3528,-22.4118"/>
</g>
<!-- Node30 -->
<g id="node31" class="node">
<title>Node30</title>
<g id="a_node31"><a xlink:href="spec_2deprecated_8h.html" target="_top" xlink:title="Macro for deprecated API definitions. ">
<polygon fill="#ffffff" stroke="#000000" points="180.5,-56.5 180.5,-75.5 325.5,-75.5 325.5,-56.5 180.5,-56.5"/>
<text text-anchor="middle" x="253" y="-63.5" font-family="Helvetica,sans-Serif" font-size="10.00" fill="#000000">odp/api/spec/deprecated.h</text>
</a>
</g>
</g>
<!-- Node29&#45;&gt;Node30 -->
<g id="edge46" class="edge">
<title>Node29&#45;&gt;Node30</title>
<path fill="none" stroke="#191970" d="M204.742,-235.3762C212.8017,-207.0883 236.5322,-123.7987 247.4223,-85.5767"/>
<polygon fill="#191970" stroke="#191970" points="250.8703,-86.2477 250.2445,-75.6714 244.1382,-84.3296 250.8703,-86.2477"/>
</g>
<!-- Node30&#45;&gt;Node1 -->
<g id="edge47" class="edge">
<title>Node30&#45;&gt;Node1</title>
<path fill="none" stroke="#191970" d="M244.2907,-56.2455C237.1927,-48.2958 226.9916,-36.8706 218.505,-27.3656"/>
<polygon fill="#191970" stroke="#191970" points="220.8805,-24.771 211.6095,-19.6427 215.6589,-29.4331 220.8805,-24.771"/>
</g>
<!-- Node30&#45;&gt;Node13 -->
<g id="edge48" class="edge">
<title>Node30&#45;&gt;Node13</title>
<path fill="none" stroke="#191970" d="M325.6155,-59.3007C444.5933,-48.3242 679.2598,-26.6745 793.8728,-16.1007"/>
<polygon fill="#191970" stroke="#191970" points="794.2795,-19.5781 803.9157,-15.1742 793.6364,-12.6077 794.2795,-19.5781"/>
</g>
</g>
</svg>
