<?xml version="1.0" encoding="UTF-8" standalone="no"?>
<!DOCTYPE svg PUBLIC "-//W3C//DTD SVG 1.1//EN"
 "http://www.w3.org/Graphics/SVG/1.1/DTD/svg11.dtd">
<!-- Generated by graphviz version 2.40.1 (20161225.0304)
 -->
<!-- Title: pool.h Pages: 1 -->
<svg width="659pt" height="375pt"
 viewBox="0.00 0.00 659.00 375.00" xmlns="http://www.w3.org/2000/svg" xmlns:xlink="http://www.w3.org/1999/xlink">
<g id="graph0" class="graph" transform="scale(1 1) rotate(0) translate(4 371)">
<title>pool.h</title>
<polygon fill="#ffffff" stroke="transparent" points="-4,4 -4,-371 655,-371 655,4 -4,4"/>
<!-- Node0 -->
<g id="node1" class="node">
<title>Node0</title>
<polygon fill="#bfbfbf" stroke="#000000" points="215.5,-347.5 215.5,-366.5 262.5,-366.5 262.5,-347.5 215.5,-347.5"/>
<text text-anchor="middle" x="239" y="-354.5" font-family="Helvetica,sans-Serif" font-size="10.00" fill="#000000">pool.h</text>
</g>
<!-- Node1 -->
<g id="node2" class="node">
<title>Node1</title>
<polygon fill="#ffffff" stroke="#bfbfbf" points="0,-286 0,-305 104,-305 104,-286 0,-286"/>
<text text-anchor="middle" x="52" y="-293" font-family="Helvetica,sans-Serif" font-size="10.00" fill="#000000">odp/api/abi/pool.h</text>
</g>
<!-- Node0&#45;&gt;Node1 -->
<g id="edge1" class="edge">
<title>Node0&#45;&gt;Node1</title>
<path fill="none" stroke="#191970" d="M215.3163,-349.211C183.9206,-338.8857 128.1249,-320.5357 90.5991,-308.1944"/>
<polygon fill="#191970" stroke="#191970" points="91.6001,-304.8392 81.0072,-305.0398 89.4132,-311.4888 91.6001,-304.8392"/>
</g>
<!-- Node2 -->
<g id="node3" class="node">
<title>Node2</title>
<polygon fill="#ffffff" stroke="#bfbfbf" points="122.5,-280.5 122.5,-310.5 229.5,-310.5 229.5,-280.5 122.5,-280.5"/>
<text text-anchor="start" x="130.5" y="-298.5" font-family="Helvetica,sans-Serif" font-size="10.00" fill="#000000">odp/api/abi/shared</text>
<text text-anchor="middle" x="176" y="-287.5" font-family="Helvetica,sans-Serif" font-size="10.00" fill="#000000">_memory.h</text>
</g>
<!-- Node0&#45;&gt;Node2 -->
<g id="edge2" class="edge">
<title>Node0&#45;&gt;Node2</title>
<path fill="none" stroke="#191970" d="M229.1563,-347.3906C221.0247,-339.4527 209.1614,-327.8718 198.7041,-317.6635"/>
<polygon fill="#191970" stroke="#191970" points="201.0122,-315.0255 191.4115,-310.5446 196.1224,-320.0345 201.0122,-315.0255"/>
</g>
<!-- Node3 -->
<g id="node4" class="node">
<title>Node3</title>
<polygon fill="#ffffff" stroke="#bfbfbf" points="248,-286 248,-305 358,-305 358,-286 248,-286"/>
<text text-anchor="middle" x="303" y="-293" font-family="Helvetica,sans-Serif" font-size="10.00" fill="#000000">odp/api/abi/event.h</text>
</g>
<!-- Node0&#45;&gt;Node3 -->
<g id="edge3" class="edge">
<title>Node0&#45;&gt;Node3</title>
<path fill="none" stroke="#191970" d="M249,-347.3906C258.7119,-338.0581 273.6639,-323.6902 285.3741,-312.4374"/>
<polygon fill="#191970" stroke="#191970" points="288.0736,-314.6974 292.859,-305.2449 283.2234,-309.65 288.0736,-314.6974"/>
</g>
<!-- Node4 -->
<g id="node5" class="node">
<title>Node4</title>
<g id="a_node5"><a xlink:href="api_2spec_2pool_8h.html" target="_top" xlink:title="ODP pool. ">
<polygon fill="#ffffff" stroke="#000000" points="376.5,-286 376.5,-305 487.5,-305 487.5,-286 376.5,-286"/>
<text text-anchor="middle" x="432" y="-293" font-family="Helvetica,sans-Serif" font-size="10.00" fill="#000000">odp/api/spec/pool.h</text>
</a>
</g>
</g>
<!-- Node0&#45;&gt;Node4 -->
<g id="edge4" class="edge">
<title>Node0&#45;&gt;Node4</title>
<path fill="none" stroke="#191970" d="M262.6656,-349.4589C294.9133,-339.1831 353.1044,-320.6403 392.146,-308.1996"/>
<polygon fill="#191970" stroke="#191970" points="393.6563,-311.3918 402.1216,-305.0208 391.5309,-304.7222 393.6563,-311.3918"/>
</g>
<!-- Node5 -->
<g id="node6" class="node">
<title>Node5</title>
<g id="a_node6"><a xlink:href="visibility__begin_8h_source.html" target="_top" xlink:title="odp/visibility_begin.h">
<polygon fill="#ffffff" stroke="#000000" points="238.5,-.5 238.5,-19.5 359.5,-19.5 359.5,-.5 238.5,-.5"/>
<text text-anchor="middle" x="299" y="-7.5" font-family="Helvetica,sans-Serif" font-size="10.00" fill="#000000">odp/visibility_begin.h</text>
</a>
</g>
</g>
<!-- Node4&#45;&gt;Node5 -->
<g id="edge5" class="edge">
<title>Node4&#45;&gt;Node5</title>
<path fill="none" stroke="#191970" d="M389.2906,-285.9843C338.6416,-271.8839 261,-240.1354 261,-178 261,-178 261,-178 261,-122 261,-87.6118 277.2634,-50.2832 288.511,-28.5791"/>
<polygon fill="#191970" stroke="#191970" points="291.7317,-29.9804 293.393,-19.5166 285.569,-26.6605 291.7317,-29.9804"/>
</g>
<!-- Node6 -->
<g id="node7" class="node">
<title>Node6</title>
<g id="a_node7"><a xlink:href="api_2std__types_8h.html" target="_top" xlink:title="Standard C language types and definitions for ODP. ">
<polygon fill="#ffffff" stroke="#000000" points="376,-224.5 376,-243.5 488,-243.5 488,-224.5 376,-224.5"/>
<text text-anchor="middle" x="432" y="-231.5" font-family="Helvetica,sans-Serif" font-size="10.00" fill="#000000">odp/api/std_types.h</text>
</a>
</g>
</g>
<!-- Node4&#45;&gt;Node6 -->
<g id="edge6" class="edge">
<title>Node4&#45;&gt;Node6</title>
<path fill="none" stroke="#191970" d="M432,-285.8906C432,-277.3657 432,-264.6392 432,-253.9235"/>
<polygon fill="#191970" stroke="#191970" points="435.5001,-253.7448 432,-243.7449 428.5001,-253.7449 435.5001,-253.7448"/>
</g>
<!-- Node13 -->
<g id="node14" class="node">
<title>Node13</title>
<g id="a_node14"><a xlink:href="visibility__end_8h_source.html" target="_top" xlink:title="odp/visibility_end.h">
<polygon fill="#ffffff" stroke="#000000" points="539,-.5 539,-19.5 651,-19.5 651,-.5 539,-.5"/>
<text text-anchor="middle" x="595" y="-7.5" font-family="Helvetica,sans-Serif" font-size="10.00" fill="#000000">odp/visibility_end.h</text>
</a>
</g>
</g>
<!-- Node4&#45;&gt;Node13 -->
<g id="edge17" class="edge">
<title>Node4&#45;&gt;Node13</title>
<path fill="none" stroke="#191970" d="M487.7228,-287.3011C547.2077,-275.0261 633,-245.604 633,-178 633,-178 633,-178 633,-122 633,-87.6118 616.7366,-50.2832 605.489,-28.5791"/>
<polygon fill="#191970" stroke="#191970" points="608.431,-26.6605 600.607,-19.5166 602.2683,-29.9804 608.431,-26.6605"/>
</g>
<!-- Node7 -->
<g id="node8" class="node">
<title>Node7</title>
<polygon fill="#ffffff" stroke="#bfbfbf" points="291,-168.5 291,-187.5 421,-187.5 421,-168.5 291,-168.5"/>
<text text-anchor="middle" x="356" y="-175.5" font-family="Helvetica,sans-Serif" font-size="10.00" fill="#000000">odp/api/abi/std_types.h</text>
</g>
<!-- Node6&#45;&gt;Node7 -->
<g id="edge7" class="edge">
<title>Node6&#45;&gt;Node7</title>
<path fill="none" stroke="#191970" d="M418.7618,-224.2455C407.319,-215.814 390.5704,-203.4729 377.2525,-193.6598"/>
<polygon fill="#191970" stroke="#191970" points="379.2133,-190.757 369.0865,-187.6427 375.0609,-196.3924 379.2133,-190.757"/>
</g>
<!-- Node8 -->
<g id="node9" class="node">
<title>Node8</title>
<g id="a_node9"><a xlink:href="api_2spec_2std__types_8h.html" target="_top" xlink:title="Standard C language types and definitions for ODP. ">
<polygon fill="#ffffff" stroke="#000000" points="439.5,-168.5 439.5,-187.5 576.5,-187.5 576.5,-168.5 439.5,-168.5"/>
<text text-anchor="middle" x="508" y="-175.5" font-family="Helvetica,sans-Serif" font-size="10.00" fill="#000000">odp/api/spec/std_types.h</text>
</a>
</g>
</g>
<!-- Node6&#45;&gt;Node8 -->
<g id="edge8" class="edge">
<title>Node6&#45;&gt;Node8</title>
<path fill="none" stroke="#191970" d="M445.2382,-224.2455C456.681,-215.814 473.4296,-203.4729 486.7475,-193.6598"/>
<polygon fill="#191970" stroke="#191970" points="488.9391,-196.3924 494.9135,-187.6427 484.7867,-190.757 488.9391,-196.3924"/>
</g>
<!-- Node8&#45;&gt;Node5 -->
<g id="edge9" class="edge">
<title>Node8&#45;&gt;Node5</title>
<path fill="none" stroke="#191970" d="M466.5696,-168.3978C421.6079,-155.5891 351.7328,-128.1971 318,-76 308.91,-61.9344 304.0751,-43.4361 301.5625,-29.603"/>
<polygon fill="#191970" stroke="#191970" points="305.0141,-29.0208 300.0084,-19.683 298.0984,-30.1043 305.0141,-29.0208"/>
</g>
<!-- Node9 -->
<g id="node10" class="node">
<title>Node9</title>
<polygon fill="#ffffff" stroke="#bfbfbf" points="393.5,-112.5 393.5,-131.5 446.5,-131.5 446.5,-112.5 393.5,-112.5"/>
<text text-anchor="middle" x="420" y="-119.5" font-family="Helvetica,sans-Serif" font-size="10.00" fill="#000000">stdint.h</text>
</g>
<!-- Node8&#45;&gt;Node9 -->
<g id="edge10" class="edge">
<title>Node8&#45;&gt;Node9</title>
<path fill="none" stroke="#191970" d="M492.6716,-168.2455C479.1697,-159.6534 459.2878,-147.0014 443.7314,-137.1018"/>
<polygon fill="#191970" stroke="#191970" points="445.4685,-134.0587 435.1528,-131.6427 441.7103,-139.9643 445.4685,-134.0587"/>
</g>
<!-- Node10 -->
<g id="node11" class="node">
<title>Node10</title>
<g id="a_node11"><a xlink:href="api_2align_8h.html" target="_top" xlink:title="ODP alignments. ">
<polygon fill="#ffffff" stroke="#000000" points="464.5,-112.5 464.5,-131.5 553.5,-131.5 553.5,-112.5 464.5,-112.5"/>
<text text-anchor="middle" x="509" y="-119.5" font-family="Helvetica,sans-Serif" font-size="10.00" fill="#000000">odp/api/align.h</text>
</a>
</g>
</g>
<!-- Node8&#45;&gt;Node10 -->
<g id="edge11" class="edge">
<title>Node8&#45;&gt;Node10</title>
<path fill="none" stroke="#191970" d="M508.1742,-168.2455C508.3047,-160.9382 508.4876,-150.6944 508.6481,-141.7046"/>
<polygon fill="#191970" stroke="#191970" points="512.1486,-141.7036 508.8278,-131.6427 505.1497,-141.5786 512.1486,-141.7036"/>
</g>
<!-- Node8&#45;&gt;Node13 -->
<g id="edge16" class="edge">
<title>Node8&#45;&gt;Node13</title>
<path fill="none" stroke="#191970" d="M524.0901,-168.4868C536.5167,-160.3249 553.1965,-147.451 563,-132 583.3465,-99.9325 590.8117,-55.3187 593.5106,-29.8773"/>
<polygon fill="#191970" stroke="#191970" points="597.0204,-29.928 594.4443,-19.6511 590.0494,-29.2914 597.0204,-29.928"/>
</g>
<!-- Node11 -->
<g id="node12" class="node">
<title>Node11</title>
<polygon fill="#ffffff" stroke="#bfbfbf" points="327.5,-56.5 327.5,-75.5 434.5,-75.5 434.5,-56.5 327.5,-56.5"/>
<text text-anchor="middle" x="381" y="-63.5" font-family="Helvetica,sans-Serif" font-size="10.00" fill="#000000">odp/api/abi/align.h</text>
</g>
<!-- Node10&#45;&gt;Node11 -->
<g id="edge12" class="edge">
<title>Node10&#45;&gt;Node11</title>
<path fill="none" stroke="#191970" d="M486.996,-112.3733C466.3565,-103.3435 435.2842,-89.7494 412.1111,-79.6111"/>
<polygon fill="#191970" stroke="#191970" points="413.2813,-76.3028 402.7169,-75.5011 410.4755,-82.7159 413.2813,-76.3028"/>
</g>
<!-- Node12 -->
<g id="node13" class="node">
<title>Node12</title>
<g id="a_node13"><a xlink:href="api_2spec_2align_8h.html" target="_top" xlink:title="ODP alignments. ">
<polygon fill="#ffffff" stroke="#000000" points="453,-56.5 453,-75.5 567,-75.5 567,-56.5 453,-56.5"/>
<text text-anchor="middle" x="510" y="-63.5" font-family="Helvetica,sans-Serif" font-size="10.00" fill="#000000">odp/api/spec/align.h</text>
</a>
</g>
</g>
<!-- Node10&#45;&gt;Node12 -->
<g id="edge13" class="edge">
<title>Node10&#45;&gt;Node12</title>
<path fill="none" stroke="#191970" d="M509.1742,-112.2455C509.3047,-104.9382 509.4876,-94.6944 509.6481,-85.7046"/>
<polygon fill="#191970" stroke="#191970" points="513.1486,-85.7036 509.8278,-75.6427 506.1497,-85.5786 513.1486,-85.7036"/>
</g>
<!-- Node12&#45;&gt;Node5 -->
<g id="edge14" class="edge">
<title>Node12&#45;&gt;Node5</title>
<path fill="none" stroke="#191970" d="M473.7278,-56.3733C438.0342,-46.9001 383.4121,-32.4032 344.7549,-22.1435"/>
<polygon fill="#191970" stroke="#191970" points="345.3621,-18.6835 334.7989,-19.5011 343.5664,-25.4493 345.3621,-18.6835"/>
</g>
<!-- Node12&#45;&gt;Node13 -->
<g id="edge15" class="edge">
<title>Node12&#45;&gt;Node13</title>
<path fill="none" stroke="#191970" d="M524.8059,-56.2455C537.7256,-47.7337 556.6931,-35.2375 571.6552,-25.3801"/>
<polygon fill="#191970" stroke="#191970" points="573.9387,-28.067 580.3638,-19.6427 570.0876,-22.2216 573.9387,-28.067"/>
</g>
</g>
</svg>
