<?xml version="1.0" encoding="UTF-8" standalone="no"?>
<!DOCTYPE svg PUBLIC "-//W3C//DTD SVG 1.1//EN"
 "http://www.w3.org/Graphics/SVG/1.1/DTD/svg11.dtd">
<!-- Generated by graphviz version 2.40.1 (20161225.0304)
 -->
<!-- Title: std_types.h Pages: 1 -->
<svg width="3169pt" height="308pt"
 viewBox="0.00 0.00 3169.46 308.00" xmlns="http://www.w3.org/2000/svg" xmlns:xlink="http://www.w3.org/1999/xlink">
<g id="graph0" class="graph" transform="scale(1 1) rotate(0) translate(4 304)">
<title>std_types.h</title>
<polygon fill="#ffffff" stroke="transparent" points="-4,4 -4,-304 3165.4625,-304 3165.4625,4 -4,4"/>
<!-- Node7 -->
<g id="node1" class="node">
<title>Node7</title>
<polygon fill="#bfbfbf" stroke="#000000" points="2148,-280.5 2148,-299.5 2221,-299.5 2221,-280.5 2148,-280.5"/>
<text text-anchor="middle" x="2184.5" y="-287.5" font-family="Helvetica,sans-Serif" font-size="10.00" fill="#000000">std_types.h</text>
</g>
<!-- Node8 -->
<g id="node2" class="node">
<title>Node8</title>
<g id="a_node2"><a xlink:href="api_2std__types_8h.html" target="_top" xlink:title="Standard C language types and definitions for ODP. ">
<polygon fill="#ffffff" stroke="#000000" points="2148,-224.5 2148,-243.5 2221,-243.5 2221,-224.5 2148,-224.5"/>
<text text-anchor="middle" x="2184.5" y="-231.5" font-family="Helvetica,sans-Serif" font-size="10.00" fill="#000000">std_types.h</text>
</a>
</g>
</g>
<!-- Node7&#45;&gt;Node8 -->
<g id="edge1" class="edge">
<title>Node7&#45;&gt;Node8</title>
<path fill="none" stroke="#191970" d="M2184.5,-270.1575C2184.5,-261.155 2184.5,-250.9199 2184.5,-243.6427"/>
<polygon fill="#191970" stroke="#191970" points="2181.0001,-270.2455 2184.5,-280.2455 2188.0001,-270.2456 2181.0001,-270.2455"/>
</g>
<!-- Node9 -->
<g id="node3" class="node">
<title>Node9</title>
<g id="a_node3"><a xlink:href="api_2abi-default_2atomic_8h.html" target="_top" xlink:title="ODP atomic operations. ">
<polygon fill="#ffffff" stroke="#000000" points="270,-168.5 270,-187.5 329,-187.5 329,-168.5 270,-168.5"/>
<text text-anchor="middle" x="299.5" y="-175.5" font-family="Helvetica,sans-Serif" font-size="10.00" fill="#000000">atomic.h</text>
</a>
</g>
</g>
<!-- Node8&#45;&gt;Node9 -->
<g id="edge2" class="edge">
<title>Node8&#45;&gt;Node9</title>
<path fill="none" stroke="#191970" d="M2137.5508,-232.6052C1870.2662,-224.6647 544.8849,-185.29 329.1927,-178.8821"/>
<polygon fill="#191970" stroke="#191970" points="2137.5921,-236.1079 2147.6916,-232.9065 2137.8,-229.111 2137.5921,-236.1079"/>
</g>
<!-- Node18 -->
<g id="node11" class="node">
<title>Node18</title>
<g id="a_node11"><a xlink:href="api_2abi-default_2barrier_8h.html" target="_top" xlink:title="ODP barrier. ">
<polygon fill="#ffffff" stroke="#000000" points="801,-168.5 801,-187.5 858,-187.5 858,-168.5 801,-168.5"/>
<text text-anchor="middle" x="829.5" y="-175.5" font-family="Helvetica,sans-Serif" font-size="10.00" fill="#000000">barrier.h</text>
</a>
</g>
</g>
<!-- Node8&#45;&gt;Node18 -->
<g id="edge10" class="edge">
<title>Node8&#45;&gt;Node18</title>
<path fill="none" stroke="#191970" d="M2137.5591,-232.1187C1983.3415,-225.9293 1478.2349,-205.5898 1060.5,-188 987.7073,-184.9349 902.0182,-181.1894 858.3092,-179.269"/>
<polygon fill="#191970" stroke="#191970" points="2137.4961,-235.6189 2147.6285,-232.5227 2137.7768,-228.6245 2137.4961,-235.6189"/>
</g>
<!-- Node26 -->
<g id="node19" class="node">
<title>Node26</title>
<g id="a_node19"><a xlink:href="api_2barrier_8h.html" target="_top" xlink:title="ODP execution barriers. ">
<polygon fill="#ffffff" stroke="#000000" points="1027,-56.5 1027,-75.5 1084,-75.5 1084,-56.5 1027,-56.5"/>
<text text-anchor="middle" x="1055.5" y="-63.5" font-family="Helvetica,sans-Serif" font-size="10.00" fill="#000000">barrier.h</text>
</a>
</g>
</g>
<!-- Node8&#45;&gt;Node26 -->
<g id="edge29" class="edge">
<title>Node8&#45;&gt;Node26</title>
<path fill="none" stroke="#191970" d="M2137.7876,-233.4721C1935.1943,-230.9983 1140.8288,-219.3274 1098.5,-188 1061.6748,-160.7458 1056.2343,-99.4568 1055.5436,-75.6826"/>
<polygon fill="#191970" stroke="#191970" points="2137.7699,-236.972 2147.8113,-233.5928 2137.8542,-229.9725 2137.7699,-236.972"/>
</g>
<!-- Node27 -->
<g id="node20" class="node">
<title>Node27</title>
<g id="a_node20"><a xlink:href="odp__api_8h.html" target="_top" xlink:title="The OpenDataPlane API. ">
<polygon fill="#ffffff" stroke="#ff0000" points="2186.5,-.5 2186.5,-19.5 2250.5,-19.5 2250.5,-.5 2186.5,-.5"/>
<text text-anchor="middle" x="2218.5" y="-7.5" font-family="Helvetica,sans-Serif" font-size="10.00" fill="#000000">odp_api.h</text>
</a>
</g>
</g>
<!-- Node8&#45;&gt;Node27 -->
<g id="edge64" class="edge">
<title>Node8&#45;&gt;Node27</title>
<path fill="none" stroke="#191970" d="M2137.6446,-233.7365C1937.9806,-232.3885 1166.7347,-224.8075 1131.5,-188 978.4374,-28.1049 1991.1002,-11.8351 2186.3321,-10.1854"/>
<polygon fill="#191970" stroke="#191970" points="2137.783,-237.2374 2147.8057,-233.803 2137.8289,-230.2375 2137.783,-237.2374"/>
</g>
<!-- Node56 -->
<g id="node21" class="node">
<title>Node56</title>
<g id="a_node21"><a xlink:href="api_2abi-default_2byteorder_8h.html" target="_top" xlink:title="ODP byteorder. ">
<polygon fill="#ffffff" stroke="#ff0000" points="1140.5,-168.5 1140.5,-187.5 1212.5,-187.5 1212.5,-168.5 1140.5,-168.5"/>
<text text-anchor="middle" x="1176.5" y="-175.5" font-family="Helvetica,sans-Serif" font-size="10.00" fill="#000000">byteorder.h</text>
</a>
</g>
</g>
<!-- Node8&#45;&gt;Node56 -->
<g id="edge20" class="edge">
<title>Node8&#45;&gt;Node56</title>
<path fill="none" stroke="#191970" d="M2137.579,-232.8223C1970.0497,-228.4514 1401.7777,-212.156 1221.5,-188 1218.6444,-187.6174 1215.7021,-187.1446 1212.7538,-186.6146"/>
<polygon fill="#191970" stroke="#191970" points="2137.7096,-236.3268 2147.7969,-233.087 2137.891,-229.3291 2137.7096,-236.3268"/>
</g>
<!-- Node65 -->
<g id="node22" class="node">
<title>Node65</title>
<g id="a_node22"><a xlink:href="api_2abi-default_2cpumask_8h.html" target="_top" xlink:title="ODP CPU masks and enumeration. ">
<polygon fill="#ffffff" stroke="#ff0000" points="1230.5,-168.5 1230.5,-187.5 1300.5,-187.5 1300.5,-168.5 1230.5,-168.5"/>
<text text-anchor="middle" x="1265.5" y="-175.5" font-family="Helvetica,sans-Serif" font-size="10.00" fill="#000000">cpumask.h</text>
</a>
</g>
</g>
<!-- Node8&#45;&gt;Node65 -->
<g id="edge21" class="edge">
<title>Node8&#45;&gt;Node65</title>
<path fill="none" stroke="#191970" d="M2137.4886,-232.59C1979.9824,-227.6994 1471.7021,-210.527 1309.5,-188 1306.7067,-187.6121 1303.8289,-187.1355 1300.9456,-186.6028"/>
<polygon fill="#191970" stroke="#191970" points="2137.6785,-236.0974 2147.7817,-232.9075 2137.8944,-229.1007 2137.6785,-236.0974"/>
</g>
<!-- Node89 -->
<g id="node23" class="node">
<title>Node89</title>
<g id="a_node23"><a xlink:href="api_2abi-default_2init_8h.html" target="_top" xlink:title="ODP initialization. ">
<polygon fill="#ffffff" stroke="#ff0000" points="1319,-168.5 1319,-187.5 1360,-187.5 1360,-168.5 1319,-168.5"/>
<text text-anchor="middle" x="1339.5" y="-175.5" font-family="Helvetica,sans-Serif" font-size="10.00" fill="#000000">init.h</text>
</a>
</g>
</g>
<!-- Node8&#45;&gt;Node89 -->
<g id="edge22" class="edge">
<title>Node8&#45;&gt;Node89</title>
<path fill="none" stroke="#191970" d="M2137.5645,-233.0514C1987.0114,-229.7421 1517.378,-217.279 1368.5,-188 1365.7827,-187.4656 1362.9728,-186.7357 1360.22,-185.9118"/>
<polygon fill="#191970" stroke="#191970" points="2137.7706,-236.5566 2147.8441,-233.2739 2137.9222,-229.5582 2137.7706,-236.5566"/>
</g>
<!-- Node97 -->
<g id="node24" class="node">
<title>Node97</title>
<g id="a_node24"><a xlink:href="api_2abi-default_2ipsec_8h.html" target="_top" xlink:title="ODP IPSEC API &#45; platform specific types. ">
<polygon fill="#ffffff" stroke="#ff0000" points="1378,-168.5 1378,-187.5 1429,-187.5 1429,-168.5 1378,-168.5"/>
<text text-anchor="middle" x="1403.5" y="-175.5" font-family="Helvetica,sans-Serif" font-size="10.00" fill="#000000">ipsec.h</text>
</a>
</g>
</g>
<!-- Node8&#45;&gt;Node97 -->
<g id="edge23" class="edge">
<title>Node8&#45;&gt;Node97</title>
<path fill="none" stroke="#191970" d="M2137.7982,-232.4973C1996.2018,-227.7243 1573.1203,-211.8078 1437.5,-188 1434.8335,-187.5319 1432.0793,-186.9293 1429.3462,-186.2523"/>
<polygon fill="#191970" stroke="#191970" points="2137.7794,-235.9985 2147.8908,-232.8346 2138.0134,-229.0024 2137.7794,-235.9985"/>
</g>
<!-- Node106 -->
<g id="node25" class="node">
<title>Node106</title>
<g id="a_node25"><a xlink:href="api_2abi-default_2packet__io_8h.html" target="_top" xlink:title="ODP Packet IO. ">
<polygon fill="#ffffff" stroke="#ff0000" points="1447,-168.5 1447,-187.5 1520,-187.5 1520,-168.5 1447,-168.5"/>
<text text-anchor="middle" x="1483.5" y="-175.5" font-family="Helvetica,sans-Serif" font-size="10.00" fill="#000000">packet_io.h</text>
</a>
</g>
</g>
<!-- Node8&#45;&gt;Node106 -->
<g id="edge24" class="edge">
<title>Node8&#45;&gt;Node106</title>
<path fill="none" stroke="#191970" d="M2137.5093,-233.018C2029.5794,-230.2576 1755.8376,-220.3779 1529.5,-188 1526.4257,-187.5602 1523.2505,-187.0307 1520.0722,-186.4477"/>
<polygon fill="#191970" stroke="#191970" points="2137.6485,-236.5224 2147.732,-233.2707 2137.8215,-229.5246 2137.6485,-236.5224"/>
</g>
<!-- Node38 -->
<g id="node26" class="node">
<title>Node38</title>
<g id="a_node26"><a xlink:href="api_2abi-default_2rwlock__recursive_8h.html" target="_top" xlink:title="ODP recursive read/write lock. ">
<polygon fill="#ffffff" stroke="#ff0000" points="1538.5,-168.5 1538.5,-187.5 1646.5,-187.5 1646.5,-168.5 1538.5,-168.5"/>
<text text-anchor="middle" x="1592.5" y="-175.5" font-family="Helvetica,sans-Serif" font-size="10.00" fill="#000000">rwlock_recursive.h</text>
</a>
</g>
</g>
<!-- Node8&#45;&gt;Node38 -->
<g id="edge25" class="edge">
<title>Node8&#45;&gt;Node38</title>
<path fill="none" stroke="#191970" d="M2137.712,-231.0469C2045.3253,-224.9693 1833.032,-209.781 1655.5,-188 1652.6421,-187.6494 1649.7148,-187.2668 1646.7618,-186.8624"/>
<polygon fill="#191970" stroke="#191970" points="2137.6437,-234.5498 2147.8505,-231.7088 2138.0998,-227.5647 2137.6437,-234.5498"/>
</g>
<!-- Node132 -->
<g id="node27" class="node">
<title>Node132</title>
<g id="a_node27"><a xlink:href="api_2abi-default_2schedule_8h.html" target="_top" xlink:title="ODP schedule. ">
<polygon fill="#ffffff" stroke="#ff0000" points="1665,-168.5 1665,-187.5 1734,-187.5 1734,-168.5 1665,-168.5"/>
<text text-anchor="middle" x="1699.5" y="-175.5" font-family="Helvetica,sans-Serif" font-size="10.00" fill="#000000">schedule.h</text>
</a>
</g>
</g>
<!-- Node8&#45;&gt;Node132 -->
<g id="edge26" class="edge">
<title>Node8&#45;&gt;Node132</title>
<path fill="none" stroke="#191970" d="M2137.3619,-230.9416C2056.4211,-225.2761 1885.9632,-211.5325 1743.5,-188 1740.4084,-187.4893 1737.2087,-186.8941 1734.0102,-186.2532"/>
<polygon fill="#191970" stroke="#191970" points="2137.4948,-234.459 2147.7121,-231.656 2137.9769,-227.4757 2137.4948,-234.459"/>
</g>
<!-- Node140 -->
<g id="node28" class="node">
<title>Node140</title>
<g id="a_node28"><a xlink:href="api_2abi-default_2spinlock__recursive_8h.html" target="_top" xlink:title="ODP recursive spinlock. ">
<polygon fill="#ffffff" stroke="#ff0000" points="1752.5,-168.5 1752.5,-187.5 1868.5,-187.5 1868.5,-168.5 1752.5,-168.5"/>
<text text-anchor="middle" x="1810.5" y="-175.5" font-family="Helvetica,sans-Serif" font-size="10.00" fill="#000000">spinlock_recursive.h</text>
</a>
</g>
</g>
<!-- Node8&#45;&gt;Node140 -->
<g id="edge27" class="edge">
<title>Node8&#45;&gt;Node140</title>
<path fill="none" stroke="#191970" d="M2137.9467,-227.0295C2069.829,-216.83 1943.0546,-197.8477 1868.8164,-186.7319"/>
<polygon fill="#191970" stroke="#191970" points="2137.5503,-230.509 2147.9583,-228.5285 2138.5869,-223.5862 2137.5503,-230.509"/>
</g>
<!-- Node149 -->
<g id="node29" class="node">
<title>Node149</title>
<g id="a_node29"><a xlink:href="api_2abi-default_2traffic__mngr_8h.html" target="_top" xlink:title="ODP traffic mngr. ">
<polygon fill="#ffffff" stroke="#ff0000" points="1886.5,-168.5 1886.5,-187.5 1970.5,-187.5 1970.5,-168.5 1886.5,-168.5"/>
<text text-anchor="middle" x="1928.5" y="-175.5" font-family="Helvetica,sans-Serif" font-size="10.00" fill="#000000">traffic_mngr.h</text>
</a>
</g>
</g>
<!-- Node8&#45;&gt;Node149 -->
<g id="edge28" class="edge">
<title>Node8&#45;&gt;Node149</title>
<path fill="none" stroke="#191970" d="M2137.7529,-223.7741C2090.0331,-213.3354 2016.6268,-197.2777 1970.6455,-187.2193"/>
<polygon fill="#191970" stroke="#191970" points="2137.3045,-227.2587 2147.8214,-225.9766 2138.8004,-220.4204 2137.3045,-227.2587"/>
</g>
<!-- Node157 -->
<g id="node30" class="node">
<title>Node157</title>
<g id="a_node30"><a xlink:href="api_2buffer_8h.html" target="_top" xlink:title="ODP buffer descriptor. ">
<polygon fill="#ffffff" stroke="#000000" points="1921,-56.5 1921,-75.5 1974,-75.5 1974,-56.5 1921,-56.5"/>
<text text-anchor="middle" x="1947.5" y="-63.5" font-family="Helvetica,sans-Serif" font-size="10.00" fill="#000000">buffer.h</text>
</a>
</g>
</g>
<!-- Node8&#45;&gt;Node157 -->
<g id="edge30" class="edge">
<title>Node8&#45;&gt;Node157</title>
<path fill="none" stroke="#191970" d="M2137.5564,-226.5185C2107.7014,-220.0333 2069.372,-208.3661 2040.5,-188 1996.3208,-156.8364 1963.7287,-98.3828 1952.1271,-75.5151"/>
<polygon fill="#191970" stroke="#191970" points="2137.2348,-230.0252 2147.7336,-228.602 2138.6388,-223.1674 2137.2348,-230.0252"/>
</g>
<!-- Node114 -->
<g id="node31" class="node">
<title>Node114</title>
<g id="a_node31"><a xlink:href="api_2classification_8h.html" target="_top" xlink:title="ODP classification descriptor. ">
<polygon fill="#ffffff" stroke="#ff0000" points="1992,-56.5 1992,-75.5 2081,-75.5 2081,-56.5 1992,-56.5"/>
<text text-anchor="middle" x="2036.5" y="-63.5" font-family="Helvetica,sans-Serif" font-size="10.00" fill="#000000">classification.h</text>
</a>
</g>
</g>
<!-- Node8&#45;&gt;Node114 -->
<g id="edge32" class="edge">
<title>Node8&#45;&gt;Node114</title>
<path fill="none" stroke="#191970" d="M2138.1379,-222.6443C2106.0762,-213.8431 2067.3151,-200.9939 2056.5,-188 2028.7642,-154.6766 2032.3465,-97.9821 2035.092,-75.5468"/>
<polygon fill="#191970" stroke="#191970" points="2137.2695,-226.035 2147.8346,-225.2414 2139.0806,-219.2734 2137.2695,-226.035"/>
</g>
<!-- Node120 -->
<g id="node32" class="node">
<title>Node120</title>
<g id="a_node32"><a xlink:href="api_2crypto_8h.html" target="_top" xlink:title="ODP crypto. ">
<polygon fill="#ffffff" stroke="#ff0000" points="2348.5,-112.5 2348.5,-131.5 2404.5,-131.5 2404.5,-112.5 2348.5,-112.5"/>
<text text-anchor="middle" x="2376.5" y="-119.5" font-family="Helvetica,sans-Serif" font-size="10.00" fill="#000000">crypto.h</text>
</a>
</g>
</g>
<!-- Node8&#45;&gt;Node120 -->
<g id="edge34" class="edge">
<title>Node8&#45;&gt;Node120</title>
<path fill="none" stroke="#191970" d="M2217.7298,-220.3684C2237.3163,-211.8927 2262.3286,-200.2934 2283.5,-188 2313.9761,-170.3037 2347.0331,-145.308 2364.348,-131.7191"/>
<polygon fill="#191970" stroke="#191970" points="2216.1371,-217.2426 2208.3117,-224.385 2218.8832,-223.6814 2216.1371,-217.2426"/>
</g>
<!-- Node116 -->
<g id="node33" class="node">
<title>Node116</title>
<g id="a_node33"><a xlink:href="api_2packet_8h.html" target="_top" xlink:title="ODP packet descriptor. ">
<polygon fill="#ffffff" stroke="#ff0000" points="2065,-168.5 2065,-187.5 2124,-187.5 2124,-168.5 2065,-168.5"/>
<text text-anchor="middle" x="2094.5" y="-175.5" font-family="Helvetica,sans-Serif" font-size="10.00" fill="#000000">packet.h</text>
</a>
</g>
</g>
<!-- Node8&#45;&gt;Node116 -->
<g id="edge36" class="edge">
<title>Node8&#45;&gt;Node116</title>
<path fill="none" stroke="#191970" d="M2160.0216,-218.769C2144.0734,-208.8456 2123.749,-196.1994 2109.9972,-187.6427"/>
<polygon fill="#191970" stroke="#191970" points="2158.4835,-221.9342 2168.8232,-224.2455 2162.1817,-215.9908 2158.4835,-221.9342"/>
</g>
<!-- Node130 -->
<g id="node34" class="node">
<title>Node130</title>
<g id="a_node34"><a xlink:href="api_2spec_2packet__flags_8h.html" target="_top" xlink:title="ODP packet flags. ">
<polygon fill="#ffffff" stroke="#ff0000" points="2103,-112.5 2103,-131.5 2190,-131.5 2190,-112.5 2103,-112.5"/>
<text text-anchor="middle" x="2146.5" y="-119.5" font-family="Helvetica,sans-Serif" font-size="10.00" fill="#000000">packet_flags.h</text>
</a>
</g>
</g>
<!-- Node8&#45;&gt;Node130 -->
<g id="edge51" class="edge">
<title>Node8&#45;&gt;Node130</title>
<path fill="none" stroke="#191970" d="M2178.0282,-214.9253C2169.8185,-190.7284 2155.9788,-149.9376 2149.7317,-131.5249"/>
<polygon fill="#191970" stroke="#191970" points="2174.7327,-216.1057 2181.2601,-224.4509 2181.3615,-213.8566 2174.7327,-216.1057"/>
</g>
<!-- Node126 -->
<g id="node35" class="node">
<title>Node126</title>
<g id="a_node35"><a xlink:href="api_2packet__io_8h.html" target="_top" xlink:title="ODP Packet IO. ">
<polygon fill="#ffffff" stroke="#ff0000" points="2181,-168.5 2181,-187.5 2254,-187.5 2254,-168.5 2181,-168.5"/>
<text text-anchor="middle" x="2217.5" y="-175.5" font-family="Helvetica,sans-Serif" font-size="10.00" fill="#000000">packet_io.h</text>
</a>
</g>
</g>
<!-- Node8&#45;&gt;Node126 -->
<g id="edge39" class="edge">
<title>Node8&#45;&gt;Node126</title>
<path fill="none" stroke="#191970" d="M2195.3254,-215.6296C2200.8299,-206.2887 2207.2937,-195.3197 2211.8177,-187.6427"/>
<polygon fill="#191970" stroke="#191970" points="2192.3097,-213.8532 2190.2482,-224.2455 2198.3405,-217.4071 2192.3097,-213.8532"/>
</g>
<!-- Node128 -->
<g id="node36" class="node">
<title>Node128</title>
<g id="a_node36"><a xlink:href="api_2spec_2traffic__mngr_8h.html" target="_top" xlink:title="Copyright (c) 2015&#45;2018, Linaro Limited All rights reserved. ">
<polygon fill="#ffffff" stroke="#ff0000" points="2246.5,-112.5 2246.5,-131.5 2330.5,-131.5 2330.5,-112.5 2246.5,-112.5"/>
<text text-anchor="middle" x="2288.5" y="-119.5" font-family="Helvetica,sans-Serif" font-size="10.00" fill="#000000">traffic_mngr.h</text>
</a>
</g>
</g>
<!-- Node8&#45;&gt;Node128 -->
<g id="edge57" class="edge">
<title>Node8&#45;&gt;Node128</title>
<path fill="none" stroke="#191970" d="M2219.5478,-220.0404C2234.7769,-212.4899 2251.7767,-201.8396 2263.5,-188 2277.7554,-171.1712 2284.3238,-145.3785 2286.9673,-131.5473"/>
<polygon fill="#191970" stroke="#191970" points="2217.9307,-216.9328 2210.3574,-224.3419 2220.8981,-223.2727 2217.9307,-216.9328"/>
</g>
<!-- Node124 -->
<g id="node37" class="node">
<title>Node124</title>
<g id="a_node37"><a xlink:href="api_2queue_8h.html" target="_top" xlink:title="ODP queue. ">
<polygon fill="#ffffff" stroke="#ff0000" points="2348.5,-168.5 2348.5,-187.5 2404.5,-187.5 2404.5,-168.5 2348.5,-168.5"/>
<text text-anchor="middle" x="2376.5" y="-175.5" font-family="Helvetica,sans-Serif" font-size="10.00" fill="#000000">queue.h</text>
</a>
</g>
</g>
<!-- Node8&#45;&gt;Node124 -->
<g id="edge42" class="edge">
<title>Node8&#45;&gt;Node124</title>
<path fill="none" stroke="#191970" d="M2227.4775,-221.4649C2264.3664,-210.7056 2316.4743,-195.5075 2348.2922,-186.2273"/>
<polygon fill="#191970" stroke="#191970" points="2226.126,-218.2132 2217.506,-224.3733 2228.086,-224.9332 2226.126,-218.2132"/>
</g>
<!-- Node83 -->
<g id="node38" class="node">
<title>Node83</title>
<g id="a_node38"><a xlink:href="api_2spec_2schedule_8h.html" target="_top" xlink:title="ODP schedule. ">
<polygon fill="#ffffff" stroke="#ff0000" points="2461,-112.5 2461,-131.5 2530,-131.5 2530,-112.5 2461,-112.5"/>
<text text-anchor="middle" x="2495.5" y="-119.5" font-family="Helvetica,sans-Serif" font-size="10.00" fill="#000000">schedule.h</text>
</a>
</g>
</g>
<!-- Node8&#45;&gt;Node83 -->
<g id="edge53" class="edge">
<title>Node8&#45;&gt;Node83</title>
<path fill="none" stroke="#191970" d="M2231.1207,-231.1507C2278.8806,-226.768 2354.3111,-215.7185 2413.5,-188 2443.6205,-173.8944 2472.3588,-146.4867 2486.4564,-131.8202"/>
<polygon fill="#191970" stroke="#191970" points="2230.7364,-227.6707 2221.0718,-232.0117 2231.3341,-234.6451 2230.7364,-227.6707"/>
</g>
<!-- Node158 -->
<g id="node39" class="node">
<title>Node158</title>
<g id="a_node39"><a xlink:href="spec_2chksum_8h.html" target="_top" xlink:title="ODP checksum functions. ">
<polygon fill="#ffffff" stroke="#ff0000" points="2460.5,-168.5 2460.5,-187.5 2524.5,-187.5 2524.5,-168.5 2460.5,-168.5"/>
<text text-anchor="middle" x="2492.5" y="-175.5" font-family="Helvetica,sans-Serif" font-size="10.00" fill="#000000">chksum.h</text>
</a>
</g>
</g>
<!-- Node8&#45;&gt;Node158 -->
<g id="edge46" class="edge">
<title>Node8&#45;&gt;Node158</title>
<path fill="none" stroke="#191970" d="M2231.0446,-226.4095C2283.5102,-217.7184 2371.3035,-202.7685 2446.5,-188 2450.9909,-187.118 2455.7182,-186.1433 2460.3636,-185.1588"/>
<polygon fill="#191970" stroke="#191970" points="2230.3328,-222.9796 2221.0368,-228.0624 2231.4735,-229.8861 2230.3328,-222.9796"/>
</g>
<!-- Node160 -->
<g id="node40" class="node">
<title>Node160</title>
<g id="a_node40"><a xlink:href="api_2spec_2cpu_8h.html" target="_top" xlink:title="ODP CPU API. ">
<polygon fill="#ffffff" stroke="#ff0000" points="2543,-168.5 2543,-187.5 2586,-187.5 2586,-168.5 2543,-168.5"/>
<text text-anchor="middle" x="2564.5" y="-175.5" font-family="Helvetica,sans-Serif" font-size="10.00" fill="#000000">cpu.h</text>
</a>
</g>
</g>
<!-- Node8&#45;&gt;Node160 -->
<g id="edge47" class="edge">
<title>Node8&#45;&gt;Node160</title>
<path fill="none" stroke="#191970" d="M2231.3446,-230.5361C2298.7756,-224.9397 2426.8222,-212.0285 2533.5,-188 2536.5894,-187.3041 2539.8106,-186.4342 2542.9581,-185.4996"/>
<polygon fill="#191970" stroke="#191970" points="2230.739,-227.0736 2221.0553,-231.372 2231.3059,-234.0506 2230.739,-227.0736"/>
</g>
<!-- Node162 -->
<g id="node41" class="node">
<title>Node162</title>
<g id="a_node41"><a xlink:href="spec_2feature_8h.html" target="_top" xlink:title="ODP features. ">
<polygon fill="#ffffff" stroke="#ff0000" points="2604,-168.5 2604,-187.5 2665,-187.5 2665,-168.5 2604,-168.5"/>
<text text-anchor="middle" x="2634.5" y="-175.5" font-family="Helvetica,sans-Serif" font-size="10.00" fill="#000000">feature.h</text>
</a>
</g>
</g>
<!-- Node8&#45;&gt;Node162 -->
<g id="edge48" class="edge">
<title>Node8&#45;&gt;Node162</title>
<path fill="none" stroke="#191970" d="M2231.3021,-230.8981C2307.9081,-225.3437 2464.6446,-211.9781 2595.5,-188 2598.2502,-187.4961 2601.093,-186.9055 2603.9325,-186.2676"/>
<polygon fill="#191970" stroke="#191970" points="2230.7612,-227.4277 2221.0356,-231.6303 2231.2592,-234.4099 2230.7612,-227.4277"/>
</g>
<!-- Node164 -->
<g id="node42" class="node">
<title>Node164</title>
<g id="a_node42"><a xlink:href="api_2spec_2hash_8h.html" target="_top" xlink:title="ODP Hash functions. ">
<polygon fill="#ffffff" stroke="#ff0000" points="2683,-168.5 2683,-187.5 2732,-187.5 2732,-168.5 2683,-168.5"/>
<text text-anchor="middle" x="2707.5" y="-175.5" font-family="Helvetica,sans-Serif" font-size="10.00" fill="#000000">hash.h</text>
</a>
</g>
</g>
<!-- Node8&#45;&gt;Node164 -->
<g id="edge49" class="edge">
<title>Node8&#45;&gt;Node164</title>
<path fill="none" stroke="#191970" d="M2231.2807,-232.726C2318.9821,-229.6511 2513.769,-219.5654 2674.5,-188 2677.2021,-187.4693 2679.9987,-186.8065 2682.7685,-186.0761"/>
<polygon fill="#191970" stroke="#191970" points="2231.0026,-229.2333 2221.1258,-233.0672 2231.2377,-236.2293 2231.0026,-229.2333"/>
</g>
<!-- Node85 -->
<g id="node43" class="node">
<title>Node85</title>
<g id="a_node43"><a xlink:href="api_2spec_2init_8h.html" target="_top" xlink:title="init.h">
<polygon fill="#ffffff" stroke="#ff0000" points="2750,-168.5 2750,-187.5 2791,-187.5 2791,-168.5 2750,-168.5"/>
<text text-anchor="middle" x="2770.5" y="-175.5" font-family="Helvetica,sans-Serif" font-size="10.00" fill="#000000">init.h</text>
</a>
</g>
</g>
<!-- Node8&#45;&gt;Node85 -->
<g id="edge50" class="edge">
<title>Node8&#45;&gt;Node85</title>
<path fill="none" stroke="#191970" d="M2231.4893,-231.6309C2347.378,-225.5451 2644.4707,-208.4001 2741.5,-188 2744.2101,-187.4302 2747.0157,-186.6793 2749.7663,-185.8444"/>
<polygon fill="#191970" stroke="#191970" points="2230.9813,-228.1525 2221.1771,-232.1683 2231.3457,-235.143 2230.9813,-228.1525"/>
</g>
<!-- Node166 -->
<g id="node44" class="node">
<title>Node166</title>
<g id="a_node44"><a xlink:href="api_2spec_2pool_8h.html" target="_top" xlink:title="ODP pool. ">
<polygon fill="#ffffff" stroke="#ff0000" points="2809,-168.5 2809,-187.5 2856,-187.5 2856,-168.5 2809,-168.5"/>
<text text-anchor="middle" x="2832.5" y="-175.5" font-family="Helvetica,sans-Serif" font-size="10.00" fill="#000000">pool.h</text>
</a>
</g>
</g>
<!-- Node8&#45;&gt;Node166 -->
<g id="edge52" class="edge">
<title>Node8&#45;&gt;Node166</title>
<path fill="none" stroke="#191970" d="M2231.6399,-231.8751C2356.1128,-226.0415 2691.4918,-208.8188 2800.5,-188 2803.2442,-187.4759 2806.0844,-186.7968 2808.888,-186.0392"/>
<polygon fill="#191970" stroke="#191970" points="2231.1312,-228.3949 2221.3047,-232.356 2231.4566,-235.3874 2231.1312,-228.3949"/>
</g>
<!-- Node168 -->
<g id="node45" class="node">
<title>Node168</title>
<g id="a_node45"><a xlink:href="api_2spec_2stash_8h.html" target="_top" xlink:title="ODP stash. ">
<polygon fill="#ffffff" stroke="#ff0000" points="2874.5,-168.5 2874.5,-187.5 2926.5,-187.5 2926.5,-168.5 2874.5,-168.5"/>
<text text-anchor="middle" x="2900.5" y="-175.5" font-family="Helvetica,sans-Serif" font-size="10.00" fill="#000000">stash.h</text>
</a>
</g>
</g>
<!-- Node8&#45;&gt;Node168 -->
<g id="edge54" class="edge">
<title>Node8&#45;&gt;Node168</title>
<path fill="none" stroke="#191970" d="M2231.4979,-232.1176C2364.7362,-226.5756 2743.1794,-209.3591 2865.5,-188 2868.3637,-187.5 2871.3283,-186.8567 2874.2651,-186.138"/>
<polygon fill="#191970" stroke="#191970" points="2231.0696,-228.6322 2221.2226,-232.542 2231.3585,-235.6262 2231.0696,-228.6322"/>
</g>
<!-- Node170 -->
<g id="node46" class="node">
<title>Node170</title>
<g id="a_node46"><a xlink:href="spec_2threshold_8h.html" target="_top" xlink:title="ODP threshold descriptor. ">
<polygon fill="#ffffff" stroke="#ff0000" points="2945,-168.5 2945,-187.5 3016,-187.5 3016,-168.5 2945,-168.5"/>
<text text-anchor="middle" x="2980.5" y="-175.5" font-family="Helvetica,sans-Serif" font-size="10.00" fill="#000000">threshold.h</text>
</a>
</g>
</g>
<!-- Node8&#45;&gt;Node170 -->
<g id="edge55" class="edge">
<title>Node8&#45;&gt;Node170</title>
<path fill="none" stroke="#191970" d="M2231.3871,-232.0973C2373.5555,-226.1749 2798.4242,-207.3061 2935.5,-188 2938.5114,-187.5759 2941.6204,-187.0573 2944.7315,-186.4817"/>
<polygon fill="#191970" stroke="#191970" points="2231.1002,-228.6061 2221.2538,-232.5174 2231.3903,-235.6001 2231.1002,-228.6061"/>
</g>
<!-- Node172 -->
<g id="node47" class="node">
<title>Node172</title>
<g id="a_node47"><a xlink:href="api_2spec_2thrmask_8h.html" target="_top" xlink:title="ODP thread masks. ">
<polygon fill="#ffffff" stroke="#ff0000" points="3034.5,-168.5 3034.5,-187.5 3100.5,-187.5 3100.5,-168.5 3034.5,-168.5"/>
<text text-anchor="middle" x="3067.5" y="-175.5" font-family="Helvetica,sans-Serif" font-size="10.00" fill="#000000">thrmask.h</text>
</a>
</g>
</g>
<!-- Node8&#45;&gt;Node172 -->
<g id="edge56" class="edge">
<title>Node8&#45;&gt;Node172</title>
<path fill="none" stroke="#191970" d="M2231.2522,-232.5468C2384.4324,-227.6122 2870.2505,-210.5423 3025.5,-188 3028.3187,-187.5907 3031.2261,-187.0826 3034.1336,-186.514"/>
<polygon fill="#191970" stroke="#191970" points="2231.1111,-229.0494 2221.2282,-232.8677 2231.3351,-236.0459 2231.1111,-229.0494"/>
</g>
<!-- Node173 -->
<g id="node48" class="node">
<title>Node173</title>
<g id="a_node48"><a xlink:href="system__info_8h.html" target="_top" xlink:title="ODP system information. ">
<polygon fill="#ffffff" stroke="#000000" points="2734.5,-56.5 2734.5,-75.5 2820.5,-75.5 2820.5,-56.5 2734.5,-56.5"/>
<text text-anchor="middle" x="2777.5" y="-63.5" font-family="Helvetica,sans-Serif" font-size="10.00" fill="#000000">system_info.h</text>
</a>
</g>
</g>
<!-- Node8&#45;&gt;Node173 -->
<g id="edge58" class="edge">
<title>Node8&#45;&gt;Node173</title>
<path fill="none" stroke="#191970" d="M2231.242,-233.4428C2414.9629,-231.0282 3078.9552,-220.1016 3109.5,-188 3196.6987,-96.3572 2928.5847,-73.2044 2820.5263,-67.6562"/>
<polygon fill="#191970" stroke="#191970" points="2231.0475,-229.9449 2221.0936,-233.5739 2231.138,-236.9443 2231.0475,-229.9449"/>
</g>
<!-- Node174 -->
<g id="node49" class="node">
<title>Node174</title>
<g id="a_node49"><a xlink:href="api_2time_8h.html" target="_top" xlink:title="ODP time. ">
<polygon fill="#ffffff" stroke="#ff0000" points="2975.5,-56.5 2975.5,-75.5 3023.5,-75.5 3023.5,-56.5 2975.5,-56.5"/>
<text text-anchor="middle" x="2999.5" y="-63.5" font-family="Helvetica,sans-Serif" font-size="10.00" fill="#000000">time.h</text>
</a>
</g>
</g>
<!-- Node8&#45;&gt;Node174 -->
<g id="edge60" class="edge">
<title>Node8&#45;&gt;Node174</title>
<path fill="none" stroke="#191970" d="M2231.0385,-233.4965C2416.9985,-231.261 3098.2115,-220.8486 3129.5,-188 3143.1367,-173.6834 3138.687,-136.8958 3117.5,-112 3093.702,-84.0362 3050.7378,-72.981 3023.7406,-68.674"/>
<polygon fill="#191970" stroke="#191970" points="2230.9882,-229.9967 2221.0302,-233.6146 2231.0709,-236.9962 2230.9882,-229.9967"/>
</g>
<!-- Node176 -->
<g id="node50" class="node">
<title>Node176</title>
<g id="a_node50"><a xlink:href="api_2timer_8h.html" target="_top" xlink:title="ODP timer service. ">
<polygon fill="#ffffff" stroke="#000000" points="3110,-56.5 3110,-75.5 3161,-75.5 3161,-56.5 3110,-56.5"/>
<text text-anchor="middle" x="3135.5" y="-63.5" font-family="Helvetica,sans-Serif" font-size="10.00" fill="#000000">timer.h</text>
</a>
</g>
</g>
<!-- Node8&#45;&gt;Node176 -->
<g id="edge62" class="edge">
<title>Node8&#45;&gt;Node176</title>
<path fill="none" stroke="#191970" d="M2231.2461,-233.5359C2419.6364,-231.4408 3114.6002,-221.4616 3146.5,-188 3176.2885,-156.753 3151.9175,-98.3483 3140.5496,-75.5044"/>
<polygon fill="#191970" stroke="#191970" points="2231.0736,-230.0375 2221.1124,-233.6464 2231.15,-237.037 2231.0736,-230.0375"/>
</g>
<!-- Node10 -->
<g id="node4" class="node">
<title>Node10</title>
<g id="a_node4"><a xlink:href="arch_2arm32-linux_2odp_2api_2abi_2atomic_8h_source.html" target="_top" xlink:title="atomic.h">
<polygon fill="#ffffff" stroke="#000000" points="0,-112.5 0,-131.5 59,-131.5 59,-112.5 0,-112.5"/>
<text text-anchor="middle" x="29.5" y="-119.5" font-family="Helvetica,sans-Serif" font-size="10.00" fill="#000000">atomic.h</text>
</a>
</g>
</g>
<!-- Node9&#45;&gt;Node10 -->
<g id="edge3" class="edge">
<title>Node9&#45;&gt;Node10</title>
<path fill="none" stroke="#191970" d="M259.7761,-170.8937C213.4491,-162.4283 134.6449,-147.476 67.5,-132 64.841,-131.3871 62.0852,-130.7216 59.3277,-130.0349"/>
<polygon fill="#191970" stroke="#191970" points="259.246,-174.3547 269.7109,-172.7006 260.4985,-167.4676 259.246,-174.3547"/>
</g>
<!-- Node11 -->
<g id="node5" class="node">
<title>Node11</title>
<g id="a_node5"><a xlink:href="arch_2arm64-linux_2odp_2api_2abi_2atomic_8h_source.html" target="_top" xlink:title="atomic.h">
<polygon fill="#ffffff" stroke="#000000" points="77,-112.5 77,-131.5 136,-131.5 136,-112.5 77,-112.5"/>
<text text-anchor="middle" x="106.5" y="-119.5" font-family="Helvetica,sans-Serif" font-size="10.00" fill="#000000">atomic.h</text>
</a>
</g>
</g>
<!-- Node9&#45;&gt;Node11 -->
<g id="edge4" class="edge">
<title>Node9&#45;&gt;Node11</title>
<path fill="none" stroke="#191970" d="M259.9008,-166.5101C223.2052,-155.8626 169.4325,-140.2602 136.2671,-130.6371"/>
<polygon fill="#191970" stroke="#191970" points="259.1875,-169.9474 269.7667,-169.3727 261.1382,-163.2247 259.1875,-169.9474"/>
</g>
<!-- Node12 -->
<g id="node6" class="node">
<title>Node12</title>
<g id="a_node6"><a xlink:href="arch_2default-linux_2odp_2api_2abi_2atomic_8h_source.html" target="_top" xlink:title="atomic.h">
<polygon fill="#ffffff" stroke="#000000" points="154,-112.5 154,-131.5 213,-131.5 213,-112.5 154,-112.5"/>
<text text-anchor="middle" x="183.5" y="-119.5" font-family="Helvetica,sans-Serif" font-size="10.00" fill="#000000">atomic.h</text>
</a>
</g>
</g>
<!-- Node9&#45;&gt;Node12 -->
<g id="edge5" class="edge">
<title>Node9&#45;&gt;Node12</title>
<path fill="none" stroke="#191970" d="M270.4463,-163.9741C249.4435,-153.8348 221.6309,-140.408 203.1809,-131.5011"/>
<polygon fill="#191970" stroke="#191970" points="269.0317,-167.1776 279.5589,-168.3733 272.075,-160.8738 269.0317,-167.1776"/>
</g>
<!-- Node13 -->
<g id="node7" class="node">
<title>Node13</title>
<g id="a_node7"><a xlink:href="arch_2mips64-linux_2odp_2api_2abi_2atomic_8h_source.html" target="_top" xlink:title="atomic.h">
<polygon fill="#ffffff" stroke="#000000" points="231,-112.5 231,-131.5 290,-131.5 290,-112.5 231,-112.5"/>
<text text-anchor="middle" x="260.5" y="-119.5" font-family="Helvetica,sans-Serif" font-size="10.00" fill="#000000">atomic.h</text>
</a>
</g>
</g>
<!-- Node9&#45;&gt;Node13 -->
<g id="edge6" class="edge">
<title>Node9&#45;&gt;Node13</title>
<path fill="none" stroke="#191970" d="M286.9092,-159.9209C280.3605,-150.5176 272.6176,-139.3997 267.2154,-131.6427"/>
<polygon fill="#191970" stroke="#191970" points="284.1196,-162.0397 292.7067,-168.2455 289.8639,-158.0392 284.1196,-162.0397"/>
</g>
<!-- Node14 -->
<g id="node8" class="node">
<title>Node14</title>
<g id="a_node8"><a xlink:href="arch_2power64-linux_2odp_2api_2abi_2atomic_8h_source.html" target="_top" xlink:title="atomic.h">
<polygon fill="#ffffff" stroke="#000000" points="308,-112.5 308,-131.5 367,-131.5 367,-112.5 308,-112.5"/>
<text text-anchor="middle" x="337.5" y="-119.5" font-family="Helvetica,sans-Serif" font-size="10.00" fill="#000000">atomic.h</text>
</a>
</g>
</g>
<!-- Node9&#45;&gt;Node14 -->
<g id="edge7" class="edge">
<title>Node9&#45;&gt;Node14</title>
<path fill="none" stroke="#191970" d="M311.7679,-159.9209C318.1488,-150.5176 325.6931,-139.3997 330.9568,-131.6427"/>
<polygon fill="#191970" stroke="#191970" points="308.838,-158.0055 306.1191,-168.2455 314.6303,-161.936 308.838,-158.0055"/>
</g>
<!-- Node15 -->
<g id="node9" class="node">
<title>Node15</title>
<g id="a_node9"><a xlink:href="arch_2x86__32-linux_2odp_2api_2abi_2atomic_8h_source.html" target="_top" xlink:title="atomic.h">
<polygon fill="#ffffff" stroke="#000000" points="385,-112.5 385,-131.5 444,-131.5 444,-112.5 385,-112.5"/>
<text text-anchor="middle" x="414.5" y="-119.5" font-family="Helvetica,sans-Serif" font-size="10.00" fill="#000000">atomic.h</text>
</a>
</g>
</g>
<!-- Node9&#45;&gt;Node15 -->
<g id="edge8" class="edge">
<title>Node9&#45;&gt;Node15</title>
<path fill="none" stroke="#191970" d="M328.3033,-163.9741C349.125,-153.8348 376.6978,-140.408 394.9888,-131.5011"/>
<polygon fill="#191970" stroke="#191970" points="326.7276,-160.8484 319.2692,-168.3733 329.7922,-167.1419 326.7276,-160.8484"/>
</g>
<!-- Node16 -->
<g id="node10" class="node">
<title>Node16</title>
<g id="a_node10"><a xlink:href="arch_2x86__64-linux_2odp_2api_2abi_2atomic_8h_source.html" target="_top" xlink:title="atomic.h">
<polygon fill="#ffffff" stroke="#ff0000" points="462,-112.5 462,-131.5 521,-131.5 521,-112.5 462,-112.5"/>
<text text-anchor="middle" x="491.5" y="-119.5" font-family="Helvetica,sans-Serif" font-size="10.00" fill="#000000">atomic.h</text>
</a>
</g>
</g>
<!-- Node9&#45;&gt;Node16 -->
<g id="edge9" class="edge">
<title>Node9&#45;&gt;Node16</title>
<path fill="none" stroke="#191970" d="M338.894,-166.5101C375.3995,-155.8626 428.8935,-140.2602 461.8872,-130.6371"/>
<polygon fill="#191970" stroke="#191970" points="337.6992,-163.2127 329.0792,-169.3727 339.6593,-169.9327 337.6992,-163.2127"/>
</g>
<!-- Node19 -->
<g id="node12" class="node">
<title>Node19</title>
<g id="a_node12"><a xlink:href="arch_2arm32-linux_2odp_2api_2abi_2barrier_8h_source.html" target="_top" xlink:title="barrier.h">
<polygon fill="#ffffff" stroke="#000000" points="539,-112.5 539,-131.5 596,-131.5 596,-112.5 539,-112.5"/>
<text text-anchor="middle" x="567.5" y="-119.5" font-family="Helvetica,sans-Serif" font-size="10.00" fill="#000000">barrier.h</text>
</a>
</g>
</g>
<!-- Node18&#45;&gt;Node19 -->
<g id="edge11" class="edge">
<title>Node18&#45;&gt;Node19</title>
<path fill="none" stroke="#191970" d="M791.0577,-170.8965C746.1345,-162.4209 669.6442,-147.4466 604.5,-132 601.7807,-131.3552 598.9577,-130.6528 596.1383,-129.9291"/>
<polygon fill="#191970" stroke="#191970" points="790.4864,-174.3503 800.9606,-172.756 791.7783,-167.4706 790.4864,-174.3503"/>
</g>
<!-- Node20 -->
<g id="node13" class="node">
<title>Node20</title>
<g id="a_node13"><a xlink:href="arch_2arm64-linux_2odp_2api_2abi_2barrier_8h_source.html" target="_top" xlink:title="barrier.h">
<polygon fill="#ffffff" stroke="#000000" points="614,-112.5 614,-131.5 671,-131.5 671,-112.5 614,-112.5"/>
<text text-anchor="middle" x="642.5" y="-119.5" font-family="Helvetica,sans-Serif" font-size="10.00" fill="#000000">barrier.h</text>
</a>
</g>
</g>
<!-- Node18&#45;&gt;Node20 -->
<g id="edge12" class="edge">
<title>Node18&#45;&gt;Node20</title>
<path fill="none" stroke="#191970" d="M791.1026,-166.5013C755.4351,-155.8201 703.1348,-140.158 671.0348,-130.5452"/>
<polygon fill="#191970" stroke="#191970" points="790.1073,-169.8568 800.6911,-169.3727 792.1155,-163.151 790.1073,-169.8568"/>
</g>
<!-- Node21 -->
<g id="node14" class="node">
<title>Node21</title>
<g id="a_node14"><a xlink:href="arch_2default-linux_2odp_2api_2abi_2barrier_8h_source.html" target="_top" xlink:title="barrier.h">
<polygon fill="#ffffff" stroke="#000000" points="689,-112.5 689,-131.5 746,-131.5 746,-112.5 689,-112.5"/>
<text text-anchor="middle" x="717.5" y="-119.5" font-family="Helvetica,sans-Serif" font-size="10.00" fill="#000000">barrier.h</text>
</a>
</g>
</g>
<!-- Node18&#45;&gt;Node21 -->
<g id="edge13" class="edge">
<title>Node18&#45;&gt;Node21</title>
<path fill="none" stroke="#191970" d="M801.1737,-163.8368C780.9279,-153.7139 754.2358,-140.3679 736.5022,-131.5011"/>
<polygon fill="#191970" stroke="#191970" points="799.737,-167.0316 810.2465,-168.3733 802.8675,-160.7706 799.737,-167.0316"/>
</g>
<!-- Node22 -->
<g id="node15" class="node">
<title>Node22</title>
<g id="a_node15"><a xlink:href="arch_2mips64-linux_2odp_2api_2abi_2barrier_8h_source.html" target="_top" xlink:title="barrier.h">
<polygon fill="#ffffff" stroke="#000000" points="764,-112.5 764,-131.5 821,-131.5 821,-112.5 764,-112.5"/>
<text text-anchor="middle" x="792.5" y="-119.5" font-family="Helvetica,sans-Serif" font-size="10.00" fill="#000000">barrier.h</text>
</a>
</g>
</g>
<!-- Node18&#45;&gt;Node22 -->
<g id="edge14" class="edge">
<title>Node18&#45;&gt;Node22</title>
<path fill="none" stroke="#191970" d="M817.3624,-159.6296C811.1907,-150.2887 803.9434,-139.3197 798.8711,-131.6427"/>
<polygon fill="#191970" stroke="#191970" points="814.6223,-161.8316 823.0551,-168.2455 820.4627,-157.9728 814.6223,-161.8316"/>
</g>
<!-- Node23 -->
<g id="node16" class="node">
<title>Node23</title>
<g id="a_node16"><a xlink:href="arch_2power64-linux_2odp_2api_2abi_2barrier_8h_source.html" target="_top" xlink:title="barrier.h">
<polygon fill="#ffffff" stroke="#000000" points="839,-112.5 839,-131.5 896,-131.5 896,-112.5 839,-112.5"/>
<text text-anchor="middle" x="867.5" y="-119.5" font-family="Helvetica,sans-Serif" font-size="10.00" fill="#000000">barrier.h</text>
</a>
</g>
</g>
<!-- Node18&#45;&gt;Node23 -->
<g id="edge15" class="edge">
<title>Node18&#45;&gt;Node23</title>
<path fill="none" stroke="#191970" d="M841.7679,-159.9209C848.1488,-150.5176 855.6931,-139.3997 860.9568,-131.6427"/>
<polygon fill="#191970" stroke="#191970" points="838.838,-158.0055 836.1191,-168.2455 844.6303,-161.936 838.838,-158.0055"/>
</g>
<!-- Node24 -->
<g id="node17" class="node">
<title>Node24</title>
<g id="a_node17"><a xlink:href="arch_2x86__32-linux_2odp_2api_2abi_2barrier_8h_source.html" target="_top" xlink:title="barrier.h">
<polygon fill="#ffffff" stroke="#000000" points="914,-112.5 914,-131.5 971,-131.5 971,-112.5 914,-112.5"/>
<text text-anchor="middle" x="942.5" y="-119.5" font-family="Helvetica,sans-Serif" font-size="10.00" fill="#000000">barrier.h</text>
</a>
</g>
</g>
<!-- Node18&#45;&gt;Node24 -->
<g id="edge16" class="edge">
<title>Node18&#45;&gt;Node24</title>
<path fill="none" stroke="#191970" d="M858.0792,-163.8368C878.5058,-153.7139 905.4362,-140.3679 923.3281,-131.5011"/>
<polygon fill="#191970" stroke="#191970" points="856.3313,-160.7968 848.9254,-168.3733 859.4396,-167.0688 856.3313,-160.7968"/>
</g>
<!-- Node25 -->
<g id="node18" class="node">
<title>Node25</title>
<g id="a_node18"><a xlink:href="arch_2x86__64-linux_2odp_2api_2abi_2barrier_8h_source.html" target="_top" xlink:title="barrier.h">
<polygon fill="#ffffff" stroke="#000000" points="989,-112.5 989,-131.5 1046,-131.5 1046,-112.5 989,-112.5"/>
<text text-anchor="middle" x="1017.5" y="-119.5" font-family="Helvetica,sans-Serif" font-size="10.00" fill="#000000">barrier.h</text>
</a>
</g>
</g>
<!-- Node18&#45;&gt;Node25 -->
<g id="edge17" class="edge">
<title>Node18&#45;&gt;Node25</title>
<path fill="none" stroke="#191970" d="M867.7042,-166.62C903.6348,-155.9173 956.6109,-140.1372 988.9868,-130.4933"/>
<polygon fill="#191970" stroke="#191970" points="866.6378,-163.2856 858.0532,-169.4948 868.6362,-169.9943 866.6378,-163.2856"/>
</g>
<!-- Node25&#45;&gt;Node26 -->
<g id="edge18" class="edge">
<title>Node25&#45;&gt;Node26</title>
<path fill="none" stroke="#191970" d="M1029.7679,-103.9209C1036.1488,-94.5176 1043.6931,-83.3997 1048.9568,-75.6427"/>
<polygon fill="#191970" stroke="#191970" points="1026.838,-102.0055 1024.1191,-112.2455 1032.6303,-105.936 1026.838,-102.0055"/>
</g>
<!-- Node26&#45;&gt;Node27 -->
<g id="edge19" class="edge">
<title>Node26&#45;&gt;Node27</title>
<path fill="none" stroke="#191970" d="M1094.0267,-56.6746C1095.5334,-56.4261 1097.0285,-56.1995 1098.5,-56 1317.016,-26.3704 2026.3631,-13.1512 2186.2756,-10.5076"/>
<polygon fill="#191970" stroke="#191970" points="1093.2114,-53.2669 1084.0425,-58.5756 1094.5207,-60.1433 1093.2114,-53.2669"/>
</g>
<!-- Node157&#45;&gt;Node27 -->
<g id="edge31" class="edge">
<title>Node157&#45;&gt;Node27</title>
<path fill="none" stroke="#191970" d="M1984.203,-55.978C2062.4598,-37.7108 2142.8595,-23.0625 2186.4023,-15.4679"/>
<polygon fill="#191970" stroke="#191970" points="1983.1069,-52.6403 1974.1767,-58.3414 1984.713,-59.4536 1983.1069,-52.6403"/>
</g>
<!-- Node114&#45;&gt;Node27 -->
<g id="edge33" class="edge">
<title>Node114&#45;&gt;Node27</title>
<path fill="none" stroke="#191970" d="M2077.6986,-53.3235C2111.0758,-43.0536 2157.3699,-28.8093 2187.6214,-19.5011"/>
<polygon fill="#191970" stroke="#191970" points="2076.3154,-50.0871 2067.7869,-56.3733 2078.374,-56.7776 2076.3154,-50.0871"/>
</g>
<!-- Node120&#45;&gt;Node27 -->
<g id="edge35" class="edge">
<title>Node120&#45;&gt;Node27</title>
<path fill="none" stroke="#191970" d="M2354.4649,-106.3802C2321.2099,-82.807 2259.1933,-38.8459 2231.9369,-19.5249"/>
<polygon fill="#191970" stroke="#191970" points="2352.8467,-109.5232 2363.029,-112.4509 2356.8949,-103.8125 2352.8467,-109.5232"/>
</g>
<!-- Node116&#45;&gt;Node27 -->
<g id="edge38" class="edge">
<title>Node116&#45;&gt;Node27</title>
<path fill="none" stroke="#191970" d="M2090.2406,-158.2865C2088.2835,-144.6383 2087.6954,-126.4083 2094.5,-112 2115.927,-66.6297 2168.526,-34.6342 2197.8682,-19.6355"/>
<polygon fill="#191970" stroke="#191970" points="2086.8604,-159.2657 2092.0743,-168.4888 2093.75,-158.0273 2086.8604,-159.2657"/>
</g>
<!-- Node116&#45;&gt;Node130 -->
<g id="edge37" class="edge">
<title>Node116&#45;&gt;Node130</title>
<path fill="none" stroke="#191970" d="M2110.4822,-160.7884C2119.3778,-151.2085 2130.1204,-139.6396 2137.5461,-131.6427"/>
<polygon fill="#191970" stroke="#191970" points="2107.7975,-158.536 2103.5577,-168.2455 2112.927,-163.2992 2107.7975,-158.536"/>
</g>
<!-- Node126&#45;&gt;Node27 -->
<g id="edge41" class="edge">
<title>Node126&#45;&gt;Node27</title>
<path fill="none" stroke="#191970" d="M2217.6175,-158.2601C2217.8323,-122.1669 2218.2812,-46.7656 2218.4415,-19.8279"/>
<polygon fill="#191970" stroke="#191970" points="2214.1163,-158.4655 2217.5566,-168.4862 2221.1162,-158.5073 2214.1163,-158.4655"/>
</g>
<!-- Node126&#45;&gt;Node128 -->
<g id="edge40" class="edge">
<title>Node126&#45;&gt;Node128</title>
<path fill="none" stroke="#191970" d="M2237.877,-161.928C2250.2871,-152.1397 2265.73,-139.9595 2276.2745,-131.6427"/>
<polygon fill="#191970" stroke="#191970" points="2235.5514,-159.3046 2229.8673,-168.2455 2239.8864,-164.8007 2235.5514,-159.3046"/>
</g>
<!-- Node124&#45;&gt;Node27 -->
<g id="edge45" class="edge">
<title>Node124&#45;&gt;Node27</title>
<path fill="none" stroke="#191970" d="M2396.4543,-161.1367C2409.8062,-147.7268 2423.2867,-128.5378 2413.5,-112 2378.4762,-52.8161 2296.2996,-26.4323 2250.594,-15.9831"/>
<polygon fill="#191970" stroke="#191970" points="2393.7035,-158.9168 2388.7847,-168.3007 2398.4817,-164.0323 2393.7035,-158.9168"/>
</g>
<!-- Node124&#45;&gt;Node120 -->
<g id="edge43" class="edge">
<title>Node124&#45;&gt;Node120</title>
<path fill="none" stroke="#191970" d="M2376.5,-158.1575C2376.5,-149.155 2376.5,-138.9199 2376.5,-131.6427"/>
<polygon fill="#191970" stroke="#191970" points="2373.0001,-158.2455 2376.5,-168.2455 2380.0001,-158.2456 2373.0001,-158.2455"/>
</g>
<!-- Node124&#45;&gt;Node83 -->
<g id="edge44" class="edge">
<title>Node124&#45;&gt;Node83</title>
<path fill="none" stroke="#191970" d="M2406.0144,-164.1109C2427.5938,-153.9559 2456.2976,-140.4482 2475.3101,-131.5011"/>
<polygon fill="#191970" stroke="#191970" points="2404.5147,-160.9484 2396.9568,-168.3733 2407.4953,-167.2821 2404.5147,-160.9484"/>
</g>
<!-- Node173&#45;&gt;Node27 -->
<g id="edge59" class="edge">
<title>Node173&#45;&gt;Node27</title>
<path fill="none" stroke="#191970" d="M2723.8073,-60.6211C2609.0609,-49.126 2342.8975,-22.462 2250.6591,-13.2217"/>
<polygon fill="#191970" stroke="#191970" points="2723.8023,-64.1381 2734.1014,-61.6524 2724.5001,-57.1729 2723.8023,-64.1381"/>
</g>
<!-- Node174&#45;&gt;Node27 -->
<g id="edge61" class="edge">
<title>Node174&#45;&gt;Node27</title>
<path fill="none" stroke="#191970" d="M2965.1249,-63.5352C2835.4101,-54.2343 2376.6256,-21.3381 2250.6872,-12.3079"/>
<polygon fill="#191970" stroke="#191970" points="2965.0451,-67.0384 2975.2698,-64.2626 2965.5458,-60.0563 2965.0451,-67.0384"/>
</g>
<!-- Node176&#45;&gt;Node27 -->
<g id="edge63" class="edge">
<title>Node176&#45;&gt;Node27</title>
<path fill="none" stroke="#191970" d="M3099.5923,-62.1554C3079.8153,-60.1281 3054.821,-57.7135 3032.5,-56 2728.7184,-32.6794 2360.3075,-16.0546 2250.7178,-11.3529"/>
<polygon fill="#191970" stroke="#191970" points="3099.3962,-65.6537 3109.7041,-63.2045 3100.1187,-58.6911 3099.3962,-65.6537"/>
</g>
</g>
</svg>
