<?xml version="1.0" encoding="UTF-8" standalone="no"?>
<!DOCTYPE svg PUBLIC "-//W3C//DTD SVG 1.1//EN"
 "http://www.w3.org/Graphics/SVG/1.1/DTD/svg11.dtd">
<!-- Generated by graphviz version 2.40.1 (20161225.0304)
 -->
<!-- Title: std_types.h Pages: 1 -->
<svg width="216pt" height="84pt"
 viewBox="0.00 0.00 215.50 84.00" xmlns="http://www.w3.org/2000/svg" xmlns:xlink="http://www.w3.org/1999/xlink">
<g id="graph0" class="graph" transform="scale(1 1) rotate(0) translate(4 80)">
<title>std_types.h</title>
<polygon fill="#ffffff" stroke="transparent" points="-4,4 -4,-80 211.5,-80 211.5,4 -4,4"/>
<!-- Node0 -->
<g id="node1" class="node">
<title>Node0</title>
<polygon fill="#bfbfbf" stroke="#000000" points="63,-56.5 63,-75.5 136,-75.5 136,-56.5 63,-56.5"/>
<text text-anchor="middle" x="99.5" y="-63.5" font-family="Helvetica,sans-Serif" font-size="10.00" fill="#000000">std_types.h</text>
</g>
<!-- Node1 -->
<g id="node2" class="node">
<title>Node1</title>
<polygon fill="#ffffff" stroke="#bfbfbf" points="0,-.5 0,-19.5 53,-19.5 53,-.5 0,-.5"/>
<text text-anchor="middle" x="26.5" y="-7.5" font-family="Helvetica,sans-Serif" font-size="10.00" fill="#000000">stdint.h</text>
</g>
<!-- Node0&#45;&gt;Node1 -->
<g id="edge1" class="edge">
<title>Node0&#45;&gt;Node1</title>
<path fill="none" stroke="#191970" d="M86.7844,-56.2455C75.898,-47.8943 60.0117,-35.7076 47.28,-25.9408"/>
<polygon fill="#191970" stroke="#191970" points="49.1346,-22.9523 39.0699,-19.6427 44.8739,-28.5063 49.1346,-22.9523"/>
</g>
<!-- Node2 -->
<g id="node3" class="node">
<title>Node2</title>
<polygon fill="#ffffff" stroke="#bfbfbf" points="71.5,-.5 71.5,-19.5 127.5,-19.5 127.5,-.5 71.5,-.5"/>
<text text-anchor="middle" x="99.5" y="-7.5" font-family="Helvetica,sans-Serif" font-size="10.00" fill="#000000">stddef.h</text>
</g>
<!-- Node0&#45;&gt;Node2 -->
<g id="edge2" class="edge">
<title>Node0&#45;&gt;Node2</title>
<path fill="none" stroke="#191970" d="M99.5,-56.2455C99.5,-48.9382 99.5,-38.6944 99.5,-29.7046"/>
<polygon fill="#191970" stroke="#191970" points="103.0001,-29.6426 99.5,-19.6427 96.0001,-29.6427 103.0001,-29.6426"/>
</g>
<!-- Node3 -->
<g id="node4" class="node">
<title>Node3</title>
<polygon fill="#ffffff" stroke="#bfbfbf" points="145.5,-.5 145.5,-19.5 207.5,-19.5 207.5,-.5 145.5,-.5"/>
<text text-anchor="middle" x="176.5" y="-7.5" font-family="Helvetica,sans-Serif" font-size="10.00" fill="#000000">stdbool.h</text>
</g>
<!-- Node0&#45;&gt;Node3 -->
<g id="edge3" class="edge">
<title>Node0&#45;&gt;Node3</title>
<path fill="none" stroke="#191970" d="M112.9124,-56.2455C124.5057,-47.814 141.4748,-35.4729 154.9678,-25.6598"/>
<polygon fill="#191970" stroke="#191970" points="157.2126,-28.355 163.2413,-19.6427 153.0953,-22.6938 157.2126,-28.355"/>
</g>
</g>
</svg>
