<?xml version="1.0" encoding="UTF-8" standalone="no"?>
<!DOCTYPE svg PUBLIC "-//W3C//DTD SVG 1.1//EN"
 "http://www.w3.org/Graphics/SVG/1.1/DTD/svg11.dtd">
<!-- Generated by graphviz version 2.40.1 (20161225.0304)
 -->
<!-- Title: shared_memory.h Pages: 1 -->
<svg width="1366pt" height="610pt"
 viewBox="0.00 0.00 1366.00 610.00" xmlns="http://www.w3.org/2000/svg" xmlns:xlink="http://www.w3.org/1999/xlink">
<g id="graph0" class="graph" transform="scale(1 1) rotate(0) translate(4 606)">
<title>shared_memory.h</title>
<polygon fill="#ffffff" stroke="transparent" points="-4,4 -4,-606 1362,-606 1362,4 -4,4"/>
<!-- Node0 -->
<g id="node1" class="node">
<title>Node0</title>
<polygon fill="#bfbfbf" stroke="#000000" points="324,-582.5 324,-601.5 428,-601.5 428,-582.5 324,-582.5"/>
<text text-anchor="middle" x="376" y="-589.5" font-family="Helvetica,sans-Serif" font-size="10.00" fill="#000000">shared_memory.h</text>
</g>
<!-- Node1 -->
<g id="node2" class="node">
<title>Node1</title>
<polygon fill="#ffffff" stroke="#bfbfbf" points="258.5,-515.5 258.5,-545.5 365.5,-545.5 365.5,-515.5 258.5,-515.5"/>
<text text-anchor="start" x="266.5" y="-533.5" font-family="Helvetica,sans-Serif" font-size="10.00" fill="#000000">odp/api/abi/shared</text>
<text text-anchor="middle" x="312" y="-522.5" font-family="Helvetica,sans-Serif" font-size="10.00" fill="#000000">_memory.h</text>
</g>
<!-- Node0&#45;&gt;Node1 -->
<g id="edge1" class="edge">
<title>Node0&#45;&gt;Node1</title>
<path fill="none" stroke="#191970" d="M366,-582.3906C357.7394,-574.4527 345.6878,-562.8718 335.0645,-552.6635"/>
<polygon fill="#191970" stroke="#191970" points="337.2918,-549.9498 327.6562,-545.5446 332.4416,-554.9971 337.2918,-549.9498"/>
</g>
<!-- Node2 -->
<g id="node3" class="node">
<title>Node2</title>
<g id="a_node3"><a xlink:href="api_2spec_2shared__memory_8h.html" target="_top" xlink:title="ODP shared memory. ">
<polygon fill="#ffffff" stroke="#000000" points="384,-515.5 384,-545.5 498,-545.5 498,-515.5 384,-515.5"/>
<text text-anchor="start" x="392" y="-533.5" font-family="Helvetica,sans-Serif" font-size="10.00" fill="#000000">odp/api/spec/shared</text>
<text text-anchor="middle" x="441" y="-522.5" font-family="Helvetica,sans-Serif" font-size="10.00" fill="#000000">_memory.h</text>
</a>
</g>
</g>
<!-- Node0&#45;&gt;Node2 -->
<g id="edge2" class="edge">
<title>Node0&#45;&gt;Node2</title>
<path fill="none" stroke="#191970" d="M386.1563,-582.3906C394.5459,-574.4527 406.7859,-562.8718 417.5751,-552.6635"/>
<polygon fill="#191970" stroke="#191970" points="420.2407,-554.9598 425.0992,-545.5446 415.4298,-549.875 420.2407,-554.9598"/>
</g>
<!-- Node3 -->
<g id="node4" class="node">
<title>Node3</title>
<g id="a_node4"><a xlink:href="visibility__begin_8h_source.html" target="_top" xlink:title="odp/visibility_begin.h">
<polygon fill="#ffffff" stroke="#000000" points="332.5,-.5 332.5,-19.5 453.5,-19.5 453.5,-.5 332.5,-.5"/>
<text text-anchor="middle" x="393" y="-7.5" font-family="Helvetica,sans-Serif" font-size="10.00" fill="#000000">odp/visibility_begin.h</text>
</a>
</g>
</g>
<!-- Node2&#45;&gt;Node3 -->
<g id="edge3" class="edge">
<title>Node2&#45;&gt;Node3</title>
<path fill="none" stroke="#191970" d="M383.7991,-516.7582C264.4753,-487.8962 0,-422.8175 0,-413 0,-413 0,-413 0,-133 0,-95.4083 4.7579,-78.3282 35,-56 57.6101,-39.3067 224.3445,-23.4196 322.0989,-15.4069"/>
<polygon fill="#191970" stroke="#191970" points="322.5247,-18.8839 332.2087,-14.5861 321.9582,-11.9069 322.5247,-18.8839"/>
</g>
<!-- Node4 -->
<g id="node5" class="node">
<title>Node4</title>
<g id="a_node5"><a xlink:href="api_2init_8h.html" target="_top" xlink:title="ODP initialization. ">
<polygon fill="#ffffff" stroke="#000000" points="401,-459.5 401,-478.5 481,-478.5 481,-459.5 401,-459.5"/>
<text text-anchor="middle" x="441" y="-466.5" font-family="Helvetica,sans-Serif" font-size="10.00" fill="#000000">odp/api/init.h</text>
</a>
</g>
</g>
<!-- Node2&#45;&gt;Node4 -->
<g id="edge4" class="edge">
<title>Node2&#45;&gt;Node4</title>
<path fill="none" stroke="#191970" d="M441,-515.2977C441,-507.3834 441,-497.6043 441,-489.0759"/>
<polygon fill="#191970" stroke="#191970" points="444.5001,-488.8469 441,-478.8469 437.5001,-488.847 444.5001,-488.8469"/>
</g>
<!-- Node14 -->
<g id="node15" class="node">
<title>Node14</title>
<g id="a_node15"><a xlink:href="visibility__end_8h_source.html" target="_top" xlink:title="odp/visibility_end.h">
<polygon fill="#ffffff" stroke="#000000" points="1011,-.5 1011,-19.5 1123,-19.5 1123,-.5 1011,-.5"/>
<text text-anchor="middle" x="1067" y="-7.5" font-family="Helvetica,sans-Serif" font-size="10.00" fill="#000000">odp/visibility_end.h</text>
</a>
</g>
</g>
<!-- Node2&#45;&gt;Node14 -->
<g id="edge40" class="edge">
<title>Node2&#45;&gt;Node14</title>
<path fill="none" stroke="#191970" d="M498.016,-529.2214C698.3568,-523.9837 1358,-500.123 1358,-413 1358,-413 1358,-413 1358,-133 1358,-88.5 1332.1992,-78.827 1294,-56 1267.3397,-40.0684 1190.2002,-26.6144 1133.2091,-18.4489"/>
<polygon fill="#191970" stroke="#191970" points="1133.5672,-14.9649 1123.1768,-17.0359 1132.5909,-21.8964 1133.5672,-14.9649"/>
</g>
<!-- Node5 -->
<g id="node6" class="node">
<title>Node5</title>
<polygon fill="#ffffff" stroke="#bfbfbf" points="452,-403.5 452,-422.5 550,-422.5 550,-403.5 452,-403.5"/>
<text text-anchor="middle" x="501" y="-410.5" font-family="Helvetica,sans-Serif" font-size="10.00" fill="#000000">odp/api/abi/init.h</text>
</g>
<!-- Node4&#45;&gt;Node5 -->
<g id="edge5" class="edge">
<title>Node4&#45;&gt;Node5</title>
<path fill="none" stroke="#191970" d="M451.4512,-459.2455C460.2269,-451.0549 472.9554,-439.1749 483.314,-429.5069"/>
<polygon fill="#191970" stroke="#191970" points="485.7461,-432.0246 490.6686,-422.6427 480.9699,-426.9072 485.7461,-432.0246"/>
</g>
<!-- Node6 -->
<g id="node7" class="node">
<title>Node6</title>
<g id="a_node7"><a xlink:href="api_2spec_2init_8h.html" target="_top" xlink:title="odp/api/spec/init.h">
<polygon fill="#ffffff" stroke="#000000" points="328,-403.5 328,-422.5 434,-422.5 434,-403.5 328,-403.5"/>
<text text-anchor="middle" x="381" y="-410.5" font-family="Helvetica,sans-Serif" font-size="10.00" fill="#000000">odp/api/spec/init.h</text>
</a>
</g>
</g>
<!-- Node4&#45;&gt;Node6 -->
<g id="edge6" class="edge">
<title>Node4&#45;&gt;Node6</title>
<path fill="none" stroke="#191970" d="M430.5488,-459.2455C421.7731,-451.0549 409.0446,-439.1749 398.686,-429.5069"/>
<polygon fill="#191970" stroke="#191970" points="401.0301,-426.9072 391.3314,-422.6427 396.2539,-432.0246 401.0301,-426.9072"/>
</g>
<!-- Node6&#45;&gt;Node3 -->
<g id="edge7" class="edge">
<title>Node6&#45;&gt;Node3</title>
<path fill="none" stroke="#191970" d="M327.7826,-406.8252C231.4403,-394.1543 38,-361.2154 38,-301 38,-301 38,-301 38,-133 38,-97.7513 30.7917,-79.571 57,-56 76.357,-38.5908 229.3524,-23.28 322.0856,-15.4781"/>
<polygon fill="#191970" stroke="#191970" points="322.5749,-18.9495 332.2503,-14.6326 321.9946,-11.9736 322.5749,-18.9495"/>
</g>
<!-- Node7 -->
<g id="node8" class="node">
<title>Node7</title>
<g id="a_node8"><a xlink:href="api_2std__types_8h.html" target="_top" xlink:title="Standard C language types and definitions for ODP. ">
<polygon fill="#ffffff" stroke="#000000" points="234,-235.5 234,-254.5 346,-254.5 346,-235.5 234,-235.5"/>
<text text-anchor="middle" x="290" y="-242.5" font-family="Helvetica,sans-Serif" font-size="10.00" fill="#000000">odp/api/std_types.h</text>
</a>
</g>
</g>
<!-- Node6&#45;&gt;Node7 -->
<g id="edge8" class="edge">
<title>Node6&#45;&gt;Node7</title>
<path fill="none" stroke="#191970" d="M363.1862,-403.4252C349.9132,-395.3957 332.3611,-382.7269 322,-367 301.1064,-335.2862 293.8355,-290.5469 291.3187,-264.9877"/>
<polygon fill="#191970" stroke="#191970" points="294.7809,-264.3856 290.4651,-254.7097 287.8049,-264.9651 294.7809,-264.3856"/>
</g>
<!-- Node6&#45;&gt;Node14 -->
<g id="edge39" class="edge">
<title>Node6&#45;&gt;Node14</title>
<path fill="none" stroke="#191970" d="M434.0555,-404.1132C437.0778,-403.7096 440.0753,-403.3345 443,-403 677.5694,-376.1743 738.8298,-397.112 973,-367 1128.705,-346.9778 1320,-457.9871 1320,-301 1320,-301 1320,-301 1320,-133 1320,-89.0629 1295.1178,-79.5104 1258,-56 1237.3298,-42.9075 1179.8367,-30.0419 1133.287,-21.261"/>
<polygon fill="#191970" stroke="#191970" points="1133.7067,-17.7792 1123.2359,-19.3957 1132.4293,-24.6617 1133.7067,-17.7792"/>
</g>
<!-- Node15 -->
<g id="node16" class="node">
<title>Node15</title>
<g id="a_node16"><a xlink:href="hints_8h.html" target="_top" xlink:title="ODP compiler hints. ">
<polygon fill="#ffffff" stroke="#000000" points="679.5,-347.5 679.5,-366.5 768.5,-366.5 768.5,-347.5 679.5,-347.5"/>
<text text-anchor="middle" x="724" y="-354.5" font-family="Helvetica,sans-Serif" font-size="10.00" fill="#000000">odp/api/hints.h</text>
</a>
</g>
</g>
<!-- Node6&#45;&gt;Node15 -->
<g id="edge19" class="edge">
<title>Node6&#45;&gt;Node15</title>
<path fill="none" stroke="#191970" d="M434.2174,-404.3114C498.1609,-393.8717 604.8773,-376.4486 669.421,-365.9109"/>
<polygon fill="#191970" stroke="#191970" points="670.0994,-369.3465 679.4047,-364.2809 668.9714,-362.438 670.0994,-369.3465"/>
</g>
<!-- Node17 -->
<g id="node18" class="node">
<title>Node17</title>
<g id="a_node18"><a xlink:href="feature_8h.html" target="_top" xlink:title="ODP features. ">
<polygon fill="#ffffff" stroke="#000000" points="331,-347.5 331,-366.5 431,-366.5 431,-347.5 331,-347.5"/>
<text text-anchor="middle" x="381" y="-354.5" font-family="Helvetica,sans-Serif" font-size="10.00" fill="#000000">odp/api/feature.h</text>
</a>
</g>
</g>
<!-- Node6&#45;&gt;Node17 -->
<g id="edge23" class="edge">
<title>Node6&#45;&gt;Node17</title>
<path fill="none" stroke="#191970" d="M381,-403.2455C381,-395.9382 381,-385.6944 381,-376.7046"/>
<polygon fill="#191970" stroke="#191970" points="384.5001,-376.6426 381,-366.6427 377.5001,-376.6427 384.5001,-376.6426"/>
</g>
<!-- Node19 -->
<g id="node20" class="node">
<title>Node19</title>
<g id="a_node20"><a xlink:href="api_2thread_8h.html" target="_top" xlink:title="ODP thread API. ">
<polygon fill="#ffffff" stroke="#000000" points="979,-123.5 979,-142.5 1075,-142.5 1075,-123.5 979,-123.5"/>
<text text-anchor="middle" x="1027" y="-130.5" font-family="Helvetica,sans-Serif" font-size="10.00" fill="#000000">odp/api/thread.h</text>
</a>
</g>
</g>
<!-- Node6&#45;&gt;Node19 -->
<g id="edge28" class="edge">
<title>Node6&#45;&gt;Node19</title>
<path fill="none" stroke="#191970" d="M434.0726,-404.2507C437.0905,-403.8122 440.0824,-403.3918 443,-403 569.4502,-386.0201 1008,-428.5852 1008,-301 1008,-301 1008,-301 1008,-245 1008,-212.2688 1015.9852,-174.9052 1021.6022,-152.6716"/>
<polygon fill="#191970" stroke="#191970" points="1025.0415,-153.3545 1024.1965,-142.7934 1018.2711,-151.5763 1025.0415,-153.3545"/>
</g>
<!-- Node23 -->
<g id="node24" class="node">
<title>Node23</title>
<g id="a_node24"><a xlink:href="api_2cpumask_8h.html" target="_top" xlink:title="ODP CPU masks and enumeration. ">
<polygon fill="#ffffff" stroke="#000000" points="133.5,-123.5 133.5,-142.5 242.5,-142.5 242.5,-123.5 133.5,-123.5"/>
<text text-anchor="middle" x="188" y="-130.5" font-family="Helvetica,sans-Serif" font-size="10.00" fill="#000000">odp/api/cpumask.h</text>
</a>
</g>
</g>
<!-- Node6&#45;&gt;Node23 -->
<g id="edge34" class="edge">
<title>Node6&#45;&gt;Node23</title>
<path fill="none" stroke="#191970" d="M327.751,-405.3641C270.6241,-393.8129 188,-365.8898 188,-301 188,-301 188,-301 188,-245 188,-212.7116 188,-175.1872 188,-152.8048"/>
<polygon fill="#191970" stroke="#191970" points="191.5001,-152.5883 188,-142.5884 184.5001,-152.5884 191.5001,-152.5883"/>
</g>
<!-- Node8 -->
<g id="node9" class="node">
<title>Node8</title>
<polygon fill="#ffffff" stroke="#bfbfbf" points="216,-179.5 216,-198.5 346,-198.5 346,-179.5 216,-179.5"/>
<text text-anchor="middle" x="281" y="-186.5" font-family="Helvetica,sans-Serif" font-size="10.00" fill="#000000">odp/api/abi/std_types.h</text>
</g>
<!-- Node7&#45;&gt;Node8 -->
<g id="edge9" class="edge">
<title>Node7&#45;&gt;Node8</title>
<path fill="none" stroke="#191970" d="M288.4323,-235.2455C287.2579,-227.9382 285.6116,-217.6944 284.1668,-208.7046"/>
<polygon fill="#191970" stroke="#191970" points="287.5922,-207.9606 282.5497,-198.6427 280.6809,-209.0714 287.5922,-207.9606"/>
</g>
<!-- Node9 -->
<g id="node10" class="node">
<title>Node9</title>
<g id="a_node10"><a xlink:href="api_2spec_2std__types_8h.html" target="_top" xlink:title="Standard C language types and definitions for ODP. ">
<polygon fill="#ffffff" stroke="#000000" points="402.5,-179.5 402.5,-198.5 539.5,-198.5 539.5,-179.5 402.5,-179.5"/>
<text text-anchor="middle" x="471" y="-186.5" font-family="Helvetica,sans-Serif" font-size="10.00" fill="#000000">odp/api/spec/std_types.h</text>
</a>
</g>
</g>
<!-- Node7&#45;&gt;Node9 -->
<g id="edge10" class="edge">
<title>Node7&#45;&gt;Node9</title>
<path fill="none" stroke="#191970" d="M321.115,-235.3733C351.3429,-226.021 397.396,-211.7725 430.4739,-201.5385"/>
<polygon fill="#191970" stroke="#191970" points="431.7723,-204.8005 440.291,-198.5011 429.7033,-198.1133 431.7723,-204.8005"/>
</g>
<!-- Node9&#45;&gt;Node3 -->
<g id="edge11" class="edge">
<title>Node9&#45;&gt;Node3</title>
<path fill="none" stroke="#191970" d="M461.2599,-179.205C452.9808,-170.3955 441.3069,-156.7584 434,-143 413.9685,-105.282 402.0532,-56.2471 396.5957,-29.5022"/>
<polygon fill="#191970" stroke="#191970" points="399.9954,-28.6488 394.6473,-19.5028 393.1246,-29.9876 399.9954,-28.6488"/>
</g>
<!-- Node10 -->
<g id="node11" class="node">
<title>Node10</title>
<polygon fill="#ffffff" stroke="#bfbfbf" points="442.5,-123.5 442.5,-142.5 495.5,-142.5 495.5,-123.5 442.5,-123.5"/>
<text text-anchor="middle" x="469" y="-130.5" font-family="Helvetica,sans-Serif" font-size="10.00" fill="#000000">stdint.h</text>
</g>
<!-- Node9&#45;&gt;Node10 -->
<g id="edge12" class="edge">
<title>Node9&#45;&gt;Node10</title>
<path fill="none" stroke="#191970" d="M470.6516,-179.2455C470.3907,-171.9382 470.0248,-161.6944 469.7037,-152.7046"/>
<polygon fill="#191970" stroke="#191970" points="473.1992,-152.5113 469.3444,-142.6427 466.2036,-152.7613 473.1992,-152.5113"/>
</g>
<!-- Node11 -->
<g id="node12" class="node">
<title>Node11</title>
<g id="a_node12"><a xlink:href="api_2align_8h.html" target="_top" xlink:title="ODP alignments. ">
<polygon fill="#ffffff" stroke="#000000" points="513.5,-123.5 513.5,-142.5 602.5,-142.5 602.5,-123.5 513.5,-123.5"/>
<text text-anchor="middle" x="558" y="-130.5" font-family="Helvetica,sans-Serif" font-size="10.00" fill="#000000">odp/api/align.h</text>
</a>
</g>
</g>
<!-- Node9&#45;&gt;Node11 -->
<g id="edge13" class="edge">
<title>Node9&#45;&gt;Node11</title>
<path fill="none" stroke="#191970" d="M486.1542,-179.2455C499.5027,-170.6534 519.1586,-158.0014 534.5383,-148.1018"/>
<polygon fill="#191970" stroke="#191970" points="536.5051,-150.9982 543.0194,-142.6427 532.7164,-145.1121 536.5051,-150.9982"/>
</g>
<!-- Node9&#45;&gt;Node14 -->
<g id="edge18" class="edge">
<title>Node9&#45;&gt;Node14</title>
<path fill="none" stroke="#191970" d="M539.7027,-186.4636C677.286,-180.9545 982.1475,-166.4702 1084,-143 1149.7063,-127.8591 1187.1295,-142.7888 1225,-87 1251.6616,-47.7236 1187.573,-27.7479 1133.1838,-18.1195"/>
<polygon fill="#191970" stroke="#191970" points="1133.6061,-14.6415 1123.165,-16.4397 1132.4486,-21.5452 1133.6061,-14.6415"/>
</g>
<!-- Node12 -->
<g id="node13" class="node">
<title>Node12</title>
<polygon fill="#ffffff" stroke="#bfbfbf" points="440.5,-62 440.5,-81 547.5,-81 547.5,-62 440.5,-62"/>
<text text-anchor="middle" x="494" y="-69" font-family="Helvetica,sans-Serif" font-size="10.00" fill="#000000">odp/api/abi/align.h</text>
</g>
<!-- Node11&#45;&gt;Node12 -->
<g id="edge14" class="edge">
<title>Node11&#45;&gt;Node12</title>
<path fill="none" stroke="#191970" d="M548,-123.3906C538.2881,-114.0581 523.3361,-99.6902 511.6259,-88.4374"/>
<polygon fill="#191970" stroke="#191970" points="513.7766,-85.65 504.141,-81.2449 508.9264,-90.6974 513.7766,-85.65"/>
</g>
<!-- Node13 -->
<g id="node14" class="node">
<title>Node13</title>
<g id="a_node14"><a xlink:href="api_2spec_2align_8h.html" target="_top" xlink:title="ODP alignments. ">
<polygon fill="#ffffff" stroke="#000000" points="566,-62 566,-81 680,-81 680,-62 566,-62"/>
<text text-anchor="middle" x="623" y="-69" font-family="Helvetica,sans-Serif" font-size="10.00" fill="#000000">odp/api/spec/align.h</text>
</a>
</g>
</g>
<!-- Node11&#45;&gt;Node13 -->
<g id="edge15" class="edge">
<title>Node11&#45;&gt;Node13</title>
<path fill="none" stroke="#191970" d="M568.1563,-123.3906C578.0199,-114.0581 593.2055,-99.6902 605.0987,-88.4374"/>
<polygon fill="#191970" stroke="#191970" points="607.8421,-90.6601 612.7006,-81.2449 603.0311,-85.5753 607.8421,-90.6601"/>
</g>
<!-- Node13&#45;&gt;Node3 -->
<g id="edge16" class="edge">
<title>Node13&#45;&gt;Node3</title>
<path fill="none" stroke="#191970" d="M587.3149,-61.9581C547.2807,-51.2533 482.2429,-33.8628 438.565,-22.1837"/>
<polygon fill="#191970" stroke="#191970" points="439.3336,-18.7663 428.7689,-19.5643 437.5253,-25.5287 439.3336,-18.7663"/>
</g>
<!-- Node13&#45;&gt;Node14 -->
<g id="edge17" class="edge">
<title>Node13&#45;&gt;Node14</title>
<path fill="none" stroke="#191970" d="M660.5467,-61.9312C669.8073,-59.7791 679.7292,-57.6476 689,-56 797.4785,-36.7213 924.9203,-23.0482 1000.6583,-15.8528"/>
<polygon fill="#191970" stroke="#191970" points="1001.3664,-19.3017 1010.9947,-14.8806 1000.7109,-12.3325 1001.3664,-19.3017"/>
</g>
<!-- Node16 -->
<g id="node17" class="node">
<title>Node16</title>
<g id="a_node17"><a xlink:href="spec_2hints_8h.html" target="_top" xlink:title="ODP compiler hints. ">
<polygon fill="#ffffff" stroke="#000000" points="698,-62 698,-81 812,-81 812,-62 698,-62"/>
<text text-anchor="middle" x="755" y="-69" font-family="Helvetica,sans-Serif" font-size="10.00" fill="#000000">odp/api/spec/hints.h</text>
</a>
</g>
</g>
<!-- Node15&#45;&gt;Node16 -->
<g id="edge20" class="edge">
<title>Node15&#45;&gt;Node16</title>
<path fill="none" stroke="#191970" d="M759.4688,-347.4102C823.3125,-329.0939 951,-287.1877 951,-245 951,-245 951,-245 951,-189 951,-152.1346 847.7089,-106.8717 791.0939,-84.8314"/>
<polygon fill="#191970" stroke="#191970" points="792.0234,-81.4392 781.4334,-81.1195 789.5127,-87.9734 792.0234,-81.4392"/>
</g>
<!-- Node16&#45;&gt;Node3 -->
<g id="edge21" class="edge">
<title>Node16&#45;&gt;Node3</title>
<path fill="none" stroke="#191970" d="M716.7172,-61.9863C707.6583,-59.8804 698.0112,-57.7557 689,-56 612.3962,-41.0752 523.8872,-27.8411 463.7546,-19.4443"/>
<polygon fill="#191970" stroke="#191970" points="463.9974,-15.9445 453.6111,-18.0361 463.0348,-22.878 463.9974,-15.9445"/>
</g>
<!-- Node16&#45;&gt;Node14 -->
<g id="edge22" class="edge">
<title>Node16&#45;&gt;Node14</title>
<path fill="none" stroke="#191970" d="M794.3709,-61.9423C803.1209,-59.9052 812.3623,-57.8209 821,-56 882.252,-43.0878 952.4762,-30.1396 1002.1731,-21.2857"/>
<polygon fill="#191970" stroke="#191970" points="1002.9086,-24.7099 1012.1426,-19.5154 1001.6847,-17.8177 1002.9086,-24.7099"/>
</g>
<!-- Node18 -->
<g id="node19" class="node">
<title>Node18</title>
<g id="a_node19"><a xlink:href="spec_2feature_8h.html" target="_top" xlink:title="ODP features. ">
<polygon fill="#ffffff" stroke="#000000" points="318.5,-291.5 318.5,-310.5 443.5,-310.5 443.5,-291.5 318.5,-291.5"/>
<text text-anchor="middle" x="381" y="-298.5" font-family="Helvetica,sans-Serif" font-size="10.00" fill="#000000">odp/api/spec/feature.h</text>
</a>
</g>
</g>
<!-- Node17&#45;&gt;Node18 -->
<g id="edge24" class="edge">
<title>Node17&#45;&gt;Node18</title>
<path fill="none" stroke="#191970" d="M381,-347.2455C381,-339.9382 381,-329.6944 381,-320.7046"/>
<polygon fill="#191970" stroke="#191970" points="384.5001,-320.6426 381,-310.6427 377.5001,-320.6427 384.5001,-320.6426"/>
</g>
<!-- Node18&#45;&gt;Node3 -->
<g id="edge25" class="edge">
<title>Node18&#45;&gt;Node3</title>
<path fill="none" stroke="#191970" d="M379.9971,-291.4242C378.0615,-272.0891 374,-226.9907 374,-189 374,-189 374,-189 374,-133 374,-96.253 382.3851,-54.0469 388.0146,-29.8522"/>
<polygon fill="#191970" stroke="#191970" points="391.4954,-30.3473 390.4376,-19.8054 384.6905,-28.7061 391.4954,-30.3473"/>
</g>
<!-- Node18&#45;&gt;Node7 -->
<g id="edge26" class="edge">
<title>Node18&#45;&gt;Node7</title>
<path fill="none" stroke="#191970" d="M365.149,-291.2455C351.1868,-282.6534 330.6272,-270.0014 314.5404,-260.1018"/>
<polygon fill="#191970" stroke="#191970" points="316.0203,-256.9029 305.6693,-254.6427 312.3516,-262.8645 316.0203,-256.9029"/>
</g>
<!-- Node18&#45;&gt;Node14 -->
<g id="edge27" class="edge">
<title>Node18&#45;&gt;Node14</title>
<path fill="none" stroke="#191970" d="M443.689,-296.6096C628.2347,-282.1107 1161.668,-228.3643 1242,-87 1268.238,-40.8277 1193.3253,-22.2927 1133.4472,-14.8844"/>
<polygon fill="#191970" stroke="#191970" points="1133.5635,-11.3747 1123.2286,-13.7072 1132.7623,-18.3288 1133.5635,-11.3747"/>
</g>
<!-- Node20 -->
<g id="node21" class="node">
<title>Node20</title>
<g id="a_node21"><a xlink:href="thread__types_8h.html" target="_top" xlink:title="ODP thread API types. ">
<polygon fill="#ffffff" stroke="#000000" points="970.5,-56.5 970.5,-86.5 1083.5,-86.5 1083.5,-56.5 970.5,-56.5"/>
<text text-anchor="start" x="978.5" y="-74.5" font-family="Helvetica,sans-Serif" font-size="10.00" fill="#000000">odp/api/spec/thread</text>
<text text-anchor="middle" x="1027" y="-63.5" font-family="Helvetica,sans-Serif" font-size="10.00" fill="#000000">_types.h</text>
</a>
</g>
</g>
<!-- Node19&#45;&gt;Node20 -->
<g id="edge29" class="edge">
<title>Node19&#45;&gt;Node20</title>
<path fill="none" stroke="#191970" d="M1027,-123.3906C1027,-116.2234 1027,-106.0862 1027,-96.671"/>
<polygon fill="#191970" stroke="#191970" points="1030.5001,-96.5446 1027,-86.5446 1023.5001,-96.5446 1030.5001,-96.5446"/>
</g>
<!-- Node21 -->
<g id="node22" class="node">
<title>Node21</title>
<polygon fill="#ffffff" stroke="#bfbfbf" points="1102,-62 1102,-81 1216,-81 1216,-62 1102,-62"/>
<text text-anchor="middle" x="1159" y="-69" font-family="Helvetica,sans-Serif" font-size="10.00" fill="#000000">odp/api/abi/thread.h</text>
</g>
<!-- Node19&#45;&gt;Node21 -->
<g id="edge30" class="edge">
<title>Node19&#45;&gt;Node21</title>
<path fill="none" stroke="#191970" d="M1047.625,-123.3906C1069.5173,-113.1908 1104.3193,-96.9763 1129.1927,-85.3875"/>
<polygon fill="#191970" stroke="#191970" points="1130.9335,-88.4377 1138.5198,-81.0419 1127.9772,-82.0926 1130.9335,-88.4377"/>
</g>
<!-- Node22 -->
<g id="node23" class="node">
<title>Node22</title>
<g id="a_node23"><a xlink:href="api_2spec_2thread_8h.html" target="_top" xlink:title="ODP thread API. ">
<polygon fill="#ffffff" stroke="#000000" points="830,-62 830,-81 952,-81 952,-62 830,-62"/>
<text text-anchor="middle" x="891" y="-69" font-family="Helvetica,sans-Serif" font-size="10.00" fill="#000000">odp/api/spec/thread.h</text>
</a>
</g>
</g>
<!-- Node19&#45;&gt;Node22 -->
<g id="edge31" class="edge">
<title>Node19&#45;&gt;Node22</title>
<path fill="none" stroke="#191970" d="M1005.75,-123.3906C983.0945,-113.1457 947.0202,-96.8326 921.3709,-85.2339"/>
<polygon fill="#191970" stroke="#191970" points="922.6546,-81.9732 912.1008,-81.0419 919.7703,-88.3514 922.6546,-81.9732"/>
</g>
<!-- Node22&#45;&gt;Node3 -->
<g id="edge32" class="edge">
<title>Node22&#45;&gt;Node3</title>
<path fill="none" stroke="#191970" d="M851.5371,-61.9598C841.6106,-59.7817 830.9494,-57.631 821,-56 695.9175,-35.4947 548.7107,-21.9688 463.5982,-15.1748"/>
<polygon fill="#191970" stroke="#191970" points="463.7768,-11.6781 453.5321,-14.3796 463.2254,-18.6563 463.7768,-11.6781"/>
</g>
<!-- Node22&#45;&gt;Node14 -->
<g id="edge33" class="edge">
<title>Node22&#45;&gt;Node14</title>
<path fill="none" stroke="#191970" d="M918.5,-61.8906C948.4647,-51.42 996.5683,-34.6111 1029.8698,-22.9745"/>
<polygon fill="#191970" stroke="#191970" points="1031.4074,-26.1448 1039.6931,-19.5419 1029.0983,-19.5366 1031.4074,-26.1448"/>
</g>
<!-- Node24 -->
<g id="node25" class="node">
<title>Node24</title>
<polygon fill="#ffffff" stroke="#bfbfbf" points="66.5,-62 66.5,-81 193.5,-81 193.5,-62 66.5,-62"/>
<text text-anchor="middle" x="130" y="-69" font-family="Helvetica,sans-Serif" font-size="10.00" fill="#000000">odp/api/abi/cpumask.h</text>
</g>
<!-- Node23&#45;&gt;Node24 -->
<g id="edge35" class="edge">
<title>Node23&#45;&gt;Node24</title>
<path fill="none" stroke="#191970" d="M178.9375,-123.3906C170.2207,-114.1478 156.846,-99.966 146.2804,-88.7628"/>
<polygon fill="#191970" stroke="#191970" points="148.5976,-86.1186 139.1903,-81.2449 143.505,-90.9213 148.5976,-86.1186"/>
</g>
<!-- Node25 -->
<g id="node26" class="node">
<title>Node25</title>
<g id="a_node26"><a xlink:href="api_2spec_2cpumask_8h.html" target="_top" xlink:title="ODP CPU masks and enumeration. ">
<polygon fill="#ffffff" stroke="#000000" points="212,-62 212,-81 346,-81 346,-62 212,-62"/>
<text text-anchor="middle" x="279" y="-69" font-family="Helvetica,sans-Serif" font-size="10.00" fill="#000000">odp/api/spec/cpumask.h</text>
</a>
</g>
</g>
<!-- Node23&#45;&gt;Node25 -->
<g id="edge36" class="edge">
<title>Node23&#45;&gt;Node25</title>
<path fill="none" stroke="#191970" d="M202.2188,-123.3906C216.6434,-113.6421 239.1976,-98.3994 256.136,-86.9521"/>
<polygon fill="#191970" stroke="#191970" points="258.5556,-89.5412 264.8811,-81.0419 254.6359,-83.7415 258.5556,-89.5412"/>
</g>
<!-- Node25&#45;&gt;Node3 -->
<g id="edge37" class="edge">
<title>Node25&#45;&gt;Node3</title>
<path fill="none" stroke="#191970" d="M296.8125,-61.8906C315.4685,-51.8262 344.9797,-35.9057 366.3974,-24.3514"/>
<polygon fill="#191970" stroke="#191970" points="368.1734,-27.3702 375.3126,-19.5419 364.8498,-21.2095 368.1734,-27.3702"/>
</g>
<!-- Node25&#45;&gt;Node14 -->
<g id="edge38" class="edge">
<title>Node25&#45;&gt;Node14</title>
<path fill="none" stroke="#191970" d="M346.368,-64.2547C373.0215,-61.4981 403.9388,-58.4373 432,-56 639.369,-37.9887 885.2656,-21.5844 1000.7949,-14.1691"/>
<polygon fill="#191970" stroke="#191970" points="1001.1385,-17.6544 1010.8944,-13.5225 1000.6912,-10.6687 1001.1385,-17.6544"/>
</g>
</g>
</svg>
