<?xml version="1.0" encoding="UTF-8" standalone="no"?>
<!DOCTYPE svg PUBLIC "-//W3C//DTD SVG 1.1//EN"
 "http://www.w3.org/Graphics/SVG/1.1/DTD/svg11.dtd">
<!-- Generated by graphviz version 2.40.1 (20161225.0304)
 -->
<!-- Title: crypto.h Pages: 1 -->
<svg width="1094pt" height="476pt"
 viewBox="0.00 0.00 1094.00 476.00" xmlns="http://www.w3.org/2000/svg" xmlns:xlink="http://www.w3.org/1999/xlink">
<g id="graph0" class="graph" transform="scale(1 1) rotate(0) translate(4 472)">
<title>crypto.h</title>
<polygon fill="#ffffff" stroke="transparent" points="-4,4 -4,-472 1090,-472 1090,4 -4,4"/>
<!-- Node0 -->
<g id="node1" class="node">
<title>Node0</title>
<polygon fill="#bfbfbf" stroke="#000000" points="474,-448.5 474,-467.5 530,-467.5 530,-448.5 474,-448.5"/>
<text text-anchor="middle" x="502" y="-455.5" font-family="Helvetica,sans-Serif" font-size="10.00" fill="#000000">crypto.h</text>
</g>
<!-- Node1 -->
<g id="node2" class="node">
<title>Node1</title>
<g id="a_node2"><a xlink:href="visibility__begin_8h_source.html" target="_top" xlink:title="odp/visibility_begin.h">
<polygon fill="#ffffff" stroke="#000000" points="588.5,-.5 588.5,-19.5 709.5,-19.5 709.5,-.5 588.5,-.5"/>
<text text-anchor="middle" x="649" y="-7.5" font-family="Helvetica,sans-Serif" font-size="10.00" fill="#000000">odp/visibility_begin.h</text>
</a>
</g>
</g>
<!-- Node0&#45;&gt;Node1 -->
<g id="edge1" class="edge">
<title>Node0&#45;&gt;Node1</title>
<path fill="none" stroke="#191970" d="M530.0479,-456.4735C615.8139,-451.5974 873.6101,-435.3372 954,-412 1016.9908,-393.7138 1086,-411.5913 1086,-346 1086,-346 1086,-346 1086,-122 1086,-47.345 843.6559,-21.7686 719.9102,-13.575"/>
<polygon fill="#191970" stroke="#191970" points="719.9664,-10.0715 709.763,-12.9245 719.5185,-17.0572 719.9664,-10.0715"/>
</g>
<!-- Node2 -->
<g id="node3" class="node">
<title>Node2</title>
<g id="a_node3"><a xlink:href="deprecated_8h.html" target="_top" xlink:title="Control deprecated API definitions. ">
<polygon fill="#ffffff" stroke="#000000" points="833.5,-280.5 833.5,-299.5 952.5,-299.5 952.5,-280.5 833.5,-280.5"/>
<text text-anchor="middle" x="893" y="-287.5" font-family="Helvetica,sans-Serif" font-size="10.00" fill="#000000">odp/api/deprecated.h</text>
</a>
</g>
</g>
<!-- Node0&#45;&gt;Node2 -->
<g id="edge2" class="edge">
<title>Node0&#45;&gt;Node2</title>
<path fill="none" stroke="#191970" d="M530.1405,-457.0637C629.964,-453.0971 964.5793,-434.0848 1029,-356 1052.9624,-326.955 1007.3492,-309.7358 962.6198,-300.21"/>
<polygon fill="#191970" stroke="#191970" points="963.31,-296.7788 952.8158,-298.2357 961.9281,-303.641 963.31,-296.7788"/>
</g>
<!-- Node4 -->
<g id="node5" class="node">
<title>Node4</title>
<g id="a_node5"><a xlink:href="visibility__end_8h_source.html" target="_top" xlink:title="odp/visibility_end.h">
<polygon fill="#ffffff" stroke="#000000" points="166,-.5 166,-19.5 278,-19.5 278,-.5 166,-.5"/>
<text text-anchor="middle" x="222" y="-7.5" font-family="Helvetica,sans-Serif" font-size="10.00" fill="#000000">odp/visibility_end.h</text>
</a>
</g>
</g>
<!-- Node0&#45;&gt;Node4 -->
<g id="edge37" class="edge">
<title>Node0&#45;&gt;Node4</title>
<path fill="none" stroke="#191970" d="M473.6036,-457.4403C411.6119,-455.5652 260.0217,-447.4138 139,-412 73.3643,-392.7934 0,-414.3881 0,-346 0,-346 0,-346 0,-122 0,-51.5202 90.2948,-25.3841 155.7122,-15.6973"/>
<polygon fill="#191970" stroke="#191970" points="156.5527,-19.1146 165.98,-14.2796 155.5953,-12.1803 156.5527,-19.1146"/>
</g>
<!-- Node5 -->
<g id="node6" class="node">
<title>Node5</title>
<g id="a_node6"><a xlink:href="support_8h.html" target="_top" xlink:title="ODP support API &#45; platform specific header. ">
<polygon fill="#ffffff" stroke="#000000" points="148.5,-392.5 148.5,-411.5 249.5,-411.5 249.5,-392.5 148.5,-392.5"/>
<text text-anchor="middle" x="199" y="-399.5" font-family="Helvetica,sans-Serif" font-size="10.00" fill="#000000">odp/api/support.h</text>
</a>
</g>
</g>
<!-- Node0&#45;&gt;Node5 -->
<g id="edge6" class="edge">
<title>Node0&#45;&gt;Node5</title>
<path fill="none" stroke="#191970" d="M473.7666,-452.7819C425.2369,-443.8128 324.9564,-425.2791 259.9018,-413.2558"/>
<polygon fill="#191970" stroke="#191970" points="260.2463,-409.7603 249.7767,-411.3845 258.9741,-416.6437 260.2463,-409.7603"/>
</g>
<!-- Node7 -->
<g id="node8" class="node">
<title>Node7</title>
<g id="a_node8"><a xlink:href="api_2packet_8h.html" target="_top" xlink:title="ODP packet descriptor. ">
<polygon fill="#ffffff" stroke="#000000" points="453,-392.5 453,-411.5 551,-411.5 551,-392.5 453,-392.5"/>
<text text-anchor="middle" x="502" y="-399.5" font-family="Helvetica,sans-Serif" font-size="10.00" fill="#000000">odp/api/packet.h</text>
</a>
</g>
</g>
<!-- Node0&#45;&gt;Node7 -->
<g id="edge10" class="edge">
<title>Node0&#45;&gt;Node7</title>
<path fill="none" stroke="#191970" d="M502,-448.2455C502,-440.9382 502,-430.6944 502,-421.7046"/>
<polygon fill="#191970" stroke="#191970" points="505.5001,-421.6426 502,-411.6427 498.5001,-421.6427 505.5001,-421.6426"/>
</g>
<!-- Node3 -->
<g id="node4" class="node">
<title>Node3</title>
<g id="a_node4"><a xlink:href="spec_2deprecated_8h.html" target="_top" xlink:title="Macro for deprecated API definitions. ">
<polygon fill="#ffffff" stroke="#000000" points="715.5,-56.5 715.5,-75.5 860.5,-75.5 860.5,-56.5 715.5,-56.5"/>
<text text-anchor="middle" x="788" y="-63.5" font-family="Helvetica,sans-Serif" font-size="10.00" fill="#000000">odp/api/spec/deprecated.h</text>
</a>
</g>
</g>
<!-- Node2&#45;&gt;Node3 -->
<g id="edge3" class="edge">
<title>Node2&#45;&gt;Node3</title>
<path fill="none" stroke="#191970" d="M888.4883,-280.375C872.4677,-246.1979 818.1357,-130.2894 796.7508,-84.6683"/>
<polygon fill="#191970" stroke="#191970" points="799.9084,-83.1582 792.4949,-75.5891 793.5702,-86.1293 799.9084,-83.1582"/>
</g>
<!-- Node3&#45;&gt;Node1 -->
<g id="edge4" class="edge">
<title>Node3&#45;&gt;Node1</title>
<path fill="none" stroke="#191970" d="M764.105,-56.3733C741.4918,-47.2629 707.3458,-33.5062 682.1127,-23.3404"/>
<polygon fill="#191970" stroke="#191970" points="683.1666,-19.9917 672.5831,-19.5011 680.5507,-26.4845 683.1666,-19.9917"/>
</g>
<!-- Node3&#45;&gt;Node4 -->
<g id="edge5" class="edge">
<title>Node3&#45;&gt;Node4</title>
<path fill="none" stroke="#191970" d="M715.4527,-58.8222C604.6311,-47.8575 394.8251,-27.0993 288.0339,-16.5334"/>
<polygon fill="#191970" stroke="#191970" points="288.3236,-13.0451 278.0276,-15.5434 287.6344,-20.011 288.3236,-13.0451"/>
</g>
<!-- Node6 -->
<g id="node7" class="node">
<title>Node6</title>
<g id="a_node7"><a xlink:href="spec_2support_8h.html" target="_top" xlink:title="ODP support API. ">
<polygon fill="#ffffff" stroke="#000000" points="66.5,-56.5 66.5,-75.5 193.5,-75.5 193.5,-56.5 66.5,-56.5"/>
<text text-anchor="middle" x="130" y="-63.5" font-family="Helvetica,sans-Serif" font-size="10.00" fill="#000000">odp/api/spec/support.h</text>
</a>
</g>
</g>
<!-- Node5&#45;&gt;Node6 -->
<g id="edge7" class="edge">
<title>Node5&#45;&gt;Node6</title>
<path fill="none" stroke="#191970" d="M161.3629,-392.4397C130.2157,-383.6768 89.581,-369.9756 80,-356 20.2716,-268.8761 89.6354,-133.3198 118.5312,-84.3924"/>
<polygon fill="#191970" stroke="#191970" points="121.6937,-85.9263 123.8717,-75.5577 115.7031,-82.305 121.6937,-85.9263"/>
</g>
<!-- Node6&#45;&gt;Node1 -->
<g id="edge8" class="edge">
<title>Node6&#45;&gt;Node1</title>
<path fill="none" stroke="#191970" d="M193.6396,-59.1333C291.1199,-48.6152 476.7565,-28.585 578.3061,-17.6279"/>
<polygon fill="#191970" stroke="#191970" points="578.8975,-21.0845 588.4643,-16.5318 578.1465,-14.1248 578.8975,-21.0845"/>
</g>
<!-- Node6&#45;&gt;Node4 -->
<g id="edge9" class="edge">
<title>Node6&#45;&gt;Node4</title>
<path fill="none" stroke="#191970" d="M146.0252,-56.2455C160.1408,-47.6534 180.9263,-35.0014 197.1899,-25.1018"/>
<polygon fill="#191970" stroke="#191970" points="199.4363,-27.8319 206.1585,-19.6427 195.7966,-21.8525 199.4363,-27.8319"/>
</g>
<!-- Node8 -->
<g id="node9" class="node">
<title>Node8</title>
<g id="a_node9"><a xlink:href="api_2std__types_8h.html" target="_top" xlink:title="Standard C language types and definitions for ODP. ">
<polygon fill="#ffffff" stroke="#000000" points="285,-224.5 285,-243.5 397,-243.5 397,-224.5 285,-224.5"/>
<text text-anchor="middle" x="341" y="-231.5" font-family="Helvetica,sans-Serif" font-size="10.00" fill="#000000">odp/api/std_types.h</text>
</a>
</g>
</g>
<!-- Node7&#45;&gt;Node8 -->
<g id="edge11" class="edge">
<title>Node7&#45;&gt;Node8</title>
<path fill="none" stroke="#191970" d="M452.7937,-400.046C349.6784,-395.4452 118.48,-382.2832 95,-356 37.6018,-291.7491 183.8455,-257.4132 274.8119,-242.7759"/>
<polygon fill="#191970" stroke="#191970" points="275.4575,-246.2175 284.7954,-241.2123 274.3743,-239.3018 275.4575,-246.2175"/>
</g>
<!-- Node15 -->
<g id="node16" class="node">
<title>Node15</title>
<polygon fill="#ffffff" stroke="#bfbfbf" points="762,-336.5 762,-355.5 872,-355.5 872,-336.5 762,-336.5"/>
<text text-anchor="middle" x="817" y="-343.5" font-family="Helvetica,sans-Serif" font-size="10.00" fill="#000000">odp/api/abi/event.h</text>
</g>
<!-- Node7&#45;&gt;Node15 -->
<g id="edge22" class="edge">
<title>Node7&#45;&gt;Node15</title>
<path fill="none" stroke="#191970" d="M551.2188,-393.25C605.6882,-383.5665 693.6466,-367.9295 753.3247,-357.3201"/>
<polygon fill="#191970" stroke="#191970" points="754.1531,-360.7277 763.3861,-355.5314 752.9278,-353.8358 754.1531,-360.7277"/>
</g>
<!-- Node16 -->
<g id="node17" class="node">
<title>Node16</title>
<polygon fill="#ffffff" stroke="#bfbfbf" points="890,-336.5 890,-355.5 1020,-355.5 1020,-336.5 890,-336.5"/>
<text text-anchor="middle" x="955" y="-343.5" font-family="Helvetica,sans-Serif" font-size="10.00" fill="#000000">odp/api/abi/packet_io.h</text>
</g>
<!-- Node7&#45;&gt;Node16 -->
<g id="edge23" class="edge">
<title>Node7&#45;&gt;Node16</title>
<path fill="none" stroke="#191970" d="M551.0872,-396.2573C621.4595,-387.977 755.3634,-372.045 879.5683,-356.1711"/>
<polygon fill="#191970" stroke="#191970" points="880.162,-359.6238 889.6363,-354.8818 879.2727,-352.6805 880.162,-359.6238"/>
</g>
<!-- Node17 -->
<g id="node18" class="node">
<title>Node17</title>
<polygon fill="#ffffff" stroke="#bfbfbf" points="246,-336.5 246,-355.5 362,-355.5 362,-336.5 246,-336.5"/>
<text text-anchor="middle" x="304" y="-343.5" font-family="Helvetica,sans-Serif" font-size="10.00" fill="#000000">odp/api/abi/packet.h</text>
</g>
<!-- Node7&#45;&gt;Node17 -->
<g id="edge24" class="edge">
<title>Node7&#45;&gt;Node17</title>
<path fill="none" stroke="#191970" d="M467.9626,-392.3733C434.6106,-382.9404 383.6473,-368.5265 347.3998,-358.2747"/>
<polygon fill="#191970" stroke="#191970" points="348.1684,-354.8548 337.5933,-355.5011 346.2632,-361.5906 348.1684,-354.8548"/>
</g>
<!-- Node18 -->
<g id="node19" class="node">
<title>Node18</title>
<polygon fill="#ffffff" stroke="#bfbfbf" points="380.5,-336.5 380.5,-355.5 493.5,-355.5 493.5,-336.5 380.5,-336.5"/>
<text text-anchor="middle" x="437" y="-343.5" font-family="Helvetica,sans-Serif" font-size="10.00" fill="#000000">odp/api/abi/queue.h</text>
</g>
<!-- Node7&#45;&gt;Node18 -->
<g id="edge25" class="edge">
<title>Node7&#45;&gt;Node18</title>
<path fill="none" stroke="#191970" d="M490.6779,-392.2455C481.0777,-383.9746 467.1108,-371.9416 455.8305,-362.2232"/>
<polygon fill="#191970" stroke="#191970" points="458.053,-359.5182 448.1924,-355.6427 453.484,-364.8214 458.053,-359.5182"/>
</g>
<!-- Node19 -->
<g id="node20" class="node">
<title>Node19</title>
<polygon fill="#ffffff" stroke="#bfbfbf" points="512,-336.5 512,-355.5 622,-355.5 622,-336.5 512,-336.5"/>
<text text-anchor="middle" x="567" y="-343.5" font-family="Helvetica,sans-Serif" font-size="10.00" fill="#000000">odp/api/abi/buffer.h</text>
</g>
<!-- Node7&#45;&gt;Node19 -->
<g id="edge26" class="edge">
<title>Node7&#45;&gt;Node19</title>
<path fill="none" stroke="#191970" d="M513.3221,-392.2455C522.9223,-383.9746 536.8892,-371.9416 548.1695,-362.2232"/>
<polygon fill="#191970" stroke="#191970" points="550.516,-364.8214 555.8076,-355.6427 545.947,-359.5182 550.516,-364.8214"/>
</g>
<!-- Node20 -->
<g id="node21" class="node">
<title>Node20</title>
<polygon fill="#ffffff" stroke="#bfbfbf" points="640,-336.5 640,-355.5 744,-355.5 744,-336.5 640,-336.5"/>
<text text-anchor="middle" x="692" y="-343.5" font-family="Helvetica,sans-Serif" font-size="10.00" fill="#000000">odp/api/abi/pool.h</text>
</g>
<!-- Node7&#45;&gt;Node20 -->
<g id="edge27" class="edge">
<title>Node7&#45;&gt;Node20</title>
<path fill="none" stroke="#191970" d="M534.6622,-392.3733C566.5298,-382.9807 615.1531,-368.6496 649.907,-358.4064"/>
<polygon fill="#191970" stroke="#191970" points="651.1615,-361.6855 659.764,-355.5011 649.1825,-354.9711 651.1615,-361.6855"/>
</g>
<!-- Node21 -->
<g id="node22" class="node">
<title>Node21</title>
<g id="a_node22"><a xlink:href="api_2spec_2packet_8h.html" target="_top" xlink:title="ODP packet descriptor. ">
<polygon fill="#ffffff" stroke="#000000" points="104.5,-336.5 104.5,-355.5 227.5,-355.5 227.5,-336.5 104.5,-336.5"/>
<text text-anchor="middle" x="166" y="-343.5" font-family="Helvetica,sans-Serif" font-size="10.00" fill="#000000">odp/api/spec/packet.h</text>
</a>
</g>
</g>
<!-- Node7&#45;&gt;Node21 -->
<g id="edge28" class="edge">
<title>Node7&#45;&gt;Node21</title>
<path fill="none" stroke="#191970" d="M452.7829,-393.7971C394.8201,-384.1367 298.2348,-368.0391 233.3596,-357.2266"/>
<polygon fill="#191970" stroke="#191970" points="233.6699,-353.7301 223.2305,-355.5384 232.5191,-360.6349 233.6699,-353.7301"/>
</g>
<!-- Node9 -->
<g id="node10" class="node">
<title>Node9</title>
<polygon fill="#ffffff" stroke="#bfbfbf" points="367,-168.5 367,-187.5 497,-187.5 497,-168.5 367,-168.5"/>
<text text-anchor="middle" x="432" y="-175.5" font-family="Helvetica,sans-Serif" font-size="10.00" fill="#000000">odp/api/abi/std_types.h</text>
</g>
<!-- Node8&#45;&gt;Node9 -->
<g id="edge12" class="edge">
<title>Node8&#45;&gt;Node9</title>
<path fill="none" stroke="#191970" d="M356.851,-224.2455C370.8132,-215.6534 391.3728,-203.0014 407.4596,-193.1018"/>
<polygon fill="#191970" stroke="#191970" points="409.6484,-195.8645 416.3307,-187.6427 405.9797,-189.9029 409.6484,-195.8645"/>
</g>
<!-- Node10 -->
<g id="node11" class="node">
<title>Node10</title>
<g id="a_node11"><a xlink:href="api_2spec_2std__types_8h.html" target="_top" xlink:title="Standard C language types and definitions for ODP. ">
<polygon fill="#ffffff" stroke="#000000" points="211.5,-168.5 211.5,-187.5 348.5,-187.5 348.5,-168.5 211.5,-168.5"/>
<text text-anchor="middle" x="280" y="-175.5" font-family="Helvetica,sans-Serif" font-size="10.00" fill="#000000">odp/api/spec/std_types.h</text>
</a>
</g>
</g>
<!-- Node8&#45;&gt;Node10 -->
<g id="edge13" class="edge">
<title>Node8&#45;&gt;Node10</title>
<path fill="none" stroke="#191970" d="M330.3746,-224.2455C321.4527,-216.0549 308.512,-204.1749 297.9808,-194.5069"/>
<polygon fill="#191970" stroke="#191970" points="300.2371,-191.8271 290.5036,-187.6427 295.5032,-196.9837 300.2371,-191.8271"/>
</g>
<!-- Node10&#45;&gt;Node1 -->
<g id="edge14" class="edge">
<title>Node10&#45;&gt;Node1</title>
<path fill="none" stroke="#191970" d="M335.0072,-168.4916C422.3959,-152.3398 587.3397,-117.2503 629,-76 641.3391,-63.7824 646.1164,-44.225 647.9395,-29.5656"/>
<polygon fill="#191970" stroke="#191970" points="651.4338,-29.7837 648.8342,-19.5128 644.4614,-29.1632 651.4338,-29.7837"/>
</g>
<!-- Node10&#45;&gt;Node4 -->
<g id="edge21" class="edge">
<title>Node10&#45;&gt;Node4</title>
<path fill="none" stroke="#191970" d="M271.0497,-168.1702C263.4968,-159.3384 252.9853,-145.6881 247,-132 232.1192,-97.9684 225.9522,-54.6714 223.5051,-29.8699"/>
<polygon fill="#191970" stroke="#191970" points="226.9637,-29.244 222.6026,-19.5884 219.9906,-29.8562 226.9637,-29.244"/>
</g>
<!-- Node11 -->
<g id="node12" class="node">
<title>Node11</title>
<polygon fill="#ffffff" stroke="#bfbfbf" points="363.5,-112.5 363.5,-131.5 416.5,-131.5 416.5,-112.5 363.5,-112.5"/>
<text text-anchor="middle" x="390" y="-119.5" font-family="Helvetica,sans-Serif" font-size="10.00" fill="#000000">stdint.h</text>
</g>
<!-- Node10&#45;&gt;Node11 -->
<g id="edge15" class="edge">
<title>Node10&#45;&gt;Node11</title>
<path fill="none" stroke="#191970" d="M299.1605,-168.2455C316.5111,-159.4125 342.2901,-146.2887 361.9583,-136.2758"/>
<polygon fill="#191970" stroke="#191970" points="363.7353,-139.2986 371.059,-131.6427 360.5595,-133.0605 363.7353,-139.2986"/>
</g>
<!-- Node12 -->
<g id="node13" class="node">
<title>Node12</title>
<g id="a_node13"><a xlink:href="api_2align_8h.html" target="_top" xlink:title="ODP alignments. ">
<polygon fill="#ffffff" stroke="#000000" points="256.5,-112.5 256.5,-131.5 345.5,-131.5 345.5,-112.5 256.5,-112.5"/>
<text text-anchor="middle" x="301" y="-119.5" font-family="Helvetica,sans-Serif" font-size="10.00" fill="#000000">odp/api/align.h</text>
</a>
</g>
</g>
<!-- Node10&#45;&gt;Node12 -->
<g id="edge16" class="edge">
<title>Node10&#45;&gt;Node12</title>
<path fill="none" stroke="#191970" d="M283.6579,-168.2455C286.4584,-160.7776 290.409,-150.2427 293.8324,-141.1137"/>
<polygon fill="#191970" stroke="#191970" points="297.1499,-142.2349 297.384,-131.6427 290.5955,-139.777 297.1499,-142.2349"/>
</g>
<!-- Node13 -->
<g id="node14" class="node">
<title>Node13</title>
<polygon fill="#ffffff" stroke="#bfbfbf" points="382.5,-56.5 382.5,-75.5 489.5,-75.5 489.5,-56.5 382.5,-56.5"/>
<text text-anchor="middle" x="436" y="-63.5" font-family="Helvetica,sans-Serif" font-size="10.00" fill="#000000">odp/api/abi/align.h</text>
</g>
<!-- Node12&#45;&gt;Node13 -->
<g id="edge17" class="edge">
<title>Node12&#45;&gt;Node13</title>
<path fill="none" stroke="#191970" d="M324.2073,-112.3733C346.1699,-103.2629 379.3332,-89.5062 403.8401,-79.3404"/>
<polygon fill="#191970" stroke="#191970" points="405.1997,-82.5657 413.0955,-75.5011 402.5176,-76.0999 405.1997,-82.5657"/>
</g>
<!-- Node14 -->
<g id="node15" class="node">
<title>Node14</title>
<g id="a_node15"><a xlink:href="api_2spec_2align_8h.html" target="_top" xlink:title="ODP alignments. ">
<polygon fill="#ffffff" stroke="#000000" points="250,-56.5 250,-75.5 364,-75.5 364,-56.5 250,-56.5"/>
<text text-anchor="middle" x="307" y="-63.5" font-family="Helvetica,sans-Serif" font-size="10.00" fill="#000000">odp/api/spec/align.h</text>
</a>
</g>
</g>
<!-- Node12&#45;&gt;Node14 -->
<g id="edge18" class="edge">
<title>Node12&#45;&gt;Node14</title>
<path fill="none" stroke="#191970" d="M302.0451,-112.2455C302.828,-104.9382 303.9256,-94.6944 304.8888,-85.7046"/>
<polygon fill="#191970" stroke="#191970" points="308.3815,-85.9587 305.9669,-75.6427 301.4214,-85.2129 308.3815,-85.9587"/>
</g>
<!-- Node14&#45;&gt;Node1 -->
<g id="edge19" class="edge">
<title>Node14&#45;&gt;Node1</title>
<path fill="none" stroke="#191970" d="M364.2431,-56.6269C423.8977,-46.8589 517.3561,-31.5557 580.7968,-21.1678"/>
<polygon fill="#191970" stroke="#191970" points="581.4081,-24.6144 590.7111,-19.5444 580.2769,-17.7064 581.4081,-24.6144"/>
</g>
<!-- Node14&#45;&gt;Node4 -->
<g id="edge20" class="edge">
<title>Node14&#45;&gt;Node4</title>
<path fill="none" stroke="#191970" d="M292.1941,-56.2455C279.2744,-47.7337 260.3069,-35.2375 245.3448,-25.3801"/>
<polygon fill="#191970" stroke="#191970" points="246.9124,-22.2216 236.6362,-19.6427 243.0613,-28.067 246.9124,-22.2216"/>
</g>
<!-- Node21&#45;&gt;Node1 -->
<g id="edge29" class="edge">
<title>Node21&#45;&gt;Node1</title>
<path fill="none" stroke="#191970" d="M227.626,-336.9339C299.1682,-326.278 412.7468,-308.9198 455,-300 550.3525,-279.8708 575.8258,-278.4172 667,-244 676.2977,-240.4902 687,-243.9381 687,-234 687,-234 687,-234 687,-122 687,-87.6118 670.7366,-50.2832 659.489,-28.5791"/>
<polygon fill="#191970" stroke="#191970" points="662.431,-26.6605 654.607,-19.5166 656.2683,-29.9804 662.431,-26.6605"/>
</g>
<!-- Node21&#45;&gt;Node4 -->
<g id="edge36" class="edge">
<title>Node21&#45;&gt;Node4</title>
<path fill="none" stroke="#191970" d="M156.1555,-336.2656C117.9737,-297.343 -14.7228,-150.4533 57,-56 69.2946,-39.8089 115.5227,-27.7912 155.9303,-20.1076"/>
<polygon fill="#191970" stroke="#191970" points="156.5824,-23.5464 165.7844,-18.2954 155.3163,-16.6619 156.5824,-23.5464"/>
</g>
<!-- Node22 -->
<g id="node23" class="node">
<title>Node22</title>
<g id="a_node23"><a xlink:href="api_2time_8h.html" target="_top" xlink:title="ODP time. ">
<polygon fill="#ffffff" stroke="#000000" points="359.5,-280.5 359.5,-299.5 446.5,-299.5 446.5,-280.5 359.5,-280.5"/>
<text text-anchor="middle" x="403" y="-287.5" font-family="Helvetica,sans-Serif" font-size="10.00" fill="#000000">odp/api/time.h</text>
</a>
</g>
</g>
<!-- Node21&#45;&gt;Node22 -->
<g id="edge30" class="edge">
<title>Node21&#45;&gt;Node22</title>
<path fill="none" stroke="#191970" d="M206.4725,-336.4369C246.948,-326.8731 309.2867,-312.1432 352.8703,-301.845"/>
<polygon fill="#191970" stroke="#191970" points="353.7673,-305.2295 362.6945,-299.5237 352.1576,-298.4171 353.7673,-305.2295"/>
</g>
<!-- Node22&#45;&gt;Node8 -->
<g id="edge31" class="edge">
<title>Node22&#45;&gt;Node8</title>
<path fill="none" stroke="#191970" d="M392.2004,-280.2455C383.1322,-272.0549 369.9794,-260.1749 359.2755,-250.5069"/>
<polygon fill="#191970" stroke="#191970" points="361.4429,-247.7482 351.6758,-243.6427 356.7509,-252.9429 361.4429,-247.7482"/>
</g>
<!-- Node23 -->
<g id="node24" class="node">
<title>Node23</title>
<polygon fill="#ffffff" stroke="#bfbfbf" points="553.5,-224.5 553.5,-243.5 658.5,-243.5 658.5,-224.5 553.5,-224.5"/>
<text text-anchor="middle" x="606" y="-231.5" font-family="Helvetica,sans-Serif" font-size="10.00" fill="#000000">odp/api/abi/time.h</text>
</g>
<!-- Node22&#45;&gt;Node23 -->
<g id="edge32" class="edge">
<title>Node22&#45;&gt;Node23</title>
<path fill="none" stroke="#191970" d="M437.8969,-280.3733C472.0911,-270.9404 524.3415,-256.5265 561.5042,-246.2747"/>
<polygon fill="#191970" stroke="#191970" points="562.8493,-249.5345 571.5584,-243.5011 560.9877,-242.7865 562.8493,-249.5345"/>
</g>
<!-- Node24 -->
<g id="node25" class="node">
<title>Node24</title>
<g id="a_node25"><a xlink:href="api_2spec_2time_8h.html" target="_top" xlink:title="ODP time. ">
<polygon fill="#ffffff" stroke="#000000" points="507.5,-56.5 507.5,-75.5 620.5,-75.5 620.5,-56.5 507.5,-56.5"/>
<text text-anchor="middle" x="564" y="-63.5" font-family="Helvetica,sans-Serif" font-size="10.00" fill="#000000">odp/api/spec/time.h</text>
</a>
</g>
</g>
<!-- Node22&#45;&gt;Node24 -->
<g id="edge33" class="edge">
<title>Node22&#45;&gt;Node24</title>
<path fill="none" stroke="#191970" d="M415.1466,-280.401C435.9079,-263.5094 478.6241,-226.5884 506,-188 529.6285,-154.6939 547.947,-110.2538 557.2475,-85.2346"/>
<polygon fill="#191970" stroke="#191970" points="560.5535,-86.3844 560.6705,-75.7902 553.9724,-83.9991 560.5535,-86.3844"/>
</g>
<!-- Node24&#45;&gt;Node1 -->
<g id="edge34" class="edge">
<title>Node24&#45;&gt;Node1</title>
<path fill="none" stroke="#191970" d="M578.8059,-56.2455C591.7256,-47.7337 610.6931,-35.2375 625.6552,-25.3801"/>
<polygon fill="#191970" stroke="#191970" points="627.9387,-28.067 634.3638,-19.6427 624.0876,-22.2216 627.9387,-28.067"/>
</g>
<!-- Node24&#45;&gt;Node4 -->
<g id="edge35" class="edge">
<title>Node24&#45;&gt;Node4</title>
<path fill="none" stroke="#191970" d="M507.1417,-56.6899C446.8333,-46.8148 351.6653,-31.2317 288.067,-20.818"/>
<polygon fill="#191970" stroke="#191970" points="288.5752,-17.3547 278.1411,-19.1927 287.4441,-24.2627 288.5752,-17.3547"/>
</g>
</g>
</svg>
