<?xml version="1.0" encoding="UTF-8" standalone="no"?>
<!DOCTYPE svg PUBLIC "-//W3C//DTD SVG 1.1//EN"
 "http://www.w3.org/Graphics/SVG/1.1/DTD/svg11.dtd">
<!-- Generated by graphviz version 2.40.1 (20161225.0304)
 -->
<!-- Title: packet_io.h Pages: 1 -->
<svg width="915pt" height="812pt"
 viewBox="0.00 0.00 914.50 812.00" xmlns="http://www.w3.org/2000/svg" xmlns:xlink="http://www.w3.org/1999/xlink">
<g id="graph0" class="graph" transform="scale(1 1) rotate(0) translate(4 808)">
<title>packet_io.h</title>
<polygon fill="#ffffff" stroke="transparent" points="-4,4 -4,-808 910.5,-808 910.5,4 -4,4"/>
<!-- Node10 -->
<g id="node1" class="node">
<title>Node10</title>
<polygon fill="#bfbfbf" stroke="#000000" points="273,-784.5 273,-803.5 346,-803.5 346,-784.5 273,-784.5"/>
<text text-anchor="middle" x="309.5" y="-791.5" font-family="Helvetica,sans-Serif" font-size="10.00" fill="#000000">packet_io.h</text>
</g>
<!-- Node11 -->
<g id="node2" class="node">
<title>Node11</title>
<g id="a_node2"><a xlink:href="arch_2arm32-linux_2odp_2api_2abi_2packet__io_8h_source.html" target="_top" xlink:title="packet_io.h">
<polygon fill="#ffffff" stroke="#000000" points="0,-728.5 0,-747.5 73,-747.5 73,-728.5 0,-728.5"/>
<text text-anchor="middle" x="36.5" y="-735.5" font-family="Helvetica,sans-Serif" font-size="10.00" fill="#000000">packet_io.h</text>
</a>
</g>
</g>
<!-- Node10&#45;&gt;Node11 -->
<g id="edge1" class="edge">
<title>Node10&#45;&gt;Node11</title>
<path fill="none" stroke="#191970" d="M262.7318,-784.8425C216.6043,-775.7449 144.1172,-761.2728 81.5,-748 78.8381,-747.4358 76.0895,-746.845 73.3242,-746.2447"/>
<polygon fill="#191970" stroke="#191970" points="262.2418,-788.3132 272.7297,-786.8116 263.5945,-781.4451 262.2418,-788.3132"/>
</g>
<!-- Node12 -->
<g id="node3" class="node">
<title>Node12</title>
<g id="a_node3"><a xlink:href="arch_2arm64-linux_2odp_2api_2abi_2packet__io_8h_source.html" target="_top" xlink:title="packet_io.h">
<polygon fill="#ffffff" stroke="#000000" points="91,-728.5 91,-747.5 164,-747.5 164,-728.5 91,-728.5"/>
<text text-anchor="middle" x="127.5" y="-735.5" font-family="Helvetica,sans-Serif" font-size="10.00" fill="#000000">packet_io.h</text>
</a>
</g>
</g>
<!-- Node10&#45;&gt;Node12 -->
<g id="edge2" class="edge">
<title>Node10&#45;&gt;Node12</title>
<path fill="none" stroke="#191970" d="M268.3014,-781.3235C234.9242,-771.0536 188.6301,-756.8093 158.3786,-747.5011"/>
<polygon fill="#191970" stroke="#191970" points="267.626,-784.7776 278.2131,-784.3733 269.6846,-778.0871 267.626,-784.7776"/>
</g>
<!-- Node13 -->
<g id="node4" class="node">
<title>Node13</title>
<g id="a_node4"><a xlink:href="arch_2default-linux_2odp_2api_2abi_2packet__io_8h_source.html" target="_top" xlink:title="packet_io.h">
<polygon fill="#ffffff" stroke="#000000" points="182,-728.5 182,-747.5 255,-747.5 255,-728.5 182,-728.5"/>
<text text-anchor="middle" x="218.5" y="-735.5" font-family="Helvetica,sans-Serif" font-size="10.00" fill="#000000">packet_io.h</text>
</a>
</g>
</g>
<!-- Node10&#45;&gt;Node13 -->
<g id="edge3" class="edge">
<title>Node10&#45;&gt;Node13</title>
<path fill="none" stroke="#191970" d="M284.7496,-778.769C268.6242,-768.8456 248.074,-756.1994 234.1693,-747.6427"/>
<polygon fill="#191970" stroke="#191970" points="283.2981,-781.9853 293.649,-784.2455 286.9668,-776.0237 283.2981,-781.9853"/>
</g>
<!-- Node14 -->
<g id="node5" class="node">
<title>Node14</title>
<g id="a_node5"><a xlink:href="arch_2mips64-linux_2odp_2api_2abi_2packet__io_8h_source.html" target="_top" xlink:title="packet_io.h">
<polygon fill="#ffffff" stroke="#000000" points="273,-728.5 273,-747.5 346,-747.5 346,-728.5 273,-728.5"/>
<text text-anchor="middle" x="309.5" y="-735.5" font-family="Helvetica,sans-Serif" font-size="10.00" fill="#000000">packet_io.h</text>
</a>
</g>
</g>
<!-- Node10&#45;&gt;Node14 -->
<g id="edge4" class="edge">
<title>Node10&#45;&gt;Node14</title>
<path fill="none" stroke="#191970" d="M309.5,-774.1575C309.5,-765.155 309.5,-754.9199 309.5,-747.6427"/>
<polygon fill="#191970" stroke="#191970" points="306.0001,-774.2455 309.5,-784.2455 313.0001,-774.2456 306.0001,-774.2455"/>
</g>
<!-- Node15 -->
<g id="node6" class="node">
<title>Node15</title>
<g id="a_node6"><a xlink:href="arch_2power64-linux_2odp_2api_2abi_2packet__io_8h_source.html" target="_top" xlink:title="packet_io.h">
<polygon fill="#ffffff" stroke="#000000" points="364,-728.5 364,-747.5 437,-747.5 437,-728.5 364,-728.5"/>
<text text-anchor="middle" x="400.5" y="-735.5" font-family="Helvetica,sans-Serif" font-size="10.00" fill="#000000">packet_io.h</text>
</a>
</g>
</g>
<!-- Node10&#45;&gt;Node15 -->
<g id="edge5" class="edge">
<title>Node10&#45;&gt;Node15</title>
<path fill="none" stroke="#191970" d="M334.2504,-778.769C350.3758,-768.8456 370.926,-756.1994 384.8307,-747.6427"/>
<polygon fill="#191970" stroke="#191970" points="332.0332,-776.0237 325.351,-784.2455 335.7019,-781.9853 332.0332,-776.0237"/>
</g>
<!-- Node16 -->
<g id="node7" class="node">
<title>Node16</title>
<g id="a_node7"><a xlink:href="arch_2x86__32-linux_2odp_2api_2abi_2packet__io_8h_source.html" target="_top" xlink:title="packet_io.h">
<polygon fill="#ffffff" stroke="#000000" points="455,-728.5 455,-747.5 528,-747.5 528,-728.5 455,-728.5"/>
<text text-anchor="middle" x="491.5" y="-735.5" font-family="Helvetica,sans-Serif" font-size="10.00" fill="#000000">packet_io.h</text>
</a>
</g>
</g>
<!-- Node10&#45;&gt;Node16 -->
<g id="edge6" class="edge">
<title>Node10&#45;&gt;Node16</title>
<path fill="none" stroke="#191970" d="M350.6986,-781.3235C384.0758,-771.0536 430.3699,-756.8093 460.6214,-747.5011"/>
<polygon fill="#191970" stroke="#191970" points="349.3154,-778.0871 340.7869,-784.3733 351.374,-784.7776 349.3154,-778.0871"/>
</g>
<!-- Node17 -->
<g id="node8" class="node">
<title>Node17</title>
<g id="a_node8"><a xlink:href="arch_2x86__64-linux_2odp_2api_2abi_2packet__io_8h_source.html" target="_top" xlink:title="packet_io.h">
<polygon fill="#ffffff" stroke="#000000" points="546,-728.5 546,-747.5 619,-747.5 619,-728.5 546,-728.5"/>
<text text-anchor="middle" x="582.5" y="-735.5" font-family="Helvetica,sans-Serif" font-size="10.00" fill="#000000">packet_io.h</text>
</a>
</g>
</g>
<!-- Node10&#45;&gt;Node17 -->
<g id="edge7" class="edge">
<title>Node10&#45;&gt;Node17</title>
<path fill="none" stroke="#191970" d="M356.2682,-784.8425C402.3957,-775.7449 474.8828,-761.2728 537.5,-748 540.1619,-747.4358 542.9105,-746.845 545.6758,-746.2447"/>
<polygon fill="#191970" stroke="#191970" points="355.4055,-781.4451 346.2703,-786.8116 356.7582,-788.3132 355.4055,-781.4451"/>
</g>
<!-- Node18 -->
<g id="node9" class="node">
<title>Node18</title>
<g id="a_node9"><a xlink:href="api_2classification_8h.html" target="_top" xlink:title="ODP classification descriptor. ">
<polygon fill="#ffffff" stroke="#000000" points="371,-224.5 371,-243.5 460,-243.5 460,-224.5 371,-224.5"/>
<text text-anchor="middle" x="415.5" y="-231.5" font-family="Helvetica,sans-Serif" font-size="10.00" fill="#000000">classification.h</text>
</a>
</g>
</g>
<!-- Node17&#45;&gt;Node18 -->
<g id="edge8" class="edge">
<title>Node17&#45;&gt;Node18</title>
<path fill="none" stroke="#191970" d="M536.1804,-727.083C433.2456,-702.5041 194.5,-643.5991 194.5,-626 194.5,-626 194.5,-626 194.5,-346 194.5,-267.7147 306.2005,-244.1329 370.7774,-237.041"/>
<polygon fill="#191970" stroke="#191970" points="535.459,-730.509 545.9979,-729.4214 537.0811,-723.6995 535.459,-730.509"/>
</g>
<!-- Node23 -->
<g id="node14" class="node">
<title>Node23</title>
<g id="a_node14"><a xlink:href="api_2packet_8h.html" target="_top" xlink:title="ODP packet descriptor. ">
<polygon fill="#ffffff" stroke="#000000" points="553,-672.5 553,-691.5 612,-691.5 612,-672.5 553,-672.5"/>
<text text-anchor="middle" x="582.5" y="-679.5" font-family="Helvetica,sans-Serif" font-size="10.00" fill="#000000">packet.h</text>
</a>
</g>
</g>
<!-- Node17&#45;&gt;Node23 -->
<g id="edge14" class="edge">
<title>Node17&#45;&gt;Node23</title>
<path fill="none" stroke="#191970" d="M582.5,-718.1575C582.5,-709.155 582.5,-698.9199 582.5,-691.6427"/>
<polygon fill="#191970" stroke="#191970" points="579.0001,-718.2455 582.5,-728.2455 586.0001,-718.2456 579.0001,-718.2455"/>
</g>
<!-- Node33 -->
<g id="node24" class="node">
<title>Node33</title>
<g id="a_node24"><a xlink:href="api_2packet__io_8h.html" target="_top" xlink:title="ODP Packet IO. ">
<polygon fill="#ffffff" stroke="#000000" points="560,-336.5 560,-355.5 633,-355.5 633,-336.5 560,-336.5"/>
<text text-anchor="middle" x="596.5" y="-343.5" font-family="Helvetica,sans-Serif" font-size="10.00" fill="#000000">packet_io.h</text>
</a>
</g>
</g>
<!-- Node17&#45;&gt;Node33 -->
<g id="edge48" class="edge">
<title>Node17&#45;&gt;Node33</title>
<path fill="none" stroke="#191970" d="M628.9415,-731.8343C718.5384,-718.6329 906.5,-684.0237 906.5,-626 906.5,-626 906.5,-626 906.5,-514 906.5,-445.2776 869.7261,-428.5033 811.5,-392 782.1505,-373.6001 686.346,-358.1684 633.0704,-350.7449"/>
<polygon fill="#191970" stroke="#191970" points="628.4338,-728.3712 619.0371,-733.2653 629.4349,-735.2993 628.4338,-728.3712"/>
</g>
<!-- Node19 -->
<g id="node10" class="node">
<title>Node19</title>
<g id="a_node10"><a xlink:href="api_2spec_2ipsec_8h.html" target="_top" xlink:title="ODP IPSEC API. ">
<polygon fill="#ffffff" stroke="#000000" points="501,-168.5 501,-187.5 552,-187.5 552,-168.5 501,-168.5"/>
<text text-anchor="middle" x="526.5" y="-175.5" font-family="Helvetica,sans-Serif" font-size="10.00" fill="#000000">ipsec.h</text>
</a>
</g>
</g>
<!-- Node18&#45;&gt;Node19 -->
<g id="edge9" class="edge">
<title>Node18&#45;&gt;Node19</title>
<path fill="none" stroke="#191970" d="M443.5734,-219.8368C463.6385,-209.7139 490.0922,-196.3679 507.6674,-187.5011"/>
<polygon fill="#191970" stroke="#191970" points="441.9332,-216.7441 434.5816,-224.3733 445.0862,-222.9938 441.9332,-216.7441"/>
</g>
<!-- Node21 -->
<g id="node12" class="node">
<title>Node21</title>
<g id="a_node12"><a xlink:href="odp__api_8h.html" target="_top" xlink:title="The OpenDataPlane API. ">
<polygon fill="#ffffff" stroke="#000000" points="564.5,-56.5 564.5,-75.5 628.5,-75.5 628.5,-56.5 564.5,-56.5"/>
<text text-anchor="middle" x="596.5" y="-63.5" font-family="Helvetica,sans-Serif" font-size="10.00" fill="#000000">odp_api.h</text>
</a>
</g>
</g>
<!-- Node18&#45;&gt;Node21 -->
<g id="edge13" class="edge">
<title>Node18&#45;&gt;Node21</title>
<path fill="none" stroke="#191970" d="M424.7404,-214.9683C438.2433,-188.823 465.6002,-141.6687 500.5,-112 520.0723,-95.3614 546.6926,-83.2298 566.9369,-75.6161"/>
<polygon fill="#191970" stroke="#191970" points="421.4743,-213.6729 420.1102,-224.1796 427.7286,-216.8168 421.4743,-213.6729"/>
</g>
<!-- Node20 -->
<g id="node11" class="node">
<title>Node20</title>
<g id="a_node11"><a xlink:href="api_2ipsec_8h.html" target="_top" xlink:title="ODP IPSEC API &#45; platform specific header. ">
<polygon fill="#ffffff" stroke="#000000" points="509,-112.5 509,-131.5 560,-131.5 560,-112.5 509,-112.5"/>
<text text-anchor="middle" x="534.5" y="-119.5" font-family="Helvetica,sans-Serif" font-size="10.00" fill="#000000">ipsec.h</text>
</a>
</g>
</g>
<!-- Node19&#45;&gt;Node20 -->
<g id="edge10" class="edge">
<title>Node19&#45;&gt;Node20</title>
<path fill="none" stroke="#191970" d="M529.3346,-158.1575C530.6207,-149.155 532.0829,-138.9199 533.1225,-131.6427"/>
<polygon fill="#191970" stroke="#191970" points="525.843,-157.851 527.8935,-168.2455 532.7726,-158.8411 525.843,-157.851"/>
</g>
<!-- Node20&#45;&gt;Node21 -->
<g id="edge11" class="edge">
<title>Node20&#45;&gt;Node21</title>
<path fill="none" stroke="#191970" d="M552.9221,-105.3607C563.6481,-95.6727 576.7934,-83.7995 585.8242,-75.6427"/>
<polygon fill="#191970" stroke="#191970" points="550.3746,-102.9453 545.2996,-112.2455 555.0666,-108.14 550.3746,-102.9453"/>
</g>
<!-- Node22 -->
<g id="node13" class="node">
<title>Node22</title>
<g id="a_node13"><a xlink:href="odp_8h.html" target="_top" xlink:title="WARNING: THIS FILE IS DEPRECATED AND WILL BE REMOVED!!! ODP APPLICATIONS SHOULD NOW INCLUDE odp_api...">
<polygon fill="#ffffff" stroke="#000000" points="574.5,-.5 574.5,-19.5 618.5,-19.5 618.5,-.5 574.5,-.5"/>
<text text-anchor="middle" x="596.5" y="-7.5" font-family="Helvetica,sans-Serif" font-size="10.00" fill="#000000">odp.h</text>
</a>
</g>
</g>
<!-- Node21&#45;&gt;Node22 -->
<g id="edge12" class="edge">
<title>Node21&#45;&gt;Node22</title>
<path fill="none" stroke="#191970" d="M596.5,-46.1575C596.5,-37.155 596.5,-26.9199 596.5,-19.6427"/>
<polygon fill="#191970" stroke="#191970" points="593.0001,-46.2455 596.5,-56.2455 600.0001,-46.2456 593.0001,-46.2455"/>
</g>
<!-- Node23&#45;&gt;Node21 -->
<g id="edge47" class="edge">
<title>Node23&#45;&gt;Node21</title>
<path fill="none" stroke="#191970" d="M622.0371,-675.0823C700.5245,-660.2222 868.5,-622.3089 868.5,-570 868.5,-570 868.5,-570 868.5,-514 868.5,-437.4471 906.5,-422.5529 906.5,-346 906.5,-346 906.5,-346 906.5,-178 906.5,-119.3451 707.7123,-82.8096 628.5078,-70.5804"/>
<polygon fill="#191970" stroke="#191970" points="621.2211,-671.6739 612.0298,-676.9436 622.5013,-678.5559 621.2211,-671.6739"/>
</g>
<!-- Node24 -->
<g id="node15" class="node">
<title>Node24</title>
<g id="a_node15"><a xlink:href="api_2spec_2comp_8h.html" target="_top" xlink:title="ODP Compression. ">
<polygon fill="#ffffff" stroke="#000000" points="243,-616.5 243,-635.5 296,-635.5 296,-616.5 243,-616.5"/>
<text text-anchor="middle" x="269.5" y="-623.5" font-family="Helvetica,sans-Serif" font-size="10.00" fill="#000000">comp.h</text>
</a>
</g>
</g>
<!-- Node23&#45;&gt;Node24 -->
<g id="edge15" class="edge">
<title>Node23&#45;&gt;Node24</title>
<path fill="none" stroke="#191970" d="M542.5458,-674.8517C477.758,-663.2602 351.4856,-640.6684 296.3437,-630.8027"/>
<polygon fill="#191970" stroke="#191970" points="542.3114,-678.3652 552.7715,-676.6812 543.5443,-671.4746 542.3114,-678.3652"/>
</g>
<!-- Node26 -->
<g id="node17" class="node">
<title>Node26</title>
<g id="a_node17"><a xlink:href="api_2spec_2crypto_8h.html" target="_top" xlink:title="ODP crypto. ">
<polygon fill="#ffffff" stroke="#000000" points="502.5,-448.5 502.5,-467.5 558.5,-467.5 558.5,-448.5 502.5,-448.5"/>
<text text-anchor="middle" x="530.5" y="-455.5" font-family="Helvetica,sans-Serif" font-size="10.00" fill="#000000">crypto.h</text>
</a>
</g>
</g>
<!-- Node23&#45;&gt;Node26 -->
<g id="edge18" class="edge">
<title>Node23&#45;&gt;Node26</title>
<path fill="none" stroke="#191970" d="M577.9528,-662.4119C567.2147,-616.1557 540.5968,-501.494 532.7261,-467.5891"/>
<polygon fill="#191970" stroke="#191970" points="574.5949,-663.4255 580.2656,-672.375 581.4136,-661.8425 574.5949,-663.4255"/>
</g>
<!-- Node28 -->
<g id="node19" class="node">
<title>Node28</title>
<g id="a_node19"><a xlink:href="api_2spec_2event_8h.html" target="_top" xlink:title="ODP event. ">
<polygon fill="#ffffff" stroke="#000000" points="666,-616.5 666,-635.5 719,-635.5 719,-616.5 666,-616.5"/>
<text text-anchor="middle" x="692.5" y="-623.5" font-family="Helvetica,sans-Serif" font-size="10.00" fill="#000000">event.h</text>
</a>
</g>
</g>
<!-- Node23&#45;&gt;Node28 -->
<g id="edge22" class="edge">
<title>Node23&#45;&gt;Node28</title>
<path fill="none" stroke="#191970" d="M610.7914,-667.5971C630.5111,-657.558 656.28,-644.4393 673.559,-635.6427"/>
<polygon fill="#191970" stroke="#191970" points="608.9843,-664.5896 601.6605,-672.2455 612.1601,-670.8277 608.9843,-664.5896"/>
</g>
<!-- Node32 -->
<g id="node23" class="node">
<title>Node32</title>
<g id="a_node23"><a xlink:href="api_2spec_2packet__io_8h.html" target="_top" xlink:title="ODP Packet IO. ">
<polygon fill="#ffffff" stroke="#000000" points="560,-392.5 560,-411.5 633,-411.5 633,-392.5 560,-392.5"/>
<text text-anchor="middle" x="596.5" y="-399.5" font-family="Helvetica,sans-Serif" font-size="10.00" fill="#000000">packet_io.h</text>
</a>
</g>
</g>
<!-- Node23&#45;&gt;Node32 -->
<g id="edge46" class="edge">
<title>Node23&#45;&gt;Node32</title>
<path fill="none" stroke="#191970" d="M585.6195,-662.2528C588.8718,-639.922 593.5,-602.4438 593.5,-570 593.5,-570 593.5,-570 593.5,-514 593.5,-476.0697 595.2406,-430.9397 596.0702,-411.5861"/>
<polygon fill="#191970" stroke="#191970" points="582.1132,-662.0313 584.076,-672.4427 589.0343,-663.0797 582.1132,-662.0313"/>
</g>
<!-- Node39 -->
<g id="node30" class="node">
<title>Node39</title>
<g id="a_node30"><a xlink:href="api_2spec_2packet__flags_8h.html" target="_top" xlink:title="ODP packet flags. ">
<polygon fill="#ffffff" stroke="#000000" points="353,-616.5 353,-635.5 440,-635.5 440,-616.5 353,-616.5"/>
<text text-anchor="middle" x="396.5" y="-623.5" font-family="Helvetica,sans-Serif" font-size="10.00" fill="#000000">packet_flags.h</text>
</a>
</g>
</g>
<!-- Node23&#45;&gt;Node39 -->
<g id="edge43" class="edge">
<title>Node23&#45;&gt;Node39</title>
<path fill="none" stroke="#191970" d="M542.9383,-670.0889C508.7131,-659.7846 459.8729,-645.08 428.1775,-635.5373"/>
<polygon fill="#191970" stroke="#191970" points="542.0314,-673.471 552.6159,-673.0026 544.0495,-666.7682 542.0314,-673.471"/>
</g>
<!-- Node25 -->
<g id="node16" class="node">
<title>Node25</title>
<g id="a_node16"><a xlink:href="api_2comp_8h.html" target="_top" xlink:title="ODP crypto. ">
<polygon fill="#ffffff" stroke="#000000" points="223,-504.5 223,-523.5 276,-523.5 276,-504.5 223,-504.5"/>
<text text-anchor="middle" x="249.5" y="-511.5" font-family="Helvetica,sans-Serif" font-size="10.00" fill="#000000">comp.h</text>
</a>
</g>
</g>
<!-- Node24&#45;&gt;Node25 -->
<g id="edge16" class="edge">
<title>Node24&#45;&gt;Node25</title>
<path fill="none" stroke="#191970" d="M266.0355,-606.5987C261.7077,-582.363 254.4741,-541.8551 251.2009,-523.5249"/>
<polygon fill="#191970" stroke="#191970" points="262.5913,-607.222 267.7948,-616.4509 269.4823,-605.9914 262.5913,-607.222"/>
</g>
<!-- Node25&#45;&gt;Node21 -->
<g id="edge17" class="edge">
<title>Node25&#45;&gt;Node21</title>
<path fill="none" stroke="#191970" d="M244.748,-494.6376C239.7185,-472.416 232.5,-434.808 232.5,-402 232.5,-402 232.5,-402 232.5,-178 232.5,-147.4754 228.3816,-131.9322 251.5,-112 275.0116,-91.7287 483.088,-74.3608 564.2657,-68.2974"/>
<polygon fill="#191970" stroke="#191970" points="241.3676,-495.5526 247.0643,-504.4856 248.1816,-493.9498 241.3676,-495.5526"/>
</g>
<!-- Node27 -->
<g id="node18" class="node">
<title>Node27</title>
<g id="a_node18"><a xlink:href="api_2crypto_8h.html" target="_top" xlink:title="ODP crypto. ">
<polygon fill="#ffffff" stroke="#000000" points="465.5,-336.5 465.5,-355.5 521.5,-355.5 521.5,-336.5 465.5,-336.5"/>
<text text-anchor="middle" x="493.5" y="-343.5" font-family="Helvetica,sans-Serif" font-size="10.00" fill="#000000">crypto.h</text>
</a>
</g>
</g>
<!-- Node26&#45;&gt;Node27 -->
<g id="edge19" class="edge">
<title>Node26&#45;&gt;Node27</title>
<path fill="none" stroke="#191970" d="M524.1985,-438.9253C516.2049,-414.7284 502.7294,-373.9376 496.6466,-355.5249"/>
<polygon fill="#191970" stroke="#191970" points="520.8852,-440.0536 527.3454,-448.4509 527.5318,-437.8577 520.8852,-440.0536"/>
</g>
<!-- Node27&#45;&gt;Node19 -->
<g id="edge20" class="edge">
<title>Node27&#45;&gt;Node19</title>
<path fill="none" stroke="#191970" d="M495.6922,-326.3697C498.5973,-302.1274 504.3264,-259.717 512.5,-224 515.405,-211.3056 519.9683,-197.001 523.09,-187.7625"/>
<polygon fill="#191970" stroke="#191970" points="492.2018,-326.085 494.5259,-336.4218 499.1552,-326.8918 492.2018,-326.085"/>
</g>
<!-- Node27&#45;&gt;Node21 -->
<g id="edge21" class="edge">
<title>Node27&#45;&gt;Node21</title>
<path fill="none" stroke="#191970" d="M455.3887,-337.7543C420.7781,-329.4019 373.5047,-315.5277 362.5,-300 342.9689,-272.4415 349.3679,-255.1205 362.5,-224 398.5186,-138.6431 508.8973,-93.2017 564.2065,-75.2626"/>
<polygon fill="#191970" stroke="#191970" points="454.6857,-341.1843 465.2209,-340.0626 456.2856,-334.3696 454.6857,-341.1843"/>
</g>
<!-- Node29 -->
<g id="node20" class="node">
<title>Node29</title>
<g id="a_node20"><a xlink:href="api_2event_8h.html" target="_top" xlink:title="ODP event. ">
<polygon fill="#ffffff" stroke="#000000" points="710,-560.5 710,-579.5 763,-579.5 763,-560.5 710,-560.5"/>
<text text-anchor="middle" x="736.5" y="-567.5" font-family="Helvetica,sans-Serif" font-size="10.00" fill="#000000">event.h</text>
</a>
</g>
</g>
<!-- Node28&#45;&gt;Node29 -->
<g id="edge23" class="edge">
<title>Node28&#45;&gt;Node29</title>
<path fill="none" stroke="#191970" d="M706.4769,-608.2112C713.9129,-598.7472 722.766,-587.4797 728.9236,-579.6427"/>
<polygon fill="#191970" stroke="#191970" points="703.5903,-606.22 700.1642,-616.2455 709.0946,-610.5447 703.5903,-606.22"/>
</g>
<!-- Node29&#45;&gt;Node21 -->
<g id="edge42" class="edge">
<title>Node29&#45;&gt;Node21</title>
<path fill="none" stroke="#191970" d="M761.8197,-554.7626C789.661,-535.861 830.5,-500.8346 830.5,-458 830.5,-458 830.5,-458 830.5,-178 830.5,-133.7496 692.6328,-91.4427 628.5461,-74.1671"/>
<polygon fill="#191970" stroke="#191970" points="759.7647,-551.9244 753.3053,-560.3224 763.592,-557.7855 759.7647,-551.9244"/>
</g>
<!-- Node30 -->
<g id="node21" class="node">
<title>Node30</title>
<g id="a_node21"><a xlink:href="api_2spec_2queue_8h.html" target="_top" xlink:title="ODP queue. ">
<polygon fill="#ffffff" stroke="#000000" points="678.5,-504.5 678.5,-523.5 734.5,-523.5 734.5,-504.5 678.5,-504.5"/>
<text text-anchor="middle" x="706.5" y="-511.5" font-family="Helvetica,sans-Serif" font-size="10.00" fill="#000000">queue.h</text>
</a>
</g>
</g>
<!-- Node29&#45;&gt;Node30 -->
<g id="edge24" class="edge">
<title>Node29&#45;&gt;Node30</title>
<path fill="none" stroke="#191970" d="M726.502,-551.3372C721.5324,-542.0605 715.7356,-531.2398 711.6657,-523.6427"/>
<polygon fill="#191970" stroke="#191970" points="723.4669,-553.0835 731.2744,-560.2455 729.6373,-549.7779 723.4669,-553.0835"/>
</g>
<!-- Node37 -->
<g id="node28" class="node">
<title>Node37</title>
<g id="a_node28"><a xlink:href="api_2spec_2schedule_8h.html" target="_top" xlink:title="ODP schedule. ">
<polygon fill="#ffffff" stroke="#000000" points="733,-392.5 733,-411.5 802,-411.5 802,-392.5 733,-392.5"/>
<text text-anchor="middle" x="767.5" y="-399.5" font-family="Helvetica,sans-Serif" font-size="10.00" fill="#000000">schedule.h</text>
</a>
</g>
</g>
<!-- Node29&#45;&gt;Node37 -->
<g id="edge41" class="edge">
<title>Node29&#45;&gt;Node37</title>
<path fill="none" stroke="#191970" d="M740.1425,-550.2601C746.8025,-514.1669 760.7159,-438.7656 765.6865,-411.8279"/>
<polygon fill="#191970" stroke="#191970" points="736.6283,-550.0171 738.2555,-560.4862 743.5121,-551.2874 736.6283,-550.0171"/>
</g>
<!-- Node31 -->
<g id="node22" class="node">
<title>Node31</title>
<g id="a_node22"><a xlink:href="api_2queue_8h.html" target="_top" xlink:title="ODP queue. ">
<polygon fill="#ffffff" stroke="#000000" points="676.5,-448.5 676.5,-467.5 732.5,-467.5 732.5,-448.5 676.5,-448.5"/>
<text text-anchor="middle" x="704.5" y="-455.5" font-family="Helvetica,sans-Serif" font-size="10.00" fill="#000000">queue.h</text>
</a>
</g>
</g>
<!-- Node30&#45;&gt;Node31 -->
<g id="edge25" class="edge">
<title>Node30&#45;&gt;Node31</title>
<path fill="none" stroke="#191970" d="M705.7913,-494.1575C705.4698,-485.155 705.1043,-474.9199 704.8444,-467.6427"/>
<polygon fill="#191970" stroke="#191970" points="702.2968,-494.3769 706.1516,-504.2455 709.2924,-494.127 702.2968,-494.3769"/>
</g>
<!-- Node31&#45;&gt;Node21 -->
<g id="edge40" class="edge">
<title>Node31&#45;&gt;Node21</title>
<path fill="none" stroke="#191970" d="M704.5,-438.1952C704.5,-415.8128 704.5,-378.2884 704.5,-346 704.5,-346 704.5,-346 704.5,-178 704.5,-128.0278 648.0989,-91.791 616.814,-75.5348"/>
<polygon fill="#191970" stroke="#191970" points="701.0001,-438.4116 704.5,-448.4116 708.0001,-438.4117 701.0001,-438.4116"/>
</g>
<!-- Node31&#45;&gt;Node27 -->
<g id="edge26" class="edge">
<title>Node31&#45;&gt;Node27</title>
<path fill="none" stroke="#191970" d="M691.8653,-440.0597C680.523,-425.197 662.6001,-404.5469 642.5,-392 604.377,-368.2028 553.0445,-355.9259 521.6633,-350.235"/>
<polygon fill="#191970" stroke="#191970" points="689.2897,-442.4648 698.0376,-448.4418 694.9264,-438.3141 689.2897,-442.4648"/>
</g>
<!-- Node31&#45;&gt;Node32 -->
<g id="edge27" class="edge">
<title>Node31&#45;&gt;Node32</title>
<path fill="none" stroke="#191970" d="M676.7229,-443.5971C657.3618,-433.558 632.0615,-420.4393 615.0966,-411.6427"/>
<polygon fill="#191970" stroke="#191970" points="675.1992,-446.7495 685.6878,-448.2455 678.4214,-440.5352 675.1992,-446.7495"/>
</g>
<!-- Node31&#45;&gt;Node37 -->
<g id="edge37" class="edge">
<title>Node31&#45;&gt;Node37</title>
<path fill="none" stroke="#191970" d="M723.2192,-441.3607C734.1182,-431.6727 747.4755,-419.7995 756.652,-411.6427"/>
<polygon fill="#191970" stroke="#191970" points="720.6226,-438.9859 715.4738,-448.2455 725.2732,-444.2178 720.6226,-438.9859"/>
</g>
<!-- Node32&#45;&gt;Node33 -->
<g id="edge28" class="edge">
<title>Node32&#45;&gt;Node33</title>
<path fill="none" stroke="#191970" d="M596.5,-382.1575C596.5,-373.155 596.5,-362.9199 596.5,-355.6427"/>
<polygon fill="#191970" stroke="#191970" points="593.0001,-382.2455 596.5,-392.2455 600.0001,-382.2456 593.0001,-382.2455"/>
</g>
<!-- Node33&#45;&gt;Node19 -->
<g id="edge31" class="edge">
<title>Node33&#45;&gt;Node19</title>
<path fill="none" stroke="#191970" d="M572.8174,-330.2912C562.7979,-322.3981 551.969,-311.9635 545.5,-300 525.1082,-262.2884 524.9819,-209.0383 525.9024,-187.5459"/>
<polygon fill="#191970" stroke="#191970" points="570.8112,-333.1608 580.9299,-336.3015 574.9783,-327.5362 570.8112,-333.1608"/>
</g>
<!-- Node33&#45;&gt;Node21 -->
<g id="edge36" class="edge">
<title>Node33&#45;&gt;Node21</title>
<path fill="none" stroke="#191970" d="M619.0954,-330.2207C629.0828,-322.2053 640.193,-311.6911 647.5,-300 663.678,-274.1152 666.5,-264.5246 666.5,-234 666.5,-234 666.5,-234 666.5,-178 666.5,-134.2041 627.5341,-93.4144 607.7467,-75.5244"/>
<polygon fill="#191970" stroke="#191970" points="616.9059,-327.4888 611.0782,-336.3369 621.1517,-333.0542 616.9059,-327.4888"/>
</g>
<!-- Node34 -->
<g id="node25" class="node">
<title>Node34</title>
<g id="a_node25"><a xlink:href="api_2spec_2classification_8h.html" target="_top" xlink:title="ODP classification descriptor. ">
<polygon fill="#ffffff" stroke="#000000" points="371,-280.5 371,-299.5 460,-299.5 460,-280.5 371,-280.5"/>
<text text-anchor="middle" x="415.5" y="-287.5" font-family="Helvetica,sans-Serif" font-size="10.00" fill="#000000">classification.h</text>
</a>
</g>
</g>
<!-- Node33&#45;&gt;Node34 -->
<g id="edge29" class="edge">
<title>Node33&#45;&gt;Node34</title>
<path fill="none" stroke="#191970" d="M555.5278,-333.3235C522.3339,-323.0536 476.2942,-308.8093 446.209,-299.5011"/>
<polygon fill="#191970" stroke="#191970" points="554.7973,-336.7611 565.385,-336.3733 556.8663,-330.0739 554.7973,-336.7611"/>
</g>
<!-- Node35 -->
<g id="node26" class="node">
<title>Node35</title>
<g id="a_node26"><a xlink:href="api_2spec_2traffic__mngr_8h.html" target="_top" xlink:title="Copyright (c) 2015&#45;2018, Linaro Limited All rights reserved. ">
<polygon fill="#ffffff" stroke="#000000" points="554.5,-280.5 554.5,-299.5 638.5,-299.5 638.5,-280.5 554.5,-280.5"/>
<text text-anchor="middle" x="596.5" y="-287.5" font-family="Helvetica,sans-Serif" font-size="10.00" fill="#000000">traffic_mngr.h</text>
</a>
</g>
</g>
<!-- Node33&#45;&gt;Node35 -->
<g id="edge32" class="edge">
<title>Node33&#45;&gt;Node35</title>
<path fill="none" stroke="#191970" d="M596.5,-326.1575C596.5,-317.155 596.5,-306.9199 596.5,-299.6427"/>
<polygon fill="#191970" stroke="#191970" points="593.0001,-326.2455 596.5,-336.2455 600.0001,-326.2456 593.0001,-326.2455"/>
</g>
<!-- Node34&#45;&gt;Node18 -->
<g id="edge30" class="edge">
<title>Node34&#45;&gt;Node18</title>
<path fill="none" stroke="#191970" d="M415.5,-270.1575C415.5,-261.155 415.5,-250.9199 415.5,-243.6427"/>
<polygon fill="#191970" stroke="#191970" points="412.0001,-270.2455 415.5,-280.2455 419.0001,-270.2456 412.0001,-270.2455"/>
</g>
<!-- Node36 -->
<g id="node27" class="node">
<title>Node36</title>
<g id="a_node27"><a xlink:href="api_2traffic__mngr_8h.html" target="_top" xlink:title="ODP Traffic manager. ">
<polygon fill="#ffffff" stroke="#000000" points="554.5,-224.5 554.5,-243.5 638.5,-243.5 638.5,-224.5 554.5,-224.5"/>
<text text-anchor="middle" x="596.5" y="-231.5" font-family="Helvetica,sans-Serif" font-size="10.00" fill="#000000">traffic_mngr.h</text>
</a>
</g>
</g>
<!-- Node35&#45;&gt;Node36 -->
<g id="edge33" class="edge">
<title>Node35&#45;&gt;Node36</title>
<path fill="none" stroke="#191970" d="M596.5,-270.1575C596.5,-261.155 596.5,-250.9199 596.5,-243.6427"/>
<polygon fill="#191970" stroke="#191970" points="593.0001,-270.2455 596.5,-280.2455 600.0001,-270.2456 593.0001,-270.2455"/>
</g>
<!-- Node36&#45;&gt;Node19 -->
<g id="edge34" class="edge">
<title>Node36&#45;&gt;Node19</title>
<path fill="none" stroke="#191970" d="M576.41,-217.928C564.1747,-208.1397 548.9493,-195.9595 538.5533,-187.6427"/>
<polygon fill="#191970" stroke="#191970" points="574.3118,-220.7316 584.3069,-224.2455 578.6847,-215.2655 574.3118,-220.7316"/>
</g>
<!-- Node36&#45;&gt;Node21 -->
<g id="edge35" class="edge">
<title>Node36&#45;&gt;Node21</title>
<path fill="none" stroke="#191970" d="M596.5,-214.2601C596.5,-178.1669 596.5,-102.7656 596.5,-75.8279"/>
<polygon fill="#191970" stroke="#191970" points="593.0001,-214.4862 596.5,-224.4862 600.0001,-214.4863 593.0001,-214.4862"/>
</g>
<!-- Node38 -->
<g id="node29" class="node">
<title>Node38</title>
<g id="a_node29"><a xlink:href="api_2schedule_8h.html" target="_top" xlink:title="ODP schedule. ">
<polygon fill="#ffffff" stroke="#000000" points="733,-168.5 733,-187.5 802,-187.5 802,-168.5 733,-168.5"/>
<text text-anchor="middle" x="767.5" y="-175.5" font-family="Helvetica,sans-Serif" font-size="10.00" fill="#000000">schedule.h</text>
</a>
</g>
</g>
<!-- Node37&#45;&gt;Node38 -->
<g id="edge38" class="edge">
<title>Node37&#45;&gt;Node38</title>
<path fill="none" stroke="#191970" d="M767.5,-382.1177C767.5,-335.6713 767.5,-221.4223 767.5,-187.5891"/>
<polygon fill="#191970" stroke="#191970" points="764.0001,-382.375 767.5,-392.375 771.0001,-382.375 764.0001,-382.375"/>
</g>
<!-- Node38&#45;&gt;Node21 -->
<g id="edge39" class="edge">
<title>Node38&#45;&gt;Node21</title>
<path fill="none" stroke="#191970" d="M757.6379,-159.3613C749.0394,-144.6992 735.3214,-124.6914 718.5,-112 691.5758,-91.6862 654.6643,-79.4359 628.5122,-72.7443"/>
<polygon fill="#191970" stroke="#191970" points="754.5891,-161.0803 762.5302,-168.0938 760.696,-157.6589 754.5891,-161.0803"/>
</g>
<!-- Node40 -->
<g id="node31" class="node">
<title>Node40</title>
<g id="a_node31"><a xlink:href="api_2packet__flags_8h.html" target="_top" xlink:title="ODP packet flags. ">
<polygon fill="#ffffff" stroke="#000000" points="261,-112.5 261,-131.5 348,-131.5 348,-112.5 261,-112.5"/>
<text text-anchor="middle" x="304.5" y="-119.5" font-family="Helvetica,sans-Serif" font-size="10.00" fill="#000000">packet_flags.h</text>
</a>
</g>
</g>
<!-- Node39&#45;&gt;Node40 -->
<g id="edge44" class="edge">
<title>Node39&#45;&gt;Node40</title>
<path fill="none" stroke="#191970" d="M371.719,-610.6322C344.4701,-591.6058 304.5,-556.4603 304.5,-514 304.5,-514 304.5,-514 304.5,-234 304.5,-196.0833 304.5,-150.9462 304.5,-131.5884"/>
<polygon fill="#191970" stroke="#191970" points="369.8,-613.5595 380.0522,-616.232 373.7043,-607.7494 369.8,-613.5595"/>
</g>
<!-- Node40&#45;&gt;Node21 -->
<g id="edge45" class="edge">
<title>Node40&#45;&gt;Node21</title>
<path fill="none" stroke="#191970" d="M358.3138,-111.6795C418.6476,-100.1087 514.5254,-81.7211 564.2361,-72.1876"/>
<polygon fill="#191970" stroke="#191970" points="357.3771,-108.2953 348.2154,-113.6162 358.6956,-115.17 357.3771,-108.2953"/>
</g>
</g>
</svg>
