<?xml version="1.0" encoding="UTF-8" standalone="no"?>
<!DOCTYPE svg PUBLIC "-//W3C//DTD SVG 1.1//EN"
 "http://www.w3.org/Graphics/SVG/1.1/DTD/svg11.dtd">
<!-- Generated by graphviz version 2.40.1 (20161225.0304)
 -->
<!-- Title: odp.h Pages: 1 -->
<svg width="5147pt" height="252pt"
 viewBox="0.00 0.00 5147.00 252.00" xmlns="http://www.w3.org/2000/svg" xmlns:xlink="http://www.w3.org/1999/xlink">
<g id="graph0" class="graph" transform="scale(1 1) rotate(0) translate(4 248)">
<title>odp.h</title>
<polygon fill="#ffffff" stroke="transparent" points="-4,4 -4,-248 5143,-248 5143,4 -4,4"/>
<!-- Node0 -->
<g id="node1" class="node">
<title>Node0</title>
<polygon fill="#bfbfbf" stroke="#000000" points="2351.5,-224.5 2351.5,-243.5 2395.5,-243.5 2395.5,-224.5 2351.5,-224.5"/>
<text text-anchor="middle" x="2373.5" y="-231.5" font-family="Helvetica,sans-Serif" font-size="10.00" fill="#000000">odp.h</text>
</g>
<!-- Node1 -->
<g id="node2" class="node">
<title>Node1</title>
<g id="a_node2"><a xlink:href="odp__api_8h.html" target="_top" xlink:title="The OpenDataPlane API. ">
<polygon fill="#ffffff" stroke="#000000" points="2341.5,-168.5 2341.5,-187.5 2405.5,-187.5 2405.5,-168.5 2341.5,-168.5"/>
<text text-anchor="middle" x="2373.5" y="-175.5" font-family="Helvetica,sans-Serif" font-size="10.00" fill="#000000">odp_api.h</text>
</a>
</g>
</g>
<!-- Node0&#45;&gt;Node1 -->
<g id="edge1" class="edge">
<title>Node0&#45;&gt;Node1</title>
<path fill="none" stroke="#191970" d="M2373.5,-224.2455C2373.5,-216.9382 2373.5,-206.6944 2373.5,-197.7046"/>
<polygon fill="#191970" stroke="#191970" points="2377.0001,-197.6426 2373.5,-187.6427 2370.0001,-197.6427 2377.0001,-197.6426"/>
</g>
<!-- Node2 -->
<g id="node3" class="node">
<title>Node2</title>
<g id="a_node3"><a xlink:href="deprecated_8h.html" target="_top" xlink:title="Control deprecated API definitions. ">
<polygon fill="#ffffff" stroke="#000000" points="95,-112.5 95,-131.5 214,-131.5 214,-112.5 95,-112.5"/>
<text text-anchor="middle" x="154.5" y="-119.5" font-family="Helvetica,sans-Serif" font-size="10.00" fill="#000000">odp/api/deprecated.h</text>
</a>
</g>
</g>
<!-- Node1&#45;&gt;Node2 -->
<g id="edge2" class="edge">
<title>Node1&#45;&gt;Node2</title>
<path fill="none" stroke="#191970" d="M2341.243,-177.8255C2148.7596,-176.6711 1132.1371,-168.9951 303.5,-132 277.6628,-130.8465 249.3369,-129.0735 224.3851,-127.339"/>
<polygon fill="#191970" stroke="#191970" points="224.5007,-123.8386 214.2791,-126.626 224.008,-130.8212 224.5007,-123.8386"/>
</g>
<!-- Node6 -->
<g id="node5" class="node">
<title>Node6</title>
<g id="a_node5"><a xlink:href="api_2version_8h.html" target="_top" xlink:title="ODP version. ">
<polygon fill="#ffffff" stroke="#000000" points="313,-112.5 313,-131.5 414,-131.5 414,-112.5 313,-112.5"/>
<text text-anchor="middle" x="363.5" y="-119.5" font-family="Helvetica,sans-Serif" font-size="10.00" fill="#000000">odp/api/version.h</text>
</a>
</g>
</g>
<!-- Node1&#45;&gt;Node6 -->
<g id="edge4" class="edge">
<title>Node1&#45;&gt;Node6</title>
<path fill="none" stroke="#191970" d="M2341.2575,-177.7376C2160.1004,-176.1521 1250.5951,-166.7243 508.5,-132 480.7962,-130.7037 450.1531,-128.6772 424.2012,-126.7864"/>
<polygon fill="#191970" stroke="#191970" points="424.3629,-123.2889 414.1322,-126.0427 423.8472,-130.2699 424.3629,-123.2889"/>
</g>
<!-- Node9 -->
<g id="node8" class="node">
<title>Node9</title>
<g id="a_node8"><a xlink:href="api_2std__types_8h.html" target="_top" xlink:title="Standard C language types and definitions for ODP. ">
<polygon fill="#ffffff" stroke="#ff0000" points="1004.5,-.5 1004.5,-19.5 1116.5,-19.5 1116.5,-.5 1004.5,-.5"/>
<text text-anchor="middle" x="1060.5" y="-7.5" font-family="Helvetica,sans-Serif" font-size="10.00" fill="#000000">odp/api/std_types.h</text>
</a>
</g>
</g>
<!-- Node1&#45;&gt;Node9 -->
<g id="edge7" class="edge">
<title>Node1&#45;&gt;Node9</title>
<path fill="none" stroke="#191970" d="M2341.4772,-177.7553C2149.8083,-176.1764 1160.9358,-166.3815 1107.5,-132 1073.1078,-109.8714 1063.8453,-58.4587 1061.3757,-29.9444"/>
<polygon fill="#191970" stroke="#191970" points="1064.844,-29.347 1060.6937,-19.5989 1057.8591,-29.8075 1064.844,-29.347"/>
</g>
<!-- Node13 -->
<g id="node9" class="node">
<title>Node13</title>
<g id="a_node9"><a xlink:href="api_2align_8h.html" target="_top" xlink:title="ODP alignments. ">
<polygon fill="#ffffff" stroke="#ff0000" points="1469,-112.5 1469,-131.5 1558,-131.5 1558,-112.5 1469,-112.5"/>
<text text-anchor="middle" x="1513.5" y="-119.5" font-family="Helvetica,sans-Serif" font-size="10.00" fill="#000000">odp/api/align.h</text>
</a>
</g>
</g>
<!-- Node1&#45;&gt;Node13 -->
<g id="edge8" class="edge">
<title>Node1&#45;&gt;Node13</title>
<path fill="none" stroke="#191970" d="M2341.4574,-177.6622C2233.6559,-176.2124 1874.1661,-168.8354 1568.2036,-132.0744"/>
<polygon fill="#191970" stroke="#191970" points="1568.6048,-128.5975 1558.2558,-130.8664 1567.7609,-135.5464 1568.6048,-128.5975"/>
</g>
<!-- Node16 -->
<g id="node10" class="node">
<title>Node16</title>
<g id="a_node10"><a xlink:href="api_2hash_8h.html" target="_top" xlink:title="ODP Hash function. ">
<polygon fill="#ffffff" stroke="#ff0000" points="1575.5,-112.5 1575.5,-131.5 1663.5,-131.5 1663.5,-112.5 1575.5,-112.5"/>
<text text-anchor="middle" x="1619.5" y="-119.5" font-family="Helvetica,sans-Serif" font-size="10.00" fill="#000000">odp/api/hash.h</text>
</a>
</g>
</g>
<!-- Node1&#45;&gt;Node16 -->
<g id="edge9" class="edge">
<title>Node1&#45;&gt;Node16</title>
<path fill="none" stroke="#191970" d="M2341.2266,-177.2702C2242.6826,-174.7488 1936.9097,-164.7527 1673.8106,-132.024"/>
<polygon fill="#191970" stroke="#191970" points="1674.0417,-128.5256 1663.6831,-130.7502 1673.1681,-135.4709 1674.0417,-128.5256"/>
</g>
<!-- Node19 -->
<g id="node11" class="node">
<title>Node19</title>
<g id="a_node11"><a xlink:href="chksum_8h.html" target="_top" xlink:title="ODP checksum functions. ">
<polygon fill="#ffffff" stroke="#ff0000" points="1682,-112.5 1682,-131.5 1785,-131.5 1785,-112.5 1682,-112.5"/>
<text text-anchor="middle" x="1733.5" y="-119.5" font-family="Helvetica,sans-Serif" font-size="10.00" fill="#000000">odp/api/chksum.h</text>
</a>
</g>
</g>
<!-- Node1&#45;&gt;Node19 -->
<g id="edge10" class="edge">
<title>Node1&#45;&gt;Node19</title>
<path fill="none" stroke="#191970" d="M2341.3949,-176.3894C2254.9699,-171.854 2010.0269,-157.6844 1795.2456,-131.991"/>
<polygon fill="#191970" stroke="#191970" points="1795.389,-128.483 1785.0415,-130.7588 1794.5498,-135.4325 1795.389,-128.483"/>
</g>
<!-- Node21 -->
<g id="node12" class="node">
<title>Node21</title>
<g id="a_node12"><a xlink:href="api_2comp_8h.html" target="_top" xlink:title="ODP crypto. ">
<polygon fill="#ffffff" stroke="#ff0000" points="1803.5,-112.5 1803.5,-131.5 1895.5,-131.5 1895.5,-112.5 1803.5,-112.5"/>
<text text-anchor="middle" x="1849.5" y="-119.5" font-family="Helvetica,sans-Serif" font-size="10.00" fill="#000000">odp/api/comp.h</text>
</a>
</g>
</g>
<!-- Node1&#45;&gt;Node21 -->
<g id="edge11" class="edge">
<title>Node1&#45;&gt;Node21</title>
<path fill="none" stroke="#191970" d="M2341.2651,-175.7552C2266.5588,-170.3569 2075.6257,-155.4369 1905.7924,-132.0839"/>
<polygon fill="#191970" stroke="#191970" points="1906.0555,-128.587 1895.6692,-130.6783 1905.0927,-135.5204 1906.0555,-128.587"/>
</g>
<!-- Node37 -->
<g id="node13" class="node">
<title>Node37</title>
<g id="a_node13"><a xlink:href="hints_8h.html" target="_top" xlink:title="ODP compiler hints. ">
<polygon fill="#ffffff" stroke="#ff0000" points="1914,-112.5 1914,-131.5 2003,-131.5 2003,-112.5 1914,-112.5"/>
<text text-anchor="middle" x="1958.5" y="-119.5" font-family="Helvetica,sans-Serif" font-size="10.00" fill="#000000">odp/api/hints.h</text>
</a>
</g>
</g>
<!-- Node1&#45;&gt;Node37 -->
<g id="edge12" class="edge">
<title>Node1&#45;&gt;Node37</title>
<path fill="none" stroke="#191970" d="M2341.4483,-174.5821C2279.8,-167.867 2140.2283,-151.9827 2013.1885,-132.2001"/>
<polygon fill="#191970" stroke="#191970" points="2013.7084,-128.7389 2003.2866,-130.6461 2012.623,-135.6543 2013.7084,-128.7389"/>
</g>
<!-- Node39 -->
<g id="node14" class="node">
<title>Node39</title>
<g id="a_node14"><a xlink:href="api_2debug_8h.html" target="_top" xlink:title="ODP debug. ">
<polygon fill="#ffffff" stroke="#ff0000" points="2021,-112.5 2021,-131.5 2116,-131.5 2116,-112.5 2021,-112.5"/>
<text text-anchor="middle" x="2068.5" y="-119.5" font-family="Helvetica,sans-Serif" font-size="10.00" fill="#000000">odp/api/debug.h</text>
</a>
</g>
</g>
<!-- Node1&#45;&gt;Node39 -->
<g id="edge13" class="edge">
<title>Node1&#45;&gt;Node39</title>
<path fill="none" stroke="#191970" d="M2341.4361,-172.1129C2290.3335,-162.7301 2189.6932,-144.2519 2125.9338,-132.5452"/>
<polygon fill="#191970" stroke="#191970" points="2126.4983,-129.0904 2116.0307,-130.7269 2125.2342,-135.9754 2126.4983,-129.0904"/>
</g>
<!-- Node42 -->
<g id="node15" class="node">
<title>Node42</title>
<g id="a_node15"><a xlink:href="api_2byteorder_8h.html" target="_top" xlink:title="ODP byteorder. ">
<polygon fill="#ffffff" stroke="#ff0000" points="2134,-112.5 2134,-131.5 2245,-131.5 2245,-112.5 2134,-112.5"/>
<text text-anchor="middle" x="2189.5" y="-119.5" font-family="Helvetica,sans-Serif" font-size="10.00" fill="#000000">odp/api/byteorder.h</text>
</a>
</g>
</g>
<!-- Node1&#45;&gt;Node42 -->
<g id="edge14" class="edge">
<title>Node1&#45;&gt;Node42</title>
<path fill="none" stroke="#191970" d="M2341.8693,-168.3733C2311.1404,-159.021 2264.324,-144.7725 2230.6978,-134.5385"/>
<polygon fill="#191970" stroke="#191970" points="2231.3038,-131.0644 2220.718,-131.5011 2229.2656,-137.7612 2231.3038,-131.0644"/>
</g>
<!-- Node45 -->
<g id="node16" class="node">
<title>Node45</title>
<g id="a_node16"><a xlink:href="api_2cpu_8h.html" target="_top" xlink:title="ODP CPU. ">
<polygon fill="#ffffff" stroke="#ff0000" points="2263.5,-112.5 2263.5,-131.5 2345.5,-131.5 2345.5,-112.5 2263.5,-112.5"/>
<text text-anchor="middle" x="2304.5" y="-119.5" font-family="Helvetica,sans-Serif" font-size="10.00" fill="#000000">odp/api/cpu.h</text>
</a>
</g>
</g>
<!-- Node1&#45;&gt;Node45 -->
<g id="edge15" class="edge">
<title>Node1&#45;&gt;Node45</title>
<path fill="none" stroke="#191970" d="M2361.4811,-168.2455C2351.2902,-159.9746 2336.4638,-147.9416 2324.4893,-138.2232"/>
<polygon fill="#191970" stroke="#191970" points="2326.3514,-135.2268 2316.3812,-131.6427 2321.9402,-140.662 2326.3514,-135.2268"/>
</g>
<!-- Node47 -->
<g id="node17" class="node">
<title>Node47</title>
<g id="a_node17"><a xlink:href="api_2thread_8h.html" target="_top" xlink:title="ODP thread API. ">
<polygon fill="#ffffff" stroke="#ff0000" points="2290.5,-56.5 2290.5,-75.5 2386.5,-75.5 2386.5,-56.5 2290.5,-56.5"/>
<text text-anchor="middle" x="2338.5" y="-63.5" font-family="Helvetica,sans-Serif" font-size="10.00" fill="#000000">odp/api/thread.h</text>
</a>
</g>
</g>
<!-- Node1&#45;&gt;Node47 -->
<g id="edge27" class="edge">
<title>Node1&#45;&gt;Node47</title>
<path fill="none" stroke="#191970" d="M2370.8336,-168.1097C2367.3007,-155.158 2360.7801,-131.7739 2354.5,-112 2351.6927,-103.1606 2348.3537,-93.4511 2345.454,-85.2399"/>
<polygon fill="#191970" stroke="#191970" points="2348.7488,-84.0588 2342.0892,-75.8187 2342.1566,-86.4133 2348.7488,-84.0588"/>
</g>
<!-- Node52 -->
<g id="node18" class="node">
<title>Node52</title>
<g id="a_node18"><a xlink:href="api_2cpumask_8h.html" target="_top" xlink:title="ODP CPU masks and enumeration. ">
<polygon fill="#ffffff" stroke="#ff0000" points="2402,-112.5 2402,-131.5 2511,-131.5 2511,-112.5 2402,-112.5"/>
<text text-anchor="middle" x="2456.5" y="-119.5" font-family="Helvetica,sans-Serif" font-size="10.00" fill="#000000">odp/api/cpumask.h</text>
</a>
</g>
</g>
<!-- Node1&#45;&gt;Node52 -->
<g id="edge17" class="edge">
<title>Node1&#45;&gt;Node52</title>
<path fill="none" stroke="#191970" d="M2387.9575,-168.2455C2400.5732,-159.7337 2419.0944,-147.2375 2433.7045,-137.3801"/>
<polygon fill="#191970" stroke="#191970" points="2435.8761,-140.1371 2442.2082,-131.6427 2431.9609,-134.3343 2435.8761,-140.1371"/>
</g>
<!-- Node55 -->
<g id="node19" class="node">
<title>Node55</title>
<g id="a_node19"><a xlink:href="api_2barrier_8h.html" target="_top" xlink:title="ODP execution barriers. ">
<polygon fill="#ffffff" stroke="#ff0000" points="1126.5,-112.5 1126.5,-131.5 1222.5,-131.5 1222.5,-112.5 1126.5,-112.5"/>
<text text-anchor="middle" x="1174.5" y="-119.5" font-family="Helvetica,sans-Serif" font-size="10.00" fill="#000000">odp/api/barrier.h</text>
</a>
</g>
</g>
<!-- Node1&#45;&gt;Node55 -->
<g id="edge18" class="edge">
<title>Node1&#45;&gt;Node55</title>
<path fill="none" stroke="#191970" d="M2341.3568,-177.2195C2180.2416,-173.2282 1459.4806,-154.4119 1236.5,-132 1235.388,-131.8882 1234.2657,-131.7694 1233.1357,-131.6442"/>
<polygon fill="#191970" stroke="#191970" points="1233.1814,-128.1232 1222.8268,-130.3667 1232.3205,-135.07 1233.1814,-128.1232"/>
</g>
<!-- Node56 -->
<g id="node20" class="node">
<title>Node56</title>
<g id="a_node20"><a xlink:href="api_2atomic_8h.html" target="_top" xlink:title="ODP atomic operations. ">
<polygon fill="#ffffff" stroke="#ff0000" points="1088.5,-56.5 1088.5,-75.5 1186.5,-75.5 1186.5,-56.5 1088.5,-56.5"/>
<text text-anchor="middle" x="1137.5" y="-63.5" font-family="Helvetica,sans-Serif" font-size="10.00" fill="#000000">odp/api/atomic.h</text>
</a>
</g>
</g>
<!-- Node1&#45;&gt;Node56 -->
<g id="edge22" class="edge">
<title>Node1&#45;&gt;Node56</title>
<path fill="none" stroke="#191970" d="M2341.4792,-177.4356C2147.7019,-173.9463 1139.3999,-154.7167 1117.5,-132 1105.1133,-119.1514 1113.9324,-98.8887 1123.4618,-84.2022"/>
<polygon fill="#191970" stroke="#191970" points="1126.4145,-86.0879 1129.3037,-75.8946 1120.6885,-82.0613 1126.4145,-86.0879"/>
</g>
<!-- Node62 -->
<g id="node21" class="node">
<title>Node62</title>
<g id="a_node21"><a xlink:href="api_2spinlock_8h.html" target="_top" xlink:title="ODP spinlock. ">
<polygon fill="#ffffff" stroke="#ff0000" points="2529,-112.5 2529,-131.5 2634,-131.5 2634,-112.5 2529,-112.5"/>
<text text-anchor="middle" x="2581.5" y="-119.5" font-family="Helvetica,sans-Serif" font-size="10.00" fill="#000000">odp/api/spinlock.h</text>
</a>
</g>
</g>
<!-- Node1&#45;&gt;Node62 -->
<g id="edge21" class="edge">
<title>Node1&#45;&gt;Node62</title>
<path fill="none" stroke="#191970" d="M2405.5442,-169.3727C2440.4529,-159.9742 2496.5767,-144.864 2536.0329,-134.2412"/>
<polygon fill="#191970" stroke="#191970" points="2537.1866,-137.5552 2545.9328,-131.5758 2535.3667,-130.7959 2537.1866,-137.5552"/>
</g>
<!-- Node65 -->
<g id="node22" class="node">
<title>Node65</title>
<g id="a_node22"><a xlink:href="feature_8h.html" target="_top" xlink:title="ODP features. ">
<polygon fill="#ffffff" stroke="#ff0000" points="2652.5,-112.5 2652.5,-131.5 2752.5,-131.5 2752.5,-112.5 2652.5,-112.5"/>
<text text-anchor="middle" x="2702.5" y="-119.5" font-family="Helvetica,sans-Serif" font-size="10.00" fill="#000000">odp/api/feature.h</text>
</a>
</g>
</g>
<!-- Node1&#45;&gt;Node65 -->
<g id="edge23" class="edge">
<title>Node1&#45;&gt;Node65</title>
<path fill="none" stroke="#191970" d="M2405.6449,-172.5285C2460.4311,-163.2032 2572.7155,-144.091 2642.4004,-132.2297"/>
<polygon fill="#191970" stroke="#191970" points="2643.0898,-135.6628 2652.3607,-130.5343 2641.9152,-128.762 2643.0898,-135.6628"/>
</g>
<!-- Node67 -->
<g id="node23" class="node">
<title>Node67</title>
<g id="a_node23"><a xlink:href="api_2init_8h.html" target="_top" xlink:title="ODP initialization. ">
<polygon fill="#ffffff" stroke="#ff0000" points="2770.5,-112.5 2770.5,-131.5 2850.5,-131.5 2850.5,-112.5 2770.5,-112.5"/>
<text text-anchor="middle" x="2810.5" y="-119.5" font-family="Helvetica,sans-Serif" font-size="10.00" fill="#000000">odp/api/init.h</text>
</a>
</g>
</g>
<!-- Node1&#45;&gt;Node67 -->
<g id="edge24" class="edge">
<title>Node1&#45;&gt;Node67</title>
<path fill="none" stroke="#191970" d="M2405.5637,-175.111C2470.5702,-169.0579 2622.7179,-153.8972 2760.5413,-132.0439"/>
<polygon fill="#191970" stroke="#191970" points="2761.1178,-135.4962 2770.4385,-130.4589 2760.0108,-128.5843 2761.1178,-135.4962"/>
</g>
<!-- Node70 -->
<g id="node24" class="node">
<title>Node70</title>
<g id="a_node24"><a xlink:href="system__info_8h.html" target="_top" xlink:title="ODP system information. ">
<polygon fill="#ffffff" stroke="#ff0000" points="1243,-56.5 1243,-75.5 1368,-75.5 1368,-56.5 1243,-56.5"/>
<text text-anchor="middle" x="1305.5" y="-63.5" font-family="Helvetica,sans-Serif" font-size="10.00" fill="#000000">odp/api/system_info.h</text>
</a>
</g>
</g>
<!-- Node1&#45;&gt;Node70 -->
<g id="edge25" class="edge">
<title>Node1&#45;&gt;Node70</title>
<path fill="none" stroke="#191970" d="M2341.3942,-177.8989C2163.7209,-177.1858 1307.5742,-171.6937 1269.5,-132 1255.651,-117.5619 1271.2926,-96.7521 1286.0744,-82.3769"/>
<polygon fill="#191970" stroke="#191970" points="1288.5563,-84.85 1293.5653,-75.514 1283.8276,-79.6886 1288.5563,-84.85"/>
</g>
<!-- Node72 -->
<g id="node25" class="node">
<title>Node72</title>
<g id="a_node25"><a xlink:href="api_2shared__memory_8h.html" target="_top" xlink:title="ODP shared memory. ">
<polygon fill="#ffffff" stroke="#ff0000" points="2869,-112.5 2869,-131.5 3012,-131.5 3012,-112.5 2869,-112.5"/>
<text text-anchor="middle" x="2940.5" y="-119.5" font-family="Helvetica,sans-Serif" font-size="10.00" fill="#000000">odp/api/shared_memory.h</text>
</a>
</g>
</g>
<!-- Node1&#45;&gt;Node72 -->
<g id="edge28" class="edge">
<title>Node1&#45;&gt;Node72</title>
<path fill="none" stroke="#191970" d="M2405.6627,-175.2747C2482.1449,-168.7257 2681.1106,-151.2882 2858.8994,-132.0379"/>
<polygon fill="#191970" stroke="#191970" points="2859.3961,-135.5046 2868.9592,-130.9442 2858.6395,-128.5456 2859.3961,-135.5046"/>
</g>
<!-- Node74 -->
<g id="node26" class="node">
<title>Node74</title>
<g id="a_node26"><a xlink:href="api_2buffer_8h.html" target="_top" xlink:title="ODP buffer descriptor. ">
<polygon fill="#ffffff" stroke="#ff0000" points="1538.5,-56.5 1538.5,-75.5 1630.5,-75.5 1630.5,-56.5 1538.5,-56.5"/>
<text text-anchor="middle" x="1584.5" y="-63.5" font-family="Helvetica,sans-Serif" font-size="10.00" fill="#000000">odp/api/buffer.h</text>
</a>
</g>
</g>
<!-- Node1&#45;&gt;Node74 -->
<g id="edge29" class="edge">
<title>Node1&#45;&gt;Node74</title>
<path fill="none" stroke="#191970" d="M2341.3839,-177.6103C2182.8963,-175.534 1490.5154,-164.6156 1459.5,-132 1433.48,-104.6375 1483.8919,-86.3248 1528.2596,-76.0678"/>
<polygon fill="#191970" stroke="#191970" points="1529.1753,-79.45 1538.1868,-73.8783 1527.6676,-72.6143 1529.1753,-79.45"/>
</g>
<!-- Node76 -->
<g id="node27" class="node">
<title>Node76</title>
<g id="a_node27"><a xlink:href="api_2pool_8h.html" target="_top" xlink:title="ODP pool. ">
<polygon fill="#ffffff" stroke="#ff0000" points="3030.5,-112.5 3030.5,-131.5 3116.5,-131.5 3116.5,-112.5 3030.5,-112.5"/>
<text text-anchor="middle" x="3073.5" y="-119.5" font-family="Helvetica,sans-Serif" font-size="10.00" fill="#000000">odp/api/pool.h</text>
</a>
</g>
</g>
<!-- Node1&#45;&gt;Node76 -->
<g id="edge31" class="edge">
<title>Node1&#45;&gt;Node76</title>
<path fill="none" stroke="#191970" d="M2405.6629,-177.0726C2499.0845,-174.0921 2778.6028,-163.1454 3020.4013,-131.9984"/>
<polygon fill="#191970" stroke="#191970" points="3020.9699,-135.454 3030.434,-130.6915 3020.0656,-128.5126 3020.9699,-135.454"/>
</g>
<!-- Node78 -->
<g id="node28" class="node">
<title>Node78</title>
<g id="a_node28"><a xlink:href="api_2queue_8h.html" target="_top" xlink:title="ODP queue. ">
<polygon fill="#ffffff" stroke="#ff0000" points="1425,-56.5 1425,-75.5 1520,-75.5 1520,-56.5 1425,-56.5"/>
<text text-anchor="middle" x="1472.5" y="-63.5" font-family="Helvetica,sans-Serif" font-size="10.00" fill="#000000">odp/api/queue.h</text>
</a>
</g>
</g>
<!-- Node1&#45;&gt;Node78 -->
<g id="edge32" class="edge">
<title>Node1&#45;&gt;Node78</title>
<path fill="none" stroke="#191970" d="M2341.2626,-177.6287C2181.3776,-175.6335 1479.9149,-165.016 1448.5,-132 1435.8539,-118.7093 1446.3651,-98.2412 1457.1802,-83.6245"/>
<polygon fill="#191970" stroke="#191970" points="1459.9237,-85.7978 1463.4103,-75.7931 1454.4456,-81.4399 1459.9237,-85.7978"/>
</g>
<!-- Node86 -->
<g id="node29" class="node">
<title>Node86</title>
<g id="a_node29"><a xlink:href="api_2ticketlock_8h.html" target="_top" xlink:title="ODP ticketlock. ">
<polygon fill="#ffffff" stroke="#ff0000" points="3135,-112.5 3135,-131.5 3248,-131.5 3248,-112.5 3135,-112.5"/>
<text text-anchor="middle" x="3191.5" y="-119.5" font-family="Helvetica,sans-Serif" font-size="10.00" fill="#000000">odp/api/ticketlock.h</text>
</a>
</g>
</g>
<!-- Node1&#45;&gt;Node86 -->
<g id="edge34" class="edge">
<title>Node1&#45;&gt;Node86</title>
<path fill="none" stroke="#191970" d="M2405.8353,-177.0543C2509.0335,-173.8183 2839.9232,-161.7589 3124.5547,-132.0073"/>
<polygon fill="#191970" stroke="#191970" points="3125.0822,-135.4711 3134.6599,-130.9415 3124.3479,-128.5098 3125.0822,-135.4711"/>
</g>
<!-- Node34 -->
<g id="node30" class="node">
<title>Node34</title>
<g id="a_node30"><a xlink:href="api_2time_8h.html" target="_top" xlink:title="ODP time. ">
<polygon fill="#ffffff" stroke="#ff0000" points="445,-56.5 445,-75.5 532,-75.5 532,-56.5 445,-56.5"/>
<text text-anchor="middle" x="488.5" y="-63.5" font-family="Helvetica,sans-Serif" font-size="10.00" fill="#000000">odp/api/time.h</text>
</a>
</g>
</g>
<!-- Node1&#45;&gt;Node34 -->
<g id="edge35" class="edge">
<title>Node1&#45;&gt;Node34</title>
<path fill="none" stroke="#191970" d="M2341.3875,-177.5285C2127.0229,-174.3238 907.0373,-155.1694 743.5,-132 664.9237,-120.8676 575.6951,-94.4979 526.3671,-78.6658"/>
<polygon fill="#191970" stroke="#191970" points="527.3485,-75.3047 516.7566,-75.5521 525.191,-81.9639 527.3485,-75.3047"/>
</g>
<!-- Node89 -->
<g id="node31" class="node">
<title>Node89</title>
<g id="a_node31"><a xlink:href="api_2timer_8h.html" target="_top" xlink:title="ODP timer service. ">
<polygon fill="#ffffff" stroke="#ff0000" points="550.5,-56.5 550.5,-75.5 640.5,-75.5 640.5,-56.5 550.5,-56.5"/>
<text text-anchor="middle" x="595.5" y="-63.5" font-family="Helvetica,sans-Serif" font-size="10.00" fill="#000000">odp/api/timer.h</text>
</a>
</g>
</g>
<!-- Node1&#45;&gt;Node89 -->
<g id="edge37" class="edge">
<title>Node1&#45;&gt;Node89</title>
<path fill="none" stroke="#191970" d="M2341.3863,-177.4783C2134.7782,-174.0633 996.4238,-154.3429 843.5,-132 767.1509,-120.845 680.6061,-94.5783 632.6005,-78.7507"/>
<polygon fill="#191970" stroke="#191970" points="633.5528,-75.3789 622.9592,-75.5409 631.3416,-82.0205 633.5528,-75.3789"/>
</g>
<!-- Node92 -->
<g id="node32" class="node">
<title>Node92</title>
<g id="a_node32"><a xlink:href="api_2schedule_8h.html" target="_top" xlink:title="ODP schedule. ">
<polygon fill="#ffffff" stroke="#ff0000" points="3266.5,-112.5 3266.5,-131.5 3374.5,-131.5 3374.5,-112.5 3266.5,-112.5"/>
<text text-anchor="middle" x="3320.5" y="-119.5" font-family="Helvetica,sans-Serif" font-size="10.00" fill="#000000">odp/api/schedule.h</text>
</a>
</g>
</g>
<!-- Node1&#45;&gt;Node92 -->
<g id="edge39" class="edge">
<title>Node1&#45;&gt;Node92</title>
<path fill="none" stroke="#191970" d="M2405.7061,-177.5492C2520.1464,-175.6896 2917.9669,-167.0247 3256.2609,-132.026"/>
<polygon fill="#191970" stroke="#191970" points="3256.6695,-135.5024 3266.2519,-130.9828 3255.9425,-128.5403 3256.6695,-135.5024"/>
</g>
<!-- Node98 -->
<g id="node33" class="node">
<title>Node98</title>
<g id="a_node33"><a xlink:href="api_2sync_8h.html" target="_top" xlink:title="ODP synchronisation. ">
<polygon fill="#ffffff" stroke="#ff0000" points="3393,-112.5 3393,-131.5 3480,-131.5 3480,-112.5 3393,-112.5"/>
<text text-anchor="middle" x="3436.5" y="-119.5" font-family="Helvetica,sans-Serif" font-size="10.00" fill="#000000">odp/api/sync.h</text>
</a>
</g>
</g>
<!-- Node1&#45;&gt;Node98 -->
<g id="edge40" class="edge">
<title>Node1&#45;&gt;Node98</title>
<path fill="none" stroke="#191970" d="M2405.7156,-177.1452C2553.4507,-173.1328 3167.7382,-155.4209 3382.9585,-131.8567"/>
<polygon fill="#191970" stroke="#191970" points="3383.3595,-135.3337 3392.9019,-130.7302 3382.5715,-128.3782 3383.3595,-135.3337"/>
</g>
<!-- Node28 -->
<g id="node34" class="node">
<title>Node28</title>
<g id="a_node34"><a xlink:href="api_2packet_8h.html" target="_top" xlink:title="ODP packet descriptor. ">
<polygon fill="#ffffff" stroke="#ff0000" points="658.5,-56.5 658.5,-75.5 756.5,-75.5 756.5,-56.5 658.5,-56.5"/>
<text text-anchor="middle" x="707.5" y="-63.5" font-family="Helvetica,sans-Serif" font-size="10.00" fill="#000000">odp/api/packet.h</text>
</a>
</g>
</g>
<!-- Node1&#45;&gt;Node28 -->
<g id="edge41" class="edge">
<title>Node1&#45;&gt;Node28</title>
<path fill="none" stroke="#191970" d="M2341.4053,-177.4541C2142.1966,-174.0022 1078.5166,-154.6216 935.5,-132 865.4533,-120.9204 786.5475,-94.9109 742.3485,-79.0517"/>
<polygon fill="#191970" stroke="#191970" points="743.2665,-75.6616 732.6723,-75.5422 740.8797,-82.2421 743.2665,-75.6616"/>
</g>
<!-- Node101 -->
<g id="node35" class="node">
<title>Node101</title>
<g id="a_node35"><a xlink:href="api_2packet__flags_8h.html" target="_top" xlink:title="ODP packet flags. ">
<polygon fill="#ffffff" stroke="#ff0000" points="3498.5,-112.5 3498.5,-131.5 3624.5,-131.5 3624.5,-112.5 3498.5,-112.5"/>
<text text-anchor="middle" x="3561.5" y="-119.5" font-family="Helvetica,sans-Serif" font-size="10.00" fill="#000000">odp/api/packet_flags.h</text>
</a>
</g>
</g>
<!-- Node1&#45;&gt;Node101 -->
<g id="edge43" class="edge">
<title>Node1&#45;&gt;Node101</title>
<path fill="none" stroke="#191970" d="M2405.5339,-177.8129C2537.683,-176.8041 3053.5546,-170.5329 3488.0747,-132.0421"/>
<polygon fill="#191970" stroke="#191970" points="3488.6745,-135.5026 3498.3236,-131.1269 3488.0519,-128.5303 3488.6745,-135.5026"/>
</g>
<!-- Node104 -->
<g id="node36" class="node">
<title>Node104</title>
<g id="a_node36"><a xlink:href="api_2packet__io_8h.html" target="_top" xlink:title="ODP Packet IO. ">
<polygon fill="#ffffff" stroke="#ff0000" points="774.5,-56.5 774.5,-75.5 886.5,-75.5 886.5,-56.5 774.5,-56.5"/>
<text text-anchor="middle" x="830.5" y="-63.5" font-family="Helvetica,sans-Serif" font-size="10.00" fill="#000000">odp/api/packet_io.h</text>
</a>
</g>
</g>
<!-- Node1&#45;&gt;Node104 -->
<g id="edge44" class="edge">
<title>Node1&#45;&gt;Node104</title>
<path fill="none" stroke="#191970" d="M2341.4868,-177.5318C2148.4994,-174.6281 1143.9251,-158.3381 1009.5,-132 954.623,-121.2479 894.2735,-95.9712 859.5386,-80.0048"/>
<polygon fill="#191970" stroke="#191970" points="860.5732,-76.6255 850.0309,-75.5716 857.615,-82.9697 860.5732,-76.6255"/>
</g>
<!-- Node109 -->
<g id="node37" class="node">
<title>Node109</title>
<g id="a_node37"><a xlink:href="api_2crypto_8h.html" target="_top" xlink:title="ODP crypto. ">
<polygon fill="#ffffff" stroke="#ff0000" points="1279,-112.5 1279,-131.5 1374,-131.5 1374,-112.5 1279,-112.5"/>
<text text-anchor="middle" x="1326.5" y="-119.5" font-family="Helvetica,sans-Serif" font-size="10.00" fill="#000000">odp/api/crypto.h</text>
</a>
</g>
</g>
<!-- Node1&#45;&gt;Node109 -->
<g id="edge46" class="edge">
<title>Node1&#45;&gt;Node109</title>
<path fill="none" stroke="#191970" d="M2341.0897,-177.8175C2217.1452,-176.838 1761.4152,-170.6559 1388.5,-132 1387.0427,-131.8489 1385.5676,-131.6862 1384.0805,-131.5134"/>
<polygon fill="#191970" stroke="#191970" points="1384.5182,-128.0409 1374.155,-130.2445 1383.6304,-134.9844 1384.5182,-128.0409"/>
</g>
<!-- Node112 -->
<g id="node38" class="node">
<title>Node112</title>
<g id="a_node38"><a xlink:href="api_2classification_8h.html" target="_top" xlink:title="ODP classification descriptor. ">
<polygon fill="#ffffff" stroke="#ff0000" points="904.5,-56.5 904.5,-75.5 1032.5,-75.5 1032.5,-56.5 904.5,-56.5"/>
<text text-anchor="middle" x="968.5" y="-63.5" font-family="Helvetica,sans-Serif" font-size="10.00" fill="#000000">odp/api/classification.h</text>
</a>
</g>
</g>
<!-- Node1&#45;&gt;Node112 -->
<g id="edge49" class="edge">
<title>Node1&#45;&gt;Node112</title>
<path fill="none" stroke="#191970" d="M2341.3931,-177.4821C2144.687,-174.235 1108.7634,-156.039 1046.5,-132 1020.5707,-121.9891 997.1618,-99.5079 982.9016,-83.5719"/>
<polygon fill="#191970" stroke="#191970" points="985.4959,-81.221 976.3135,-75.9357 980.1958,-85.7936 985.4959,-81.221"/>
</g>
<!-- Node116 -->
<g id="node39" class="node">
<title>Node116</title>
<g id="a_node39"><a xlink:href="api_2rwlock_8h.html" target="_top" xlink:title="ODP RW Locks. ">
<polygon fill="#ffffff" stroke="#ff0000" points="3643,-112.5 3643,-131.5 3740,-131.5 3740,-112.5 3643,-112.5"/>
<text text-anchor="middle" x="3691.5" y="-119.5" font-family="Helvetica,sans-Serif" font-size="10.00" fill="#000000">odp/api/rwlock.h</text>
</a>
</g>
</g>
<!-- Node1&#45;&gt;Node116 -->
<g id="edge51" class="edge">
<title>Node1&#45;&gt;Node116</title>
<path fill="none" stroke="#191970" d="M2405.6651,-177.4118C2574.9296,-174.2282 3364.4814,-158.2647 3632.7441,-131.9011"/>
<polygon fill="#191970" stroke="#191970" points="3633.2354,-135.3693 3642.8315,-130.8789 3632.5296,-128.405 3633.2354,-135.3693"/>
</g>
<!-- Node80 -->
<g id="node40" class="node">
<title>Node80</title>
<g id="a_node40"><a xlink:href="api_2event_8h.html" target="_top" xlink:title="ODP event. ">
<polygon fill="#ffffff" stroke="#ff0000" points="3758.5,-112.5 3758.5,-131.5 3850.5,-131.5 3850.5,-112.5 3758.5,-112.5"/>
<text text-anchor="middle" x="3804.5" y="-119.5" font-family="Helvetica,sans-Serif" font-size="10.00" fill="#000000">odp/api/event.h</text>
</a>
</g>
</g>
<!-- Node1&#45;&gt;Node80 -->
<g id="edge52" class="edge">
<title>Node1&#45;&gt;Node80</title>
<path fill="none" stroke="#191970" d="M2405.6184,-177.5659C2584.0834,-175.058 3455.8593,-161.5307 3748.2045,-131.9546"/>
<polygon fill="#191970" stroke="#191970" points="3748.7747,-135.4142 3758.3576,-130.8957 3748.0485,-128.4519 3748.7747,-135.4142"/>
</g>
<!-- Node119 -->
<g id="node41" class="node">
<title>Node119</title>
<g id="a_node41"><a xlink:href="random_8h.html" target="_top" xlink:title="ODP random number API. ">
<polygon fill="#ffffff" stroke="#ff0000" points="3868.5,-112.5 3868.5,-131.5 3970.5,-131.5 3970.5,-112.5 3868.5,-112.5"/>
<text text-anchor="middle" x="3919.5" y="-119.5" font-family="Helvetica,sans-Serif" font-size="10.00" fill="#000000">odp/api/random.h</text>
</a>
</g>
</g>
<!-- Node1&#45;&gt;Node119 -->
<g id="edge53" class="edge">
<title>Node1&#45;&gt;Node119</title>
<path fill="none" stroke="#191970" d="M2405.6749,-177.5925C2592.7367,-175.1353 3542.5784,-161.4342 3858.4354,-131.9447"/>
<polygon fill="#191970" stroke="#191970" points="3858.8792,-135.4183 3868.4989,-130.9785 3858.2101,-128.4504 3858.8792,-135.4183"/>
</g>
<!-- Node121 -->
<g id="node42" class="node">
<title>Node121</title>
<g id="a_node42"><a xlink:href="api_2errno_8h.html" target="_top" xlink:title="ODP errno API. ">
<polygon fill="#ffffff" stroke="#ff0000" points="3988.5,-112.5 3988.5,-131.5 4078.5,-131.5 4078.5,-112.5 3988.5,-112.5"/>
<text text-anchor="middle" x="4033.5" y="-119.5" font-family="Helvetica,sans-Serif" font-size="10.00" fill="#000000">odp/api/errno.h</text>
</a>
</g>
</g>
<!-- Node1&#45;&gt;Node121 -->
<g id="edge54" class="edge">
<title>Node1&#45;&gt;Node121</title>
<path fill="none" stroke="#191970" d="M2405.67,-177.7568C2601.6171,-176.174 3637.2404,-166.3371 3978.3623,-131.9232"/>
<polygon fill="#191970" stroke="#191970" points="3978.9096,-135.3853 3988.4949,-130.8718 3978.1871,-128.4227 3978.9096,-135.3853"/>
</g>
<!-- Node95 -->
<g id="node43" class="node">
<title>Node95</title>
<g id="a_node43"><a xlink:href="api_2thrmask_8h.html" target="_top" xlink:title="ODP thread masks. ">
<polygon fill="#ffffff" stroke="#ff0000" points="4097,-112.5 4097,-131.5 4202,-131.5 4202,-112.5 4097,-112.5"/>
<text text-anchor="middle" x="4149.5" y="-119.5" font-family="Helvetica,sans-Serif" font-size="10.00" fill="#000000">odp/api/thrmask.h</text>
</a>
</g>
</g>
<!-- Node1&#45;&gt;Node95 -->
<g id="edge55" class="edge">
<title>Node1&#45;&gt;Node95</title>
<path fill="none" stroke="#191970" d="M2405.7997,-177.7209C2609.788,-175.8707 3722.2296,-164.4616 4086.7535,-131.91"/>
<polygon fill="#191970" stroke="#191970" points="4087.1569,-135.3878 4096.7959,-130.99 4086.5182,-128.417 4087.1569,-135.3878"/>
</g>
<!-- Node124 -->
<g id="node44" class="node">
<title>Node124</title>
<g id="a_node44"><a xlink:href="api_2traffic__mngr_8h.html" target="_top" xlink:title="ODP Traffic manager. ">
<polygon fill="#ffffff" stroke="#ff0000" points="4220,-112.5 4220,-131.5 4343,-131.5 4343,-112.5 4220,-112.5"/>
<text text-anchor="middle" x="4281.5" y="-119.5" font-family="Helvetica,sans-Serif" font-size="10.00" fill="#000000">odp/api/traffic_mngr.h</text>
</a>
</g>
</g>
<!-- Node1&#45;&gt;Node124 -->
<g id="edge56" class="edge">
<title>Node1&#45;&gt;Node124</title>
<path fill="none" stroke="#191970" d="M2405.6772,-177.71C2617.8454,-175.7207 3819.1504,-163.2548 4209.5164,-132.061"/>
<polygon fill="#191970" stroke="#191970" points="4210.0269,-135.531 4219.708,-131.2268 4209.4558,-128.5544 4210.0269,-135.531"/>
</g>
<!-- Node127 -->
<g id="node45" class="node">
<title>Node127</title>
<g id="a_node45"><a xlink:href="api_2spinlock__recursive_8h.html" target="_top" xlink:title="ODP resursive spinlock. ">
<polygon fill="#ffffff" stroke="#ff0000" points="4361,-112.5 4361,-131.5 4516,-131.5 4516,-112.5 4361,-112.5"/>
<text text-anchor="middle" x="4438.5" y="-119.5" font-family="Helvetica,sans-Serif" font-size="10.00" fill="#000000">odp/api/spinlock_recursive.h</text>
</a>
</g>
</g>
<!-- Node1&#45;&gt;Node127 -->
<g id="edge57" class="edge">
<title>Node1&#45;&gt;Node127</title>
<path fill="none" stroke="#191970" d="M2405.5888,-177.6618C2626.8731,-175.2685 3929.9251,-160.1836 4350.6388,-132.0593"/>
<polygon fill="#191970" stroke="#191970" points="4350.976,-135.5445 4360.7143,-131.3715 4350.4991,-128.5608 4350.976,-135.5445"/>
</g>
<!-- Node130 -->
<g id="node46" class="node">
<title>Node130</title>
<g id="a_node46"><a xlink:href="api_2rwlock__recursive_8h.html" target="_top" xlink:title="ODP resursive read/write lock. ">
<polygon fill="#ffffff" stroke="#ff0000" points="4534,-112.5 4534,-131.5 4681,-131.5 4681,-112.5 4534,-112.5"/>
<text text-anchor="middle" x="4607.5" y="-119.5" font-family="Helvetica,sans-Serif" font-size="10.00" fill="#000000">odp/api/rwlock_recursive.h</text>
</a>
</g>
</g>
<!-- Node1&#45;&gt;Node130 -->
<g id="edge58" class="edge">
<title>Node1&#45;&gt;Node130</title>
<path fill="none" stroke="#191970" d="M2405.7259,-177.7542C2638.4512,-175.9132 4065.6864,-163.498 4523.4732,-132.0658"/>
<polygon fill="#191970" stroke="#191970" points="4524.0458,-135.5343 4533.7765,-131.3434 4523.5561,-128.5515 4524.0458,-135.5343"/>
</g>
<!-- Node133 -->
<g id="node47" class="node">
<title>Node133</title>
<g id="a_node47"><a xlink:href="api_2std__clib_8h_source.html" target="_top" xlink:title="odp/api/std_clib.h">
<polygon fill="#ffffff" stroke="#ff0000" points="4699.5,-112.5 4699.5,-131.5 4801.5,-131.5 4801.5,-112.5 4699.5,-112.5"/>
<text text-anchor="middle" x="4750.5" y="-119.5" font-family="Helvetica,sans-Serif" font-size="10.00" fill="#000000">odp/api/std_clib.h</text>
</a>
</g>
</g>
<!-- Node1&#45;&gt;Node133 -->
<g id="edge59" class="edge">
<title>Node1&#45;&gt;Node133</title>
<path fill="none" stroke="#191970" d="M2405.5564,-177.646C2664.2247,-174.7527 4407.9213,-154.553 4689.0634,-131.9313"/>
<polygon fill="#191970" stroke="#191970" points="4689.5153,-135.4054 4699.1769,-131.0575 4688.9127,-128.4314 4689.5153,-135.4054"/>
</g>
<!-- Node26 -->
<g id="node48" class="node">
<title>Node26</title>
<g id="a_node48"><a xlink:href="support_8h.html" target="_top" xlink:title="ODP support API &#45; platform specific header. ">
<polygon fill="#ffffff" stroke="#ff0000" points="4820,-112.5 4820,-131.5 4921,-131.5 4921,-112.5 4820,-112.5"/>
<text text-anchor="middle" x="4870.5" y="-119.5" font-family="Helvetica,sans-Serif" font-size="10.00" fill="#000000">odp/api/support.h</text>
</a>
</g>
</g>
<!-- Node1&#45;&gt;Node26 -->
<g id="edge60" class="edge">
<title>Node1&#45;&gt;Node26</title>
<path fill="none" stroke="#191970" d="M2405.9212,-177.6757C2673.5283,-174.9619 4514.5653,-155.5675 4809.6047,-131.8612"/>
<polygon fill="#191970" stroke="#191970" points="4810.1661,-135.3259 4819.8287,-130.9804 4809.5652,-128.3517 4810.1661,-135.3259"/>
</g>
<!-- Node136 -->
<g id="node49" class="node">
<title>Node136</title>
<g id="a_node49"><a xlink:href="api_2ipsec_8h.html" target="_top" xlink:title="ODP IPSEC API &#45; platform specific header. ">
<polygon fill="#ffffff" stroke="#ff0000" points="4939.5,-112.5 4939.5,-131.5 5029.5,-131.5 5029.5,-112.5 4939.5,-112.5"/>
<text text-anchor="middle" x="4984.5" y="-119.5" font-family="Helvetica,sans-Serif" font-size="10.00" fill="#000000">odp/api/ipsec.h</text>
</a>
</g>
</g>
<!-- Node1&#45;&gt;Node136 -->
<g id="edge61" class="edge">
<title>Node1&#45;&gt;Node136</title>
<path fill="none" stroke="#191970" d="M2405.7482,-177.743C2680.2198,-175.5142 4621.3871,-158.9138 4929.2418,-131.8743"/>
<polygon fill="#191970" stroke="#191970" points="4929.8711,-135.3306 4939.4987,-130.908 4929.2145,-128.3615 4929.8711,-135.3306"/>
</g>
<!-- Node141 -->
<g id="node50" class="node">
<title>Node141</title>
<g id="a_node50"><a xlink:href="api_2stash_8h.html" target="_top" xlink:title="ODP stash. ">
<polygon fill="#ffffff" stroke="#ff0000" points="5048,-112.5 5048,-131.5 5139,-131.5 5139,-112.5 5048,-112.5"/>
<text text-anchor="middle" x="5093.5" y="-119.5" font-family="Helvetica,sans-Serif" font-size="10.00" fill="#000000">odp/api/stash.h</text>
</a>
</g>
</g>
<!-- Node1&#45;&gt;Node141 -->
<g id="edge62" class="edge">
<title>Node1&#45;&gt;Node141</title>
<path fill="none" stroke="#191970" d="M2405.7546,-177.7618C2686.8459,-175.6444 4717.7136,-159.5029 5037.7251,-131.8163"/>
<polygon fill="#191970" stroke="#191970" points="5038.3273,-135.2756 5047.962,-130.8684 5037.6818,-128.3054 5038.3273,-135.2756"/>
</g>
<!-- Node3 -->
<g id="node4" class="node">
<title>Node3</title>
<g id="a_node4"><a xlink:href="spec_2deprecated_8h.html" target="_top" xlink:title="Macro for deprecated API definitions. ">
<polygon fill="#ffffff" stroke="#ff0000" points="0,-56.5 0,-75.5 145,-75.5 145,-56.5 0,-56.5"/>
<text text-anchor="middle" x="72.5" y="-63.5" font-family="Helvetica,sans-Serif" font-size="10.00" fill="#000000">odp/api/spec/deprecated.h</text>
</a>
</g>
</g>
<!-- Node2&#45;&gt;Node3 -->
<g id="edge3" class="edge">
<title>Node2&#45;&gt;Node3</title>
<path fill="none" stroke="#191970" d="M140.2167,-112.2455C127.753,-103.7337 109.4549,-91.2375 95.0208,-81.3801"/>
<polygon fill="#191970" stroke="#191970" points="96.8515,-78.392 86.6196,-75.6427 92.9038,-84.1726 96.8515,-78.392"/>
</g>
<!-- Node7 -->
<g id="node6" class="node">
<title>Node7</title>
<polygon fill="#ffffff" stroke="#bfbfbf" points="163,-56.5 163,-75.5 282,-75.5 282,-56.5 163,-56.5"/>
<text text-anchor="middle" x="222.5" y="-63.5" font-family="Helvetica,sans-Serif" font-size="10.00" fill="#000000">odp/api/abi/version.h</text>
</g>
<!-- Node6&#45;&gt;Node7 -->
<g id="edge5" class="edge">
<title>Node6&#45;&gt;Node7</title>
<path fill="none" stroke="#191970" d="M339.2612,-112.3733C316.2211,-103.2226 281.3786,-89.3844 255.7499,-79.2057"/>
<polygon fill="#191970" stroke="#191970" points="257.0082,-75.9395 246.4225,-75.5011 254.4244,-82.4452 257.0082,-75.9395"/>
</g>
<!-- Node8 -->
<g id="node7" class="node">
<title>Node8</title>
<g id="a_node7"><a xlink:href="api_2spec_2version_8h.html" target="_top" xlink:title="ODP version. ">
<polygon fill="#ffffff" stroke="#ff0000" points="300.5,-56.5 300.5,-75.5 426.5,-75.5 426.5,-56.5 300.5,-56.5"/>
<text text-anchor="middle" x="363.5" y="-63.5" font-family="Helvetica,sans-Serif" font-size="10.00" fill="#000000">odp/api/spec/version.h</text>
</a>
</g>
</g>
<!-- Node6&#45;&gt;Node8 -->
<g id="edge6" class="edge">
<title>Node6&#45;&gt;Node8</title>
<path fill="none" stroke="#191970" d="M363.5,-112.2455C363.5,-104.9382 363.5,-94.6944 363.5,-85.7046"/>
<polygon fill="#191970" stroke="#191970" points="367.0001,-85.6426 363.5,-75.6427 360.0001,-85.6427 367.0001,-85.6426"/>
</g>
<!-- Node45&#45;&gt;Node47 -->
<g id="edge16" class="edge">
<title>Node45&#45;&gt;Node47</title>
<path fill="none" stroke="#191970" d="M2310.4223,-112.2455C2315.1027,-104.5367 2321.7673,-93.5598 2327.4289,-84.2348"/>
<polygon fill="#191970" stroke="#191970" points="2330.4475,-86.007 2332.6455,-75.6427 2324.4639,-82.3741 2330.4475,-86.007"/>
</g>
<!-- Node55&#45;&gt;Node9 -->
<g id="edge19" class="edge">
<title>Node55&#45;&gt;Node9</title>
<path fill="none" stroke="#191970" d="M1182.6299,-112.1998C1192.9383,-98.5144 1207.957,-73.4049 1195.5,-56 1185.7703,-42.4057 1148.7451,-30.3544 1115.9262,-22.0004"/>
<polygon fill="#191970" stroke="#191970" points="1116.4583,-18.5268 1105.911,-19.5289 1114.7811,-25.3229 1116.4583,-18.5268"/>
</g>
<!-- Node55&#45;&gt;Node56 -->
<g id="edge20" class="edge">
<title>Node55&#45;&gt;Node56</title>
<path fill="none" stroke="#191970" d="M1168.0551,-112.2455C1162.9618,-104.5367 1155.7092,-93.5598 1149.548,-84.2348"/>
<polygon fill="#191970" stroke="#191970" points="1152.3038,-82.0566 1143.8711,-75.6427 1146.4635,-85.9155 1152.3038,-82.0566"/>
</g>
<!-- Node70&#45;&gt;Node9 -->
<g id="edge26" class="edge">
<title>Node70&#45;&gt;Node9</title>
<path fill="none" stroke="#191970" d="M1263.6614,-56.4369C1221.7315,-46.8529 1157.1052,-32.0812 1112.0376,-21.78"/>
<polygon fill="#191970" stroke="#191970" points="1112.6946,-18.34 1102.1661,-19.5237 1111.1347,-25.164 1112.6946,-18.34"/>
</g>
<!-- Node74&#45;&gt;Node9 -->
<g id="edge30" class="edge">
<title>Node74&#45;&gt;Node9</title>
<path fill="none" stroke="#191970" d="M1538.4009,-57.4714C1535.055,-56.9435 1531.7284,-56.4462 1528.5,-56 1385.995,-36.304 1217.9383,-21.9283 1127.0211,-14.8804"/>
<polygon fill="#191970" stroke="#191970" points="1127.0981,-11.376 1116.859,-14.0983 1126.5609,-18.3554 1127.0981,-11.376"/>
</g>
<!-- Node78&#45;&gt;Node9 -->
<g id="edge33" class="edge">
<title>Node78&#45;&gt;Node9</title>
<path fill="none" stroke="#191970" d="M1424.7943,-58.1614C1419.9686,-57.4117 1415.1389,-56.6788 1410.5,-56 1311.8097,-41.5589 1197.1475,-26.8881 1126.7065,-18.1161"/>
<polygon fill="#191970" stroke="#191970" points="1126.9969,-14.6253 1116.6416,-16.8654 1126.1336,-21.5719 1126.9969,-14.6253"/>
</g>
<!-- Node34&#45;&gt;Node9 -->
<g id="edge36" class="edge">
<title>Node34&#45;&gt;Node9</title>
<path fill="none" stroke="#191970" d="M532.1171,-57.4194C535.2867,-56.9038 538.4391,-56.4234 541.5,-56 703.3329,-33.6159 895.1422,-19.9202 994.0817,-13.7947"/>
<polygon fill="#191970" stroke="#191970" points="994.4643,-17.278 1004.2315,-13.1728 994.0361,-10.2911 994.4643,-17.278"/>
</g>
<!-- Node89&#45;&gt;Node9 -->
<g id="edge38" class="edge">
<title>Node89&#45;&gt;Node9</title>
<path fill="none" stroke="#191970" d="M640.5409,-57.4096C643.5689,-56.9091 646.5763,-56.4338 649.5,-56 770.7346,-38.0138 913.0286,-23.5615 994.3948,-15.9273"/>
<polygon fill="#191970" stroke="#191970" points="994.8624,-19.399 1004.4941,-14.9854 994.2123,-12.4292 994.8624,-19.399"/>
</g>
<!-- Node28&#45;&gt;Node9 -->
<g id="edge42" class="edge">
<title>Node28&#45;&gt;Node9</title>
<path fill="none" stroke="#191970" d="M756.5384,-57.4882C759.57,-56.9796 762.5759,-56.48 765.5,-56 844.0725,-43.1014 934.5682,-29.1196 994.3871,-19.9988"/>
<polygon fill="#191970" stroke="#191970" points="995.0936,-23.4317 1004.4526,-18.4658 994.0396,-16.5115 995.0936,-23.4317"/>
</g>
<!-- Node104&#45;&gt;Node9 -->
<g id="edge45" class="edge">
<title>Node104&#45;&gt;Node9</title>
<path fill="none" stroke="#191970" d="M869.7771,-56.4369C908.9744,-46.8932 969.3,-32.2052 1011.5835,-21.9101"/>
<polygon fill="#191970" stroke="#191970" points="1012.4968,-25.2901 1021.3849,-19.5237 1010.8408,-18.4888 1012.4968,-25.2901"/>
</g>
<!-- Node109&#45;&gt;Node9 -->
<g id="edge47" class="edge">
<title>Node109&#45;&gt;Node9</title>
<path fill="none" stroke="#191970" d="M1342.9457,-112.2984C1363.2118,-99.1548 1393.0514,-75.1352 1376.5,-56 1360.4084,-37.3963 1214.7578,-22.4791 1126.9165,-15.078"/>
<polygon fill="#191970" stroke="#191970" points="1127.0217,-11.5748 1116.7661,-14.2345 1126.4419,-18.5508 1127.0217,-11.5748"/>
</g>
<!-- Node109&#45;&gt;Node78 -->
<g id="edge48" class="edge">
<title>Node109&#45;&gt;Node78</title>
<path fill="none" stroke="#191970" d="M1351.5983,-112.3733C1375.4555,-103.2226 1411.5335,-89.3844 1438.071,-79.2057"/>
<polygon fill="#191970" stroke="#191970" points="1439.6459,-82.3503 1447.7292,-75.5011 1437.139,-75.8145 1439.6459,-82.3503"/>
</g>
<!-- Node112&#45;&gt;Node9 -->
<g id="edge50" class="edge">
<title>Node112&#45;&gt;Node9</title>
<path fill="none" stroke="#191970" d="M984.5252,-56.2455C998.6408,-47.6534 1019.4263,-35.0014 1035.6899,-25.1018"/>
<polygon fill="#191970" stroke="#191970" points="1037.9363,-27.8319 1044.6585,-19.6427 1034.2966,-21.8525 1037.9363,-27.8319"/>
</g>
</g>
</svg>
