<?xml version="1.0" encoding="UTF-8" standalone="no"?>
<!DOCTYPE svg PUBLIC "-//W3C//DTD SVG 1.1//EN"
 "http://www.w3.org/Graphics/SVG/1.1/DTD/svg11.dtd">
<!-- Generated by graphviz version 2.40.1 (20161225.0304)
 -->
<!-- Title: odp_api.h Pages: 1 -->
<svg width="5083pt" height="252pt"
 viewBox="0.00 0.00 5083.00 252.00" xmlns="http://www.w3.org/2000/svg" xmlns:xlink="http://www.w3.org/1999/xlink">
<g id="graph0" class="graph" transform="scale(1 1) rotate(0) translate(4 248)">
<title>odp_api.h</title>
<polygon fill="#ffffff" stroke="transparent" points="-4,4 -4,-248 5079,-248 5079,4 -4,4"/>
<!-- Node0 -->
<g id="node1" class="node">
<title>Node0</title>
<polygon fill="#bfbfbf" stroke="#000000" points="2329.5,-224.5 2329.5,-243.5 2393.5,-243.5 2393.5,-224.5 2329.5,-224.5"/>
<text text-anchor="middle" x="2361.5" y="-231.5" font-family="Helvetica,sans-Serif" font-size="10.00" fill="#000000">odp_api.h</text>
</g>
<!-- Node1 -->
<g id="node2" class="node">
<title>Node1</title>
<g id="a_node2"><a xlink:href="deprecated_8h.html" target="_top" xlink:title="Control deprecated API definitions. ">
<polygon fill="#ffffff" stroke="#000000" points="97,-168.5 97,-187.5 216,-187.5 216,-168.5 97,-168.5"/>
<text text-anchor="middle" x="156.5" y="-175.5" font-family="Helvetica,sans-Serif" font-size="10.00" fill="#000000">odp/api/deprecated.h</text>
</a>
</g>
</g>
<!-- Node0&#45;&gt;Node1 -->
<g id="edge1" class="edge">
<title>Node0&#45;&gt;Node1</title>
<path fill="none" stroke="#191970" d="M2329.4928,-233.8086C2138.4999,-232.557 1129.7484,-224.4166 307.5,-188 281.0864,-186.8302 252.1052,-185.0348 226.6568,-183.2864"/>
<polygon fill="#191970" stroke="#191970" points="226.5745,-179.7722 216.3553,-182.5682 226.0876,-186.7553 226.5745,-179.7722"/>
</g>
<!-- Node5 -->
<g id="node4" class="node">
<title>Node5</title>
<g id="a_node4"><a xlink:href="api_2version_8h.html" target="_top" xlink:title="ODP version. ">
<polygon fill="#ffffff" stroke="#000000" points="317,-168.5 317,-187.5 418,-187.5 418,-168.5 317,-168.5"/>
<text text-anchor="middle" x="367.5" y="-175.5" font-family="Helvetica,sans-Serif" font-size="10.00" fill="#000000">odp/api/version.h</text>
</a>
</g>
</g>
<!-- Node0&#45;&gt;Node5 -->
<g id="edge3" class="edge">
<title>Node0&#45;&gt;Node5</title>
<path fill="none" stroke="#191970" d="M2329.4638,-233.7556C2149.4664,-232.2672 1245.7864,-223.2776 508.5,-188 482.1082,-186.7372 452.9757,-184.7678 428.0759,-182.9095"/>
<polygon fill="#191970" stroke="#191970" points="428.279,-179.415 418.0432,-182.1499 427.7504,-186.395 428.279,-179.415"/>
</g>
<!-- Node8 -->
<g id="node7" class="node">
<title>Node8</title>
<g id="a_node7"><a xlink:href="api_2std__types_8h.html" target="_top" xlink:title="Standard C language types and definitions for ODP. ">
<polygon fill="#ffffff" stroke="#ff0000" points="1023.5,-56.5 1023.5,-75.5 1135.5,-75.5 1135.5,-56.5 1023.5,-56.5"/>
<text text-anchor="middle" x="1079.5" y="-63.5" font-family="Helvetica,sans-Serif" font-size="10.00" fill="#000000">odp/api/std_types.h</text>
</a>
</g>
</g>
<!-- Node0&#45;&gt;Node8 -->
<g id="edge6" class="edge">
<title>Node0&#45;&gt;Node8</title>
<path fill="none" stroke="#191970" d="M2329.3479,-233.39C2134.7703,-229.6301 1122.2211,-209.0732 1098.5,-188 1069.9076,-162.5994 1071.941,-113.3451 1075.7994,-85.8244"/>
<polygon fill="#191970" stroke="#191970" points="1079.2781,-86.2372 1077.4228,-75.8061 1072.3682,-85.1175 1079.2781,-86.2372"/>
</g>
<!-- Node12 -->
<g id="node9" class="node">
<title>Node12</title>
<g id="a_node9"><a xlink:href="api_2align_8h.html" target="_top" xlink:title="ODP alignments. ">
<polygon fill="#ffffff" stroke="#ff0000" points="1526,-168.5 1526,-187.5 1615,-187.5 1615,-168.5 1526,-168.5"/>
<text text-anchor="middle" x="1570.5" y="-175.5" font-family="Helvetica,sans-Serif" font-size="10.00" fill="#000000">odp/api/align.h</text>
</a>
</g>
</g>
<!-- Node0&#45;&gt;Node12 -->
<g id="edge8" class="edge">
<title>Node0&#45;&gt;Node12</title>
<path fill="none" stroke="#191970" d="M2329.3584,-233.4211C2227.5817,-231.2876 1903.1939,-222.1851 1625.53,-188.1238"/>
<polygon fill="#191970" stroke="#191970" points="1625.6127,-184.6073 1615.2579,-186.8495 1624.7509,-191.554 1625.6127,-184.6073"/>
</g>
<!-- Node15 -->
<g id="node10" class="node">
<title>Node15</title>
<g id="a_node10"><a xlink:href="api_2hash_8h.html" target="_top" xlink:title="ODP Hash function. ">
<polygon fill="#ffffff" stroke="#ff0000" points="1632.5,-168.5 1632.5,-187.5 1720.5,-187.5 1720.5,-168.5 1632.5,-168.5"/>
<text text-anchor="middle" x="1676.5" y="-175.5" font-family="Helvetica,sans-Serif" font-size="10.00" fill="#000000">odp/api/hash.h</text>
</a>
</g>
</g>
<!-- Node0&#45;&gt;Node15 -->
<g id="edge9" class="edge">
<title>Node0&#45;&gt;Node15</title>
<path fill="none" stroke="#191970" d="M2329.4744,-232.9577C2237.764,-229.7002 1966.1565,-218.1488 1730.8045,-188.0355"/>
<polygon fill="#191970" stroke="#191970" points="1731.0526,-184.5385 1720.6861,-186.7264 1730.1544,-191.4807 1731.0526,-184.5385"/>
</g>
<!-- Node18 -->
<g id="node11" class="node">
<title>Node18</title>
<g id="a_node11"><a xlink:href="chksum_8h.html" target="_top" xlink:title="ODP checksum functions. ">
<polygon fill="#ffffff" stroke="#ff0000" points="1739,-168.5 1739,-187.5 1842,-187.5 1842,-168.5 1739,-168.5"/>
<text text-anchor="middle" x="1790.5" y="-175.5" font-family="Helvetica,sans-Serif" font-size="10.00" fill="#000000">odp/api/chksum.h</text>
</a>
</g>
</g>
<!-- Node0&#45;&gt;Node18 -->
<g id="edge10" class="edge">
<title>Node0&#45;&gt;Node18</title>
<path fill="none" stroke="#191970" d="M2329.4871,-231.923C2250.3928,-226.6186 2039.2346,-211.406 1852.0691,-187.985"/>
<polygon fill="#191970" stroke="#191970" points="1852.406,-184.4999 1842.0463,-186.72 1851.5293,-191.4448 1852.406,-184.4999"/>
</g>
<!-- Node20 -->
<g id="node12" class="node">
<title>Node20</title>
<g id="a_node12"><a xlink:href="api_2comp_8h.html" target="_top" xlink:title="ODP crypto. ">
<polygon fill="#ffffff" stroke="#ff0000" points="1860.5,-168.5 1860.5,-187.5 1952.5,-187.5 1952.5,-168.5 1860.5,-168.5"/>
<text text-anchor="middle" x="1906.5" y="-175.5" font-family="Helvetica,sans-Serif" font-size="10.00" fill="#000000">odp/api/comp.h</text>
</a>
</g>
</g>
<!-- Node0&#45;&gt;Node20 -->
<g id="edge11" class="edge">
<title>Node0&#45;&gt;Node20</title>
<path fill="none" stroke="#191970" d="M2329.2603,-231.0141C2262.7557,-224.6999 2105.3274,-208.9552 1962.9043,-188.1301"/>
<polygon fill="#191970" stroke="#191970" points="1963.0809,-184.6183 1952.6773,-186.6219 1962.0597,-191.5434 1963.0809,-184.6183"/>
</g>
<!-- Node36 -->
<g id="node13" class="node">
<title>Node36</title>
<g id="a_node13"><a xlink:href="hints_8h.html" target="_top" xlink:title="ODP compiler hints. ">
<polygon fill="#ffffff" stroke="#ff0000" points="1971,-168.5 1971,-187.5 2060,-187.5 2060,-168.5 1971,-168.5"/>
<text text-anchor="middle" x="2015.5" y="-175.5" font-family="Helvetica,sans-Serif" font-size="10.00" fill="#000000">odp/api/hints.h</text>
</a>
</g>
</g>
<!-- Node0&#45;&gt;Node36 -->
<g id="edge12" class="edge">
<title>Node0&#45;&gt;Node36</title>
<path fill="none" stroke="#191970" d="M2329.3634,-229.2852C2277.1253,-221.5497 2170.3034,-205.434 2070.0103,-188.2245"/>
<polygon fill="#191970" stroke="#191970" points="2070.4642,-184.7512 2060.015,-186.5019 2069.2753,-191.6495 2070.4642,-184.7512"/>
</g>
<!-- Node38 -->
<g id="node14" class="node">
<title>Node38</title>
<g id="a_node14"><a xlink:href="api_2debug_8h.html" target="_top" xlink:title="ODP debug. ">
<polygon fill="#ffffff" stroke="#ff0000" points="2078,-168.5 2078,-187.5 2173,-187.5 2173,-168.5 2078,-168.5"/>
<text text-anchor="middle" x="2125.5" y="-175.5" font-family="Helvetica,sans-Serif" font-size="10.00" fill="#000000">odp/api/debug.h</text>
</a>
</g>
</g>
<!-- Node0&#45;&gt;Node38 -->
<g id="edge13" class="edge">
<title>Node0&#45;&gt;Node38</title>
<path fill="none" stroke="#191970" d="M2329.18,-226.3309C2289.5456,-216.9261 2221.9308,-200.8819 2175.5547,-189.8774"/>
<polygon fill="#191970" stroke="#191970" points="2176.2465,-186.4444 2165.7086,-187.541 2174.6304,-193.2553 2176.2465,-186.4444"/>
</g>
<!-- Node41 -->
<g id="node15" class="node">
<title>Node41</title>
<g id="a_node15"><a xlink:href="api_2byteorder_8h.html" target="_top" xlink:title="ODP byteorder. ">
<polygon fill="#ffffff" stroke="#ff0000" points="2191,-168.5 2191,-187.5 2302,-187.5 2302,-168.5 2191,-168.5"/>
<text text-anchor="middle" x="2246.5" y="-175.5" font-family="Helvetica,sans-Serif" font-size="10.00" fill="#000000">odp/api/byteorder.h</text>
</a>
</g>
</g>
<!-- Node0&#45;&gt;Node41 -->
<g id="edge14" class="edge">
<title>Node0&#45;&gt;Node41</title>
<path fill="none" stroke="#191970" d="M2341.7308,-224.3733C2323.3531,-215.4241 2295.7688,-201.9917 2275.0107,-191.8835"/>
<polygon fill="#191970" stroke="#191970" points="2276.5343,-188.7325 2266.0112,-187.5011 2273.4696,-195.026 2276.5343,-188.7325"/>
</g>
<!-- Node44 -->
<g id="node16" class="node">
<title>Node44</title>
<g id="a_node16"><a xlink:href="api_2cpu_8h.html" target="_top" xlink:title="ODP CPU. ">
<polygon fill="#ffffff" stroke="#ff0000" points="2320.5,-168.5 2320.5,-187.5 2402.5,-187.5 2402.5,-168.5 2320.5,-168.5"/>
<text text-anchor="middle" x="2361.5" y="-175.5" font-family="Helvetica,sans-Serif" font-size="10.00" fill="#000000">odp/api/cpu.h</text>
</a>
</g>
</g>
<!-- Node0&#45;&gt;Node44 -->
<g id="edge15" class="edge">
<title>Node0&#45;&gt;Node44</title>
<path fill="none" stroke="#191970" d="M2361.5,-224.2455C2361.5,-216.9382 2361.5,-206.6944 2361.5,-197.7046"/>
<polygon fill="#191970" stroke="#191970" points="2365.0001,-197.6426 2361.5,-187.6427 2358.0001,-197.6427 2365.0001,-197.6426"/>
</g>
<!-- Node46 -->
<g id="node17" class="node">
<title>Node46</title>
<g id="a_node17"><a xlink:href="api_2thread_8h.html" target="_top" xlink:title="ODP thread API. ">
<polygon fill="#ffffff" stroke="#ff0000" points="2347.5,-112.5 2347.5,-131.5 2443.5,-131.5 2443.5,-112.5 2347.5,-112.5"/>
<text text-anchor="middle" x="2395.5" y="-119.5" font-family="Helvetica,sans-Serif" font-size="10.00" fill="#000000">odp/api/thread.h</text>
</a>
</g>
</g>
<!-- Node0&#45;&gt;Node46 -->
<g id="edge27" class="edge">
<title>Node0&#45;&gt;Node46</title>
<path fill="none" stroke="#191970" d="M2377.9177,-224.2212C2389.7076,-216.1641 2404.6747,-203.5536 2411.5,-188 2418.1447,-172.858 2412.7065,-154.4978 2406.4303,-140.9903"/>
<polygon fill="#191970" stroke="#191970" points="2409.352,-139.02 2401.6538,-131.7407 2403.1324,-142.2319 2409.352,-139.02"/>
</g>
<!-- Node51 -->
<g id="node18" class="node">
<title>Node51</title>
<g id="a_node18"><a xlink:href="api_2cpumask_8h.html" target="_top" xlink:title="ODP CPU masks and enumeration. ">
<polygon fill="#ffffff" stroke="#ff0000" points="2459,-168.5 2459,-187.5 2568,-187.5 2568,-168.5 2459,-168.5"/>
<text text-anchor="middle" x="2513.5" y="-175.5" font-family="Helvetica,sans-Serif" font-size="10.00" fill="#000000">odp/api/cpumask.h</text>
</a>
</g>
</g>
<!-- Node0&#45;&gt;Node51 -->
<g id="edge17" class="edge">
<title>Node0&#45;&gt;Node51</title>
<path fill="none" stroke="#191970" d="M2387.6297,-224.3733C2412.5768,-215.1822 2450.3592,-201.2624 2478.0206,-191.0713"/>
<polygon fill="#191970" stroke="#191970" points="2479.5378,-194.2424 2487.7112,-187.5011 2477.1178,-187.674 2479.5378,-194.2424"/>
</g>
<!-- Node54 -->
<g id="node19" class="node">
<title>Node54</title>
<g id="a_node19"><a xlink:href="api_2barrier_8h.html" target="_top" xlink:title="ODP execution barriers. ">
<polygon fill="#ffffff" stroke="#ff0000" points="1107.5,-168.5 1107.5,-187.5 1203.5,-187.5 1203.5,-168.5 1107.5,-168.5"/>
<text text-anchor="middle" x="1155.5" y="-175.5" font-family="Helvetica,sans-Serif" font-size="10.00" fill="#000000">odp/api/barrier.h</text>
</a>
</g>
</g>
<!-- Node0&#45;&gt;Node54 -->
<g id="edge18" class="edge">
<title>Node0&#45;&gt;Node54</title>
<path fill="none" stroke="#191970" d="M2329.4264,-233.2304C2167.8512,-229.2739 1441.9775,-210.5344 1217.5,-188 1216.388,-187.8884 1215.2657,-187.7697 1214.1357,-187.6446"/>
<polygon fill="#191970" stroke="#191970" points="1214.1811,-184.1236 1203.8267,-186.3679 1213.3207,-191.0705 1214.1811,-184.1236"/>
</g>
<!-- Node55 -->
<g id="node20" class="node">
<title>Node55</title>
<g id="a_node20"><a xlink:href="api_2atomic_8h.html" target="_top" xlink:title="ODP atomic operations. ">
<polygon fill="#ffffff" stroke="#ff0000" points="1126.5,-112.5 1126.5,-131.5 1224.5,-131.5 1224.5,-112.5 1126.5,-112.5"/>
<text text-anchor="middle" x="1175.5" y="-119.5" font-family="Helvetica,sans-Serif" font-size="10.00" fill="#000000">odp/api/atomic.h</text>
</a>
</g>
</g>
<!-- Node0&#45;&gt;Node55 -->
<g id="edge22" class="edge">
<title>Node0&#45;&gt;Node55</title>
<path fill="none" stroke="#191970" d="M2329.2436,-233.2816C2164.8603,-229.5253 1424.2262,-211.419 1324.5,-188 1278.7206,-177.2495 1229.5773,-152.6371 1200.736,-136.6946"/>
<polygon fill="#191970" stroke="#191970" points="1202.1998,-133.5023 1191.7676,-131.6529 1198.7695,-139.6042 1202.1998,-133.5023"/>
</g>
<!-- Node61 -->
<g id="node21" class="node">
<title>Node61</title>
<g id="a_node21"><a xlink:href="api_2spinlock_8h.html" target="_top" xlink:title="ODP spinlock. ">
<polygon fill="#ffffff" stroke="#ff0000" points="2586,-168.5 2586,-187.5 2691,-187.5 2691,-168.5 2586,-168.5"/>
<text text-anchor="middle" x="2638.5" y="-175.5" font-family="Helvetica,sans-Serif" font-size="10.00" fill="#000000">odp/api/spinlock.h</text>
</a>
</g>
</g>
<!-- Node0&#45;&gt;Node61 -->
<g id="edge21" class="edge">
<title>Node0&#45;&gt;Node61</title>
<path fill="none" stroke="#191970" d="M2393.546,-227.5214C2439.3579,-218.2598 2524.2991,-201.0875 2581.1161,-189.6011"/>
<polygon fill="#191970" stroke="#191970" points="2581.9233,-193.0088 2591.0315,-187.5965 2580.5362,-186.1476 2581.9233,-193.0088"/>
</g>
<!-- Node64 -->
<g id="node22" class="node">
<title>Node64</title>
<g id="a_node22"><a xlink:href="feature_8h.html" target="_top" xlink:title="ODP features. ">
<polygon fill="#ffffff" stroke="#ff0000" points="2709.5,-168.5 2709.5,-187.5 2809.5,-187.5 2809.5,-168.5 2709.5,-168.5"/>
<text text-anchor="middle" x="2759.5" y="-175.5" font-family="Helvetica,sans-Serif" font-size="10.00" fill="#000000">odp/api/feature.h</text>
</a>
</g>
</g>
<!-- Node0&#45;&gt;Node64 -->
<g id="edge23" class="edge">
<title>Node0&#45;&gt;Node64</title>
<path fill="none" stroke="#191970" d="M2393.8028,-229.9777C2452.4962,-222.5912 2580.7937,-206.0875 2699.3337,-188.1402"/>
<polygon fill="#191970" stroke="#191970" points="2699.9462,-191.5874 2709.3061,-186.6234 2698.8935,-184.667 2699.9462,-191.5874"/>
</g>
<!-- Node66 -->
<g id="node23" class="node">
<title>Node66</title>
<g id="a_node23"><a xlink:href="api_2init_8h.html" target="_top" xlink:title="ODP initialization. ">
<polygon fill="#ffffff" stroke="#ff0000" points="2827.5,-168.5 2827.5,-187.5 2907.5,-187.5 2907.5,-168.5 2827.5,-168.5"/>
<text text-anchor="middle" x="2867.5" y="-175.5" font-family="Helvetica,sans-Serif" font-size="10.00" fill="#000000">odp/api/init.h</text>
</a>
</g>
</g>
<!-- Node0&#45;&gt;Node66 -->
<g id="edge24" class="edge">
<title>Node0&#45;&gt;Node66</title>
<path fill="none" stroke="#191970" d="M2393.7759,-231.8772C2467.1484,-226.8112 2652.24,-212.6773 2817.119,-188.0761"/>
<polygon fill="#191970" stroke="#191970" points="2818.082,-191.4705 2827.4476,-186.5171 2817.0372,-184.5489 2818.082,-191.4705"/>
</g>
<!-- Node69 -->
<g id="node24" class="node">
<title>Node69</title>
<g id="a_node24"><a xlink:href="system__info_8h.html" target="_top" xlink:title="ODP system information. ">
<polygon fill="#ffffff" stroke="#ff0000" points="1243,-112.5 1243,-131.5 1368,-131.5 1368,-112.5 1243,-112.5"/>
<text text-anchor="middle" x="1305.5" y="-119.5" font-family="Helvetica,sans-Serif" font-size="10.00" fill="#000000">odp/api/system_info.h</text>
</a>
</g>
</g>
<!-- Node0&#45;&gt;Node69 -->
<g id="edge25" class="edge">
<title>Node0&#45;&gt;Node69</title>
<path fill="none" stroke="#191970" d="M2329.3224,-233.3724C2161.3263,-229.9915 1390.9671,-213.1596 1347.5,-188 1329.9269,-177.8283 1318.555,-157.0284 1312.1347,-141.4825"/>
<polygon fill="#191970" stroke="#191970" points="1315.2695,-139.876 1308.4655,-131.7547 1308.7199,-142.3464 1315.2695,-139.876"/>
</g>
<!-- Node71 -->
<g id="node25" class="node">
<title>Node71</title>
<g id="a_node25"><a xlink:href="api_2shared__memory_8h.html" target="_top" xlink:title="ODP shared memory. ">
<polygon fill="#ffffff" stroke="#ff0000" points="2926,-168.5 2926,-187.5 3069,-187.5 3069,-168.5 2926,-168.5"/>
<text text-anchor="middle" x="2997.5" y="-175.5" font-family="Helvetica,sans-Serif" font-size="10.00" fill="#000000">odp/api/shared_memory.h</text>
</a>
</g>
</g>
<!-- Node0&#45;&gt;Node71 -->
<g id="edge28" class="edge">
<title>Node0&#45;&gt;Node71</title>
<path fill="none" stroke="#191970" d="M2393.7604,-231.7812C2477.7796,-225.9054 2710.4784,-209.0127 2915.8944,-188.0241"/>
<polygon fill="#191970" stroke="#191970" points="2916.3741,-191.4933 2925.964,-186.9896 2915.6587,-184.5299 2916.3741,-191.4933"/>
</g>
<!-- Node73 -->
<g id="node26" class="node">
<title>Node73</title>
<g id="a_node26"><a xlink:href="api_2buffer_8h.html" target="_top" xlink:title="ODP buffer descriptor. ">
<polygon fill="#ffffff" stroke="#ff0000" points="1386.5,-112.5 1386.5,-131.5 1478.5,-131.5 1478.5,-112.5 1386.5,-112.5"/>
<text text-anchor="middle" x="1432.5" y="-119.5" font-family="Helvetica,sans-Serif" font-size="10.00" fill="#000000">odp/api/buffer.h</text>
</a>
</g>
</g>
<!-- Node0&#45;&gt;Node73 -->
<g id="edge29" class="edge">
<title>Node0&#45;&gt;Node73</title>
<path fill="none" stroke="#191970" d="M2329.2959,-233.7613C2161.2006,-232.3616 1390.8847,-223.9945 1356.5,-188 1337.7921,-168.4163 1369.5895,-148.3552 1397.5975,-135.5722"/>
<polygon fill="#191970" stroke="#191970" points="1399.1051,-138.7332 1406.8722,-131.5273 1396.3068,-132.3168 1399.1051,-138.7332"/>
</g>
<!-- Node75 -->
<g id="node27" class="node">
<title>Node75</title>
<g id="a_node27"><a xlink:href="api_2pool_8h.html" target="_top" xlink:title="ODP pool. ">
<polygon fill="#ffffff" stroke="#ff0000" points="3087.5,-168.5 3087.5,-187.5 3173.5,-187.5 3173.5,-168.5 3087.5,-168.5"/>
<text text-anchor="middle" x="3130.5" y="-175.5" font-family="Helvetica,sans-Serif" font-size="10.00" fill="#000000">odp/api/pool.h</text>
</a>
</g>
</g>
<!-- Node0&#45;&gt;Node75 -->
<g id="edge31" class="edge">
<title>Node0&#45;&gt;Node75</title>
<path fill="none" stroke="#191970" d="M2393.7965,-233.3755C2493.8751,-231.135 2807.7825,-221.8114 3077.4598,-187.9798"/>
<polygon fill="#191970" stroke="#191970" points="3077.9569,-191.4449 3087.4369,-186.7143 3077.076,-184.5005 3077.9569,-191.4449"/>
</g>
<!-- Node77 -->
<g id="node28" class="node">
<title>Node77</title>
<g id="a_node28"><a xlink:href="api_2queue_8h.html" target="_top" xlink:title="ODP queue. ">
<polygon fill="#ffffff" stroke="#ff0000" points="1497,-112.5 1497,-131.5 1592,-131.5 1592,-112.5 1497,-112.5"/>
<text text-anchor="middle" x="1544.5" y="-119.5" font-family="Helvetica,sans-Serif" font-size="10.00" fill="#000000">odp/api/queue.h</text>
</a>
</g>
</g>
<!-- Node0&#45;&gt;Node77 -->
<g id="edge32" class="edge">
<title>Node0&#45;&gt;Node77</title>
<path fill="none" stroke="#191970" d="M2329.2772,-233.7489C2161.956,-232.291 1398.5863,-223.6953 1364.5,-188 1358.3612,-181.5714 1359.048,-175.0205 1364.5,-168 1372.204,-158.0796 1437.1753,-143.2008 1486.8707,-133.0707"/>
<polygon fill="#191970" stroke="#191970" points="1487.7899,-136.4558 1496.9005,-131.0478 1486.4059,-129.594 1487.7899,-136.4558"/>
</g>
<!-- Node85 -->
<g id="node29" class="node">
<title>Node85</title>
<g id="a_node29"><a xlink:href="api_2ticketlock_8h.html" target="_top" xlink:title="ODP ticketlock. ">
<polygon fill="#ffffff" stroke="#ff0000" points="3192,-168.5 3192,-187.5 3305,-187.5 3305,-168.5 3192,-168.5"/>
<text text-anchor="middle" x="3248.5" y="-175.5" font-family="Helvetica,sans-Serif" font-size="10.00" fill="#000000">odp/api/ticketlock.h</text>
</a>
</g>
</g>
<!-- Node0&#45;&gt;Node85 -->
<g id="edge34" class="edge">
<title>Node0&#45;&gt;Node85</title>
<path fill="none" stroke="#191970" d="M2393.6664,-233.2893C2502.7143,-230.6502 2868.5171,-219.9177 3181.4855,-188.0071"/>
<polygon fill="#191970" stroke="#191970" points="3182.0726,-191.4652 3191.6619,-186.96 3181.3561,-184.502 3182.0726,-191.4652"/>
</g>
<!-- Node33 -->
<g id="node30" class="node">
<title>Node33</title>
<g id="a_node30"><a xlink:href="api_2time_8h.html" target="_top" xlink:title="ODP time. ">
<polygon fill="#ffffff" stroke="#ff0000" points="445,-112.5 445,-131.5 532,-131.5 532,-112.5 445,-112.5"/>
<text text-anchor="middle" x="488.5" y="-119.5" font-family="Helvetica,sans-Serif" font-size="10.00" fill="#000000">odp/api/time.h</text>
</a>
</g>
</g>
<!-- Node0&#45;&gt;Node33 -->
<g id="edge35" class="edge">
<title>Node0&#45;&gt;Node33</title>
<path fill="none" stroke="#191970" d="M2329.2811,-233.5197C2115.5402,-230.276 905.745,-211.0036 743.5,-188 664.9248,-176.8594 575.6959,-150.4926 526.3674,-134.6632"/>
<polygon fill="#191970" stroke="#191970" points="527.3488,-131.3021 516.7569,-131.5501 525.1916,-137.9615 527.3488,-131.3021"/>
</g>
<!-- Node88 -->
<g id="node31" class="node">
<title>Node88</title>
<g id="a_node31"><a xlink:href="api_2timer_8h.html" target="_top" xlink:title="ODP timer service. ">
<polygon fill="#ffffff" stroke="#ff0000" points="550.5,-112.5 550.5,-131.5 640.5,-131.5 640.5,-112.5 550.5,-112.5"/>
<text text-anchor="middle" x="595.5" y="-119.5" font-family="Helvetica,sans-Serif" font-size="10.00" fill="#000000">odp/api/timer.h</text>
</a>
</g>
</g>
<!-- Node0&#45;&gt;Node88 -->
<g id="edge37" class="edge">
<title>Node0&#45;&gt;Node88</title>
<path fill="none" stroke="#191970" d="M2329.3069,-233.4688C2123.4368,-230.0133 995.1413,-210.1739 843.5,-188 767.1523,-176.836 680.6069,-150.5724 632.6009,-134.7479"/>
<polygon fill="#191970" stroke="#191970" points="633.5531,-131.376 622.9595,-131.5387 631.3423,-138.0178 633.5531,-131.376"/>
</g>
<!-- Node91 -->
<g id="node32" class="node">
<title>Node91</title>
<g id="a_node32"><a xlink:href="api_2schedule_8h.html" target="_top" xlink:title="ODP schedule. ">
<polygon fill="#ffffff" stroke="#ff0000" points="3323.5,-168.5 3323.5,-187.5 3431.5,-187.5 3431.5,-168.5 3323.5,-168.5"/>
<text text-anchor="middle" x="3377.5" y="-175.5" font-family="Helvetica,sans-Serif" font-size="10.00" fill="#000000">odp/api/schedule.h</text>
</a>
</g>
</g>
<!-- Node0&#45;&gt;Node91 -->
<g id="edge39" class="edge">
<title>Node0&#45;&gt;Node91</title>
<path fill="none" stroke="#191970" d="M2393.6809,-233.7195C2513.6814,-232.4062 2946.5616,-225.2802 3313.2425,-188.0222"/>
<polygon fill="#191970" stroke="#191970" points="3313.6624,-191.4976 3323.2532,-186.9958 3312.9484,-184.5341 3313.6624,-191.4976"/>
</g>
<!-- Node97 -->
<g id="node33" class="node">
<title>Node97</title>
<g id="a_node33"><a xlink:href="api_2sync_8h.html" target="_top" xlink:title="ODP synchronisation. ">
<polygon fill="#ffffff" stroke="#ff0000" points="3450,-168.5 3450,-187.5 3537,-187.5 3537,-168.5 3450,-168.5"/>
<text text-anchor="middle" x="3493.5" y="-175.5" font-family="Helvetica,sans-Serif" font-size="10.00" fill="#000000">odp/api/sync.h</text>
</a>
</g>
</g>
<!-- Node0&#45;&gt;Node97 -->
<g id="edge40" class="edge">
<title>Node0&#45;&gt;Node97</title>
<path fill="none" stroke="#191970" d="M2393.5498,-233.2568C2547.2046,-229.5996 3210.0795,-212.7338 3439.9418,-187.8552"/>
<polygon fill="#191970" stroke="#191970" points="3440.3545,-191.331 3449.9031,-186.7404 3439.5759,-184.3744 3440.3545,-191.331"/>
</g>
<!-- Node27 -->
<g id="node34" class="node">
<title>Node27</title>
<g id="a_node34"><a xlink:href="api_2packet_8h.html" target="_top" xlink:title="ODP packet descriptor. ">
<polygon fill="#ffffff" stroke="#ff0000" points="658.5,-112.5 658.5,-131.5 756.5,-131.5 756.5,-112.5 658.5,-112.5"/>
<text text-anchor="middle" x="707.5" y="-119.5" font-family="Helvetica,sans-Serif" font-size="10.00" fill="#000000">odp/api/packet.h</text>
</a>
</g>
</g>
<!-- Node0&#45;&gt;Node27 -->
<g id="edge41" class="edge">
<title>Node0&#45;&gt;Node27</title>
<path fill="none" stroke="#191970" d="M2329.3528,-233.444C2130.9895,-229.9492 1077.2449,-210.44 935.5,-188 865.4548,-176.911 786.5484,-150.9048 742.349,-135.0486"/>
<polygon fill="#191970" stroke="#191970" points="743.2668,-131.6585 732.6727,-131.5399 740.8806,-138.2392 743.2668,-131.6585"/>
</g>
<!-- Node100 -->
<g id="node35" class="node">
<title>Node100</title>
<g id="a_node35"><a xlink:href="api_2packet__flags_8h.html" target="_top" xlink:title="ODP packet flags. ">
<polygon fill="#ffffff" stroke="#ff0000" points="3555.5,-168.5 3555.5,-187.5 3681.5,-187.5 3681.5,-168.5 3555.5,-168.5"/>
<text text-anchor="middle" x="3618.5" y="-175.5" font-family="Helvetica,sans-Serif" font-size="10.00" fill="#000000">odp/api/packet_flags.h</text>
</a>
</g>
</g>
<!-- Node0&#45;&gt;Node100 -->
<g id="edge43" class="edge">
<title>Node0&#45;&gt;Node100</title>
<path fill="none" stroke="#191970" d="M2393.6166,-233.1854C2556.4626,-228.9898 3292.7006,-209.2272 3545.1098,-188.0182"/>
<polygon fill="#191970" stroke="#191970" points="3545.6628,-191.4836 3555.3243,-187.1355 3545.0601,-184.5096 3545.6628,-191.4836"/>
</g>
<!-- Node103 -->
<g id="node36" class="node">
<title>Node103</title>
<g id="a_node36"><a xlink:href="api_2packet__io_8h.html" target="_top" xlink:title="ODP Packet IO. ">
<polygon fill="#ffffff" stroke="#ff0000" points="774.5,-112.5 774.5,-131.5 886.5,-131.5 886.5,-112.5 774.5,-112.5"/>
<text text-anchor="middle" x="830.5" y="-119.5" font-family="Helvetica,sans-Serif" font-size="10.00" fill="#000000">odp/api/packet_io.h</text>
</a>
</g>
</g>
<!-- Node0&#45;&gt;Node103 -->
<g id="edge44" class="edge">
<title>Node0&#45;&gt;Node103</title>
<path fill="none" stroke="#191970" d="M2329.4575,-233.5211C2137.4022,-230.5694 1142.6679,-214.1124 1009.5,-188 954.6246,-177.2397 894.2746,-151.9657 859.5391,-136.0019"/>
<polygon fill="#191970" stroke="#191970" points="860.5737,-132.6226 850.0313,-131.5696 857.616,-138.9671 860.5737,-132.6226"/>
</g>
<!-- Node108 -->
<g id="node37" class="node">
<title>Node108</title>
<g id="a_node37"><a xlink:href="api_2crypto_8h.html" target="_top" xlink:title="ODP crypto. ">
<polygon fill="#ffffff" stroke="#ff0000" points="1374,-168.5 1374,-187.5 1469,-187.5 1469,-168.5 1374,-168.5"/>
<text text-anchor="middle" x="1421.5" y="-175.5" font-family="Helvetica,sans-Serif" font-size="10.00" fill="#000000">odp/api/crypto.h</text>
</a>
</g>
</g>
<!-- Node0&#45;&gt;Node108 -->
<g id="edge46" class="edge">
<title>Node0&#45;&gt;Node108</title>
<path fill="none" stroke="#191970" d="M2329.1115,-233.5591C2213.7889,-231.7225 1812.4849,-223.0464 1483.5,-188 1482.0432,-187.8448 1480.5684,-187.6783 1479.0817,-187.5022"/>
<polygon fill="#191970" stroke="#191970" points="1479.5247,-184.0305 1469.1579,-186.217 1478.6255,-190.9725 1479.5247,-184.0305"/>
</g>
<!-- Node111 -->
<g id="node38" class="node">
<title>Node111</title>
<g id="a_node38"><a xlink:href="api_2classification_8h.html" target="_top" xlink:title="ODP classification descriptor. ">
<polygon fill="#ffffff" stroke="#ff0000" points="904.5,-112.5 904.5,-131.5 1032.5,-131.5 1032.5,-112.5 904.5,-112.5"/>
<text text-anchor="middle" x="968.5" y="-119.5" font-family="Helvetica,sans-Serif" font-size="10.00" fill="#000000">odp/api/classification.h</text>
</a>
</g>
</g>
<!-- Node0&#45;&gt;Node111 -->
<g id="edge49" class="edge">
<title>Node0&#45;&gt;Node111</title>
<path fill="none" stroke="#191970" d="M2329.3671,-233.4712C2133.6479,-230.1757 1108.164,-211.8188 1046.5,-188 1020.5723,-177.985 997.163,-155.5048 982.9023,-139.5701"/>
<polygon fill="#191970" stroke="#191970" points="985.4967,-137.2192 976.3139,-131.9346 980.1969,-141.7922 985.4967,-137.2192"/>
</g>
<!-- Node115 -->
<g id="node39" class="node">
<title>Node115</title>
<g id="a_node39"><a xlink:href="api_2rwlock_8h.html" target="_top" xlink:title="ODP RW Locks. ">
<polygon fill="#ffffff" stroke="#ff0000" points="3700,-168.5 3700,-187.5 3797,-187.5 3797,-168.5 3700,-168.5"/>
<text text-anchor="middle" x="3748.5" y="-175.5" font-family="Helvetica,sans-Serif" font-size="10.00" fill="#000000">odp/api/rwlock.h</text>
</a>
</g>
</g>
<!-- Node0&#45;&gt;Node115 -->
<g id="edge51" class="edge">
<title>Node0&#45;&gt;Node115</title>
<path fill="none" stroke="#191970" d="M2393.6665,-233.4818C2568.4912,-230.576 3406.5898,-215.4814 3689.5968,-187.9134"/>
<polygon fill="#191970" stroke="#191970" points="3690.232,-191.3673 3699.8322,-186.8857 3689.5326,-184.4024 3690.232,-191.3673"/>
</g>
<!-- Node79 -->
<g id="node40" class="node">
<title>Node79</title>
<g id="a_node40"><a xlink:href="api_2event_8h.html" target="_top" xlink:title="ODP event. ">
<polygon fill="#ffffff" stroke="#ff0000" points="3815.5,-168.5 3815.5,-187.5 3907.5,-187.5 3907.5,-168.5 3815.5,-168.5"/>
<text text-anchor="middle" x="3861.5" y="-175.5" font-family="Helvetica,sans-Serif" font-size="10.00" fill="#000000">odp/api/event.h</text>
</a>
</g>
</g>
<!-- Node0&#45;&gt;Node79 -->
<g id="edge52" class="edge">
<title>Node0&#45;&gt;Node79</title>
<path fill="none" stroke="#191970" d="M2393.6968,-233.6239C2577.6789,-231.3779 3498.1542,-218.8126 3805.1375,-187.9594"/>
<polygon fill="#191970" stroke="#191970" points="3805.7719,-191.4125 3815.3582,-186.9011 3805.0509,-184.4498 3805.7719,-191.4125"/>
</g>
<!-- Node118 -->
<g id="node41" class="node">
<title>Node118</title>
<g id="a_node41"><a xlink:href="random_8h.html" target="_top" xlink:title="ODP random number API. ">
<polygon fill="#ffffff" stroke="#ff0000" points="3925.5,-168.5 3925.5,-187.5 4027.5,-187.5 4027.5,-168.5 3925.5,-168.5"/>
<text text-anchor="middle" x="3976.5" y="-175.5" font-family="Helvetica,sans-Serif" font-size="10.00" fill="#000000">odp/api/random.h</text>
</a>
</g>
</g>
<!-- Node0&#45;&gt;Node118 -->
<g id="edge53" class="edge">
<title>Node0&#45;&gt;Node118</title>
<path fill="none" stroke="#191970" d="M2393.5779,-233.6445C2585.5534,-231.4281 3584.9016,-218.6227 3915.443,-187.9426"/>
<polygon fill="#191970" stroke="#191970" points="3915.8769,-191.4172 3925.4993,-186.9833 3915.2121,-184.4488 3915.8769,-191.4172"/>
</g>
<!-- Node120 -->
<g id="node42" class="node">
<title>Node120</title>
<g id="a_node42"><a xlink:href="api_2errno_8h.html" target="_top" xlink:title="ODP errno API. ">
<polygon fill="#ffffff" stroke="#ff0000" points="4045.5,-168.5 4045.5,-187.5 4135.5,-187.5 4135.5,-168.5 4045.5,-168.5"/>
<text text-anchor="middle" x="4090.5" y="-175.5" font-family="Helvetica,sans-Serif" font-size="10.00" fill="#000000">odp/api/errno.h</text>
</a>
</g>
</g>
<!-- Node0&#45;&gt;Node120 -->
<g id="edge54" class="edge">
<title>Node0&#45;&gt;Node120</title>
<path fill="none" stroke="#191970" d="M2393.7276,-233.8002C2594.7969,-232.4512 3679.7923,-223.6516 4035.4424,-187.9139"/>
<polygon fill="#191970" stroke="#191970" points="4035.9078,-191.3846 4045.4954,-186.8758 4035.1887,-184.4216 4035.9078,-191.3846"/>
</g>
<!-- Node94 -->
<g id="node43" class="node">
<title>Node94</title>
<g id="a_node43"><a xlink:href="api_2thrmask_8h.html" target="_top" xlink:title="ODP thread masks. ">
<polygon fill="#ffffff" stroke="#ff0000" points="4154,-168.5 4154,-187.5 4259,-187.5 4259,-168.5 4154,-168.5"/>
<text text-anchor="middle" x="4206.5" y="-175.5" font-family="Helvetica,sans-Serif" font-size="10.00" fill="#000000">odp/api/thrmask.h</text>
</a>
</g>
</g>
<!-- Node0&#45;&gt;Node94 -->
<g id="edge55" class="edge">
<title>Node0&#45;&gt;Node94</title>
<path fill="none" stroke="#191970" d="M2393.7306,-233.7601C2602.3157,-232.1194 3764.2402,-221.6223 4143.6179,-187.9211"/>
<polygon fill="#191970" stroke="#191970" points="4144.1551,-191.3868 4153.7962,-186.9937 4143.5198,-184.4156 4144.1551,-191.3868"/>
</g>
<!-- Node123 -->
<g id="node44" class="node">
<title>Node123</title>
<g id="a_node44"><a xlink:href="api_2traffic__mngr_8h.html" target="_top" xlink:title="ODP Traffic manager. ">
<polygon fill="#ffffff" stroke="#ff0000" points="4277,-168.5 4277,-187.5 4400,-187.5 4400,-168.5 4277,-168.5"/>
<text text-anchor="middle" x="4338.5" y="-175.5" font-family="Helvetica,sans-Serif" font-size="10.00" fill="#000000">odp/api/traffic_mngr.h</text>
</a>
</g>
</g>
<!-- Node0&#45;&gt;Node123 -->
<g id="edge56" class="edge">
<title>Node0&#45;&gt;Node123</title>
<path fill="none" stroke="#191970" d="M2393.822,-233.7423C2611.0756,-231.9323 3861.9679,-220.2704 4266.7235,-188.0434"/>
<polygon fill="#191970" stroke="#191970" points="4267.0256,-191.5305 4276.7083,-187.2299 4266.457,-184.5536 4267.0256,-191.5305"/>
</g>
<!-- Node126 -->
<g id="node45" class="node">
<title>Node126</title>
<g id="a_node45"><a xlink:href="api_2spinlock__recursive_8h.html" target="_top" xlink:title="ODP resursive spinlock. ">
<polygon fill="#ffffff" stroke="#ff0000" points="4418,-168.5 4418,-187.5 4573,-187.5 4573,-168.5 4418,-168.5"/>
<text text-anchor="middle" x="4495.5" y="-175.5" font-family="Helvetica,sans-Serif" font-size="10.00" fill="#000000">odp/api/spinlock_recursive.h</text>
</a>
</g>
</g>
<!-- Node0&#45;&gt;Node126 -->
<g id="edge57" class="edge">
<title>Node0&#45;&gt;Node126</title>
<path fill="none" stroke="#191970" d="M2393.607,-233.6904C2619.402,-231.4521 3972.1287,-217.0228 4407.5994,-188.061"/>
<polygon fill="#191970" stroke="#191970" points="4407.9746,-191.5437 4417.7145,-187.3742 4407.5003,-184.5598 4407.9746,-191.5437"/>
</g>
<!-- Node129 -->
<g id="node46" class="node">
<title>Node129</title>
<g id="a_node46"><a xlink:href="api_2rwlock__recursive_8h.html" target="_top" xlink:title="ODP resursive read/write lock. ">
<polygon fill="#ffffff" stroke="#ff0000" points="4591,-168.5 4591,-187.5 4738,-187.5 4738,-168.5 4591,-168.5"/>
<text text-anchor="middle" x="4664.5" y="-175.5" font-family="Helvetica,sans-Serif" font-size="10.00" fill="#000000">odp/api/rwlock_recursive.h</text>
</a>
</g>
</g>
<!-- Node0&#45;&gt;Node129 -->
<g id="edge58" class="edge">
<title>Node0&#45;&gt;Node129</title>
<path fill="none" stroke="#191970" d="M2393.61,-233.7796C2630.2615,-232.0895 4107.8835,-220.386 4580.4809,-188.0645"/>
<polygon fill="#191970" stroke="#191970" points="4581.0447,-191.5337 4590.7767,-187.3457 4580.5571,-184.5507 4581.0447,-191.5337"/>
</g>
<!-- Node132 -->
<g id="node47" class="node">
<title>Node132</title>
<g id="a_node47"><a xlink:href="api_2std__clib_8h_source.html" target="_top" xlink:title="odp/api/std_clib.h">
<polygon fill="#ffffff" stroke="#ff0000" points="1380.5,-56.5 1380.5,-75.5 1482.5,-75.5 1482.5,-56.5 1380.5,-56.5"/>
<text text-anchor="middle" x="1431.5" y="-63.5" font-family="Helvetica,sans-Serif" font-size="10.00" fill="#000000">odp/api/std_clib.h</text>
</a>
</g>
</g>
<!-- Node0&#45;&gt;Node132 -->
<g id="edge59" class="edge">
<title>Node0&#45;&gt;Node132</title>
<path fill="none" stroke="#191970" d="M2329.3366,-233.4728C2178.2294,-230.8426 1544.9604,-218.0519 1516.5,-188 1477.871,-147.2109 1652.1286,-156.2359 1617.5,-112 1602.0899,-92.3146 1540.6546,-79.8876 1492.5533,-72.9818"/>
<polygon fill="#191970" stroke="#191970" points="1492.8984,-69.4963 1482.5128,-71.5914 1491.9381,-76.4301 1492.8984,-69.4963"/>
</g>
<!-- Node25 -->
<g id="node48" class="node">
<title>Node25</title>
<g id="a_node48"><a xlink:href="support_8h.html" target="_top" xlink:title="ODP support API &#45; platform specific header. ">
<polygon fill="#ffffff" stroke="#ff0000" points="4756,-168.5 4756,-187.5 4857,-187.5 4857,-168.5 4756,-168.5"/>
<text text-anchor="middle" x="4806.5" y="-175.5" font-family="Helvetica,sans-Serif" font-size="10.00" fill="#000000">odp/api/support.h</text>
</a>
</g>
</g>
<!-- Node0&#45;&gt;Node25 -->
<g id="edge61" class="edge">
<title>Node0&#45;&gt;Node25</title>
<path fill="none" stroke="#191970" d="M2393.6634,-233.6698C2657.1765,-230.9273 4457.9644,-211.4601 4745.7445,-187.9728"/>
<polygon fill="#191970" stroke="#191970" points="4746.0579,-191.4589 4755.7146,-187.1002 4745.4475,-184.4855 4746.0579,-191.4589"/>
</g>
<!-- Node135 -->
<g id="node49" class="node">
<title>Node135</title>
<g id="a_node49"><a xlink:href="api_2ipsec_8h.html" target="_top" xlink:title="ODP IPSEC API &#45; platform specific header. ">
<polygon fill="#ffffff" stroke="#ff0000" points="4875.5,-168.5 4875.5,-187.5 4965.5,-187.5 4965.5,-168.5 4875.5,-168.5"/>
<text text-anchor="middle" x="4920.5" y="-175.5" font-family="Helvetica,sans-Serif" font-size="10.00" fill="#000000">odp/api/ipsec.h</text>
</a>
</g>
</g>
<!-- Node0&#45;&gt;Node135 -->
<g id="edge62" class="edge">
<title>Node0&#45;&gt;Node135</title>
<path fill="none" stroke="#191970" d="M2393.5225,-233.7321C2664.0052,-231.4278 4563.8558,-214.4188 4865.4495,-187.8557"/>
<polygon fill="#191970" stroke="#191970" points="4865.8719,-191.3315 4875.4986,-186.9068 4865.2138,-184.3625 4865.8719,-191.3315"/>
</g>
<!-- Node140 -->
<g id="node50" class="node">
<title>Node140</title>
<g id="a_node50"><a xlink:href="api_2stash_8h.html" target="_top" xlink:title="ODP stash. ">
<polygon fill="#ffffff" stroke="#ff0000" points="4984,-168.5 4984,-187.5 5075,-187.5 5075,-168.5 4984,-168.5"/>
<text text-anchor="middle" x="5029.5" y="-175.5" font-family="Helvetica,sans-Serif" font-size="10.00" fill="#000000">odp/api/stash.h</text>
</a>
</g>
</g>
<!-- Node0&#45;&gt;Node140 -->
<g id="edge63" class="edge">
<title>Node0&#45;&gt;Node140</title>
<path fill="none" stroke="#191970" d="M2393.5652,-233.7514C2670.8455,-231.561 4660.1611,-215.0151 4973.9241,-187.7987"/>
<polygon fill="#191970" stroke="#191970" points="4974.3281,-191.2763 4983.9618,-186.8672 4973.6812,-184.3063 4974.3281,-191.2763"/>
</g>
<!-- Node2 -->
<g id="node3" class="node">
<title>Node2</title>
<g id="a_node3"><a xlink:href="spec_2deprecated_8h.html" target="_top" xlink:title="Macro for deprecated API definitions. ">
<polygon fill="#ffffff" stroke="#ff0000" points="0,-112.5 0,-131.5 145,-131.5 145,-112.5 0,-112.5"/>
<text text-anchor="middle" x="72.5" y="-119.5" font-family="Helvetica,sans-Serif" font-size="10.00" fill="#000000">odp/api/spec/deprecated.h</text>
</a>
</g>
</g>
<!-- Node1&#45;&gt;Node2 -->
<g id="edge2" class="edge">
<title>Node1&#45;&gt;Node2</title>
<path fill="none" stroke="#191970" d="M141.8683,-168.2455C129.1006,-159.7337 110.3562,-147.2375 95.5701,-137.3801"/>
<polygon fill="#191970" stroke="#191970" points="97.226,-134.2775 86.964,-131.6427 93.3431,-140.1019 97.226,-134.2775"/>
</g>
<!-- Node6 -->
<g id="node5" class="node">
<title>Node6</title>
<polygon fill="#ffffff" stroke="#bfbfbf" points="308,-112.5 308,-131.5 427,-131.5 427,-112.5 308,-112.5"/>
<text text-anchor="middle" x="367.5" y="-119.5" font-family="Helvetica,sans-Serif" font-size="10.00" fill="#000000">odp/api/abi/version.h</text>
</g>
<!-- Node5&#45;&gt;Node6 -->
<g id="edge4" class="edge">
<title>Node5&#45;&gt;Node6</title>
<path fill="none" stroke="#191970" d="M367.5,-168.2455C367.5,-160.9382 367.5,-150.6944 367.5,-141.7046"/>
<polygon fill="#191970" stroke="#191970" points="371.0001,-141.6426 367.5,-131.6427 364.0001,-141.6427 371.0001,-141.6426"/>
</g>
<!-- Node7 -->
<g id="node6" class="node">
<title>Node7</title>
<g id="a_node6"><a xlink:href="api_2spec_2version_8h.html" target="_top" xlink:title="ODP version. ">
<polygon fill="#ffffff" stroke="#ff0000" points="163.5,-112.5 163.5,-131.5 289.5,-131.5 289.5,-112.5 163.5,-112.5"/>
<text text-anchor="middle" x="226.5" y="-119.5" font-family="Helvetica,sans-Serif" font-size="10.00" fill="#000000">odp/api/spec/version.h</text>
</a>
</g>
</g>
<!-- Node5&#45;&gt;Node7 -->
<g id="edge5" class="edge">
<title>Node5&#45;&gt;Node7</title>
<path fill="none" stroke="#191970" d="M343.2612,-168.3733C320.2211,-159.2226 285.3786,-145.3844 259.7499,-135.2057"/>
<polygon fill="#191970" stroke="#191970" points="261.0082,-131.9395 250.4225,-131.5011 258.4244,-138.4452 261.0082,-131.9395"/>
</g>
<!-- Node9 -->
<g id="node8" class="node">
<title>Node9</title>
<polygon fill="#ffffff" stroke="#bfbfbf" points="1076.5,-.5 1076.5,-19.5 1206.5,-19.5 1206.5,-.5 1076.5,-.5"/>
<text text-anchor="middle" x="1141.5" y="-7.5" font-family="Helvetica,sans-Serif" font-size="10.00" fill="#000000">odp/api/abi/std_types.h</text>
</g>
<!-- Node8&#45;&gt;Node9 -->
<g id="edge7" class="edge">
<title>Node8&#45;&gt;Node9</title>
<path fill="none" stroke="#191970" d="M1090.2996,-56.2455C1099.3678,-48.0549 1112.5206,-36.1749 1123.2245,-26.5069"/>
<polygon fill="#191970" stroke="#191970" points="1125.7491,-28.9429 1130.8242,-19.6427 1121.0571,-23.7482 1125.7491,-28.9429"/>
</g>
<!-- Node44&#45;&gt;Node46 -->
<g id="edge16" class="edge">
<title>Node44&#45;&gt;Node46</title>
<path fill="none" stroke="#191970" d="M2367.4223,-168.2455C2372.1027,-160.5367 2378.7673,-149.5598 2384.4289,-140.2348"/>
<polygon fill="#191970" stroke="#191970" points="2387.4475,-142.007 2389.6455,-131.6427 2381.4639,-138.3741 2387.4475,-142.007"/>
</g>
<!-- Node54&#45;&gt;Node8 -->
<g id="edge19" class="edge">
<title>Node54&#45;&gt;Node8</title>
<path fill="none" stroke="#191970" d="M1146.5395,-168.1541C1138.4963,-159.0917 1126.5917,-145.1079 1117.5,-132 1106.9314,-116.7629 1096.5375,-98.4118 1089.2989,-84.932"/>
<polygon fill="#191970" stroke="#191970" points="1092.1919,-82.9149 1084.428,-75.7057 1086.0016,-86.1831 1092.1919,-82.9149"/>
</g>
<!-- Node54&#45;&gt;Node55 -->
<g id="edge20" class="edge">
<title>Node54&#45;&gt;Node55</title>
<path fill="none" stroke="#191970" d="M1158.9837,-168.2455C1161.6508,-160.7776 1165.4133,-150.2427 1168.6737,-141.1137"/>
<polygon fill="#191970" stroke="#191970" points="1171.9889,-142.2373 1172.0562,-131.6427 1165.3967,-139.8829 1171.9889,-142.2373"/>
</g>
<!-- Node69&#45;&gt;Node8 -->
<g id="edge26" class="edge">
<title>Node69&#45;&gt;Node8</title>
<path fill="none" stroke="#191970" d="M1266.906,-112.4369C1228.4716,-102.9133 1169.364,-88.2672 1127.829,-77.9753"/>
<polygon fill="#191970" stroke="#191970" points="1128.4831,-74.5316 1117.9348,-75.5237 1126.7994,-81.3261 1128.4831,-74.5316"/>
</g>
<!-- Node73&#45;&gt;Node8 -->
<g id="edge30" class="edge">
<title>Node73&#45;&gt;Node8</title>
<path fill="none" stroke="#191970" d="M1386.3698,-113.6756C1383.0312,-113.0998 1379.7147,-112.5359 1376.5,-112 1297.3181,-98.8001 1206.0411,-84.8519 1145.8049,-75.8223"/>
<polygon fill="#191970" stroke="#191970" points="1146.0787,-72.3244 1135.6707,-74.3057 1145.0425,-79.2473 1146.0787,-72.3244"/>
</g>
<!-- Node77&#45;&gt;Node8 -->
<g id="edge33" class="edge">
<title>Node77&#45;&gt;Node8</title>
<path fill="none" stroke="#191970" d="M1496.9492,-113.4328C1493.7548,-112.9267 1490.5828,-112.4438 1487.5,-112 1367.4018,-94.7115 1226.6303,-80.0764 1145.7756,-72.2098"/>
<polygon fill="#191970" stroke="#191970" points="1146.027,-68.7178 1135.7363,-71.2379 1145.3524,-75.6853 1146.027,-68.7178"/>
</g>
<!-- Node33&#45;&gt;Node8 -->
<g id="edge36" class="edge">
<title>Node33&#45;&gt;Node8</title>
<path fill="none" stroke="#191970" d="M532.1156,-113.4086C535.2855,-112.8955 538.4385,-112.4186 541.5,-112 710.54,-88.8866 911.1479,-75.3877 1013.0004,-69.5149"/>
<polygon fill="#191970" stroke="#191970" points="1013.3551,-73.0005 1023.1396,-68.9368 1012.9566,-66.0119 1013.3551,-73.0005"/>
</g>
<!-- Node88&#45;&gt;Node8 -->
<g id="edge38" class="edge">
<title>Node88&#45;&gt;Node8</title>
<path fill="none" stroke="#191970" d="M640.5384,-113.393C643.5671,-112.8965 646.5753,-112.4266 649.5,-112 777.8244,-93.2823 928.7392,-78.8816 1013.3406,-71.4936"/>
<polygon fill="#191970" stroke="#191970" points="1013.6631,-74.9789 1023.3231,-70.6276 1013.058,-68.0051 1013.6631,-74.9789"/>
</g>
<!-- Node27&#45;&gt;Node8 -->
<g id="edge42" class="edge">
<title>Node27&#45;&gt;Node8</title>
<path fill="none" stroke="#191970" d="M756.5332,-113.4564C759.5662,-112.9557 762.5737,-112.4665 765.5,-112 850.7977,-98.4011 949.3818,-84.2068 1012.9905,-75.2462"/>
<polygon fill="#191970" stroke="#191970" points="1013.8651,-78.6578 1023.2803,-73.7994 1012.8904,-71.726 1013.8651,-78.6578"/>
</g>
<!-- Node103&#45;&gt;Node8 -->
<g id="edge45" class="edge">
<title>Node103&#45;&gt;Node8</title>
<path fill="none" stroke="#191970" d="M873.0217,-112.4369C915.6361,-102.8529 981.3176,-88.0812 1027.121,-77.78"/>
<polygon fill="#191970" stroke="#191970" points="1028.1654,-81.1326 1037.1537,-75.5237 1026.6294,-74.3032 1028.1654,-81.1326"/>
</g>
<!-- Node108&#45;&gt;Node8 -->
<g id="edge47" class="edge">
<title>Node108&#45;&gt;Node8</title>
<path fill="none" stroke="#191970" d="M1469.2897,-168.8429C1519.498,-158.7402 1592.3398,-142.5224 1600.5,-132 1605.9473,-124.9758 1606.5026,-118.556 1600.5,-112 1585.354,-95.4578 1283.1763,-77.0459 1146.1008,-69.5066"/>
<polygon fill="#191970" stroke="#191970" points="1145.9078,-65.9909 1135.7316,-68.9397 1145.5256,-72.9805 1145.9078,-65.9909"/>
</g>
<!-- Node108&#45;&gt;Node77 -->
<g id="edge48" class="edge">
<title>Node108&#45;&gt;Node77</title>
<path fill="none" stroke="#191970" d="M1442.6445,-168.3733C1462.3892,-159.3838 1492.0698,-145.8706 1514.3055,-135.7471"/>
<polygon fill="#191970" stroke="#191970" points="1515.9806,-138.8302 1523.6315,-131.5011 1513.08,-132.4594 1515.9806,-138.8302"/>
</g>
<!-- Node111&#45;&gt;Node8 -->
<g id="edge50" class="edge">
<title>Node111&#45;&gt;Node8</title>
<path fill="none" stroke="#191970" d="M987.5816,-112.3733C1005.2402,-103.4644 1031.7053,-90.1127 1051.7098,-80.0203"/>
<polygon fill="#191970" stroke="#191970" points="1053.3158,-83.1303 1060.6674,-75.5011 1050.1628,-76.8806 1053.3158,-83.1303"/>
</g>
<!-- Node132&#45;&gt;Node9 -->
<g id="edge60" class="edge">
<title>Node132&#45;&gt;Node9</title>
<path fill="none" stroke="#191970" d="M1381.9767,-56.4369C1331.8241,-46.7522 1254.239,-31.7703 1200.8303,-21.4569"/>
<polygon fill="#191970" stroke="#191970" points="1201.3013,-17.9832 1190.819,-19.5237 1199.974,-24.8563 1201.3013,-17.9832"/>
</g>
</g>
</svg>
