<?xml version="1.0" encoding="UTF-8" standalone="no"?>
<!DOCTYPE svg PUBLIC "-//W3C//DTD SVG 1.1//EN"
 "http://www.w3.org/Graphics/SVG/1.1/DTD/svg11.dtd">
<!-- Generated by graphviz version 2.40.1 (20161225.0304)
 -->
<!-- Title: queue_types.h Pages: 1 -->
<svg width="466pt" height="588pt"
 viewBox="0.00 0.00 465.50 588.00" xmlns="http://www.w3.org/2000/svg" xmlns:xlink="http://www.w3.org/1999/xlink">
<g id="graph0" class="graph" transform="scale(1 1) rotate(0) translate(4 584)">
<title>queue_types.h</title>
<polygon fill="#ffffff" stroke="transparent" points="-4,4 -4,-584 461.5,-584 461.5,4 -4,4"/>
<!-- Node10 -->
<g id="node1" class="node">
<title>Node10</title>
<polygon fill="#bfbfbf" stroke="#000000" points="53,-560.5 53,-579.5 141,-579.5 141,-560.5 53,-560.5"/>
<text text-anchor="middle" x="97" y="-567.5" font-family="Helvetica,sans-Serif" font-size="10.00" fill="#000000">queue_types.h</text>
</g>
<!-- Node11 -->
<g id="node2" class="node">
<title>Node11</title>
<g id="a_node2"><a xlink:href="api_2spec_2queue_8h.html" target="_top" xlink:title="ODP queue. ">
<polygon fill="#ffffff" stroke="#000000" points="69,-504.5 69,-523.5 125,-523.5 125,-504.5 69,-504.5"/>
<text text-anchor="middle" x="97" y="-511.5" font-family="Helvetica,sans-Serif" font-size="10.00" fill="#000000">queue.h</text>
</a>
</g>
</g>
<!-- Node10&#45;&gt;Node11 -->
<g id="edge1" class="edge">
<title>Node10&#45;&gt;Node11</title>
<path fill="none" stroke="#191970" d="M97,-550.1575C97,-541.155 97,-530.9199 97,-523.6427"/>
<polygon fill="#191970" stroke="#191970" points="93.5001,-550.2455 97,-560.2455 100.5001,-550.2456 93.5001,-550.2455"/>
</g>
<!-- Node12 -->
<g id="node3" class="node">
<title>Node12</title>
<g id="a_node3"><a xlink:href="api_2queue_8h.html" target="_top" xlink:title="ODP queue. ">
<polygon fill="#ffffff" stroke="#000000" points="69,-448.5 69,-467.5 125,-467.5 125,-448.5 69,-448.5"/>
<text text-anchor="middle" x="97" y="-455.5" font-family="Helvetica,sans-Serif" font-size="10.00" fill="#000000">queue.h</text>
</a>
</g>
</g>
<!-- Node11&#45;&gt;Node12 -->
<g id="edge2" class="edge">
<title>Node11&#45;&gt;Node12</title>
<path fill="none" stroke="#191970" d="M97,-494.1575C97,-485.155 97,-474.9199 97,-467.6427"/>
<polygon fill="#191970" stroke="#191970" points="93.5001,-494.2455 97,-504.2455 100.5001,-494.2456 93.5001,-494.2455"/>
</g>
<!-- Node13 -->
<g id="node4" class="node">
<title>Node13</title>
<g id="a_node4"><a xlink:href="api_2crypto_8h.html" target="_top" xlink:title="ODP crypto. ">
<polygon fill="#ffffff" stroke="#000000" points="28,-224.5 28,-243.5 84,-243.5 84,-224.5 28,-224.5"/>
<text text-anchor="middle" x="56" y="-231.5" font-family="Helvetica,sans-Serif" font-size="10.00" fill="#000000">crypto.h</text>
</a>
</g>
</g>
<!-- Node12&#45;&gt;Node13 -->
<g id="edge3" class="edge">
<title>Node12&#45;&gt;Node13</title>
<path fill="none" stroke="#191970" d="M93.4147,-438.4119C84.9481,-392.1557 63.961,-277.494 57.7552,-243.5891"/>
<polygon fill="#191970" stroke="#191970" points="89.9949,-439.1686 95.2383,-448.375 96.8806,-437.9082 89.9949,-439.1686"/>
</g>
<!-- Node16 -->
<g id="node7" class="node">
<title>Node16</title>
<g id="a_node7"><a xlink:href="odp__api_8h.html" target="_top" xlink:title="The OpenDataPlane API. ">
<polygon fill="#ffffff" stroke="#000000" points="178,-56.5 178,-75.5 242,-75.5 242,-56.5 178,-56.5"/>
<text text-anchor="middle" x="210" y="-63.5" font-family="Helvetica,sans-Serif" font-size="10.00" fill="#000000">odp_api.h</text>
</a>
</g>
</g>
<!-- Node12&#45;&gt;Node16 -->
<g id="edge24" class="edge">
<title>Node12&#45;&gt;Node16</title>
<path fill="none" stroke="#191970" d="M70.8722,-442.9614C42.1424,-424.2497 0,-389.4048 0,-346 0,-346 0,-346 0,-178 0,-98.4601 118.741,-75.2122 177.6477,-68.5729"/>
<polygon fill="#191970" stroke="#191970" points="69.3247,-446.1218 79.6583,-448.4601 73.0384,-440.1881 69.3247,-446.1218"/>
</g>
<!-- Node18 -->
<g id="node9" class="node">
<title>Node18</title>
<g id="a_node9"><a xlink:href="api_2spec_2packet__io_8h.html" target="_top" xlink:title="ODP Packet IO. ">
<polygon fill="#ffffff" stroke="#000000" points="139.5,-392.5 139.5,-411.5 212.5,-411.5 212.5,-392.5 139.5,-392.5"/>
<text text-anchor="middle" x="176" y="-399.5" font-family="Helvetica,sans-Serif" font-size="10.00" fill="#000000">packet_io.h</text>
</a>
</g>
</g>
<!-- Node12&#45;&gt;Node18 -->
<g id="edge9" class="edge">
<title>Node12&#45;&gt;Node18</title>
<path fill="none" stroke="#191970" d="M119.2756,-442.2097C133.1505,-432.3743 150.5515,-420.0394 162.3969,-411.6427"/>
<polygon fill="#191970" stroke="#191970" points="116.8949,-439.6071 110.7607,-448.2455 120.9431,-445.3178 116.8949,-439.6071"/>
</g>
<!-- Node24 -->
<g id="node15" class="node">
<title>Node24</title>
<g id="a_node15"><a xlink:href="api_2spec_2schedule_8h.html" target="_top" xlink:title="ODP schedule. ">
<polygon fill="#ffffff" stroke="#000000" points="328.5,-336.5 328.5,-355.5 397.5,-355.5 397.5,-336.5 328.5,-336.5"/>
<text text-anchor="middle" x="363" y="-343.5" font-family="Helvetica,sans-Serif" font-size="10.00" fill="#000000">schedule.h</text>
</a>
</g>
</g>
<!-- Node12&#45;&gt;Node24 -->
<g id="edge21" class="edge">
<title>Node12&#45;&gt;Node24</title>
<path fill="none" stroke="#191970" d="M134.552,-444.951C159.3007,-436.1356 192.3165,-423.9638 221,-412 265.4102,-393.4767 316.2915,-369.0168 343.4656,-355.6845"/>
<polygon fill="#191970" stroke="#191970" points="133.0849,-441.7575 124.8263,-448.3943 135.4211,-448.3562 133.0849,-441.7575"/>
</g>
<!-- Node14 -->
<g id="node5" class="node">
<title>Node14</title>
<g id="a_node5"><a xlink:href="api_2spec_2ipsec_8h.html" target="_top" xlink:title="ODP IPSEC API. ">
<polygon fill="#ffffff" stroke="#000000" points="184.5,-168.5 184.5,-187.5 235.5,-187.5 235.5,-168.5 184.5,-168.5"/>
<text text-anchor="middle" x="210" y="-175.5" font-family="Helvetica,sans-Serif" font-size="10.00" fill="#000000">ipsec.h</text>
</a>
</g>
</g>
<!-- Node13&#45;&gt;Node14 -->
<g id="edge4" class="edge">
<title>Node13&#45;&gt;Node14</title>
<path fill="none" stroke="#191970" d="M92.0218,-220.9012C120.3593,-210.5966 159.1455,-196.4925 184.3836,-187.315"/>
<polygon fill="#191970" stroke="#191970" points="90.6754,-217.6665 82.4735,-224.3733 93.0676,-224.245 90.6754,-217.6665"/>
</g>
<!-- Node13&#45;&gt;Node16 -->
<g id="edge8" class="edge">
<title>Node13&#45;&gt;Node16</title>
<path fill="none" stroke="#191970" d="M70.933,-216.4668C91.4801,-192.4972 129.8156,-148.3284 164,-112 176.0739,-99.1688 190.5143,-84.8941 199.9535,-75.6998"/>
<polygon fill="#191970" stroke="#191970" points="68.0468,-214.4568 64.2085,-224.3319 73.3673,-219.0057 68.0468,-214.4568"/>
</g>
<!-- Node15 -->
<g id="node6" class="node">
<title>Node15</title>
<g id="a_node6"><a xlink:href="api_2ipsec_8h.html" target="_top" xlink:title="ODP IPSEC API &#45; platform specific header. ">
<polygon fill="#ffffff" stroke="#000000" points="184.5,-112.5 184.5,-131.5 235.5,-131.5 235.5,-112.5 184.5,-112.5"/>
<text text-anchor="middle" x="210" y="-119.5" font-family="Helvetica,sans-Serif" font-size="10.00" fill="#000000">ipsec.h</text>
</a>
</g>
</g>
<!-- Node14&#45;&gt;Node15 -->
<g id="edge5" class="edge">
<title>Node14&#45;&gt;Node15</title>
<path fill="none" stroke="#191970" d="M210,-158.1575C210,-149.155 210,-138.9199 210,-131.6427"/>
<polygon fill="#191970" stroke="#191970" points="206.5001,-158.2455 210,-168.2455 213.5001,-158.2456 206.5001,-158.2455"/>
</g>
<!-- Node15&#45;&gt;Node16 -->
<g id="edge6" class="edge">
<title>Node15&#45;&gt;Node16</title>
<path fill="none" stroke="#191970" d="M210,-102.1575C210,-93.155 210,-82.9199 210,-75.6427"/>
<polygon fill="#191970" stroke="#191970" points="206.5001,-102.2455 210,-112.2455 213.5001,-102.2456 206.5001,-102.2455"/>
</g>
<!-- Node17 -->
<g id="node8" class="node">
<title>Node17</title>
<g id="a_node8"><a xlink:href="odp_8h.html" target="_top" xlink:title="WARNING: THIS FILE IS DEPRECATED AND WILL BE REMOVED!!! ODP APPLICATIONS SHOULD NOW INCLUDE odp_api...">
<polygon fill="#ffffff" stroke="#000000" points="188,-.5 188,-19.5 232,-19.5 232,-.5 188,-.5"/>
<text text-anchor="middle" x="210" y="-7.5" font-family="Helvetica,sans-Serif" font-size="10.00" fill="#000000">odp.h</text>
</a>
</g>
</g>
<!-- Node16&#45;&gt;Node17 -->
<g id="edge7" class="edge">
<title>Node16&#45;&gt;Node17</title>
<path fill="none" stroke="#191970" d="M210,-46.1575C210,-37.155 210,-26.9199 210,-19.6427"/>
<polygon fill="#191970" stroke="#191970" points="206.5001,-46.2455 210,-56.2455 213.5001,-46.2456 206.5001,-46.2455"/>
</g>
<!-- Node19 -->
<g id="node10" class="node">
<title>Node19</title>
<g id="a_node10"><a xlink:href="api_2packet__io_8h.html" target="_top" xlink:title="ODP Packet IO. ">
<polygon fill="#ffffff" stroke="#000000" points="177.5,-336.5 177.5,-355.5 250.5,-355.5 250.5,-336.5 177.5,-336.5"/>
<text text-anchor="middle" x="214" y="-343.5" font-family="Helvetica,sans-Serif" font-size="10.00" fill="#000000">packet_io.h</text>
</a>
</g>
</g>
<!-- Node18&#45;&gt;Node19 -->
<g id="edge10" class="edge">
<title>Node18&#45;&gt;Node19</title>
<path fill="none" stroke="#191970" d="M188.2679,-383.9209C194.6488,-374.5176 202.1931,-363.3997 207.4568,-355.6427"/>
<polygon fill="#191970" stroke="#191970" points="185.338,-382.0055 182.6191,-392.2455 191.1303,-385.936 185.338,-382.0055"/>
</g>
<!-- Node19&#45;&gt;Node14 -->
<g id="edge15" class="edge">
<title>Node19&#45;&gt;Node14</title>
<path fill="none" stroke="#191970" d="M213.53,-326.2601C212.6706,-290.1669 210.8754,-214.7656 210.234,-187.8279"/>
<polygon fill="#191970" stroke="#191970" points="210.0364,-326.5724 213.7735,-336.4862 217.0344,-326.4057 210.0364,-326.5724"/>
</g>
<!-- Node19&#45;&gt;Node16 -->
<g id="edge20" class="edge">
<title>Node19&#45;&gt;Node16</title>
<path fill="none" stroke="#191970" d="M260.4654,-339.5108C287.0794,-333.497 319.2144,-321.9792 340,-300 361.0601,-277.7305 360,-264.6506 360,-234 360,-234 360,-234 360,-178 360,-119.6624 286.2537,-88.0702 242.1788,-74.3985"/>
<polygon fill="#191970" stroke="#191970" points="259.6551,-336.1043 250.5708,-341.5565 261.0724,-342.9593 259.6551,-336.1043"/>
</g>
<!-- Node20 -->
<g id="node11" class="node">
<title>Node20</title>
<g id="a_node11"><a xlink:href="api_2spec_2classification_8h.html" target="_top" xlink:title="ODP classification descriptor. ">
<polygon fill="#ffffff" stroke="#000000" points="242.5,-280.5 242.5,-299.5 331.5,-299.5 331.5,-280.5 242.5,-280.5"/>
<text text-anchor="middle" x="287" y="-287.5" font-family="Helvetica,sans-Serif" font-size="10.00" fill="#000000">classification.h</text>
</a>
</g>
</g>
<!-- Node19&#45;&gt;Node20 -->
<g id="edge11" class="edge">
<title>Node19&#45;&gt;Node20</title>
<path fill="none" stroke="#191970" d="M234.951,-329.928C247.7107,-320.1397 263.5885,-307.9595 274.4301,-299.6427"/>
<polygon fill="#191970" stroke="#191970" points="232.5196,-327.3819 226.7156,-336.2455 236.7803,-332.9359 232.5196,-327.3819"/>
</g>
<!-- Node22 -->
<g id="node13" class="node">
<title>Node22</title>
<g id="a_node13"><a xlink:href="api_2spec_2traffic__mngr_8h.html" target="_top" xlink:title="Copyright (c) 2015&#45;2018, Linaro Limited All rights reserved. ">
<polygon fill="#ffffff" stroke="#000000" points="102,-280.5 102,-299.5 186,-299.5 186,-280.5 102,-280.5"/>
<text text-anchor="middle" x="144" y="-287.5" font-family="Helvetica,sans-Serif" font-size="10.00" fill="#000000">traffic_mngr.h</text>
</a>
</g>
</g>
<!-- Node19&#45;&gt;Node22 -->
<g id="edge16" class="edge">
<title>Node19&#45;&gt;Node22</title>
<path fill="none" stroke="#191970" d="M193.91,-329.928C181.6747,-320.1397 166.4493,-307.9595 156.0533,-299.6427"/>
<polygon fill="#191970" stroke="#191970" points="191.8118,-332.7316 201.8069,-336.2455 196.1847,-327.2655 191.8118,-332.7316"/>
</g>
<!-- Node21 -->
<g id="node12" class="node">
<title>Node21</title>
<g id="a_node12"><a xlink:href="api_2classification_8h.html" target="_top" xlink:title="ODP classification descriptor. ">
<polygon fill="#ffffff" stroke="#000000" points="242.5,-224.5 242.5,-243.5 331.5,-243.5 331.5,-224.5 242.5,-224.5"/>
<text text-anchor="middle" x="287" y="-231.5" font-family="Helvetica,sans-Serif" font-size="10.00" fill="#000000">classification.h</text>
</a>
</g>
</g>
<!-- Node20&#45;&gt;Node21 -->
<g id="edge12" class="edge">
<title>Node20&#45;&gt;Node21</title>
<path fill="none" stroke="#191970" d="M287,-270.1575C287,-261.155 287,-250.9199 287,-243.6427"/>
<polygon fill="#191970" stroke="#191970" points="283.5001,-270.2455 287,-280.2455 290.5001,-270.2456 283.5001,-270.2455"/>
</g>
<!-- Node21&#45;&gt;Node14 -->
<g id="edge13" class="edge">
<title>Node21&#45;&gt;Node14</title>
<path fill="none" stroke="#191970" d="M265.2884,-218.2097C251.7647,-208.3743 234.8042,-196.0394 223.2587,-187.6427"/>
<polygon fill="#191970" stroke="#191970" points="263.4416,-221.1944 273.5876,-224.2455 267.5589,-215.5332 263.4416,-221.1944"/>
</g>
<!-- Node21&#45;&gt;Node16 -->
<g id="edge14" class="edge">
<title>Node21&#45;&gt;Node16</title>
<path fill="none" stroke="#191970" d="M282.0621,-214.482C275.3764,-189.7542 262.16,-146.2371 244,-112 236.8338,-98.4895 225.9856,-84.5874 218.4786,-75.6541"/>
<polygon fill="#191970" stroke="#191970" points="278.7461,-215.6355 284.6686,-224.4205 285.5171,-213.8597 278.7461,-215.6355"/>
</g>
<!-- Node23 -->
<g id="node14" class="node">
<title>Node23</title>
<g id="a_node14"><a xlink:href="api_2traffic__mngr_8h.html" target="_top" xlink:title="ODP Traffic manager. ">
<polygon fill="#ffffff" stroke="#000000" points="102,-224.5 102,-243.5 186,-243.5 186,-224.5 102,-224.5"/>
<text text-anchor="middle" x="144" y="-231.5" font-family="Helvetica,sans-Serif" font-size="10.00" fill="#000000">traffic_mngr.h</text>
</a>
</g>
</g>
<!-- Node22&#45;&gt;Node23 -->
<g id="edge17" class="edge">
<title>Node22&#45;&gt;Node23</title>
<path fill="none" stroke="#191970" d="M144,-270.1575C144,-261.155 144,-250.9199 144,-243.6427"/>
<polygon fill="#191970" stroke="#191970" points="140.5001,-270.2455 144,-280.2455 147.5001,-270.2456 140.5001,-270.2455"/>
</g>
<!-- Node23&#45;&gt;Node14 -->
<g id="edge18" class="edge">
<title>Node23&#45;&gt;Node14</title>
<path fill="none" stroke="#191970" d="M163.2755,-217.645C174.7538,-207.9058 188.9277,-195.8795 198.6354,-187.6427"/>
<polygon fill="#191970" stroke="#191970" points="160.857,-215.1069 155.4963,-224.2455 165.3859,-220.4445 160.857,-215.1069"/>
</g>
<!-- Node23&#45;&gt;Node16 -->
<g id="edge19" class="edge">
<title>Node23&#45;&gt;Node16</title>
<path fill="none" stroke="#191970" d="M146.5088,-214.3952C150.2295,-189.5765 158.6089,-145.9646 175,-112 181.6295,-98.2629 192.7253,-84.6218 200.6466,-75.8056"/>
<polygon fill="#191970" stroke="#191970" points="143.0321,-213.9857 145.115,-224.3737 149.9648,-214.9541 143.0321,-213.9857"/>
</g>
<!-- Node25 -->
<g id="node16" class="node">
<title>Node25</title>
<g id="a_node16"><a xlink:href="api_2schedule_8h.html" target="_top" xlink:title="ODP schedule. ">
<polygon fill="#ffffff" stroke="#000000" points="388.5,-168.5 388.5,-187.5 457.5,-187.5 457.5,-168.5 388.5,-168.5"/>
<text text-anchor="middle" x="423" y="-175.5" font-family="Helvetica,sans-Serif" font-size="10.00" fill="#000000">schedule.h</text>
</a>
</g>
</g>
<!-- Node24&#45;&gt;Node25 -->
<g id="edge22" class="edge">
<title>Node24&#45;&gt;Node25</title>
<path fill="none" stroke="#191970" d="M369.8833,-326.7267C382.7069,-290.8207 409.8278,-214.8822 419.49,-187.8279"/>
<polygon fill="#191970" stroke="#191970" points="366.4651,-325.8916 366.3978,-336.4862 373.0573,-328.246 366.4651,-325.8916"/>
</g>
<!-- Node25&#45;&gt;Node16 -->
<g id="edge23" class="edge">
<title>Node25&#45;&gt;Node16</title>
<path fill="none" stroke="#191970" d="M413.7054,-159.4557C405.2962,-144.5173 391.5508,-124.0797 374,-112 333.8077,-84.3368 277.2968,-73.2238 242.1997,-68.8187"/>
<polygon fill="#191970" stroke="#191970" points="410.6493,-161.163 418.4473,-168.3352 416.824,-157.8655 410.6493,-161.163"/>
</g>
</g>
</svg>
