<?xml version="1.0" encoding="UTF-8" standalone="no"?>
<!DOCTYPE svg PUBLIC "-//W3C//DTD SVG 1.1//EN"
 "http://www.w3.org/Graphics/SVG/1.1/DTD/svg11.dtd">
<!-- Generated by graphviz version 2.40.1 (20161225.0304)
 -->
<!-- Title: odp_cls_capability_t Pages: 1 -->
<svg width="425pt" height="106pt"
 viewBox="0.00 0.00 425.00 106.00" xmlns="http://www.w3.org/2000/svg" xmlns:xlink="http://www.w3.org/1999/xlink">
<g id="graph0" class="graph" transform="scale(1 1) rotate(0) translate(4 102)">
<title>odp_cls_capability_t</title>
<polygon fill="#ffffff" stroke="transparent" points="-4,4 -4,-102 421,-102 421,4 -4,4"/>
<!-- Node1 -->
<g id="node1" class="node">
<title>Node1</title>
<polygon fill="#bfbfbf" stroke="#000000" points="153.5,-.5 153.5,-19.5 269.5,-19.5 269.5,-.5 153.5,-.5"/>
<text text-anchor="middle" x="211.5" y="-7.5" font-family="Helvetica,sans-Serif" font-size="10.00" fill="#000000">odp_cls_capability_t</text>
</g>
<!-- Node2 -->
<g id="node2" class="node">
<title>Node2</title>
<g id="a_node2"><a xlink:href="unionodp__threshold__types__t.html" target="_top" xlink:title="Supported threshold types. ">
<polygon fill="#ffffff" stroke="#000000" points="0,-78.5 0,-97.5 127,-97.5 127,-78.5 0,-78.5"/>
<text text-anchor="middle" x="63.5" y="-85.5" font-family="Helvetica,sans-Serif" font-size="10.00" fill="#000000">odp_threshold_types_t</text>
</a>
</g>
</g>
<!-- Node2&#45;&gt;Node1 -->
<g id="edge1" class="edge">
<title>Node2&#45;&gt;Node1</title>
<path fill="none" stroke="#9a32cd" stroke-dasharray="5,2" d="M83.9702,-72.2653C98.3957,-61.6618 118.4603,-47.8633 137.5,-38 151.5262,-30.7339 167.8838,-24.3456 181.6477,-19.5128"/>
<polygon fill="#9a32cd" stroke="#9a32cd" points="81.6901,-69.5999 75.7766,-78.3908 85.8815,-75.2064 81.6901,-69.5999"/>
<text text-anchor="middle" x="172.5" y="-52" font-family="Helvetica,sans-Serif" font-size="10.00" fill="#000000"> threshold_red</text>
<text text-anchor="middle" x="172.5" y="-41" font-family="Helvetica,sans-Serif" font-size="10.00" fill="#000000">threshold_bp</text>
</g>
<!-- Node3 -->
<g id="node3" class="node">
<title>Node3</title>
<g id="a_node3"><a xlink:href="unionodp__pktin__hash__proto__t.html" target="_top" xlink:title="Packet input hash protocols. ">
<polygon fill="#ffffff" stroke="#000000" points="145,-78.5 145,-97.5 278,-97.5 278,-78.5 145,-78.5"/>
<text text-anchor="middle" x="211.5" y="-85.5" font-family="Helvetica,sans-Serif" font-size="10.00" fill="#000000">odp_pktin_hash_proto_t</text>
</a>
</g>
</g>
<!-- Node3&#45;&gt;Node1 -->
<g id="edge2" class="edge">
<title>Node3&#45;&gt;Node1</title>
<path fill="none" stroke="#9a32cd" stroke-dasharray="5,2" d="M211.5,-68.2866C211.5,-52.7395 211.5,-31.7276 211.5,-19.6426"/>
<polygon fill="#9a32cd" stroke="#9a32cd" points="208.0001,-68.4356 211.5,-78.4357 215.0001,-68.4357 208.0001,-68.4356"/>
<text text-anchor="middle" x="250" y="-46.5" font-family="Helvetica,sans-Serif" font-size="10.00" fill="#000000"> hash_protocols</text>
</g>
<!-- Node4 -->
<g id="node4" class="node">
<title>Node4</title>
<g id="a_node4"><a xlink:href="unionodp__cls__pmr__terms__t.html" target="_top" xlink:title="Supported PMR term values. ">
<polygon fill="#ffffff" stroke="#000000" points="296,-78.5 296,-97.5 417,-97.5 417,-78.5 296,-78.5"/>
<text text-anchor="middle" x="356.5" y="-85.5" font-family="Helvetica,sans-Serif" font-size="10.00" fill="#000000">odp_cls_pmr_terms_t</text>
</a>
</g>
</g>
<!-- Node4&#45;&gt;Node1 -->
<g id="edge3" class="edge">
<title>Node4&#45;&gt;Node1</title>
<path fill="none" stroke="#9a32cd" stroke-dasharray="5,2" d="M338.736,-71.4964C326.4814,-60.7984 309.4087,-47.1936 292.5,-38 278.3826,-30.324 261.7605,-24.1412 247.2596,-19.558"/>
<polygon fill="#9a32cd" stroke="#9a32cd" points="336.6041,-74.2855 346.3889,-78.3484 341.2734,-69.0704 336.6041,-74.2855"/>
<text text-anchor="middle" x="366.5" y="-46.5" font-family="Helvetica,sans-Serif" font-size="10.00" fill="#000000"> supported_terms</text>
</g>
</g>
</svg>
