<?xml version="1.0" encoding="UTF-8" standalone="no"?>
<!DOCTYPE svg PUBLIC "-//W3C//DTD SVG 1.1//EN"
 "http://www.w3.org/Graphics/SVG/1.1/DTD/svg11.dtd">
<!-- Generated by graphviz version 2.40.1 (20161225.0304)
 -->
<!-- Title: odp_pktio_capability_t Pages: 1 -->
<svg width="585pt" height="180pt"
 viewBox="0.00 0.00 585.00 180.00" xmlns="http://www.w3.org/2000/svg" xmlns:xlink="http://www.w3.org/1999/xlink">
<g id="graph0" class="graph" transform="scale(1 1) rotate(0) translate(4 176)">
<title>odp_pktio_capability_t</title>
<polygon fill="#ffffff" stroke="transparent" points="-4,4 -4,-176 581,-176 581,4 -4,4"/>
<!-- Node1 -->
<g id="node1" class="node">
<title>Node1</title>
<polygon fill="#bfbfbf" stroke="#000000" points="450,-95.5 450,-114.5 577,-114.5 577,-95.5 450,-95.5"/>
<text text-anchor="middle" x="513.5" y="-102.5" font-family="Helvetica,sans-Serif" font-size="10.00" fill="#000000">odp_pktio_capability_t</text>
</g>
<!-- Node2 -->
<g id="node2" class="node">
<title>Node2</title>
<g id="a_node2"><a xlink:href="unionodp__pktio__set__op__t.html" target="_top" xlink:title="Packet IO set operations. ">
<polygon fill="#ffffff" stroke="#000000" points="241,-152.5 241,-171.5 352,-171.5 352,-152.5 241,-152.5"/>
<text text-anchor="middle" x="296.5" y="-159.5" font-family="Helvetica,sans-Serif" font-size="10.00" fill="#000000">odp_pktio_set_op_t</text>
</a>
</g>
</g>
<!-- Node2&#45;&gt;Node1 -->
<g id="edge1" class="edge">
<title>Node2&#45;&gt;Node1</title>
<path fill="none" stroke="#9a32cd" stroke-dasharray="5,2" d="M347.4881,-150.1728C357.6016,-147.81 368.1392,-145.3363 378,-143 402.0207,-137.3087 408.1886,-136.5116 432,-130 449.2738,-125.2762 468.4259,-119.4328 483.8216,-114.5834"/>
<polygon fill="#9a32cd" stroke="#9a32cd" points="346.5001,-146.8092 337.5566,-152.4893 348.0903,-153.6262 346.5001,-146.8092"/>
<text text-anchor="middle" x="414" y="-141" font-family="Helvetica,sans-Serif" font-size="10.00" fill="#000000"> set_op</text>
</g>
<!-- Node3 -->
<g id="node3" class="node">
<title>Node3</title>
<g id="a_node3"><a xlink:href="structodp__lso__capability__t.html" target="_top" xlink:title="Large Send Offload (LSO) capabilities. ">
<polygon fill="#ffffff" stroke="#000000" points="238.5,-114.5 238.5,-133.5 354.5,-133.5 354.5,-114.5 238.5,-114.5"/>
<text text-anchor="middle" x="296.5" y="-121.5" font-family="Helvetica,sans-Serif" font-size="10.00" fill="#000000">odp_lso_capability_t</text>
</a>
</g>
</g>
<!-- Node3&#45;&gt;Node1 -->
<g id="edge2" class="edge">
<title>Node3&#45;&gt;Node1</title>
<path fill="none" stroke="#9a32cd" stroke-dasharray="5,2" d="M364.8619,-118.0144C392.0466,-115.6342 423.1446,-112.9113 449.8454,-110.5734"/>
<polygon fill="#9a32cd" stroke="#9a32cd" points="364.3086,-114.5494 354.652,-118.9083 364.9192,-121.5227 364.3086,-114.5494"/>
<text text-anchor="middle" x="414" y="-118" font-family="Helvetica,sans-Serif" font-size="10.00" fill="#000000"> lso</text>
</g>
<!-- Node4 -->
<g id="node4" class="node">
<title>Node4</title>
<g id="a_node4"><a xlink:href="structodp__pktin__vector__capability__t.html" target="_top" xlink:title="Packet input vector capabilities. ">
<polygon fill="#ffffff" stroke="#000000" points="215,-76.5 215,-95.5 378,-95.5 378,-76.5 215,-76.5"/>
<text text-anchor="middle" x="296.5" y="-83.5" font-family="Helvetica,sans-Serif" font-size="10.00" fill="#000000">odp_pktin_vector_capability_t</text>
</a>
</g>
</g>
<!-- Node4&#45;&gt;Node1 -->
<g id="edge3" class="edge">
<title>Node4&#45;&gt;Node1</title>
<path fill="none" stroke="#9a32cd" stroke-dasharray="5,2" d="M388.2648,-93.239C402.8971,-94.4539 417.8662,-95.7327 432,-97 437.8058,-97.5206 443.8424,-98.0796 449.887,-98.6514"/>
<polygon fill="#9a32cd" stroke="#9a32cd" points="388.4568,-89.743 378.2029,-92.409 387.8812,-96.7193 388.4568,-89.743"/>
<text text-anchor="middle" x="414" y="-100" font-family="Helvetica,sans-Serif" font-size="10.00" fill="#000000"> vector</text>
</g>
<!-- Node5 -->
<g id="node5" class="node">
<title>Node5</title>
<g id="a_node5"><a xlink:href="structodp__pktio__config__t.html" target="_top" xlink:title="Packet IO configuration options. ">
<polygon fill="#ffffff" stroke="#000000" points="242.5,-38.5 242.5,-57.5 350.5,-57.5 350.5,-38.5 242.5,-38.5"/>
<text text-anchor="middle" x="296.5" y="-45.5" font-family="Helvetica,sans-Serif" font-size="10.00" fill="#000000">odp_pktio_config_t</text>
</a>
</g>
</g>
<!-- Node5&#45;&gt;Node1 -->
<g id="edge4" class="edge">
<title>Node5&#45;&gt;Node1</title>
<path fill="none" stroke="#9a32cd" stroke-dasharray="5,2" d="M352.3894,-59.6807C376.9318,-65.0942 406.017,-71.8967 432,-79 449.9077,-83.8957 469.7585,-90.2093 485.3854,-95.3889"/>
<polygon fill="#9a32cd" stroke="#9a32cd" points="353.0406,-56.2405 342.5239,-57.5251 351.5463,-63.0791 353.0406,-56.2405"/>
<text text-anchor="middle" x="414" y="-82" font-family="Helvetica,sans-Serif" font-size="10.00" fill="#000000"> config</text>
</g>
<!-- Node6 -->
<g id="node6" class="node">
<title>Node6</title>
<g id="a_node6"><a xlink:href="structodp__pktio__parser__config__t.html" target="_top" xlink:title="Parser configuration. ">
<polygon fill="#ffffff" stroke="#000000" points="0,-76.5 0,-95.5 144,-95.5 144,-76.5 0,-76.5"/>
<text text-anchor="middle" x="72" y="-83.5" font-family="Helvetica,sans-Serif" font-size="10.00" fill="#000000">odp_pktio_parser_config_t</text>
</a>
</g>
</g>
<!-- Node6&#45;&gt;Node5 -->
<g id="edge5" class="edge">
<title>Node6&#45;&gt;Node5</title>
<path fill="none" stroke="#9a32cd" stroke-dasharray="5,2" d="M138.4271,-74.7562C171.5807,-69.1445 211.1727,-62.4429 242.4393,-57.1506"/>
<polygon fill="#9a32cd" stroke="#9a32cd" points="137.6367,-71.3401 128.3611,-76.46 138.805,-78.242 137.6367,-71.3401"/>
<text text-anchor="middle" x="179.5" y="-73" font-family="Helvetica,sans-Serif" font-size="10.00" fill="#000000"> parser</text>
</g>
<!-- Node7 -->
<g id="node7" class="node">
<title>Node7</title>
<g id="a_node7"><a xlink:href="unionodp__pktin__config__opt__t.html" target="_top" xlink:title="Packet input configuration options bit field. ">
<polygon fill="#ffffff" stroke="#000000" points="7.5,-38.5 7.5,-57.5 136.5,-57.5 136.5,-38.5 7.5,-38.5"/>
<text text-anchor="middle" x="72" y="-45.5" font-family="Helvetica,sans-Serif" font-size="10.00" fill="#000000">odp_pktin_config_opt_t</text>
</a>
</g>
</g>
<!-- Node7&#45;&gt;Node5 -->
<g id="edge6" class="edge">
<title>Node7&#45;&gt;Node5</title>
<path fill="none" stroke="#9a32cd" stroke-dasharray="5,2" d="M147.0139,-48C178.1579,-48 213.6148,-48 242.1783,-48"/>
<polygon fill="#9a32cd" stroke="#9a32cd" points="146.6335,-44.5001 136.6335,-48 146.6335,-51.5001 146.6335,-44.5001"/>
<text text-anchor="middle" x="179.5" y="-51" font-family="Helvetica,sans-Serif" font-size="10.00" fill="#000000"> pktin</text>
</g>
<!-- Node8 -->
<g id="node8" class="node">
<title>Node8</title>
<g id="a_node8"><a xlink:href="unionodp__pktout__config__opt__t.html" target="_top" xlink:title="Packet output configuration options bit field. ">
<polygon fill="#ffffff" stroke="#000000" points="4,-.5 4,-19.5 140,-19.5 140,-.5 4,-.5"/>
<text text-anchor="middle" x="72" y="-7.5" font-family="Helvetica,sans-Serif" font-size="10.00" fill="#000000">odp_pktout_config_opt_t</text>
</a>
</g>
</g>
<!-- Node8&#45;&gt;Node5 -->
<g id="edge7" class="edge">
<title>Node8&#45;&gt;Node5</title>
<path fill="none" stroke="#9a32cd" stroke-dasharray="5,2" d="M138.4271,-21.2438C171.5807,-26.8555 211.1727,-33.5571 242.4393,-38.8494"/>
<polygon fill="#9a32cd" stroke="#9a32cd" points="138.805,-17.758 128.3611,-19.54 137.6367,-24.6599 138.805,-17.758"/>
<text text-anchor="middle" x="179.5" y="-33" font-family="Helvetica,sans-Serif" font-size="10.00" fill="#000000"> pktout</text>
</g>
</g>
</svg>
