<?xml version="1.0" encoding="UTF-8" standalone="no"?>
<!DOCTYPE svg PUBLIC "-//W3C//DTD SVG 1.1//EN"
 "http://www.w3.org/Graphics/SVG/1.1/DTD/svg11.dtd">
<!-- Generated by graphviz version 2.40.1 (20161225.0304)
 -->
<!-- Title: support.h Pages: 1 -->
<svg width="597pt" height="756pt"
 viewBox="0.00 0.00 596.50 756.00" xmlns="http://www.w3.org/2000/svg" xmlns:xlink="http://www.w3.org/1999/xlink">
<g id="graph0" class="graph" transform="scale(1 1) rotate(0) translate(4 752)">
<title>support.h</title>
<polygon fill="#ffffff" stroke="transparent" points="-4,4 -4,-752 592.5,-752 592.5,4 -4,4"/>
<!-- Node4 -->
<g id="node1" class="node">
<title>Node4</title>
<polygon fill="#bfbfbf" stroke="#000000" points="134,-728.5 134,-747.5 196,-747.5 196,-728.5 134,-728.5"/>
<text text-anchor="middle" x="165" y="-735.5" font-family="Helvetica,sans-Serif" font-size="10.00" fill="#000000">support.h</text>
</g>
<!-- Node5 -->
<g id="node2" class="node">
<title>Node5</title>
<g id="a_node2"><a xlink:href="api_2spec_2classification_8h.html" target="_top" xlink:title="ODP classification descriptor. ">
<polygon fill="#ffffff" stroke="#000000" points="28.5,-280.5 28.5,-299.5 117.5,-299.5 117.5,-280.5 28.5,-280.5"/>
<text text-anchor="middle" x="73" y="-287.5" font-family="Helvetica,sans-Serif" font-size="10.00" fill="#000000">classification.h</text>
</a>
</g>
</g>
<!-- Node4&#45;&gt;Node5 -->
<g id="edge1" class="edge">
<title>Node4&#45;&gt;Node5</title>
<path fill="none" stroke="#191970" d="M145.2544,-721.7103C123.3332,-701.6742 91,-665.437 91,-626 91,-626 91,-626 91,-402 91,-363.5968 80.5561,-318.7143 75.579,-299.5055"/>
<polygon fill="#191970" stroke="#191970" points="142.9616,-724.3549 152.7804,-728.335 147.5867,-719.1005 142.9616,-724.3549"/>
</g>
<!-- Node7 -->
<g id="node4" class="node">
<title>Node7</title>
<g id="a_node4"><a xlink:href="api_2spec_2ipsec_8h.html" target="_top" xlink:title="ODP IPSEC API. ">
<polygon fill="#ffffff" stroke="#000000" points="237.5,-168.5 237.5,-187.5 288.5,-187.5 288.5,-168.5 237.5,-168.5"/>
<text text-anchor="middle" x="263" y="-175.5" font-family="Helvetica,sans-Serif" font-size="10.00" fill="#000000">ipsec.h</text>
</a>
</g>
</g>
<!-- Node4&#45;&gt;Node7 -->
<g id="edge15" class="edge">
<title>Node4&#45;&gt;Node7</title>
<path fill="none" stroke="#191970" d="M159.6022,-718.3284C153.9852,-696.0948 146,-658.7312 146,-626 146,-626 146,-626 146,-346 146,-315.4754 146.0601,-303.9381 165,-280 185.2497,-254.4064 206.3504,-267.4964 229,-244 245.1018,-227.2963 255.3695,-201.4528 260.0469,-187.5804"/>
<polygon fill="#191970" stroke="#191970" points="156.2711,-719.4237 162.1965,-728.2066 163.0415,-717.6455 156.2711,-719.4237"/>
</g>
<!-- Node9 -->
<g id="node6" class="node">
<title>Node9</title>
<g id="a_node6"><a xlink:href="odp__api_8h.html" target="_top" xlink:title="The OpenDataPlane API. ">
<polygon fill="#ffffff" stroke="#000000" points="330,-56.5 330,-75.5 394,-75.5 394,-56.5 330,-56.5"/>
<text text-anchor="middle" x="362" y="-63.5" font-family="Helvetica,sans-Serif" font-size="10.00" fill="#000000">odp_api.h</text>
</a>
</g>
</g>
<!-- Node4&#45;&gt;Node9 -->
<g id="edge36" class="edge">
<title>Node4&#45;&gt;Node9</title>
<path fill="none" stroke="#191970" d="M124.278,-729.2204C75.4186,-716.0133 0,-685.9221 0,-626 0,-626 0,-626 0,-178 0,-109.2531 241.2799,-78.1069 329.8749,-68.9876"/>
<polygon fill="#191970" stroke="#191970" points="123.4079,-732.6104 133.9648,-731.7138 125.153,-725.8314 123.4079,-732.6104"/>
</g>
<!-- Node11 -->
<g id="node8" class="node">
<title>Node11</title>
<g id="a_node8"><a xlink:href="api_2spec_2comp_8h.html" target="_top" xlink:title="ODP Compression. ">
<polygon fill="#ffffff" stroke="#000000" points="499.5,-616.5 499.5,-635.5 552.5,-635.5 552.5,-616.5 499.5,-616.5"/>
<text text-anchor="middle" x="526" y="-623.5" font-family="Helvetica,sans-Serif" font-size="10.00" fill="#000000">comp.h</text>
</a>
</g>
</g>
<!-- Node4&#45;&gt;Node11 -->
<g id="edge8" class="edge">
<title>Node4&#45;&gt;Node11</title>
<path fill="none" stroke="#191970" d="M206.255,-736.3838C259.8841,-733.0632 355.5928,-722.927 431,-692 465.0026,-678.0544 498.9373,-650.3205 515.5257,-635.6375"/>
<polygon fill="#191970" stroke="#191970" points="205.8937,-732.8986 196.1088,-736.9612 206.2915,-739.8873 205.8937,-732.8986"/>
</g>
<!-- Node13 -->
<g id="node10" class="node">
<title>Node13</title>
<g id="a_node10"><a xlink:href="api_2spec_2crypto_8h.html" target="_top" xlink:title="ODP crypto. ">
<polygon fill="#ffffff" stroke="#000000" points="275,-504.5 275,-523.5 331,-523.5 331,-504.5 275,-504.5"/>
<text text-anchor="middle" x="303" y="-511.5" font-family="Helvetica,sans-Serif" font-size="10.00" fill="#000000">crypto.h</text>
</a>
</g>
</g>
<!-- Node4&#45;&gt;Node13 -->
<g id="edge11" class="edge">
<title>Node4&#45;&gt;Node13</title>
<path fill="none" stroke="#191970" d="M176.1782,-719.8557C204.0658,-674.5889 275.9838,-557.8524 297.0924,-523.5891"/>
<polygon fill="#191970" stroke="#191970" points="173.1951,-718.0252 170.9297,-728.375 179.1548,-721.6969 173.1951,-718.0252"/>
</g>
<!-- Node15 -->
<g id="node12" class="node">
<title>Node15</title>
<g id="a_node12"><a xlink:href="api_2spec_2schedule__types_8h.html" target="_top" xlink:title="ODP schedule types. ">
<polygon fill="#ffffff" stroke="#000000" points="320.5,-672.5 320.5,-691.5 421.5,-691.5 421.5,-672.5 320.5,-672.5"/>
<text text-anchor="middle" x="371" y="-679.5" font-family="Helvetica,sans-Serif" font-size="10.00" fill="#000000">schedule_types.h</text>
</a>
</g>
</g>
<!-- Node4&#45;&gt;Node15 -->
<g id="edge16" class="edge">
<title>Node4&#45;&gt;Node15</title>
<path fill="none" stroke="#191970" d="M206.0221,-726.8483C244.0394,-716.5136 299.9902,-701.3036 335.9638,-691.5244"/>
<polygon fill="#191970" stroke="#191970" points="205.0186,-723.4941 196.287,-729.4948 206.8549,-730.2489 205.0186,-723.4941"/>
</g>
<!-- Node6 -->
<g id="node3" class="node">
<title>Node6</title>
<g id="a_node3"><a xlink:href="api_2classification_8h.html" target="_top" xlink:title="ODP classification descriptor. ">
<polygon fill="#ffffff" stroke="#000000" points="29.5,-224.5 29.5,-243.5 118.5,-243.5 118.5,-224.5 29.5,-224.5"/>
<text text-anchor="middle" x="74" y="-231.5" font-family="Helvetica,sans-Serif" font-size="10.00" fill="#000000">classification.h</text>
</a>
</g>
</g>
<!-- Node5&#45;&gt;Node6 -->
<g id="edge2" class="edge">
<title>Node5&#45;&gt;Node6</title>
<path fill="none" stroke="#191970" d="M73.3543,-270.1575C73.5151,-261.155 73.6979,-250.9199 73.8278,-243.6427"/>
<polygon fill="#191970" stroke="#191970" points="69.8534,-270.1846 73.1742,-280.2455 76.8523,-270.3097 69.8534,-270.1846"/>
</g>
<!-- Node6&#45;&gt;Node7 -->
<g id="edge3" class="edge">
<title>Node6&#45;&gt;Node7</title>
<path fill="none" stroke="#191970" d="M116.5145,-221.4031C153.6243,-210.4076 206.2616,-194.8114 237.2947,-185.6164"/>
<polygon fill="#191970" stroke="#191970" points="115.0839,-218.1765 106.4903,-224.3733 117.0726,-224.8881 115.0839,-218.1765"/>
</g>
<!-- Node6&#45;&gt;Node9 -->
<g id="edge7" class="edge">
<title>Node6&#45;&gt;Node9</title>
<path fill="none" stroke="#191970" d="M90.0522,-217.0739C115.5381,-191.0934 167.8374,-141.3224 221,-112 255.9475,-92.7243 300.2653,-79.9271 329.795,-72.8295"/>
<polygon fill="#191970" stroke="#191970" points="87.4739,-214.7051 83.0323,-224.324 92.5029,-219.5744 87.4739,-214.7051"/>
</g>
<!-- Node8 -->
<g id="node5" class="node">
<title>Node8</title>
<g id="a_node5"><a xlink:href="api_2ipsec_8h.html" target="_top" xlink:title="ODP IPSEC API &#45; platform specific header. ">
<polygon fill="#ffffff" stroke="#000000" points="252.5,-112.5 252.5,-131.5 303.5,-131.5 303.5,-112.5 252.5,-112.5"/>
<text text-anchor="middle" x="278" y="-119.5" font-family="Helvetica,sans-Serif" font-size="10.00" fill="#000000">ipsec.h</text>
</a>
</g>
</g>
<!-- Node7&#45;&gt;Node8 -->
<g id="edge4" class="edge">
<title>Node7&#45;&gt;Node8</title>
<path fill="none" stroke="#191970" d="M268.2356,-158.4538C270.666,-149.3803 273.4465,-138.9998 275.4171,-131.6427"/>
<polygon fill="#191970" stroke="#191970" points="264.8194,-157.6805 265.6128,-168.2455 271.5811,-159.4917 264.8194,-157.6805"/>
</g>
<!-- Node8&#45;&gt;Node9 -->
<g id="edge5" class="edge">
<title>Node8&#45;&gt;Node9</title>
<path fill="none" stroke="#191970" d="M301.2649,-106.49C316.0856,-96.6096 334.8209,-84.1194 347.536,-75.6427"/>
<polygon fill="#191970" stroke="#191970" points="299.0107,-103.7863 292.6317,-112.2455 302.8937,-109.6107 299.0107,-103.7863"/>
</g>
<!-- Node10 -->
<g id="node7" class="node">
<title>Node10</title>
<g id="a_node7"><a xlink:href="odp_8h.html" target="_top" xlink:title="WARNING: THIS FILE IS DEPRECATED AND WILL BE REMOVED!!! ODP APPLICATIONS SHOULD NOW INCLUDE odp_api...">
<polygon fill="#ffffff" stroke="#000000" points="340,-.5 340,-19.5 384,-19.5 384,-.5 340,-.5"/>
<text text-anchor="middle" x="362" y="-7.5" font-family="Helvetica,sans-Serif" font-size="10.00" fill="#000000">odp.h</text>
</a>
</g>
</g>
<!-- Node9&#45;&gt;Node10 -->
<g id="edge6" class="edge">
<title>Node9&#45;&gt;Node10</title>
<path fill="none" stroke="#191970" d="M362,-46.1575C362,-37.155 362,-26.9199 362,-19.6427"/>
<polygon fill="#191970" stroke="#191970" points="358.5001,-46.2455 362,-56.2455 365.5001,-46.2456 358.5001,-46.2455"/>
</g>
<!-- Node12 -->
<g id="node9" class="node">
<title>Node12</title>
<g id="a_node9"><a xlink:href="api_2comp_8h.html" target="_top" xlink:title="ODP crypto. ">
<polygon fill="#ffffff" stroke="#000000" points="535.5,-560.5 535.5,-579.5 588.5,-579.5 588.5,-560.5 535.5,-560.5"/>
<text text-anchor="middle" x="562" y="-567.5" font-family="Helvetica,sans-Serif" font-size="10.00" fill="#000000">comp.h</text>
</a>
</g>
</g>
<!-- Node11&#45;&gt;Node12 -->
<g id="edge9" class="edge">
<title>Node11&#45;&gt;Node12</title>
<path fill="none" stroke="#191970" d="M537.8096,-607.6296C543.8144,-598.2887 550.8659,-587.3197 555.8011,-579.6427"/>
<polygon fill="#191970" stroke="#191970" points="534.7342,-605.9411 532.2707,-616.2455 540.6225,-609.7264 534.7342,-605.9411"/>
</g>
<!-- Node12&#45;&gt;Node9 -->
<g id="edge10" class="edge">
<title>Node12&#45;&gt;Node9</title>
<path fill="none" stroke="#191970" d="M562.5672,-550.1971C563.1585,-527.8164 564,-490.2936 564,-458 564,-458 564,-458 564,-178 564,-101.2099 450.966,-76.6327 394.0075,-69.1227"/>
<polygon fill="#191970" stroke="#191970" points="559.0626,-550.3203 562.2866,-560.4127 566.0599,-550.5126 559.0626,-550.3203"/>
</g>
<!-- Node14 -->
<g id="node11" class="node">
<title>Node14</title>
<g id="a_node11"><a xlink:href="api_2crypto_8h.html" target="_top" xlink:title="ODP crypto. ">
<polygon fill="#ffffff" stroke="#000000" points="347,-336.5 347,-355.5 403,-355.5 403,-336.5 347,-336.5"/>
<text text-anchor="middle" x="375" y="-343.5" font-family="Helvetica,sans-Serif" font-size="10.00" fill="#000000">crypto.h</text>
</a>
</g>
</g>
<!-- Node13&#45;&gt;Node14 -->
<g id="edge12" class="edge">
<title>Node13&#45;&gt;Node14</title>
<path fill="none" stroke="#191970" d="M311.062,-495.1887C326.3673,-459.4762 359.1434,-382.9988 370.7881,-355.8279"/>
<polygon fill="#191970" stroke="#191970" points="307.7996,-493.916 307.0773,-504.4862 314.2336,-496.6735 307.7996,-493.916"/>
</g>
<!-- Node14&#45;&gt;Node7 -->
<g id="edge13" class="edge">
<title>Node14&#45;&gt;Node7</title>
<path fill="none" stroke="#191970" d="M363.0662,-328.0993C339.5285,-292.7928 287.8213,-215.232 269.5519,-187.8279"/>
<polygon fill="#191970" stroke="#191970" points="360.1983,-330.1072 368.6575,-336.4862 366.0226,-326.2243 360.1983,-330.1072"/>
</g>
<!-- Node14&#45;&gt;Node9 -->
<g id="edge14" class="edge">
<title>Node14&#45;&gt;Node9</title>
<path fill="none" stroke="#191970" d="M382.0013,-326.7541C389.397,-304.6695 400,-267.2153 400,-234 400,-234 400,-234 400,-178 400,-138.1657 378.1774,-94.3859 367.607,-75.5166"/>
<polygon fill="#191970" stroke="#191970" points="378.6692,-325.6803 378.6888,-336.2751 385.2805,-327.9805 378.6692,-325.6803"/>
</g>
<!-- Node16 -->
<g id="node13" class="node">
<title>Node16</title>
<g id="a_node13"><a xlink:href="api_2schedule__types_8h.html" target="_top" xlink:title="ODP schedule. ">
<polygon fill="#ffffff" stroke="#000000" points="364.5,-616.5 364.5,-635.5 465.5,-635.5 465.5,-616.5 364.5,-616.5"/>
<text text-anchor="middle" x="415" y="-623.5" font-family="Helvetica,sans-Serif" font-size="10.00" fill="#000000">schedule_types.h</text>
</a>
</g>
</g>
<!-- Node15&#45;&gt;Node16 -->
<g id="edge17" class="edge">
<title>Node15&#45;&gt;Node16</title>
<path fill="none" stroke="#191970" d="M384.9769,-664.2112C392.4129,-654.7472 401.266,-643.4797 407.4236,-635.6427"/>
<polygon fill="#191970" stroke="#191970" points="382.0903,-662.22 378.6642,-672.2455 387.5946,-666.5447 382.0903,-662.22"/>
</g>
<!-- Node17 -->
<g id="node14" class="node">
<title>Node17</title>
<g id="a_node14"><a xlink:href="queue__types_8h.html" target="_top" xlink:title="ODP queue types. ">
<polygon fill="#ffffff" stroke="#000000" points="371,-560.5 371,-579.5 459,-579.5 459,-560.5 371,-560.5"/>
<text text-anchor="middle" x="415" y="-567.5" font-family="Helvetica,sans-Serif" font-size="10.00" fill="#000000">queue_types.h</text>
</a>
</g>
</g>
<!-- Node16&#45;&gt;Node17 -->
<g id="edge18" class="edge">
<title>Node16&#45;&gt;Node17</title>
<path fill="none" stroke="#191970" d="M415,-606.1575C415,-597.155 415,-586.9199 415,-579.6427"/>
<polygon fill="#191970" stroke="#191970" points="411.5001,-606.2455 415,-616.2455 418.5001,-606.2456 411.5001,-606.2455"/>
</g>
<!-- Node24 -->
<g id="node21" class="node">
<title>Node24</title>
<g id="a_node21"><a xlink:href="api_2spec_2schedule_8h.html" target="_top" xlink:title="ODP schedule. ">
<polygon fill="#ffffff" stroke="#000000" points="466.5,-392.5 466.5,-411.5 535.5,-411.5 535.5,-392.5 466.5,-392.5"/>
<text text-anchor="middle" x="501" y="-399.5" font-family="Helvetica,sans-Serif" font-size="10.00" fill="#000000">schedule.h</text>
</a>
</g>
</g>
<!-- Node16&#45;&gt;Node24 -->
<g id="edge35" class="edge">
<title>Node16&#45;&gt;Node24</title>
<path fill="none" stroke="#191970" d="M439.4469,-610.3826C449.826,-602.508 461.099,-592.0626 468,-580 500.7749,-522.711 501.9846,-439.6333 501.3611,-411.627"/>
<polygon fill="#191970" stroke="#191970" points="437.1611,-607.7139 431.0543,-616.3718 441.2273,-613.4119 437.1611,-607.7139"/>
</g>
<!-- Node18 -->
<g id="node15" class="node">
<title>Node18</title>
<g id="a_node15"><a xlink:href="api_2spec_2queue_8h.html" target="_top" xlink:title="ODP queue. ">
<polygon fill="#ffffff" stroke="#000000" points="387,-504.5 387,-523.5 443,-523.5 443,-504.5 387,-504.5"/>
<text text-anchor="middle" x="415" y="-511.5" font-family="Helvetica,sans-Serif" font-size="10.00" fill="#000000">queue.h</text>
</a>
</g>
</g>
<!-- Node17&#45;&gt;Node18 -->
<g id="edge19" class="edge">
<title>Node17&#45;&gt;Node18</title>
<path fill="none" stroke="#191970" d="M415,-550.1575C415,-541.155 415,-530.9199 415,-523.6427"/>
<polygon fill="#191970" stroke="#191970" points="411.5001,-550.2455 415,-560.2455 418.5001,-550.2456 411.5001,-550.2455"/>
</g>
<!-- Node19 -->
<g id="node16" class="node">
<title>Node19</title>
<g id="a_node16"><a xlink:href="api_2queue_8h.html" target="_top" xlink:title="ODP queue. ">
<polygon fill="#ffffff" stroke="#000000" points="387,-448.5 387,-467.5 443,-467.5 443,-448.5 387,-448.5"/>
<text text-anchor="middle" x="415" y="-455.5" font-family="Helvetica,sans-Serif" font-size="10.00" fill="#000000">queue.h</text>
</a>
</g>
</g>
<!-- Node18&#45;&gt;Node19 -->
<g id="edge20" class="edge">
<title>Node18&#45;&gt;Node19</title>
<path fill="none" stroke="#191970" d="M415,-494.1575C415,-485.155 415,-474.9199 415,-467.6427"/>
<polygon fill="#191970" stroke="#191970" points="411.5001,-494.2455 415,-504.2455 418.5001,-494.2456 411.5001,-494.2455"/>
</g>
<!-- Node19&#45;&gt;Node9 -->
<g id="edge34" class="edge">
<title>Node19&#45;&gt;Node9</title>
<path fill="none" stroke="#191970" d="M421.4412,-438.7099C428.2452,-416.5849 438,-379.094 438,-346 438,-346 438,-346 438,-178 438,-133.3528 396.136,-93.2845 374.5499,-75.5918"/>
<polygon fill="#191970" stroke="#191970" points="418.1026,-437.6595 418.3937,-448.2503 424.7706,-439.7895 418.1026,-437.6595"/>
</g>
<!-- Node19&#45;&gt;Node14 -->
<g id="edge21" class="edge">
<title>Node19&#45;&gt;Node14</title>
<path fill="none" stroke="#191970" d="M408.1876,-438.9253C399.5458,-414.7284 384.9777,-373.9376 378.4017,-355.5249"/>
<polygon fill="#191970" stroke="#191970" points="404.9301,-440.2107 411.5896,-448.4509 411.5223,-437.8563 404.9301,-440.2107"/>
</g>
<!-- Node20 -->
<g id="node17" class="node">
<title>Node20</title>
<g id="a_node17"><a xlink:href="api_2spec_2packet__io_8h.html" target="_top" xlink:title="ODP Packet IO. ">
<polygon fill="#ffffff" stroke="#000000" points="250.5,-392.5 250.5,-411.5 323.5,-411.5 323.5,-392.5 250.5,-392.5"/>
<text text-anchor="middle" x="287" y="-399.5" font-family="Helvetica,sans-Serif" font-size="10.00" fill="#000000">packet_io.h</text>
</a>
</g>
</g>
<!-- Node19&#45;&gt;Node20 -->
<g id="edge22" class="edge">
<title>Node19&#45;&gt;Node20</title>
<path fill="none" stroke="#191970" d="M383.5652,-444.2473C360.3191,-434.0771 329.2589,-420.4883 308.7169,-411.5011"/>
<polygon fill="#191970" stroke="#191970" points="382.4315,-447.5716 392.996,-448.3733 385.2373,-441.1585 382.4315,-447.5716"/>
</g>
<!-- Node19&#45;&gt;Node24 -->
<g id="edge31" class="edge">
<title>Node19&#45;&gt;Node24</title>
<path fill="none" stroke="#191970" d="M438.3905,-442.769C453.6299,-432.8456 473.0509,-420.1994 486.1916,-411.6427"/>
<polygon fill="#191970" stroke="#191970" points="436.4502,-439.8558 429.9801,-448.2455 440.2699,-445.7218 436.4502,-439.8558"/>
</g>
<!-- Node21 -->
<g id="node18" class="node">
<title>Node21</title>
<g id="a_node18"><a xlink:href="api_2packet__io_8h.html" target="_top" xlink:title="ODP Packet IO. ">
<polygon fill="#ffffff" stroke="#000000" points="249.5,-336.5 249.5,-355.5 322.5,-355.5 322.5,-336.5 249.5,-336.5"/>
<text text-anchor="middle" x="286" y="-343.5" font-family="Helvetica,sans-Serif" font-size="10.00" fill="#000000">packet_io.h</text>
</a>
</g>
</g>
<!-- Node20&#45;&gt;Node21 -->
<g id="edge23" class="edge">
<title>Node20&#45;&gt;Node21</title>
<path fill="none" stroke="#191970" d="M286.6457,-382.1575C286.4849,-373.155 286.3021,-362.9199 286.1722,-355.6427"/>
<polygon fill="#191970" stroke="#191970" points="283.1477,-382.3097 286.8258,-392.2455 290.1466,-382.1846 283.1477,-382.3097"/>
</g>
<!-- Node21&#45;&gt;Node5 -->
<g id="edge24" class="edge">
<title>Node21&#45;&gt;Node5</title>
<path fill="none" stroke="#191970" d="M239.5415,-333.7856C200.3607,-323.4845 145.0765,-308.9497 109.1382,-299.5011"/>
<polygon fill="#191970" stroke="#191970" points="238.8227,-337.2155 249.384,-336.3733 240.6026,-330.4455 238.8227,-337.2155"/>
</g>
<!-- Node21&#45;&gt;Node7 -->
<g id="edge25" class="edge">
<title>Node21&#45;&gt;Node7</title>
<path fill="none" stroke="#191970" d="M283.2975,-326.2601C278.3562,-290.1669 268.0334,-214.7656 264.3455,-187.8279"/>
<polygon fill="#191970" stroke="#191970" points="279.8734,-327.0534 284.6975,-336.4862 286.8087,-326.1039 279.8734,-327.0534"/>
</g>
<!-- Node21&#45;&gt;Node9 -->
<g id="edge30" class="edge">
<title>Node21&#45;&gt;Node9</title>
<path fill="none" stroke="#191970" d="M291.3032,-326.4621C306.273,-271.31 348.4762,-115.8245 359.3949,-75.5977"/>
<polygon fill="#191970" stroke="#191970" points="287.8579,-325.7941 288.6161,-336.3618 294.6135,-327.6278 287.8579,-325.7941"/>
</g>
<!-- Node22 -->
<g id="node19" class="node">
<title>Node22</title>
<g id="a_node19"><a xlink:href="api_2spec_2traffic__mngr_8h.html" target="_top" xlink:title="Copyright (c) 2015&#45;2018, Linaro Limited All rights reserved. ">
<polygon fill="#ffffff" stroke="#000000" points="174,-280.5 174,-299.5 258,-299.5 258,-280.5 174,-280.5"/>
<text text-anchor="middle" x="216" y="-287.5" font-family="Helvetica,sans-Serif" font-size="10.00" fill="#000000">traffic_mngr.h</text>
</a>
</g>
</g>
<!-- Node21&#45;&gt;Node22 -->
<g id="edge26" class="edge">
<title>Node21&#45;&gt;Node22</title>
<path fill="none" stroke="#191970" d="M265.91,-329.928C253.6747,-320.1397 238.4493,-307.9595 228.0533,-299.6427"/>
<polygon fill="#191970" stroke="#191970" points="263.8118,-332.7316 273.8069,-336.2455 268.1847,-327.2655 263.8118,-332.7316"/>
</g>
<!-- Node23 -->
<g id="node20" class="node">
<title>Node23</title>
<g id="a_node20"><a xlink:href="api_2traffic__mngr_8h.html" target="_top" xlink:title="ODP Traffic manager. ">
<polygon fill="#ffffff" stroke="#000000" points="136,-224.5 136,-243.5 220,-243.5 220,-224.5 136,-224.5"/>
<text text-anchor="middle" x="178" y="-231.5" font-family="Helvetica,sans-Serif" font-size="10.00" fill="#000000">traffic_mngr.h</text>
</a>
</g>
</g>
<!-- Node22&#45;&gt;Node23 -->
<g id="edge27" class="edge">
<title>Node22&#45;&gt;Node23</title>
<path fill="none" stroke="#191970" d="M203.7321,-271.9209C197.3512,-262.5176 189.8069,-251.3997 184.5432,-243.6427"/>
<polygon fill="#191970" stroke="#191970" points="200.8697,-273.936 209.3809,-280.2455 206.662,-270.0055 200.8697,-273.936"/>
</g>
<!-- Node23&#45;&gt;Node7 -->
<g id="edge28" class="edge">
<title>Node23&#45;&gt;Node7</title>
<path fill="none" stroke="#191970" d="M201.5419,-218.49C216.539,-208.6096 235.4973,-196.1194 248.3638,-187.6427"/>
<polygon fill="#191970" stroke="#191970" points="199.2309,-215.8212 192.8059,-224.2455 203.0821,-221.6666 199.2309,-215.8212"/>
</g>
<!-- Node23&#45;&gt;Node9 -->
<g id="edge29" class="edge">
<title>Node23&#45;&gt;Node9</title>
<path fill="none" stroke="#191970" d="M183.7672,-214.6189C192.6114,-188.0225 211.9509,-140.2972 244,-112 268.394,-90.4617 304.0214,-78.4525 329.7404,-72.1532"/>
<polygon fill="#191970" stroke="#191970" points="180.383,-213.7127 180.7036,-224.3027 187.057,-215.8242 180.383,-213.7127"/>
</g>
<!-- Node25 -->
<g id="node22" class="node">
<title>Node25</title>
<g id="a_node22"><a xlink:href="api_2schedule_8h.html" target="_top" xlink:title="ODP schedule. ">
<polygon fill="#ffffff" stroke="#000000" points="466.5,-168.5 466.5,-187.5 535.5,-187.5 535.5,-168.5 466.5,-168.5"/>
<text text-anchor="middle" x="501" y="-175.5" font-family="Helvetica,sans-Serif" font-size="10.00" fill="#000000">schedule.h</text>
</a>
</g>
</g>
<!-- Node24&#45;&gt;Node25 -->
<g id="edge32" class="edge">
<title>Node24&#45;&gt;Node25</title>
<path fill="none" stroke="#191970" d="M501,-382.1177C501,-335.6713 501,-221.4223 501,-187.5891"/>
<polygon fill="#191970" stroke="#191970" points="497.5001,-382.375 501,-392.375 504.5001,-382.375 497.5001,-382.375"/>
</g>
<!-- Node25&#45;&gt;Node9 -->
<g id="edge33" class="edge">
<title>Node25&#45;&gt;Node9</title>
<path fill="none" stroke="#191970" d="M490.4888,-159.4439C481.6526,-145.101 467.9319,-125.4828 452,-112 432.8455,-95.7899 407.0077,-83.3363 387.9299,-75.5005"/>
<polygon fill="#191970" stroke="#191970" points="487.6825,-161.5737 495.7929,-168.3907 493.7038,-158.0038 487.6825,-161.5737"/>
</g>
</g>
</svg>
