<?xml version="1.0" encoding="UTF-8" standalone="no"?>
<!DOCTYPE svg PUBLIC "-//W3C//DTD SVG 1.1//EN"
 "http://www.w3.org/Graphics/SVG/1.1/DTD/svg11.dtd">
<!-- Generated by graphviz version 2.40.1 (20161225.0304)
 -->
<!-- Title: align.h Pages: 1 -->
<svg width="2513pt" height="476pt"
 viewBox="0.00 0.00 2512.50 476.00" xmlns="http://www.w3.org/2000/svg" xmlns:xlink="http://www.w3.org/1999/xlink">
<g id="graph0" class="graph" transform="scale(1 1) rotate(0) translate(4 472)">
<title>align.h</title>
<polygon fill="#ffffff" stroke="transparent" points="-4,4 -4,-472 2508.5,-472 2508.5,4 -4,4"/>
<!-- Node5 -->
<g id="node1" class="node">
<title>Node5</title>
<polygon fill="#bfbfbf" stroke="#000000" points="119.5,-448.5 119.5,-467.5 169.5,-467.5 169.5,-448.5 119.5,-448.5"/>
<text text-anchor="middle" x="144.5" y="-455.5" font-family="Helvetica,sans-Serif" font-size="10.00" fill="#000000">align.h</text>
</g>
<!-- Node6 -->
<g id="node2" class="node">
<title>Node6</title>
<g id="a_node2"><a xlink:href="abi-default_2atomic_8h.html" target="_top" xlink:title="ODP atomic operations. ">
<polygon fill="#ffffff" stroke="#000000" points="0,-280.5 0,-299.5 59,-299.5 59,-280.5 0,-280.5"/>
<text text-anchor="middle" x="29.5" y="-287.5" font-family="Helvetica,sans-Serif" font-size="10.00" fill="#000000">atomic.h</text>
</a>
</g>
</g>
<!-- Node5&#45;&gt;Node6 -->
<g id="edge1" class="edge">
<title>Node5&#45;&gt;Node6</title>
<path fill="none" stroke="#191970" d="M132.2465,-440.0993C108.0784,-404.7928 54.9862,-327.232 36.2274,-299.8279"/>
<polygon fill="#191970" stroke="#191970" points="129.4508,-442.2114 137.9876,-448.4862 135.2271,-438.2573 129.4508,-442.2114"/>
</g>
<!-- Node7 -->
<g id="node3" class="node">
<title>Node7</title>
<g id="a_node3"><a xlink:href="abi-default_2cpumask_8h.html" target="_top" xlink:title="ODP CPU masks and enumeration. ">
<polygon fill="#ffffff" stroke="#000000" points="77.5,-280.5 77.5,-299.5 147.5,-299.5 147.5,-280.5 77.5,-280.5"/>
<text text-anchor="middle" x="112.5" y="-287.5" font-family="Helvetica,sans-Serif" font-size="10.00" fill="#000000">cpumask.h</text>
</a>
</g>
</g>
<!-- Node5&#45;&gt;Node7 -->
<g id="edge2" class="edge">
<title>Node5&#45;&gt;Node7</title>
<path fill="none" stroke="#191970" d="M138.4369,-438.539C136.047,-430.3947 133.4202,-420.7945 131.5,-412 122.4465,-370.5338 116.0317,-320.2296 113.5898,-299.5639"/>
<polygon fill="#191970" stroke="#191970" points="135.1185,-439.6574 141.3629,-448.2164 141.819,-437.6314 135.1185,-439.6574"/>
</g>
<!-- Node8 -->
<g id="node4" class="node">
<title>Node8</title>
<g id="a_node4"><a xlink:href="spec_2std__types_8h.html" target="_top" xlink:title="Standard C language types and definitions for ODP. ">
<polygon fill="#ffffff" stroke="#000000" points="141,-392.5 141,-411.5 214,-411.5 214,-392.5 141,-392.5"/>
<text text-anchor="middle" x="177.5" y="-399.5" font-family="Helvetica,sans-Serif" font-size="10.00" fill="#000000">std_types.h</text>
</a>
</g>
</g>
<!-- Node5&#45;&gt;Node8 -->
<g id="edge3" class="edge">
<title>Node5&#45;&gt;Node8</title>
<path fill="none" stroke="#191970" d="M155.3254,-439.6296C160.8299,-430.2887 167.2937,-419.3197 171.8177,-411.6427"/>
<polygon fill="#191970" stroke="#191970" points="152.3097,-437.8532 150.2482,-448.2455 158.3405,-441.4071 152.3097,-437.8532"/>
</g>
<!-- Node69 -->
<g id="node50" class="node">
<title>Node69</title>
<g id="a_node50"><a xlink:href="time__inlines_8h_source.html" target="_top" xlink:title="time_inlines.h">
<polygon fill="#ffffff" stroke="#000000" points="232.5,-392.5 232.5,-411.5 318.5,-411.5 318.5,-392.5 232.5,-392.5"/>
<text text-anchor="middle" x="275.5" y="-399.5" font-family="Helvetica,sans-Serif" font-size="10.00" fill="#000000">time_inlines.h</text>
</a>
</g>
</g>
<!-- Node5&#45;&gt;Node69 -->
<g id="edge63" class="edge">
<title>Node5&#45;&gt;Node69</title>
<path fill="none" stroke="#191970" d="M176.3534,-444.3833C200.1785,-434.1985 232.1568,-420.5284 253.2742,-411.5011"/>
<polygon fill="#191970" stroke="#191970" points="174.839,-441.2242 167.0197,-448.3733 177.5906,-447.6608 174.839,-441.2242"/>
</g>
<!-- Node9 -->
<g id="node5" class="node">
<title>Node9</title>
<g id="a_node5"><a xlink:href="std__types_8h.html" target="_top" xlink:title="Standard C language types and definitions for ODP. ">
<polygon fill="#ffffff" stroke="#000000" points="1088,-336.5 1088,-355.5 1161,-355.5 1161,-336.5 1088,-336.5"/>
<text text-anchor="middle" x="1124.5" y="-343.5" font-family="Helvetica,sans-Serif" font-size="10.00" fill="#000000">std_types.h</text>
</a>
</g>
</g>
<!-- Node8&#45;&gt;Node9 -->
<g id="edge4" class="edge">
<title>Node8&#45;&gt;Node9</title>
<path fill="none" stroke="#191970" d="M224.221,-392.1754C414.5675,-368.508 943.9156,-351.4047 1087.9521,-347.0693"/>
<polygon fill="#191970" stroke="#191970" points="223.5321,-388.7353 214.0633,-393.4884 224.4295,-395.6775 223.5321,-388.7353"/>
</g>
<!-- Node9&#45;&gt;Node6 -->
<g id="edge5" class="edge">
<title>Node9&#45;&gt;Node6</title>
<path fill="none" stroke="#191970" d="M1077.7823,-345.2535C900.2493,-342.2169 267.4989,-329.5199 68.5,-300 65.4577,-299.5487 62.3092,-298.9571 59.1807,-298.2868"/>
<polygon fill="#191970" stroke="#191970" points="1077.7852,-348.754 1087.843,-345.4236 1077.9036,-341.755 1077.7852,-348.754"/>
</g>
<!-- Node9&#45;&gt;Node7 -->
<g id="edge8" class="edge">
<title>Node9&#45;&gt;Node7</title>
<path fill="none" stroke="#191970" d="M1077.6155,-344.8663C909.5621,-340.6319 337.7577,-324.7083 156.5,-300 153.7057,-299.6191 150.8272,-299.1476 147.9434,-298.6184"/>
<polygon fill="#191970" stroke="#191970" points="1077.7786,-348.3714 1087.863,-345.1226 1077.9536,-341.3735 1077.7786,-348.3714"/>
</g>
<!-- Node10 -->
<g id="node6" class="node">
<title>Node10</title>
<g id="a_node6"><a xlink:href="abi-default_2barrier_8h.html" target="_top" xlink:title="ODP barrier. ">
<polygon fill="#ffffff" stroke="#000000" points="2011,-280.5 2011,-299.5 2068,-299.5 2068,-280.5 2011,-280.5"/>
<text text-anchor="middle" x="2039.5" y="-287.5" font-family="Helvetica,sans-Serif" font-size="10.00" fill="#000000">barrier.h</text>
</a>
</g>
</g>
<!-- Node9&#45;&gt;Node10 -->
<g id="edge6" class="edge">
<title>Node9&#45;&gt;Node10</title>
<path fill="none" stroke="#191970" d="M1171.7097,-344.8441C1329.8746,-340.7653 1840.2319,-325.8794 2002.5,-300 2005.2598,-299.5598 2008.11,-298.995 2010.9466,-298.3581"/>
<polygon fill="#191970" stroke="#191970" points="1171.2809,-341.3539 1161.3736,-345.1082 1171.4597,-348.3516 1171.2809,-341.3539"/>
</g>
<!-- Node11 -->
<g id="node7" class="node">
<title>Node11</title>
<g id="a_node7"><a xlink:href="abi-default_2byteorder_8h.html" target="_top" xlink:title="ODP byteorder. ">
<polygon fill="#ffffff" stroke="#000000" points="2086.5,-280.5 2086.5,-299.5 2158.5,-299.5 2158.5,-280.5 2086.5,-280.5"/>
<text text-anchor="middle" x="2122.5" y="-287.5" font-family="Helvetica,sans-Serif" font-size="10.00" fill="#000000">byteorder.h</text>
</a>
</g>
</g>
<!-- Node9&#45;&gt;Node11 -->
<g id="edge7" class="edge">
<title>Node9&#45;&gt;Node11</title>
<path fill="none" stroke="#191970" d="M1171.4632,-344.7941C1337.9175,-340.3543 1899.2854,-323.9249 2077.5,-300 2080.3555,-299.6167 2083.2978,-299.1434 2086.246,-298.613"/>
<polygon fill="#191970" stroke="#191970" points="1170.9823,-341.3055 1161.0785,-345.0692 1171.1677,-348.3031 1170.9823,-341.3055"/>
</g>
<!-- Node12 -->
<g id="node8" class="node">
<title>Node12</title>
<g id="a_node8"><a xlink:href="abi-default_2init_8h.html" target="_top" xlink:title="ODP initialization. ">
<polygon fill="#ffffff" stroke="#000000" points="2177,-280.5 2177,-299.5 2218,-299.5 2218,-280.5 2177,-280.5"/>
<text text-anchor="middle" x="2197.5" y="-287.5" font-family="Helvetica,sans-Serif" font-size="10.00" fill="#000000">init.h</text>
</a>
</g>
</g>
<!-- Node9&#45;&gt;Node12 -->
<g id="edge9" class="edge">
<title>Node9&#45;&gt;Node12</title>
<path fill="none" stroke="#191970" d="M1171.2724,-345.658C1347.6449,-344.1013 1972.3167,-336.1051 2167.5,-300 2170.5231,-299.4408 2173.6592,-298.6477 2176.7141,-297.7498"/>
<polygon fill="#191970" stroke="#191970" points="1171.0017,-342.16 1161.032,-345.7455 1171.0616,-349.1598 1171.0017,-342.16"/>
</g>
<!-- Node13 -->
<g id="node9" class="node">
<title>Node13</title>
<g id="a_node9"><a xlink:href="abi-default_2ipsec_8h.html" target="_top" xlink:title="ODP IPSEC API &#45; platform specific types. ">
<polygon fill="#ffffff" stroke="#000000" points="2236,-280.5 2236,-299.5 2287,-299.5 2287,-280.5 2236,-280.5"/>
<text text-anchor="middle" x="2261.5" y="-287.5" font-family="Helvetica,sans-Serif" font-size="10.00" fill="#000000">ipsec.h</text>
</a>
</g>
</g>
<!-- Node9&#45;&gt;Node13 -->
<g id="edge10" class="edge">
<title>Node9&#45;&gt;Node13</title>
<path fill="none" stroke="#191970" d="M1171.2074,-345.5699C1353.7879,-343.6537 2019.4021,-334.4087 2227.5,-300 2230.171,-299.5584 2232.9282,-298.9731 2235.6631,-298.3067"/>
<polygon fill="#191970" stroke="#191970" points="1171.0908,-342.0708 1161.1273,-345.6733 1171.1627,-349.0704 1171.0908,-342.0708"/>
</g>
<!-- Node14 -->
<g id="node10" class="node">
<title>Node14</title>
<g id="a_node10"><a xlink:href="abi-default_2packet__io_8h.html" target="_top" xlink:title="ODP Packet IO. ">
<polygon fill="#ffffff" stroke="#000000" points="2305,-280.5 2305,-299.5 2378,-299.5 2378,-280.5 2305,-280.5"/>
<text text-anchor="middle" x="2341.5" y="-287.5" font-family="Helvetica,sans-Serif" font-size="10.00" fill="#000000">packet_io.h</text>
</a>
</g>
</g>
<!-- Node9&#45;&gt;Node14 -->
<g id="edge11" class="edge">
<title>Node9&#45;&gt;Node14</title>
<path fill="none" stroke="#191970" d="M1171.22,-345.2862C1360.8021,-342.2166 2073.1631,-328.9598 2296.5,-300 2299.1985,-299.6501 2301.9739,-299.2167 2304.7583,-298.7283"/>
<polygon fill="#191970" stroke="#191970" points="1170.9775,-341.7895 1161.0349,-345.4494 1171.0897,-348.7887 1170.9775,-341.7895"/>
</g>
<!-- Node15 -->
<g id="node11" class="node">
<title>Node15</title>
<g id="a_node11"><a xlink:href="abi-default_2rwlock__recursive_8h.html" target="_top" xlink:title="ODP recursive read/write lock. ">
<polygon fill="#ffffff" stroke="#000000" points="2396.5,-280.5 2396.5,-299.5 2504.5,-299.5 2504.5,-280.5 2396.5,-280.5"/>
<text text-anchor="middle" x="2450.5" y="-287.5" font-family="Helvetica,sans-Serif" font-size="10.00" fill="#000000">rwlock_recursive.h</text>
</a>
</g>
</g>
<!-- Node9&#45;&gt;Node15 -->
<g id="edge12" class="edge">
<title>Node9&#45;&gt;Node15</title>
<path fill="none" stroke="#191970" d="M1171.1922,-345.0574C1369.7078,-340.9331 2144.5246,-323.621 2387.5,-300 2390.3658,-299.7214 2393.2994,-299.3962 2396.2574,-299.0368"/>
<polygon fill="#191970" stroke="#191970" points="1171.0216,-341.5601 1161.0961,-345.2661 1171.1664,-348.5586 1171.0216,-341.5601"/>
</g>
<!-- Node16 -->
<g id="node12" class="node">
<title>Node16</title>
<g id="a_node12"><a xlink:href="abi-default_2schedule_8h.html" target="_top" xlink:title="ODP schedule. ">
<polygon fill="#ffffff" stroke="#000000" points="166,-280.5 166,-299.5 235,-299.5 235,-280.5 166,-280.5"/>
<text text-anchor="middle" x="200.5" y="-287.5" font-family="Helvetica,sans-Serif" font-size="10.00" fill="#000000">schedule.h</text>
</a>
</g>
</g>
<!-- Node9&#45;&gt;Node16 -->
<g id="edge13" class="edge">
<title>Node9&#45;&gt;Node16</title>
<path fill="none" stroke="#191970" d="M1077.22,-344.5979C918.814,-339.7325 407.6298,-322.6311 244.5,-300 241.5514,-299.5909 238.5087,-299.083 235.4648,-298.5145"/>
<polygon fill="#191970" stroke="#191970" points="1077.4698,-348.107 1087.5719,-344.9138 1077.6834,-341.1103 1077.4698,-348.107"/>
</g>
<!-- Node17 -->
<g id="node13" class="node">
<title>Node17</title>
<g id="a_node13"><a xlink:href="abi-default_2spinlock__recursive_8h.html" target="_top" xlink:title="ODP recursive spinlock. ">
<polygon fill="#ffffff" stroke="#000000" points="253.5,-280.5 253.5,-299.5 369.5,-299.5 369.5,-280.5 253.5,-280.5"/>
<text text-anchor="middle" x="311.5" y="-287.5" font-family="Helvetica,sans-Serif" font-size="10.00" fill="#000000">spinlock_recursive.h</text>
</a>
</g>
</g>
<!-- Node9&#45;&gt;Node17 -->
<g id="edge14" class="edge">
<title>Node9&#45;&gt;Node17</title>
<path fill="none" stroke="#191970" d="M1077.8272,-344.5268C960.2014,-340.5092 642.1856,-327.7551 378.5,-300 375.576,-299.6922 372.5841,-299.3492 369.5654,-298.9807"/>
<polygon fill="#191970" stroke="#191970" points="1077.8107,-348.0281 1087.9229,-344.8669 1078.0464,-341.0321 1077.8107,-348.0281"/>
</g>
<!-- Node18 -->
<g id="node14" class="node">
<title>Node18</title>
<g id="a_node14"><a xlink:href="abi-default_2traffic__mngr_8h.html" target="_top" xlink:title="ODP traffic mngr. ">
<polygon fill="#ffffff" stroke="#000000" points="387.5,-280.5 387.5,-299.5 471.5,-299.5 471.5,-280.5 387.5,-280.5"/>
<text text-anchor="middle" x="429.5" y="-287.5" font-family="Helvetica,sans-Serif" font-size="10.00" fill="#000000">traffic_mngr.h</text>
</a>
</g>
</g>
<!-- Node9&#45;&gt;Node18 -->
<g id="edge15" class="edge">
<title>Node9&#45;&gt;Node18</title>
<path fill="none" stroke="#191970" d="M1077.5726,-344.6147C971.0199,-341.0402 702.8137,-329.6222 480.5,-300 477.638,-299.6187 474.6946,-299.1764 471.735,-298.6944"/>
<polygon fill="#191970" stroke="#191970" points="1077.5622,-348.1162 1087.6717,-344.9461 1077.7919,-341.1199 1077.5622,-348.1162"/>
</g>
<!-- Node19 -->
<g id="node15" class="node">
<title>Node19</title>
<g id="a_node15"><a xlink:href="barrier_8h.html" target="_top" xlink:title="ODP execution barriers. ">
<polygon fill="#ffffff" stroke="#000000" points="490,-280.5 490,-299.5 547,-299.5 547,-280.5 490,-280.5"/>
<text text-anchor="middle" x="518.5" y="-287.5" font-family="Helvetica,sans-Serif" font-size="10.00" fill="#000000">barrier.h</text>
</a>
</g>
</g>
<!-- Node9&#45;&gt;Node19 -->
<g id="edge16" class="edge">
<title>Node9&#45;&gt;Node19</title>
<path fill="none" stroke="#191970" d="M1077.7986,-345.1151C980.1324,-342.6323 747.446,-333.4067 555.5,-300 552.7467,-299.5208 549.9009,-298.9297 547.067,-298.2763"/>
<polygon fill="#191970" stroke="#191970" points="1077.8465,-348.6172 1087.9284,-345.3605 1078.0161,-341.6193 1077.8465,-348.6172"/>
</g>
<!-- Node20 -->
<g id="node16" class="node">
<title>Node20</title>
<g id="a_node16"><a xlink:href="buffer_8h.html" target="_top" xlink:title="ODP buffer descriptor. ">
<polygon fill="#ffffff" stroke="#000000" points="565,-280.5 565,-299.5 618,-299.5 618,-280.5 565,-280.5"/>
<text text-anchor="middle" x="591.5" y="-287.5" font-family="Helvetica,sans-Serif" font-size="10.00" fill="#000000">buffer.h</text>
</a>
</g>
</g>
<!-- Node9&#45;&gt;Node20 -->
<g id="edge17" class="edge">
<title>Node9&#45;&gt;Node20</title>
<path fill="none" stroke="#191970" d="M1077.6816,-343.9024C989.8758,-339.4648 794.6969,-327.2128 632.5,-300 627.8755,-299.2241 623.0008,-298.2112 618.29,-297.1282"/>
<polygon fill="#191970" stroke="#191970" points="1077.6872,-347.4069 1087.8479,-344.4053 1078.0331,-340.4154 1077.6872,-347.4069"/>
</g>
<!-- Node21 -->
<g id="node17" class="node">
<title>Node21</title>
<g id="a_node17"><a xlink:href="classification_8h.html" target="_top" xlink:title="ODP classification descriptor. ">
<polygon fill="#ffffff" stroke="#000000" points="758,-56.5 758,-75.5 847,-75.5 847,-56.5 758,-56.5"/>
<text text-anchor="middle" x="802.5" y="-63.5" font-family="Helvetica,sans-Serif" font-size="10.00" fill="#000000">classification.h</text>
</a>
</g>
</g>
<!-- Node9&#45;&gt;Node21 -->
<g id="edge18" class="edge">
<title>Node9&#45;&gt;Node21</title>
<path fill="none" stroke="#191970" d="M1077.7401,-343.9185C975.9398,-338.9741 737.2305,-325.0255 660.5,-300 643.8325,-294.5639 642.7261,-286.6386 626.5,-280 565.4428,-255.0197 523.0986,-295.9977 482.5,-244 441.5044,-191.4939 492.9137,-139.6916 553.5,-112 589.2342,-95.6673 696.4641,-79.716 757.9252,-71.5764"/>
<polygon fill="#191970" stroke="#191970" points="1077.5764,-347.4146 1087.7321,-344.3962 1077.9107,-340.4226 1077.5764,-347.4146"/>
</g>
<!-- Node24 -->
<g id="node19" class="node">
<title>Node24</title>
<g id="a_node19"><a xlink:href="crypto_8h.html" target="_top" xlink:title="ODP crypto. ">
<polygon fill="#ffffff" stroke="#000000" points="917.5,-168.5 917.5,-187.5 973.5,-187.5 973.5,-168.5 917.5,-168.5"/>
<text text-anchor="middle" x="945.5" y="-175.5" font-family="Helvetica,sans-Serif" font-size="10.00" fill="#000000">crypto.h</text>
</a>
</g>
</g>
<!-- Node9&#45;&gt;Node24 -->
<g id="edge20" class="edge">
<title>Node9&#45;&gt;Node24</title>
<path fill="none" stroke="#191970" d="M1104.9509,-329.1879C1096.9557,-321.1871 1088.4396,-310.9747 1083.5,-300 1069.5395,-268.9832 1095.7038,-250.5958 1074.5,-224 1061.7157,-207.9647 1007.5885,-192.6534 973.6391,-184.3712"/>
<polygon fill="#191970" stroke="#191970" points="1102.9372,-332.0986 1112.6207,-336.3976 1107.7317,-326.9983 1102.9372,-332.0986"/>
</g>
<!-- Node25 -->
<g id="node20" class="node">
<title>Node25</title>
<g id="a_node20"><a xlink:href="packet_8h.html" target="_top" xlink:title="ODP packet descriptor. ">
<polygon fill="#ffffff" stroke="#000000" points="751,-280.5 751,-299.5 810,-299.5 810,-280.5 751,-280.5"/>
<text text-anchor="middle" x="780.5" y="-287.5" font-family="Helvetica,sans-Serif" font-size="10.00" fill="#000000">packet.h</text>
</a>
</g>
</g>
<!-- Node9&#45;&gt;Node25 -->
<g id="edge22" class="edge">
<title>Node9&#45;&gt;Node25</title>
<path fill="none" stroke="#191970" d="M1077.7243,-339.8806C1018.5538,-331.8983 913.621,-316.9377 824.5,-300 819.8824,-299.1224 815.0124,-298.1069 810.2618,-297.0663"/>
<polygon fill="#191970" stroke="#191970" points="1077.4975,-343.3815 1087.874,-341.2419 1078.428,-336.4436 1077.4975,-343.3815"/>
</g>
<!-- Node40 -->
<g id="node24" class="node">
<title>Node40</title>
<g id="a_node24"><a xlink:href="spec_2packet__flags_8h.html" target="_top" xlink:title="ODP packet flags. ">
<polygon fill="#ffffff" stroke="#000000" points="507,-224.5 507,-243.5 594,-243.5 594,-224.5 507,-224.5"/>
<text text-anchor="middle" x="550.5" y="-231.5" font-family="Helvetica,sans-Serif" font-size="10.00" fill="#000000">packet_flags.h</text>
</a>
</g>
</g>
<!-- Node9&#45;&gt;Node40 -->
<g id="edge51" class="edge">
<title>Node9&#45;&gt;Node40</title>
<path fill="none" stroke="#191970" d="M1077.498,-342.2191C989.6026,-334.8412 803.626,-317.6927 741.5,-300 721.2288,-294.227 718.1634,-287.5894 698.5,-280 660.7214,-265.4188 616.2111,-252.0836 585.9409,-243.5688"/>
<polygon fill="#191970" stroke="#191970" points="1077.4598,-345.728 1087.7158,-343.0698 1078.0407,-338.7521 1077.4598,-345.728"/>
</g>
<!-- Node34 -->
<g id="node27" class="node">
<title>Node34</title>
<g id="a_node27"><a xlink:href="packet__io_8h.html" target="_top" xlink:title="ODP Packet IO. ">
<polygon fill="#ffffff" stroke="#000000" points="802,-168.5 802,-187.5 875,-187.5 875,-168.5 802,-168.5"/>
<text text-anchor="middle" x="838.5" y="-175.5" font-family="Helvetica,sans-Serif" font-size="10.00" fill="#000000">packet_io.h</text>
</a>
</g>
</g>
<!-- Node9&#45;&gt;Node34 -->
<g id="edge35" class="edge">
<title>Node9&#45;&gt;Node34</title>
<path fill="none" stroke="#191970" d="M1077.7007,-343.6453C1012.002,-339.365 897.1257,-328.0041 867.5,-300 835.3831,-269.6411 835.9664,-210.716 837.5845,-187.6185"/>
<polygon fill="#191970" stroke="#191970" points="1077.6042,-347.1459 1087.8021,-344.2729 1078.0384,-340.1594 1077.6042,-347.1459"/>
</g>
<!-- Node36 -->
<g id="node29" class="node">
<title>Node36</title>
<g id="a_node29"><a xlink:href="spec_2traffic__mngr_8h.html" target="_top" xlink:title="Copyright (c) 2015&#45;2018, Linaro Limited All rights reserved. ">
<polygon fill="#ffffff" stroke="#ff0000" points="562.5,-112.5 562.5,-131.5 646.5,-131.5 646.5,-112.5 562.5,-112.5"/>
<text text-anchor="middle" x="604.5" y="-119.5" font-family="Helvetica,sans-Serif" font-size="10.00" fill="#000000">traffic_mngr.h</text>
</a>
</g>
</g>
<!-- Node9&#45;&gt;Node36 -->
<g id="edge57" class="edge">
<title>Node9&#45;&gt;Node36</title>
<path fill="none" stroke="#191970" d="M1077.6767,-343.1676C982.2654,-337.0334 768.4534,-321.3345 698.5,-300 680.2449,-294.4325 678.4221,-286.5608 660.5,-280 590.8312,-254.496 543.9605,-301.8413 497.5,-244 476.3472,-217.6657 478.9215,-196.2096 497.5,-168 511.9024,-146.1313 539.1143,-134.6165 562.4905,-128.5764"/>
<polygon fill="#191970" stroke="#191970" points="1077.692,-346.6756 1087.8939,-343.817 1078.1361,-339.6897 1077.692,-346.6756"/>
</g>
<!-- Node32 -->
<g id="node30" class="node">
<title>Node32</title>
<g id="a_node30"><a xlink:href="queue_8h.html" target="_top" xlink:title="ODP queue. ">
<polygon fill="#ffffff" stroke="#000000" points="942.5,-280.5 942.5,-299.5 998.5,-299.5 998.5,-280.5 942.5,-280.5"/>
<text text-anchor="middle" x="970.5" y="-287.5" font-family="Helvetica,sans-Serif" font-size="10.00" fill="#000000">queue.h</text>
</a>
</g>
</g>
<!-- Node9&#45;&gt;Node32 -->
<g id="edge36" class="edge">
<title>Node9&#45;&gt;Node32</title>
<path fill="none" stroke="#191970" d="M1088.5386,-332.9231C1060.3866,-322.686 1021.8945,-308.6889 996.6281,-299.5011"/>
<polygon fill="#191970" stroke="#191970" points="1087.4324,-336.245 1098.0265,-336.3733 1089.8246,-329.6665 1087.4324,-336.245"/>
</g>
<!-- Node38 -->
<g id="node31" class="node">
<title>Node38</title>
<g id="a_node31"><a xlink:href="spec_2schedule_8h.html" target="_top" xlink:title="ODP schedule. ">
<polygon fill="#ffffff" stroke="#ff0000" points="997,-224.5 997,-243.5 1066,-243.5 1066,-224.5 997,-224.5"/>
<text text-anchor="middle" x="1031.5" y="-231.5" font-family="Helvetica,sans-Serif" font-size="10.00" fill="#000000">schedule.h</text>
</a>
</g>
</g>
<!-- Node9&#45;&gt;Node38 -->
<g id="edge53" class="edge">
<title>Node9&#45;&gt;Node38</title>
<path fill="none" stroke="#191970" d="M1091.0637,-331.9424C1076.7201,-324.3855 1060.9037,-313.7576 1050.5,-300 1037.6983,-283.0713 1033.5132,-257.7757 1032.1514,-243.9328"/>
<polygon fill="#191970" stroke="#191970" points="1089.6902,-335.1678 1100.2051,-336.4669 1092.7954,-328.8942 1089.6902,-335.1678"/>
</g>
<!-- Node42 -->
<g id="node32" class="node">
<title>Node42</title>
<g id="a_node32"><a xlink:href="spec_2chksum_8h.html" target="_top" xlink:title="ODP checksum functions. ">
<polygon fill="#ffffff" stroke="#000000" points="1092.5,-280.5 1092.5,-299.5 1156.5,-299.5 1156.5,-280.5 1092.5,-280.5"/>
<text text-anchor="middle" x="1124.5" y="-287.5" font-family="Helvetica,sans-Serif" font-size="10.00" fill="#000000">chksum.h</text>
</a>
</g>
</g>
<!-- Node9&#45;&gt;Node42 -->
<g id="edge40" class="edge">
<title>Node9&#45;&gt;Node42</title>
<path fill="none" stroke="#191970" d="M1124.5,-326.1575C1124.5,-317.155 1124.5,-306.9199 1124.5,-299.6427"/>
<polygon fill="#191970" stroke="#191970" points="1121.0001,-326.2455 1124.5,-336.2455 1128.0001,-326.2456 1121.0001,-326.2455"/>
</g>
<!-- Node44 -->
<g id="node34" class="node">
<title>Node44</title>
<g id="a_node34"><a xlink:href="spec_2cpu_8h.html" target="_top" xlink:title="ODP CPU API. ">
<polygon fill="#ffffff" stroke="#000000" points="1175,-280.5 1175,-299.5 1218,-299.5 1218,-280.5 1175,-280.5"/>
<text text-anchor="middle" x="1196.5" y="-287.5" font-family="Helvetica,sans-Serif" font-size="10.00" fill="#000000">cpu.h</text>
</a>
</g>
</g>
<!-- Node9&#45;&gt;Node44 -->
<g id="edge42" class="edge">
<title>Node9&#45;&gt;Node44</title>
<path fill="none" stroke="#191970" d="M1145.164,-329.928C1157.7489,-320.1397 1173.4092,-307.9595 1184.1023,-299.6427"/>
<polygon fill="#191970" stroke="#191970" points="1142.7862,-327.3434 1137.0414,-336.2455 1147.0838,-332.8688 1142.7862,-327.3434"/>
</g>
<!-- Node47 -->
<g id="node36" class="node">
<title>Node47</title>
<g id="a_node36"><a xlink:href="spec_2feature_8h.html" target="_top" xlink:title="ODP features. ">
<polygon fill="#ffffff" stroke="#000000" points="1275,-280.5 1275,-299.5 1336,-299.5 1336,-280.5 1275,-280.5"/>
<text text-anchor="middle" x="1305.5" y="-287.5" font-family="Helvetica,sans-Serif" font-size="10.00" fill="#000000">feature.h</text>
</a>
</g>
</g>
<!-- Node9&#45;&gt;Node47 -->
<g id="edge44" class="edge">
<title>Node9&#45;&gt;Node47</title>
<path fill="none" stroke="#191970" d="M1165.4722,-333.3235C1198.6661,-323.0536 1244.7058,-308.8093 1274.791,-299.5011"/>
<polygon fill="#191970" stroke="#191970" points="1164.1337,-330.0739 1155.615,-336.3733 1166.2027,-336.7611 1164.1337,-330.0739"/>
</g>
<!-- Node49 -->
<g id="node38" class="node">
<title>Node49</title>
<g id="a_node38"><a xlink:href="spec_2init_8h.html" target="_top" xlink:title="init.h">
<polygon fill="#ffffff" stroke="#000000" points="1285,-168.5 1285,-187.5 1326,-187.5 1326,-168.5 1285,-168.5"/>
<text text-anchor="middle" x="1305.5" y="-175.5" font-family="Helvetica,sans-Serif" font-size="10.00" fill="#000000">init.h</text>
</a>
</g>
</g>
<!-- Node9&#45;&gt;Node49 -->
<g id="edge50" class="edge">
<title>Node9&#45;&gt;Node49</title>
<path fill="none" stroke="#191970" d="M1167.5761,-332.8537C1187.0635,-325.413 1209.4852,-314.6221 1226.5,-300 1265.1578,-266.7785 1291.9957,-210.0251 1301.5979,-187.5604"/>
<polygon fill="#191970" stroke="#191970" points="1166.1916,-329.6329 1157.9904,-336.3404 1168.5845,-336.2112 1166.1916,-329.6329"/>
</g>
<!-- Node53 -->
<g id="node40" class="node">
<title>Node53</title>
<g id="a_node40"><a xlink:href="spec_2hash_8h.html" target="_top" xlink:title="ODP Hash functions. ">
<polygon fill="#ffffff" stroke="#000000" points="1354,-280.5 1354,-299.5 1403,-299.5 1403,-280.5 1354,-280.5"/>
<text text-anchor="middle" x="1378.5" y="-287.5" font-family="Helvetica,sans-Serif" font-size="10.00" fill="#000000">hash.h</text>
</a>
</g>
</g>
<!-- Node9&#45;&gt;Node53 -->
<g id="edge48" class="edge">
<title>Node9&#45;&gt;Node53</title>
<path fill="none" stroke="#191970" d="M1171.2814,-337.3437C1215.9879,-328.8063 1285.1641,-314.9038 1344.5,-300 1347.4837,-299.2506 1350.5989,-298.4124 1353.6804,-297.5488"/>
<polygon fill="#191970" stroke="#191970" points="1170.4677,-333.9355 1161.2958,-339.239 1171.7731,-340.8127 1170.4677,-333.9355"/>
</g>
<!-- Node55 -->
<g id="node42" class="node">
<title>Node55</title>
<g id="a_node42"><a xlink:href="spec_2pool_8h.html" target="_top" xlink:title="ODP pool. ">
<polygon fill="#ffffff" stroke="#ff0000" points="1421,-280.5 1421,-299.5 1468,-299.5 1468,-280.5 1421,-280.5"/>
<text text-anchor="middle" x="1444.5" y="-287.5" font-family="Helvetica,sans-Serif" font-size="10.00" fill="#000000">pool.h</text>
</a>
</g>
</g>
<!-- Node9&#45;&gt;Node55 -->
<g id="edge52" class="edge">
<title>Node9&#45;&gt;Node55</title>
<path fill="none" stroke="#191970" d="M1171.207,-340.4887C1228.3146,-333.2979 1327.7127,-319.3163 1411.5,-300 1414.5334,-299.3007 1417.696,-298.4729 1420.8103,-297.5976"/>
<polygon fill="#191970" stroke="#191970" points="1170.5407,-337.0445 1161.0492,-341.7521 1171.4048,-343.991 1170.5407,-337.0445"/>
</g>
<!-- Node58 -->
<g id="node43" class="node">
<title>Node58</title>
<g id="a_node43"><a xlink:href="spec_2stash_8h.html" target="_top" xlink:title="ODP stash. ">
<polygon fill="#ffffff" stroke="#ff0000" points="1486.5,-280.5 1486.5,-299.5 1538.5,-299.5 1538.5,-280.5 1486.5,-280.5"/>
<text text-anchor="middle" x="1512.5" y="-287.5" font-family="Helvetica,sans-Serif" font-size="10.00" fill="#000000">stash.h</text>
</a>
</g>
</g>
<!-- Node9&#45;&gt;Node58 -->
<g id="edge54" class="edge">
<title>Node9&#45;&gt;Node58</title>
<path fill="none" stroke="#191970" d="M1171.5048,-342.1166C1239.5072,-335.9929 1369.0656,-322.4259 1477.5,-300 1480.3467,-299.4112 1483.3005,-298.7112 1486.2309,-297.9589"/>
<polygon fill="#191970" stroke="#191970" points="1170.784,-338.6667 1161.132,-343.0357 1171.4019,-345.6393 1170.784,-338.6667"/>
</g>
<!-- Node60 -->
<g id="node44" class="node">
<title>Node60</title>
<g id="a_node44"><a xlink:href="spec_2threshold_8h.html" target="_top" xlink:title="ODP threshold descriptor. ">
<polygon fill="#ffffff" stroke="#ff0000" points="1557,-280.5 1557,-299.5 1628,-299.5 1628,-280.5 1557,-280.5"/>
<text text-anchor="middle" x="1592.5" y="-287.5" font-family="Helvetica,sans-Serif" font-size="10.00" fill="#000000">threshold.h</text>
</a>
</g>
</g>
<!-- Node9&#45;&gt;Node60 -->
<g id="edge55" class="edge">
<title>Node9&#45;&gt;Node60</title>
<path fill="none" stroke="#191970" d="M1171.1948,-342.6165C1249.3985,-336.5715 1411.6549,-322.41 1547.5,-300 1550.5006,-299.505 1553.6019,-298.9366 1556.708,-298.3275"/>
<polygon fill="#191970" stroke="#191970" points="1170.8839,-339.13 1161.1796,-343.3817 1171.4172,-346.1096 1170.8839,-339.13"/>
</g>
<!-- Node62 -->
<g id="node45" class="node">
<title>Node62</title>
<g id="a_node45"><a xlink:href="spec_2thrmask_8h.html" target="_top" xlink:title="ODP thread masks. ">
<polygon fill="#ffffff" stroke="#ff0000" points="1646.5,-280.5 1646.5,-299.5 1712.5,-299.5 1712.5,-280.5 1646.5,-280.5"/>
<text text-anchor="middle" x="1679.5" y="-287.5" font-family="Helvetica,sans-Serif" font-size="10.00" fill="#000000">thrmask.h</text>
</a>
</g>
</g>
<!-- Node9&#45;&gt;Node62 -->
<g id="edge56" class="edge">
<title>Node9&#45;&gt;Node62</title>
<path fill="none" stroke="#191970" d="M1171.3199,-344.0651C1261.8669,-339.824 1467.0759,-327.7804 1637.5,-300 1640.3112,-299.5418 1643.2132,-298.9992 1646.1172,-298.4075"/>
<polygon fill="#191970" stroke="#191970" points="1170.9424,-340.5786 1161.1131,-344.5326 1171.2628,-347.5713 1170.9424,-340.5786"/>
</g>
<!-- Node64 -->
<g id="node46" class="node">
<title>Node64</title>
<g id="a_node46"><a xlink:href="system__info_8h.html" target="_top" xlink:title="ODP system information. ">
<polygon fill="#ffffff" stroke="#000000" points="1730.5,-280.5 1730.5,-299.5 1816.5,-299.5 1816.5,-280.5 1730.5,-280.5"/>
<text text-anchor="middle" x="1773.5" y="-287.5" font-family="Helvetica,sans-Serif" font-size="10.00" fill="#000000">system_info.h</text>
</a>
</g>
</g>
<!-- Node9&#45;&gt;Node64 -->
<g id="edge58" class="edge">
<title>Node9&#45;&gt;Node64</title>
<path fill="none" stroke="#191970" d="M1171.5134,-344.1872C1272.5509,-339.8948 1517.7587,-327.3506 1721.5,-300 1724.4157,-299.6086 1727.4149,-299.1588 1730.4313,-298.6713"/>
<polygon fill="#191970" stroke="#191970" points="1171.1815,-340.6979 1161.3363,-344.6122 1171.4737,-347.6918 1171.1815,-340.6979"/>
</g>
<!-- Node65 -->
<g id="node47" class="node">
<title>Node65</title>
<g id="a_node47"><a xlink:href="time_8h.html" target="_top" xlink:title="ODP time. ">
<polygon fill="#ffffff" stroke="#ff0000" points="876.5,-280.5 876.5,-299.5 924.5,-299.5 924.5,-280.5 876.5,-280.5"/>
<text text-anchor="middle" x="900.5" y="-287.5" font-family="Helvetica,sans-Serif" font-size="10.00" fill="#000000">time.h</text>
</a>
</g>
</g>
<!-- Node9&#45;&gt;Node65 -->
<g id="edge59" class="edge">
<title>Node9&#45;&gt;Node65</title>
<path fill="none" stroke="#191970" d="M1077.7682,-335.5409C1038.9802,-326.6694 982.4477,-313.2986 933.5,-300 930.6115,-299.2152 927.5925,-298.3555 924.6041,-297.4801"/>
<polygon fill="#191970" stroke="#191970" points="1077.1959,-339.0002 1087.7235,-337.8082 1078.7504,-332.1749 1077.1959,-339.0002"/>
</g>
<!-- Node67 -->
<g id="node48" class="node">
<title>Node67</title>
<g id="a_node48"><a xlink:href="timer_8h.html" target="_top" xlink:title="ODP timer service. ">
<polygon fill="#ffffff" stroke="#000000" points="1835,-280.5 1835,-299.5 1886,-299.5 1886,-280.5 1835,-280.5"/>
<text text-anchor="middle" x="1860.5" y="-287.5" font-family="Helvetica,sans-Serif" font-size="10.00" fill="#000000">timer.h</text>
</a>
</g>
</g>
<!-- Node9&#45;&gt;Node67 -->
<g id="edge61" class="edge">
<title>Node9&#45;&gt;Node67</title>
<path fill="none" stroke="#191970" d="M1171.5167,-344.2209C1307.4317,-338.8707 1699.163,-321.9355 1825.5,-300 1828.4887,-299.4811 1831.587,-298.8052 1834.6489,-298.0495"/>
<polygon fill="#191970" stroke="#191970" points="1171.2798,-340.7274 1161.4241,-344.6153 1171.5532,-347.722 1171.2798,-340.7274"/>
</g>
<!-- Node68 -->
<g id="node49" class="node">
<title>Node68</title>
<g id="a_node49"><a xlink:href="strong__types_8h.html" target="_top" xlink:title="ODP Strong Types. ">
<polygon fill="#ffffff" stroke="#000000" points="1904,-280.5 1904,-299.5 1993,-299.5 1993,-280.5 1904,-280.5"/>
<text text-anchor="middle" x="1948.5" y="-287.5" font-family="Helvetica,sans-Serif" font-size="10.00" fill="#000000">strong_types.h</text>
</a>
</g>
</g>
<!-- Node9&#45;&gt;Node68 -->
<g id="edge62" class="edge">
<title>Node9&#45;&gt;Node68</title>
<path fill="none" stroke="#191970" d="M1171.5167,-345.2694C1292.201,-342.9451 1622.6079,-333.747 1895.5,-300 1898.195,-299.6667 1900.9595,-299.2806 1903.7432,-298.858"/>
<polygon fill="#191970" stroke="#191970" points="1171.1033,-341.7764 1161.17,-345.4615 1171.2333,-348.7752 1171.1033,-341.7764"/>
</g>
<!-- Node22 -->
<g id="node18" class="node">
<title>Node22</title>
<g id="a_node18"><a xlink:href="spec_2ipsec_8h.html" target="_top" xlink:title="ODP IPSEC API. ">
<polygon fill="#ffffff" stroke="#ff0000" points="850,-.5 850,-19.5 901,-19.5 901,-.5 850,-.5"/>
<text text-anchor="middle" x="875.5" y="-7.5" font-family="Helvetica,sans-Serif" font-size="10.00" fill="#000000">ipsec.h</text>
</a>
</g>
</g>
<!-- Node21&#45;&gt;Node22 -->
<g id="edge19" class="edge">
<title>Node21&#45;&gt;Node22</title>
<path fill="none" stroke="#191970" d="M823.451,-49.928C836.2107,-40.1397 852.0885,-27.9595 862.9301,-19.6427"/>
<polygon fill="#191970" stroke="#191970" points="821.0196,-47.3819 815.2156,-56.2455 825.2803,-52.9359 821.0196,-47.3819"/>
</g>
<!-- Node24&#45;&gt;Node22 -->
<g id="edge21" class="edge">
<title>Node24&#45;&gt;Node22</title>
<path fill="none" stroke="#191970" d="M937.662,-159.1887C922.7818,-123.4762 890.9162,-46.9988 879.595,-19.8279"/>
<polygon fill="#191970" stroke="#191970" points="934.4589,-160.6016 941.5359,-168.4862 940.9205,-157.9093 934.4589,-160.6016"/>
</g>
<!-- Node26 -->
<g id="node21" class="node">
<title>Node26</title>
<g id="a_node21"><a xlink:href="spec_2comp_8h.html" target="_top" xlink:title="ODP Compression. ">
<polygon fill="#ffffff" stroke="#ff0000" points="612,-224.5 612,-243.5 665,-243.5 665,-224.5 612,-224.5"/>
<text text-anchor="middle" x="638.5" y="-231.5" font-family="Helvetica,sans-Serif" font-size="10.00" fill="#000000">comp.h</text>
</a>
</g>
</g>
<!-- Node25&#45;&gt;Node26 -->
<g id="edge23" class="edge">
<title>Node25&#45;&gt;Node26</title>
<path fill="none" stroke="#191970" d="M746.6585,-276.6541C720.7634,-266.4419 685.6862,-252.6086 662.5921,-243.5011"/>
<polygon fill="#191970" stroke="#191970" points="745.5025,-279.9605 756.0893,-280.3733 748.0707,-273.4486 745.5025,-279.9605"/>
</g>
<!-- Node28 -->
<g id="node22" class="node">
<title>Node28</title>
<g id="a_node22"><a xlink:href="spec_2crypto_8h.html" target="_top" xlink:title="ODP crypto. ">
<polygon fill="#ffffff" stroke="#000000" points="754.5,-224.5 754.5,-243.5 810.5,-243.5 810.5,-224.5 754.5,-224.5"/>
<text text-anchor="middle" x="782.5" y="-231.5" font-family="Helvetica,sans-Serif" font-size="10.00" fill="#000000">crypto.h</text>
</a>
</g>
</g>
<!-- Node25&#45;&gt;Node28 -->
<g id="edge24" class="edge">
<title>Node25&#45;&gt;Node28</title>
<path fill="none" stroke="#191970" d="M781.2087,-270.1575C781.5302,-261.155 781.8957,-250.9199 782.1556,-243.6427"/>
<polygon fill="#191970" stroke="#191970" points="777.7076,-270.127 780.8484,-280.2455 784.7032,-270.3769 777.7076,-270.127"/>
</g>
<!-- Node29 -->
<g id="node23" class="node">
<title>Node29</title>
<g id="a_node23"><a xlink:href="spec_2event_8h.html" target="_top" xlink:title="ODP event. ">
<polygon fill="#ffffff" stroke="#ff0000" points="683,-224.5 683,-243.5 736,-243.5 736,-224.5 683,-224.5"/>
<text text-anchor="middle" x="709.5" y="-231.5" font-family="Helvetica,sans-Serif" font-size="10.00" fill="#000000">event.h</text>
</a>
</g>
</g>
<!-- Node25&#45;&gt;Node29 -->
<g id="edge26" class="edge">
<title>Node25&#45;&gt;Node29</title>
<path fill="none" stroke="#191970" d="M760.123,-273.928C747.7129,-264.1397 732.27,-251.9595 721.7255,-243.6427"/>
<polygon fill="#191970" stroke="#191970" points="758.1136,-276.8007 768.1327,-280.2455 762.4486,-271.3046 758.1136,-276.8007"/>
</g>
<!-- Node25&#45;&gt;Node40 -->
<g id="edge27" class="edge">
<title>Node25&#45;&gt;Node40</title>
<path fill="none" stroke="#191970" d="M740.9499,-280.3704C698.5875,-270.0561 631.7752,-253.7888 589.5906,-243.5177"/>
<polygon fill="#191970" stroke="#191970" points="740.3582,-283.8285 750.9024,-282.7936 742.0142,-277.0272 740.3582,-283.8285"/>
</g>
<!-- Node33 -->
<g id="node26" class="node">
<title>Node33</title>
<g id="a_node26"><a xlink:href="spec_2packet__io_8h.html" target="_top" xlink:title="ODP Packet IO. ">
<polygon fill="#ffffff" stroke="#000000" points="867,-224.5 867,-243.5 940,-243.5 940,-224.5 867,-224.5"/>
<text text-anchor="middle" x="903.5" y="-231.5" font-family="Helvetica,sans-Serif" font-size="10.00" fill="#000000">packet_io.h</text>
</a>
</g>
</g>
<!-- Node25&#45;&gt;Node33 -->
<g id="edge29" class="edge">
<title>Node25&#45;&gt;Node33</title>
<path fill="none" stroke="#191970" d="M811.0065,-276.1109C833.3112,-265.9559 862.9799,-252.4482 882.6315,-243.5011"/>
<polygon fill="#191970" stroke="#191970" points="809.2953,-273.0442 801.6445,-280.3733 812.1959,-279.415 809.2953,-273.0442"/>
</g>
<!-- Node28&#45;&gt;Node24 -->
<g id="edge25" class="edge">
<title>Node28&#45;&gt;Node24</title>
<path fill="none" stroke="#191970" d="M820.1733,-221.057C850.0042,-210.8084 890.9852,-196.729 917.8449,-187.5011"/>
<polygon fill="#191970" stroke="#191970" points="818.8409,-217.8139 810.5207,-224.3733 821.1154,-224.4341 818.8409,-217.8139"/>
</g>
<!-- Node41 -->
<g id="node25" class="node">
<title>Node41</title>
<g id="a_node25"><a xlink:href="packet__flags_8h.html" target="_top" xlink:title="ODP packet flags. ">
<polygon fill="#ffffff" stroke="#000000" points="507,-168.5 507,-187.5 594,-187.5 594,-168.5 507,-168.5"/>
<text text-anchor="middle" x="550.5" y="-175.5" font-family="Helvetica,sans-Serif" font-size="10.00" fill="#000000">packet_flags.h</text>
</a>
</g>
</g>
<!-- Node40&#45;&gt;Node41 -->
<g id="edge28" class="edge">
<title>Node40&#45;&gt;Node41</title>
<path fill="none" stroke="#191970" d="M550.5,-214.1575C550.5,-205.155 550.5,-194.9199 550.5,-187.6427"/>
<polygon fill="#191970" stroke="#191970" points="547.0001,-214.2455 550.5,-224.2455 554.0001,-214.2456 547.0001,-214.2455"/>
</g>
<!-- Node33&#45;&gt;Node34 -->
<g id="edge30" class="edge">
<title>Node33&#45;&gt;Node34</title>
<path fill="none" stroke="#191970" d="M884.5165,-217.645C873.2121,-207.9058 859.253,-195.8795 849.6924,-187.6427"/>
<polygon fill="#191970" stroke="#191970" points="882.3173,-220.3701 892.1779,-224.2455 886.8862,-215.0668 882.3173,-220.3701"/>
</g>
<!-- Node34&#45;&gt;Node22 -->
<g id="edge33" class="edge">
<title>Node34&#45;&gt;Node22</title>
<path fill="none" stroke="#191970" d="M846.4745,-158.946C849.6529,-150.7658 853.115,-141.0291 855.5,-132 866.3531,-90.9119 872.3819,-40.4009 874.5566,-19.6221"/>
<polygon fill="#191970" stroke="#191970" points="843.1945,-157.7214 842.7027,-168.3049 849.6871,-160.3381 843.1945,-157.7214"/>
</g>
<!-- Node35 -->
<g id="node28" class="node">
<title>Node35</title>
<g id="a_node28"><a xlink:href="spec_2classification_8h.html" target="_top" xlink:title="ODP classification descriptor. ">
<polygon fill="#ffffff" stroke="#000000" points="758,-112.5 758,-131.5 847,-131.5 847,-112.5 758,-112.5"/>
<text text-anchor="middle" x="802.5" y="-119.5" font-family="Helvetica,sans-Serif" font-size="10.00" fill="#000000">classification.h</text>
</a>
</g>
</g>
<!-- Node34&#45;&gt;Node35 -->
<g id="edge31" class="edge">
<title>Node34&#45;&gt;Node35</title>
<path fill="none" stroke="#191970" d="M826.6904,-159.6296C820.6856,-150.2887 813.6341,-139.3197 808.6989,-131.6427"/>
<polygon fill="#191970" stroke="#191970" points="823.8775,-161.7264 832.2293,-168.2455 829.7658,-157.9411 823.8775,-161.7264"/>
</g>
<!-- Node34&#45;&gt;Node36 -->
<g id="edge34" class="edge">
<title>Node34&#45;&gt;Node36</title>
<path fill="none" stroke="#191970" d="M791.9691,-166.8644C748.7935,-156.5318 685.2129,-141.3159 644.3275,-131.5314"/>
<polygon fill="#191970" stroke="#191970" points="791.3975,-170.3264 801.9375,-169.25 793.0267,-163.5186 791.3975,-170.3264"/>
</g>
<!-- Node35&#45;&gt;Node21 -->
<g id="edge32" class="edge">
<title>Node35&#45;&gt;Node21</title>
<path fill="none" stroke="#191970" d="M802.5,-102.1575C802.5,-93.155 802.5,-82.9199 802.5,-75.6427"/>
<polygon fill="#191970" stroke="#191970" points="799.0001,-102.2455 802.5,-112.2455 806.0001,-102.2456 799.0001,-102.2455"/>
</g>
<!-- Node32&#45;&gt;Node24 -->
<g id="edge37" class="edge">
<title>Node32&#45;&gt;Node24</title>
<path fill="none" stroke="#191970" d="M966.1694,-270.5987C960.7596,-246.363 951.7176,-205.8551 947.6261,-187.5249"/>
<polygon fill="#191970" stroke="#191970" points="962.774,-271.4536 968.3685,-280.4509 969.6058,-269.9286 962.774,-271.4536"/>
</g>
<!-- Node32&#45;&gt;Node33 -->
<g id="edge38" class="edge">
<title>Node32&#45;&gt;Node33</title>
<path fill="none" stroke="#191970" d="M950.9324,-273.645C939.2802,-263.9058 924.8916,-251.8795 915.0368,-243.6427"/>
<polygon fill="#191970" stroke="#191970" points="948.9121,-276.5179 958.8295,-280.2455 953.4012,-271.1469 948.9121,-276.5179"/>
</g>
<!-- Node32&#45;&gt;Node38 -->
<g id="edge39" class="edge">
<title>Node32&#45;&gt;Node38</title>
<path fill="none" stroke="#191970" d="M988.6249,-273.3607C999.178,-263.6727 1012.1112,-251.7995 1020.9964,-243.6427"/>
<polygon fill="#191970" stroke="#191970" points="986.125,-270.9045 981.1254,-280.2455 990.8589,-276.0611 986.125,-270.9045"/>
</g>
<!-- Node43 -->
<g id="node33" class="node">
<title>Node43</title>
<g id="a_node33"><a xlink:href="chksum_8h.html" target="_top" xlink:title="ODP checksum functions. ">
<polygon fill="#ffffff" stroke="#000000" points="1122.5,-224.5 1122.5,-243.5 1186.5,-243.5 1186.5,-224.5 1122.5,-224.5"/>
<text text-anchor="middle" x="1154.5" y="-231.5" font-family="Helvetica,sans-Serif" font-size="10.00" fill="#000000">chksum.h</text>
</a>
</g>
</g>
<!-- Node42&#45;&gt;Node43 -->
<g id="edge41" class="edge">
<title>Node42&#45;&gt;Node43</title>
<path fill="none" stroke="#191970" d="M1134.498,-271.3372C1139.4676,-262.0605 1145.2644,-251.2398 1149.3343,-243.6427"/>
<polygon fill="#191970" stroke="#191970" points="1131.3627,-269.7779 1129.7256,-280.2455 1137.5331,-273.0835 1131.3627,-269.7779"/>
</g>
<!-- Node45 -->
<g id="node35" class="node">
<title>Node45</title>
<g id="a_node35"><a xlink:href="cpu_8h.html" target="_top" xlink:title="ODP CPU. ">
<polygon fill="#ffffff" stroke="#ff0000" points="1205,-224.5 1205,-243.5 1248,-243.5 1248,-224.5 1205,-224.5"/>
<text text-anchor="middle" x="1226.5" y="-231.5" font-family="Helvetica,sans-Serif" font-size="10.00" fill="#000000">cpu.h</text>
</a>
</g>
</g>
<!-- Node44&#45;&gt;Node45 -->
<g id="edge43" class="edge">
<title>Node44&#45;&gt;Node45</title>
<path fill="none" stroke="#191970" d="M1206.498,-271.3372C1211.4676,-262.0605 1217.2644,-251.2398 1221.3343,-243.6427"/>
<polygon fill="#191970" stroke="#191970" points="1203.3627,-269.7779 1201.7256,-280.2455 1209.5331,-273.0835 1203.3627,-269.7779"/>
</g>
<!-- Node48 -->
<g id="node37" class="node">
<title>Node48</title>
<g id="a_node37"><a xlink:href="feature_8h.html" target="_top" xlink:title="ODP features. ">
<polygon fill="#ffffff" stroke="#000000" points="1305,-224.5 1305,-243.5 1366,-243.5 1366,-224.5 1305,-224.5"/>
<text text-anchor="middle" x="1335.5" y="-231.5" font-family="Helvetica,sans-Serif" font-size="10.00" fill="#000000">feature.h</text>
</a>
</g>
</g>
<!-- Node47&#45;&gt;Node48 -->
<g id="edge45" class="edge">
<title>Node47&#45;&gt;Node48</title>
<path fill="none" stroke="#191970" d="M1315.498,-271.3372C1320.4676,-262.0605 1326.2644,-251.2398 1330.3343,-243.6427"/>
<polygon fill="#191970" stroke="#191970" points="1312.3627,-269.7779 1310.7256,-280.2455 1318.5331,-273.0835 1312.3627,-269.7779"/>
</g>
<!-- Node48&#45;&gt;Node49 -->
<g id="edge46" class="edge">
<title>Node48&#45;&gt;Node49</title>
<path fill="none" stroke="#191970" d="M1325.502,-215.3372C1320.5324,-206.0605 1314.7356,-195.2398 1310.6657,-187.6427"/>
<polygon fill="#191970" stroke="#191970" points="1322.4669,-217.0835 1330.2744,-224.2455 1328.6373,-213.7779 1322.4669,-217.0835"/>
</g>
<!-- Node50 -->
<g id="node39" class="node">
<title>Node50</title>
<g id="a_node39"><a xlink:href="init_8h.html" target="_top" xlink:title="ODP initialization. ">
<polygon fill="#ffffff" stroke="#ff0000" points="1285,-112.5 1285,-131.5 1326,-131.5 1326,-112.5 1285,-112.5"/>
<text text-anchor="middle" x="1305.5" y="-119.5" font-family="Helvetica,sans-Serif" font-size="10.00" fill="#000000">init.h</text>
</a>
</g>
</g>
<!-- Node49&#45;&gt;Node50 -->
<g id="edge47" class="edge">
<title>Node49&#45;&gt;Node50</title>
<path fill="none" stroke="#191970" d="M1305.5,-158.1575C1305.5,-149.155 1305.5,-138.9199 1305.5,-131.6427"/>
<polygon fill="#191970" stroke="#191970" points="1302.0001,-158.2455 1305.5,-168.2455 1309.0001,-158.2456 1302.0001,-158.2455"/>
</g>
<!-- Node54 -->
<g id="node41" class="node">
<title>Node54</title>
<g id="a_node41"><a xlink:href="hash_8h.html" target="_top" xlink:title="ODP Hash function. ">
<polygon fill="#ffffff" stroke="#000000" points="1384,-224.5 1384,-243.5 1433,-243.5 1433,-224.5 1384,-224.5"/>
<text text-anchor="middle" x="1408.5" y="-231.5" font-family="Helvetica,sans-Serif" font-size="10.00" fill="#000000">hash.h</text>
</a>
</g>
</g>
<!-- Node53&#45;&gt;Node54 -->
<g id="edge49" class="edge">
<title>Node53&#45;&gt;Node54</title>
<path fill="none" stroke="#191970" d="M1388.498,-271.3372C1393.4676,-262.0605 1399.2644,-251.2398 1403.3343,-243.6427"/>
<polygon fill="#191970" stroke="#191970" points="1385.3627,-269.7779 1383.7256,-280.2455 1391.5331,-273.0835 1385.3627,-269.7779"/>
</g>
<!-- Node65&#45;&gt;Node33 -->
<g id="edge60" class="edge">
<title>Node65&#45;&gt;Node33</title>
<path fill="none" stroke="#191970" d="M901.563,-270.1575C902.0453,-261.155 902.5936,-250.9199 902.9834,-243.6427"/>
<polygon fill="#191970" stroke="#191970" points="898.0626,-270.0726 901.0226,-280.2455 905.0526,-270.4471 898.0626,-270.0726"/>
</g>
</g>
</svg>
