<?xml version="1.0" encoding="UTF-8" standalone="no"?>
<!DOCTYPE svg PUBLIC "-//W3C//DTD SVG 1.1//EN"
 "http://www.w3.org/Graphics/SVG/1.1/DTD/svg11.dtd">
<!-- Generated by graphviz version 2.40.1 (20161225.0304)
 -->
<!-- Title: comp.h Pages: 1 -->
<svg width="1114pt" height="532pt"
 viewBox="0.00 0.00 1113.50 532.00" xmlns="http://www.w3.org/2000/svg" xmlns:xlink="http://www.w3.org/1999/xlink">
<g id="graph0" class="graph" transform="scale(1 1) rotate(0) translate(4 528)">
<title>comp.h</title>
<polygon fill="#ffffff" stroke="transparent" points="-4,4 -4,-528 1109.5,-528 1109.5,4 -4,4"/>
<!-- Node0 -->
<g id="node1" class="node">
<title>Node0</title>
<polygon fill="#bfbfbf" stroke="#000000" points="256.5,-504.5 256.5,-523.5 309.5,-523.5 309.5,-504.5 256.5,-504.5"/>
<text text-anchor="middle" x="283" y="-511.5" font-family="Helvetica,sans-Serif" font-size="10.00" fill="#000000">comp.h</text>
</g>
<!-- Node1 -->
<g id="node2" class="node">
<title>Node1</title>
<polygon fill="#ffffff" stroke="#bfbfbf" points="0,-448.5 0,-467.5 110,-467.5 110,-448.5 0,-448.5"/>
<text text-anchor="middle" x="55" y="-455.5" font-family="Helvetica,sans-Serif" font-size="10.00" fill="#000000">odp/api/abi/comp.h</text>
</g>
<!-- Node0&#45;&gt;Node1 -->
<g id="edge1" class="edge">
<title>Node0&#45;&gt;Node1</title>
<path fill="none" stroke="#191970" d="M256.3993,-507.4665C219.0808,-498.3005 150.534,-481.4645 103.8802,-470.0057"/>
<polygon fill="#191970" stroke="#191970" points="104.5313,-466.5616 93.9851,-467.5753 102.8616,-473.3596 104.5313,-466.5616"/>
</g>
<!-- Node2 -->
<g id="node3" class="node">
<title>Node2</title>
<polygon fill="#ffffff" stroke="#bfbfbf" points="38,-336.5 38,-355.5 148,-355.5 148,-336.5 38,-336.5"/>
<text text-anchor="middle" x="93" y="-343.5" font-family="Helvetica,sans-Serif" font-size="10.00" fill="#000000">odp/api/abi/event.h</text>
</g>
<!-- Node0&#45;&gt;Node2 -->
<g id="edge2" class="edge">
<title>Node0&#45;&gt;Node2</title>
<path fill="none" stroke="#191970" d="M271.1102,-504.3938C249.1814,-486.5856 201.042,-447.0655 162,-412 143.8553,-395.7034 123.7765,-376.3393 109.9796,-362.8161"/>
<polygon fill="#191970" stroke="#191970" points="112.2264,-360.1166 102.6443,-355.5962 107.316,-365.1054 112.2264,-360.1166"/>
</g>
<!-- Node3 -->
<g id="node4" class="node">
<title>Node3</title>
<polygon fill="#ffffff" stroke="#bfbfbf" points="992.5,-336.5 992.5,-355.5 1105.5,-355.5 1105.5,-336.5 992.5,-336.5"/>
<text text-anchor="middle" x="1049" y="-343.5" font-family="Helvetica,sans-Serif" font-size="10.00" fill="#000000">odp/api/abi/queue.h</text>
</g>
<!-- Node0&#45;&gt;Node3 -->
<g id="edge3" class="edge">
<title>Node0&#45;&gt;Node3</title>
<path fill="none" stroke="#191970" d="M309.6827,-512.2055C421.9554,-504.3345 855.8144,-470.6191 978,-412 1001.5571,-400.6984 1022.6541,-378.8312 1035.6111,-363.3698"/>
<polygon fill="#191970" stroke="#191970" points="1038.3704,-365.5238 1041.9359,-355.5469 1032.927,-361.1227 1038.3704,-365.5238"/>
</g>
<!-- Node4 -->
<g id="node5" class="node">
<title>Node4</title>
<g id="a_node5"><a xlink:href="spec_2comp_8h.html" target="_top" xlink:title="ODP Compression. ">
<polygon fill="#ffffff" stroke="#000000" points="442.5,-448.5 442.5,-467.5 559.5,-467.5 559.5,-448.5 442.5,-448.5"/>
<text text-anchor="middle" x="501" y="-455.5" font-family="Helvetica,sans-Serif" font-size="10.00" fill="#000000">odp/api/spec/comp.h</text>
</a>
</g>
</g>
<!-- Node0&#45;&gt;Node4 -->
<g id="edge4" class="edge">
<title>Node0&#45;&gt;Node4</title>
<path fill="none" stroke="#191970" d="M309.7311,-507.1333C345.5941,-497.9208 409.8641,-481.4111 453.9278,-470.0919"/>
<polygon fill="#191970" stroke="#191970" points="455.0193,-473.4253 463.834,-467.5472 453.2776,-466.6454 455.0193,-473.4253"/>
</g>
<!-- Node5 -->
<g id="node6" class="node">
<title>Node5</title>
<polygon fill="#ffffff" stroke="#bfbfbf" points="700.5,-.5 700.5,-19.5 821.5,-19.5 821.5,-.5 700.5,-.5"/>
<text text-anchor="middle" x="761" y="-7.5" font-family="Helvetica,sans-Serif" font-size="10.00" fill="#000000">odp/visibility_begin.h</text>
</g>
<!-- Node4&#45;&gt;Node5 -->
<g id="edge5" class="edge">
<title>Node4&#45;&gt;Node5</title>
<path fill="none" stroke="#191970" d="M559.6393,-456.0534C684.2261,-450.3208 964,-428.2868 964,-346 964,-346 964,-346 964,-122 964,-91.4754 966.962,-77.1996 945,-56 928.6464,-40.214 876.4178,-28.0761 831.7646,-20.2426"/>
<polygon fill="#191970" stroke="#191970" points="832.2282,-16.7712 821.782,-18.5394 831.0509,-23.6715 832.2282,-16.7712"/>
</g>
<!-- Node6 -->
<g id="node7" class="node">
<title>Node6</title>
<g id="a_node7"><a xlink:href="support_8h.html" target="_top" xlink:title="ODP support API &#45; platform specific header. ">
<polygon fill="#ffffff" stroke="#000000" points="665.5,-392.5 665.5,-411.5 766.5,-411.5 766.5,-392.5 665.5,-392.5"/>
<text text-anchor="middle" x="716" y="-399.5" font-family="Helvetica,sans-Serif" font-size="10.00" fill="#000000">odp/api/support.h</text>
</a>
</g>
</g>
<!-- Node4&#45;&gt;Node6 -->
<g id="edge6" class="edge">
<title>Node4&#45;&gt;Node6</title>
<path fill="none" stroke="#191970" d="M537.9598,-448.3733C574.4075,-438.8799 630.2246,-424.3415 669.6289,-414.0781"/>
<polygon fill="#191970" stroke="#191970" points="670.7276,-417.4087 679.5225,-411.5011 668.9631,-410.6348 670.7276,-417.4087"/>
</g>
<!-- Node8 -->
<g id="node9" class="node">
<title>Node8</title>
<polygon fill="#ffffff" stroke="#bfbfbf" points="364,-.5 364,-19.5 476,-19.5 476,-.5 364,-.5"/>
<text text-anchor="middle" x="420" y="-7.5" font-family="Helvetica,sans-Serif" font-size="10.00" fill="#000000">odp/visibility_end.h</text>
</g>
<!-- Node4&#45;&gt;Node8 -->
<g id="edge37" class="edge">
<title>Node4&#45;&gt;Node8</title>
<path fill="none" stroke="#191970" d="M442.145,-450.0229C348.4889,-435.6594 176,-401.6517 176,-346 176,-346 176,-346 176,-122 176,-79.5978 299.2474,-40.8946 370.5552,-22.0504"/>
<polygon fill="#191970" stroke="#191970" points="371.4588,-25.4319 380.2541,-19.5249 369.6948,-18.6578 371.4588,-25.4319"/>
</g>
<!-- Node9 -->
<g id="node10" class="node">
<title>Node9</title>
<g id="a_node10"><a xlink:href="packet_8h.html" target="_top" xlink:title="ODP packet descriptor. ">
<polygon fill="#ffffff" stroke="#000000" points="452,-392.5 452,-411.5 550,-411.5 550,-392.5 452,-392.5"/>
<text text-anchor="middle" x="501" y="-399.5" font-family="Helvetica,sans-Serif" font-size="10.00" fill="#000000">odp/api/packet.h</text>
</a>
</g>
</g>
<!-- Node4&#45;&gt;Node9 -->
<g id="edge10" class="edge">
<title>Node4&#45;&gt;Node9</title>
<path fill="none" stroke="#191970" d="M501,-448.2455C501,-440.9382 501,-430.6944 501,-421.7046"/>
<polygon fill="#191970" stroke="#191970" points="504.5001,-421.6426 501,-411.6427 497.5001,-421.6427 504.5001,-421.6426"/>
</g>
<!-- Node7 -->
<g id="node8" class="node">
<title>Node7</title>
<g id="a_node8"><a xlink:href="spec_2support_8h.html" target="_top" xlink:title="ODP support API. ">
<polygon fill="#ffffff" stroke="#000000" points="808.5,-56.5 808.5,-75.5 935.5,-75.5 935.5,-56.5 808.5,-56.5"/>
<text text-anchor="middle" x="872" y="-63.5" font-family="Helvetica,sans-Serif" font-size="10.00" fill="#000000">odp/api/spec/support.h</text>
</a>
</g>
</g>
<!-- Node6&#45;&gt;Node7 -->
<g id="edge7" class="edge">
<title>Node6&#45;&gt;Node7</title>
<path fill="none" stroke="#191970" d="M766.7304,-395.6076C816.2944,-388.3659 887.1015,-375.0424 907,-356 929.0534,-334.8955 926,-320.5246 926,-290 926,-290 926,-290 926,-178 926,-141.7347 902.7441,-104.8332 886.7557,-83.7487"/>
<polygon fill="#191970" stroke="#191970" points="889.3753,-81.418 880.4375,-75.7289 883.8767,-85.75 889.3753,-81.418"/>
</g>
<!-- Node7&#45;&gt;Node5 -->
<g id="edge8" class="edge">
<title>Node7&#45;&gt;Node5</title>
<path fill="none" stroke="#191970" d="M852.9184,-56.3733C835.2598,-47.4644 808.7947,-34.1127 788.7902,-24.0203"/>
<polygon fill="#191970" stroke="#191970" points="790.3372,-20.8806 779.8326,-19.5011 787.1842,-27.1303 790.3372,-20.8806"/>
</g>
<!-- Node7&#45;&gt;Node8 -->
<g id="edge9" class="edge">
<title>Node7&#45;&gt;Node8</title>
<path fill="none" stroke="#191970" d="M808.1981,-58.0953C722.8761,-47.5245 572.3651,-28.8771 485.9599,-18.172"/>
<polygon fill="#191970" stroke="#191970" points="486.3606,-14.695 476.0061,-16.9388 485.4998,-21.6419 486.3606,-14.695"/>
</g>
<!-- Node9&#45;&gt;Node2 -->
<g id="edge22" class="edge">
<title>Node9&#45;&gt;Node2</title>
<path fill="none" stroke="#191970" d="M451.7857,-395.2451C378.3372,-385.1639 239.9478,-366.1693 158.176,-354.9457"/>
<polygon fill="#191970" stroke="#191970" points="158.6315,-351.4755 148.2485,-353.5831 157.6796,-358.4105 158.6315,-351.4755"/>
</g>
<!-- Node9&#45;&gt;Node3 -->
<g id="edge25" class="edge">
<title>Node9&#45;&gt;Node3</title>
<path fill="none" stroke="#191970" d="M550.1136,-396.9811C648.7043,-386.9061 870.7949,-364.2107 982.3718,-352.8087"/>
<polygon fill="#191970" stroke="#191970" points="982.8991,-356.2732 992.4914,-351.7746 982.1874,-349.3094 982.8991,-356.2732"/>
</g>
<!-- Node10 -->
<g id="node11" class="node">
<title>Node10</title>
<g id="a_node11"><a xlink:href="std__types_8h.html" target="_top" xlink:title="Standard C language types and definitions for ODP. ">
<polygon fill="#ffffff" stroke="#000000" points="370,-224.5 370,-243.5 482,-243.5 482,-224.5 370,-224.5"/>
<text text-anchor="middle" x="426" y="-231.5" font-family="Helvetica,sans-Serif" font-size="10.00" fill="#000000">odp/api/std_types.h</text>
</a>
</g>
</g>
<!-- Node9&#45;&gt;Node10 -->
<g id="edge11" class="edge">
<title>Node9&#45;&gt;Node10</title>
<path fill="none" stroke="#191970" d="M451.9402,-392.9767C414.2469,-384.929 366.7089,-371.9654 355,-356 328.7504,-320.2079 375.1841,-273.9933 404.5932,-250.0204"/>
<polygon fill="#191970" stroke="#191970" points="407.0404,-252.5476 412.7184,-243.6026 402.7016,-247.0544 407.0404,-252.5476"/>
</g>
<!-- Node17 -->
<g id="node18" class="node">
<title>Node17</title>
<polygon fill="#ffffff" stroke="#bfbfbf" points="364,-336.5 364,-355.5 494,-355.5 494,-336.5 364,-336.5"/>
<text text-anchor="middle" x="429" y="-343.5" font-family="Helvetica,sans-Serif" font-size="10.00" fill="#000000">odp/api/abi/packet_io.h</text>
</g>
<!-- Node9&#45;&gt;Node17 -->
<g id="edge23" class="edge">
<title>Node9&#45;&gt;Node17</title>
<path fill="none" stroke="#191970" d="M488.4586,-392.2455C477.7213,-383.8943 462.0527,-371.7076 449.4953,-361.9408"/>
<polygon fill="#191970" stroke="#191970" points="451.4401,-359.0194 441.3977,-355.6427 447.1425,-364.5449 451.4401,-359.0194"/>
</g>
<!-- Node18 -->
<g id="node19" class="node">
<title>Node18</title>
<polygon fill="#ffffff" stroke="#bfbfbf" points="654,-336.5 654,-355.5 770,-355.5 770,-336.5 654,-336.5"/>
<text text-anchor="middle" x="712" y="-343.5" font-family="Helvetica,sans-Serif" font-size="10.00" fill="#000000">odp/api/abi/packet.h</text>
</g>
<!-- Node9&#45;&gt;Node18 -->
<g id="edge24" class="edge">
<title>Node9&#45;&gt;Node18</title>
<path fill="none" stroke="#191970" d="M537.2722,-392.3733C572.9658,-382.9001 627.5879,-368.4032 666.2451,-358.1435"/>
<polygon fill="#191970" stroke="#191970" points="667.4336,-361.4493 676.2011,-355.5011 665.6379,-354.6835 667.4336,-361.4493"/>
</g>
<!-- Node19 -->
<g id="node20" class="node">
<title>Node19</title>
<polygon fill="#ffffff" stroke="#bfbfbf" points="788,-336.5 788,-355.5 898,-355.5 898,-336.5 788,-336.5"/>
<text text-anchor="middle" x="843" y="-343.5" font-family="Helvetica,sans-Serif" font-size="10.00" fill="#000000">odp/api/abi/buffer.h</text>
</g>
<!-- Node9&#45;&gt;Node19 -->
<g id="edge26" class="edge">
<title>Node9&#45;&gt;Node19</title>
<path fill="none" stroke="#191970" d="M550.0003,-393.9766C609.9074,-384.1672 711.4983,-367.5324 777.9184,-356.6566"/>
<polygon fill="#191970" stroke="#191970" points="778.5559,-360.0989 787.8589,-355.029 777.4247,-353.1909 778.5559,-360.0989"/>
</g>
<!-- Node20 -->
<g id="node21" class="node">
<title>Node20</title>
<polygon fill="#ffffff" stroke="#bfbfbf" points="204,-336.5 204,-355.5 308,-355.5 308,-336.5 204,-336.5"/>
<text text-anchor="middle" x="256" y="-343.5" font-family="Helvetica,sans-Serif" font-size="10.00" fill="#000000">odp/api/abi/pool.h</text>
</g>
<!-- Node9&#45;&gt;Node20 -->
<g id="edge27" class="edge">
<title>Node9&#45;&gt;Node20</title>
<path fill="none" stroke="#191970" d="M459.1614,-392.4369C417.2315,-382.8529 352.6052,-368.0812 307.5376,-357.78"/>
<polygon fill="#191970" stroke="#191970" points="308.1946,-354.34 297.6661,-355.5237 306.6347,-361.164 308.1946,-354.34"/>
</g>
<!-- Node21 -->
<g id="node22" class="node">
<title>Node21</title>
<g id="a_node22"><a xlink:href="spec_2packet_8h.html" target="_top" xlink:title="ODP packet descriptor. ">
<polygon fill="#ffffff" stroke="#000000" points="512.5,-336.5 512.5,-355.5 635.5,-355.5 635.5,-336.5 512.5,-336.5"/>
<text text-anchor="middle" x="574" y="-343.5" font-family="Helvetica,sans-Serif" font-size="10.00" fill="#000000">odp/api/spec/packet.h</text>
</a>
</g>
</g>
<!-- Node9&#45;&gt;Node21 -->
<g id="edge28" class="edge">
<title>Node9&#45;&gt;Node21</title>
<path fill="none" stroke="#191970" d="M513.7156,-392.2455C524.602,-383.8943 540.4883,-371.7076 553.22,-361.9408"/>
<polygon fill="#191970" stroke="#191970" points="555.6261,-364.5063 561.4301,-355.6427 551.3654,-358.9523 555.6261,-364.5063"/>
</g>
<!-- Node11 -->
<g id="node12" class="node">
<title>Node11</title>
<polygon fill="#ffffff" stroke="#bfbfbf" points="306,-168.5 306,-187.5 436,-187.5 436,-168.5 306,-168.5"/>
<text text-anchor="middle" x="371" y="-175.5" font-family="Helvetica,sans-Serif" font-size="10.00" fill="#000000">odp/api/abi/std_types.h</text>
</g>
<!-- Node10&#45;&gt;Node11 -->
<g id="edge12" class="edge">
<title>Node10&#45;&gt;Node11</title>
<path fill="none" stroke="#191970" d="M416.4197,-224.2455C408.4542,-216.1352 396.9359,-204.4075 387.4921,-194.7919"/>
<polygon fill="#191970" stroke="#191970" points="389.9747,-192.3247 380.4705,-187.6427 384.9805,-197.2297 389.9747,-192.3247"/>
</g>
<!-- Node12 -->
<g id="node13" class="node">
<title>Node12</title>
<g id="a_node13"><a xlink:href="spec_2std__types_8h.html" target="_top" xlink:title="Standard C language types and definitions for ODP. ">
<polygon fill="#ffffff" stroke="#000000" points="454.5,-168.5 454.5,-187.5 591.5,-187.5 591.5,-168.5 454.5,-168.5"/>
<text text-anchor="middle" x="523" y="-175.5" font-family="Helvetica,sans-Serif" font-size="10.00" fill="#000000">odp/api/spec/std_types.h</text>
</a>
</g>
</g>
<!-- Node10&#45;&gt;Node12 -->
<g id="edge13" class="edge">
<title>Node10&#45;&gt;Node12</title>
<path fill="none" stroke="#191970" d="M442.8961,-224.2455C457.918,-215.5731 480.1043,-202.7645 497.321,-192.825"/>
<polygon fill="#191970" stroke="#191970" points="499.3871,-195.6737 506.2975,-187.6427 495.8872,-189.6114 499.3871,-195.6737"/>
</g>
<!-- Node12&#45;&gt;Node5 -->
<g id="edge14" class="edge">
<title>Node12&#45;&gt;Node5</title>
<path fill="none" stroke="#191970" d="M554.0969,-168.4331C596.5285,-154.0944 672.9941,-123.5286 723,-76 736.8813,-62.8064 747.2194,-43.4143 753.58,-29.0615"/>
<polygon fill="#191970" stroke="#191970" points="756.8813,-30.2384 757.5023,-19.6618 750.4212,-27.5427 756.8813,-30.2384"/>
</g>
<!-- Node12&#45;&gt;Node8 -->
<g id="edge21" class="edge">
<title>Node12&#45;&gt;Node8</title>
<path fill="none" stroke="#191970" d="M472.6949,-168.3917C425.398,-156.2132 358.2095,-129.9262 333,-76 321.6165,-51.6493 349.5286,-34.0266 376.7011,-23.1487"/>
<polygon fill="#191970" stroke="#191970" points="378.0804,-26.3696 386.2159,-19.5824 375.6236,-19.8149 378.0804,-26.3696"/>
</g>
<!-- Node13 -->
<g id="node14" class="node">
<title>Node13</title>
<polygon fill="#ffffff" stroke="#bfbfbf" points="409.5,-112.5 409.5,-131.5 462.5,-131.5 462.5,-112.5 409.5,-112.5"/>
<text text-anchor="middle" x="436" y="-119.5" font-family="Helvetica,sans-Serif" font-size="10.00" fill="#000000">stdint.h</text>
</g>
<!-- Node12&#45;&gt;Node13 -->
<g id="edge15" class="edge">
<title>Node12&#45;&gt;Node13</title>
<path fill="none" stroke="#191970" d="M507.8458,-168.2455C494.4973,-159.6534 474.8414,-147.0014 459.4617,-137.1018"/>
<polygon fill="#191970" stroke="#191970" points="461.2836,-134.1121 450.9806,-131.6427 457.4949,-139.9982 461.2836,-134.1121"/>
</g>
<!-- Node14 -->
<g id="node15" class="node">
<title>Node14</title>
<g id="a_node15"><a xlink:href="align_8h.html" target="_top" xlink:title="ODP alignments. ">
<polygon fill="#ffffff" stroke="#000000" points="480.5,-112.5 480.5,-131.5 569.5,-131.5 569.5,-112.5 480.5,-112.5"/>
<text text-anchor="middle" x="525" y="-119.5" font-family="Helvetica,sans-Serif" font-size="10.00" fill="#000000">odp/api/align.h</text>
</a>
</g>
</g>
<!-- Node12&#45;&gt;Node14 -->
<g id="edge16" class="edge">
<title>Node12&#45;&gt;Node14</title>
<path fill="none" stroke="#191970" d="M523.3484,-168.2455C523.6093,-160.9382 523.9752,-150.6944 524.2963,-141.7046"/>
<polygon fill="#191970" stroke="#191970" points="527.7964,-141.7613 524.6556,-131.6427 520.8008,-141.5113 527.7964,-141.7613"/>
</g>
<!-- Node15 -->
<g id="node16" class="node">
<title>Node15</title>
<polygon fill="#ffffff" stroke="#bfbfbf" points="342.5,-56.5 342.5,-75.5 449.5,-75.5 449.5,-56.5 342.5,-56.5"/>
<text text-anchor="middle" x="396" y="-63.5" font-family="Helvetica,sans-Serif" font-size="10.00" fill="#000000">odp/api/abi/align.h</text>
</g>
<!-- Node14&#45;&gt;Node15 -->
<g id="edge17" class="edge">
<title>Node14&#45;&gt;Node15</title>
<path fill="none" stroke="#191970" d="M502.8241,-112.3733C482.0234,-103.3435 450.7083,-89.7494 427.3542,-79.6111"/>
<polygon fill="#191970" stroke="#191970" points="428.4532,-76.2727 417.8865,-75.5011 425.6657,-82.6938 428.4532,-76.2727"/>
</g>
<!-- Node16 -->
<g id="node17" class="node">
<title>Node16</title>
<g id="a_node17"><a xlink:href="spec_2align_8h.html" target="_top" xlink:title="ODP alignments. ">
<polygon fill="#ffffff" stroke="#000000" points="468,-56.5 468,-75.5 582,-75.5 582,-56.5 468,-56.5"/>
<text text-anchor="middle" x="525" y="-63.5" font-family="Helvetica,sans-Serif" font-size="10.00" fill="#000000">odp/api/spec/align.h</text>
</a>
</g>
</g>
<!-- Node14&#45;&gt;Node16 -->
<g id="edge18" class="edge">
<title>Node14&#45;&gt;Node16</title>
<path fill="none" stroke="#191970" d="M525,-112.2455C525,-104.9382 525,-94.6944 525,-85.7046"/>
<polygon fill="#191970" stroke="#191970" points="528.5001,-85.6426 525,-75.6427 521.5001,-85.6427 528.5001,-85.6426"/>
</g>
<!-- Node16&#45;&gt;Node5 -->
<g id="edge19" class="edge">
<title>Node16&#45;&gt;Node5</title>
<path fill="none" stroke="#191970" d="M565.3017,-56.4369C605.6064,-46.8731 667.6821,-32.1432 711.0818,-21.845"/>
<polygon fill="#191970" stroke="#191970" points="711.9428,-25.238 720.8645,-19.5237 710.3266,-18.4271 711.9428,-25.238"/>
</g>
<!-- Node16&#45;&gt;Node8 -->
<g id="edge20" class="edge">
<title>Node16&#45;&gt;Node8</title>
<path fill="none" stroke="#191970" d="M506.7104,-56.2455C490.2238,-47.4527 465.7648,-34.4079 447.0235,-24.4125"/>
<polygon fill="#191970" stroke="#191970" points="448.5506,-21.2604 438.08,-19.6427 445.2565,-27.4368 448.5506,-21.2604"/>
</g>
<!-- Node21&#45;&gt;Node5 -->
<g id="edge29" class="edge">
<title>Node21&#45;&gt;Node5</title>
<path fill="none" stroke="#191970" d="M604.396,-336.4223C661.6984,-317.4457 780,-273.4868 780,-234 780,-234 780,-234 780,-122 780,-89.2688 772.0148,-51.9052 766.3978,-29.6716"/>
<polygon fill="#191970" stroke="#191970" points="769.7289,-28.5763 763.8035,-19.7934 762.9585,-30.3545 769.7289,-28.5763"/>
</g>
<!-- Node21&#45;&gt;Node8 -->
<g id="edge36" class="edge">
<title>Node21&#45;&gt;Node8</title>
<path fill="none" stroke="#191970" d="M526.1433,-336.4865C458.3945,-319.9946 338.1787,-278.7484 297,-188 279.5163,-149.4699 267.9395,-128.059 327,-56 339.3319,-40.954 357.8107,-30.4161 375.0553,-23.2604"/>
<polygon fill="#191970" stroke="#191970" points="376.3953,-26.4948 384.4617,-19.6258 373.8723,-19.9653 376.3953,-26.4948"/>
</g>
<!-- Node22 -->
<g id="node23" class="node">
<title>Node22</title>
<g id="a_node23"><a xlink:href="time_8h.html" target="_top" xlink:title="ODP time. ">
<polygon fill="#ffffff" stroke="#000000" points="530.5,-280.5 530.5,-299.5 617.5,-299.5 617.5,-280.5 530.5,-280.5"/>
<text text-anchor="middle" x="574" y="-287.5" font-family="Helvetica,sans-Serif" font-size="10.00" fill="#000000">odp/api/time.h</text>
</a>
</g>
</g>
<!-- Node21&#45;&gt;Node22 -->
<g id="edge30" class="edge">
<title>Node21&#45;&gt;Node22</title>
<path fill="none" stroke="#191970" d="M574,-336.2455C574,-328.9382 574,-318.6944 574,-309.7046"/>
<polygon fill="#191970" stroke="#191970" points="577.5001,-309.6426 574,-299.6427 570.5001,-309.6427 577.5001,-309.6426"/>
</g>
<!-- Node22&#45;&gt;Node10 -->
<g id="edge31" class="edge">
<title>Node22&#45;&gt;Node10</title>
<path fill="none" stroke="#191970" d="M548.5579,-280.3733C524.2674,-271.1822 487.4792,-257.2624 460.5457,-247.0713"/>
<polygon fill="#191970" stroke="#191970" points="461.7016,-243.7666 451.1101,-243.5011 459.2243,-250.3136 461.7016,-243.7666"/>
</g>
<!-- Node23 -->
<g id="node24" class="node">
<title>Node23</title>
<polygon fill="#ffffff" stroke="#bfbfbf" points="521.5,-224.5 521.5,-243.5 626.5,-243.5 626.5,-224.5 521.5,-224.5"/>
<text text-anchor="middle" x="574" y="-231.5" font-family="Helvetica,sans-Serif" font-size="10.00" fill="#000000">odp/api/abi/time.h</text>
</g>
<!-- Node22&#45;&gt;Node23 -->
<g id="edge32" class="edge">
<title>Node22&#45;&gt;Node23</title>
<path fill="none" stroke="#191970" d="M574,-280.2455C574,-272.9382 574,-262.6944 574,-253.7046"/>
<polygon fill="#191970" stroke="#191970" points="577.5001,-253.6426 574,-243.6427 570.5001,-253.6427 577.5001,-253.6426"/>
</g>
<!-- Node24 -->
<g id="node25" class="node">
<title>Node24</title>
<g id="a_node25"><a xlink:href="spec_2time_8h.html" target="_top" xlink:title="ODP time. ">
<polygon fill="#ffffff" stroke="#000000" points="600.5,-56.5 600.5,-75.5 713.5,-75.5 713.5,-56.5 600.5,-56.5"/>
<text text-anchor="middle" x="657" y="-63.5" font-family="Helvetica,sans-Serif" font-size="10.00" fill="#000000">odp/api/spec/time.h</text>
</a>
</g>
</g>
<!-- Node22&#45;&gt;Node24 -->
<g id="edge33" class="edge">
<title>Node22&#45;&gt;Node24</title>
<path fill="none" stroke="#191970" d="M594.5597,-280.3921C608.6823,-272.6471 626.5287,-260.3535 636,-244 665.4236,-193.1962 662.8834,-120.5932 659.512,-85.918"/>
<polygon fill="#191970" stroke="#191970" points="662.9599,-85.2535 658.3818,-75.6989 656.0024,-86.0231 662.9599,-85.2535"/>
</g>
<!-- Node24&#45;&gt;Node5 -->
<g id="edge34" class="edge">
<title>Node24&#45;&gt;Node5</title>
<path fill="none" stroke="#191970" d="M675.1154,-56.2455C691.445,-47.4527 715.671,-34.4079 734.2339,-24.4125"/>
<polygon fill="#191970" stroke="#191970" points="735.9468,-27.4654 743.0922,-19.6427 732.6281,-21.3021 735.9468,-27.4654"/>
</g>
<!-- Node24&#45;&gt;Node8 -->
<g id="edge35" class="edge">
<title>Node24&#45;&gt;Node8</title>
<path fill="none" stroke="#191970" d="M616.5275,-56.4369C576.052,-46.8731 513.7133,-32.1432 470.1297,-21.845"/>
<polygon fill="#191970" stroke="#191970" points="470.8424,-18.4171 460.3055,-19.5237 469.2327,-25.2295 470.8424,-18.4171"/>
</g>
</g>
</svg>
