<?xml version="1.0" encoding="UTF-8" standalone="no"?>
<!DOCTYPE svg PUBLIC "-//W3C//DTD SVG 1.1//EN"
 "http://www.w3.org/Graphics/SVG/1.1/DTD/svg11.dtd">
<!-- Generated by graphviz version 2.40.1 (20161225.0304)
 -->
<!-- Title: crypto.h Pages: 1 -->
<svg width="1398pt" height="722pt"
 viewBox="0.00 0.00 1398.00 722.00" xmlns="http://www.w3.org/2000/svg" xmlns:xlink="http://www.w3.org/1999/xlink">
<g id="graph0" class="graph" transform="scale(1 1) rotate(0) translate(4 718)">
<title>crypto.h</title>
<polygon fill="#ffffff" stroke="transparent" points="-4,4 -4,-718 1394,-718 1394,4 -4,4"/>
<!-- Node0 -->
<g id="node1" class="node">
<title>Node0</title>
<polygon fill="#bfbfbf" stroke="#000000" points="319,-694.5 319,-713.5 375,-713.5 375,-694.5 319,-694.5"/>
<text text-anchor="middle" x="347" y="-701.5" font-family="Helvetica,sans-Serif" font-size="10.00" fill="#000000">crypto.h</text>
</g>
<!-- Node1 -->
<g id="node2" class="node">
<title>Node1</title>
<g id="a_node2"><a xlink:href="std__types_8h.html" target="_top" xlink:title="Standard C language types and definitions for ODP. ">
<polygon fill="#ffffff" stroke="#000000" points="927,-235.5 927,-254.5 1039,-254.5 1039,-235.5 927,-235.5"/>
<text text-anchor="middle" x="983" y="-242.5" font-family="Helvetica,sans-Serif" font-size="10.00" fill="#000000">odp/api/std_types.h</text>
</a>
</g>
</g>
<!-- Node0&#45;&gt;Node1 -->
<g id="edge1" class="edge">
<title>Node0&#45;&gt;Node1</title>
<path fill="none" stroke="#191970" d="M375.1469,-703.5405C503.8045,-701.2783 1036.6533,-690.1102 1200,-658 1287.7154,-640.7572 1390,-681.3941 1390,-592 1390,-592 1390,-592 1390,-368 1390,-297.6901 1164.6245,-263.9104 1049.2965,-251.2275"/>
<polygon fill="#191970" stroke="#191970" points="1049.4816,-247.7272 1039.1643,-250.1363 1048.732,-254.687 1049.4816,-247.7272"/>
</g>
<!-- Node10 -->
<g id="node11" class="node">
<title>Node10</title>
<polygon fill="#ffffff" stroke="#bfbfbf" points="256,-358.5 256,-377.5 372,-377.5 372,-358.5 256,-358.5"/>
<text text-anchor="middle" x="314" y="-365.5" font-family="Helvetica,sans-Serif" font-size="10.00" fill="#000000">odp/api/abi/packet.h</text>
</g>
<!-- Node0&#45;&gt;Node10 -->
<g id="edge12" class="edge">
<title>Node0&#45;&gt;Node10</title>
<path fill="none" stroke="#191970" d="M318.8584,-699.4849C279.3688,-692.5093 210.6808,-677.8192 196,-658 128.5613,-566.9572 249.1725,-431.9142 296.3132,-384.8809"/>
<polygon fill="#191970" stroke="#191970" points="299.0194,-387.129 303.7064,-377.6273 294.117,-382.1323 299.0194,-387.129"/>
</g>
<!-- Node11 -->
<g id="node12" class="node">
<title>Node11</title>
<polygon fill="#ffffff" stroke="#bfbfbf" points="205.5,-638.5 205.5,-657.5 318.5,-657.5 318.5,-638.5 205.5,-638.5"/>
<text text-anchor="middle" x="262" y="-645.5" font-family="Helvetica,sans-Serif" font-size="10.00" fill="#000000">odp/api/abi/crypto.h</text>
</g>
<!-- Node0&#45;&gt;Node11 -->
<g id="edge13" class="edge">
<title>Node0&#45;&gt;Node11</title>
<path fill="none" stroke="#191970" d="M332.1941,-694.2455C319.2744,-685.7337 300.3069,-673.2375 285.3448,-663.3801"/>
<polygon fill="#191970" stroke="#191970" points="286.9124,-660.2216 276.6362,-657.6427 283.0613,-666.067 286.9124,-660.2216"/>
</g>
<!-- Node12 -->
<g id="node13" class="node">
<title>Node12</title>
<polygon fill="#ffffff" stroke="#bfbfbf" points="390,-358.5 390,-377.5 500,-377.5 500,-358.5 390,-358.5"/>
<text text-anchor="middle" x="445" y="-365.5" font-family="Helvetica,sans-Serif" font-size="10.00" fill="#000000">odp/api/abi/buffer.h</text>
</g>
<!-- Node0&#45;&gt;Node12 -->
<g id="edge14" class="edge">
<title>Node0&#45;&gt;Node12</title>
<path fill="none" stroke="#191970" d="M346.6018,-694.1553C345.5901,-668.2604 343,-596.1004 343,-536 343,-536 343,-536 343,-480 343,-435.6687 387.2224,-401.1591 417.4309,-382.7571"/>
<polygon fill="#191970" stroke="#191970" points="419.4297,-385.6426 426.2916,-377.5702 415.8934,-379.6016 419.4297,-385.6426"/>
</g>
<!-- Node13 -->
<g id="node14" class="node">
<title>Node13</title>
<polygon fill="#ffffff" stroke="#bfbfbf" points="1258,-358.5 1258,-377.5 1362,-377.5 1362,-358.5 1258,-358.5"/>
<text text-anchor="middle" x="1310" y="-365.5" font-family="Helvetica,sans-Serif" font-size="10.00" fill="#000000">odp/api/abi/pool.h</text>
</g>
<!-- Node0&#45;&gt;Node13 -->
<g id="edge15" class="edge">
<title>Node0&#45;&gt;Node13</title>
<path fill="none" stroke="#191970" d="M375.2405,-703.7519C533.9759,-701.9943 1308,-688.4775 1308,-592 1308,-592 1308,-592 1308,-480 1308,-447.7064 1308.8415,-410.1836 1309.4328,-387.8029"/>
<polygon fill="#191970" stroke="#191970" points="1312.9374,-387.6797 1309.7134,-377.5873 1305.9401,-387.4874 1312.9374,-387.6797"/>
</g>
<!-- Node14 -->
<g id="node15" class="node">
<title>Node14</title>
<g id="a_node15"><a xlink:href="queue_8h.html" target="_top" xlink:title="ODP queue. ">
<polygon fill="#ffffff" stroke="#000000" points="929.5,-638.5 929.5,-657.5 1024.5,-657.5 1024.5,-638.5 929.5,-638.5"/>
<text text-anchor="middle" x="977" y="-645.5" font-family="Helvetica,sans-Serif" font-size="10.00" fill="#000000">odp/api/queue.h</text>
</a>
</g>
</g>
<!-- Node0&#45;&gt;Node14 -->
<g id="edge16" class="edge">
<title>Node0&#45;&gt;Node14</title>
<path fill="none" stroke="#191970" d="M375.2937,-701.485C471.5702,-692.9271 787.7588,-664.8214 919.0497,-653.1511"/>
<polygon fill="#191970" stroke="#191970" points="919.6507,-656.6116 929.3015,-652.2399 919.0308,-649.6391 919.6507,-656.6116"/>
</g>
<!-- Node34 -->
<g id="node35" class="node">
<title>Node34</title>
<g id="a_node35"><a xlink:href="spec_2crypto_8h.html" target="_top" xlink:title="ODP crypto. ">
<polygon fill="#ffffff" stroke="#000000" points="78.5,-470.5 78.5,-489.5 199.5,-489.5 199.5,-470.5 78.5,-470.5"/>
<text text-anchor="middle" x="139" y="-477.5" font-family="Helvetica,sans-Serif" font-size="10.00" fill="#000000">odp/api/spec/crypto.h</text>
</a>
</g>
</g>
<!-- Node0&#45;&gt;Node34 -->
<g id="edge63" class="edge">
<title>Node0&#45;&gt;Node34</title>
<path fill="none" stroke="#191970" d="M318.9494,-700.8233C272.721,-694.9875 183.5842,-681.0049 163,-658 123.2241,-613.5465 129.4923,-536.136 135.2017,-499.8453"/>
<polygon fill="#191970" stroke="#191970" points="138.7179,-500.0521 136.9767,-489.6014 131.8207,-498.857 138.7179,-500.0521"/>
</g>
<!-- Node2 -->
<g id="node3" class="node">
<title>Node2</title>
<polygon fill="#ffffff" stroke="#bfbfbf" points="1013,-174 1013,-193 1143,-193 1143,-174 1013,-174"/>
<text text-anchor="middle" x="1078" y="-181" font-family="Helvetica,sans-Serif" font-size="10.00" fill="#000000">odp/api/abi/std_types.h</text>
</g>
<!-- Node1&#45;&gt;Node2 -->
<g id="edge2" class="edge">
<title>Node1&#45;&gt;Node2</title>
<path fill="none" stroke="#191970" d="M997.8438,-235.3906C1013.0418,-225.5519 1036.8848,-210.1167 1054.6206,-198.6351"/>
<polygon fill="#191970" stroke="#191970" points="1056.768,-201.4144 1063.2605,-193.0419 1052.9639,-195.5382 1056.768,-201.4144"/>
</g>
<!-- Node3 -->
<g id="node4" class="node">
<title>Node3</title>
<g id="a_node4"><a xlink:href="spec_2std__types_8h.html" target="_top" xlink:title="Standard C language types and definitions for ODP. ">
<polygon fill="#ffffff" stroke="#000000" points="819.5,-174 819.5,-193 956.5,-193 956.5,-174 819.5,-174"/>
<text text-anchor="middle" x="888" y="-181" font-family="Helvetica,sans-Serif" font-size="10.00" fill="#000000">odp/api/spec/std_types.h</text>
</a>
</g>
</g>
<!-- Node1&#45;&gt;Node3 -->
<g id="edge3" class="edge">
<title>Node1&#45;&gt;Node3</title>
<path fill="none" stroke="#191970" d="M968.1563,-235.3906C952.9582,-225.5519 929.1152,-210.1167 911.3794,-198.6351"/>
<polygon fill="#191970" stroke="#191970" points="913.0361,-195.5382 902.7395,-193.0419 909.232,-201.4144 913.0361,-195.5382"/>
</g>
<!-- Node4 -->
<g id="node5" class="node">
<title>Node4</title>
<polygon fill="#ffffff" stroke="#bfbfbf" points="723.5,-.5 723.5,-19.5 844.5,-19.5 844.5,-.5 723.5,-.5"/>
<text text-anchor="middle" x="784" y="-7.5" font-family="Helvetica,sans-Serif" font-size="10.00" fill="#000000">odp/visibility_begin.h</text>
</g>
<!-- Node3&#45;&gt;Node4 -->
<g id="edge4" class="edge">
<title>Node3&#45;&gt;Node4</title>
<path fill="none" stroke="#191970" d="M923.2241,-173.9705C986.2187,-155.2729 1107.4402,-110.7883 1061,-56 1047.7456,-40.363 932.3325,-25.4164 854.7238,-17.0033"/>
<polygon fill="#191970" stroke="#191970" points="854.8275,-13.4944 844.5117,-15.9101 854.0824,-20.4547 854.8275,-13.4944"/>
</g>
<!-- Node5 -->
<g id="node6" class="node">
<title>Node5</title>
<polygon fill="#ffffff" stroke="#bfbfbf" points="957.5,-112.5 957.5,-131.5 1010.5,-131.5 1010.5,-112.5 957.5,-112.5"/>
<text text-anchor="middle" x="984" y="-119.5" font-family="Helvetica,sans-Serif" font-size="10.00" fill="#000000">stdint.h</text>
</g>
<!-- Node3&#45;&gt;Node5 -->
<g id="edge5" class="edge">
<title>Node3&#45;&gt;Node5</title>
<path fill="none" stroke="#191970" d="M903,-173.8906C918.3581,-164.0519 942.4521,-148.6167 960.3745,-137.1351"/>
<polygon fill="#191970" stroke="#191970" points="962.573,-139.8833 969.1053,-131.5419 958.797,-133.9891 962.573,-139.8833"/>
</g>
<!-- Node6 -->
<g id="node7" class="node">
<title>Node6</title>
<g id="a_node7"><a xlink:href="align_8h.html" target="_top" xlink:title="ODP alignments. ">
<polygon fill="#ffffff" stroke="#000000" points="850.5,-112.5 850.5,-131.5 939.5,-131.5 939.5,-112.5 850.5,-112.5"/>
<text text-anchor="middle" x="895" y="-119.5" font-family="Helvetica,sans-Serif" font-size="10.00" fill="#000000">odp/api/align.h</text>
</a>
</g>
</g>
<!-- Node3&#45;&gt;Node6 -->
<g id="edge6" class="edge">
<title>Node3&#45;&gt;Node6</title>
<path fill="none" stroke="#191970" d="M889.0938,-173.8906C890.0641,-165.3657 891.5126,-152.6392 892.7323,-141.9235"/>
<polygon fill="#191970" stroke="#191970" points="896.2374,-142.0766 893.8908,-131.7449 889.2823,-141.2849 896.2374,-142.0766"/>
</g>
<!-- Node9 -->
<g id="node10" class="node">
<title>Node9</title>
<polygon fill="#ffffff" stroke="#bfbfbf" points="197,-.5 197,-19.5 309,-19.5 309,-.5 197,-.5"/>
<text text-anchor="middle" x="253" y="-7.5" font-family="Helvetica,sans-Serif" font-size="10.00" fill="#000000">odp/visibility_end.h</text>
</g>
<!-- Node3&#45;&gt;Node9 -->
<g id="edge11" class="edge">
<title>Node3&#45;&gt;Node9</title>
<path fill="none" stroke="#191970" d="M864.5937,-173.96C806.724,-150.6999 651.9018,-90.4564 518,-56 451.1944,-38.8092 373.2448,-26.1406 319.2596,-18.4996"/>
<polygon fill="#191970" stroke="#191970" points="319.5177,-15.0018 309.1297,-17.085 318.5495,-21.9345 319.5177,-15.0018"/>
</g>
<!-- Node7 -->
<g id="node8" class="node">
<title>Node7</title>
<polygon fill="#ffffff" stroke="#bfbfbf" points="944.5,-56.5 944.5,-75.5 1051.5,-75.5 1051.5,-56.5 944.5,-56.5"/>
<text text-anchor="middle" x="998" y="-63.5" font-family="Helvetica,sans-Serif" font-size="10.00" fill="#000000">odp/api/abi/align.h</text>
</g>
<!-- Node6&#45;&gt;Node7 -->
<g id="edge7" class="edge">
<title>Node6&#45;&gt;Node7</title>
<path fill="none" stroke="#191970" d="M912.9412,-112.2455C929.04,-103.4928 952.8879,-90.527 971.2391,-80.5496"/>
<polygon fill="#191970" stroke="#191970" points="973.1507,-83.4942 980.2644,-75.6427 969.8071,-77.3444 973.1507,-83.4942"/>
</g>
<!-- Node8 -->
<g id="node9" class="node">
<title>Node8</title>
<g id="a_node9"><a xlink:href="spec_2align_8h.html" target="_top" xlink:title="ODP alignments. ">
<polygon fill="#ffffff" stroke="#000000" points="812,-56.5 812,-75.5 926,-75.5 926,-56.5 812,-56.5"/>
<text text-anchor="middle" x="869" y="-63.5" font-family="Helvetica,sans-Serif" font-size="10.00" fill="#000000">odp/api/spec/align.h</text>
</a>
</g>
</g>
<!-- Node6&#45;&gt;Node8 -->
<g id="edge8" class="edge">
<title>Node6&#45;&gt;Node8</title>
<path fill="none" stroke="#191970" d="M890.4711,-112.2455C886.9666,-104.6973 882.0073,-94.0158 877.7377,-84.8197"/>
<polygon fill="#191970" stroke="#191970" points="880.8627,-83.2389 873.477,-75.6427 874.5136,-86.1867 880.8627,-83.2389"/>
</g>
<!-- Node8&#45;&gt;Node4 -->
<g id="edge9" class="edge">
<title>Node8&#45;&gt;Node4</title>
<path fill="none" stroke="#191970" d="M854.1941,-56.2455C841.2744,-47.7337 822.3069,-35.2375 807.3448,-25.3801"/>
<polygon fill="#191970" stroke="#191970" points="808.9124,-22.2216 798.6362,-19.6427 805.0613,-28.067 808.9124,-22.2216"/>
</g>
<!-- Node8&#45;&gt;Node9 -->
<g id="edge10" class="edge">
<title>Node8&#45;&gt;Node9</title>
<path fill="none" stroke="#191970" d="M811.8771,-60.807C697.5455,-50.4132 441.1426,-27.1039 319.4887,-16.0444"/>
<polygon fill="#191970" stroke="#191970" points="319.4777,-12.5291 309.2019,-15.1093 318.8439,-19.5003 319.4777,-12.5291"/>
</g>
<!-- Node14&#45;&gt;Node1 -->
<g id="edge17" class="edge">
<title>Node14&#45;&gt;Node1</title>
<path fill="none" stroke="#191970" d="M1024.7155,-644.0078C1088.0562,-635.7991 1192,-610.9155 1192,-536 1192,-536 1192,-536 1192,-424 1192,-393.4754 1191.6495,-382.1651 1173,-358 1133.8433,-307.2626 1064.9241,-274.6356 1021.733,-258.0812"/>
<polygon fill="#191970" stroke="#191970" points="1022.7272,-254.7166 1012.1345,-254.5042 1020.2828,-261.2759 1022.7272,-254.7166"/>
</g>
<!-- Node14&#45;&gt;Node12 -->
<g id="edge20" class="edge">
<title>Node14&#45;&gt;Node12</title>
<path fill="none" stroke="#191970" d="M947.6397,-638.4389C897.9381,-621.8813 794.4867,-585.8018 711,-546 621.131,-503.1554 597.2846,-492.8769 517,-434 496.6533,-419.0787 475.6348,-399.2058 461.5994,-385.1783"/>
<polygon fill="#191970" stroke="#191970" points="463.7143,-382.3384 454.2004,-377.6763 458.7305,-387.2538 463.7143,-382.3384"/>
</g>
<!-- Node14&#45;&gt;Node13 -->
<g id="edge21" class="edge">
<title>Node14&#45;&gt;Node13</title>
<path fill="none" stroke="#191970" d="M1024.6902,-641.9007C1082.3533,-633.9298 1175.4761,-618.9712 1206,-602 1241.1749,-582.4428 1268,-576.2462 1268,-536 1268,-536 1268,-536 1268,-480 1268,-445.2434 1285.9519,-408.0613 1298.3826,-386.4811"/>
<polygon fill="#191970" stroke="#191970" points="1301.4887,-388.1065 1303.6211,-377.7285 1295.4823,-384.5116 1301.4887,-388.1065"/>
</g>
<!-- Node15 -->
<g id="node16" class="node">
<title>Node15</title>
<polygon fill="#ffffff" stroke="#bfbfbf" points="922,-358.5 922,-377.5 1032,-377.5 1032,-358.5 922,-358.5"/>
<text text-anchor="middle" x="977" y="-365.5" font-family="Helvetica,sans-Serif" font-size="10.00" fill="#000000">odp/api/abi/event.h</text>
</g>
<!-- Node14&#45;&gt;Node15 -->
<g id="edge18" class="edge">
<title>Node14&#45;&gt;Node15</title>
<path fill="none" stroke="#191970" d="M977,-638.4116C977,-619.0538 977,-573.9167 977,-536 977,-536 977,-536 977,-480 977,-447.7116 977,-410.1872 977,-387.8048"/>
<polygon fill="#191970" stroke="#191970" points="980.5001,-387.5883 977,-377.5884 973.5001,-387.5884 980.5001,-387.5883"/>
</g>
<!-- Node16 -->
<g id="node17" class="node">
<title>Node16</title>
<polygon fill="#ffffff" stroke="#bfbfbf" points="1050.5,-358.5 1050.5,-377.5 1163.5,-377.5 1163.5,-358.5 1050.5,-358.5"/>
<text text-anchor="middle" x="1107" y="-365.5" font-family="Helvetica,sans-Serif" font-size="10.00" fill="#000000">odp/api/abi/queue.h</text>
</g>
<!-- Node14&#45;&gt;Node16 -->
<g id="edge19" class="edge">
<title>Node14&#45;&gt;Node16</title>
<path fill="none" stroke="#191970" d="M991.2495,-638.4404C1015.215,-621.092 1061,-581.9375 1061,-536 1061,-536 1061,-536 1061,-480 1061,-444.66 1080.8391,-407.4332 1094.4597,-386.0395"/>
<polygon fill="#191970" stroke="#191970" points="1097.4179,-387.9114 1100.0136,-377.6394 1091.5788,-384.0507 1097.4179,-387.9114"/>
</g>
<!-- Node17 -->
<g id="node18" class="node">
<title>Node17</title>
<g id="a_node18"><a xlink:href="spec_2queue_8h.html" target="_top" xlink:title="ODP queue. ">
<polygon fill="#ffffff" stroke="#000000" points="371,-582.5 371,-601.5 491,-601.5 491,-582.5 371,-582.5"/>
<text text-anchor="middle" x="431" y="-589.5" font-family="Helvetica,sans-Serif" font-size="10.00" fill="#000000">odp/api/spec/queue.h</text>
</a>
</g>
</g>
<!-- Node14&#45;&gt;Node17 -->
<g id="edge22" class="edge">
<title>Node14&#45;&gt;Node17</title>
<path fill="none" stroke="#191970" d="M929.3704,-643.9479C844.1462,-636.5659 659.9767,-620.0169 505,-602 503.7324,-601.8526 502.4529,-601.7018 501.1642,-601.548"/>
<polygon fill="#191970" stroke="#191970" points="501.5039,-598.0635 491.1519,-600.3189 500.6509,-605.0114 501.5039,-598.0635"/>
</g>
<!-- Node17&#45;&gt;Node4 -->
<g id="edge23" class="edge">
<title>Node17&#45;&gt;Node4</title>
<path fill="none" stroke="#191970" d="M491.3123,-588.1269C568.391,-582.4385 705.6568,-569.8194 821,-546 1006.7725,-507.6363 1230,-613.6924 1230,-424 1230,-424 1230,-424 1230,-122 1230,-45.6101 980.7684,-20.8418 854.9261,-13.2046"/>
<polygon fill="#191970" stroke="#191970" points="854.8013,-9.6914 844.6137,-12.6004 854.3918,-16.6794 854.8013,-9.6914"/>
</g>
<!-- Node17&#45;&gt;Node9 -->
<g id="edge62" class="edge">
<title>Node17&#45;&gt;Node9</title>
<path fill="none" stroke="#191970" d="M370.6175,-588.0483C252.0002,-576.6705 0,-533.0735 0,-368 0,-368 0,-368 0,-122 0,-87.2309 13.4888,-75.8998 42,-56 65.1424,-39.8474 134.0366,-26.7844 186.8681,-18.7633"/>
<polygon fill="#191970" stroke="#191970" points="187.4902,-22.2093 196.8663,-17.2757 186.46,-15.2855 187.4902,-22.2093"/>
</g>
<!-- Node18 -->
<g id="node19" class="node">
<title>Node18</title>
<g id="a_node19"><a xlink:href="event_8h.html" target="_top" xlink:title="ODP event. ">
<polygon fill="#ffffff" stroke="#000000" points="720,-526.5 720,-545.5 812,-545.5 812,-526.5 720,-526.5"/>
<text text-anchor="middle" x="766" y="-533.5" font-family="Helvetica,sans-Serif" font-size="10.00" fill="#000000">odp/api/event.h</text>
</a>
</g>
</g>
<!-- Node17&#45;&gt;Node18 -->
<g id="edge24" class="edge">
<title>Node17&#45;&gt;Node18</title>
<path fill="none" stroke="#191970" d="M488.2079,-582.4369C550.165,-572.0799 648.3643,-555.6645 709.8894,-545.3797"/>
<polygon fill="#191970" stroke="#191970" points="710.5251,-548.8221 719.8112,-543.7211 709.3709,-541.9179 710.5251,-548.8221"/>
</g>
<!-- Node26 -->
<g id="node27" class="node">
<title>Node26</title>
<g id="a_node27"><a xlink:href="queue__types_8h.html" target="_top" xlink:title="ODP queue types. ">
<polygon fill="#ffffff" stroke="#000000" points="218.5,-291.5 218.5,-321.5 329.5,-321.5 329.5,-291.5 218.5,-291.5"/>
<text text-anchor="start" x="226.5" y="-309.5" font-family="Helvetica,sans-Serif" font-size="10.00" fill="#000000">odp/api/spec/queue</text>
<text text-anchor="middle" x="274" y="-298.5" font-family="Helvetica,sans-Serif" font-size="10.00" fill="#000000">_types.h</text>
</a>
</g>
</g>
<!-- Node17&#45;&gt;Node26 -->
<g id="edge46" class="edge">
<title>Node17&#45;&gt;Node26</title>
<path fill="none" stroke="#191970" d="M417.7566,-582.3293C381.756,-555.1075 282.4326,-473.5576 247,-378 241.0588,-361.9773 247.9289,-343.98 256.2237,-330.0501"/>
<polygon fill="#191970" stroke="#191970" points="259.2378,-331.8354 261.76,-321.5452 253.3712,-328.0166 259.2378,-331.8354"/>
</g>
<!-- Node18&#45;&gt;Node15 -->
<g id="edge25" class="edge">
<title>Node18&#45;&gt;Node15</title>
<path fill="none" stroke="#191970" d="M780.7454,-526.3511C794.6242,-517.1928 815.9202,-502.9424 834,-490 867.5374,-465.9922 876.6007,-460.7436 908,-434 926.5669,-418.186 946.5827,-398.7499 960.2495,-385.078"/>
<polygon fill="#191970" stroke="#191970" points="962.9458,-387.3297 967.5037,-377.7653 957.9762,-382.3998 962.9458,-387.3297"/>
</g>
<!-- Node19 -->
<g id="node20" class="node">
<title>Node19</title>
<g id="a_node20"><a xlink:href="spec_2event_8h.html" target="_top" xlink:title="ODP event. ">
<polygon fill="#ffffff" stroke="#000000" points="707,-470.5 707,-489.5 825,-489.5 825,-470.5 707,-470.5"/>
<text text-anchor="middle" x="766" y="-477.5" font-family="Helvetica,sans-Serif" font-size="10.00" fill="#000000">odp/api/spec/event.h</text>
</a>
</g>
</g>
<!-- Node18&#45;&gt;Node19 -->
<g id="edge26" class="edge">
<title>Node18&#45;&gt;Node19</title>
<path fill="none" stroke="#191970" d="M766,-526.2455C766,-518.9382 766,-508.6944 766,-499.7046"/>
<polygon fill="#191970" stroke="#191970" points="769.5001,-499.6426 766,-489.6427 762.5001,-499.6427 769.5001,-499.6426"/>
</g>
<!-- Node19&#45;&gt;Node4 -->
<g id="edge27" class="edge">
<title>Node19&#45;&gt;Node4</title>
<path fill="none" stroke="#191970" d="M778.55,-470.2589C790.3687,-461.0354 808.52,-446.741 824,-434 864.1613,-400.9447 868.9242,-385.6207 913,-358 1019.0753,-291.5264 1171,-370.1827 1171,-245 1171,-245 1171,-245 1171,-122 1171,-77.9305 1136.9259,-74.656 1097,-56 1055.2715,-36.5017 933.8718,-22.8077 855.106,-15.6818"/>
<polygon fill="#191970" stroke="#191970" points="855.0365,-12.1619 844.7656,-14.7618 854.4161,-19.1344 855.0365,-12.1619"/>
</g>
<!-- Node19&#45;&gt;Node9 -->
<g id="edge45" class="edge">
<title>Node19&#45;&gt;Node9</title>
<path fill="none" stroke="#191970" d="M744.6958,-470.4928C705.3567,-452.8456 618.7765,-413.5775 547,-378 529.9001,-369.5241 527.27,-363.5186 509,-358 358.8805,-312.6554 300.6675,-387.0998 158,-322 112.5177,-301.2462 76,-294.9936 76,-245 76,-245 76,-245 76,-122 76,-65.4608 141.2889,-36.2861 192.5614,-22.0919"/>
<polygon fill="#191970" stroke="#191970" points="193.5011,-25.4639 202.2789,-19.5309 191.7171,-18.695 193.5011,-25.4639"/>
</g>
<!-- Node20 -->
<g id="node21" class="node">
<title>Node20</title>
<g id="a_node21"><a xlink:href="packet_8h.html" target="_top" xlink:title="ODP packet descriptor. ">
<polygon fill="#ffffff" stroke="#000000" points="717,-414.5 717,-433.5 815,-433.5 815,-414.5 717,-414.5"/>
<text text-anchor="middle" x="766" y="-421.5" font-family="Helvetica,sans-Serif" font-size="10.00" fill="#000000">odp/api/packet.h</text>
</a>
</g>
</g>
<!-- Node19&#45;&gt;Node20 -->
<g id="edge28" class="edge">
<title>Node19&#45;&gt;Node20</title>
<path fill="none" stroke="#191970" d="M766,-470.2455C766,-462.9382 766,-452.6944 766,-443.7046"/>
<polygon fill="#191970" stroke="#191970" points="769.5001,-443.6426 766,-433.6427 762.5001,-443.6427 769.5001,-443.6426"/>
</g>
<!-- Node20&#45;&gt;Node1 -->
<g id="edge29" class="edge">
<title>Node20&#45;&gt;Node1</title>
<path fill="none" stroke="#191970" d="M782.0465,-414.4373C796.5532,-405.5654 818.2866,-391.7024 836,-378 885.8333,-339.4509 939.5648,-288.0242 966.1371,-261.8492"/>
<polygon fill="#191970" stroke="#191970" points="968.8355,-264.1027 973.4773,-254.5788 963.9095,-259.1293 968.8355,-264.1027"/>
</g>
<!-- Node20&#45;&gt;Node10 -->
<g id="edge32" class="edge">
<title>Node20&#45;&gt;Node10</title>
<path fill="none" stroke="#191970" d="M716.7142,-418.5782C645.3602,-410.6257 508.8638,-395.0278 382.3453,-378.1502"/>
<polygon fill="#191970" stroke="#191970" points="382.4661,-374.6352 372.0899,-376.7763 381.5366,-381.5732 382.4661,-374.6352"/>
</g>
<!-- Node20&#45;&gt;Node12 -->
<g id="edge34" class="edge">
<title>Node20&#45;&gt;Node12</title>
<path fill="none" stroke="#191970" d="M716.8976,-415.4338C661.3311,-405.74 570.6135,-389.9139 509.4057,-379.2359"/>
<polygon fill="#191970" stroke="#191970" points="509.9216,-375.7731 499.4689,-377.5024 508.7186,-382.669 509.9216,-375.7731"/>
</g>
<!-- Node20&#45;&gt;Node13 -->
<g id="edge35" class="edge">
<title>Node20&#45;&gt;Node13</title>
<path fill="none" stroke="#191970" d="M815.2358,-418.9316C914.4305,-408.7204 1138.1523,-385.6902 1247.4838,-374.4355"/>
<polygon fill="#191970" stroke="#191970" points="1248.1102,-377.8896 1257.6992,-373.3839 1247.3933,-370.9264 1248.1102,-377.8896"/>
</g>
<!-- Node20&#45;&gt;Node15 -->
<g id="edge30" class="edge">
<title>Node20&#45;&gt;Node15</title>
<path fill="none" stroke="#191970" d="M802.2722,-414.3733C837.9658,-404.9001 892.5879,-390.4032 931.2451,-380.1435"/>
<polygon fill="#191970" stroke="#191970" points="932.4336,-383.4493 941.2011,-377.5011 930.6379,-376.6835 932.4336,-383.4493"/>
</g>
<!-- Node20&#45;&gt;Node16 -->
<g id="edge33" class="edge">
<title>Node20&#45;&gt;Node16</title>
<path fill="none" stroke="#191970" d="M815.2201,-415.9169C874.5169,-406.179 974.391,-389.7774 1040.5036,-378.9202"/>
<polygon fill="#191970" stroke="#191970" points="1041.1077,-382.368 1050.4083,-377.2937 1039.9732,-375.4605 1041.1077,-382.368"/>
</g>
<!-- Node21 -->
<g id="node22" class="node">
<title>Node21</title>
<polygon fill="#ffffff" stroke="#bfbfbf" points="556,-358.5 556,-377.5 686,-377.5 686,-358.5 556,-358.5"/>
<text text-anchor="middle" x="621" y="-365.5" font-family="Helvetica,sans-Serif" font-size="10.00" fill="#000000">odp/api/abi/packet_io.h</text>
</g>
<!-- Node20&#45;&gt;Node21 -->
<g id="edge31" class="edge">
<title>Node20&#45;&gt;Node21</title>
<path fill="none" stroke="#191970" d="M741.0736,-414.3733C717.3798,-405.2226 681.5489,-391.3844 655.1932,-381.2057"/>
<polygon fill="#191970" stroke="#191970" points="656.1906,-377.8389 645.6011,-377.5011 653.6686,-384.3689 656.1906,-377.8389"/>
</g>
<!-- Node22 -->
<g id="node23" class="node">
<title>Node22</title>
<g id="a_node23"><a xlink:href="spec_2packet_8h.html" target="_top" xlink:title="ODP packet descriptor. ">
<polygon fill="#ffffff" stroke="#000000" points="704.5,-358.5 704.5,-377.5 827.5,-377.5 827.5,-358.5 704.5,-358.5"/>
<text text-anchor="middle" x="766" y="-365.5" font-family="Helvetica,sans-Serif" font-size="10.00" fill="#000000">odp/api/spec/packet.h</text>
</a>
</g>
</g>
<!-- Node20&#45;&gt;Node22 -->
<g id="edge36" class="edge">
<title>Node20&#45;&gt;Node22</title>
<path fill="none" stroke="#191970" d="M766,-414.2455C766,-406.9382 766,-396.6944 766,-387.7046"/>
<polygon fill="#191970" stroke="#191970" points="769.5001,-387.6426 766,-377.6427 762.5001,-387.6427 769.5001,-387.6426"/>
</g>
<!-- Node22&#45;&gt;Node4 -->
<g id="edge37" class="edge">
<title>Node22&#45;&gt;Node4</title>
<path fill="none" stroke="#191970" d="M768.4276,-358.1865C773.3408,-337.4351 784,-287.5158 784,-245 784,-245 784,-245 784,-122 784,-89.7116 784,-52.1872 784,-29.8048"/>
<polygon fill="#191970" stroke="#191970" points="787.5001,-29.5883 784,-19.5884 780.5001,-29.5884 787.5001,-29.5883"/>
</g>
<!-- Node22&#45;&gt;Node9 -->
<g id="edge44" class="edge">
<title>Node22&#45;&gt;Node9</title>
<path fill="none" stroke="#191970" d="M704.4573,-359.0788C701.2612,-358.6948 698.0942,-358.3321 695,-358 587.3227,-346.4418 304.8983,-372.3142 209,-322 142.9007,-287.3202 114,-258.1445 114,-183.5 114,-183.5 114,-183.5 114,-122 114,-71.0738 171.2728,-39.3787 212.2917,-23.2092"/>
<polygon fill="#191970" stroke="#191970" points="213.6862,-26.4239 221.8057,-19.6178 211.214,-19.875 213.6862,-26.4239"/>
</g>
<!-- Node23 -->
<g id="node24" class="node">
<title>Node23</title>
<g id="a_node24"><a xlink:href="time_8h.html" target="_top" xlink:title="ODP time. ">
<polygon fill="#ffffff" stroke="#000000" points="668.5,-297 668.5,-316 755.5,-316 755.5,-297 668.5,-297"/>
<text text-anchor="middle" x="712" y="-304" font-family="Helvetica,sans-Serif" font-size="10.00" fill="#000000">odp/api/time.h</text>
</a>
</g>
</g>
<!-- Node22&#45;&gt;Node23 -->
<g id="edge38" class="edge">
<title>Node22&#45;&gt;Node23</title>
<path fill="none" stroke="#191970" d="M757.5625,-358.3906C749.4469,-349.1478 736.9945,-334.966 727.1576,-323.7628"/>
<polygon fill="#191970" stroke="#191970" points="729.7846,-321.45 720.5565,-316.2449 724.5245,-326.0686 729.7846,-321.45"/>
</g>
<!-- Node23&#45;&gt;Node1 -->
<g id="edge39" class="edge">
<title>Node23&#45;&gt;Node1</title>
<path fill="none" stroke="#191970" d="M754.0464,-296.9581C801.7136,-286.1406 879.4651,-268.4959 930.9293,-256.8168"/>
<polygon fill="#191970" stroke="#191970" points="931.8775,-260.1907 940.855,-254.5643 930.3283,-253.3642 931.8775,-260.1907"/>
</g>
<!-- Node24 -->
<g id="node25" class="node">
<title>Node24</title>
<polygon fill="#ffffff" stroke="#bfbfbf" points="590.5,-235.5 590.5,-254.5 695.5,-254.5 695.5,-235.5 590.5,-235.5"/>
<text text-anchor="middle" x="643" y="-242.5" font-family="Helvetica,sans-Serif" font-size="10.00" fill="#000000">odp/api/abi/time.h</text>
</g>
<!-- Node23&#45;&gt;Node24 -->
<g id="edge40" class="edge">
<title>Node23&#45;&gt;Node24</title>
<path fill="none" stroke="#191970" d="M701.2188,-296.8906C690.6474,-287.4683 674.3175,-272.9134 661.6397,-261.6137"/>
<polygon fill="#191970" stroke="#191970" points="663.7272,-258.7858 653.9333,-254.7449 659.0696,-264.0114 663.7272,-258.7858"/>
</g>
<!-- Node25 -->
<g id="node26" class="node">
<title>Node25</title>
<g id="a_node26"><a xlink:href="spec_2time_8h.html" target="_top" xlink:title="ODP time. ">
<polygon fill="#ffffff" stroke="#000000" points="604.5,-56.5 604.5,-75.5 717.5,-75.5 717.5,-56.5 604.5,-56.5"/>
<text text-anchor="middle" x="661" y="-63.5" font-family="Helvetica,sans-Serif" font-size="10.00" fill="#000000">odp/api/spec/time.h</text>
</a>
</g>
</g>
<!-- Node23&#45;&gt;Node25 -->
<g id="edge41" class="edge">
<title>Node23&#45;&gt;Node25</title>
<path fill="none" stroke="#191970" d="M711.3349,-296.7235C710.2971,-282.8962 707.9867,-256.873 704,-235 693.9963,-180.1152 676.1144,-116.6792 666.8793,-85.4405"/>
<polygon fill="#191970" stroke="#191970" points="670.2156,-84.3809 664.0004,-75.8006 663.5083,-86.384 670.2156,-84.3809"/>
</g>
<!-- Node25&#45;&gt;Node4 -->
<g id="edge42" class="edge">
<title>Node25&#45;&gt;Node4</title>
<path fill="none" stroke="#191970" d="M682.1445,-56.3733C701.8892,-47.3838 731.5698,-33.8706 753.8055,-23.7471"/>
<polygon fill="#191970" stroke="#191970" points="755.4806,-26.8302 763.1315,-19.5011 752.58,-20.4594 755.4806,-26.8302"/>
</g>
<!-- Node25&#45;&gt;Node9 -->
<g id="edge43" class="edge">
<title>Node25&#45;&gt;Node9</title>
<path fill="none" stroke="#191970" d="M604.2693,-58.2134C529.6692,-47.9742 398.8085,-30.0129 319.5961,-19.1406"/>
<polygon fill="#191970" stroke="#191970" points="319.6319,-15.6128 309.2488,-17.7204 318.68,-22.5478 319.6319,-15.6128"/>
</g>
<!-- Node26&#45;&gt;Node4 -->
<g id="edge47" class="edge">
<title>Node26&#45;&gt;Node4</title>
<path fill="none" stroke="#191970" d="M329.681,-294.7066C376.5553,-284.6299 445.3088,-269.5025 505,-255 538.9404,-246.7539 546.6074,-241.0908 581,-235 750.2243,-205.0309 806.9668,-264.1419 966,-199 986.1695,-190.7383 986.5818,-181.1023 1004,-168 1026.4634,-151.1026 1038.3803,-153.9014 1056,-132 1078.1213,-104.5031 1101.9516,-82.8078 1079,-56 1064.5589,-39.1326 937.2822,-24.2363 854.6925,-16.2294"/>
<polygon fill="#191970" stroke="#191970" points="854.8909,-12.7325 844.6029,-15.2639 854.224,-19.7007 854.8909,-12.7325"/>
</g>
<!-- Node26&#45;&gt;Node9 -->
<g id="edge61" class="edge">
<title>Node26&#45;&gt;Node9</title>
<path fill="none" stroke="#191970" d="M223.9337,-291.4398C204.9075,-283.4153 184.5715,-271.6651 171,-255 150.2371,-229.5042 152,-216.3806 152,-183.5 152,-183.5 152,-183.5 152,-122 152,-91.4754 152.0462,-79.9271 171,-56 182.3313,-41.6955 199.4041,-31.1119 215.0427,-23.7275"/>
<polygon fill="#191970" stroke="#191970" points="216.7962,-26.7793 224.5305,-19.5383 213.9688,-20.3757 216.7962,-26.7793"/>
</g>
<!-- Node27 -->
<g id="node28" class="node">
<title>Node27</title>
<g id="a_node28"><a xlink:href="schedule__types_8h.html" target="_top" xlink:title="ODP schedule. ">
<polygon fill="#ffffff" stroke="#000000" points="356,-235.5 356,-254.5 496,-254.5 496,-235.5 356,-235.5"/>
<text text-anchor="middle" x="426" y="-242.5" font-family="Helvetica,sans-Serif" font-size="10.00" fill="#000000">odp/api/schedule_types.h</text>
</a>
</g>
</g>
<!-- Node26&#45;&gt;Node27 -->
<g id="edge48" class="edge">
<title>Node26&#45;&gt;Node27</title>
<path fill="none" stroke="#191970" d="M311.1834,-291.4554C336.2113,-281.329 368.9163,-268.0964 393.0166,-258.3453"/>
<polygon fill="#191970" stroke="#191970" points="394.4882,-261.5256 402.4454,-254.5303 391.8627,-255.0366 394.4882,-261.5256"/>
</g>
<!-- Node32 -->
<g id="node33" class="node">
<title>Node32</title>
<g id="a_node33"><a xlink:href="deprecated_8h.html" target="_top" xlink:title="Control deprecated API definitions. ">
<polygon fill="#ffffff" stroke="#000000" points="180.5,-235.5 180.5,-254.5 299.5,-254.5 299.5,-235.5 180.5,-235.5"/>
<text text-anchor="middle" x="240" y="-242.5" font-family="Helvetica,sans-Serif" font-size="10.00" fill="#000000">odp/api/deprecated.h</text>
</a>
</g>
</g>
<!-- Node26&#45;&gt;Node32 -->
<g id="edge57" class="edge">
<title>Node26&#45;&gt;Node32</title>
<path fill="none" stroke="#191970" d="M265.5955,-291.2977C260.9743,-282.9388 255.2031,-272.4997 250.3111,-263.6509"/>
<polygon fill="#191970" stroke="#191970" points="253.3452,-261.9051 245.4438,-254.8469 247.2191,-265.292 253.3452,-261.9051"/>
</g>
<!-- Node28 -->
<g id="node29" class="node">
<title>Node28</title>
<polygon fill="#ffffff" stroke="#bfbfbf" points="506.5,-168.5 506.5,-198.5 623.5,-198.5 623.5,-168.5 506.5,-168.5"/>
<text text-anchor="start" x="514.5" y="-186.5" font-family="Helvetica,sans-Serif" font-size="10.00" fill="#000000">odp/api/abi/schedule</text>
<text text-anchor="middle" x="565" y="-175.5" font-family="Helvetica,sans-Serif" font-size="10.00" fill="#000000">_types.h</text>
</g>
<!-- Node27&#45;&gt;Node28 -->
<g id="edge49" class="edge">
<title>Node27&#45;&gt;Node28</title>
<path fill="none" stroke="#191970" d="M447.7188,-235.3906C467.4016,-226.682 496.9944,-213.5888 521.5288,-202.7336"/>
<polygon fill="#191970" stroke="#191970" points="523.268,-205.7915 530.9968,-198.5446 520.4357,-199.3901 523.268,-205.7915"/>
</g>
<!-- Node29 -->
<g id="node30" class="node">
<title>Node29</title>
<g id="a_node30"><a xlink:href="spec_2schedule__types_8h.html" target="_top" xlink:title="ODP schedule types. ">
<polygon fill="#ffffff" stroke="#000000" points="363.5,-168.5 363.5,-198.5 488.5,-198.5 488.5,-168.5 363.5,-168.5"/>
<text text-anchor="start" x="371.5" y="-186.5" font-family="Helvetica,sans-Serif" font-size="10.00" fill="#000000">odp/api/spec/schedule</text>
<text text-anchor="middle" x="426" y="-175.5" font-family="Helvetica,sans-Serif" font-size="10.00" fill="#000000">_types.h</text>
</a>
</g>
</g>
<!-- Node27&#45;&gt;Node29 -->
<g id="edge50" class="edge">
<title>Node27&#45;&gt;Node29</title>
<path fill="none" stroke="#191970" d="M426,-235.3906C426,-228.2234 426,-218.0862 426,-208.671"/>
<polygon fill="#191970" stroke="#191970" points="429.5001,-208.5446 426,-198.5446 422.5001,-208.5446 429.5001,-208.5446"/>
</g>
<!-- Node29&#45;&gt;Node4 -->
<g id="edge51" class="edge">
<title>Node29&#45;&gt;Node4</title>
<path fill="none" stroke="#191970" d="M445.5307,-168.4309C488.2179,-135.5413 586.6967,-59.9348 595,-56 632.0998,-38.4189 676.5857,-27.1621 713.0761,-20.1877"/>
<polygon fill="#191970" stroke="#191970" points="713.9434,-23.5869 723.1434,-18.3325 712.6747,-16.7028 713.9434,-23.5869"/>
</g>
<!-- Node29&#45;&gt;Node9 -->
<g id="edge56" class="edge">
<title>Node29&#45;&gt;Node9</title>
<path fill="none" stroke="#191970" d="M407.581,-168.3194C396.6399,-158.6806 382.9958,-145.5117 373,-132 350.4206,-101.4786 360.2711,-83.4083 334,-56 320.9333,-42.3677 302.9351,-31.6013 287.2225,-23.9225"/>
<polygon fill="#191970" stroke="#191970" points="288.3426,-20.5836 277.799,-19.5424 285.392,-26.9314 288.3426,-20.5836"/>
</g>
<!-- Node30 -->
<g id="node31" class="node">
<title>Node30</title>
<g id="a_node31"><a xlink:href="support_8h.html" target="_top" xlink:title="ODP support API &#45; platform specific header. ">
<polygon fill="#ffffff" stroke="#000000" points="382.5,-112.5 382.5,-131.5 483.5,-131.5 483.5,-112.5 382.5,-112.5"/>
<text text-anchor="middle" x="433" y="-119.5" font-family="Helvetica,sans-Serif" font-size="10.00" fill="#000000">odp/api/support.h</text>
</a>
</g>
</g>
<!-- Node29&#45;&gt;Node30 -->
<g id="edge52" class="edge">
<title>Node29&#45;&gt;Node30</title>
<path fill="none" stroke="#191970" d="M427.7303,-168.2977C428.6413,-160.2945 429.7693,-150.3843 430.7476,-141.7889"/>
<polygon fill="#191970" stroke="#191970" points="434.2258,-142.1786 431.8792,-131.8469 427.2707,-141.3869 434.2258,-142.1786"/>
</g>
<!-- Node31 -->
<g id="node32" class="node">
<title>Node31</title>
<g id="a_node32"><a xlink:href="spec_2support_8h.html" target="_top" xlink:title="ODP support API. ">
<polygon fill="#ffffff" stroke="#000000" points="382.5,-56.5 382.5,-75.5 509.5,-75.5 509.5,-56.5 382.5,-56.5"/>
<text text-anchor="middle" x="446" y="-63.5" font-family="Helvetica,sans-Serif" font-size="10.00" fill="#000000">odp/api/spec/support.h</text>
</a>
</g>
</g>
<!-- Node30&#45;&gt;Node31 -->
<g id="edge53" class="edge">
<title>Node30&#45;&gt;Node31</title>
<path fill="none" stroke="#191970" d="M435.2644,-112.2455C436.9794,-104.8579 439.3912,-94.4689 441.4944,-85.4087"/>
<polygon fill="#191970" stroke="#191970" points="444.9095,-86.1751 443.7615,-75.6427 438.0908,-84.5922 444.9095,-86.1751"/>
</g>
<!-- Node31&#45;&gt;Node4 -->
<g id="edge54" class="edge">
<title>Node31&#45;&gt;Node4</title>
<path fill="none" stroke="#191970" d="M503.7202,-56.4369C562.66,-46.6717 654.107,-31.5207 716.3966,-21.2006"/>
<polygon fill="#191970" stroke="#191970" points="717.2244,-24.6112 726.5178,-19.5237 716.0802,-17.7053 717.2244,-24.6112"/>
</g>
<!-- Node31&#45;&gt;Node9 -->
<g id="edge55" class="edge">
<title>Node31&#45;&gt;Node9</title>
<path fill="none" stroke="#191970" d="M412.8221,-56.3733C380.4513,-46.9807 331.0602,-32.6496 295.7576,-22.4064"/>
<polygon fill="#191970" stroke="#191970" points="296.3242,-18.9264 285.7449,-19.5011 294.3735,-25.6492 296.3242,-18.9264"/>
</g>
<!-- Node33 -->
<g id="node34" class="node">
<title>Node33</title>
<g id="a_node34"><a xlink:href="spec_2deprecated_8h.html" target="_top" xlink:title="Macro for deprecated API definitions. ">
<polygon fill="#ffffff" stroke="#000000" points="180.5,-56.5 180.5,-75.5 325.5,-75.5 325.5,-56.5 180.5,-56.5"/>
<text text-anchor="middle" x="253" y="-63.5" font-family="Helvetica,sans-Serif" font-size="10.00" fill="#000000">odp/api/spec/deprecated.h</text>
</a>
</g>
</g>
<!-- Node32&#45;&gt;Node33 -->
<g id="edge58" class="edge">
<title>Node32&#45;&gt;Node33</title>
<path fill="none" stroke="#191970" d="M240.6989,-235.3762C242.7445,-207.2097 248.7505,-124.5126 251.5423,-86.0713"/>
<polygon fill="#191970" stroke="#191970" points="255.064,-85.8987 252.2976,-75.6714 248.0824,-85.3916 255.064,-85.8987"/>
</g>
<!-- Node33&#45;&gt;Node4 -->
<g id="edge59" class="edge">
<title>Node33&#45;&gt;Node4</title>
<path fill="none" stroke="#191970" d="M325.7199,-58.3309C427.7365,-47.572 612.1419,-28.1244 713.1439,-17.4726"/>
<polygon fill="#191970" stroke="#191970" points="713.6705,-20.9365 723.2483,-16.407 712.9363,-13.9751 713.6705,-20.9365"/>
</g>
<!-- Node33&#45;&gt;Node9 -->
<g id="edge60" class="edge">
<title>Node33&#45;&gt;Node9</title>
<path fill="none" stroke="#191970" d="M253,-56.2455C253,-48.9382 253,-38.6944 253,-29.7046"/>
<polygon fill="#191970" stroke="#191970" points="256.5001,-29.6426 253,-19.6427 249.5001,-29.6427 256.5001,-29.6426"/>
</g>
<!-- Node34&#45;&gt;Node4 -->
<g id="edge64" class="edge">
<title>Node34&#45;&gt;Node4</title>
<path fill="none" stroke="#191970" d="M145.1436,-470.3836C160.0186,-447.7979 200.2124,-390.802 247,-358 282.6138,-333.0318 297.5943,-338.0976 338,-322 469.5831,-269.5775 519.6191,-285.2134 632,-199 697.3235,-148.8869 751.532,-65.0698 773.4973,-28.2674"/>
<polygon fill="#191970" stroke="#191970" points="776.5504,-29.9801 778.5984,-19.5851 770.515,-26.4341 776.5504,-29.9801"/>
</g>
<!-- Node34&#45;&gt;Node9 -->
<g id="edge68" class="edge">
<title>Node34&#45;&gt;Node9</title>
<path fill="none" stroke="#191970" d="M120.475,-470.3812C91.3172,-453.7571 38,-416.7005 38,-368 38,-368 38,-368 38,-122 38,-90.7875 38.7242,-76.7956 62,-56 80.4624,-39.5049 139.4082,-26.9251 186.985,-19.1246"/>
<polygon fill="#191970" stroke="#191970" points="187.6237,-22.567 196.9462,-17.5329 186.5191,-15.6547 187.6237,-22.567"/>
</g>
<!-- Node34&#45;&gt;Node20 -->
<g id="edge67" class="edge">
<title>Node34&#45;&gt;Node20</title>
<path fill="none" stroke="#191970" d="M199.6891,-474.5796C320.0355,-463.831 587.5575,-439.9375 706.7336,-429.2933"/>
<polygon fill="#191970" stroke="#191970" points="707.1197,-432.7729 716.7687,-428.3971 706.497,-425.8006 707.1197,-432.7729"/>
</g>
<!-- Node34&#45;&gt;Node30 -->
<g id="edge66" class="edge">
<title>Node34&#45;&gt;Node30</title>
<path fill="none" stroke="#191970" d="M139.7875,-470.2417C142.784,-439.4917 156.143,-343.5442 209,-291 242.204,-257.9925 272.6965,-285.7517 308,-255 340.981,-226.2713 323.7111,-199.5542 354,-168 366.9242,-154.5359 384.6441,-143.7351 400.0269,-135.9919"/>
<polygon fill="#191970" stroke="#191970" points="401.739,-139.0525 409.2391,-131.5692 398.7094,-132.742 401.739,-139.0525"/>
</g>
<!-- Node34&#45;&gt;Node32 -->
<g id="edge65" class="edge">
<title>Node34&#45;&gt;Node32</title>
<path fill="none" stroke="#191970" d="M135.5763,-470.3479C125.7102,-440.7003 100.2528,-349.4314 138,-291 148.1836,-275.2361 165.2075,-264.819 182.4585,-257.9582"/>
<polygon fill="#191970" stroke="#191970" points="183.8088,-261.1919 192.0238,-254.5012 181.4295,-254.6086 183.8088,-261.1919"/>
</g>
</g>
</svg>
