<?xml version="1.0" encoding="UTF-8" standalone="no"?>
<!DOCTYPE svg PUBLIC "-//W3C//DTD SVG 1.1//EN"
 "http://www.w3.org/Graphics/SVG/1.1/DTD/svg11.dtd">
<!-- Generated by graphviz version 2.40.1 (20161225.0304)
 -->
<!-- Title: deprecated.h Pages: 1 -->
<svg width="378pt" height="532pt"
 viewBox="0.00 0.00 377.83 532.00" xmlns="http://www.w3.org/2000/svg" xmlns:xlink="http://www.w3.org/1999/xlink">
<g id="graph0" class="graph" transform="scale(1 1) rotate(0) translate(4 528)">
<title>deprecated.h</title>
<polygon fill="#ffffff" stroke="transparent" points="-4,4 -4,-528 373.8306,-528 373.8306,4 -4,4"/>
<!-- Node4 -->
<g id="node1" class="node">
<title>Node4</title>
<polygon fill="#bfbfbf" stroke="#000000" points="113.5,-504.5 113.5,-523.5 193.5,-523.5 193.5,-504.5 113.5,-504.5"/>
<text text-anchor="middle" x="153.5" y="-511.5" font-family="Helvetica,sans-Serif" font-size="10.00" fill="#000000">deprecated.h</text>
</g>
<!-- Node5 -->
<g id="node2" class="node">
<title>Node5</title>
<g id="a_node2"><a xlink:href="abi-default_2classification_8h_source.html" target="_top" xlink:title="classification.h">
<polygon fill="#ffffff" stroke="#000000" points="0,-448.5 0,-467.5 89,-467.5 89,-448.5 0,-448.5"/>
<text text-anchor="middle" x="44.5" y="-455.5" font-family="Helvetica,sans-Serif" font-size="10.00" fill="#000000">classification.h</text>
</a>
</g>
</g>
<!-- Node4&#45;&gt;Node5 -->
<g id="edge1" class="edge">
<title>Node4&#45;&gt;Node5</title>
<path fill="none" stroke="#191970" d="M125.4658,-499.5971C105.9254,-489.558 80.3908,-476.4393 63.2688,-467.6427"/>
<polygon fill="#191970" stroke="#191970" points="124.0194,-502.7889 134.5136,-504.2455 127.2183,-496.5625 124.0194,-502.7889"/>
</g>
<!-- Node6 -->
<g id="node3" class="node">
<title>Node6</title>
<g id="a_node3"><a xlink:href="spec_2crypto_8h.html" target="_top" xlink:title="ODP crypto. ">
<polygon fill="#ffffff" stroke="#000000" points="10.5,-392.5 10.5,-411.5 66.5,-411.5 66.5,-392.5 10.5,-392.5"/>
<text text-anchor="middle" x="38.5" y="-399.5" font-family="Helvetica,sans-Serif" font-size="10.00" fill="#000000">crypto.h</text>
</a>
</g>
</g>
<!-- Node4&#45;&gt;Node6 -->
<g id="edge2" class="edge">
<title>Node4&#45;&gt;Node6</title>
<path fill="none" stroke="#191970" d="M139.7732,-495.8652C128.9636,-482.0904 113.1552,-463.0202 97.5,-448 83.2541,-434.332 65.1254,-420.6779 52.747,-411.8398"/>
<polygon fill="#191970" stroke="#191970" points="137.2189,-498.2839 146.1029,-504.0567 142.758,-494.0038 137.2189,-498.2839"/>
</g>
<!-- Node10 -->
<g id="node7" class="node">
<title>Node10</title>
<g id="a_node7"><a xlink:href="spec_2packet__io_8h.html" target="_top" xlink:title="ODP Packet IO. ">
<polygon fill="#ffffff" stroke="#000000" points="270,-280.5 270,-299.5 343,-299.5 343,-280.5 270,-280.5"/>
<text text-anchor="middle" x="306.5" y="-287.5" font-family="Helvetica,sans-Serif" font-size="10.00" fill="#000000">packet_io.h</text>
</a>
</g>
</g>
<!-- Node4&#45;&gt;Node10 -->
<g id="edge6" class="edge">
<title>Node4&#45;&gt;Node10</title>
<path fill="none" stroke="#191970" d="M187.8394,-500.3277C205.2622,-492.4187 226.1406,-481.3776 242.5,-468 267.2171,-447.788 274.606,-441.2096 287.5,-412 304.7266,-372.9757 306.6522,-320.9019 306.6557,-299.6474"/>
<polygon fill="#191970" stroke="#191970" points="186.3186,-497.1727 178.5662,-504.3943 189.13,-503.5834 186.3186,-497.1727"/>
</g>
<!-- Node16 -->
<g id="node13" class="node">
<title>Node16</title>
<g id="a_node13"><a xlink:href="queue__types_8h.html" target="_top" xlink:title="ODP queue types. ">
<polygon fill="#ffffff" stroke="#000000" points="145.5,-448.5 145.5,-467.5 233.5,-467.5 233.5,-448.5 145.5,-448.5"/>
<text text-anchor="middle" x="189.5" y="-455.5" font-family="Helvetica,sans-Serif" font-size="10.00" fill="#000000">queue_types.h</text>
</a>
</g>
</g>
<!-- Node4&#45;&gt;Node16 -->
<g id="edge15" class="edge">
<title>Node4&#45;&gt;Node16</title>
<path fill="none" stroke="#191970" d="M165.3096,-495.6296C171.3144,-486.2887 178.3659,-475.3197 183.3011,-467.6427"/>
<polygon fill="#191970" stroke="#191970" points="162.2342,-493.9411 159.7707,-504.2455 168.1225,-497.7264 162.2342,-493.9411"/>
</g>
<!-- Node7 -->
<g id="node4" class="node">
<title>Node7</title>
<g id="a_node4"><a xlink:href="crypto_8h.html" target="_top" xlink:title="ODP crypto. ">
<polygon fill="#ffffff" stroke="#000000" points="101.5,-280.5 101.5,-299.5 157.5,-299.5 157.5,-280.5 101.5,-280.5"/>
<text text-anchor="middle" x="129.5" y="-287.5" font-family="Helvetica,sans-Serif" font-size="10.00" fill="#000000">crypto.h</text>
</a>
</g>
</g>
<!-- Node6&#45;&gt;Node7 -->
<g id="edge3" class="edge">
<title>Node6&#45;&gt;Node7</title>
<path fill="none" stroke="#191970" d="M51.8633,-384.1337C61.9952,-370.7297 76.3699,-352.0123 89.5,-336 99.9685,-323.2335 112.532,-308.9447 120.7499,-299.7295"/>
<polygon fill="#191970" stroke="#191970" points="48.8096,-382.3709 45.5942,-392.4661 54.4032,-386.5795 48.8096,-382.3709"/>
</g>
<!-- Node8 -->
<g id="node5" class="node">
<title>Node8</title>
<g id="a_node5"><a xlink:href="spec_2ipsec_8h.html" target="_top" xlink:title="ODP IPSEC API. ">
<polygon fill="#ffffff" stroke="#000000" points="229,-56.5 229,-75.5 280,-75.5 280,-56.5 229,-56.5"/>
<text text-anchor="middle" x="254.5" y="-63.5" font-family="Helvetica,sans-Serif" font-size="10.00" fill="#000000">ipsec.h</text>
</a>
</g>
</g>
<!-- Node7&#45;&gt;Node8 -->
<g id="edge4" class="edge">
<title>Node7&#45;&gt;Node8</title>
<path fill="none" stroke="#191970" d="M125.8487,-270.3135C120.4393,-234.8905 114.3848,-159.6702 149.5,-112 168.2676,-86.5224 204.2268,-74.9479 228.7827,-69.8344"/>
<polygon fill="#191970" stroke="#191970" points="122.4229,-271.0476 127.5293,-280.3306 129.3264,-269.8893 122.4229,-271.0476"/>
</g>
<!-- Node9 -->
<g id="node6" class="node">
<title>Node9</title>
<g id="a_node6"><a xlink:href="ipsec_8h.html" target="_top" xlink:title="ODP IPSEC API &#45; platform specific header. ">
<polygon fill="#ffffff" stroke="#000000" points="229,-.5 229,-19.5 280,-19.5 280,-.5 229,-.5"/>
<text text-anchor="middle" x="254.5" y="-7.5" font-family="Helvetica,sans-Serif" font-size="10.00" fill="#000000">ipsec.h</text>
</a>
</g>
</g>
<!-- Node8&#45;&gt;Node9 -->
<g id="edge5" class="edge">
<title>Node8&#45;&gt;Node9</title>
<path fill="none" stroke="#191970" d="M254.5,-46.1575C254.5,-37.155 254.5,-26.9199 254.5,-19.6427"/>
<polygon fill="#191970" stroke="#191970" points="251.0001,-46.2455 254.5,-56.2455 258.0001,-46.2456 251.0001,-46.2455"/>
</g>
<!-- Node11 -->
<g id="node8" class="node">
<title>Node11</title>
<g id="a_node8"><a xlink:href="packet__io_8h.html" target="_top" xlink:title="ODP Packet IO. ">
<polygon fill="#ffffff" stroke="#000000" points="270,-224.5 270,-243.5 343,-243.5 343,-224.5 270,-224.5"/>
<text text-anchor="middle" x="306.5" y="-231.5" font-family="Helvetica,sans-Serif" font-size="10.00" fill="#000000">packet_io.h</text>
</a>
</g>
</g>
<!-- Node10&#45;&gt;Node11 -->
<g id="edge7" class="edge">
<title>Node10&#45;&gt;Node11</title>
<path fill="none" stroke="#191970" d="M306.5,-270.1575C306.5,-261.155 306.5,-250.9199 306.5,-243.6427"/>
<polygon fill="#191970" stroke="#191970" points="303.0001,-270.2455 306.5,-280.2455 310.0001,-270.2456 303.0001,-270.2455"/>
</g>
<!-- Node11&#45;&gt;Node8 -->
<g id="edge11" class="edge">
<title>Node11&#45;&gt;Node8</title>
<path fill="none" stroke="#191970" d="M331.4711,-218.3964C341.5401,-210.6245 352.0492,-200.2568 357.5,-188 371.2254,-157.1366 375.8805,-140.339 357.5,-112 340.5555,-85.875 304.9262,-74.4573 280.3586,-69.5556"/>
<polygon fill="#191970" stroke="#191970" points="329.3256,-215.6279 323.2373,-224.2988 333.404,-221.3172 329.3256,-215.6279"/>
</g>
<!-- Node12 -->
<g id="node9" class="node">
<title>Node12</title>
<g id="a_node9"><a xlink:href="spec_2classification_8h.html" target="_top" xlink:title="ODP classification descriptor. ">
<polygon fill="#ffffff" stroke="#000000" points="158,-168.5 158,-187.5 247,-187.5 247,-168.5 158,-168.5"/>
<text text-anchor="middle" x="202.5" y="-175.5" font-family="Helvetica,sans-Serif" font-size="10.00" fill="#000000">classification.h</text>
</a>
</g>
</g>
<!-- Node11&#45;&gt;Node12 -->
<g id="edge8" class="edge">
<title>Node11&#45;&gt;Node12</title>
<path fill="none" stroke="#191970" d="M279.4971,-219.46C260.8864,-209.4388 236.6701,-196.3993 220.4078,-187.6427"/>
<polygon fill="#191970" stroke="#191970" points="277.9205,-222.5861 288.3846,-224.2455 281.2392,-216.4228 277.9205,-222.5861"/>
</g>
<!-- Node14 -->
<g id="node11" class="node">
<title>Node14</title>
<g id="a_node11"><a xlink:href="spec_2traffic__mngr_8h.html" target="_top" xlink:title="Copyright (c) 2015&#45;2018, Linaro Limited All rights reserved. ">
<polygon fill="#ffffff" stroke="#000000" points="264.5,-168.5 264.5,-187.5 348.5,-187.5 348.5,-168.5 264.5,-168.5"/>
<text text-anchor="middle" x="306.5" y="-175.5" font-family="Helvetica,sans-Serif" font-size="10.00" fill="#000000">traffic_mngr.h</text>
</a>
</g>
</g>
<!-- Node11&#45;&gt;Node14 -->
<g id="edge12" class="edge">
<title>Node11&#45;&gt;Node14</title>
<path fill="none" stroke="#191970" d="M306.5,-214.1575C306.5,-205.155 306.5,-194.9199 306.5,-187.6427"/>
<polygon fill="#191970" stroke="#191970" points="303.0001,-214.2455 306.5,-224.2455 310.0001,-214.2456 303.0001,-214.2455"/>
</g>
<!-- Node13 -->
<g id="node10" class="node">
<title>Node13</title>
<g id="a_node10"><a xlink:href="classification_8h.html" target="_top" xlink:title="ODP classification descriptor. ">
<polygon fill="#ffffff" stroke="#000000" points="158,-112.5 158,-131.5 247,-131.5 247,-112.5 158,-112.5"/>
<text text-anchor="middle" x="202.5" y="-119.5" font-family="Helvetica,sans-Serif" font-size="10.00" fill="#000000">classification.h</text>
</a>
</g>
</g>
<!-- Node12&#45;&gt;Node13 -->
<g id="edge9" class="edge">
<title>Node12&#45;&gt;Node13</title>
<path fill="none" stroke="#191970" d="M202.5,-158.1575C202.5,-149.155 202.5,-138.9199 202.5,-131.6427"/>
<polygon fill="#191970" stroke="#191970" points="199.0001,-158.2455 202.5,-168.2455 206.0001,-158.2456 199.0001,-158.2455"/>
</g>
<!-- Node13&#45;&gt;Node8 -->
<g id="edge10" class="edge">
<title>Node13&#45;&gt;Node8</title>
<path fill="none" stroke="#191970" d="M218.4822,-104.7884C227.3778,-95.2085 238.1204,-83.6396 245.5461,-75.6427"/>
<polygon fill="#191970" stroke="#191970" points="215.7975,-102.536 211.5577,-112.2455 220.927,-107.2992 215.7975,-102.536"/>
</g>
<!-- Node15 -->
<g id="node12" class="node">
<title>Node15</title>
<g id="a_node12"><a xlink:href="traffic__mngr_8h.html" target="_top" xlink:title="ODP Traffic manager. ">
<polygon fill="#ffffff" stroke="#000000" points="264.5,-112.5 264.5,-131.5 348.5,-131.5 348.5,-112.5 264.5,-112.5"/>
<text text-anchor="middle" x="306.5" y="-119.5" font-family="Helvetica,sans-Serif" font-size="10.00" fill="#000000">traffic_mngr.h</text>
</a>
</g>
</g>
<!-- Node14&#45;&gt;Node15 -->
<g id="edge13" class="edge">
<title>Node14&#45;&gt;Node15</title>
<path fill="none" stroke="#191970" d="M306.5,-158.1575C306.5,-149.155 306.5,-138.9199 306.5,-131.6427"/>
<polygon fill="#191970" stroke="#191970" points="303.0001,-158.2455 306.5,-168.2455 310.0001,-158.2456 303.0001,-158.2455"/>
</g>
<!-- Node15&#45;&gt;Node8 -->
<g id="edge14" class="edge">
<title>Node15&#45;&gt;Node8</title>
<path fill="none" stroke="#191970" d="M290.5178,-104.7884C281.6222,-95.2085 270.8796,-83.6396 263.4539,-75.6427"/>
<polygon fill="#191970" stroke="#191970" points="288.073,-107.2992 297.4423,-112.2455 293.2025,-102.536 288.073,-107.2992"/>
</g>
<!-- Node17 -->
<g id="node14" class="node">
<title>Node17</title>
<g id="a_node14"><a xlink:href="spec_2queue_8h.html" target="_top" xlink:title="ODP queue. ">
<polygon fill="#ffffff" stroke="#000000" points="222.5,-392.5 222.5,-411.5 278.5,-411.5 278.5,-392.5 222.5,-392.5"/>
<text text-anchor="middle" x="250.5" y="-399.5" font-family="Helvetica,sans-Serif" font-size="10.00" fill="#000000">queue.h</text>
</a>
</g>
</g>
<!-- Node16&#45;&gt;Node17 -->
<g id="edge16" class="edge">
<title>Node16&#45;&gt;Node17</title>
<path fill="none" stroke="#191970" d="M207.6249,-441.3607C218.178,-431.6727 231.1112,-419.7995 239.9964,-411.6427"/>
<polygon fill="#191970" stroke="#191970" points="205.125,-438.9045 200.1254,-448.2455 209.8589,-444.0611 205.125,-438.9045"/>
</g>
<!-- Node21 -->
<g id="node18" class="node">
<title>Node21</title>
<g id="a_node18"><a xlink:href="queue__inline__types_8h_source.html" target="_top" xlink:title="queue_inline_types.h">
<polygon fill="#ffffff" stroke="#000000" points="84.5,-392.5 84.5,-411.5 204.5,-411.5 204.5,-392.5 84.5,-392.5"/>
<text text-anchor="middle" x="144.5" y="-399.5" font-family="Helvetica,sans-Serif" font-size="10.00" fill="#000000">queue_inline_types.h</text>
</a>
</g>
</g>
<!-- Node16&#45;&gt;Node21 -->
<g id="edge22" class="edge">
<title>Node16&#45;&gt;Node21</title>
<path fill="none" stroke="#191970" d="M175.2054,-440.2112C167.6004,-430.7472 158.5462,-419.4797 152.2486,-411.6427"/>
<polygon fill="#191970" stroke="#191970" points="172.6694,-442.6428 181.6616,-448.2455 178.1259,-438.2581 172.6694,-442.6428"/>
</g>
<!-- Node18 -->
<g id="node15" class="node">
<title>Node18</title>
<g id="a_node15"><a xlink:href="queue_8h.html" target="_top" xlink:title="ODP queue. ">
<polygon fill="#ffffff" stroke="#000000" points="216.5,-336.5 216.5,-355.5 272.5,-355.5 272.5,-336.5 216.5,-336.5"/>
<text text-anchor="middle" x="244.5" y="-343.5" font-family="Helvetica,sans-Serif" font-size="10.00" fill="#000000">queue.h</text>
</a>
</g>
</g>
<!-- Node17&#45;&gt;Node18 -->
<g id="edge17" class="edge">
<title>Node17&#45;&gt;Node18</title>
<path fill="none" stroke="#191970" d="M248.374,-382.1575C247.4095,-373.155 246.3128,-362.9199 245.5331,-355.6427"/>
<polygon fill="#191970" stroke="#191970" points="244.9094,-382.6753 249.4549,-392.2455 251.8695,-381.9296 244.9094,-382.6753"/>
</g>
<!-- Node18&#45;&gt;Node7 -->
<g id="edge18" class="edge">
<title>Node18&#45;&gt;Node7</title>
<path fill="none" stroke="#191970" d="M215.6967,-331.9741C194.875,-321.8348 167.3022,-308.408 149.0112,-299.5011"/>
<polygon fill="#191970" stroke="#191970" points="214.2078,-335.1419 224.7308,-336.3733 217.2724,-328.8484 214.2078,-335.1419"/>
</g>
<!-- Node18&#45;&gt;Node10 -->
<g id="edge19" class="edge">
<title>Node18&#45;&gt;Node10</title>
<path fill="none" stroke="#191970" d="M262.9221,-329.3607C273.6481,-319.6727 286.7934,-307.7995 295.8242,-299.6427"/>
<polygon fill="#191970" stroke="#191970" points="260.3746,-326.9453 255.2996,-336.2455 265.0666,-332.14 260.3746,-326.9453"/>
</g>
<!-- Node19 -->
<g id="node16" class="node">
<title>Node19</title>
<g id="a_node16"><a xlink:href="spec_2schedule_8h.html" target="_top" xlink:title="ODP schedule. ">
<polygon fill="#ffffff" stroke="#000000" points="183,-280.5 183,-299.5 252,-299.5 252,-280.5 183,-280.5"/>
<text text-anchor="middle" x="217.5" y="-287.5" font-family="Helvetica,sans-Serif" font-size="10.00" fill="#000000">schedule.h</text>
</a>
</g>
</g>
<!-- Node18&#45;&gt;Node19 -->
<g id="edge20" class="edge">
<title>Node18&#45;&gt;Node19</title>
<path fill="none" stroke="#191970" d="M235.3604,-327.0437C230.9195,-317.8331 225.7735,-307.1598 222.1491,-299.6427"/>
<polygon fill="#191970" stroke="#191970" points="232.3012,-328.7579 239.797,-336.2455 238.6066,-325.7178 232.3012,-328.7579"/>
</g>
<!-- Node20 -->
<g id="node17" class="node">
<title>Node20</title>
<g id="a_node17"><a xlink:href="schedule_8h.html" target="_top" xlink:title="ODP schedule. ">
<polygon fill="#ffffff" stroke="#000000" points="183,-224.5 183,-243.5 252,-243.5 252,-224.5 183,-224.5"/>
<text text-anchor="middle" x="217.5" y="-231.5" font-family="Helvetica,sans-Serif" font-size="10.00" fill="#000000">schedule.h</text>
</a>
</g>
</g>
<!-- Node19&#45;&gt;Node20 -->
<g id="edge21" class="edge">
<title>Node19&#45;&gt;Node20</title>
<path fill="none" stroke="#191970" d="M217.5,-270.1575C217.5,-261.155 217.5,-250.9199 217.5,-243.6427"/>
<polygon fill="#191970" stroke="#191970" points="214.0001,-270.2455 217.5,-280.2455 221.0001,-270.2456 214.0001,-270.2455"/>
</g>
<!-- Node22 -->
<g id="node19" class="node">
<title>Node22</title>
<g id="a_node19"><a xlink:href="queue__inlines_8h_source.html" target="_top" xlink:title="queue_inlines.h">
<polygon fill="#ffffff" stroke="#000000" points="98,-336.5 98,-355.5 191,-355.5 191,-336.5 98,-336.5"/>
<text text-anchor="middle" x="144.5" y="-343.5" font-family="Helvetica,sans-Serif" font-size="10.00" fill="#000000">queue_inlines.h</text>
</a>
</g>
</g>
<!-- Node21&#45;&gt;Node22 -->
<g id="edge23" class="edge">
<title>Node21&#45;&gt;Node22</title>
<path fill="none" stroke="#191970" d="M144.5,-382.1575C144.5,-373.155 144.5,-362.9199 144.5,-355.6427"/>
<polygon fill="#191970" stroke="#191970" points="141.0001,-382.2455 144.5,-392.2455 148.0001,-382.2456 141.0001,-382.2455"/>
</g>
</g>
</svg>
