<?xml version="1.0" encoding="UTF-8" standalone="no"?>
<!DOCTYPE svg PUBLIC "-//W3C//DTD SVG 1.1//EN"
 "http://www.w3.org/Graphics/SVG/1.1/DTD/svg11.dtd">
<!-- Generated by graphviz version 2.40.1 (20161225.0304)
 -->
<!-- Title: event.h Pages: 1 -->
<svg width="279pt" height="476pt"
 viewBox="0.00 0.00 279.00 476.00" xmlns="http://www.w3.org/2000/svg" xmlns:xlink="http://www.w3.org/1999/xlink">
<g id="graph0" class="graph" transform="scale(1 1) rotate(0) translate(4 472)">
<title>event.h</title>
<polygon fill="#ffffff" stroke="transparent" points="-4,4 -4,-472 275,-472 275,4 -4,4"/>
<!-- Node22 -->
<g id="node1" class="node">
<title>Node22</title>
<polygon fill="#bfbfbf" stroke="#000000" points="143.5,-448.5 143.5,-467.5 196.5,-467.5 196.5,-448.5 143.5,-448.5"/>
<text text-anchor="middle" x="170" y="-455.5" font-family="Helvetica,sans-Serif" font-size="10.00" fill="#000000">event.h</text>
</g>
<!-- Node23 -->
<g id="node2" class="node">
<title>Node23</title>
<g id="a_node2"><a xlink:href="spec_2queue_8h.html" target="_top" xlink:title="ODP queue. ">
<polygon fill="#ffffff" stroke="#000000" points="114,-392.5 114,-411.5 170,-411.5 170,-392.5 114,-392.5"/>
<text text-anchor="middle" x="142" y="-399.5" font-family="Helvetica,sans-Serif" font-size="10.00" fill="#000000">queue.h</text>
</a>
</g>
</g>
<!-- Node22&#45;&gt;Node23 -->
<g id="edge1" class="edge">
<title>Node22&#45;&gt;Node23</title>
<path fill="none" stroke="#191970" d="M160.5219,-439.0437C155.9165,-429.8331 150.5799,-419.1598 146.8213,-411.6427"/>
<polygon fill="#191970" stroke="#191970" points="157.5201,-440.8665 165.1228,-448.2455 163.7811,-437.736 157.5201,-440.8665"/>
</g>
<!-- Node34 -->
<g id="node13" class="node">
<title>Node34</title>
<g id="a_node13"><a xlink:href="spec_2schedule_8h.html" target="_top" xlink:title="ODP schedule. ">
<polygon fill="#ffffff" stroke="#000000" points="172.5,-280.5 172.5,-299.5 241.5,-299.5 241.5,-280.5 172.5,-280.5"/>
<text text-anchor="middle" x="207" y="-287.5" font-family="Helvetica,sans-Serif" font-size="10.00" fill="#000000">schedule.h</text>
</a>
</g>
</g>
<!-- Node22&#45;&gt;Node34 -->
<g id="edge17" class="edge">
<title>Node22&#45;&gt;Node34</title>
<path fill="none" stroke="#191970" d="M174.3475,-438.2601C182.2966,-402.1669 198.9028,-326.7656 204.8355,-299.8279"/>
<polygon fill="#191970" stroke="#191970" points="170.8281,-437.9675 172.0953,-448.4862 177.6643,-439.4731 170.8281,-437.9675"/>
</g>
<!-- Node24 -->
<g id="node3" class="node">
<title>Node24</title>
<g id="a_node3"><a xlink:href="queue_8h.html" target="_top" xlink:title="ODP queue. ">
<polygon fill="#ffffff" stroke="#000000" points="106,-336.5 106,-355.5 162,-355.5 162,-336.5 106,-336.5"/>
<text text-anchor="middle" x="134" y="-343.5" font-family="Helvetica,sans-Serif" font-size="10.00" fill="#000000">queue.h</text>
</a>
</g>
</g>
<!-- Node23&#45;&gt;Node24 -->
<g id="edge2" class="edge">
<title>Node23&#45;&gt;Node24</title>
<path fill="none" stroke="#191970" d="M139.1654,-382.1575C137.8793,-373.155 136.4171,-362.9199 135.3775,-355.6427"/>
<polygon fill="#191970" stroke="#191970" points="135.7274,-382.8411 140.6065,-392.2455 142.657,-381.851 135.7274,-382.8411"/>
</g>
<!-- Node25 -->
<g id="node4" class="node">
<title>Node25</title>
<g id="a_node4"><a xlink:href="crypto_8h.html" target="_top" xlink:title="ODP crypto. ">
<polygon fill="#ffffff" stroke="#000000" points="0,-224.5 0,-243.5 56,-243.5 56,-224.5 0,-224.5"/>
<text text-anchor="middle" x="28" y="-231.5" font-family="Helvetica,sans-Serif" font-size="10.00" fill="#000000">crypto.h</text>
</a>
</g>
</g>
<!-- Node24&#45;&gt;Node25 -->
<g id="edge3" class="edge">
<title>Node24&#45;&gt;Node25</title>
<path fill="none" stroke="#191970" d="M109.3397,-330.6184C97.287,-322.4065 83.0398,-311.6098 72,-300 55.1084,-282.2363 40.4345,-257.2669 33.0607,-243.7003"/>
<polygon fill="#191970" stroke="#191970" points="107.7661,-333.7735 118.0391,-336.3648 111.6242,-327.9327 107.7661,-333.7735"/>
</g>
<!-- Node28 -->
<g id="node7" class="node">
<title>Node28</title>
<g id="a_node7"><a xlink:href="spec_2packet__io_8h.html" target="_top" xlink:title="ODP Packet IO. ">
<polygon fill="#ffffff" stroke="#000000" points="81.5,-280.5 81.5,-299.5 154.5,-299.5 154.5,-280.5 81.5,-280.5"/>
<text text-anchor="middle" x="118" y="-287.5" font-family="Helvetica,sans-Serif" font-size="10.00" fill="#000000">packet_io.h</text>
</a>
</g>
</g>
<!-- Node24&#45;&gt;Node28 -->
<g id="edge6" class="edge">
<title>Node24&#45;&gt;Node28</title>
<path fill="none" stroke="#191970" d="M128.4154,-326.4538C125.823,-317.3803 122.8571,-306.9998 120.755,-299.6427"/>
<polygon fill="#191970" stroke="#191970" points="125.1004,-327.5919 131.213,-336.2455 131.8311,-325.6688 125.1004,-327.5919"/>
</g>
<!-- Node24&#45;&gt;Node34 -->
<g id="edge15" class="edge">
<title>Node24&#45;&gt;Node34</title>
<path fill="none" stroke="#191970" d="M154.951,-329.928C167.7107,-320.1397 183.5885,-307.9595 194.4301,-299.6427"/>
<polygon fill="#191970" stroke="#191970" points="152.5196,-327.3819 146.7156,-336.2455 156.7803,-332.9359 152.5196,-327.3819"/>
</g>
<!-- Node26 -->
<g id="node5" class="node">
<title>Node26</title>
<g id="a_node5"><a xlink:href="spec_2ipsec_8h.html" target="_top" xlink:title="ODP IPSEC API. ">
<polygon fill="#ffffff" stroke="#000000" points="62.5,-56.5 62.5,-75.5 113.5,-75.5 113.5,-56.5 62.5,-56.5"/>
<text text-anchor="middle" x="88" y="-63.5" font-family="Helvetica,sans-Serif" font-size="10.00" fill="#000000">ipsec.h</text>
</a>
</g>
</g>
<!-- Node25&#45;&gt;Node26 -->
<g id="edge4" class="edge">
<title>Node25&#45;&gt;Node26</title>
<path fill="none" stroke="#191970" d="M32.2226,-214.4164C37.8141,-189.9418 48.6646,-147.0137 63,-112 68.3725,-98.8779 76.4807,-84.6668 81.9955,-75.5667"/>
<polygon fill="#191970" stroke="#191970" points="28.7861,-213.7467 30.03,-224.2682 35.6189,-215.2674 28.7861,-213.7467"/>
</g>
<!-- Node27 -->
<g id="node6" class="node">
<title>Node27</title>
<g id="a_node6"><a xlink:href="ipsec_8h.html" target="_top" xlink:title="ODP IPSEC API &#45; platform specific header. ">
<polygon fill="#ffffff" stroke="#000000" points="62.5,-.5 62.5,-19.5 113.5,-19.5 113.5,-.5 62.5,-.5"/>
<text text-anchor="middle" x="88" y="-7.5" font-family="Helvetica,sans-Serif" font-size="10.00" fill="#000000">ipsec.h</text>
</a>
</g>
</g>
<!-- Node26&#45;&gt;Node27 -->
<g id="edge5" class="edge">
<title>Node26&#45;&gt;Node27</title>
<path fill="none" stroke="#191970" d="M88,-46.1575C88,-37.155 88,-26.9199 88,-19.6427"/>
<polygon fill="#191970" stroke="#191970" points="84.5001,-46.2455 88,-56.2455 91.5001,-46.2456 84.5001,-46.2455"/>
</g>
<!-- Node29 -->
<g id="node8" class="node">
<title>Node29</title>
<g id="a_node8"><a xlink:href="packet__io_8h.html" target="_top" xlink:title="ODP Packet IO. ">
<polygon fill="#ffffff" stroke="#000000" points="81.5,-224.5 81.5,-243.5 154.5,-243.5 154.5,-224.5 81.5,-224.5"/>
<text text-anchor="middle" x="118" y="-231.5" font-family="Helvetica,sans-Serif" font-size="10.00" fill="#000000">packet_io.h</text>
</a>
</g>
</g>
<!-- Node28&#45;&gt;Node29 -->
<g id="edge7" class="edge">
<title>Node28&#45;&gt;Node29</title>
<path fill="none" stroke="#191970" d="M118,-270.1575C118,-261.155 118,-250.9199 118,-243.6427"/>
<polygon fill="#191970" stroke="#191970" points="114.5001,-270.2455 118,-280.2455 121.5001,-270.2456 114.5001,-270.2455"/>
</g>
<!-- Node29&#45;&gt;Node26 -->
<g id="edge11" class="edge">
<title>Node29&#45;&gt;Node26</title>
<path fill="none" stroke="#191970" d="M95.0503,-218.092C85.7314,-210.235 75.9978,-199.8847 71,-188 54.5032,-148.771 73.9262,-96.8107 83.3934,-75.617"/>
<polygon fill="#191970" stroke="#191970" points="92.9752,-220.9126 103.0035,-224.3308 97.2957,-215.4049 92.9752,-220.9126"/>
</g>
<!-- Node30 -->
<g id="node9" class="node">
<title>Node30</title>
<g id="a_node9"><a xlink:href="spec_2classification_8h.html" target="_top" xlink:title="ODP classification descriptor. ">
<polygon fill="#ffffff" stroke="#000000" points="80.5,-168.5 80.5,-187.5 169.5,-187.5 169.5,-168.5 80.5,-168.5"/>
<text text-anchor="middle" x="125" y="-175.5" font-family="Helvetica,sans-Serif" font-size="10.00" fill="#000000">classification.h</text>
</a>
</g>
</g>
<!-- Node29&#45;&gt;Node30 -->
<g id="edge8" class="edge">
<title>Node29&#45;&gt;Node30</title>
<path fill="none" stroke="#191970" d="M120.4803,-214.1575C121.6056,-205.155 122.885,-194.9199 123.7947,-187.6427"/>
<polygon fill="#191970" stroke="#191970" points="116.9868,-213.8886 119.2193,-224.2455 123.9327,-214.7569 116.9868,-213.8886"/>
</g>
<!-- Node32 -->
<g id="node11" class="node">
<title>Node32</title>
<g id="a_node11"><a xlink:href="spec_2traffic__mngr_8h.html" target="_top" xlink:title="Copyright (c) 2015&#45;2018, Linaro Limited All rights reserved. ">
<polygon fill="#ffffff" stroke="#000000" points="187,-168.5 187,-187.5 271,-187.5 271,-168.5 187,-168.5"/>
<text text-anchor="middle" x="229" y="-175.5" font-family="Helvetica,sans-Serif" font-size="10.00" fill="#000000">traffic_mngr.h</text>
</a>
</g>
</g>
<!-- Node29&#45;&gt;Node32 -->
<g id="edge12" class="edge">
<title>Node29&#45;&gt;Node32</title>
<path fill="none" stroke="#191970" d="M146.0734,-219.8368C166.1385,-209.7139 192.5922,-196.3679 210.1674,-187.5011"/>
<polygon fill="#191970" stroke="#191970" points="144.4332,-216.7441 137.0816,-224.3733 147.5862,-222.9938 144.4332,-216.7441"/>
</g>
<!-- Node31 -->
<g id="node10" class="node">
<title>Node31</title>
<g id="a_node10"><a xlink:href="classification_8h.html" target="_top" xlink:title="ODP classification descriptor. ">
<polygon fill="#ffffff" stroke="#000000" points="80.5,-112.5 80.5,-131.5 169.5,-131.5 169.5,-112.5 80.5,-112.5"/>
<text text-anchor="middle" x="125" y="-119.5" font-family="Helvetica,sans-Serif" font-size="10.00" fill="#000000">classification.h</text>
</a>
</g>
</g>
<!-- Node30&#45;&gt;Node31 -->
<g id="edge9" class="edge">
<title>Node30&#45;&gt;Node31</title>
<path fill="none" stroke="#191970" d="M125,-158.1575C125,-149.155 125,-138.9199 125,-131.6427"/>
<polygon fill="#191970" stroke="#191970" points="121.5001,-158.2455 125,-168.2455 128.5001,-158.2456 121.5001,-158.2455"/>
</g>
<!-- Node31&#45;&gt;Node26 -->
<g id="edge10" class="edge">
<title>Node31&#45;&gt;Node26</title>
<path fill="none" stroke="#191970" d="M112.8624,-103.6296C106.6907,-94.2887 99.4434,-83.3197 94.3711,-75.6427"/>
<polygon fill="#191970" stroke="#191970" points="110.1223,-105.8316 118.5551,-112.2455 115.9627,-101.9728 110.1223,-105.8316"/>
</g>
<!-- Node33 -->
<g id="node12" class="node">
<title>Node33</title>
<g id="a_node12"><a xlink:href="traffic__mngr_8h.html" target="_top" xlink:title="ODP Traffic manager. ">
<polygon fill="#ffffff" stroke="#000000" points="187,-112.5 187,-131.5 271,-131.5 271,-112.5 187,-112.5"/>
<text text-anchor="middle" x="229" y="-119.5" font-family="Helvetica,sans-Serif" font-size="10.00" fill="#000000">traffic_mngr.h</text>
</a>
</g>
</g>
<!-- Node32&#45;&gt;Node33 -->
<g id="edge13" class="edge">
<title>Node32&#45;&gt;Node33</title>
<path fill="none" stroke="#191970" d="M229,-158.1575C229,-149.155 229,-138.9199 229,-131.6427"/>
<polygon fill="#191970" stroke="#191970" points="225.5001,-158.2455 229,-168.2455 232.5001,-158.2456 225.5001,-158.2455"/>
</g>
<!-- Node33&#45;&gt;Node26 -->
<g id="edge14" class="edge">
<title>Node33&#45;&gt;Node26</title>
<path fill="none" stroke="#191970" d="M195.3968,-108.6541C169.6841,-98.4419 134.8539,-84.6086 111.9225,-75.5011"/>
<polygon fill="#191970" stroke="#191970" points="194.1755,-111.9349 204.7612,-112.3733 196.7593,-105.4292 194.1755,-111.9349"/>
</g>
<!-- Node35 -->
<g id="node14" class="node">
<title>Node35</title>
<g id="a_node14"><a xlink:href="schedule_8h.html" target="_top" xlink:title="ODP schedule. ">
<polygon fill="#ffffff" stroke="#000000" points="172.5,-224.5 172.5,-243.5 241.5,-243.5 241.5,-224.5 172.5,-224.5"/>
<text text-anchor="middle" x="207" y="-231.5" font-family="Helvetica,sans-Serif" font-size="10.00" fill="#000000">schedule.h</text>
</a>
</g>
</g>
<!-- Node34&#45;&gt;Node35 -->
<g id="edge16" class="edge">
<title>Node34&#45;&gt;Node35</title>
<path fill="none" stroke="#191970" d="M207,-270.1575C207,-261.155 207,-250.9199 207,-243.6427"/>
<polygon fill="#191970" stroke="#191970" points="203.5001,-270.2455 207,-280.2455 210.5001,-270.2456 203.5001,-270.2455"/>
</g>
</g>
</svg>
