<?xml version="1.0" encoding="UTF-8" standalone="no"?>
<!DOCTYPE svg PUBLIC "-//W3C//DTD SVG 1.1//EN"
 "http://www.w3.org/Graphics/SVG/1.1/DTD/svg11.dtd">
<!-- Generated by graphviz version 2.40.1 (20161225.0304)
 -->
<!-- Title: hints.h Pages: 1 -->
<svg width="535pt" height="252pt"
 viewBox="0.00 0.00 535.00 252.00" xmlns="http://www.w3.org/2000/svg" xmlns:xlink="http://www.w3.org/1999/xlink">
<g id="graph0" class="graph" transform="scale(1 1) rotate(0) translate(4 248)">
<title>hints.h</title>
<polygon fill="#ffffff" stroke="transparent" points="-4,4 -4,-248 531,-248 531,4 -4,4"/>
<!-- Node4 -->
<g id="node1" class="node">
<title>Node4</title>
<polygon fill="#bfbfbf" stroke="#000000" points="224,-224.5 224,-243.5 274,-243.5 274,-224.5 224,-224.5"/>
<text text-anchor="middle" x="249" y="-231.5" font-family="Helvetica,sans-Serif" font-size="10.00" fill="#000000">hints.h</text>
</g>
<!-- Node5 -->
<g id="node2" class="node">
<title>Node5</title>
<g id="a_node2"><a xlink:href="spec_2init_8h.html" target="_top" xlink:title="init.h">
<polygon fill="#ffffff" stroke="#000000" points="31.5,-168.5 31.5,-187.5 72.5,-187.5 72.5,-168.5 31.5,-168.5"/>
<text text-anchor="middle" x="52" y="-175.5" font-family="Helvetica,sans-Serif" font-size="10.00" fill="#000000">init.h</text>
</a>
</g>
</g>
<!-- Node4&#45;&gt;Node5 -->
<g id="edge1" class="edge">
<title>Node4&#45;&gt;Node5</title>
<path fill="none" stroke="#191970" d="M214.102,-224.9637C180.2087,-216.0519 127.3689,-201.7993 82,-188 78.9536,-187.0734 75.7476,-186.0534 72.6108,-185.0298"/>
<polygon fill="#191970" stroke="#191970" points="213.4226,-228.4037 223.9831,-227.5515 215.1962,-221.6321 213.4226,-228.4037"/>
</g>
<!-- Node9 -->
<g id="node6" class="node">
<title>Node9</title>
<g id="a_node6"><a xlink:href="cpu__inlines_8h_source.html" target="_top" xlink:title="cpu_inlines.h">
<polygon fill="#ffffff" stroke="#000000" points="91,-168.5 91,-187.5 171,-187.5 171,-168.5 91,-168.5"/>
<text text-anchor="middle" x="131" y="-175.5" font-family="Helvetica,sans-Serif" font-size="10.00" fill="#000000">cpu_inlines.h</text>
</a>
</g>
</g>
<!-- Node4&#45;&gt;Node9 -->
<g id="edge5" class="edge">
<title>Node4&#45;&gt;Node9</title>
<path fill="none" stroke="#191970" d="M219.4453,-219.9741C198.0805,-209.8348 169.7884,-196.408 151.0202,-187.5011"/>
<polygon fill="#191970" stroke="#191970" points="218.1802,-223.2478 228.7151,-224.3733 221.1814,-216.9238 218.1802,-223.2478"/>
</g>
<!-- Node10 -->
<g id="node7" class="node">
<title>Node10</title>
<g id="a_node7"><a xlink:href="packet__flag__inlines_8h.html" target="_top" xlink:title="Packet inline functions. ">
<polygon fill="#ffffff" stroke="#000000" points="189.5,-168.5 189.5,-187.5 308.5,-187.5 308.5,-168.5 189.5,-168.5"/>
<text text-anchor="middle" x="249" y="-175.5" font-family="Helvetica,sans-Serif" font-size="10.00" fill="#000000">packet_flag_inlines.h</text>
</a>
</g>
</g>
<!-- Node4&#45;&gt;Node10 -->
<g id="edge6" class="edge">
<title>Node4&#45;&gt;Node10</title>
<path fill="none" stroke="#191970" d="M249,-214.1575C249,-205.155 249,-194.9199 249,-187.6427"/>
<polygon fill="#191970" stroke="#191970" points="245.5001,-214.2455 249,-224.2455 252.5001,-214.2456 245.5001,-214.2455"/>
</g>
<!-- Node11 -->
<g id="node8" class="node">
<title>Node11</title>
<g id="a_node8"><a xlink:href="packet__inlines_8h.html" target="_top" xlink:title="Packet inline functions. ">
<polygon fill="#ffffff" stroke="#000000" points="327,-168.5 327,-187.5 423,-187.5 423,-168.5 327,-168.5"/>
<text text-anchor="middle" x="375" y="-175.5" font-family="Helvetica,sans-Serif" font-size="10.00" fill="#000000">packet_inlines.h</text>
</a>
</g>
</g>
<!-- Node4&#45;&gt;Node11 -->
<g id="edge7" class="edge">
<title>Node4&#45;&gt;Node11</title>
<path fill="none" stroke="#191970" d="M279.9436,-220.2473C302.8265,-210.0771 333.4014,-196.4883 353.6225,-187.5011"/>
<polygon fill="#191970" stroke="#191970" points="278.3768,-217.1135 270.6602,-224.3733 281.2198,-223.5102 278.3768,-217.1135"/>
</g>
<!-- Node12 -->
<g id="node9" class="node">
<title>Node12</title>
<g id="a_node9"><a xlink:href="time__inlines_8h_source.html" target="_top" xlink:title="time_inlines.h">
<polygon fill="#ffffff" stroke="#000000" points="441,-168.5 441,-187.5 527,-187.5 527,-168.5 441,-168.5"/>
<text text-anchor="middle" x="484" y="-175.5" font-family="Helvetica,sans-Serif" font-size="10.00" fill="#000000">time_inlines.h</text>
</a>
</g>
</g>
<!-- Node4&#45;&gt;Node12 -->
<g id="edge8" class="edge">
<title>Node4&#45;&gt;Node12</title>
<path fill="none" stroke="#191970" d="M284.0904,-225.638C326.8231,-215.4549 398.845,-198.2923 443.7774,-187.585"/>
<polygon fill="#191970" stroke="#191970" points="283.0654,-222.2842 274.1491,-228.007 284.6881,-229.0935 283.0654,-222.2842"/>
</g>
<!-- Node6 -->
<g id="node3" class="node">
<title>Node6</title>
<g id="a_node3"><a xlink:href="init_8h.html" target="_top" xlink:title="ODP initialization. ">
<polygon fill="#ffffff" stroke="#000000" points="31.5,-112.5 31.5,-131.5 72.5,-131.5 72.5,-112.5 31.5,-112.5"/>
<text text-anchor="middle" x="52" y="-119.5" font-family="Helvetica,sans-Serif" font-size="10.00" fill="#000000">init.h</text>
</a>
</g>
</g>
<!-- Node5&#45;&gt;Node6 -->
<g id="edge2" class="edge">
<title>Node5&#45;&gt;Node6</title>
<path fill="none" stroke="#191970" d="M52,-158.1575C52,-149.155 52,-138.9199 52,-131.6427"/>
<polygon fill="#191970" stroke="#191970" points="48.5001,-158.2455 52,-168.2455 55.5001,-158.2456 48.5001,-158.2455"/>
</g>
<!-- Node7 -->
<g id="node4" class="node">
<title>Node7</title>
<g id="a_node4"><a xlink:href="spec_2shared__memory_8h.html" target="_top" xlink:title="ODP shared memory. ">
<polygon fill="#ffffff" stroke="#000000" points="0,-56.5 0,-75.5 104,-75.5 104,-56.5 0,-56.5"/>
<text text-anchor="middle" x="52" y="-63.5" font-family="Helvetica,sans-Serif" font-size="10.00" fill="#000000">shared_memory.h</text>
</a>
</g>
</g>
<!-- Node6&#45;&gt;Node7 -->
<g id="edge3" class="edge">
<title>Node6&#45;&gt;Node7</title>
<path fill="none" stroke="#191970" d="M52,-102.1575C52,-93.155 52,-82.9199 52,-75.6427"/>
<polygon fill="#191970" stroke="#191970" points="48.5001,-102.2455 52,-112.2455 55.5001,-102.2456 48.5001,-102.2455"/>
</g>
<!-- Node8 -->
<g id="node5" class="node">
<title>Node8</title>
<g id="a_node5"><a xlink:href="shared__memory_8h.html" target="_top" xlink:title="ODP shared memory. ">
<polygon fill="#ffffff" stroke="#000000" points="0,-.5 0,-19.5 104,-19.5 104,-.5 0,-.5"/>
<text text-anchor="middle" x="52" y="-7.5" font-family="Helvetica,sans-Serif" font-size="10.00" fill="#000000">shared_memory.h</text>
</a>
</g>
</g>
<!-- Node7&#45;&gt;Node8 -->
<g id="edge4" class="edge">
<title>Node7&#45;&gt;Node8</title>
<path fill="none" stroke="#191970" d="M52,-46.1575C52,-37.155 52,-26.9199 52,-19.6427"/>
<polygon fill="#191970" stroke="#191970" points="48.5001,-46.2455 52,-56.2455 55.5001,-46.2456 48.5001,-46.2455"/>
</g>
</g>
</svg>
