<?xml version="1.0" encoding="UTF-8" standalone="no"?>
<!DOCTYPE svg PUBLIC "-//W3C//DTD SVG 1.1//EN"
 "http://www.w3.org/Graphics/SVG/1.1/DTD/svg11.dtd">
<!-- Generated by graphviz version 2.40.1 (20161225.0304)
 -->
<!-- Title: ipsec.h Pages: 1 -->
<svg width="2134pt" height="1013pt"
 viewBox="0.00 0.00 2134.00 1013.00" xmlns="http://www.w3.org/2000/svg" xmlns:xlink="http://www.w3.org/1999/xlink">
<g id="graph0" class="graph" transform="scale(1 1) rotate(0) translate(4 1009)">
<title>ipsec.h</title>
<polygon fill="#ffffff" stroke="transparent" points="-4,4 -4,-1009 2130,-1009 2130,4 -4,4"/>
<!-- Node0 -->
<g id="node1" class="node">
<title>Node0</title>
<polygon fill="#bfbfbf" stroke="#000000" points="669.5,-985.5 669.5,-1004.5 720.5,-1004.5 720.5,-985.5 669.5,-985.5"/>
<text text-anchor="middle" x="695" y="-992.5" font-family="Helvetica,sans-Serif" font-size="10.00" fill="#000000">ipsec.h</text>
</g>
<!-- Node1 -->
<g id="node2" class="node">
<title>Node1</title>
<polygon fill="#ffffff" stroke="#bfbfbf" points="576,-929.5 576,-948.5 684,-948.5 684,-929.5 576,-929.5"/>
<text text-anchor="middle" x="630" y="-936.5" font-family="Helvetica,sans-Serif" font-size="10.00" fill="#000000">odp/api/abi/ipsec.h</text>
</g>
<!-- Node0&#45;&gt;Node1 -->
<g id="edge1" class="edge">
<title>Node0&#45;&gt;Node1</title>
<path fill="none" stroke="#191970" d="M683.6779,-985.2455C674.0777,-976.9746 660.1108,-964.9416 648.8305,-955.2232"/>
<polygon fill="#191970" stroke="#191970" points="651.053,-952.5182 641.1924,-948.6427 646.484,-957.8214 651.053,-952.5182"/>
</g>
<!-- Node2 -->
<g id="node3" class="node">
<title>Node2</title>
<g id="a_node3"><a xlink:href="spec_2ipsec_8h.html" target="_top" xlink:title="ODP IPSEC API. ">
<polygon fill="#ffffff" stroke="#000000" points="702,-929.5 702,-948.5 818,-948.5 818,-929.5 702,-929.5"/>
<text text-anchor="middle" x="760" y="-936.5" font-family="Helvetica,sans-Serif" font-size="10.00" fill="#000000">odp/api/spec/ipsec.h</text>
</a>
</g>
</g>
<!-- Node0&#45;&gt;Node2 -->
<g id="edge2" class="edge">
<title>Node0&#45;&gt;Node2</title>
<path fill="none" stroke="#191970" d="M706.3221,-985.2455C715.9223,-976.9746 729.8892,-964.9416 741.1695,-955.2232"/>
<polygon fill="#191970" stroke="#191970" points="743.516,-957.8214 748.8076,-948.6427 738.947,-952.5182 743.516,-957.8214"/>
</g>
<!-- Node3 -->
<g id="node4" class="node">
<title>Node3</title>
<polygon fill="#ffffff" stroke="#bfbfbf" points="450.5,-.5 450.5,-19.5 571.5,-19.5 571.5,-.5 450.5,-.5"/>
<text text-anchor="middle" x="511" y="-7.5" font-family="Helvetica,sans-Serif" font-size="10.00" fill="#000000">odp/visibility_begin.h</text>
</g>
<!-- Node2&#45;&gt;Node3 -->
<g id="edge3" class="edge">
<title>Node2&#45;&gt;Node3</title>
<path fill="none" stroke="#191970" d="M701.9166,-930.1737C698.9027,-929.7649 695.9167,-929.371 693,-929 538.4038,-909.3357 0,-977.3418 0,-821.5 0,-821.5 0,-821.5 0,-133 0,-76.1997 49.2372,-77.0322 102,-56 161.7599,-32.1786 339.8031,-19.11 440.1669,-13.453"/>
<polygon fill="#191970" stroke="#191970" points="440.4333,-16.9437 450.2246,-12.8963 440.0464,-9.9544 440.4333,-16.9437"/>
</g>
<!-- Node4 -->
<g id="node5" class="node">
<title>Node4</title>
<g id="a_node5"><a xlink:href="crypto_8h.html" target="_top" xlink:title="ODP crypto. ">
<polygon fill="#ffffff" stroke="#000000" points="478.5,-694.5 478.5,-713.5 573.5,-713.5 573.5,-694.5 478.5,-694.5"/>
<text text-anchor="middle" x="526" y="-701.5" font-family="Helvetica,sans-Serif" font-size="10.00" fill="#000000">odp/api/crypto.h</text>
</a>
</g>
</g>
<!-- Node2&#45;&gt;Node4 -->
<g id="edge4" class="edge">
<title>Node2&#45;&gt;Node4</title>
<path fill="none" stroke="#191970" d="M701.9848,-929.5742C658.7687,-921.4618 604.5057,-908.6117 588,-893 539.5715,-847.1945 528.9253,-763.0087 526.618,-724.3654"/>
<polygon fill="#191970" stroke="#191970" points="530.0937,-723.7559 526.137,-713.9276 523.1011,-724.0782 530.0937,-723.7559"/>
</g>
<!-- Node12 -->
<g id="node13" class="node">
<title>Node12</title>
<polygon fill="#ffffff" stroke="#bfbfbf" points="1399,-.5 1399,-19.5 1511,-19.5 1511,-.5 1399,-.5"/>
<text text-anchor="middle" x="1455" y="-7.5" font-family="Helvetica,sans-Serif" font-size="10.00" fill="#000000">odp/visibility_end.h</text>
</g>
<!-- Node2&#45;&gt;Node12 -->
<g id="edge115" class="edge">
<title>Node2&#45;&gt;Node12</title>
<path fill="none" stroke="#191970" d="M818.3894,-938.2644C1047.6883,-935.179 1879.5207,-922.0705 1994,-893 2058.6679,-876.5784 2126,-888.2203 2126,-821.5 2126,-821.5 2126,-821.5 2126,-133 2126,-44.7601 2028.5805,-77.5 1943,-56 1864.8877,-36.3762 1635.4907,-20.6232 1521.2349,-13.7455"/>
<polygon fill="#191970" stroke="#191970" points="1521.4026,-10.2494 1511.2118,-13.1472 1520.9854,-17.237 1521.4026,-10.2494"/>
</g>
<!-- Node33 -->
<g id="node35" class="node">
<title>Node33</title>
<g id="a_node35"><a xlink:href="support_8h.html" target="_top" xlink:title="ODP support API &#45; platform specific header. ">
<polygon fill="#ffffff" stroke="#000000" points="654.5,-414.5 654.5,-433.5 755.5,-433.5 755.5,-414.5 654.5,-414.5"/>
<text text-anchor="middle" x="705" y="-421.5" font-family="Helvetica,sans-Serif" font-size="10.00" fill="#000000">odp/api/support.h</text>
</a>
</g>
</g>
<!-- Node2&#45;&gt;Node33 -->
<g id="edge68" class="edge">
<title>Node2&#45;&gt;Node33</title>
<path fill="none" stroke="#191970" d="M723.7516,-929.4992C677.1046,-914.827 602,-881.8353 602,-821.5 602,-821.5 602,-821.5 602,-760 602,-729.4754 605.14,-720.0809 621,-694 633.0877,-674.1223 645.0769,-676.6382 659,-658 692.4267,-613.2534 702.9741,-600.3133 716,-546 724.5159,-510.4917 716.6599,-467.7325 710.5627,-443.4227"/>
<polygon fill="#191970" stroke="#191970" points="713.9128,-442.4017 707.9503,-433.6439 707.15,-444.2085 713.9128,-442.4017"/>
</g>
<!-- Node38 -->
<g id="node37" class="node">
<title>Node38</title>
<g id="a_node37"><a xlink:href="packet__io_8h.html" target="_top" xlink:title="ODP Packet IO. ">
<polygon fill="#ffffff" stroke="#000000" points="1268,-750.5 1268,-769.5 1380,-769.5 1380,-750.5 1268,-750.5"/>
<text text-anchor="middle" x="1324" y="-757.5" font-family="Helvetica,sans-Serif" font-size="10.00" fill="#000000">odp/api/packet_io.h</text>
</a>
</g>
</g>
<!-- Node2&#45;&gt;Node38 -->
<g id="edge69" class="edge">
<title>Node2&#45;&gt;Node38</title>
<path fill="none" stroke="#191970" d="M789.5155,-929.4307C829.3321,-916.537 902.4738,-892.9054 965,-873 1080.4827,-836.2357 1217.0775,-793.4268 1283.5708,-772.6312"/>
<polygon fill="#191970" stroke="#191970" points="1284.7447,-775.9314 1293.2445,-769.6065 1282.6556,-769.2504 1284.7447,-775.9314"/>
</g>
<!-- Node43 -->
<g id="node42" class="node">
<title>Node43</title>
<g id="a_node42"><a xlink:href="protocols_8h.html" target="_top" xlink:title="ODP protocols. ">
<polygon fill="#ffffff" stroke="#000000" points="28,-526.5 28,-545.5 138,-545.5 138,-526.5 28,-526.5"/>
<text text-anchor="middle" x="83" y="-533.5" font-family="Helvetica,sans-Serif" font-size="10.00" fill="#000000">odp/api/protocols.h</text>
</a>
</g>
</g>
<!-- Node2&#45;&gt;Node43 -->
<g id="edge87" class="edge">
<title>Node2&#45;&gt;Node43</title>
<path fill="none" stroke="#191970" d="M701.9619,-930.0964C541.9035,-905.3491 106,-836.5689 106,-821.5 106,-821.5 106,-821.5 106,-648 106,-614.906 96.2452,-577.4151 89.4412,-555.2901"/>
<polygon fill="#191970" stroke="#191970" points="92.7706,-554.2105 86.3937,-545.7497 86.1026,-556.3405 92.7706,-554.2105"/>
</g>
<!-- Node45 -->
<g id="node44" class="node">
<title>Node45</title>
<g id="a_node44"><a xlink:href="classification_8h.html" target="_top" xlink:title="ODP classification descriptor. ">
<polygon fill="#ffffff" stroke="#000000" points="974,-873.5 974,-892.5 1102,-892.5 1102,-873.5 974,-873.5"/>
<text text-anchor="middle" x="1038" y="-880.5" font-family="Helvetica,sans-Serif" font-size="10.00" fill="#000000">odp/api/classification.h</text>
</a>
</g>
</g>
<!-- Node2&#45;&gt;Node45 -->
<g id="edge91" class="edge">
<title>Node2&#45;&gt;Node45</title>
<path fill="none" stroke="#191970" d="M807.474,-929.4369C855.4514,-919.7724 929.617,-904.8326 980.8051,-894.5213"/>
<polygon fill="#191970" stroke="#191970" points="981.6099,-897.9296 990.7218,-892.5237 980.2275,-891.0674 981.6099,-897.9296"/>
</g>
<!-- Node49 -->
<g id="node48" class="node">
<title>Node49</title>
<g id="a_node48"><a xlink:href="traffic__mngr_8h.html" target="_top" xlink:title="ODP Traffic manager. ">
<polygon fill="#ffffff" stroke="#000000" points="1861.5,-873.5 1861.5,-892.5 1984.5,-892.5 1984.5,-873.5 1861.5,-873.5"/>
<text text-anchor="middle" x="1923" y="-880.5" font-family="Helvetica,sans-Serif" font-size="10.00" fill="#000000">odp/api/traffic_mngr.h</text>
</a>
</g>
</g>
<!-- Node2&#45;&gt;Node49 -->
<g id="edge108" class="edge">
<title>Node2&#45;&gt;Node49</title>
<path fill="none" stroke="#191970" d="M818.0713,-936.2038C1012.1251,-926.8598 1637.8455,-896.7306 1851.0588,-886.4641"/>
<polygon fill="#191970" stroke="#191970" points="1851.3786,-889.9528 1861.1986,-885.9758 1851.0418,-882.9609 1851.3786,-889.9528"/>
</g>
<!-- Node5 -->
<g id="node6" class="node">
<title>Node5</title>
<g id="a_node6"><a xlink:href="std__types_8h.html" target="_top" xlink:title="Standard C language types and definitions for ODP. ">
<polygon fill="#ffffff" stroke="#000000" points="1305,-246.5 1305,-265.5 1417,-265.5 1417,-246.5 1305,-246.5"/>
<text text-anchor="middle" x="1361" y="-253.5" font-family="Helvetica,sans-Serif" font-size="10.00" fill="#000000">odp/api/std_types.h</text>
</a>
</g>
</g>
<!-- Node4&#45;&gt;Node5 -->
<g id="edge5" class="edge">
<title>Node4&#45;&gt;Node5</title>
<path fill="none" stroke="#191970" d="M573.8909,-696.9081C707.2609,-676.4725 1079.7735,-614.5276 1181,-546 1282.0985,-477.559 1285.5081,-431.2507 1340,-322 1347.3795,-307.2048 1352.8901,-289.2627 1356.4104,-275.8225"/>
<polygon fill="#191970" stroke="#191970" points="1359.8959,-276.307 1358.8967,-265.7594 1353.1002,-274.6279 1359.8959,-276.307"/>
</g>
<!-- Node13 -->
<g id="node14" class="node">
<title>Node13</title>
<polygon fill="#ffffff" stroke="#bfbfbf" points="1468,-358.5 1468,-377.5 1584,-377.5 1584,-358.5 1468,-358.5"/>
<text text-anchor="middle" x="1526" y="-365.5" font-family="Helvetica,sans-Serif" font-size="10.00" fill="#000000">odp/api/abi/packet.h</text>
</g>
<!-- Node4&#45;&gt;Node13 -->
<g id="edge16" class="edge">
<title>Node4&#45;&gt;Node13</title>
<path fill="none" stroke="#191970" d="M573.8039,-698.5646C588.8904,-696.9576 605.6304,-695.2861 621,-694 749.4661,-683.2498 1080.9899,-707.5552 1200,-658 1347.7462,-596.4792 1473.6682,-438.9791 1513.1557,-385.8267"/>
<polygon fill="#191970" stroke="#191970" points="1516.0334,-387.8211 1519.1285,-377.6884 1510.3902,-383.6794 1516.0334,-387.8211"/>
</g>
<!-- Node14 -->
<g id="node15" class="node">
<title>Node14</title>
<polygon fill="#ffffff" stroke="#bfbfbf" points="270.5,-638.5 270.5,-657.5 383.5,-657.5 383.5,-638.5 270.5,-638.5"/>
<text text-anchor="middle" x="327" y="-645.5" font-family="Helvetica,sans-Serif" font-size="10.00" fill="#000000">odp/api/abi/crypto.h</text>
</g>
<!-- Node4&#45;&gt;Node14 -->
<g id="edge17" class="edge">
<title>Node4&#45;&gt;Node14</title>
<path fill="none" stroke="#191970" d="M491.7907,-694.3733C458.2703,-684.9404 407.0495,-670.5265 370.619,-660.2747"/>
<polygon fill="#191970" stroke="#191970" points="371.3372,-656.8409 360.7629,-657.5011 369.4409,-663.5792 371.3372,-656.8409"/>
</g>
<!-- Node15 -->
<g id="node16" class="node">
<title>Node15</title>
<polygon fill="#ffffff" stroke="#bfbfbf" points="368,-358.5 368,-377.5 478,-377.5 478,-358.5 368,-358.5"/>
<text text-anchor="middle" x="423" y="-365.5" font-family="Helvetica,sans-Serif" font-size="10.00" fill="#000000">odp/api/abi/buffer.h</text>
</g>
<!-- Node4&#45;&gt;Node15 -->
<g id="edge18" class="edge">
<title>Node4&#45;&gt;Node15</title>
<path fill="none" stroke="#191970" d="M518.1704,-694.2588C504.6174,-676.8577 476.9056,-638.7983 463,-602 434.3689,-526.2335 426.1236,-428.8942 423.8377,-387.7541"/>
<polygon fill="#191970" stroke="#191970" points="427.3305,-387.5196 423.3391,-377.7054 420.3391,-387.8666 427.3305,-387.5196"/>
</g>
<!-- Node16 -->
<g id="node17" class="node">
<title>Node16</title>
<polygon fill="#ffffff" stroke="#bfbfbf" points="246,-358.5 246,-377.5 350,-377.5 350,-358.5 246,-358.5"/>
<text text-anchor="middle" x="298" y="-365.5" font-family="Helvetica,sans-Serif" font-size="10.00" fill="#000000">odp/api/abi/pool.h</text>
</g>
<!-- Node4&#45;&gt;Node16 -->
<g id="edge19" class="edge">
<title>Node4&#45;&gt;Node16</title>
<path fill="none" stroke="#191970" d="M507.6763,-694.44C482.1927,-681.2522 434.4996,-656.9592 393,-638 355.3109,-620.7816 330.8709,-635.8692 307,-602 260.2463,-535.6636 280.9351,-430.498 292.3148,-387.3956"/>
<polygon fill="#191970" stroke="#191970" points="295.7269,-388.1885 295.0244,-377.617 288.9811,-386.3192 295.7269,-388.1885"/>
</g>
<!-- Node17 -->
<g id="node18" class="node">
<title>Node17</title>
<g id="a_node18"><a xlink:href="queue_8h.html" target="_top" xlink:title="ODP queue. ">
<polygon fill="#ffffff" stroke="#000000" points="554.5,-638.5 554.5,-657.5 649.5,-657.5 649.5,-638.5 554.5,-638.5"/>
<text text-anchor="middle" x="602" y="-645.5" font-family="Helvetica,sans-Serif" font-size="10.00" fill="#000000">odp/api/queue.h</text>
</a>
</g>
</g>
<!-- Node4&#45;&gt;Node17 -->
<g id="edge20" class="edge">
<title>Node4&#45;&gt;Node17</title>
<path fill="none" stroke="#191970" d="M539.2382,-694.2455C550.681,-685.814 567.4296,-673.4729 580.7475,-663.6598"/>
<polygon fill="#191970" stroke="#191970" points="582.9391,-666.3924 588.9135,-657.6427 578.7867,-660.757 582.9391,-666.3924"/>
</g>
<!-- Node37 -->
<g id="node34" class="node">
<title>Node37</title>
<g id="a_node34"><a xlink:href="spec_2crypto_8h.html" target="_top" xlink:title="ODP crypto. ">
<polygon fill="#ffffff" stroke="#000000" points="748.5,-470.5 748.5,-489.5 869.5,-489.5 869.5,-470.5 748.5,-470.5"/>
<text text-anchor="middle" x="809" y="-477.5" font-family="Helvetica,sans-Serif" font-size="10.00" fill="#000000">odp/api/spec/crypto.h</text>
</a>
</g>
</g>
<!-- Node4&#45;&gt;Node37 -->
<g id="edge59" class="edge">
<title>Node4&#45;&gt;Node37</title>
<path fill="none" stroke="#191970" d="M565.7584,-694.4185C593.088,-686.8528 629.6055,-674.7639 659,-658 725.834,-619.8841 749.6941,-610.9109 791,-546 799.9557,-531.9265 804.5026,-513.4289 806.7826,-499.5981"/>
<polygon fill="#191970" stroke="#191970" points="810.2509,-500.0679 808.1662,-489.6802 803.318,-499.1007 810.2509,-500.0679"/>
</g>
<!-- Node6 -->
<g id="node7" class="node">
<title>Node6</title>
<polygon fill="#ffffff" stroke="#bfbfbf" points="1287,-185 1287,-204 1417,-204 1417,-185 1287,-185"/>
<text text-anchor="middle" x="1352" y="-192" font-family="Helvetica,sans-Serif" font-size="10.00" fill="#000000">odp/api/abi/std_types.h</text>
</g>
<!-- Node5&#45;&gt;Node6 -->
<g id="edge6" class="edge">
<title>Node5&#45;&gt;Node6</title>
<path fill="none" stroke="#191970" d="M1359.5938,-246.3906C1358.3462,-237.8657 1356.4838,-225.1392 1354.9156,-214.4235"/>
<polygon fill="#191970" stroke="#191970" points="1358.3373,-213.6326 1353.4261,-204.2449 1351.411,-214.6463 1358.3373,-213.6326"/>
</g>
<!-- Node7 -->
<g id="node8" class="node">
<title>Node7</title>
<g id="a_node8"><a xlink:href="spec_2std__types_8h.html" target="_top" xlink:title="Standard C language types and definitions for ODP. ">
<polygon fill="#ffffff" stroke="#000000" points="1473.5,-185 1473.5,-204 1610.5,-204 1610.5,-185 1473.5,-185"/>
<text text-anchor="middle" x="1542" y="-192" font-family="Helvetica,sans-Serif" font-size="10.00" fill="#000000">odp/api/spec/std_types.h</text>
</a>
</g>
</g>
<!-- Node5&#45;&gt;Node7 -->
<g id="edge7" class="edge">
<title>Node5&#45;&gt;Node7</title>
<path fill="none" stroke="#191970" d="M1389.2813,-246.3906C1420.23,-235.8749 1469.9942,-218.966 1504.257,-207.3243"/>
<polygon fill="#191970" stroke="#191970" points="1505.575,-210.573 1513.9173,-204.0419 1503.3229,-203.9452 1505.575,-210.573"/>
</g>
<!-- Node7&#45;&gt;Node3 -->
<g id="edge8" class="edge">
<title>Node7&#45;&gt;Node3</title>
<path fill="none" stroke="#191970" d="M1507.297,-184.9106C1450.711,-169.6162 1334.8504,-139.7241 1235,-123 1081.6441,-97.3142 1038.3168,-122.7909 887,-87 849.0844,-78.0318 842.6691,-65.9532 805,-56 730.0431,-36.1944 641.9375,-23.8018 581.8566,-16.9371"/>
<polygon fill="#191970" stroke="#191970" points="582.0464,-13.4365 571.7187,-15.8008 581.2666,-20.393 582.0464,-13.4365"/>
</g>
<!-- Node8 -->
<g id="node9" class="node">
<title>Node8</title>
<polygon fill="#ffffff" stroke="#bfbfbf" points="1551.5,-123.5 1551.5,-142.5 1604.5,-142.5 1604.5,-123.5 1551.5,-123.5"/>
<text text-anchor="middle" x="1578" y="-130.5" font-family="Helvetica,sans-Serif" font-size="10.00" fill="#000000">stdint.h</text>
</g>
<!-- Node7&#45;&gt;Node8 -->
<g id="edge9" class="edge">
<title>Node7&#45;&gt;Node8</title>
<path fill="none" stroke="#191970" d="M1547.625,-184.8906C1552.8253,-176.0068 1560.6966,-162.5601 1567.1233,-151.5811"/>
<polygon fill="#191970" stroke="#191970" points="1570.2644,-153.1432 1572.2957,-142.7449 1564.2233,-149.6069 1570.2644,-153.1432"/>
</g>
<!-- Node9 -->
<g id="node10" class="node">
<title>Node9</title>
<g id="a_node10"><a xlink:href="align_8h.html" target="_top" xlink:title="ODP alignments. ">
<polygon fill="#ffffff" stroke="#000000" points="1444.5,-123.5 1444.5,-142.5 1533.5,-142.5 1533.5,-123.5 1444.5,-123.5"/>
<text text-anchor="middle" x="1489" y="-130.5" font-family="Helvetica,sans-Serif" font-size="10.00" fill="#000000">odp/api/align.h</text>
</a>
</g>
</g>
<!-- Node7&#45;&gt;Node9 -->
<g id="edge10" class="edge">
<title>Node7&#45;&gt;Node9</title>
<path fill="none" stroke="#191970" d="M1533.7188,-184.8906C1525.8307,-175.7376 1513.7686,-161.7409 1504.1588,-150.59"/>
<polygon fill="#191970" stroke="#191970" points="1506.5775,-148.0352 1497.398,-142.7449 1501.2749,-152.6049 1506.5775,-148.0352"/>
</g>
<!-- Node7&#45;&gt;Node12 -->
<g id="edge15" class="edge">
<title>Node7&#45;&gt;Node12</title>
<path fill="none" stroke="#191970" d="M1559.3698,-184.8322C1597.9799,-162.1328 1684.6525,-103.739 1647,-56 1631.411,-36.2349 1570.5054,-24.0075 1521.4162,-17.1748"/>
<polygon fill="#191970" stroke="#191970" points="1521.8339,-13.6996 1511.4573,-15.8387 1520.9031,-20.6374 1521.8339,-13.6996"/>
</g>
<!-- Node10 -->
<g id="node11" class="node">
<title>Node10</title>
<polygon fill="#ffffff" stroke="#bfbfbf" points="1530.5,-62 1530.5,-81 1637.5,-81 1637.5,-62 1530.5,-62"/>
<text text-anchor="middle" x="1584" y="-69" font-family="Helvetica,sans-Serif" font-size="10.00" fill="#000000">odp/api/abi/align.h</text>
</g>
<!-- Node9&#45;&gt;Node10 -->
<g id="edge11" class="edge">
<title>Node9&#45;&gt;Node10</title>
<path fill="none" stroke="#191970" d="M1503.8438,-123.3906C1519.0418,-113.5519 1542.8848,-98.1167 1560.6206,-86.6351"/>
<polygon fill="#191970" stroke="#191970" points="1562.768,-89.4144 1569.2605,-81.0419 1558.9639,-83.5382 1562.768,-89.4144"/>
</g>
<!-- Node11 -->
<g id="node12" class="node">
<title>Node11</title>
<g id="a_node12"><a xlink:href="spec_2align_8h.html" target="_top" xlink:title="ODP alignments. ">
<polygon fill="#ffffff" stroke="#000000" points="1398,-62 1398,-81 1512,-81 1512,-62 1398,-62"/>
<text text-anchor="middle" x="1455" y="-69" font-family="Helvetica,sans-Serif" font-size="10.00" fill="#000000">odp/api/spec/align.h</text>
</a>
</g>
</g>
<!-- Node9&#45;&gt;Node11 -->
<g id="edge12" class="edge">
<title>Node9&#45;&gt;Node11</title>
<path fill="none" stroke="#191970" d="M1483.6875,-123.3906C1478.7761,-114.5068 1471.3421,-101.0601 1465.2725,-90.0811"/>
<polygon fill="#191970" stroke="#191970" points="1468.2888,-88.3031 1460.3874,-81.2449 1462.1627,-91.6899 1468.2888,-88.3031"/>
</g>
<!-- Node11&#45;&gt;Node3 -->
<g id="edge13" class="edge">
<title>Node11&#45;&gt;Node3</title>
<path fill="none" stroke="#191970" d="M1419.598,-61.9611C1409.7576,-59.6453 1399.0211,-57.4276 1389,-56 1233.7225,-33.8794 761.9253,-17.6299 581.8652,-12.0808"/>
<polygon fill="#191970" stroke="#191970" points="581.8156,-8.5777 571.7131,-11.7697 581.6012,-15.5744 581.8156,-8.5777"/>
</g>
<!-- Node11&#45;&gt;Node12 -->
<g id="edge14" class="edge">
<title>Node11&#45;&gt;Node12</title>
<path fill="none" stroke="#191970" d="M1455,-61.8906C1455,-53.3657 1455,-40.6392 1455,-29.9235"/>
<polygon fill="#191970" stroke="#191970" points="1458.5001,-29.7448 1455,-19.7449 1451.5001,-29.7449 1458.5001,-29.7448"/>
</g>
<!-- Node17&#45;&gt;Node5 -->
<g id="edge21" class="edge">
<title>Node17&#45;&gt;Node5</title>
<path fill="none" stroke="#191970" d="M649.6207,-639.2651C766.8075,-615.7197 1073.8068,-541.3673 1269,-378 1305.2575,-347.6542 1335.6226,-300.4278 1350.7257,-274.5347"/>
<polygon fill="#191970" stroke="#191970" points="1353.8307,-276.1552 1355.7472,-265.7352 1347.7509,-272.6857 1353.8307,-276.1552"/>
</g>
<!-- Node17&#45;&gt;Node15 -->
<g id="edge24" class="edge">
<title>Node17&#45;&gt;Node15</title>
<path fill="none" stroke="#191970" d="M574.9574,-638.4903C537.1304,-623.2562 473,-589.5346 473,-536 473,-536 473,-536 473,-480 473,-444.2001 451.4357,-407.1175 436.6307,-385.8769"/>
<polygon fill="#191970" stroke="#191970" points="439.2949,-383.5886 430.5939,-377.5435 433.6261,-387.6952 439.2949,-383.5886"/>
</g>
<!-- Node17&#45;&gt;Node16 -->
<g id="edge25" class="edge">
<title>Node17&#45;&gt;Node16</title>
<path fill="none" stroke="#191970" d="M560.8737,-638.4213C537.299,-631.3542 508.2641,-619.8129 487,-602 411.5577,-538.802 439.1768,-484.0007 370,-414 357.5127,-401.3639 340.9508,-390.4831 326.8598,-382.4807"/>
<polygon fill="#191970" stroke="#191970" points="328.4775,-379.3763 318.0246,-377.6483 325.1184,-385.5177 328.4775,-379.3763"/>
</g>
<!-- Node18 -->
<g id="node19" class="node">
<title>Node18</title>
<polygon fill="#ffffff" stroke="#bfbfbf" points="572,-358.5 572,-377.5 682,-377.5 682,-358.5 572,-358.5"/>
<text text-anchor="middle" x="627" y="-365.5" font-family="Helvetica,sans-Serif" font-size="10.00" fill="#000000">odp/api/abi/event.h</text>
</g>
<!-- Node17&#45;&gt;Node18 -->
<g id="edge22" class="edge">
<title>Node17&#45;&gt;Node18</title>
<path fill="none" stroke="#191970" d="M576.4738,-638.3698C560.8579,-630.9914 542.1711,-619.1364 533,-602 528.8057,-594.1629 531.1736,-590.6992 533,-582 549.0805,-505.4063 594.285,-422.7572 615.603,-386.6509"/>
<polygon fill="#191970" stroke="#191970" points="618.8016,-388.1221 620.9383,-377.745 612.7967,-384.5247 618.8016,-388.1221"/>
</g>
<!-- Node19 -->
<g id="node20" class="node">
<title>Node19</title>
<polygon fill="#ffffff" stroke="#bfbfbf" points="1146.5,-358.5 1146.5,-377.5 1259.5,-377.5 1259.5,-358.5 1146.5,-358.5"/>
<text text-anchor="middle" x="1203" y="-365.5" font-family="Helvetica,sans-Serif" font-size="10.00" fill="#000000">odp/api/abi/queue.h</text>
</g>
<!-- Node17&#45;&gt;Node19 -->
<g id="edge23" class="edge">
<title>Node17&#45;&gt;Node19</title>
<path fill="none" stroke="#191970" d="M632.0284,-638.4914C701.1699,-616.175 876.3179,-557.2198 1015,-490 1058.7601,-468.7893 1068.183,-460.435 1109,-434 1134.4295,-417.5307 1162.7853,-397.3622 1181.6364,-383.6868"/>
<polygon fill="#191970" stroke="#191970" points="1183.8068,-386.4359 1189.8282,-377.7185 1179.6848,-380.7783 1183.8068,-386.4359"/>
</g>
<!-- Node20 -->
<g id="node21" class="node">
<title>Node20</title>
<g id="a_node21"><a xlink:href="spec_2queue_8h.html" target="_top" xlink:title="ODP queue. ">
<polygon fill="#ffffff" stroke="#000000" points="542,-582.5 542,-601.5 662,-601.5 662,-582.5 542,-582.5"/>
<text text-anchor="middle" x="602" y="-589.5" font-family="Helvetica,sans-Serif" font-size="10.00" fill="#000000">odp/api/spec/queue.h</text>
</a>
</g>
</g>
<!-- Node17&#45;&gt;Node20 -->
<g id="edge26" class="edge">
<title>Node17&#45;&gt;Node20</title>
<path fill="none" stroke="#191970" d="M602,-638.2455C602,-630.9382 602,-620.6944 602,-611.7046"/>
<polygon fill="#191970" stroke="#191970" points="605.5001,-611.6426 602,-601.6427 598.5001,-611.6427 605.5001,-611.6426"/>
</g>
<!-- Node20&#45;&gt;Node3 -->
<g id="edge27" class="edge">
<title>Node20&#45;&gt;Node3</title>
<path fill="none" stroke="#191970" d="M594.02,-582.1787C586.9015,-573.1327 576.4787,-559.1594 569,-546 523.9591,-466.747 540.7412,-431.6316 487,-358 422.1124,-269.0966 301,-304.5646 301,-194.5 301,-194.5 301,-194.5 301,-133 301,-66.961 379.28,-35.7115 440.2535,-21.3874"/>
<polygon fill="#191970" stroke="#191970" points="441.2644,-24.7478 450.2593,-19.1494 439.7364,-17.9166 441.2644,-24.7478"/>
</g>
<!-- Node20&#45;&gt;Node12 -->
<g id="edge58" class="edge">
<title>Node20&#45;&gt;Node12</title>
<path fill="none" stroke="#191970" d="M643.4926,-582.4317C718.1088,-565.0741 879.7709,-526.7789 1015,-490 1213.6533,-435.9713 1257.3916,-399.6685 1459,-358 1525.1874,-344.3204 1709.5067,-365.7761 1761,-322 1784.2564,-302.229 1780,-286.5246 1780,-256 1780,-256 1780,-256 1780,-133 1780,-94.8373 1772.7092,-78.657 1742,-56 1707.8714,-30.8202 1594.823,-18.8747 1521.2092,-13.6399"/>
<polygon fill="#191970" stroke="#191970" points="1521.3125,-10.1388 1511.0961,-12.9451 1520.8326,-17.1224 1521.3125,-10.1388"/>
</g>
<!-- Node21 -->
<g id="node22" class="node">
<title>Node21</title>
<g id="a_node22"><a xlink:href="event_8h.html" target="_top" xlink:title="ODP event. ">
<polygon fill="#ffffff" stroke="#000000" points="615,-526.5 615,-545.5 707,-545.5 707,-526.5 615,-526.5"/>
<text text-anchor="middle" x="661" y="-533.5" font-family="Helvetica,sans-Serif" font-size="10.00" fill="#000000">odp/api/event.h</text>
</a>
</g>
</g>
<!-- Node20&#45;&gt;Node21 -->
<g id="edge28" class="edge">
<title>Node20&#45;&gt;Node21</title>
<path fill="none" stroke="#191970" d="M612.277,-582.2455C620.8218,-574.1352 633.1778,-562.4075 643.3085,-552.7919"/>
<polygon fill="#191970" stroke="#191970" points="645.9972,-555.0655 650.8408,-545.6427 641.1782,-549.9884 645.9972,-555.0655"/>
</g>
<!-- Node29 -->
<g id="node30" class="node">
<title>Node29</title>
<g id="a_node30"><a xlink:href="queue__types_8h.html" target="_top" xlink:title="ODP queue types. ">
<polygon fill="#ffffff" stroke="#000000" points="646.5,-179.5 646.5,-209.5 757.5,-209.5 757.5,-179.5 646.5,-179.5"/>
<text text-anchor="start" x="654.5" y="-197.5" font-family="Helvetica,sans-Serif" font-size="10.00" fill="#000000">odp/api/spec/queue</text>
<text text-anchor="middle" x="702" y="-186.5" font-family="Helvetica,sans-Serif" font-size="10.00" fill="#000000">_types.h</text>
</a>
</g>
</g>
<!-- Node20&#45;&gt;Node29 -->
<g id="edge50" class="edge">
<title>Node20&#45;&gt;Node29</title>
<path fill="none" stroke="#191970" d="M596.9683,-582.3116C580.7215,-549.6702 532.4464,-441.1103 563,-358 585.1024,-297.8782 640.2124,-244.7659 674.0249,-216.3656"/>
<polygon fill="#191970" stroke="#191970" points="676.637,-218.7485 682.1294,-209.6884 672.1859,-213.3459 676.637,-218.7485"/>
</g>
<!-- Node21&#45;&gt;Node18 -->
<g id="edge29" class="edge">
<title>Node21&#45;&gt;Node18</title>
<path fill="none" stroke="#191970" d="M659.0746,-526.4862C653.6767,-499.8144 638.3155,-423.9117 630.9859,-387.695"/>
<polygon fill="#191970" stroke="#191970" points="634.4031,-386.9349 628.989,-377.8279 627.5422,-388.3235 634.4031,-386.9349"/>
</g>
<!-- Node22 -->
<g id="node23" class="node">
<title>Node22</title>
<g id="a_node23"><a xlink:href="spec_2event_8h.html" target="_top" xlink:title="ODP event. ">
<polygon fill="#ffffff" stroke="#000000" points="888,-470.5 888,-489.5 1006,-489.5 1006,-470.5 888,-470.5"/>
<text text-anchor="middle" x="947" y="-477.5" font-family="Helvetica,sans-Serif" font-size="10.00" fill="#000000">odp/api/spec/event.h</text>
</a>
</g>
</g>
<!-- Node21&#45;&gt;Node22 -->
<g id="edge30" class="edge">
<title>Node21&#45;&gt;Node22</title>
<path fill="none" stroke="#191970" d="M707.2687,-526.9404C756.578,-517.2854 834.7745,-501.9742 888.3649,-491.481"/>
<polygon fill="#191970" stroke="#191970" points="889.2645,-494.8714 898.4056,-489.515 887.9193,-488.0019 889.2645,-494.8714"/>
</g>
<!-- Node22&#45;&gt;Node3 -->
<g id="edge31" class="edge">
<title>Node22&#45;&gt;Node3</title>
<path fill="none" stroke="#191970" d="M929.9985,-470.4516C845.529,-422.5773 473.1348,-206.2626 425,-87 419.8434,-74.2236 417.9185,-67.8186 425,-56 434.0087,-40.9649 449.7934,-30.5677 465.4013,-23.5159"/>
<polygon fill="#191970" stroke="#191970" points="467.1223,-26.5923 475.0343,-19.546 464.4551,-20.1203 467.1223,-26.5923"/>
</g>
<!-- Node22&#45;&gt;Node12 -->
<g id="edge49" class="edge">
<title>Node22&#45;&gt;Node12</title>
<path fill="none" stroke="#191970" d="M951.7778,-470.4086C959.0805,-456.5225 974.1743,-430.662 993,-414 1018.6071,-391.336 1030.8669,-394.1673 1061,-378 1083.9575,-365.6826 1147.6879,-342.3145 1164,-322 1183.1118,-298.1989 1183,-286.5246 1183,-256 1183,-256 1183,-256 1183,-194.5 1183,-124.7091 1201.6177,-98.4685 1257,-56 1277.5667,-40.2289 1339.7132,-27.4124 1388.9559,-19.3518"/>
<polygon fill="#191970" stroke="#191970" points="1389.6112,-22.7915 1398.9319,-17.7541 1388.5042,-15.8796 1389.6112,-22.7915"/>
</g>
<!-- Node23 -->
<g id="node24" class="node">
<title>Node23</title>
<g id="a_node24"><a xlink:href="packet_8h.html" target="_top" xlink:title="ODP packet descriptor. ">
<polygon fill="#ffffff" stroke="#000000" points="1002,-414.5 1002,-433.5 1100,-433.5 1100,-414.5 1002,-414.5"/>
<text text-anchor="middle" x="1051" y="-421.5" font-family="Helvetica,sans-Serif" font-size="10.00" fill="#000000">odp/api/packet.h</text>
</a>
</g>
</g>
<!-- Node22&#45;&gt;Node23 -->
<g id="edge32" class="edge">
<title>Node22&#45;&gt;Node23</title>
<path fill="none" stroke="#191970" d="M965.1154,-470.2455C981.445,-461.4527 1005.671,-448.4079 1024.2339,-438.4125"/>
<polygon fill="#191970" stroke="#191970" points="1025.9468,-441.4654 1033.0922,-433.6427 1022.6281,-435.3021 1025.9468,-441.4654"/>
</g>
<!-- Node23&#45;&gt;Node5 -->
<g id="edge33" class="edge">
<title>Node23&#45;&gt;Node5</title>
<path fill="none" stroke="#191970" d="M1061.973,-414.4065C1077.9448,-400.7461 1108.8753,-375.4184 1138,-358 1201.1809,-320.214 1280.7552,-286.9357 1325.7487,-269.316"/>
<polygon fill="#191970" stroke="#191970" points="1327.2864,-272.4736 1335.3419,-265.5918 1324.7531,-265.9481 1327.2864,-272.4736"/>
</g>
<!-- Node23&#45;&gt;Node13 -->
<g id="edge36" class="edge">
<title>Node23&#45;&gt;Node13</title>
<path fill="none" stroke="#191970" d="M1100.0443,-418.2179C1185.2073,-408.1777 1360.5981,-387.5 1457.6497,-376.0581"/>
<polygon fill="#191970" stroke="#191970" points="1458.1302,-379.5258 1467.6516,-374.879 1457.3105,-372.574 1458.1302,-379.5258"/>
</g>
<!-- Node23&#45;&gt;Node15 -->
<g id="edge38" class="edge">
<title>Node23&#45;&gt;Node15</title>
<path fill="none" stroke="#191970" d="M1001.9835,-419.6291C889.9538,-409.6392 615.1059,-385.1305 488.6345,-373.8528"/>
<polygon fill="#191970" stroke="#191970" points="488.5983,-370.3357 478.3269,-372.9336 487.9765,-377.3081 488.5983,-370.3357"/>
</g>
<!-- Node23&#45;&gt;Node16 -->
<g id="edge39" class="edge">
<title>Node23&#45;&gt;Node16</title>
<path fill="none" stroke="#191970" d="M1001.7706,-422.3536C889.7398,-418.2569 607.0013,-405.9423 360.4294,-378.0638"/>
<polygon fill="#191970" stroke="#191970" points="360.5298,-374.5526 350.1973,-376.8955 359.7356,-381.5074 360.5298,-374.5526"/>
</g>
<!-- Node23&#45;&gt;Node18 -->
<g id="edge34" class="edge">
<title>Node23&#45;&gt;Node18</title>
<path fill="none" stroke="#191970" d="M1001.9476,-417.5214C925.49,-407.4232 777.8289,-387.9208 692.3996,-376.6377"/>
<polygon fill="#191970" stroke="#191970" points="692.6711,-373.1432 682.2989,-375.3036 691.7545,-380.083 692.6711,-373.1432"/>
</g>
<!-- Node23&#45;&gt;Node19 -->
<g id="edge37" class="edge">
<title>Node23&#45;&gt;Node19</title>
<path fill="none" stroke="#191970" d="M1077.1297,-414.3733C1102.0768,-405.1822 1139.8592,-391.2624 1167.5206,-381.0713"/>
<polygon fill="#191970" stroke="#191970" points="1169.0378,-384.2424 1177.2112,-377.5011 1166.6178,-377.674 1169.0378,-384.2424"/>
</g>
<!-- Node24 -->
<g id="node25" class="node">
<title>Node24</title>
<polygon fill="#ffffff" stroke="#bfbfbf" points="1640,-358.5 1640,-377.5 1770,-377.5 1770,-358.5 1640,-358.5"/>
<text text-anchor="middle" x="1705" y="-365.5" font-family="Helvetica,sans-Serif" font-size="10.00" fill="#000000">odp/api/abi/packet_io.h</text>
</g>
<!-- Node23&#45;&gt;Node24 -->
<g id="edge35" class="edge">
<title>Node23&#45;&gt;Node24</title>
<path fill="none" stroke="#191970" d="M1100.3287,-419.8862C1195.5728,-411.9272 1411.4266,-393.811 1593,-378 1604.8512,-376.968 1617.4065,-375.8607 1629.6592,-374.7724"/>
<polygon fill="#191970" stroke="#191970" points="1630.2077,-378.2375 1639.8581,-373.8648 1629.5872,-371.2651 1630.2077,-378.2375"/>
</g>
<!-- Node25 -->
<g id="node26" class="node">
<title>Node25</title>
<g id="a_node26"><a xlink:href="spec_2packet_8h.html" target="_top" xlink:title="ODP packet descriptor. ">
<polygon fill="#ffffff" stroke="#000000" points="928.5,-358.5 928.5,-377.5 1051.5,-377.5 1051.5,-358.5 928.5,-358.5"/>
<text text-anchor="middle" x="990" y="-365.5" font-family="Helvetica,sans-Serif" font-size="10.00" fill="#000000">odp/api/spec/packet.h</text>
</a>
</g>
</g>
<!-- Node23&#45;&gt;Node25 -->
<g id="edge40" class="edge">
<title>Node23&#45;&gt;Node25</title>
<path fill="none" stroke="#191970" d="M1040.3746,-414.2455C1031.4527,-406.0549 1018.512,-394.1749 1007.9808,-384.5069"/>
<polygon fill="#191970" stroke="#191970" points="1010.2371,-381.8271 1000.5036,-377.6427 1005.5032,-386.9837 1010.2371,-381.8271"/>
</g>
<!-- Node25&#45;&gt;Node3 -->
<g id="edge41" class="edge">
<title>Node25&#45;&gt;Node3</title>
<path fill="none" stroke="#191970" d="M966.0422,-358.442C908.4494,-335.2096 758.1069,-273.0385 638,-210 614.6481,-197.7437 447.9441,-109.9778 435,-87 428.2377,-74.9959 428.2349,-68.0025 435,-56 443.138,-41.5618 457.8355,-31.1395 472.1516,-23.9057"/>
<polygon fill="#191970" stroke="#191970" points="473.8319,-26.9846 481.4315,-19.6024 470.887,-20.6342 473.8319,-26.9846"/>
</g>
<!-- Node25&#45;&gt;Node12 -->
<g id="edge48" class="edge">
<title>Node25&#45;&gt;Node12</title>
<path fill="none" stroke="#191970" d="M987.4164,-358.314C981.8661,-335.0669 971.7017,-275.8347 1003,-246 1102.4138,-151.2353 1509.7691,-291.9304 1620,-210 1677.2299,-167.4632 1709.7027,-111.5546 1665,-56 1647.1306,-33.7927 1575.826,-21.7098 1521.2121,-15.5754"/>
<polygon fill="#191970" stroke="#191970" points="1521.5431,-12.0909 1511.2254,-14.4981 1520.7923,-19.0505 1521.5431,-12.0909"/>
</g>
<!-- Node26 -->
<g id="node27" class="node">
<title>Node26</title>
<g id="a_node27"><a xlink:href="time_8h.html" target="_top" xlink:title="ODP time. ">
<polygon fill="#ffffff" stroke="#000000" points="1067.5,-302.5 1067.5,-321.5 1154.5,-321.5 1154.5,-302.5 1067.5,-302.5"/>
<text text-anchor="middle" x="1111" y="-309.5" font-family="Helvetica,sans-Serif" font-size="10.00" fill="#000000">odp/api/time.h</text>
</a>
</g>
</g>
<!-- Node25&#45;&gt;Node26 -->
<g id="edge42" class="edge">
<title>Node25&#45;&gt;Node26</title>
<path fill="none" stroke="#191970" d="M1010.8006,-358.3733C1030.2243,-349.3838 1059.4224,-335.8706 1081.2964,-325.7471"/>
<polygon fill="#191970" stroke="#191970" points="1082.8656,-328.8776 1090.4708,-321.5011 1079.9255,-322.5249 1082.8656,-328.8776"/>
</g>
<!-- Node26&#45;&gt;Node5 -->
<g id="edge43" class="edge">
<title>Node26&#45;&gt;Node5</title>
<path fill="none" stroke="#191970" d="M1153.6925,-302.4369C1196.5679,-292.8328 1262.7005,-278.0191 1308.7002,-267.7152"/>
<polygon fill="#191970" stroke="#191970" points="1309.4905,-271.1249 1318.4836,-265.5237 1307.9604,-264.2942 1309.4905,-271.1249"/>
</g>
<!-- Node27 -->
<g id="node28" class="node">
<title>Node27</title>
<polygon fill="#ffffff" stroke="#bfbfbf" points="1011.5,-246.5 1011.5,-265.5 1116.5,-265.5 1116.5,-246.5 1011.5,-246.5"/>
<text text-anchor="middle" x="1064" y="-253.5" font-family="Helvetica,sans-Serif" font-size="10.00" fill="#000000">odp/api/abi/time.h</text>
</g>
<!-- Node26&#45;&gt;Node27 -->
<g id="edge44" class="edge">
<title>Node26&#45;&gt;Node27</title>
<path fill="none" stroke="#191970" d="M1102.8132,-302.2455C1096.1411,-294.2958 1086.5521,-282.8706 1078.5747,-273.3656"/>
<polygon fill="#191970" stroke="#191970" points="1081.2026,-271.0524 1072.093,-265.6427 1075.8408,-275.5525 1081.2026,-271.0524"/>
</g>
<!-- Node28 -->
<g id="node29" class="node">
<title>Node28</title>
<g id="a_node29"><a xlink:href="spec_2time_8h.html" target="_top" xlink:title="ODP time. ">
<polygon fill="#ffffff" stroke="#000000" points="1058.5,-62 1058.5,-81 1171.5,-81 1171.5,-62 1058.5,-62"/>
<text text-anchor="middle" x="1115" y="-69" font-family="Helvetica,sans-Serif" font-size="10.00" fill="#000000">odp/api/spec/time.h</text>
</a>
</g>
</g>
<!-- Node26&#45;&gt;Node28 -->
<g id="edge45" class="edge">
<title>Node26&#45;&gt;Node28</title>
<path fill="none" stroke="#191970" d="M1115.1368,-302.3507C1118.8231,-293.1921 1123.9433,-278.9416 1126,-266 1136.0591,-202.7056 1125.1997,-126.5458 1118.8783,-91.2458"/>
<polygon fill="#191970" stroke="#191970" points="1122.2951,-90.4755 1117.0177,-81.2886 1115.4142,-91.7614 1122.2951,-90.4755"/>
</g>
<!-- Node28&#45;&gt;Node3 -->
<g id="edge46" class="edge">
<title>Node28&#45;&gt;Node3</title>
<path fill="none" stroke="#191970" d="M1079.0918,-61.9282C1069.6813,-59.6977 1059.5065,-57.5304 1050,-56 883.3179,-29.1671 684.9502,-17.3364 581.5855,-12.6697"/>
<polygon fill="#191970" stroke="#191970" points="581.7251,-9.1726 571.5801,-12.2271 581.4156,-16.1657 581.7251,-9.1726"/>
</g>
<!-- Node28&#45;&gt;Node12 -->
<g id="edge47" class="edge">
<title>Node28&#45;&gt;Node12</title>
<path fill="none" stroke="#191970" d="M1157.3592,-61.9216C1166.7717,-59.8857 1176.7116,-57.8071 1186,-56 1255.0665,-42.563 1334.5257,-29.2357 1389.0775,-20.4127"/>
<polygon fill="#191970" stroke="#191970" points="1389.6501,-23.8657 1398.9656,-18.8187 1388.536,-16.9549 1389.6501,-23.8657"/>
</g>
<!-- Node29&#45;&gt;Node3 -->
<g id="edge51" class="edge">
<title>Node29&#45;&gt;Node3</title>
<path fill="none" stroke="#191970" d="M671.9223,-179.4493C656.5662,-170.5533 638.5321,-158.0757 626,-143 599.0273,-110.5528 615.8871,-87.6647 588,-56 575.9827,-42.3548 558.9088,-31.5873 543.8911,-23.9111"/>
<polygon fill="#191970" stroke="#191970" points="545.3945,-20.7503 534.8698,-19.533 542.3382,-27.0479 545.3945,-20.7503"/>
</g>
<!-- Node29&#45;&gt;Node12 -->
<g id="edge57" class="edge">
<title>Node29&#45;&gt;Node12</title>
<path fill="none" stroke="#191970" d="M728.097,-179.3942C744.5203,-169.5773 765.948,-156.1921 784,-143 832.3807,-107.6443 831.6021,-78.8427 887,-56 932.3403,-37.3044 1248.2122,-19.9731 1388.3271,-13.109"/>
<polygon fill="#191970" stroke="#191970" points="1388.691,-16.5955 1398.509,-12.6134 1388.3507,-9.6038 1388.691,-16.5955"/>
</g>
<!-- Node30 -->
<g id="node31" class="node">
<title>Node30</title>
<g id="a_node31"><a xlink:href="schedule__types_8h.html" target="_top" xlink:title="ODP schedule. ">
<polygon fill="#ffffff" stroke="#ff0000" points="635,-123.5 635,-142.5 775,-142.5 775,-123.5 635,-123.5"/>
<text text-anchor="middle" x="705" y="-130.5" font-family="Helvetica,sans-Serif" font-size="10.00" fill="#000000">odp/api/schedule_types.h</text>
</a>
</g>
</g>
<!-- Node29&#45;&gt;Node30 -->
<g id="edge52" class="edge">
<title>Node29&#45;&gt;Node30</title>
<path fill="none" stroke="#191970" d="M702.7416,-179.2977C703.1276,-171.3834 703.6047,-161.6043 704.0207,-153.0759"/>
<polygon fill="#191970" stroke="#191970" points="707.5282,-153.0056 704.5197,-142.8469 700.5365,-152.6645 707.5282,-153.0056"/>
</g>
<!-- Node35 -->
<g id="node32" class="node">
<title>Node35</title>
<g id="a_node32"><a xlink:href="deprecated_8h.html" target="_top" xlink:title="Control deprecated API definitions. ">
<polygon fill="#ffffff" stroke="#000000" points="875.5,-123.5 875.5,-142.5 994.5,-142.5 994.5,-123.5 875.5,-123.5"/>
<text text-anchor="middle" x="935" y="-130.5" font-family="Helvetica,sans-Serif" font-size="10.00" fill="#000000">odp/api/deprecated.h</text>
</a>
</g>
</g>
<!-- Node29&#45;&gt;Node35 -->
<g id="edge53" class="edge">
<title>Node29&#45;&gt;Node35</title>
<path fill="none" stroke="#191970" d="M757.5133,-179.8474C797.6706,-169.2479 851.2917,-155.0947 889.0512,-145.1281"/>
<polygon fill="#191970" stroke="#191970" points="889.9975,-148.4983 898.7731,-142.562 888.211,-141.7301 889.9975,-148.4983"/>
</g>
<!-- Node36 -->
<g id="node33" class="node">
<title>Node36</title>
<g id="a_node33"><a xlink:href="spec_2deprecated_8h.html" target="_top" xlink:title="Macro for deprecated API definitions. ">
<polygon fill="#ffffff" stroke="#000000" points="895.5,-62 895.5,-81 1040.5,-81 1040.5,-62 895.5,-62"/>
<text text-anchor="middle" x="968" y="-69" font-family="Helvetica,sans-Serif" font-size="10.00" fill="#000000">odp/api/spec/deprecated.h</text>
</a>
</g>
</g>
<!-- Node35&#45;&gt;Node36 -->
<g id="edge54" class="edge">
<title>Node35&#45;&gt;Node36</title>
<path fill="none" stroke="#191970" d="M940.1563,-123.3906C944.9232,-114.5068 952.1385,-101.0601 958.0297,-90.0811"/>
<polygon fill="#191970" stroke="#191970" points="961.1269,-91.7114 962.7711,-81.2449 954.9588,-88.4016 961.1269,-91.7114"/>
</g>
<!-- Node36&#45;&gt;Node3 -->
<g id="edge55" class="edge">
<title>Node36&#45;&gt;Node3</title>
<path fill="none" stroke="#191970" d="M917.01,-61.9526C905.2056,-59.871 892.6807,-57.7654 881,-56 777.2342,-40.3173 656.503,-26.0492 581.9118,-17.6937"/>
<polygon fill="#191970" stroke="#191970" points="582.0258,-14.1848 571.6994,-16.5545 581.2497,-21.1417 582.0258,-14.1848"/>
</g>
<!-- Node36&#45;&gt;Node12 -->
<g id="edge56" class="edge">
<title>Node36&#45;&gt;Node12</title>
<path fill="none" stroke="#191970" d="M1015.1626,-61.9695C1026.5415,-59.8406 1038.6828,-57.7099 1050,-56 1168.9357,-38.0298 1308.483,-23.6432 1388.8345,-16.0039"/>
<polygon fill="#191970" stroke="#191970" points="1389.1869,-19.4863 1398.8133,-15.061 1388.5283,-12.5173 1389.1869,-19.4863"/>
</g>
<!-- Node37&#45;&gt;Node3 -->
<g id="edge60" class="edge">
<title>Node37&#45;&gt;Node3</title>
<path fill="none" stroke="#191970" d="M803.9158,-470.322C796.5141,-456.7818 781.8071,-431.8436 765,-414 736.7206,-383.9765 724.3331,-382.2907 691,-358 538.1753,-246.6328 433.1757,-262.5944 363,-87 357.887,-74.2061 354.8304,-67.0943 363,-56 373.6095,-41.5923 413.1401,-29.7394 448.6784,-21.6754"/>
<polygon fill="#191970" stroke="#191970" points="449.5529,-25.0668 458.5689,-19.5024 448.0507,-18.2299 449.5529,-25.0668"/>
</g>
<!-- Node37&#45;&gt;Node12 -->
<g id="edge67" class="edge">
<title>Node37&#45;&gt;Node12</title>
<path fill="none" stroke="#191970" d="M814.8838,-470.4401C827.6308,-449.7824 858.8389,-399.4925 886,-358 902.4735,-332.8343 904.345,-324.7678 924,-302 948.0496,-274.1416 957.1408,-270.0486 985,-246 1069.9104,-172.7037 1094.9357,-158.9379 1181,-87 1197.2005,-73.4586 1197.9958,-65.2015 1217,-56 1246.6745,-41.632 1329.1811,-27.62 1388.7315,-18.9105"/>
<polygon fill="#191970" stroke="#191970" points="1389.4246,-22.3468 1398.8215,-17.4532 1388.4238,-15.4187 1389.4246,-22.3468"/>
</g>
<!-- Node37&#45;&gt;Node23 -->
<g id="edge66" class="edge">
<title>Node37&#45;&gt;Node23</title>
<path fill="none" stroke="#191970" d="M850.3263,-470.4369C891.7427,-460.8529 955.5777,-446.0812 1000.0935,-435.78"/>
<polygon fill="#191970" stroke="#191970" points="1000.8907,-439.1881 1009.8441,-433.5237 999.3125,-432.3683 1000.8907,-439.1881"/>
</g>
<!-- Node37&#45;&gt;Node35 -->
<g id="edge61" class="edge">
<title>Node37&#45;&gt;Node35</title>
<path fill="none" stroke="#191970" d="M810.4931,-470.1807C814.2872,-444.3471 824,-372.3223 824,-312 824,-312 824,-312 824,-256 824,-206.1765 874.8175,-167.465 907.6842,-147.6381"/>
<polygon fill="#191970" stroke="#191970" points="909.5389,-150.6084 916.4211,-142.5532 906.0177,-144.5584 909.5389,-150.6084"/>
</g>
<!-- Node37&#45;&gt;Node33 -->
<g id="edge62" class="edge">
<title>Node37&#45;&gt;Node33</title>
<path fill="none" stroke="#191970" d="M790.8846,-470.2455C774.555,-461.4527 750.329,-448.4079 731.7661,-438.4125"/>
<polygon fill="#191970" stroke="#191970" points="733.3719,-435.3021 722.9078,-433.6427 730.0532,-441.4654 733.3719,-435.3021"/>
</g>
<!-- Node34 -->
<g id="node36" class="node">
<title>Node34</title>
<g id="a_node36"><a xlink:href="spec_2support_8h.html" target="_top" xlink:title="ODP support API. ">
<polygon fill="#ffffff" stroke="#000000" points="635.5,-62 635.5,-81 762.5,-81 762.5,-62 635.5,-62"/>
<text text-anchor="middle" x="699" y="-69" font-family="Helvetica,sans-Serif" font-size="10.00" fill="#000000">odp/api/spec/support.h</text>
</a>
</g>
</g>
<!-- Node33&#45;&gt;Node34 -->
<g id="edge63" class="edge">
<title>Node33&#45;&gt;Node34</title>
<path fill="none" stroke="#191970" d="M712.3125,-414.493C741.1493,-375.7667 842.6036,-227.0279 784,-123 774.1392,-105.496 755.6642,-93.2609 738.451,-85.1227"/>
<polygon fill="#191970" stroke="#191970" points="739.6445,-81.8245 729.0806,-81.0156 736.8344,-88.2357 739.6445,-81.8245"/>
</g>
<!-- Node34&#45;&gt;Node3 -->
<g id="edge64" class="edge">
<title>Node34&#45;&gt;Node3</title>
<path fill="none" stroke="#191970" d="M669.625,-61.8906C637.3414,-51.3298 585.3465,-34.3208 549.7453,-22.6747"/>
<polygon fill="#191970" stroke="#191970" points="550.7613,-19.3246 540.1687,-19.5419 548.5849,-25.9776 550.7613,-19.3246"/>
</g>
<!-- Node34&#45;&gt;Node12 -->
<g id="edge65" class="edge">
<title>Node34&#45;&gt;Node12</title>
<path fill="none" stroke="#191970" d="M762.7361,-62.2715C779.6968,-60.0107 798.0222,-57.7428 815,-56 1023.9526,-34.5508 1272.3056,-19.7429 1388.6568,-13.4295"/>
<polygon fill="#191970" stroke="#191970" points="1389.0292,-16.9146 1398.8262,-12.8811 1388.6522,-9.9248 1389.0292,-16.9146"/>
</g>
<!-- Node38&#45;&gt;Node5 -->
<g id="edge70" class="edge">
<title>Node38&#45;&gt;Node5</title>
<path fill="none" stroke="#191970" d="M1380.2311,-751.3409C1430.4707,-742.8312 1499.6402,-728.9741 1523,-714 1554.209,-693.9944 1574,-685.0705 1574,-648 1574,-648 1574,-648 1574,-592 1574,-487.6577 1650.0327,-445.3761 1593,-358 1581.5289,-340.4258 1458.2919,-292.3913 1396.2556,-269.0613"/>
<polygon fill="#191970" stroke="#191970" points="1397.4434,-265.7688 1386.8511,-265.5375 1394.9873,-272.3238 1397.4434,-265.7688"/>
</g>
<!-- Node38&#45;&gt;Node13 -->
<g id="edge73" class="edge">
<title>Node38&#45;&gt;Node13</title>
<path fill="none" stroke="#191970" d="M1380.2555,-754.4464C1443.0616,-744.7802 1536,-718.5563 1536,-648 1536,-648 1536,-648 1536,-480 1536,-447.5831 1531.7925,-410.0969 1528.8359,-387.7572"/>
<polygon fill="#191970" stroke="#191970" points="1532.2637,-386.992 1527.4328,-377.5627 1525.3291,-387.9466 1532.2637,-386.992"/>
</g>
<!-- Node38&#45;&gt;Node16 -->
<g id="edge71" class="edge">
<title>Node38&#45;&gt;Node16</title>
<path fill="none" stroke="#191970" d="M1267.7861,-753.3481C1094.775,-732.781 579.8802,-670.8282 546,-658 411.102,-606.9231 416.1093,-531.1834 332,-414 325.2955,-404.6591 317.7008,-394.3581 311.3926,-385.8763"/>
<polygon fill="#191970" stroke="#191970" points="314.1611,-383.734 305.3757,-377.8122 308.5507,-387.9201 314.1611,-383.734"/>
</g>
<!-- Node38&#45;&gt;Node19 -->
<g id="edge75" class="edge">
<title>Node38&#45;&gt;Node19</title>
<path fill="none" stroke="#191970" d="M1326.5904,-750.0793C1329.5966,-737.0949 1333.6972,-713.6754 1330,-694 1306.9608,-571.3909 1239.1412,-435.677 1213.2267,-386.8095"/>
<polygon fill="#191970" stroke="#191970" points="1216.1725,-384.8967 1208.364,-377.7359 1210.0027,-388.2032 1216.1725,-384.8967"/>
</g>
<!-- Node38&#45;&gt;Node24 -->
<g id="edge74" class="edge">
<title>Node38&#45;&gt;Node24</title>
<path fill="none" stroke="#191970" d="M1380.1756,-756.8012C1448.1802,-751.8307 1557.4147,-739.975 1588,-714 1651.8529,-659.772 1650,-619.7728 1650,-536 1650,-536 1650,-536 1650,-480 1650,-443.6071 1673.6865,-406.7455 1689.971,-385.7035"/>
<polygon fill="#191970" stroke="#191970" points="1692.8667,-387.6876 1696.4063,-377.7015 1687.4118,-383.3008 1692.8667,-387.6876"/>
</g>
<!-- Node39 -->
<g id="node38" class="node">
<title>Node39</title>
<polygon fill="#ffffff" stroke="#bfbfbf" points="630,-694.5 630,-713.5 776,-713.5 776,-694.5 630,-694.5"/>
<text text-anchor="middle" x="703" y="-701.5" font-family="Helvetica,sans-Serif" font-size="10.00" fill="#000000">odp/api/abi/classification.h</text>
</g>
<!-- Node38&#45;&gt;Node39 -->
<g id="edge72" class="edge">
<title>Node38&#45;&gt;Node39</title>
<path fill="none" stroke="#191970" d="M1267.7951,-754.9316C1158.059,-745.0359 914.8189,-723.1012 786.3005,-711.5118"/>
<polygon fill="#191970" stroke="#191970" points="786.3904,-708.0058 776.1165,-710.5934 785.7617,-714.9775 786.3904,-708.0058"/>
</g>
<!-- Node40 -->
<g id="node39" class="node">
<title>Node40</title>
<g id="a_node39"><a xlink:href="spec_2packet__io_8h.html" target="_top" xlink:title="ODP Packet IO. ">
<polygon fill="#ffffff" stroke="#000000" points="1183.5,-694.5 1183.5,-713.5 1320.5,-713.5 1320.5,-694.5 1183.5,-694.5"/>
<text text-anchor="middle" x="1252" y="-701.5" font-family="Helvetica,sans-Serif" font-size="10.00" fill="#000000">odp/api/spec/packet_io.h</text>
</a>
</g>
</g>
<!-- Node38&#45;&gt;Node40 -->
<g id="edge76" class="edge">
<title>Node38&#45;&gt;Node40</title>
<path fill="none" stroke="#191970" d="M1311.4586,-750.2455C1300.7213,-741.8943 1285.0527,-729.7076 1272.4953,-719.9408"/>
<polygon fill="#191970" stroke="#191970" points="1274.4401,-717.0194 1264.3977,-713.6427 1270.1425,-722.5449 1274.4401,-717.0194"/>
</g>
<!-- Node40&#45;&gt;Node3 -->
<g id="edge77" class="edge">
<title>Node40&#45;&gt;Node3</title>
<path fill="none" stroke="#191970" d="M1183.4786,-701.5734C1017.892,-695.4191 605.2407,-678.2453 546,-658 440.0898,-621.8055 180,-423.9241 180,-312 180,-312 180,-312 180,-133 180,-77.7133 344.3092,-39.2745 441.3968,-21.3874"/>
<polygon fill="#191970" stroke="#191970" points="442.2266,-24.7941 451.4415,-19.5658 440.9775,-17.9065 442.2266,-24.7941"/>
</g>
<!-- Node40&#45;&gt;Node12 -->
<g id="edge86" class="edge">
<title>Node40&#45;&gt;Node12</title>
<path fill="none" stroke="#191970" d="M1304.1651,-694.4778C1387.5903,-677.1115 1552.9208,-633.7078 1664,-546 1778.5349,-455.5636 1818,-401.9349 1818,-256 1818,-256 1818,-256 1818,-133 1818,-92.6729 1803.7501,-78.0727 1770,-56 1730.1344,-29.9277 1601.1349,-18.1105 1521.1131,-13.1723"/>
<polygon fill="#191970" stroke="#191970" points="1521.316,-9.6783 1511.1251,-12.5759 1520.8987,-16.6659 1521.316,-9.6783"/>
</g>
<!-- Node40&#45;&gt;Node17 -->
<g id="edge83" class="edge">
<title>Node40&#45;&gt;Node17</title>
<path fill="none" stroke="#191970" d="M1183.3608,-698.0865C1054.778,-687.0086 779.8028,-663.3184 659.9017,-652.9885"/>
<polygon fill="#191970" stroke="#191970" points="660.0841,-649.4913 649.8205,-652.1199 659.4832,-656.4655 660.0841,-649.4913"/>
</g>
<!-- Node40&#45;&gt;Node23 -->
<g id="edge85" class="edge">
<title>Node40&#45;&gt;Node23</title>
<path fill="none" stroke="#191970" d="M1248.7851,-694.4597C1236.941,-660.4406 1192.8255,-543.2117 1124,-470 1111.7957,-457.0179 1095.1731,-446.1691 1080.8725,-438.2737"/>
<polygon fill="#191970" stroke="#191970" points="1082.3565,-435.0992 1071.8801,-433.519 1079.0845,-441.2874 1082.3565,-435.0992"/>
</g>
<!-- Node40&#45;&gt;Node26 -->
<g id="edge84" class="edge">
<title>Node40&#45;&gt;Node26</title>
<path fill="none" stroke="#191970" d="M1256.455,-694.4289C1276.2231,-650.3977 1351.4761,-464.9005 1269,-358 1256.0892,-341.2658 1205.3223,-328.509 1164.7718,-320.7221"/>
<polygon fill="#191970" stroke="#191970" points="1165.1833,-317.2386 1154.7117,-318.85 1163.9026,-324.1205 1165.1833,-317.2386"/>
</g>
<!-- Node40&#45;&gt;Node35 -->
<g id="edge78" class="edge">
<title>Node40&#45;&gt;Node35</title>
<path fill="none" stroke="#191970" d="M1242.0996,-694.157C1209.6433,-661.9035 1103.4715,-556.5107 1015,-470 972.976,-428.9074 942.9274,-432.1198 920,-378 916.2908,-369.2446 923.5973,-326.7596 924,-322 929.2025,-260.5022 932.6911,-187.537 934.1811,-153.0132"/>
<polygon fill="#191970" stroke="#191970" points="937.6851,-152.9894 934.6094,-142.8509 930.6913,-152.6946 937.6851,-152.9894"/>
</g>
<!-- Node41 -->
<g id="node40" class="node">
<title>Node41</title>
<g id="a_node40"><a xlink:href="packet__io__stats_8h.html" target="_top" xlink:title="ODP packet IO stats. ">
<polygon fill="#ffffff" stroke="#000000" points="1366.5,-582.5 1366.5,-601.5 1507.5,-601.5 1507.5,-582.5 1366.5,-582.5"/>
<text text-anchor="middle" x="1437" y="-589.5" font-family="Helvetica,sans-Serif" font-size="10.00" fill="#000000">odp/api/packet_io_stats.h</text>
</a>
</g>
</g>
<!-- Node40&#45;&gt;Node41 -->
<g id="edge79" class="edge">
<title>Node40&#45;&gt;Node41</title>
<path fill="none" stroke="#191970" d="M1267.773,-694.4509C1299.9941,-674.9441 1373.5826,-630.3932 1412.2383,-606.9909"/>
<polygon fill="#191970" stroke="#191970" points="1414.5251,-609.6979 1421.2669,-601.5249 1410.8998,-603.7098 1414.5251,-609.6979"/>
</g>
<!-- Node42 -->
<g id="node41" class="node">
<title>Node42</title>
<g id="a_node41"><a xlink:href="spec_2packet__io__stats_8h.html" target="_top" xlink:title="ODP Packet IO. ">
<polygon fill="#ffffff" stroke="#000000" points="1266,-56.5 1266,-86.5 1380,-86.5 1380,-56.5 1266,-56.5"/>
<text text-anchor="start" x="1274" y="-74.5" font-family="Helvetica,sans-Serif" font-size="10.00" fill="#000000">odp/api/spec/packet</text>
<text text-anchor="middle" x="1323" y="-63.5" font-family="Helvetica,sans-Serif" font-size="10.00" fill="#000000">_io_stats.h</text>
</a>
</g>
</g>
<!-- Node41&#45;&gt;Node42 -->
<g id="edge80" class="edge">
<title>Node41&#45;&gt;Node42</title>
<path fill="none" stroke="#191970" d="M1437.4298,-582.4139C1438.2594,-563.0603 1440,-517.9303 1440,-480 1440,-480 1440,-480 1440,-424 1440,-314.2438 1259,-365.7562 1259,-256 1259,-256 1259,-256 1259,-194.5 1259,-156.3385 1283.5431,-118.2722 1302.2321,-94.8176"/>
<polygon fill="#191970" stroke="#191970" points="1305.1301,-96.8047 1308.7963,-86.8644 1299.7315,-92.3488 1305.1301,-96.8047"/>
</g>
<!-- Node42&#45;&gt;Node3 -->
<g id="edge81" class="edge">
<title>Node42&#45;&gt;Node3</title>
<path fill="none" stroke="#191970" d="M1265.7056,-64.716C1239.8514,-61.7913 1208.9131,-58.4806 1181,-56 962.924,-36.6197 704.2882,-20.9211 581.9253,-13.9303"/>
<polygon fill="#191970" stroke="#191970" points="581.7607,-10.4154 571.5779,-13.3414 581.3629,-17.4041 581.7607,-10.4154"/>
</g>
<!-- Node42&#45;&gt;Node12 -->
<g id="edge82" class="edge">
<title>Node42&#45;&gt;Node12</title>
<path fill="none" stroke="#191970" d="M1355.2908,-56.4554C1376.6392,-46.509 1404.4196,-33.5659 1425.2333,-23.8686"/>
<polygon fill="#191970" stroke="#191970" points="1426.9584,-26.9262 1434.5447,-19.5303 1424.0021,-20.581 1426.9584,-26.9262"/>
</g>
<!-- Node44 -->
<g id="node43" class="node">
<title>Node44</title>
<g id="a_node43"><a xlink:href="spec_2protocols_8h.html" target="_top" xlink:title="ODP protocols. ">
<polygon fill="#ffffff" stroke="#000000" points="443.5,-62 443.5,-81 578.5,-81 578.5,-62 443.5,-62"/>
<text text-anchor="middle" x="511" y="-69" font-family="Helvetica,sans-Serif" font-size="10.00" fill="#000000">odp/api/spec/protocols.h</text>
</a>
</g>
</g>
<!-- Node43&#45;&gt;Node44 -->
<g id="edge88" class="edge">
<title>Node43&#45;&gt;Node44</title>
<path fill="none" stroke="#191970" d="M91.1795,-526.2042C113.8873,-499.0846 179.8037,-420.8714 237,-358 332.0499,-253.5191 450.7945,-132.4312 494.1577,-88.5095"/>
<polygon fill="#191970" stroke="#191970" points="496.8144,-90.8005 501.3546,-81.2277 491.8357,-85.8798 496.8144,-90.8005"/>
</g>
<!-- Node44&#45;&gt;Node3 -->
<g id="edge89" class="edge">
<title>Node44&#45;&gt;Node3</title>
<path fill="none" stroke="#191970" d="M511,-61.8906C511,-53.3657 511,-40.6392 511,-29.9235"/>
<polygon fill="#191970" stroke="#191970" points="514.5001,-29.7448 511,-19.7449 507.5001,-29.7449 514.5001,-29.7448"/>
</g>
<!-- Node44&#45;&gt;Node12 -->
<g id="edge90" class="edge">
<title>Node44&#45;&gt;Node12</title>
<path fill="none" stroke="#191970" d="M575.6276,-61.9636C592.3328,-59.7461 610.312,-57.5761 627,-56 909.4656,-29.3224 1247.7122,-16.4584 1388.4734,-11.9495"/>
<polygon fill="#191970" stroke="#191970" points="1388.7819,-15.4416 1398.666,-11.6266 1388.5602,-8.4451 1388.7819,-15.4416"/>
</g>
<!-- Node45&#45;&gt;Node5 -->
<g id="edge92" class="edge">
<title>Node45&#45;&gt;Node5</title>
<path fill="none" stroke="#191970" d="M1102.2187,-880.8091C1238.2496,-875.745 1551.4365,-861.7312 1655,-837 1741.6241,-816.314 1840,-849.0598 1840,-760 1840,-760 1840,-760 1840,-648 1840,-573.3122 1836,-554.6878 1836,-480 1836,-480 1836,-480 1836,-424 1836,-385.2415 1812.7851,-376.9944 1779,-358 1694.5463,-310.5191 1656.8951,-349.5204 1564,-322 1542.625,-315.6676 1538.9601,-309.5934 1518,-302 1481.7347,-288.8618 1439.7643,-276.7179 1408.347,-268.2106"/>
<polygon fill="#191970" stroke="#191970" points="1409.1033,-264.7898 1398.538,-265.5796 1407.2898,-271.5509 1409.1033,-264.7898"/>
</g>
<!-- Node45&#45;&gt;Node13 -->
<g id="edge95" class="edge">
<title>Node45&#45;&gt;Node13</title>
<path fill="none" stroke="#191970" d="M1102.1034,-877.5792C1266.0885,-862.8556 1688,-819.2195 1688,-760 1688,-760 1688,-760 1688,-704 1688,-569.877 1581.9686,-432.8536 1541.469,-385.4083"/>
<polygon fill="#191970" stroke="#191970" points="1543.9052,-382.8753 1534.7098,-377.6126 1538.6163,-387.4609 1543.9052,-382.8753"/>
</g>
<!-- Node45&#45;&gt;Node16 -->
<g id="edge93" class="edge">
<title>Node45&#45;&gt;Node16</title>
<path fill="none" stroke="#191970" d="M973.8142,-877.4217C909.8269,-870.9698 809.0923,-858.3916 724,-837 510.4386,-783.3121 380.874,-843.3641 262,-658 205.6207,-570.0859 263.1926,-436.0391 287.9087,-386.9006"/>
<polygon fill="#191970" stroke="#191970" points="291.1548,-388.2423 292.6313,-377.7509 284.9345,-385.0317 291.1548,-388.2423"/>
</g>
<!-- Node45&#45;&gt;Node19 -->
<g id="edge97" class="edge">
<title>Node45&#45;&gt;Node19</title>
<path fill="none" stroke="#191970" d="M1041.1488,-873.1721C1061.0814,-810.958 1169.7594,-471.751 1196.8706,-387.1313"/>
<polygon fill="#191970" stroke="#191970" points="1200.2331,-388.1072 1199.9512,-377.5161 1193.5669,-385.9713 1200.2331,-388.1072"/>
</g>
<!-- Node45&#45;&gt;Node24 -->
<g id="edge96" class="edge">
<title>Node45&#45;&gt;Node24</title>
<path fill="none" stroke="#191970" d="M1102.1516,-879.4049C1286.057,-868.2498 1802,-830.658 1802,-760 1802,-760 1802,-760 1802,-704 1802,-627.4471 1764,-612.5529 1764,-536 1764,-536 1764,-536 1764,-480 1764,-442.9131 1738.3634,-406.0541 1720.8885,-385.2374"/>
<polygon fill="#191970" stroke="#191970" points="1723.4288,-382.8251 1714.2188,-377.5881 1718.1528,-387.4255 1723.4288,-382.8251"/>
</g>
<!-- Node45&#45;&gt;Node39 -->
<g id="edge94" class="edge">
<title>Node45&#45;&gt;Node39</title>
<path fill="none" stroke="#191970" d="M973.7058,-880.091C899.9568,-875.5033 784.9571,-864.1254 752,-837 717.4472,-808.5613 707.2583,-753.409 704.2547,-723.8488"/>
<polygon fill="#191970" stroke="#191970" points="707.7153,-723.2276 703.3983,-713.5522 700.7393,-723.808 707.7153,-723.2276"/>
</g>
<!-- Node46 -->
<g id="node45" class="node">
<title>Node46</title>
<g id="a_node45"><a xlink:href="spec_2classification_8h.html" target="_top" xlink:title="ODP classification descriptor. ">
<polygon fill="#ffffff" stroke="#000000" points="1190,-812 1190,-831 1344,-831 1344,-812 1190,-812"/>
<text text-anchor="middle" x="1267" y="-819" font-family="Helvetica,sans-Serif" font-size="10.00" fill="#000000">odp/api/spec/classification.h</text>
</a>
</g>
</g>
<!-- Node45&#45;&gt;Node46 -->
<g id="edge98" class="edge">
<title>Node45&#45;&gt;Node46</title>
<path fill="none" stroke="#191970" d="M1073.7813,-873.3906C1113.6936,-862.6718 1178.3397,-845.3105 1221.7372,-833.6557"/>
<polygon fill="#191970" stroke="#191970" points="1222.72,-837.0159 1231.47,-831.0419 1220.9044,-830.2554 1222.72,-837.0159"/>
</g>
<!-- Node46&#45;&gt;Node3 -->
<g id="edge99" class="edge">
<title>Node46&#45;&gt;Node3</title>
<path fill="none" stroke="#191970" d="M1189.8021,-817.9039C1035.0472,-809.4287 676.6336,-783.4132 384,-714 312.3236,-696.9982 280.0755,-710.1029 228,-658 170.2605,-600.2301 104,-393.6775 104,-312 104,-312 104,-312 104,-133 104,-97.154 100.4475,-78.9303 128,-56 151.4764,-36.462 335.9806,-21.4109 440.0949,-14.3732"/>
<polygon fill="#191970" stroke="#191970" points="440.475,-17.8558 450.2194,-13.697 440.0084,-10.8713 440.475,-17.8558"/>
</g>
<!-- Node46&#45;&gt;Node12 -->
<g id="edge107" class="edge">
<title>Node46&#45;&gt;Node12</title>
<path fill="none" stroke="#191970" d="M1344.0289,-817.9213C1415.0094,-812.7807 1522.4357,-800.2907 1611,-770 1814.7012,-700.3304 1950,-639.286 1950,-424 1950,-424 1950,-424 1950,-133 1950,-45.7266 1656.5301,-19.9278 1521.522,-12.6769"/>
<polygon fill="#191970" stroke="#191970" points="1521.4686,-9.1696 1511.3009,-12.1472 1521.1063,-16.1602 1521.4686,-9.1696"/>
</g>
<!-- Node46&#45;&gt;Node33 -->
<g id="edge101" class="edge">
<title>Node46&#45;&gt;Node33</title>
<path fill="none" stroke="#191970" d="M1245.122,-811.8192C1174.772,-780.0939 949.7191,-673.9259 791,-546 764.7899,-524.875 759.3715,-517.5314 740,-490 729.5326,-475.1234 720.0294,-456.7378 713.5756,-443.1531"/>
<polygon fill="#191970" stroke="#191970" points="716.6426,-441.4465 709.2693,-433.8383 710.2888,-444.384 716.6426,-441.4465"/>
</g>
<!-- Node46&#45;&gt;Node38 -->
<g id="edge100" class="edge">
<title>Node46&#45;&gt;Node38</title>
<path fill="none" stroke="#191970" d="M1275.9063,-811.8906C1284.4728,-802.6478 1297.6169,-788.466 1308.0003,-777.2628"/>
<polygon fill="#191970" stroke="#191970" points="1310.7375,-779.4584 1314.9682,-769.7449 1305.6035,-774.7 1310.7375,-779.4584"/>
</g>
<!-- Node47 -->
<g id="node46" class="node">
<title>Node47</title>
<g id="a_node46"><a xlink:href="threshold_8h.html" target="_top" xlink:title="ODP threshold API &#45; platform specific header. ">
<polygon fill="#ffffff" stroke="#000000" points="1492,-750.5 1492,-769.5 1602,-769.5 1602,-750.5 1492,-750.5"/>
<text text-anchor="middle" x="1547" y="-757.5" font-family="Helvetica,sans-Serif" font-size="10.00" fill="#000000">odp/api/threshold.h</text>
</a>
</g>
</g>
<!-- Node46&#45;&gt;Node47 -->
<g id="edge102" class="edge">
<title>Node46&#45;&gt;Node47</title>
<path fill="none" stroke="#191970" d="M1310.4428,-811.9581C1359.7956,-801.1181 1440.3616,-783.4224 1493.532,-771.7439"/>
<polygon fill="#191970" stroke="#191970" points="1494.439,-775.1282 1503.4553,-769.5643 1492.9372,-768.2911 1494.439,-775.1282"/>
</g>
<!-- Node48 -->
<g id="node47" class="node">
<title>Node48</title>
<g id="a_node47"><a xlink:href="spec_2threshold_8h.html" target="_top" xlink:title="ODP threshold descriptor. ">
<polygon fill="#ffffff" stroke="#000000" points="1616,-302.5 1616,-321.5 1752,-321.5 1752,-302.5 1616,-302.5"/>
<text text-anchor="middle" x="1684" y="-309.5" font-family="Helvetica,sans-Serif" font-size="10.00" fill="#000000">odp/api/spec/threshold.h</text>
</a>
</g>
</g>
<!-- Node47&#45;&gt;Node48 -->
<g id="edge103" class="edge">
<title>Node47&#45;&gt;Node48</title>
<path fill="none" stroke="#191970" d="M1599.2554,-750.415C1652.0897,-737.3527 1726,-708.3028 1726,-648 1726,-648 1726,-648 1726,-592 1726,-465.5089 1966.9953,-456.7914 1888,-358 1872.1374,-338.1623 1812.6722,-326.268 1762.0068,-319.5601"/>
<polygon fill="#191970" stroke="#191970" points="1762.3686,-316.078 1752.0066,-318.2869 1761.4845,-323.022 1762.3686,-316.078"/>
</g>
<!-- Node48&#45;&gt;Node3 -->
<g id="edge104" class="edge">
<title>Node48&#45;&gt;Node3</title>
<path fill="none" stroke="#191970" d="M1658.7157,-302.4937C1616.8964,-286.2806 1531.3549,-251.0249 1465,-210 1446.1668,-198.3561 1446.3128,-187.8127 1426,-179 1362.0097,-151.2379 867.7902,-117.379 805,-87 786.8856,-78.236 789.9927,-65.0112 772,-56 739.4415,-39.6939 647.3685,-25.9666 581.8219,-17.8628"/>
<polygon fill="#191970" stroke="#191970" points="581.8928,-14.3456 571.543,-16.6109 581.0465,-21.2943 581.8928,-14.3456"/>
</g>
<!-- Node48&#45;&gt;Node5 -->
<g id="edge105" class="edge">
<title>Node48&#45;&gt;Node5</title>
<path fill="none" stroke="#191970" d="M1628.8413,-302.4369C1572.6333,-292.6918 1485.4888,-277.5832 1425.9718,-267.2645"/>
<polygon fill="#191970" stroke="#191970" points="1426.3821,-263.7835 1415.9312,-265.5237 1425.1863,-270.6806 1426.3821,-263.7835"/>
</g>
<!-- Node48&#45;&gt;Node12 -->
<g id="edge106" class="edge">
<title>Node48&#45;&gt;Node12</title>
<path fill="none" stroke="#191970" d="M1692.5581,-302.4284C1708.6918,-283.355 1742,-238.6334 1742,-194.5 1742,-194.5 1742,-194.5 1742,-133 1742,-97.154 1744.9279,-79.6606 1718,-56 1689.4335,-30.8996 1589.4482,-19.0781 1521.3272,-13.8247"/>
<polygon fill="#191970" stroke="#191970" points="1521.3336,-10.3157 1511.1022,-13.0667 1520.816,-17.2965 1521.3336,-10.3157"/>
</g>
<!-- Node50 -->
<g id="node49" class="node">
<title>Node50</title>
<polygon fill="#ffffff" stroke="#bfbfbf" points="1996,-806.5 1996,-836.5 2098,-836.5 2098,-806.5 1996,-806.5"/>
<text text-anchor="start" x="2004" y="-824.5" font-family="Helvetica,sans-Serif" font-size="10.00" fill="#000000">odp/api/abi/traffic</text>
<text text-anchor="middle" x="2047" y="-813.5" font-family="Helvetica,sans-Serif" font-size="10.00" fill="#000000">_mngr.h</text>
</g>
<!-- Node49&#45;&gt;Node50 -->
<g id="edge109" class="edge">
<title>Node49&#45;&gt;Node50</title>
<path fill="none" stroke="#191970" d="M1942.375,-873.3906C1959.7784,-864.7591 1985.8666,-851.8202 2007.6379,-841.0224"/>
<polygon fill="#191970" stroke="#191970" points="2009.2626,-844.1234 2016.6662,-836.5446 2006.1524,-837.8523 2009.2626,-844.1234"/>
</g>
<!-- Node51 -->
<g id="node50" class="node">
<title>Node51</title>
<g id="a_node50"><a xlink:href="spec_2traffic__mngr_8h.html" target="_top" xlink:title="Copyright (c) 2015&#45;2018, Linaro Limited All rights reserved. ">
<polygon fill="#ffffff" stroke="#000000" points="1868,-806.5 1868,-836.5 1978,-836.5 1978,-806.5 1868,-806.5"/>
<text text-anchor="start" x="1876" y="-824.5" font-family="Helvetica,sans-Serif" font-size="10.00" fill="#000000">odp/api/spec/traffic</text>
<text text-anchor="middle" x="1923" y="-813.5" font-family="Helvetica,sans-Serif" font-size="10.00" fill="#000000">_mngr.h</text>
</a>
</g>
</g>
<!-- Node49&#45;&gt;Node51 -->
<g id="edge110" class="edge">
<title>Node49&#45;&gt;Node51</title>
<path fill="none" stroke="#191970" d="M1923,-873.3906C1923,-866.2234 1923,-856.0862 1923,-846.671"/>
<polygon fill="#191970" stroke="#191970" points="1926.5001,-846.5446 1923,-836.5446 1919.5001,-846.5446 1926.5001,-846.5446"/>
</g>
<!-- Node51&#45;&gt;Node3 -->
<g id="edge111" class="edge">
<title>Node51&#45;&gt;Node3</title>
<path fill="none" stroke="#191970" d="M1867.9564,-818.8249C1637.2027,-807.3952 746.9536,-761.0913 470,-714 422.8092,-705.976 297.0254,-690.6279 262,-658 202.4524,-602.5284 142,-393.3819 142,-312 142,-312 142,-312 142,-133 142,-85.2269 174.5569,-77.9283 217,-56 254.8093,-36.4658 365.7189,-23.0227 439.9807,-15.9212"/>
<polygon fill="#191970" stroke="#191970" points="440.5757,-19.3808 450.2047,-14.9612 439.9213,-12.4114 440.5757,-19.3808"/>
</g>
<!-- Node51&#45;&gt;Node5 -->
<g id="edge112" class="edge">
<title>Node51&#45;&gt;Node5</title>
<path fill="none" stroke="#191970" d="M1913.013,-806.2519C1899.7557,-784.5006 1878,-742.8826 1878,-704 1878,-704 1878,-704 1878,-648 1878,-518.5117 1939.2059,-451.859 1850,-358 1812.3928,-318.4311 1659.2909,-337.6735 1607,-322 1586.8103,-315.9484 1583.9461,-308.8119 1564,-302 1519.2336,-286.7116 1467.1693,-275.0306 1426.9763,-267.2653"/>
<polygon fill="#191970" stroke="#191970" points="1427.5026,-263.8028 1417.0252,-265.3756 1426.1966,-270.6799 1427.5026,-263.8028"/>
</g>
<!-- Node51&#45;&gt;Node12 -->
<g id="edge114" class="edge">
<title>Node51&#45;&gt;Node12</title>
<path fill="none" stroke="#191970" d="M1938.0757,-806.2684C1957.2773,-785.181 1988,-745.0301 1988,-704 1988,-704 1988,-704 1988,-133 1988,-78.6504 1943.2086,-76.8079 1893,-56 1827.4617,-28.839 1626.7882,-16.8841 1521.332,-12.362"/>
<polygon fill="#191970" stroke="#191970" points="1521.26,-8.856 1511.1223,-11.9346 1520.9672,-15.8499 1521.26,-8.856"/>
</g>
<!-- Node51&#45;&gt;Node38 -->
<g id="edge113" class="edge">
<title>Node51&#45;&gt;Node38</title>
<path fill="none" stroke="#191970" d="M1867.9883,-815.8519C1757.5448,-804.5125 1509.2393,-779.0187 1390.155,-766.7922"/>
<polygon fill="#191970" stroke="#191970" points="1390.3837,-763.2974 1380.0785,-765.7576 1389.6687,-770.2608 1390.3837,-763.2974"/>
</g>
</g>
</svg>
