<?xml version="1.0" encoding="UTF-8" standalone="no"?>
<!DOCTYPE svg PUBLIC "-//W3C//DTD SVG 1.1//EN"
 "http://www.w3.org/Graphics/SVG/1.1/DTD/svg11.dtd">
<!-- Generated by graphviz version 2.40.1 (20161225.0304)
 -->
<!-- Title: packet_flags.h Pages: 1 -->
<svg width="1056pt" height="543pt"
 viewBox="0.00 0.00 1056.00 543.00" xmlns="http://www.w3.org/2000/svg" xmlns:xlink="http://www.w3.org/1999/xlink">
<g id="graph0" class="graph" transform="scale(1 1) rotate(0) translate(4 539)">
<title>packet_flags.h</title>
<polygon fill="#ffffff" stroke="transparent" points="-4,4 -4,-539 1052,-539 1052,4 -4,4"/>
<!-- Node0 -->
<g id="node1" class="node">
<title>Node0</title>
<polygon fill="#bfbfbf" stroke="#000000" points="118.5,-515.5 118.5,-534.5 205.5,-534.5 205.5,-515.5 118.5,-515.5"/>
<text text-anchor="middle" x="162" y="-522.5" font-family="Helvetica,sans-Serif" font-size="10.00" fill="#000000">packet_flags.h</text>
</g>
<!-- Node1 -->
<g id="node2" class="node">
<title>Node1</title>
<polygon fill="#ffffff" stroke="#bfbfbf" points="44.5,-448.5 44.5,-478.5 151.5,-478.5 151.5,-448.5 44.5,-448.5"/>
<text text-anchor="start" x="52.5" y="-466.5" font-family="Helvetica,sans-Serif" font-size="10.00" fill="#000000">odp/api/abi/packet</text>
<text text-anchor="middle" x="98" y="-455.5" font-family="Helvetica,sans-Serif" font-size="10.00" fill="#000000">_flags.h</text>
</g>
<!-- Node0&#45;&gt;Node1 -->
<g id="edge1" class="edge">
<title>Node0&#45;&gt;Node1</title>
<path fill="none" stroke="#191970" d="M152,-515.3906C143.7394,-507.4527 131.6878,-495.8718 121.0645,-485.6635"/>
<polygon fill="#191970" stroke="#191970" points="123.2918,-482.9498 113.6562,-478.5446 118.4416,-487.9971 123.2918,-482.9498"/>
</g>
<!-- Node2 -->
<g id="node3" class="node">
<title>Node2</title>
<g id="a_node3"><a xlink:href="spec_2packet__flags_8h.html" target="_top" xlink:title="ODP packet flags. ">
<polygon fill="#ffffff" stroke="#000000" points="170,-448.5 170,-478.5 284,-478.5 284,-448.5 170,-448.5"/>
<text text-anchor="start" x="178" y="-466.5" font-family="Helvetica,sans-Serif" font-size="10.00" fill="#000000">odp/api/spec/packet</text>
<text text-anchor="middle" x="227" y="-455.5" font-family="Helvetica,sans-Serif" font-size="10.00" fill="#000000">_flags.h</text>
</a>
</g>
</g>
<!-- Node0&#45;&gt;Node2 -->
<g id="edge2" class="edge">
<title>Node0&#45;&gt;Node2</title>
<path fill="none" stroke="#191970" d="M172.1563,-515.3906C180.5459,-507.4527 192.7859,-495.8718 203.5751,-485.6635"/>
<polygon fill="#191970" stroke="#191970" points="206.2407,-487.9598 211.0992,-478.5446 201.4298,-482.875 206.2407,-487.9598"/>
</g>
<!-- Node3 -->
<g id="node4" class="node">
<title>Node3</title>
<polygon fill="#ffffff" stroke="#bfbfbf" points="530.5,-.5 530.5,-19.5 651.5,-19.5 651.5,-.5 530.5,-.5"/>
<text text-anchor="middle" x="591" y="-7.5" font-family="Helvetica,sans-Serif" font-size="10.00" fill="#000000">odp/visibility_begin.h</text>
</g>
<!-- Node2&#45;&gt;Node3 -->
<g id="edge3" class="edge">
<title>Node2&#45;&gt;Node3</title>
<path fill="none" stroke="#191970" d="M284.0793,-461.3522C470.2638,-453.5967 1048,-423.3031 1048,-346 1048,-346 1048,-346 1048,-122 1048,-43.4598 790.1537,-19.7173 661.8198,-12.7643"/>
<polygon fill="#191970" stroke="#191970" points="661.8549,-9.2614 651.6861,-12.2356 661.4901,-16.2519 661.8549,-9.2614"/>
</g>
<!-- Node4 -->
<g id="node5" class="node">
<title>Node4</title>
<g id="a_node5"><a xlink:href="std__types_8h.html" target="_top" xlink:title="Standard C language types and definitions for ODP. ">
<polygon fill="#ffffff" stroke="#000000" points="213,-224.5 213,-243.5 325,-243.5 325,-224.5 213,-224.5"/>
<text text-anchor="middle" x="269" y="-231.5" font-family="Helvetica,sans-Serif" font-size="10.00" fill="#000000">odp/api/std_types.h</text>
</a>
</g>
</g>
<!-- Node2&#45;&gt;Node4 -->
<g id="edge4" class="edge">
<title>Node2&#45;&gt;Node4</title>
<path fill="none" stroke="#191970" d="M183.9709,-448.3307C137.8383,-429.0589 72.3884,-391.4898 82,-336 86.5106,-309.9592 82.6315,-297.9814 102,-280 117.0349,-266.0418 163.4794,-253.8958 203.5828,-245.5952"/>
<polygon fill="#191970" stroke="#191970" points="204.5095,-248.9788 213.619,-243.5689 203.1241,-242.1172 204.5095,-248.9788"/>
</g>
<!-- Node11 -->
<g id="node12" class="node">
<title>Node11</title>
<polygon fill="#ffffff" stroke="#bfbfbf" points="154,-.5 154,-19.5 266,-19.5 266,-.5 154,-.5"/>
<text text-anchor="middle" x="210" y="-7.5" font-family="Helvetica,sans-Serif" font-size="10.00" fill="#000000">odp/visibility_end.h</text>
</g>
<!-- Node2&#45;&gt;Node11 -->
<g id="edge32" class="edge">
<title>Node2&#45;&gt;Node11</title>
<path fill="none" stroke="#191970" d="M176.6213,-448.4224C109.7453,-426.8737 0,-385.4949 0,-346 0,-346 0,-346 0,-122 0,-55.7547 82.3645,-28.5563 143.929,-17.4794"/>
<polygon fill="#191970" stroke="#191970" points="144.7238,-20.8947 153.9997,-15.7753 143.5559,-13.9928 144.7238,-20.8947"/>
</g>
<!-- Node12 -->
<g id="node13" class="node">
<title>Node12</title>
<g id="a_node13"><a xlink:href="packet_8h.html" target="_top" xlink:title="ODP packet descriptor. ">
<polygon fill="#ffffff" stroke="#000000" points="367,-392.5 367,-411.5 465,-411.5 465,-392.5 367,-392.5"/>
<text text-anchor="middle" x="416" y="-399.5" font-family="Helvetica,sans-Serif" font-size="10.00" fill="#000000">odp/api/packet.h</text>
</a>
</g>
</g>
<!-- Node2&#45;&gt;Node12 -->
<g id="edge15" class="edge">
<title>Node2&#45;&gt;Node12</title>
<path fill="none" stroke="#191970" d="M273.2346,-448.4554C305.0464,-438.104 346.833,-424.5067 376.9694,-414.7004"/>
<polygon fill="#191970" stroke="#191970" points="378.2855,-417.9529 386.7117,-411.5303 376.1195,-411.2964 378.2855,-417.9529"/>
</g>
<!-- Node5 -->
<g id="node6" class="node">
<title>Node5</title>
<polygon fill="#ffffff" stroke="#bfbfbf" points="356,-168.5 356,-187.5 486,-187.5 486,-168.5 356,-168.5"/>
<text text-anchor="middle" x="421" y="-175.5" font-family="Helvetica,sans-Serif" font-size="10.00" fill="#000000">odp/api/abi/std_types.h</text>
</g>
<!-- Node4&#45;&gt;Node5 -->
<g id="edge5" class="edge">
<title>Node4&#45;&gt;Node5</title>
<path fill="none" stroke="#191970" d="M295.1297,-224.3733C320.0768,-215.1822 357.8592,-201.2624 385.5206,-191.0713"/>
<polygon fill="#191970" stroke="#191970" points="387.0378,-194.2424 395.2112,-187.5011 384.6178,-187.674 387.0378,-194.2424"/>
</g>
<!-- Node6 -->
<g id="node7" class="node">
<title>Node6</title>
<g id="a_node7"><a xlink:href="spec_2std__types_8h.html" target="_top" xlink:title="Standard C language types and definitions for ODP. ">
<polygon fill="#ffffff" stroke="#000000" points="200.5,-168.5 200.5,-187.5 337.5,-187.5 337.5,-168.5 200.5,-168.5"/>
<text text-anchor="middle" x="269" y="-175.5" font-family="Helvetica,sans-Serif" font-size="10.00" fill="#000000">odp/api/spec/std_types.h</text>
</a>
</g>
</g>
<!-- Node4&#45;&gt;Node6 -->
<g id="edge6" class="edge">
<title>Node4&#45;&gt;Node6</title>
<path fill="none" stroke="#191970" d="M269,-224.2455C269,-216.9382 269,-206.6944 269,-197.7046"/>
<polygon fill="#191970" stroke="#191970" points="272.5001,-197.6426 269,-187.6427 265.5001,-197.6427 272.5001,-197.6426"/>
</g>
<!-- Node6&#45;&gt;Node3 -->
<g id="edge7" class="edge">
<title>Node6&#45;&gt;Node3</title>
<path fill="none" stroke="#191970" d="M307.8239,-168.4677C336.7942,-160.6156 376.9125,-148.1556 410,-132 426.7255,-123.8334 524.3821,-56.3478 568.8994,-25.4007"/>
<polygon fill="#191970" stroke="#191970" points="571.09,-28.1404 577.2997,-19.5561 567.0921,-22.3943 571.09,-28.1404"/>
</g>
<!-- Node7 -->
<g id="node8" class="node">
<title>Node7</title>
<polygon fill="#ffffff" stroke="#bfbfbf" points="240.5,-112.5 240.5,-131.5 293.5,-131.5 293.5,-112.5 240.5,-112.5"/>
<text text-anchor="middle" x="267" y="-119.5" font-family="Helvetica,sans-Serif" font-size="10.00" fill="#000000">stdint.h</text>
</g>
<!-- Node6&#45;&gt;Node7 -->
<g id="edge8" class="edge">
<title>Node6&#45;&gt;Node7</title>
<path fill="none" stroke="#191970" d="M268.6516,-168.2455C268.3907,-160.9382 268.0248,-150.6944 267.7037,-141.7046"/>
<polygon fill="#191970" stroke="#191970" points="271.1992,-141.5113 267.3444,-131.6427 264.2036,-141.7613 271.1992,-141.5113"/>
</g>
<!-- Node8 -->
<g id="node9" class="node">
<title>Node8</title>
<g id="a_node9"><a xlink:href="align_8h.html" target="_top" xlink:title="ODP alignments. ">
<polygon fill="#ffffff" stroke="#000000" points="311.5,-112.5 311.5,-131.5 400.5,-131.5 400.5,-112.5 311.5,-112.5"/>
<text text-anchor="middle" x="356" y="-119.5" font-family="Helvetica,sans-Serif" font-size="10.00" fill="#000000">odp/api/align.h</text>
</a>
</g>
</g>
<!-- Node6&#45;&gt;Node8 -->
<g id="edge9" class="edge">
<title>Node6&#45;&gt;Node8</title>
<path fill="none" stroke="#191970" d="M284.1542,-168.2455C297.5027,-159.6534 317.1586,-147.0014 332.5383,-137.1018"/>
<polygon fill="#191970" stroke="#191970" points="334.5051,-139.9982 341.0194,-131.6427 330.7164,-134.1121 334.5051,-139.9982"/>
</g>
<!-- Node6&#45;&gt;Node11 -->
<g id="edge14" class="edge">
<title>Node6&#45;&gt;Node11</title>
<path fill="none" stroke="#191970" d="M258.5341,-168.4775C249.7348,-159.8427 237.5702,-146.3088 231,-132 215.5234,-98.2945 211.3698,-54.5924 210.3062,-29.6874"/>
<polygon fill="#191970" stroke="#191970" points="213.804,-29.5611 210.0053,-19.6707 206.8072,-29.7713 213.804,-29.5611"/>
</g>
<!-- Node9 -->
<g id="node10" class="node">
<title>Node9</title>
<polygon fill="#ffffff" stroke="#bfbfbf" points="238.5,-56.5 238.5,-75.5 345.5,-75.5 345.5,-56.5 238.5,-56.5"/>
<text text-anchor="middle" x="292" y="-63.5" font-family="Helvetica,sans-Serif" font-size="10.00" fill="#000000">odp/api/abi/align.h</text>
</g>
<!-- Node8&#45;&gt;Node9 -->
<g id="edge10" class="edge">
<title>Node8&#45;&gt;Node9</title>
<path fill="none" stroke="#191970" d="M344.8521,-112.2455C335.4913,-104.0549 321.9142,-92.1749 310.8651,-82.5069"/>
<polygon fill="#191970" stroke="#191970" points="312.8508,-79.5937 303.0202,-75.6427 308.2412,-84.8618 312.8508,-79.5937"/>
</g>
<!-- Node10 -->
<g id="node11" class="node">
<title>Node10</title>
<g id="a_node11"><a xlink:href="spec_2align_8h.html" target="_top" xlink:title="ODP alignments. ">
<polygon fill="#ffffff" stroke="#000000" points="364,-56.5 364,-75.5 478,-75.5 478,-56.5 364,-56.5"/>
<text text-anchor="middle" x="421" y="-63.5" font-family="Helvetica,sans-Serif" font-size="10.00" fill="#000000">odp/api/spec/align.h</text>
</a>
</g>
</g>
<!-- Node8&#45;&gt;Node10 -->
<g id="edge11" class="edge">
<title>Node8&#45;&gt;Node10</title>
<path fill="none" stroke="#191970" d="M367.3221,-112.2455C376.9223,-103.9746 390.8892,-91.9416 402.1695,-82.2232"/>
<polygon fill="#191970" stroke="#191970" points="404.516,-84.8214 409.8076,-75.6427 399.947,-79.5182 404.516,-84.8214"/>
</g>
<!-- Node10&#45;&gt;Node3 -->
<g id="edge12" class="edge">
<title>Node10&#45;&gt;Node3</title>
<path fill="none" stroke="#191970" d="M450.224,-56.3733C478.4925,-47.0613 521.4965,-32.8953 552.5344,-22.671"/>
<polygon fill="#191970" stroke="#191970" points="553.7544,-25.9542 562.1573,-19.5011 551.5643,-19.3056 553.7544,-25.9542"/>
</g>
<!-- Node10&#45;&gt;Node11 -->
<g id="edge13" class="edge">
<title>Node10&#45;&gt;Node11</title>
<path fill="none" stroke="#191970" d="M384.7278,-56.3733C349.0342,-46.9001 294.4121,-32.4032 255.7549,-22.1435"/>
<polygon fill="#191970" stroke="#191970" points="256.3621,-18.6835 245.7989,-19.5011 254.5664,-25.4493 256.3621,-18.6835"/>
</g>
<!-- Node12&#45;&gt;Node4 -->
<g id="edge16" class="edge">
<title>Node12&#45;&gt;Node4</title>
<path fill="none" stroke="#191970" d="M366.8239,-398.4595C281.2957,-391.7984 112.5399,-376.2326 95,-356 51.2675,-305.5538 156.3054,-265.4658 221.641,-246.2987"/>
<polygon fill="#191970" stroke="#191970" points="222.714,-249.6322 231.3636,-243.5137 220.7864,-242.9028 222.714,-249.6322"/>
</g>
<!-- Node13 -->
<g id="node14" class="node">
<title>Node13</title>
<polygon fill="#ffffff" stroke="#bfbfbf" points="486,-336.5 486,-355.5 596,-355.5 596,-336.5 486,-336.5"/>
<text text-anchor="middle" x="541" y="-343.5" font-family="Helvetica,sans-Serif" font-size="10.00" fill="#000000">odp/api/abi/event.h</text>
</g>
<!-- Node12&#45;&gt;Node13 -->
<g id="edge17" class="edge">
<title>Node12&#45;&gt;Node13</title>
<path fill="none" stroke="#191970" d="M437.4883,-392.3733C457.644,-383.3435 487.988,-369.7494 510.618,-359.6111"/>
<polygon fill="#191970" stroke="#191970" points="512.0971,-362.7838 519.7921,-355.5011 509.2351,-356.3955 512.0971,-362.7838"/>
</g>
<!-- Node14 -->
<g id="node15" class="node">
<title>Node14</title>
<polygon fill="#ffffff" stroke="#bfbfbf" points="756,-336.5 756,-355.5 886,-355.5 886,-336.5 756,-336.5"/>
<text text-anchor="middle" x="821" y="-343.5" font-family="Helvetica,sans-Serif" font-size="10.00" fill="#000000">odp/api/abi/packet_io.h</text>
</g>
<!-- Node12&#45;&gt;Node14 -->
<g id="edge18" class="edge">
<title>Node12&#45;&gt;Node14</title>
<path fill="none" stroke="#191970" d="M465.2561,-395.1893C535.1737,-385.5217 663.7877,-367.738 745.7134,-356.41"/>
<polygon fill="#191970" stroke="#191970" points="746.2868,-359.8641 755.7132,-355.0273 745.328,-352.9301 746.2868,-359.8641"/>
</g>
<!-- Node15 -->
<g id="node16" class="node">
<title>Node15</title>
<polygon fill="#ffffff" stroke="#bfbfbf" points="904,-336.5 904,-355.5 1020,-355.5 1020,-336.5 904,-336.5"/>
<text text-anchor="middle" x="962" y="-343.5" font-family="Helvetica,sans-Serif" font-size="10.00" fill="#000000">odp/api/abi/packet.h</text>
</g>
<!-- Node12&#45;&gt;Node15 -->
<g id="edge19" class="edge">
<title>Node12&#45;&gt;Node15</title>
<path fill="none" stroke="#191970" d="M465.0509,-398.1437C550.1016,-391.2706 730.6744,-375.8568 893.7046,-356.1052"/>
<polygon fill="#191970" stroke="#191970" points="894.4181,-359.5441 903.9207,-354.8589 893.5704,-352.5957 894.4181,-359.5441"/>
</g>
<!-- Node16 -->
<g id="node17" class="node">
<title>Node16</title>
<polygon fill="#ffffff" stroke="#bfbfbf" points="104.5,-336.5 104.5,-355.5 217.5,-355.5 217.5,-336.5 104.5,-336.5"/>
<text text-anchor="middle" x="161" y="-343.5" font-family="Helvetica,sans-Serif" font-size="10.00" fill="#000000">odp/api/abi/queue.h</text>
</g>
<!-- Node12&#45;&gt;Node16 -->
<g id="edge20" class="edge">
<title>Node12&#45;&gt;Node16</title>
<path fill="none" stroke="#191970" d="M372.4537,-392.4369C328.7207,-382.8328 261.2655,-368.0191 214.3458,-357.7152"/>
<polygon fill="#191970" stroke="#191970" points="214.8847,-354.2502 204.3667,-355.5237 213.3832,-361.0872 214.8847,-354.2502"/>
</g>
<!-- Node17 -->
<g id="node18" class="node">
<title>Node17</title>
<polygon fill="#ffffff" stroke="#bfbfbf" points="236,-336.5 236,-355.5 346,-355.5 346,-336.5 236,-336.5"/>
<text text-anchor="middle" x="291" y="-343.5" font-family="Helvetica,sans-Serif" font-size="10.00" fill="#000000">odp/api/abi/buffer.h</text>
</g>
<!-- Node12&#45;&gt;Node17 -->
<g id="edge21" class="edge">
<title>Node12&#45;&gt;Node17</title>
<path fill="none" stroke="#191970" d="M394.5117,-392.3733C374.356,-383.3435 344.012,-369.7494 321.382,-359.6111"/>
<polygon fill="#191970" stroke="#191970" points="322.7649,-356.3955 312.2079,-355.5011 319.9029,-362.7838 322.7649,-356.3955"/>
</g>
<!-- Node18 -->
<g id="node19" class="node">
<title>Node18</title>
<polygon fill="#ffffff" stroke="#bfbfbf" points="364,-336.5 364,-355.5 468,-355.5 468,-336.5 364,-336.5"/>
<text text-anchor="middle" x="416" y="-343.5" font-family="Helvetica,sans-Serif" font-size="10.00" fill="#000000">odp/api/abi/pool.h</text>
</g>
<!-- Node12&#45;&gt;Node18 -->
<g id="edge22" class="edge">
<title>Node12&#45;&gt;Node18</title>
<path fill="none" stroke="#191970" d="M416,-392.2455C416,-384.9382 416,-374.6944 416,-365.7046"/>
<polygon fill="#191970" stroke="#191970" points="419.5001,-365.6426 416,-355.6427 412.5001,-365.6427 419.5001,-365.6426"/>
</g>
<!-- Node19 -->
<g id="node20" class="node">
<title>Node19</title>
<g id="a_node20"><a xlink:href="spec_2packet_8h.html" target="_top" xlink:title="ODP packet descriptor. ">
<polygon fill="#ffffff" stroke="#000000" points="614.5,-336.5 614.5,-355.5 737.5,-355.5 737.5,-336.5 614.5,-336.5"/>
<text text-anchor="middle" x="676" y="-343.5" font-family="Helvetica,sans-Serif" font-size="10.00" fill="#000000">odp/api/spec/packet.h</text>
</a>
</g>
</g>
<!-- Node12&#45;&gt;Node19 -->
<g id="edge23" class="edge">
<title>Node12&#45;&gt;Node19</title>
<path fill="none" stroke="#191970" d="M460.4002,-392.4369C505.0841,-382.8127 574.057,-367.957 621.9088,-357.6504"/>
<polygon fill="#191970" stroke="#191970" points="622.7441,-361.0508 631.783,-355.5237 621.2702,-354.2078 622.7441,-361.0508"/>
</g>
<!-- Node19&#45;&gt;Node3 -->
<g id="edge24" class="edge">
<title>Node19&#45;&gt;Node3</title>
<path fill="none" stroke="#191970" d="M676,-336.4116C676,-317.0538 676,-271.9167 676,-234 676,-234 676,-234 676,-122 676,-91.4754 674.7658,-80.822 657,-56 647.7115,-43.0223 633.5658,-32.4653 620.7494,-24.7535"/>
<polygon fill="#191970" stroke="#191970" points="622.1661,-21.5334 611.7405,-19.6471 618.7142,-27.6232 622.1661,-21.5334"/>
</g>
<!-- Node19&#45;&gt;Node11 -->
<g id="edge31" class="edge">
<title>Node19&#45;&gt;Node11</title>
<path fill="none" stroke="#191970" d="M619.6518,-336.4269C488.1348,-313.7027 172,-256.7167 172,-234 172,-234 172,-234 172,-122 172,-87.6118 188.2634,-50.2832 199.511,-28.5791"/>
<polygon fill="#191970" stroke="#191970" points="202.7317,-29.9804 204.393,-19.5166 196.569,-26.6605 202.7317,-29.9804"/>
</g>
<!-- Node20 -->
<g id="node21" class="node">
<title>Node20</title>
<g id="a_node21"><a xlink:href="time_8h.html" target="_top" xlink:title="ODP time. ">
<polygon fill="#ffffff" stroke="#000000" points="506.5,-280.5 506.5,-299.5 593.5,-299.5 593.5,-280.5 506.5,-280.5"/>
<text text-anchor="middle" x="550" y="-287.5" font-family="Helvetica,sans-Serif" font-size="10.00" fill="#000000">odp/api/time.h</text>
</a>
</g>
</g>
<!-- Node19&#45;&gt;Node20 -->
<g id="edge25" class="edge">
<title>Node19&#45;&gt;Node20</title>
<path fill="none" stroke="#191970" d="M654.3398,-336.3733C634.0228,-327.3435 603.436,-313.7494 580.625,-303.6111"/>
<polygon fill="#191970" stroke="#191970" points="581.9372,-300.3642 571.3775,-299.5011 579.0941,-306.7609 581.9372,-300.3642"/>
</g>
<!-- Node20&#45;&gt;Node4 -->
<g id="edge26" class="edge">
<title>Node20&#45;&gt;Node4</title>
<path fill="none" stroke="#191970" d="M506.4021,-281.3114C458.1763,-271.7006 380.2531,-256.1714 326.9277,-245.5443"/>
<polygon fill="#191970" stroke="#191970" points="327.4296,-242.0756 316.9384,-243.5536 326.0615,-248.9406 327.4296,-242.0756"/>
</g>
<!-- Node21 -->
<g id="node22" class="node">
<title>Node21</title>
<polygon fill="#ffffff" stroke="#bfbfbf" points="457.5,-224.5 457.5,-243.5 562.5,-243.5 562.5,-224.5 457.5,-224.5"/>
<text text-anchor="middle" x="510" y="-231.5" font-family="Helvetica,sans-Serif" font-size="10.00" fill="#000000">odp/api/abi/time.h</text>
</g>
<!-- Node20&#45;&gt;Node21 -->
<g id="edge27" class="edge">
<title>Node20&#45;&gt;Node21</title>
<path fill="none" stroke="#191970" d="M543.0325,-280.2455C537.4689,-272.4564 529.522,-261.3308 522.8171,-251.9439"/>
<polygon fill="#191970" stroke="#191970" points="525.5481,-249.7457 516.8876,-243.6427 519.852,-253.8144 525.5481,-249.7457"/>
</g>
<!-- Node22 -->
<g id="node23" class="node">
<title>Node22</title>
<g id="a_node23"><a xlink:href="spec_2time_8h.html" target="_top" xlink:title="ODP time. ">
<polygon fill="#ffffff" stroke="#000000" points="534.5,-56.5 534.5,-75.5 647.5,-75.5 647.5,-56.5 534.5,-56.5"/>
<text text-anchor="middle" x="591" y="-63.5" font-family="Helvetica,sans-Serif" font-size="10.00" fill="#000000">odp/api/spec/time.h</text>
</a>
</g>
</g>
<!-- Node20&#45;&gt;Node22 -->
<g id="edge28" class="edge">
<title>Node20&#45;&gt;Node22</title>
<path fill="none" stroke="#191970" d="M555.9238,-280.158C561.0759,-271.0982 568.282,-257.116 572,-244 587.7702,-188.3669 590.6534,-119.5747 591.0517,-86.1397"/>
<polygon fill="#191970" stroke="#191970" points="594.5529,-85.8858 591.106,-75.8674 587.553,-85.8487 594.5529,-85.8858"/>
</g>
<!-- Node22&#45;&gt;Node3 -->
<g id="edge29" class="edge">
<title>Node22&#45;&gt;Node3</title>
<path fill="none" stroke="#191970" d="M591,-56.2455C591,-48.9382 591,-38.6944 591,-29.7046"/>
<polygon fill="#191970" stroke="#191970" points="594.5001,-29.6426 591,-19.6427 587.5001,-29.6427 594.5001,-29.6426"/>
</g>
<!-- Node22&#45;&gt;Node11 -->
<g id="edge30" class="edge">
<title>Node22&#45;&gt;Node11</title>
<path fill="none" stroke="#191970" d="M534.3719,-57.6767C465.375,-47.5354 349.0021,-30.4308 276.0094,-19.7022"/>
<polygon fill="#191970" stroke="#191970" points="276.4098,-16.2235 266.0071,-18.232 275.3919,-23.1491 276.4098,-16.2235"/>
</g>
</g>
</svg>
