<?xml version="1.0" encoding="UTF-8" standalone="no"?>
<!DOCTYPE svg PUBLIC "-//W3C//DTD SVG 1.1//EN"
 "http://www.w3.org/Graphics/SVG/1.1/DTD/svg11.dtd">
<!-- Generated by graphviz version 2.40.1 (20161225.0304)
 -->
<!-- Title: packet_inlines.h Pages: 1 -->
<svg width="1453pt" height="453pt"
 viewBox="0.00 0.00 1453.00 453.00" xmlns="http://www.w3.org/2000/svg" xmlns:xlink="http://www.w3.org/1999/xlink">
<g id="graph0" class="graph" transform="scale(1 1) rotate(0) translate(4 449)">
<title>packet_inlines.h</title>
<polygon fill="#ffffff" stroke="transparent" points="-4,4 -4,-449 1449,-449 1449,4 -4,4"/>
<!-- Node0 -->
<g id="node1" class="node">
<title>Node0</title>
<polygon fill="#bfbfbf" stroke="#000000" points="769.5,-425.5 769.5,-444.5 865.5,-444.5 865.5,-425.5 769.5,-425.5"/>
<text text-anchor="middle" x="817.5" y="-432.5" font-family="Helvetica,sans-Serif" font-size="10.00" fill="#000000">packet_inlines.h</text>
</g>
<!-- Node1 -->
<g id="node2" class="node">
<title>Node1</title>
<polygon fill="#ffffff" stroke="#bfbfbf" points="382.5,-364 382.5,-383 498.5,-383 498.5,-364 382.5,-364"/>
<text text-anchor="middle" x="440.5" y="-371" font-family="Helvetica,sans-Serif" font-size="10.00" fill="#000000">odp/api/abi/packet.h</text>
</g>
<!-- Node0&#45;&gt;Node1 -->
<g id="edge1" class="edge">
<title>Node0&#45;&gt;Node1</title>
<path fill="none" stroke="#191970" d="M769.2747,-428.6729C709.0215,-420.5504 602.8406,-405.5201 512.5,-389 506.1443,-387.8378 499.4924,-386.5304 492.9089,-385.1806"/>
<polygon fill="#191970" stroke="#191970" points="493.1768,-381.6609 482.672,-383.0391 491.7435,-388.5126 493.1768,-381.6609"/>
</g>
<!-- Node2 -->
<g id="node3" class="node">
<title>Node2</title>
<g id="a_node3"><a xlink:href="pool_8h.html" target="_top" xlink:title="ODP pool. ">
<polygon fill="#ffffff" stroke="#000000" points="554.5,-364 554.5,-383 640.5,-383 640.5,-364 554.5,-364"/>
<text text-anchor="middle" x="597.5" y="-371" font-family="Helvetica,sans-Serif" font-size="10.00" fill="#000000">odp/api/pool.h</text>
</a>
</g>
</g>
<!-- Node0&#45;&gt;Node2 -->
<g id="edge2" class="edge">
<title>Node0&#45;&gt;Node2</title>
<path fill="none" stroke="#191970" d="M783.125,-425.3906C744.9427,-414.7169 683.1984,-397.4566 641.5116,-385.8033"/>
<polygon fill="#191970" stroke="#191970" points="642.2067,-382.3634 631.6336,-383.0419 640.3221,-389.105 642.2067,-382.3634"/>
</g>
<!-- Node5 -->
<g id="node6" class="node">
<title>Node5</title>
<polygon fill="#ffffff" stroke="#bfbfbf" points="641.5,-297 641.5,-316 751.5,-316 751.5,-297 641.5,-297"/>
<text text-anchor="middle" x="696.5" y="-304" font-family="Helvetica,sans-Serif" font-size="10.00" fill="#000000">odp/api/abi/event.h</text>
</g>
<!-- Node0&#45;&gt;Node5 -->
<g id="edge32" class="edge">
<title>Node0&#45;&gt;Node5</title>
<path fill="none" stroke="#191970" d="M805.4767,-425.2485C794.6308,-416.2495 778.442,-402.3059 765.5,-389 744.8794,-367.7996 723.3616,-341.2516 709.9506,-324.0889"/>
<polygon fill="#191970" stroke="#191970" points="712.6138,-321.8116 703.7241,-316.0475 707.079,-326.0972 712.6138,-321.8116"/>
</g>
<!-- Node16 -->
<g id="node17" class="node">
<title>Node16</title>
<polygon fill="#ffffff" stroke="#bfbfbf" points="845.5,-364 845.5,-383 975.5,-383 975.5,-364 845.5,-364"/>
<text text-anchor="middle" x="910.5" y="-371" font-family="Helvetica,sans-Serif" font-size="10.00" fill="#000000">odp/api/abi/packet_io.h</text>
</g>
<!-- Node0&#45;&gt;Node16 -->
<g id="edge20" class="edge">
<title>Node0&#45;&gt;Node16</title>
<path fill="none" stroke="#191970" d="M832.0313,-425.3906C846.9094,-415.5519 870.2504,-400.1167 887.6128,-388.6351"/>
<polygon fill="#191970" stroke="#191970" points="889.6602,-391.4773 896.0708,-383.0419 885.799,-385.6385 889.6602,-391.4773"/>
</g>
<!-- Node17 -->
<g id="node18" class="node">
<title>Node17</title>
<g id="a_node18"><a xlink:href="hints_8h.html" target="_top" xlink:title="ODP compiler hints. ">
<polygon fill="#ffffff" stroke="#000000" points="735,-168.5 735,-187.5 824,-187.5 824,-168.5 735,-168.5"/>
<text text-anchor="middle" x="779.5" y="-175.5" font-family="Helvetica,sans-Serif" font-size="10.00" fill="#000000">odp/api/hints.h</text>
</a>
</g>
</g>
<!-- Node0&#45;&gt;Node17 -->
<g id="edge21" class="edge">
<title>Node0&#45;&gt;Node17</title>
<path fill="none" stroke="#191970" d="M816.0568,-425.2391C810.4489,-387.3126 790.0412,-249.2919 782.4078,-197.6658"/>
<polygon fill="#191970" stroke="#191970" points="785.8698,-197.1511 780.9447,-187.7706 778.9451,-198.175 785.8698,-197.1511"/>
</g>
<!-- Node19 -->
<g id="node20" class="node">
<title>Node19</title>
<g id="a_node20"><a xlink:href="time_8h.html" target="_top" xlink:title="ODP time. ">
<polygon fill="#ffffff" stroke="#000000" points="136,-297 136,-316 223,-316 223,-297 136,-297"/>
<text text-anchor="middle" x="179.5" y="-304" font-family="Helvetica,sans-Serif" font-size="10.00" fill="#000000">odp/api/time.h</text>
</a>
</g>
</g>
<!-- Node0&#45;&gt;Node19 -->
<g id="edge25" class="edge">
<title>Node0&#45;&gt;Node19</title>
<path fill="none" stroke="#191970" d="M769.3553,-429.8573C702.2926,-422.1861 584.5891,-406.7341 545.5,-389 525.6513,-379.995 527.4649,-366.7444 507.5,-358 403.4641,-312.4336 366.3901,-341.5029 254.5,-322 247.6356,-320.8035 240.4386,-319.4473 233.3328,-318.047"/>
<polygon fill="#191970" stroke="#191970" points="233.5305,-314.5168 223.0368,-315.9772 232.1508,-321.3795 233.5305,-314.5168"/>
</g>
<!-- Node22 -->
<g id="node23" class="node">
<title>Node22</title>
<polygon fill="#ffffff" stroke="#bfbfbf" points="993.5,-364 993.5,-383 1103.5,-383 1103.5,-364 993.5,-364"/>
<text text-anchor="middle" x="1048.5" y="-371" font-family="Helvetica,sans-Serif" font-size="10.00" fill="#000000">odp/api/abi/buffer.h</text>
</g>
<!-- Node0&#45;&gt;Node22 -->
<g id="edge31" class="edge">
<title>Node0&#45;&gt;Node22</title>
<path fill="none" stroke="#191970" d="M853.3403,-425.4581C893.5485,-414.7533 958.8691,-397.3628 1002.7369,-385.6837"/>
<polygon fill="#191970" stroke="#191970" points="1003.8127,-389.0193 1012.5756,-383.0643 1002.0118,-382.2549 1003.8127,-389.0193"/>
</g>
<!-- Node23 -->
<g id="node24" class="node">
<title>Node23</title>
<g id="a_node24"><a xlink:href="packet__inline__types_8h.html" target="_top" xlink:title="ODP packet descriptor. ">
<polygon fill="#ffffff" stroke="#000000" points="641.5,-224.5 641.5,-254.5 751.5,-254.5 751.5,-224.5 641.5,-224.5"/>
<text text-anchor="start" x="649.5" y="-242.5" font-family="Helvetica,sans-Serif" font-size="10.00" fill="#000000">odp/api/plat/packet</text>
<text text-anchor="middle" x="696.5" y="-231.5" font-family="Helvetica,sans-Serif" font-size="10.00" fill="#000000">_inline_types.h</text>
</a>
</g>
</g>
<!-- Node0&#45;&gt;Node23 -->
<g id="edge33" class="edge">
<title>Node0&#45;&gt;Node23</title>
<path fill="none" stroke="#191970" d="M815.5078,-425.4151C810.0793,-401.0199 793.1979,-335.3729 760.5,-291 752.0052,-279.4721 740.3288,-269.0647 729.2733,-260.6722"/>
<polygon fill="#191970" stroke="#191970" points="731.1501,-257.7095 721.0031,-254.662 727.0349,-263.3722 731.1501,-257.7095"/>
</g>
<!-- Node24 -->
<g id="node25" class="node">
<title>Node24</title>
<g id="a_node25"><a xlink:href="pool__inline__types_8h.html" target="_top" xlink:title="ODP packet descriptor. ">
<polygon fill="#ffffff" stroke="#000000" points="1122,-358.5 1122,-388.5 1253,-388.5 1253,-358.5 1122,-358.5"/>
<text text-anchor="start" x="1130" y="-376.5" font-family="Helvetica,sans-Serif" font-size="10.00" fill="#000000">odp/api/plat/pool_inline</text>
<text text-anchor="middle" x="1187.5" y="-365.5" font-family="Helvetica,sans-Serif" font-size="10.00" fill="#000000">_types.h</text>
</a>
</g>
</g>
<!-- Node0&#45;&gt;Node24 -->
<g id="edge35" class="edge">
<title>Node0&#45;&gt;Node24</title>
<path fill="none" stroke="#191970" d="M865.6523,-428.2329C922.1557,-420.1271 1018.8961,-405.7364 1111.8346,-389.07"/>
<polygon fill="#191970" stroke="#191970" points="1112.4661,-392.5127 1121.6854,-387.2922 1111.2228,-385.624 1112.4661,-392.5127"/>
</g>
<!-- Node25 -->
<g id="node26" class="node">
<title>Node25</title>
<g id="a_node26"><a xlink:href="pktio__inlines_8h_source.html" target="_top" xlink:title="odp/api/plat/pktio\l_inlines.h">
<polygon fill="#ffffff" stroke="#000000" points="1271.5,-358.5 1271.5,-388.5 1373.5,-388.5 1373.5,-358.5 1271.5,-358.5"/>
<text text-anchor="start" x="1279.5" y="-376.5" font-family="Helvetica,sans-Serif" font-size="10.00" fill="#000000">odp/api/plat/pktio</text>
<text text-anchor="middle" x="1322.5" y="-365.5" font-family="Helvetica,sans-Serif" font-size="10.00" fill="#000000">_inlines.h</text>
</a>
</g>
</g>
<!-- Node0&#45;&gt;Node25 -->
<g id="edge36" class="edge">
<title>Node0&#45;&gt;Node25</title>
<path fill="none" stroke="#191970" d="M865.5741,-432.3978C945.6973,-427.5458 1111.6877,-415.3038 1260.9627,-389.1126"/>
<polygon fill="#191970" stroke="#191970" points="1261.9932,-392.4843 1271.2246,-387.2851 1260.7658,-385.5927 1261.9932,-392.4843"/>
</g>
<!-- Node26 -->
<g id="node27" class="node">
<title>Node26</title>
<polygon fill="#ffffff" stroke="#bfbfbf" points="1392,-364 1392,-383 1445,-383 1445,-364 1392,-364"/>
<text text-anchor="middle" x="1418.5" y="-371" font-family="Helvetica,sans-Serif" font-size="10.00" fill="#000000">string.h</text>
</g>
<!-- Node0&#45;&gt;Node26 -->
<g id="edge37" class="edge">
<title>Node0&#45;&gt;Node26</title>
<path fill="none" stroke="#191970" d="M865.9073,-433.0778C984.1458,-428.0586 1285.0879,-413.2416 1382.5,-389 1384.9845,-388.3817 1387.5163,-387.6104 1390.0279,-386.7443"/>
<polygon fill="#191970" stroke="#191970" points="1391.4286,-389.9548 1399.4713,-383.058 1388.8831,-383.434 1391.4286,-389.9548"/>
</g>
<!-- Node3 -->
<g id="node4" class="node">
<title>Node3</title>
<polygon fill="#ffffff" stroke="#bfbfbf" points="389.5,-297 389.5,-316 493.5,-316 493.5,-297 389.5,-297"/>
<text text-anchor="middle" x="441.5" y="-304" font-family="Helvetica,sans-Serif" font-size="10.00" fill="#000000">odp/api/abi/pool.h</text>
</g>
<!-- Node2&#45;&gt;Node3 -->
<g id="edge3" class="edge">
<title>Node2&#45;&gt;Node3</title>
<path fill="none" stroke="#191970" d="M575.149,-363.9005C548.3895,-352.4077 503.3965,-333.0838 473.0911,-320.068"/>
<polygon fill="#191970" stroke="#191970" points="474.3792,-316.8121 463.8095,-316.0817 471.6167,-323.244 474.3792,-316.8121"/>
</g>
<!-- Node4 -->
<g id="node5" class="node">
<title>Node4</title>
<polygon fill="#ffffff" stroke="#bfbfbf" points="264,-291.5 264,-321.5 371,-321.5 371,-291.5 264,-291.5"/>
<text text-anchor="start" x="272" y="-309.5" font-family="Helvetica,sans-Serif" font-size="10.00" fill="#000000">odp/api/abi/shared</text>
<text text-anchor="middle" x="317.5" y="-298.5" font-family="Helvetica,sans-Serif" font-size="10.00" fill="#000000">_memory.h</text>
</g>
<!-- Node2&#45;&gt;Node4 -->
<g id="edge4" class="edge">
<title>Node2&#45;&gt;Node4</title>
<path fill="none" stroke="#191970" d="M563.505,-363.9916C555.9478,-361.9517 547.9647,-359.8537 540.5,-358 472.7994,-341.1875 453.1186,-338.8852 381.1217,-322.1132"/>
<polygon fill="#191970" stroke="#191970" points="381.6336,-318.6384 371.0987,-319.764 380.0362,-325.4537 381.6336,-318.6384"/>
</g>
<!-- Node2&#45;&gt;Node5 -->
<g id="edge5" class="edge">
<title>Node2&#45;&gt;Node5</title>
<path fill="none" stroke="#191970" d="M611.6843,-363.9005C627.9311,-352.9052 654.7691,-334.7422 673.9034,-321.7927"/>
<polygon fill="#191970" stroke="#191970" points="676.022,-324.5851 682.342,-316.0817 672.0986,-318.7879 676.022,-324.5851"/>
</g>
<!-- Node6 -->
<g id="node7" class="node">
<title>Node6</title>
<g id="a_node7"><a xlink:href="spec_2pool_8h.html" target="_top" xlink:title="ODP pool. ">
<polygon fill="#ffffff" stroke="#000000" points="512,-297 512,-316 623,-316 623,-297 512,-297"/>
<text text-anchor="middle" x="567.5" y="-304" font-family="Helvetica,sans-Serif" font-size="10.00" fill="#000000">odp/api/spec/pool.h</text>
</a>
</g>
</g>
<!-- Node2&#45;&gt;Node6 -->
<g id="edge6" class="edge">
<title>Node2&#45;&gt;Node6</title>
<path fill="none" stroke="#191970" d="M593.2017,-363.9005C588.7017,-353.8505 581.5204,-337.8122 575.8912,-325.2403"/>
<polygon fill="#191970" stroke="#191970" points="579.0714,-323.7782 571.7903,-316.0817 572.6826,-326.6389 579.0714,-323.7782"/>
</g>
<!-- Node7 -->
<g id="node8" class="node">
<title>Node7</title>
<polygon fill="#ffffff" stroke="#bfbfbf" points="553,-.5 553,-19.5 674,-19.5 674,-.5 553,-.5"/>
<text text-anchor="middle" x="613.5" y="-7.5" font-family="Helvetica,sans-Serif" font-size="10.00" fill="#000000">odp/visibility_begin.h</text>
</g>
<!-- Node6&#45;&gt;Node7 -->
<g id="edge7" class="edge">
<title>Node6&#45;&gt;Node7</title>
<path fill="none" stroke="#191970" d="M574.9168,-296.6939C586.7945,-281.0807 610.9419,-249.7086 632.5,-224 689.1331,-156.4634 733.1081,-158.3592 764.5,-76 767.6659,-67.694 769.7909,-63.1427 764.5,-56 753.7274,-41.4569 713.8748,-29.6755 677.8172,-21.6774"/>
<polygon fill="#191970" stroke="#191970" points="678.2869,-18.1986 667.7751,-19.5227 676.8183,-25.0428 678.2869,-18.1986"/>
</g>
<!-- Node8 -->
<g id="node9" class="node">
<title>Node8</title>
<g id="a_node9"><a xlink:href="std__types_8h.html" target="_top" xlink:title="Standard C language types and definitions for ODP. ">
<polygon fill="#ffffff" stroke="#000000" points="407.5,-230 407.5,-249 519.5,-249 519.5,-230 407.5,-230"/>
<text text-anchor="middle" x="463.5" y="-237" font-family="Helvetica,sans-Serif" font-size="10.00" fill="#000000">odp/api/std_types.h</text>
</a>
</g>
</g>
<!-- Node6&#45;&gt;Node8 -->
<g id="edge8" class="edge">
<title>Node6&#45;&gt;Node8</title>
<path fill="none" stroke="#191970" d="M552.5993,-296.9005C535.4547,-285.8554 507.0832,-267.5776 486.9655,-254.6172"/>
<polygon fill="#191970" stroke="#191970" points="488.6751,-251.5552 478.373,-249.0817 484.884,-257.4397 488.6751,-251.5552"/>
</g>
<!-- Node15 -->
<g id="node16" class="node">
<title>Node15</title>
<polygon fill="#ffffff" stroke="#bfbfbf" points="261.5,-.5 261.5,-19.5 373.5,-19.5 373.5,-.5 261.5,-.5"/>
<text text-anchor="middle" x="317.5" y="-7.5" font-family="Helvetica,sans-Serif" font-size="10.00" fill="#000000">odp/visibility_end.h</text>
</g>
<!-- Node6&#45;&gt;Node15 -->
<g id="edge19" class="edge">
<title>Node6&#45;&gt;Node15</title>
<path fill="none" stroke="#191970" d="M530.5666,-296.9177C488.1979,-285.634 421.5995,-266.9225 398.5,-255 282.7714,-195.2683 223.9462,-192.88 166.5,-76 147.6097,-37.5657 202.4363,-21.5128 251.2313,-14.8082"/>
<polygon fill="#191970" stroke="#191970" points="251.7204,-18.2743 261.2043,-13.5513 250.8451,-11.3292 251.7204,-18.2743"/>
</g>
<!-- Node9 -->
<g id="node10" class="node">
<title>Node9</title>
<polygon fill="#ffffff" stroke="#bfbfbf" points="333.5,-168.5 333.5,-187.5 463.5,-187.5 463.5,-168.5 333.5,-168.5"/>
<text text-anchor="middle" x="398.5" y="-175.5" font-family="Helvetica,sans-Serif" font-size="10.00" fill="#000000">odp/api/abi/std_types.h</text>
</g>
<!-- Node8&#45;&gt;Node9 -->
<g id="edge9" class="edge">
<title>Node8&#45;&gt;Node9</title>
<path fill="none" stroke="#191970" d="M453.3438,-229.8906C443.4801,-220.5581 428.2945,-206.1902 416.4013,-194.9374"/>
<polygon fill="#191970" stroke="#191970" points="418.4689,-192.0753 408.7994,-187.7449 413.6579,-197.1601 418.4689,-192.0753"/>
</g>
<!-- Node10 -->
<g id="node11" class="node">
<title>Node10</title>
<g id="a_node11"><a xlink:href="spec_2std__types_8h.html" target="_top" xlink:title="Standard C language types and definitions for ODP. ">
<polygon fill="#ffffff" stroke="#000000" points="482,-168.5 482,-187.5 619,-187.5 619,-168.5 482,-168.5"/>
<text text-anchor="middle" x="550.5" y="-175.5" font-family="Helvetica,sans-Serif" font-size="10.00" fill="#000000">odp/api/spec/std_types.h</text>
</a>
</g>
</g>
<!-- Node8&#45;&gt;Node10 -->
<g id="edge10" class="edge">
<title>Node8&#45;&gt;Node10</title>
<path fill="none" stroke="#191970" d="M477.0938,-229.8906C490.8843,-220.1421 512.4472,-204.8994 528.641,-193.4521"/>
<polygon fill="#191970" stroke="#191970" points="530.8563,-196.1723 537.0017,-187.5419 526.8156,-190.4563 530.8563,-196.1723"/>
</g>
<!-- Node10&#45;&gt;Node7 -->
<g id="edge11" class="edge">
<title>Node10&#45;&gt;Node7</title>
<path fill="none" stroke="#191970" d="M558.7285,-168.4021C565.9613,-159.5065 576.2775,-145.6284 582.5,-132 598.1637,-97.6939 606.7964,-54.2009 610.7595,-29.496"/>
<polygon fill="#191970" stroke="#191970" points="614.2262,-29.9785 612.2602,-19.5677 607.3048,-28.9322 614.2262,-29.9785"/>
</g>
<!-- Node11 -->
<g id="node12" class="node">
<title>Node11</title>
<polygon fill="#ffffff" stroke="#bfbfbf" points="642,-112.5 642,-131.5 695,-131.5 695,-112.5 642,-112.5"/>
<text text-anchor="middle" x="668.5" y="-119.5" font-family="Helvetica,sans-Serif" font-size="10.00" fill="#000000">stdint.h</text>
</g>
<!-- Node10&#45;&gt;Node11 -->
<g id="edge12" class="edge">
<title>Node10&#45;&gt;Node11</title>
<path fill="none" stroke="#191970" d="M570.7849,-168.3733C589.6421,-159.4241 617.946,-145.9917 639.2455,-135.8835"/>
<polygon fill="#191970" stroke="#191970" points="640.9461,-138.9506 648.4798,-131.5011 637.9449,-132.6266 640.9461,-138.9506"/>
</g>
<!-- Node12 -->
<g id="node13" class="node">
<title>Node12</title>
<g id="a_node13"><a xlink:href="align_8h.html" target="_top" xlink:title="ODP alignments. ">
<polygon fill="#ffffff" stroke="#000000" points="484,-112.5 484,-131.5 573,-131.5 573,-112.5 484,-112.5"/>
<text text-anchor="middle" x="528.5" y="-119.5" font-family="Helvetica,sans-Serif" font-size="10.00" fill="#000000">odp/api/align.h</text>
</a>
</g>
</g>
<!-- Node10&#45;&gt;Node12 -->
<g id="edge13" class="edge">
<title>Node10&#45;&gt;Node12</title>
<path fill="none" stroke="#191970" d="M546.6679,-168.2455C543.7341,-160.7776 539.5953,-150.2427 536.009,-141.1137"/>
<polygon fill="#191970" stroke="#191970" points="539.2024,-139.6704 532.2882,-131.6427 532.6871,-142.23 539.2024,-139.6704"/>
</g>
<!-- Node10&#45;&gt;Node15 -->
<g id="edge18" class="edge">
<title>Node10&#45;&gt;Node15</title>
<path fill="none" stroke="#191970" d="M507.336,-168.428C459.1472,-155.5353 382.0908,-127.9608 337.5,-76 326.4256,-63.0952 321.4833,-44.1941 319.2776,-29.9226"/>
<polygon fill="#191970" stroke="#191970" points="322.7128,-29.1767 318.0306,-19.6727 315.764,-30.0222 322.7128,-29.1767"/>
</g>
<!-- Node13 -->
<g id="node14" class="node">
<title>Node13</title>
<polygon fill="#ffffff" stroke="#bfbfbf" points="346,-56.5 346,-75.5 453,-75.5 453,-56.5 346,-56.5"/>
<text text-anchor="middle" x="399.5" y="-63.5" font-family="Helvetica,sans-Serif" font-size="10.00" fill="#000000">odp/api/abi/align.h</text>
</g>
<!-- Node12&#45;&gt;Node13 -->
<g id="edge14" class="edge">
<title>Node12&#45;&gt;Node13</title>
<path fill="none" stroke="#191970" d="M506.3241,-112.3733C485.5234,-103.3435 454.2083,-89.7494 430.8542,-79.6111"/>
<polygon fill="#191970" stroke="#191970" points="431.9532,-76.2727 421.3865,-75.5011 429.1657,-82.6938 431.9532,-76.2727"/>
</g>
<!-- Node14 -->
<g id="node15" class="node">
<title>Node14</title>
<g id="a_node15"><a xlink:href="spec_2align_8h.html" target="_top" xlink:title="ODP alignments. ">
<polygon fill="#ffffff" stroke="#000000" points="471.5,-56.5 471.5,-75.5 585.5,-75.5 585.5,-56.5 471.5,-56.5"/>
<text text-anchor="middle" x="528.5" y="-63.5" font-family="Helvetica,sans-Serif" font-size="10.00" fill="#000000">odp/api/spec/align.h</text>
</a>
</g>
</g>
<!-- Node12&#45;&gt;Node14 -->
<g id="edge15" class="edge">
<title>Node12&#45;&gt;Node14</title>
<path fill="none" stroke="#191970" d="M528.5,-112.2455C528.5,-104.9382 528.5,-94.6944 528.5,-85.7046"/>
<polygon fill="#191970" stroke="#191970" points="532.0001,-85.6426 528.5,-75.6427 525.0001,-85.6427 532.0001,-85.6426"/>
</g>
<!-- Node14&#45;&gt;Node7 -->
<g id="edge16" class="edge">
<title>Node14&#45;&gt;Node7</title>
<path fill="none" stroke="#191970" d="M543.3059,-56.2455C556.2256,-47.7337 575.1931,-35.2375 590.1552,-25.3801"/>
<polygon fill="#191970" stroke="#191970" points="592.4387,-28.067 598.8638,-19.6427 588.5876,-22.2216 592.4387,-28.067"/>
</g>
<!-- Node14&#45;&gt;Node15 -->
<g id="edge17" class="edge">
<title>Node14&#45;&gt;Node15</title>
<path fill="none" stroke="#191970" d="M492.2278,-56.3733C456.5342,-46.9001 401.9121,-32.4032 363.2549,-22.1435"/>
<polygon fill="#191970" stroke="#191970" points="363.8621,-18.6835 353.2989,-19.5011 362.0664,-25.4493 363.8621,-18.6835"/>
</g>
<!-- Node18 -->
<g id="node19" class="node">
<title>Node18</title>
<g id="a_node19"><a xlink:href="spec_2hints_8h.html" target="_top" xlink:title="ODP compiler hints. ">
<polygon fill="#ffffff" stroke="#000000" points="641.5,-56.5 641.5,-75.5 755.5,-75.5 755.5,-56.5 641.5,-56.5"/>
<text text-anchor="middle" x="698.5" y="-63.5" font-family="Helvetica,sans-Serif" font-size="10.00" fill="#000000">odp/api/spec/hints.h</text>
</a>
</g>
</g>
<!-- Node17&#45;&gt;Node18 -->
<g id="edge22" class="edge">
<title>Node17&#45;&gt;Node18</title>
<path fill="none" stroke="#191970" d="M772.594,-168.4509C759.0244,-149.688 728.6976,-107.7548 711.3428,-83.758"/>
<polygon fill="#191970" stroke="#191970" points="714.0848,-81.5768 705.3885,-75.5249 708.4127,-85.679 714.0848,-81.5768"/>
</g>
<!-- Node18&#45;&gt;Node7 -->
<g id="edge23" class="edge">
<title>Node18&#45;&gt;Node7</title>
<path fill="none" stroke="#191970" d="M683.6941,-56.2455C670.7744,-47.7337 651.8069,-35.2375 636.8448,-25.3801"/>
<polygon fill="#191970" stroke="#191970" points="638.4124,-22.2216 628.1362,-19.6427 634.5613,-28.067 638.4124,-22.2216"/>
</g>
<!-- Node18&#45;&gt;Node15 -->
<g id="edge24" class="edge">
<title>Node18&#45;&gt;Node15</title>
<path fill="none" stroke="#191970" d="M641.4605,-57.6162C572.4642,-47.4751 456.5289,-30.4347 383.6711,-19.7259"/>
<polygon fill="#191970" stroke="#191970" points="384.0886,-16.2498 373.6859,-18.2583 383.0706,-23.1754 384.0886,-16.2498"/>
</g>
<!-- Node19&#45;&gt;Node8 -->
<g id="edge26" class="edge">
<title>Node19&#45;&gt;Node8</title>
<path fill="none" stroke="#191970" d="M219.8887,-296.9717C270.6352,-284.9998 357.74,-264.4504 412.8825,-251.4415"/>
<polygon fill="#191970" stroke="#191970" points="413.8617,-254.8066 422.7908,-249.1039 412.2544,-247.9936 413.8617,-254.8066"/>
</g>
<!-- Node20 -->
<g id="node21" class="node">
<title>Node20</title>
<polygon fill="#ffffff" stroke="#bfbfbf" points="0,-230 0,-249 105,-249 105,-230 0,-230"/>
<text text-anchor="middle" x="52.5" y="-237" font-family="Helvetica,sans-Serif" font-size="10.00" fill="#000000">odp/api/abi/time.h</text>
</g>
<!-- Node19&#45;&gt;Node20 -->
<g id="edge27" class="edge">
<title>Node19&#45;&gt;Node20</title>
<path fill="none" stroke="#191970" d="M161.304,-296.9005C139.8962,-285.6067 104.1542,-266.7506 79.5107,-253.7497"/>
<polygon fill="#191970" stroke="#191970" points="81.1401,-250.6522 70.6622,-249.0817 77.8738,-256.8434 81.1401,-250.6522"/>
</g>
<!-- Node21 -->
<g id="node22" class="node">
<title>Node21</title>
<g id="a_node22"><a xlink:href="spec_2time_8h.html" target="_top" xlink:title="ODP time. ">
<polygon fill="#ffffff" stroke="#000000" points="176,-56.5 176,-75.5 289,-75.5 289,-56.5 176,-56.5"/>
<text text-anchor="middle" x="232.5" y="-63.5" font-family="Helvetica,sans-Serif" font-size="10.00" fill="#000000">odp/api/spec/time.h</text>
</a>
</g>
</g>
<!-- Node19&#45;&gt;Node21 -->
<g id="edge28" class="edge">
<title>Node19&#45;&gt;Node21</title>
<path fill="none" stroke="#191970" d="M173.8548,-296.6346C168.4329,-286.5474 160.6189,-270.2403 157.5,-255 154.7377,-241.502 154.4718,-237.4409 157.5,-224 169.6715,-169.9753 202.5673,-112.7339 220.4803,-84.2801"/>
<polygon fill="#191970" stroke="#191970" points="223.4787,-86.0879 225.9291,-75.7803 217.5857,-82.3101 223.4787,-86.0879"/>
</g>
<!-- Node21&#45;&gt;Node7 -->
<g id="edge29" class="edge">
<title>Node21&#45;&gt;Node7</title>
<path fill="none" stroke="#191970" d="M289.1281,-57.6767C356.6402,-47.7537 469.5109,-31.1637 542.7187,-20.4036"/>
<polygon fill="#191970" stroke="#191970" points="543.3918,-23.8423 552.7765,-18.9252 542.3738,-16.9167 543.3918,-23.8423"/>
</g>
<!-- Node21&#45;&gt;Node15 -->
<g id="edge30" class="edge">
<title>Node21&#45;&gt;Node15</title>
<path fill="none" stroke="#191970" d="M247.3059,-56.2455C260.2256,-47.7337 279.1931,-35.2375 294.1552,-25.3801"/>
<polygon fill="#191970" stroke="#191970" points="296.4387,-28.067 302.8638,-19.6427 292.5876,-22.2216 296.4387,-28.067"/>
</g>
<!-- Node23&#45;&gt;Node11 -->
<g id="edge34" class="edge">
<title>Node23&#45;&gt;Node11</title>
<path fill="none" stroke="#191970" d="M692.8395,-224.1389C687.7719,-202.873 678.6206,-164.4702 673.0981,-141.2956"/>
<polygon fill="#191970" stroke="#191970" points="676.5008,-140.4757 670.778,-131.5595 669.6915,-142.0985 676.5008,-140.4757"/>
</g>
</g>
</svg>
