<?xml version="1.0" encoding="UTF-8" standalone="no"?>
<!DOCTYPE svg PUBLIC "-//W3C//DTD SVG 1.1//EN"
 "http://www.w3.org/Graphics/SVG/1.1/DTD/svg11.dtd">
<!-- Generated by graphviz version 2.40.1 (20161225.0304)
 -->
<!-- Title: packet_flag_inlines.h Pages: 1 -->
<svg width="438pt" height="207pt"
 viewBox="0.00 0.00 438.00 207.00" xmlns="http://www.w3.org/2000/svg" xmlns:xlink="http://www.w3.org/1999/xlink">
<g id="graph0" class="graph" transform="scale(1 1) rotate(0) translate(4 203)">
<title>packet_flag_inlines.h</title>
<polygon fill="#ffffff" stroke="transparent" points="-4,4 -4,-203 434,-203 434,4 -4,4"/>
<!-- Node0 -->
<g id="node1" class="node">
<title>Node0</title>
<polygon fill="#bfbfbf" stroke="#000000" points="129.5,-179.5 129.5,-198.5 248.5,-198.5 248.5,-179.5 129.5,-179.5"/>
<text text-anchor="middle" x="189" y="-186.5" font-family="Helvetica,sans-Serif" font-size="10.00" fill="#000000">packet_flag_inlines.h</text>
</g>
<!-- Node1 -->
<g id="node2" class="node">
<title>Node1</title>
<polygon fill="#ffffff" stroke="#bfbfbf" points="0,-118 0,-137 116,-137 116,-118 0,-118"/>
<text text-anchor="middle" x="58" y="-125" font-family="Helvetica,sans-Serif" font-size="10.00" fill="#000000">odp/api/abi/packet.h</text>
</g>
<!-- Node0&#45;&gt;Node1 -->
<g id="edge1" class="edge">
<title>Node0&#45;&gt;Node1</title>
<path fill="none" stroke="#191970" d="M168.5313,-179.3906C146.8048,-169.1908 112.2665,-152.9763 87.5815,-141.3875"/>
<polygon fill="#191970" stroke="#191970" points="88.8645,-138.1234 78.325,-137.0419 85.8897,-144.4598 88.8645,-138.1234"/>
</g>
<!-- Node2 -->
<g id="node3" class="node">
<title>Node2</title>
<g id="a_node3"><a xlink:href="packet__inline__types_8h.html" target="_top" xlink:title="ODP packet descriptor. ">
<polygon fill="#ffffff" stroke="#000000" points="134,-112.5 134,-142.5 244,-142.5 244,-112.5 134,-112.5"/>
<text text-anchor="start" x="142" y="-130.5" font-family="Helvetica,sans-Serif" font-size="10.00" fill="#000000">odp/api/plat/packet</text>
<text text-anchor="middle" x="189" y="-119.5" font-family="Helvetica,sans-Serif" font-size="10.00" fill="#000000">_inline_types.h</text>
</a>
</g>
</g>
<!-- Node0&#45;&gt;Node2 -->
<g id="edge2" class="edge">
<title>Node0&#45;&gt;Node2</title>
<path fill="none" stroke="#191970" d="M189,-179.3906C189,-172.2234 189,-162.0862 189,-152.671"/>
<polygon fill="#191970" stroke="#191970" points="192.5001,-152.5446 189,-142.5446 185.5001,-152.5446 192.5001,-152.5446"/>
</g>
<!-- Node4 -->
<g id="node5" class="node">
<title>Node4</title>
<g id="a_node5"><a xlink:href="hints_8h.html" target="_top" xlink:title="ODP compiler hints. ">
<polygon fill="#ffffff" stroke="#000000" points="262.5,-118 262.5,-137 351.5,-137 351.5,-118 262.5,-118"/>
<text text-anchor="middle" x="307" y="-125" font-family="Helvetica,sans-Serif" font-size="10.00" fill="#000000">odp/api/hints.h</text>
</a>
</g>
</g>
<!-- Node0&#45;&gt;Node4 -->
<g id="edge4" class="edge">
<title>Node0&#45;&gt;Node4</title>
<path fill="none" stroke="#191970" d="M207.4375,-179.3906C226.8347,-169.2811 257.569,-153.2628 279.7617,-141.6962"/>
<polygon fill="#191970" stroke="#191970" points="281.4418,-144.7675 288.692,-137.0419 278.2064,-138.56 281.4418,-144.7675"/>
</g>
<!-- Node3 -->
<g id="node4" class="node">
<title>Node3</title>
<polygon fill="#ffffff" stroke="#bfbfbf" points="162.5,-56.5 162.5,-75.5 215.5,-75.5 215.5,-56.5 162.5,-56.5"/>
<text text-anchor="middle" x="189" y="-63.5" font-family="Helvetica,sans-Serif" font-size="10.00" fill="#000000">stdint.h</text>
</g>
<!-- Node2&#45;&gt;Node3 -->
<g id="edge3" class="edge">
<title>Node2&#45;&gt;Node3</title>
<path fill="none" stroke="#191970" d="M189,-112.2977C189,-104.3834 189,-94.6043 189,-86.0759"/>
<polygon fill="#191970" stroke="#191970" points="192.5001,-85.8469 189,-75.8469 185.5001,-85.847 192.5001,-85.8469"/>
</g>
<!-- Node5 -->
<g id="node6" class="node">
<title>Node5</title>
<g id="a_node6"><a xlink:href="spec_2hints_8h.html" target="_top" xlink:title="ODP compiler hints. ">
<polygon fill="#ffffff" stroke="#000000" points="250,-56.5 250,-75.5 364,-75.5 364,-56.5 250,-56.5"/>
<text text-anchor="middle" x="307" y="-63.5" font-family="Helvetica,sans-Serif" font-size="10.00" fill="#000000">odp/api/spec/hints.h</text>
</a>
</g>
</g>
<!-- Node4&#45;&gt;Node5 -->
<g id="edge5" class="edge">
<title>Node4&#45;&gt;Node5</title>
<path fill="none" stroke="#191970" d="M307,-117.8906C307,-109.3657 307,-96.6392 307,-85.9235"/>
<polygon fill="#191970" stroke="#191970" points="310.5001,-85.7448 307,-75.7449 303.5001,-85.7449 310.5001,-85.7448"/>
</g>
<!-- Node6 -->
<g id="node7" class="node">
<title>Node6</title>
<polygon fill="#ffffff" stroke="#bfbfbf" points="178.5,-.5 178.5,-19.5 299.5,-19.5 299.5,-.5 178.5,-.5"/>
<text text-anchor="middle" x="239" y="-7.5" font-family="Helvetica,sans-Serif" font-size="10.00" fill="#000000">odp/visibility_begin.h</text>
</g>
<!-- Node5&#45;&gt;Node6 -->
<g id="edge6" class="edge">
<title>Node5&#45;&gt;Node6</title>
<path fill="none" stroke="#191970" d="M295.1553,-56.2455C285.112,-47.9746 270.5005,-35.9416 258.6996,-26.2232"/>
<polygon fill="#191970" stroke="#191970" points="260.6533,-23.298 250.709,-19.6427 256.2033,-28.7015 260.6533,-23.298"/>
</g>
<!-- Node7 -->
<g id="node8" class="node">
<title>Node7</title>
<polygon fill="#ffffff" stroke="#bfbfbf" points="318,-.5 318,-19.5 430,-19.5 430,-.5 318,-.5"/>
<text text-anchor="middle" x="374" y="-7.5" font-family="Helvetica,sans-Serif" font-size="10.00" fill="#000000">odp/visibility_end.h</text>
</g>
<!-- Node5&#45;&gt;Node7 -->
<g id="edge7" class="edge">
<title>Node5&#45;&gt;Node7</title>
<path fill="none" stroke="#191970" d="M318.6705,-56.2455C328.5661,-47.9746 342.9627,-35.9416 354.5901,-26.2232"/>
<polygon fill="#191970" stroke="#191970" points="357.035,-28.7413 362.4632,-19.6427 352.5458,-23.3703 357.035,-28.7413"/>
</g>
</g>
</svg>
