<?xml version="1.0" encoding="UTF-8" standalone="no"?>
<!DOCTYPE svg PUBLIC "-//W3C//DTD SVG 1.1//EN"
 "http://www.w3.org/Graphics/SVG/1.1/DTD/svg11.dtd">
<!-- Generated by graphviz version 2.40.1 (20161225.0304)
 -->
<!-- Title: queue_types.h Pages: 1 -->
<svg width="292pt" height="476pt"
 viewBox="0.00 0.00 292.00 476.00" xmlns="http://www.w3.org/2000/svg" xmlns:xlink="http://www.w3.org/1999/xlink">
<g id="graph0" class="graph" transform="scale(1 1) rotate(0) translate(4 472)">
<title>queue_types.h</title>
<polygon fill="#ffffff" stroke="transparent" points="-4,4 -4,-472 288,-472 288,4 -4,4"/>
<!-- Node10 -->
<g id="node1" class="node">
<title>Node10</title>
<polygon fill="#bfbfbf" stroke="#000000" points="127,-448.5 127,-467.5 215,-467.5 215,-448.5 127,-448.5"/>
<text text-anchor="middle" x="171" y="-455.5" font-family="Helvetica,sans-Serif" font-size="10.00" fill="#000000">queue_types.h</text>
</g>
<!-- Node11 -->
<g id="node2" class="node">
<title>Node11</title>
<g id="a_node2"><a xlink:href="spec_2queue_8h.html" target="_top" xlink:title="ODP queue. ">
<polygon fill="#ffffff" stroke="#000000" points="90,-392.5 90,-411.5 146,-411.5 146,-392.5 90,-392.5"/>
<text text-anchor="middle" x="118" y="-399.5" font-family="Helvetica,sans-Serif" font-size="10.00" fill="#000000">queue.h</text>
</a>
</g>
</g>
<!-- Node10&#45;&gt;Node11 -->
<g id="edge1" class="edge">
<title>Node10&#45;&gt;Node11</title>
<path fill="none" stroke="#191970" d="M154.7104,-440.7884C145.6438,-431.2085 134.6946,-419.6396 127.1261,-411.6427"/>
<polygon fill="#191970" stroke="#191970" points="152.3522,-443.3884 161.7681,-448.2455 157.4363,-438.5767 152.3522,-443.3884"/>
</g>
<!-- Node24 -->
<g id="node15" class="node">
<title>Node24</title>
<g id="a_node15"><a xlink:href="queue__inline__types_8h_source.html" target="_top" xlink:title="queue_inline_types.h">
<polygon fill="#ffffff" stroke="#000000" points="164,-392.5 164,-411.5 284,-411.5 284,-392.5 164,-392.5"/>
<text text-anchor="middle" x="224" y="-399.5" font-family="Helvetica,sans-Serif" font-size="10.00" fill="#000000">queue_inline_types.h</text>
</a>
</g>
</g>
<!-- Node10&#45;&gt;Node24 -->
<g id="edge17" class="edge">
<title>Node10&#45;&gt;Node24</title>
<path fill="none" stroke="#191970" d="M187.2896,-440.7884C196.3562,-431.2085 207.3054,-419.6396 214.8739,-411.6427"/>
<polygon fill="#191970" stroke="#191970" points="184.5637,-438.5767 180.2319,-448.2455 189.6478,-443.3884 184.5637,-438.5767"/>
</g>
<!-- Node12 -->
<g id="node3" class="node">
<title>Node12</title>
<g id="a_node3"><a xlink:href="queue_8h.html" target="_top" xlink:title="ODP queue. ">
<polygon fill="#ffffff" stroke="#000000" points="90,-336.5 90,-355.5 146,-355.5 146,-336.5 90,-336.5"/>
<text text-anchor="middle" x="118" y="-343.5" font-family="Helvetica,sans-Serif" font-size="10.00" fill="#000000">queue.h</text>
</a>
</g>
</g>
<!-- Node11&#45;&gt;Node12 -->
<g id="edge2" class="edge">
<title>Node11&#45;&gt;Node12</title>
<path fill="none" stroke="#191970" d="M118,-382.1575C118,-373.155 118,-362.9199 118,-355.6427"/>
<polygon fill="#191970" stroke="#191970" points="114.5001,-382.2455 118,-392.2455 121.5001,-382.2456 114.5001,-382.2455"/>
</g>
<!-- Node13 -->
<g id="node4" class="node">
<title>Node13</title>
<g id="a_node4"><a xlink:href="crypto_8h.html" target="_top" xlink:title="ODP crypto. ">
<polygon fill="#ffffff" stroke="#000000" points="0,-224.5 0,-243.5 56,-243.5 56,-224.5 0,-224.5"/>
<text text-anchor="middle" x="28" y="-231.5" font-family="Helvetica,sans-Serif" font-size="10.00" fill="#000000">crypto.h</text>
</a>
</g>
</g>
<!-- Node12&#45;&gt;Node13 -->
<g id="edge3" class="edge">
<title>Node12&#45;&gt;Node13</title>
<path fill="none" stroke="#191970" d="M99.6549,-329.2748C90.866,-320.868 80.4425,-310.2981 72,-300 56.6338,-281.2563 41.5993,-257.0899 33.7033,-243.8163"/>
<polygon fill="#191970" stroke="#191970" points="97.475,-332.0288 107.1631,-336.3174 102.2639,-326.9233 97.475,-332.0288"/>
</g>
<!-- Node16 -->
<g id="node7" class="node">
<title>Node16</title>
<g id="a_node7"><a xlink:href="spec_2packet__io_8h.html" target="_top" xlink:title="ODP Packet IO. ">
<polygon fill="#ffffff" stroke="#000000" points="81.5,-280.5 81.5,-299.5 154.5,-299.5 154.5,-280.5 81.5,-280.5"/>
<text text-anchor="middle" x="118" y="-287.5" font-family="Helvetica,sans-Serif" font-size="10.00" fill="#000000">packet_io.h</text>
</a>
</g>
</g>
<!-- Node12&#45;&gt;Node16 -->
<g id="edge6" class="edge">
<title>Node12&#45;&gt;Node16</title>
<path fill="none" stroke="#191970" d="M118,-326.1575C118,-317.155 118,-306.9199 118,-299.6427"/>
<polygon fill="#191970" stroke="#191970" points="114.5001,-326.2455 118,-336.2455 121.5001,-326.2456 114.5001,-326.2455"/>
</g>
<!-- Node22 -->
<g id="node13" class="node">
<title>Node22</title>
<g id="a_node13"><a xlink:href="spec_2schedule_8h.html" target="_top" xlink:title="ODP schedule. ">
<polygon fill="#ffffff" stroke="#000000" points="172.5,-280.5 172.5,-299.5 241.5,-299.5 241.5,-280.5 172.5,-280.5"/>
<text text-anchor="middle" x="207" y="-287.5" font-family="Helvetica,sans-Serif" font-size="10.00" fill="#000000">schedule.h</text>
</a>
</g>
</g>
<!-- Node12&#45;&gt;Node22 -->
<g id="edge15" class="edge">
<title>Node12&#45;&gt;Node22</title>
<path fill="none" stroke="#191970" d="M142.2064,-330.769C157.9775,-320.8456 178.076,-308.1994 191.675,-299.6427"/>
<polygon fill="#191970" stroke="#191970" points="140.1026,-327.9575 133.5026,-336.2455 143.8305,-333.8823 140.1026,-327.9575"/>
</g>
<!-- Node14 -->
<g id="node5" class="node">
<title>Node14</title>
<g id="a_node5"><a xlink:href="spec_2ipsec_8h.html" target="_top" xlink:title="ODP IPSEC API. ">
<polygon fill="#ffffff" stroke="#000000" points="62.5,-56.5 62.5,-75.5 113.5,-75.5 113.5,-56.5 62.5,-56.5"/>
<text text-anchor="middle" x="88" y="-63.5" font-family="Helvetica,sans-Serif" font-size="10.00" fill="#000000">ipsec.h</text>
</a>
</g>
</g>
<!-- Node13&#45;&gt;Node14 -->
<g id="edge4" class="edge">
<title>Node13&#45;&gt;Node14</title>
<path fill="none" stroke="#191970" d="M32.2226,-214.4164C37.8141,-189.9418 48.6646,-147.0137 63,-112 68.3725,-98.8779 76.4807,-84.6668 81.9955,-75.5667"/>
<polygon fill="#191970" stroke="#191970" points="28.7861,-213.7467 30.03,-224.2682 35.6189,-215.2674 28.7861,-213.7467"/>
</g>
<!-- Node15 -->
<g id="node6" class="node">
<title>Node15</title>
<g id="a_node6"><a xlink:href="ipsec_8h.html" target="_top" xlink:title="ODP IPSEC API &#45; platform specific header. ">
<polygon fill="#ffffff" stroke="#000000" points="62.5,-.5 62.5,-19.5 113.5,-19.5 113.5,-.5 62.5,-.5"/>
<text text-anchor="middle" x="88" y="-7.5" font-family="Helvetica,sans-Serif" font-size="10.00" fill="#000000">ipsec.h</text>
</a>
</g>
</g>
<!-- Node14&#45;&gt;Node15 -->
<g id="edge5" class="edge">
<title>Node14&#45;&gt;Node15</title>
<path fill="none" stroke="#191970" d="M88,-46.1575C88,-37.155 88,-26.9199 88,-19.6427"/>
<polygon fill="#191970" stroke="#191970" points="84.5001,-46.2455 88,-56.2455 91.5001,-46.2456 84.5001,-46.2455"/>
</g>
<!-- Node17 -->
<g id="node8" class="node">
<title>Node17</title>
<g id="a_node8"><a xlink:href="packet__io_8h.html" target="_top" xlink:title="ODP Packet IO. ">
<polygon fill="#ffffff" stroke="#000000" points="81.5,-224.5 81.5,-243.5 154.5,-243.5 154.5,-224.5 81.5,-224.5"/>
<text text-anchor="middle" x="118" y="-231.5" font-family="Helvetica,sans-Serif" font-size="10.00" fill="#000000">packet_io.h</text>
</a>
</g>
</g>
<!-- Node16&#45;&gt;Node17 -->
<g id="edge7" class="edge">
<title>Node16&#45;&gt;Node17</title>
<path fill="none" stroke="#191970" d="M118,-270.1575C118,-261.155 118,-250.9199 118,-243.6427"/>
<polygon fill="#191970" stroke="#191970" points="114.5001,-270.2455 118,-280.2455 121.5001,-270.2456 114.5001,-270.2455"/>
</g>
<!-- Node17&#45;&gt;Node14 -->
<g id="edge11" class="edge">
<title>Node17&#45;&gt;Node14</title>
<path fill="none" stroke="#191970" d="M95.0503,-218.092C85.7314,-210.235 75.9978,-199.8847 71,-188 54.5032,-148.771 73.9262,-96.8107 83.3934,-75.617"/>
<polygon fill="#191970" stroke="#191970" points="92.9752,-220.9126 103.0035,-224.3308 97.2957,-215.4049 92.9752,-220.9126"/>
</g>
<!-- Node18 -->
<g id="node9" class="node">
<title>Node18</title>
<g id="a_node9"><a xlink:href="spec_2classification_8h.html" target="_top" xlink:title="ODP classification descriptor. ">
<polygon fill="#ffffff" stroke="#000000" points="80.5,-168.5 80.5,-187.5 169.5,-187.5 169.5,-168.5 80.5,-168.5"/>
<text text-anchor="middle" x="125" y="-175.5" font-family="Helvetica,sans-Serif" font-size="10.00" fill="#000000">classification.h</text>
</a>
</g>
</g>
<!-- Node17&#45;&gt;Node18 -->
<g id="edge8" class="edge">
<title>Node17&#45;&gt;Node18</title>
<path fill="none" stroke="#191970" d="M120.4803,-214.1575C121.6056,-205.155 122.885,-194.9199 123.7947,-187.6427"/>
<polygon fill="#191970" stroke="#191970" points="116.9868,-213.8886 119.2193,-224.2455 123.9327,-214.7569 116.9868,-213.8886"/>
</g>
<!-- Node20 -->
<g id="node11" class="node">
<title>Node20</title>
<g id="a_node11"><a xlink:href="spec_2traffic__mngr_8h.html" target="_top" xlink:title="Copyright (c) 2015&#45;2018, Linaro Limited All rights reserved. ">
<polygon fill="#ffffff" stroke="#000000" points="187,-168.5 187,-187.5 271,-187.5 271,-168.5 187,-168.5"/>
<text text-anchor="middle" x="229" y="-175.5" font-family="Helvetica,sans-Serif" font-size="10.00" fill="#000000">traffic_mngr.h</text>
</a>
</g>
</g>
<!-- Node17&#45;&gt;Node20 -->
<g id="edge12" class="edge">
<title>Node17&#45;&gt;Node20</title>
<path fill="none" stroke="#191970" d="M146.0734,-219.8368C166.1385,-209.7139 192.5922,-196.3679 210.1674,-187.5011"/>
<polygon fill="#191970" stroke="#191970" points="144.4332,-216.7441 137.0816,-224.3733 147.5862,-222.9938 144.4332,-216.7441"/>
</g>
<!-- Node19 -->
<g id="node10" class="node">
<title>Node19</title>
<g id="a_node10"><a xlink:href="classification_8h.html" target="_top" xlink:title="ODP classification descriptor. ">
<polygon fill="#ffffff" stroke="#000000" points="80.5,-112.5 80.5,-131.5 169.5,-131.5 169.5,-112.5 80.5,-112.5"/>
<text text-anchor="middle" x="125" y="-119.5" font-family="Helvetica,sans-Serif" font-size="10.00" fill="#000000">classification.h</text>
</a>
</g>
</g>
<!-- Node18&#45;&gt;Node19 -->
<g id="edge9" class="edge">
<title>Node18&#45;&gt;Node19</title>
<path fill="none" stroke="#191970" d="M125,-158.1575C125,-149.155 125,-138.9199 125,-131.6427"/>
<polygon fill="#191970" stroke="#191970" points="121.5001,-158.2455 125,-168.2455 128.5001,-158.2456 121.5001,-158.2455"/>
</g>
<!-- Node19&#45;&gt;Node14 -->
<g id="edge10" class="edge">
<title>Node19&#45;&gt;Node14</title>
<path fill="none" stroke="#191970" d="M112.8624,-103.6296C106.6907,-94.2887 99.4434,-83.3197 94.3711,-75.6427"/>
<polygon fill="#191970" stroke="#191970" points="110.1223,-105.8316 118.5551,-112.2455 115.9627,-101.9728 110.1223,-105.8316"/>
</g>
<!-- Node21 -->
<g id="node12" class="node">
<title>Node21</title>
<g id="a_node12"><a xlink:href="traffic__mngr_8h.html" target="_top" xlink:title="ODP Traffic manager. ">
<polygon fill="#ffffff" stroke="#000000" points="187,-112.5 187,-131.5 271,-131.5 271,-112.5 187,-112.5"/>
<text text-anchor="middle" x="229" y="-119.5" font-family="Helvetica,sans-Serif" font-size="10.00" fill="#000000">traffic_mngr.h</text>
</a>
</g>
</g>
<!-- Node20&#45;&gt;Node21 -->
<g id="edge13" class="edge">
<title>Node20&#45;&gt;Node21</title>
<path fill="none" stroke="#191970" d="M229,-158.1575C229,-149.155 229,-138.9199 229,-131.6427"/>
<polygon fill="#191970" stroke="#191970" points="225.5001,-158.2455 229,-168.2455 232.5001,-158.2456 225.5001,-158.2455"/>
</g>
<!-- Node21&#45;&gt;Node14 -->
<g id="edge14" class="edge">
<title>Node21&#45;&gt;Node14</title>
<path fill="none" stroke="#191970" d="M195.3968,-108.6541C169.6841,-98.4419 134.8539,-84.6086 111.9225,-75.5011"/>
<polygon fill="#191970" stroke="#191970" points="194.1755,-111.9349 204.7612,-112.3733 196.7593,-105.4292 194.1755,-111.9349"/>
</g>
<!-- Node23 -->
<g id="node14" class="node">
<title>Node23</title>
<g id="a_node14"><a xlink:href="schedule_8h.html" target="_top" xlink:title="ODP schedule. ">
<polygon fill="#ffffff" stroke="#000000" points="172.5,-224.5 172.5,-243.5 241.5,-243.5 241.5,-224.5 172.5,-224.5"/>
<text text-anchor="middle" x="207" y="-231.5" font-family="Helvetica,sans-Serif" font-size="10.00" fill="#000000">schedule.h</text>
</a>
</g>
</g>
<!-- Node22&#45;&gt;Node23 -->
<g id="edge16" class="edge">
<title>Node22&#45;&gt;Node23</title>
<path fill="none" stroke="#191970" d="M207,-270.1575C207,-261.155 207,-250.9199 207,-243.6427"/>
<polygon fill="#191970" stroke="#191970" points="203.5001,-270.2455 207,-280.2455 210.5001,-270.2456 203.5001,-270.2455"/>
</g>
<!-- Node25 -->
<g id="node16" class="node">
<title>Node25</title>
<g id="a_node16"><a xlink:href="queue__inlines_8h_source.html" target="_top" xlink:title="queue_inlines.h">
<polygon fill="#ffffff" stroke="#000000" points="177.5,-336.5 177.5,-355.5 270.5,-355.5 270.5,-336.5 177.5,-336.5"/>
<text text-anchor="middle" x="224" y="-343.5" font-family="Helvetica,sans-Serif" font-size="10.00" fill="#000000">queue_inlines.h</text>
</a>
</g>
</g>
<!-- Node24&#45;&gt;Node25 -->
<g id="edge18" class="edge">
<title>Node24&#45;&gt;Node25</title>
<path fill="none" stroke="#191970" d="M224,-382.1575C224,-373.155 224,-362.9199 224,-355.6427"/>
<polygon fill="#191970" stroke="#191970" points="220.5001,-382.2455 224,-392.2455 227.5001,-382.2456 220.5001,-382.2455"/>
</g>
</g>
</svg>
