<?xml version="1.0" encoding="UTF-8" standalone="no"?>
<!DOCTYPE svg PUBLIC "-//W3C//DTD SVG 1.1//EN"
 "http://www.w3.org/Graphics/SVG/1.1/DTD/svg11.dtd">
<!-- Generated by graphviz version 2.40.1 (20161225.0304)
 -->
<!-- Title: packet_io.h Pages: 1 -->
<svg width="1757pt" height="733pt"
 viewBox="0.00 0.00 1757.14 733.00" xmlns="http://www.w3.org/2000/svg" xmlns:xlink="http://www.w3.org/1999/xlink">
<g id="graph0" class="graph" transform="scale(1 1) rotate(0) translate(4 729)">
<title>packet_io.h</title>
<polygon fill="#ffffff" stroke="transparent" points="-4,4 -4,-729 1753.1382,-729 1753.1382,4 -4,4"/>
<!-- Node0 -->
<g id="node1" class="node">
<title>Node0</title>
<polygon fill="#bfbfbf" stroke="#000000" points="502.6382,-705.5 502.6382,-724.5 575.6382,-724.5 575.6382,-705.5 502.6382,-705.5"/>
<text text-anchor="middle" x="539.1382" y="-712.5" font-family="Helvetica,sans-Serif" font-size="10.00" fill="#000000">packet_io.h</text>
</g>
<!-- Node1 -->
<g id="node2" class="node">
<title>Node1</title>
<polygon fill="#ffffff" stroke="#bfbfbf" points="835.6382,-.5 835.6382,-19.5 956.6382,-19.5 956.6382,-.5 835.6382,-.5"/>
<text text-anchor="middle" x="896.1382" y="-7.5" font-family="Helvetica,sans-Serif" font-size="10.00" fill="#000000">odp/visibility_begin.h</text>
</g>
<!-- Node0&#45;&gt;Node1 -->
<g id="edge1" class="edge">
<title>Node0&#45;&gt;Node1</title>
<path fill="none" stroke="#191970" d="M539.1382,-705.4116C539.1382,-686.0538 539.1382,-640.9167 539.1382,-603 539.1382,-603 539.1382,-603 539.1382,-435 539.1382,-331.433 787.4657,-170.2023 849.1382,-87 863.1946,-68.0365 876.9909,-44.7126 885.9611,-28.7357"/>
<polygon fill="#191970" stroke="#191970" points="889.1031,-30.2864 890.8819,-19.8419 882.9781,-26.8975 889.1031,-30.2864"/>
</g>
<!-- Node2 -->
<g id="node3" class="node">
<title>Node2</title>
<g id="a_node3"><a xlink:href="deprecated_8h.html" target="_top" xlink:title="Control deprecated API definitions. ">
<polygon fill="#ffffff" stroke="#000000" points="185.6382,-246.5 185.6382,-265.5 304.6382,-265.5 304.6382,-246.5 185.6382,-246.5"/>
<text text-anchor="middle" x="245.1382" y="-253.5" font-family="Helvetica,sans-Serif" font-size="10.00" fill="#000000">odp/api/deprecated.h</text>
</a>
</g>
</g>
<!-- Node0&#45;&gt;Node2 -->
<g id="edge2" class="edge">
<title>Node0&#45;&gt;Node2</title>
<path fill="none" stroke="#191970" d="M502.4292,-710.82C414.5126,-699.7915 199.1382,-666.3132 199.1382,-603 199.1382,-603 199.1382,-603 199.1382,-379 199.1382,-339.9003 219.7828,-297.9863 233.4114,-274.5764"/>
<polygon fill="#191970" stroke="#191970" points="236.5741,-276.1094 238.7421,-265.7387 230.5801,-272.4939 236.5741,-276.1094"/>
</g>
<!-- Node4 -->
<g id="node5" class="node">
<title>Node4</title>
<polygon fill="#ffffff" stroke="#bfbfbf" points="225.1382,-.5 225.1382,-19.5 337.1382,-19.5 337.1382,-.5 225.1382,-.5"/>
<text text-anchor="middle" x="281.1382" y="-7.5" font-family="Helvetica,sans-Serif" font-size="10.00" fill="#000000">odp/visibility_end.h</text>
</g>
<!-- Node0&#45;&gt;Node4 -->
<g id="edge66" class="edge">
<title>Node0&#45;&gt;Node4</title>
<path fill="none" stroke="#191970" d="M502.4867,-714.1147C390.3458,-711.0839 57.2176,-699.5687 20.1382,-669 -3.4145,-649.5829 1.1382,-633.5246 1.1382,-603 1.1382,-603 1.1382,-603 1.1382,-133 1.1382,-81.0304 42.9694,-79.8596 89.1382,-56 128.2721,-35.7759 176.502,-24.2645 214.8327,-17.8149"/>
<polygon fill="#191970" stroke="#191970" points="215.5396,-21.2463 224.8579,-16.2045 214.4293,-14.3349 215.5396,-21.2463"/>
</g>
<!-- Node5 -->
<g id="node6" class="node">
<title>Node5</title>
<g id="a_node6"><a xlink:href="packet__io__stats_8h.html" target="_top" xlink:title="ODP packet IO stats. ">
<polygon fill="#ffffff" stroke="#000000" points="29.6382,-649.5 29.6382,-668.5 170.6382,-668.5 170.6382,-649.5 29.6382,-649.5"/>
<text text-anchor="middle" x="100.1382" y="-656.5" font-family="Helvetica,sans-Serif" font-size="10.00" fill="#000000">odp/api/packet_io_stats.h</text>
</a>
</g>
</g>
<!-- Node0&#45;&gt;Node5 -->
<g id="edge6" class="edge">
<title>Node0&#45;&gt;Node5</title>
<path fill="none" stroke="#191970" d="M502.4644,-710.3218C432.1076,-701.3469 276.6832,-681.5205 180.9277,-669.3057"/>
<polygon fill="#191970" stroke="#191970" points="181.3547,-665.8319 170.9921,-668.0383 180.4688,-672.7756 181.3547,-665.8319"/>
</g>
<!-- Node7 -->
<g id="node8" class="node">
<title>Node7</title>
<g id="a_node8"><a xlink:href="queue_8h.html" target="_top" xlink:title="ODP queue. ">
<polygon fill="#ffffff" stroke="#000000" points="1112.6382,-649.5 1112.6382,-668.5 1207.6382,-668.5 1207.6382,-649.5 1112.6382,-649.5"/>
<text text-anchor="middle" x="1160.1382" y="-656.5" font-family="Helvetica,sans-Serif" font-size="10.00" fill="#000000">odp/api/queue.h</text>
</a>
</g>
</g>
<!-- Node0&#45;&gt;Node7 -->
<g id="edge10" class="edge">
<title>Node0&#45;&gt;Node7</title>
<path fill="none" stroke="#191970" d="M575.6661,-711.706C679.3474,-702.3563 976.0939,-675.5966 1102.255,-664.2197"/>
<polygon fill="#191970" stroke="#191970" points="1102.8374,-667.6815 1112.4826,-663.2974 1102.2086,-660.7098 1102.8374,-667.6815"/>
</g>
<!-- Node22 -->
<g id="node23" class="node">
<title>Node22</title>
<g id="a_node23"><a xlink:href="packet_8h.html" target="_top" xlink:title="ODP packet descriptor. ">
<polygon fill="#ffffff" stroke="#000000" points="1150.1382,-425.5 1150.1382,-444.5 1248.1382,-444.5 1248.1382,-425.5 1150.1382,-425.5"/>
<text text-anchor="middle" x="1199.1382" y="-432.5" font-family="Helvetica,sans-Serif" font-size="10.00" fill="#000000">odp/api/packet.h</text>
</a>
</g>
</g>
<!-- Node0&#45;&gt;Node22 -->
<g id="edge65" class="edge">
<title>Node0&#45;&gt;Node22</title>
<path fill="none" stroke="#191970" d="M575.9406,-713.6443C713.6145,-708.4265 1191.7282,-688.9352 1217.1382,-669 1241.3567,-649.9996 1238.1382,-633.7824 1238.1382,-603 1238.1382,-603 1238.1382,-603 1238.1382,-547 1238.1382,-512.5398 1221.4686,-475.2666 1209.9258,-453.5877"/>
<polygon fill="#191970" stroke="#191970" points="1212.9634,-451.8481 1205.0614,-444.7906 1206.8376,-455.2355 1212.9634,-451.8481"/>
</g>
<!-- Node26 -->
<g id="node27" class="node">
<title>Node26</title>
<g id="a_node27"><a xlink:href="time_8h.html" target="_top" xlink:title="ODP time. ">
<polygon fill="#ffffff" stroke="#000000" points="922.6382,-308 922.6382,-327 1009.6382,-327 1009.6382,-308 922.6382,-308"/>
<text text-anchor="middle" x="966.1382" y="-315" font-family="Helvetica,sans-Serif" font-size="10.00" fill="#000000">odp/api/time.h</text>
</a>
</g>
</g>
<!-- Node0&#45;&gt;Node26 -->
<g id="edge64" class="edge">
<title>Node0&#45;&gt;Node26</title>
<path fill="none" stroke="#191970" d="M542.6389,-705.3772C562.2157,-651.7909 658.3189,-391.7798 688.1382,-369 722.5737,-342.6937 841.7535,-328.1763 912.3982,-321.6998"/>
<polygon fill="#191970" stroke="#191970" points="912.804,-325.1776 922.4531,-320.8022 912.1815,-318.2053 912.804,-325.1776"/>
</g>
<!-- Node3 -->
<g id="node4" class="node">
<title>Node3</title>
<g id="a_node4"><a xlink:href="spec_2deprecated_8h.html" target="_top" xlink:title="Macro for deprecated API definitions. ">
<polygon fill="#ffffff" stroke="#000000" points="351.6382,-62 351.6382,-81 496.6382,-81 496.6382,-62 351.6382,-62"/>
<text text-anchor="middle" x="424.1382" y="-69" font-family="Helvetica,sans-Serif" font-size="10.00" fill="#000000">odp/api/spec/deprecated.h</text>
</a>
</g>
</g>
<!-- Node2&#45;&gt;Node3 -->
<g id="edge3" class="edge">
<title>Node2&#45;&gt;Node3</title>
<path fill="none" stroke="#191970" d="M254.51,-246.3402C283.3878,-216.5751 371.2634,-125.9994 407.8664,-88.2718"/>
<polygon fill="#191970" stroke="#191970" points="410.4079,-90.6786 414.8592,-81.0641 405.3838,-85.8042 410.4079,-90.6786"/>
</g>
<!-- Node3&#45;&gt;Node1 -->
<g id="edge4" class="edge">
<title>Node3&#45;&gt;Node1</title>
<path fill="none" stroke="#191970" d="M471.7385,-61.9236C482.992,-59.8202 494.9679,-57.7124 506.1382,-56 617.2304,-38.9699 746.9661,-24.7982 825.2693,-16.8653"/>
<polygon fill="#191970" stroke="#191970" points="825.9001,-20.3196 835.4989,-15.8349 825.1984,-13.3548 825.9001,-20.3196"/>
</g>
<!-- Node3&#45;&gt;Node4 -->
<g id="edge5" class="edge">
<title>Node3&#45;&gt;Node4</title>
<path fill="none" stroke="#191970" d="M401.7944,-61.8906C377.8679,-51.6005 339.7073,-35.1888 312.7165,-23.5809"/>
<polygon fill="#191970" stroke="#191970" points="313.8943,-20.2775 303.325,-19.5419 311.1287,-26.708 313.8943,-20.2775"/>
</g>
<!-- Node6 -->
<g id="node7" class="node">
<title>Node6</title>
<g id="a_node7"><a xlink:href="spec_2packet__io__stats_8h.html" target="_top" xlink:title="ODP Packet IO. ">
<polygon fill="#ffffff" stroke="#000000" points="181.1382,-56.5 181.1382,-86.5 295.1382,-86.5 295.1382,-56.5 181.1382,-56.5"/>
<text text-anchor="start" x="189.1382" y="-74.5" font-family="Helvetica,sans-Serif" font-size="10.00" fill="#000000">odp/api/spec/packet</text>
<text text-anchor="middle" x="238.1382" y="-63.5" font-family="Helvetica,sans-Serif" font-size="10.00" fill="#000000">_io_stats.h</text>
</a>
</g>
</g>
<!-- Node5&#45;&gt;Node6 -->
<g id="edge7" class="edge">
<title>Node5&#45;&gt;Node6</title>
<path fill="none" stroke="#191970" d="M91.2319,-649.3544C75.2007,-630.945 43.1382,-588.8901 43.1382,-547 43.1382,-547 43.1382,-547 43.1382,-317.5 43.1382,-214.555 149.3061,-129.5949 204.9659,-92.1273"/>
<polygon fill="#191970" stroke="#191970" points="207.0282,-94.9597 213.4413,-86.5262 203.1688,-89.1197 207.0282,-94.9597"/>
</g>
<!-- Node6&#45;&gt;Node1 -->
<g id="edge8" class="edge">
<title>Node6&#45;&gt;Node1</title>
<path fill="none" stroke="#191970" d="M295.2664,-62.3023C310.4726,-60.0413 326.906,-57.7656 342.1382,-56 515.1731,-35.9434 719.5972,-21.3025 825.1374,-14.4105"/>
<polygon fill="#191970" stroke="#191970" points="825.5947,-17.8882 835.347,-13.7478 825.1413,-10.9029 825.5947,-17.8882"/>
</g>
<!-- Node6&#45;&gt;Node4 -->
<g id="edge9" class="edge">
<title>Node6&#45;&gt;Node4</title>
<path fill="none" stroke="#191970" d="M248.7674,-56.2977C254.7362,-47.7609 262.222,-37.0545 268.4911,-28.0883"/>
<polygon fill="#191970" stroke="#191970" points="271.3916,-30.048 274.2533,-19.8469 265.6547,-26.0368 271.3916,-30.048"/>
</g>
<!-- Node8 -->
<g id="node9" class="node">
<title>Node8</title>
<g id="a_node9"><a xlink:href="std__types_8h.html" target="_top" xlink:title="Standard C language types and definitions for ODP. ">
<polygon fill="#ffffff" stroke="#000000" points="1196.1382,-246.5 1196.1382,-265.5 1308.1382,-265.5 1308.1382,-246.5 1196.1382,-246.5"/>
<text text-anchor="middle" x="1252.1382" y="-253.5" font-family="Helvetica,sans-Serif" font-size="10.00" fill="#000000">odp/api/std_types.h</text>
</a>
</g>
</g>
<!-- Node7&#45;&gt;Node8 -->
<g id="edge11" class="edge">
<title>Node7&#45;&gt;Node8</title>
<path fill="none" stroke="#191970" d="M1207.8396,-654.9687C1348.0602,-642.4849 1749.1382,-601.9721 1749.1382,-547 1749.1382,-547 1749.1382,-547 1749.1382,-379 1749.1382,-291.2862 1453.7537,-265.7118 1318.427,-258.5978"/>
<polygon fill="#191970" stroke="#191970" points="1318.3487,-255.0894 1308.1843,-258.0786 1317.9943,-262.0804 1318.3487,-255.0894"/>
</g>
<!-- Node15 -->
<g id="node16" class="node">
<title>Node15</title>
<polygon fill="#ffffff" stroke="#bfbfbf" points="730.1382,-369.5 730.1382,-388.5 840.1382,-388.5 840.1382,-369.5 730.1382,-369.5"/>
<text text-anchor="middle" x="785.1382" y="-376.5" font-family="Helvetica,sans-Serif" font-size="10.00" fill="#000000">odp/api/abi/event.h</text>
</g>
<!-- Node7&#45;&gt;Node15 -->
<g id="edge22" class="edge">
<title>Node7&#45;&gt;Node15</title>
<path fill="none" stroke="#191970" d="M1147.2298,-649.3618C1092.0115,-608.1321 875.359,-446.3649 806.3644,-394.8489"/>
<polygon fill="#191970" stroke="#191970" points="808.0991,-391.7761 797.9922,-388.5977 803.911,-397.3851 808.0991,-391.7761"/>
</g>
<!-- Node16 -->
<g id="node17" class="node">
<title>Node16</title>
<polygon fill="#ffffff" stroke="#bfbfbf" points="858.6382,-369.5 858.6382,-388.5 971.6382,-388.5 971.6382,-369.5 858.6382,-369.5"/>
<text text-anchor="middle" x="915.1382" y="-376.5" font-family="Helvetica,sans-Serif" font-size="10.00" fill="#000000">odp/api/abi/queue.h</text>
</g>
<!-- Node7&#45;&gt;Node16 -->
<g id="edge23" class="edge">
<title>Node7&#45;&gt;Node16</title>
<path fill="none" stroke="#191970" d="M1147.5883,-649.4082C1126.0022,-631.7155 1084.1382,-591.6472 1084.1382,-547 1084.1382,-547 1084.1382,-547 1084.1382,-491 1084.1382,-435.3973 1019.7881,-405.7694 970.5043,-391.2318"/>
<polygon fill="#191970" stroke="#191970" points="971.4462,-387.861 960.872,-388.5223 969.5506,-394.5995 971.4462,-387.861"/>
</g>
<!-- Node17 -->
<g id="node18" class="node">
<title>Node17</title>
<polygon fill="#ffffff" stroke="#bfbfbf" points="1489.1382,-369.5 1489.1382,-388.5 1599.1382,-388.5 1599.1382,-369.5 1489.1382,-369.5"/>
<text text-anchor="middle" x="1544.1382" y="-376.5" font-family="Helvetica,sans-Serif" font-size="10.00" fill="#000000">odp/api/abi/buffer.h</text>
</g>
<!-- Node7&#45;&gt;Node17 -->
<g id="edge24" class="edge">
<title>Node7&#45;&gt;Node17</title>
<path fill="none" stroke="#191970" d="M1171.8386,-649.3917C1212.0134,-616.5584 1348.4529,-506.3539 1468.1382,-425 1484.5109,-413.871 1503.5717,-402.3376 1518.5089,-393.6032"/>
<polygon fill="#191970" stroke="#191970" points="1520.32,-396.5989 1527.2155,-388.5551 1516.8089,-390.5431 1520.32,-396.5989"/>
</g>
<!-- Node18 -->
<g id="node19" class="node">
<title>Node18</title>
<polygon fill="#ffffff" stroke="#bfbfbf" points="1617.1382,-369.5 1617.1382,-388.5 1721.1382,-388.5 1721.1382,-369.5 1617.1382,-369.5"/>
<text text-anchor="middle" x="1669.1382" y="-376.5" font-family="Helvetica,sans-Serif" font-size="10.00" fill="#000000">odp/api/abi/pool.h</text>
</g>
<!-- Node7&#45;&gt;Node18 -->
<g id="edge25" class="edge">
<title>Node7&#45;&gt;Node18</title>
<path fill="none" stroke="#191970" d="M1207.6504,-652.5765C1297.2201,-639.1284 1482.1382,-604.4123 1482.1382,-547 1482.1382,-547 1482.1382,-547 1482.1382,-491 1482.1382,-431.5054 1552.6641,-402.8444 1607.0931,-389.5839"/>
<polygon fill="#191970" stroke="#191970" points="1608.0932,-392.9451 1617.0483,-387.2832 1606.5169,-386.1249 1608.0932,-392.9451"/>
</g>
<!-- Node19 -->
<g id="node20" class="node">
<title>Node19</title>
<g id="a_node20"><a xlink:href="spec_2queue_8h.html" target="_top" xlink:title="ODP queue. ">
<polygon fill="#ffffff" stroke="#000000" points="698.1382,-593.5 698.1382,-612.5 818.1382,-612.5 818.1382,-593.5 698.1382,-593.5"/>
<text text-anchor="middle" x="758.1382" y="-600.5" font-family="Helvetica,sans-Serif" font-size="10.00" fill="#000000">odp/api/spec/queue.h</text>
</a>
</g>
</g>
<!-- Node7&#45;&gt;Node19 -->
<g id="edge26" class="edge">
<title>Node7&#45;&gt;Node19</title>
<path fill="none" stroke="#191970" d="M1112.4449,-652.3562C1042.0393,-642.5484 909.8486,-624.1338 828.3522,-612.7811"/>
<polygon fill="#191970" stroke="#191970" points="828.5698,-609.2776 818.1825,-611.3644 827.6039,-616.2107 828.5698,-609.2776"/>
</g>
<!-- Node9 -->
<g id="node10" class="node">
<title>Node9</title>
<polygon fill="#ffffff" stroke="#bfbfbf" points="1339.1382,-185 1339.1382,-204 1469.1382,-204 1469.1382,-185 1339.1382,-185"/>
<text text-anchor="middle" x="1404.1382" y="-192" font-family="Helvetica,sans-Serif" font-size="10.00" fill="#000000">odp/api/abi/std_types.h</text>
</g>
<!-- Node8&#45;&gt;Node9 -->
<g id="edge12" class="edge">
<title>Node8&#45;&gt;Node9</title>
<path fill="none" stroke="#191970" d="M1275.8882,-246.3906C1301.4321,-236.0554 1342.239,-219.5447 1370.9492,-207.9284"/>
<polygon fill="#191970" stroke="#191970" points="1372.5977,-211.0371 1380.555,-204.0419 1369.9722,-204.5481 1372.5977,-211.0371"/>
</g>
<!-- Node10 -->
<g id="node11" class="node">
<title>Node10</title>
<g id="a_node11"><a xlink:href="spec_2std__types_8h.html" target="_top" xlink:title="Standard C language types and definitions for ODP. ">
<polygon fill="#ffffff" stroke="#000000" points="1183.6382,-185 1183.6382,-204 1320.6382,-204 1320.6382,-185 1183.6382,-185"/>
<text text-anchor="middle" x="1252.1382" y="-192" font-family="Helvetica,sans-Serif" font-size="10.00" fill="#000000">odp/api/spec/std_types.h</text>
</a>
</g>
</g>
<!-- Node8&#45;&gt;Node10 -->
<g id="edge13" class="edge">
<title>Node8&#45;&gt;Node10</title>
<path fill="none" stroke="#191970" d="M1252.1382,-246.3906C1252.1382,-237.8657 1252.1382,-225.1392 1252.1382,-214.4235"/>
<polygon fill="#191970" stroke="#191970" points="1255.6383,-214.2448 1252.1382,-204.2449 1248.6383,-214.2449 1255.6383,-214.2448"/>
</g>
<!-- Node10&#45;&gt;Node1 -->
<g id="edge14" class="edge">
<title>Node10&#45;&gt;Node1</title>
<path fill="none" stroke="#191970" d="M1267.796,-184.87C1280.8037,-175.8637 1298.3876,-161.1021 1306.1382,-143 1321.3574,-107.4544 1331.9104,-84.8254 1306.1382,-56 1283.9741,-31.2101 1078.221,-18.1799 966.8931,-12.8931"/>
<polygon fill="#191970" stroke="#191970" points="966.9033,-9.3898 956.7512,-12.4204 966.5774,-16.3822 966.9033,-9.3898"/>
</g>
<!-- Node10&#45;&gt;Node4 -->
<g id="edge21" class="edge">
<title>Node10&#45;&gt;Node4</title>
<path fill="none" stroke="#191970" d="M1226.336,-184.95C1156.1271,-159.3928 955.2965,-89.1339 782.1382,-56 628.1812,-26.5403 443.8724,-15.7786 347.425,-11.9768"/>
<polygon fill="#191970" stroke="#191970" points="347.3639,-8.472 337.2378,-11.5884 347.0972,-15.467 347.3639,-8.472"/>
</g>
<!-- Node11 -->
<g id="node12" class="node">
<title>Node11</title>
<polygon fill="#ffffff" stroke="#bfbfbf" points="1353.6382,-123.5 1353.6382,-142.5 1406.6382,-142.5 1406.6382,-123.5 1353.6382,-123.5"/>
<text text-anchor="middle" x="1380.1382" y="-130.5" font-family="Helvetica,sans-Serif" font-size="10.00" fill="#000000">stdint.h</text>
</g>
<!-- Node10&#45;&gt;Node11 -->
<g id="edge15" class="edge">
<title>Node10&#45;&gt;Node11</title>
<path fill="none" stroke="#191970" d="M1272.1382,-184.8906C1293.3671,-174.6908 1327.1144,-158.4763 1351.2342,-146.8875"/>
<polygon fill="#191970" stroke="#191970" points="1352.7808,-150.0275 1360.2786,-142.5419 1349.7492,-143.7179 1352.7808,-150.0275"/>
</g>
<!-- Node12 -->
<g id="node13" class="node">
<title>Node12</title>
<g id="a_node13"><a xlink:href="align_8h.html" target="_top" xlink:title="ODP alignments. ">
<polygon fill="#ffffff" stroke="#000000" points="1207.6382,-123.5 1207.6382,-142.5 1296.6382,-142.5 1296.6382,-123.5 1207.6382,-123.5"/>
<text text-anchor="middle" x="1252.1382" y="-130.5" font-family="Helvetica,sans-Serif" font-size="10.00" fill="#000000">odp/api/align.h</text>
</a>
</g>
</g>
<!-- Node10&#45;&gt;Node12 -->
<g id="edge16" class="edge">
<title>Node10&#45;&gt;Node12</title>
<path fill="none" stroke="#191970" d="M1252.1382,-184.8906C1252.1382,-176.3657 1252.1382,-163.6392 1252.1382,-152.9235"/>
<polygon fill="#191970" stroke="#191970" points="1255.6383,-152.7448 1252.1382,-142.7449 1248.6383,-152.7449 1255.6383,-152.7448"/>
</g>
<!-- Node13 -->
<g id="node14" class="node">
<title>Node13</title>
<polygon fill="#ffffff" stroke="#bfbfbf" points="1189.6382,-62 1189.6382,-81 1296.6382,-81 1296.6382,-62 1189.6382,-62"/>
<text text-anchor="middle" x="1243.1382" y="-69" font-family="Helvetica,sans-Serif" font-size="10.00" fill="#000000">odp/api/abi/align.h</text>
</g>
<!-- Node12&#45;&gt;Node13 -->
<g id="edge17" class="edge">
<title>Node12&#45;&gt;Node13</title>
<path fill="none" stroke="#191970" d="M1250.7319,-123.3906C1249.4844,-114.8657 1247.622,-102.1392 1246.0538,-91.4235"/>
<polygon fill="#191970" stroke="#191970" points="1249.4754,-90.6326 1244.5643,-81.2449 1242.5492,-91.6463 1249.4754,-90.6326"/>
</g>
<!-- Node14 -->
<g id="node15" class="node">
<title>Node14</title>
<g id="a_node15"><a xlink:href="spec_2align_8h.html" target="_top" xlink:title="ODP alignments. ">
<polygon fill="#ffffff" stroke="#000000" points="943.1382,-62 943.1382,-81 1057.1382,-81 1057.1382,-62 943.1382,-62"/>
<text text-anchor="middle" x="1000.1382" y="-69" font-family="Helvetica,sans-Serif" font-size="10.00" fill="#000000">odp/api/spec/align.h</text>
</a>
</g>
</g>
<!-- Node12&#45;&gt;Node14 -->
<g id="edge18" class="edge">
<title>Node12&#45;&gt;Node14</title>
<path fill="none" stroke="#191970" d="M1213.0397,-123.4581C1168.8991,-112.6857 1097.0162,-95.1428 1049.1576,-83.4631"/>
<polygon fill="#191970" stroke="#191970" points="1049.8731,-80.035 1039.3284,-81.0643 1048.2134,-86.8355 1049.8731,-80.035"/>
</g>
<!-- Node14&#45;&gt;Node1 -->
<g id="edge19" class="edge">
<title>Node14&#45;&gt;Node1</title>
<path fill="none" stroke="#191970" d="M983.8882,-61.8906C967.0213,-51.9165 940.4283,-36.1908 920.9347,-24.6633"/>
<polygon fill="#191970" stroke="#191970" points="922.6632,-21.6194 912.2741,-19.5419 919.1002,-27.6447 922.6632,-21.6194"/>
</g>
<!-- Node14&#45;&gt;Node4 -->
<g id="edge20" class="edge">
<title>Node14&#45;&gt;Node4</title>
<path fill="none" stroke="#191970" d="M943.1185,-66.6228C811.5594,-55.3698 487.3748,-27.6405 347.3328,-15.662"/>
<polygon fill="#191970" stroke="#191970" points="347.4329,-12.1579 337.171,-14.7928 346.8363,-19.1324 347.4329,-12.1579"/>
</g>
<!-- Node19&#45;&gt;Node1 -->
<g id="edge27" class="edge">
<title>Node19&#45;&gt;Node1</title>
<path fill="none" stroke="#191970" d="M798.7633,-593.4831C897.333,-567.7252 1141.1382,-486.8935 1141.1382,-317.5 1141.1382,-317.5 1141.1382,-317.5 1141.1382,-194.5 1141.1382,-132.306 1163.8166,-101.2399 1121.1382,-56 1100.3288,-33.9417 1024.8064,-21.8561 966.94,-15.6798"/>
<polygon fill="#191970" stroke="#191970" points="967.0288,-12.1706 956.7234,-14.6303 966.3134,-19.1339 967.0288,-12.1706"/>
</g>
<!-- Node19&#45;&gt;Node4 -->
<g id="edge63" class="edge">
<title>Node19&#45;&gt;Node4</title>
<path fill="none" stroke="#191970" d="M716.8837,-593.4073C614.8857,-567.8029 347.5246,-488.939 187.1382,-333 96.0169,-244.4054 27.9706,-147.5346 116.1382,-56 130.1169,-41.4874 175.5324,-29.4494 215.185,-21.3328"/>
<polygon fill="#191970" stroke="#191970" points="215.9954,-24.7403 225.1193,-19.3547 214.6283,-17.875 215.9954,-24.7403"/>
</g>
<!-- Node20 -->
<g id="node21" class="node">
<title>Node20</title>
<g id="a_node21"><a xlink:href="event_8h.html" target="_top" xlink:title="ODP event. ">
<polygon fill="#ffffff" stroke="#000000" points="712.1382,-537.5 712.1382,-556.5 804.1382,-556.5 804.1382,-537.5 712.1382,-537.5"/>
<text text-anchor="middle" x="758.1382" y="-544.5" font-family="Helvetica,sans-Serif" font-size="10.00" fill="#000000">odp/api/event.h</text>
</a>
</g>
</g>
<!-- Node19&#45;&gt;Node20 -->
<g id="edge28" class="edge">
<title>Node19&#45;&gt;Node20</title>
<path fill="none" stroke="#191970" d="M758.1382,-593.2455C758.1382,-585.9382 758.1382,-575.6944 758.1382,-566.7046"/>
<polygon fill="#191970" stroke="#191970" points="761.6383,-566.6426 758.1382,-556.6427 754.6383,-566.6427 761.6383,-566.6426"/>
</g>
<!-- Node29 -->
<g id="node30" class="node">
<title>Node29</title>
<g id="a_node30"><a xlink:href="queue__types_8h.html" target="_top" xlink:title="ODP queue types. ">
<polygon fill="#ffffff" stroke="#000000" points="452.6382,-302.5 452.6382,-332.5 563.6382,-332.5 563.6382,-302.5 452.6382,-302.5"/>
<text text-anchor="start" x="460.6382" y="-320.5" font-family="Helvetica,sans-Serif" font-size="10.00" fill="#000000">odp/api/spec/queue</text>
<text text-anchor="middle" x="508.1382" y="-309.5" font-family="Helvetica,sans-Serif" font-size="10.00" fill="#000000">_types.h</text>
</a>
</g>
</g>
<!-- Node19&#45;&gt;Node29 -->
<g id="edge50" class="edge">
<title>Node19&#45;&gt;Node29</title>
<path fill="none" stroke="#191970" d="M744.0356,-593.409C719.8272,-576.5296 669.5547,-539.6265 634.1382,-501 586.6687,-449.2282 543.09,-378.4714 521.806,-341.7854"/>
<polygon fill="#191970" stroke="#191970" points="524.6632,-339.7325 516.6473,-332.8046 518.5933,-343.2192 524.6632,-339.7325"/>
</g>
<!-- Node20&#45;&gt;Node15 -->
<g id="edge29" class="edge">
<title>Node20&#45;&gt;Node15</title>
<path fill="none" stroke="#191970" d="M761.0949,-537.2156C763.7947,-527.9617 767.7223,-513.6466 770.1382,-501 776.9826,-465.1714 781.3743,-422.7984 783.5373,-398.5933"/>
<polygon fill="#191970" stroke="#191970" points="787.0305,-398.8209 784.3981,-388.5583 780.0561,-398.2225 787.0305,-398.8209"/>
</g>
<!-- Node21 -->
<g id="node22" class="node">
<title>Node21</title>
<g id="a_node22"><a xlink:href="spec_2event_8h.html" target="_top" xlink:title="ODP event. ">
<polygon fill="#ffffff" stroke="#000000" points="643.1382,-481.5 643.1382,-500.5 761.1382,-500.5 761.1382,-481.5 643.1382,-481.5"/>
<text text-anchor="middle" x="702.1382" y="-488.5" font-family="Helvetica,sans-Serif" font-size="10.00" fill="#000000">odp/api/spec/event.h</text>
</a>
</g>
</g>
<!-- Node20&#45;&gt;Node21 -->
<g id="edge30" class="edge">
<title>Node20&#45;&gt;Node21</title>
<path fill="none" stroke="#191970" d="M748.3837,-537.2455C740.2734,-529.1352 728.5457,-517.4075 718.9301,-507.7919"/>
<polygon fill="#191970" stroke="#191970" points="721.3268,-505.2389 711.7809,-500.6427 716.3771,-510.1887 721.3268,-505.2389"/>
</g>
<!-- Node21&#45;&gt;Node1 -->
<g id="edge31" class="edge">
<title>Node21&#45;&gt;Node1</title>
<path fill="none" stroke="#191970" d="M700.2203,-481.3659C696.234,-458.2339 689.8458,-399.2378 721.1382,-369 817.0741,-276.2971 921.6273,-424.0448 1019.1382,-333 1064.7738,-290.3906 1104.0854,-105.58 1066.1382,-56 1053.6916,-39.7379 1007.7241,-27.8996 966.7241,-20.308"/>
<polygon fill="#191970" stroke="#191970" points="967.1653,-16.8314 956.7053,-18.5167 965.9332,-23.7222 967.1653,-16.8314"/>
</g>
<!-- Node21&#45;&gt;Node4 -->
<g id="edge49" class="edge">
<title>Node21&#45;&gt;Node4</title>
<path fill="none" stroke="#191970" d="M643.0822,-485.845C528.3475,-472.3888 276.1619,-425.2852 157.1382,-266 101.1281,-191.0438 77.8902,-124.0276 142.1382,-56 154.2507,-43.175 194.0895,-30.7347 228.0286,-22.032"/>
<polygon fill="#191970" stroke="#191970" points="229.0238,-25.391 237.8745,-19.5673 227.3238,-18.6005 229.0238,-25.391"/>
</g>
<!-- Node21&#45;&gt;Node22 -->
<g id="edge32" class="edge">
<title>Node21&#45;&gt;Node22</title>
<path fill="none" stroke="#191970" d="M761.5943,-484.3007C857.3044,-473.5165 1044.4481,-452.4299 1139.9727,-441.6665"/>
<polygon fill="#191970" stroke="#191970" points="1140.4957,-445.1298 1150.0409,-440.5321 1139.7118,-438.1739 1140.4957,-445.1298"/>
</g>
<!-- Node22&#45;&gt;Node8 -->
<g id="edge33" class="edge">
<title>Node22&#45;&gt;Node8</title>
<path fill="none" stroke="#191970" d="M1197.6001,-425.4551C1195.8243,-412.4891 1193.6797,-388.67 1198.1382,-369 1206.2188,-333.3497 1226.9753,-295.7889 1240.2736,-274.2024"/>
<polygon fill="#191970" stroke="#191970" points="1243.2454,-276.0514 1245.6221,-265.7266 1237.3255,-272.3158 1243.2454,-276.0514"/>
</g>
<!-- Node22&#45;&gt;Node15 -->
<g id="edge34" class="edge">
<title>Node22&#45;&gt;Node15</title>
<path fill="none" stroke="#191970" d="M1149.9649,-428.8587C1084.271,-420.5787 963.9799,-405.1547 850.3605,-389.0055"/>
<polygon fill="#191970" stroke="#191970" points="850.8384,-385.5383 840.4445,-387.5918 849.8503,-392.4683 850.8384,-385.5383"/>
</g>
<!-- Node22&#45;&gt;Node16 -->
<g id="edge37" class="edge">
<title>Node22&#45;&gt;Node16</title>
<path fill="none" stroke="#191970" d="M1150.6395,-425.4369C1101.6267,-415.7724 1025.8604,-400.8326 973.5675,-390.5213"/>
<polygon fill="#191970" stroke="#191970" points="973.925,-387.0244 963.4368,-388.5237 972.5707,-393.8922 973.925,-387.0244"/>
</g>
<!-- Node22&#45;&gt;Node17 -->
<g id="edge38" class="edge">
<title>Node22&#45;&gt;Node17</title>
<path fill="none" stroke="#191970" d="M1248.2019,-427.036C1308.7182,-417.2131 1411.7977,-400.4813 1478.9263,-389.5851"/>
<polygon fill="#191970" stroke="#191970" points="1479.6595,-393.012 1488.9695,-387.9549 1478.5379,-386.1024 1479.6595,-393.012"/>
</g>
<!-- Node22&#45;&gt;Node18 -->
<g id="edge39" class="edge">
<title>Node22&#45;&gt;Node18</title>
<path fill="none" stroke="#191970" d="M1248.345,-430.276C1323.3867,-422.8937 1471.164,-407.6575 1606.7649,-389.1348"/>
<polygon fill="#191970" stroke="#191970" points="1607.4911,-392.568 1616.921,-387.7381 1606.5374,-385.6332 1607.4911,-392.568"/>
</g>
<!-- Node23 -->
<g id="node24" class="node">
<title>Node23</title>
<polygon fill="#ffffff" stroke="#bfbfbf" points="1207.1382,-369.5 1207.1382,-388.5 1337.1382,-388.5 1337.1382,-369.5 1207.1382,-369.5"/>
<text text-anchor="middle" x="1272.1382" y="-376.5" font-family="Helvetica,sans-Serif" font-size="10.00" fill="#000000">odp/api/abi/packet_io.h</text>
</g>
<!-- Node22&#45;&gt;Node23 -->
<g id="edge35" class="edge">
<title>Node22&#45;&gt;Node23</title>
<path fill="none" stroke="#191970" d="M1211.8538,-425.2455C1222.7402,-416.8943 1238.6265,-404.7076 1251.3582,-394.9408"/>
<polygon fill="#191970" stroke="#191970" points="1253.7643,-397.5063 1259.5683,-388.6427 1249.5036,-391.9523 1253.7643,-397.5063"/>
</g>
<!-- Node24 -->
<g id="node25" class="node">
<title>Node24</title>
<polygon fill="#ffffff" stroke="#bfbfbf" points="1355.1382,-369.5 1355.1382,-388.5 1471.1382,-388.5 1471.1382,-369.5 1355.1382,-369.5"/>
<text text-anchor="middle" x="1413.1382" y="-376.5" font-family="Helvetica,sans-Serif" font-size="10.00" fill="#000000">odp/api/abi/packet.h</text>
</g>
<!-- Node22&#45;&gt;Node24 -->
<g id="edge36" class="edge">
<title>Node22&#45;&gt;Node24</title>
<path fill="none" stroke="#191970" d="M1235.9261,-425.3733C1272.2043,-415.8799 1327.7617,-401.3415 1366.9827,-391.0781"/>
<polygon fill="#191970" stroke="#191970" points="1368.0421,-394.4188 1376.8303,-388.5011 1366.27,-387.6468 1368.0421,-394.4188"/>
</g>
<!-- Node25 -->
<g id="node26" class="node">
<title>Node25</title>
<g id="a_node26"><a xlink:href="spec_2packet_8h.html" target="_top" xlink:title="ODP packet descriptor. ">
<polygon fill="#ffffff" stroke="#000000" points="989.6382,-369.5 989.6382,-388.5 1112.6382,-388.5 1112.6382,-369.5 989.6382,-369.5"/>
<text text-anchor="middle" x="1051.1382" y="-376.5" font-family="Helvetica,sans-Serif" font-size="10.00" fill="#000000">odp/api/spec/packet.h</text>
</a>
</g>
</g>
<!-- Node22&#45;&gt;Node25 -->
<g id="edge40" class="edge">
<title>Node22&#45;&gt;Node25</title>
<path fill="none" stroke="#191970" d="M1173.6961,-425.3733C1149.4055,-416.1822 1112.6174,-402.2624 1085.6839,-392.0713"/>
<polygon fill="#191970" stroke="#191970" points="1086.8398,-388.7666 1076.2483,-388.5011 1084.3625,-395.3136 1086.8398,-388.7666"/>
</g>
<!-- Node25&#45;&gt;Node1 -->
<g id="edge41" class="edge">
<title>Node25&#45;&gt;Node1</title>
<path fill="none" stroke="#191970" d="M1058.3686,-369.3858C1072.6567,-349.4007 1103.1382,-301.4408 1103.1382,-256 1103.1382,-256 1103.1382,-256 1103.1382,-194.5 1103.1382,-132.9188 1138.2616,-103.5563 1099.1382,-56 1082.3501,-35.5933 1018.4903,-23.4898 966.8211,-16.8626"/>
<polygon fill="#191970" stroke="#191970" points="967.0209,-13.3607 956.6674,-15.6093 966.1633,-20.308 967.0209,-13.3607"/>
</g>
<!-- Node25&#45;&gt;Node4 -->
<g id="edge48" class="edge">
<title>Node25&#45;&gt;Node4</title>
<path fill="none" stroke="#191970" d="M989.3329,-369.9144C986.5656,-369.5885 983.8242,-369.2815 981.1382,-369 801.7732,-350.2027 292.2049,-404.035 176.1382,-266 115.9563,-194.4274 110.3726,-133.2029 163.1382,-56 171.6934,-43.4827 205.2758,-31.1021 234.4377,-22.3437"/>
<polygon fill="#191970" stroke="#191970" points="235.4976,-25.6804 244.1154,-19.5173 233.5352,-18.9611 235.4976,-25.6804"/>
</g>
<!-- Node25&#45;&gt;Node26 -->
<g id="edge42" class="edge">
<title>Node25&#45;&gt;Node26</title>
<path fill="none" stroke="#191970" d="M1037.8569,-369.3906C1024.3834,-359.6421 1003.3162,-344.3994 987.4947,-332.9521"/>
<polygon fill="#191970" stroke="#191970" points="989.4796,-330.0682 979.3262,-327.0419 985.3763,-335.7394 989.4796,-330.0682"/>
</g>
<!-- Node26&#45;&gt;Node8 -->
<g id="edge43" class="edge">
<title>Node26&#45;&gt;Node8</title>
<path fill="none" stroke="#191970" d="M1009.8867,-308.0925C1060.4141,-297.2274 1143.5632,-279.3474 1198.0902,-267.6222"/>
<polygon fill="#191970" stroke="#191970" points="1198.8834,-271.0317 1207.9241,-265.5076 1197.4118,-264.1882 1198.8834,-271.0317"/>
</g>
<!-- Node27 -->
<g id="node28" class="node">
<title>Node27</title>
<polygon fill="#ffffff" stroke="#bfbfbf" points="913.6382,-246.5 913.6382,-265.5 1018.6382,-265.5 1018.6382,-246.5 913.6382,-246.5"/>
<text text-anchor="middle" x="966.1382" y="-253.5" font-family="Helvetica,sans-Serif" font-size="10.00" fill="#000000">odp/api/abi/time.h</text>
</g>
<!-- Node26&#45;&gt;Node27 -->
<g id="edge44" class="edge">
<title>Node26&#45;&gt;Node27</title>
<path fill="none" stroke="#191970" d="M966.1382,-307.8906C966.1382,-299.3657 966.1382,-286.6392 966.1382,-275.9235"/>
<polygon fill="#191970" stroke="#191970" points="969.6383,-275.7448 966.1382,-265.7449 962.6383,-275.7449 969.6383,-275.7448"/>
</g>
<!-- Node28 -->
<g id="node29" class="node">
<title>Node28</title>
<g id="a_node29"><a xlink:href="spec_2time_8h.html" target="_top" xlink:title="ODP time. ">
<polygon fill="#ffffff" stroke="#000000" points="659.6382,-62 659.6382,-81 772.6382,-81 772.6382,-62 659.6382,-62"/>
<text text-anchor="middle" x="716.1382" y="-69" font-family="Helvetica,sans-Serif" font-size="10.00" fill="#000000">odp/api/spec/time.h</text>
</a>
</g>
</g>
<!-- Node26&#45;&gt;Node28 -->
<g id="edge45" class="edge">
<title>Node26&#45;&gt;Node28</title>
<path fill="none" stroke="#191970" d="M954.147,-307.9619C941.6254,-297.8681 921.5599,-281.3121 905.1382,-266 837.8701,-203.2772 763.216,-123.0296 731.6138,-88.5214"/>
<polygon fill="#191970" stroke="#191970" points="734.1974,-86.1602 724.8694,-81.1364 729.0286,-90.8807 734.1974,-86.1602"/>
</g>
<!-- Node28&#45;&gt;Node1 -->
<g id="edge46" class="edge">
<title>Node28&#45;&gt;Node1</title>
<path fill="none" stroke="#191970" d="M744.2632,-61.8906C775.0409,-51.3749 824.5302,-34.466 858.6037,-22.8243"/>
<polygon fill="#191970" stroke="#191970" points="859.8794,-26.0871 868.2107,-19.5419 857.6161,-19.4631 859.8794,-26.0871"/>
</g>
<!-- Node28&#45;&gt;Node4 -->
<g id="edge47" class="edge">
<title>Node28&#45;&gt;Node4</title>
<path fill="none" stroke="#191970" d="M679.1639,-61.9366C670.0434,-59.7844 660.271,-57.6514 651.1382,-56 545.5873,-36.914 421.6565,-23.2631 347.364,-16.0078"/>
<polygon fill="#191970" stroke="#191970" points="347.5081,-12.5055 337.2176,-15.0266 346.8342,-19.473 347.5081,-12.5055"/>
</g>
<!-- Node29&#45;&gt;Node1 -->
<g id="edge51" class="edge">
<title>Node29&#45;&gt;Node1</title>
<path fill="none" stroke="#191970" d="M532.3228,-302.4363C548.1328,-292.418 569.1165,-278.7961 587.1382,-266 693.3272,-190.6019 721.3368,-172.9993 819.1382,-87 841.2625,-67.5455 864.9841,-43.2433 880.16,-27.2044"/>
<polygon fill="#191970" stroke="#191970" points="882.9694,-29.3255 887.2633,-19.6397 877.8665,-24.5337 882.9694,-29.3255"/>
</g>
<!-- Node29&#45;&gt;Node2 -->
<g id="edge61" class="edge">
<title>Node29&#45;&gt;Node2</title>
<path fill="none" stroke="#191970" d="M452.3626,-304.4574C405.9625,-293.6072 340.4812,-278.295 295.6167,-267.8039"/>
<polygon fill="#191970" stroke="#191970" points="296.3426,-264.3793 285.8084,-265.5103 294.7487,-271.1954 296.3426,-264.3793"/>
</g>
<!-- Node29&#45;&gt;Node4 -->
<g id="edge62" class="edge">
<title>Node29&#45;&gt;Node4</title>
<path fill="none" stroke="#191970" d="M462.9461,-302.4163C386.452,-274.1219 233.7757,-205.045 172.1382,-87 165.7611,-74.7869 164.5217,-67.4812 172.1382,-56 182.6286,-40.1864 199.7443,-29.7957 217.3366,-22.9732"/>
<polygon fill="#191970" stroke="#191970" points="218.8442,-26.1534 227.1201,-19.5383 216.5253,-19.5486 218.8442,-26.1534"/>
</g>
<!-- Node30 -->
<g id="node31" class="node">
<title>Node30</title>
<g id="a_node31"><a xlink:href="schedule__types_8h.html" target="_top" xlink:title="ODP schedule. ">
<polygon fill="#ffffff" stroke="#000000" points="438.1382,-246.5 438.1382,-265.5 578.1382,-265.5 578.1382,-246.5 438.1382,-246.5"/>
<text text-anchor="middle" x="508.1382" y="-253.5" font-family="Helvetica,sans-Serif" font-size="10.00" fill="#000000">odp/api/schedule_types.h</text>
</a>
</g>
</g>
<!-- Node29&#45;&gt;Node30 -->
<g id="edge52" class="edge">
<title>Node29&#45;&gt;Node30</title>
<path fill="none" stroke="#191970" d="M508.1382,-302.2977C508.1382,-294.3834 508.1382,-284.6043 508.1382,-276.0759"/>
<polygon fill="#191970" stroke="#191970" points="511.6383,-275.8469 508.1382,-265.8469 504.6383,-275.847 511.6383,-275.8469"/>
</g>
<!-- Node31 -->
<g id="node32" class="node">
<title>Node31</title>
<polygon fill="#ffffff" stroke="#bfbfbf" points="380.6382,-179.5 380.6382,-209.5 497.6382,-209.5 497.6382,-179.5 380.6382,-179.5"/>
<text text-anchor="start" x="388.6382" y="-197.5" font-family="Helvetica,sans-Serif" font-size="10.00" fill="#000000">odp/api/abi/schedule</text>
<text text-anchor="middle" x="439.1382" y="-186.5" font-family="Helvetica,sans-Serif" font-size="10.00" fill="#000000">_types.h</text>
</g>
<!-- Node30&#45;&gt;Node31 -->
<g id="edge53" class="edge">
<title>Node30&#45;&gt;Node31</title>
<path fill="none" stroke="#191970" d="M497.3569,-246.3906C488.3645,-238.3756 475.2051,-226.6466 463.6714,-216.3666"/>
<polygon fill="#191970" stroke="#191970" points="465.8114,-213.5855 456.0175,-209.5446 461.1538,-218.8111 465.8114,-213.5855"/>
</g>
<!-- Node32 -->
<g id="node33" class="node">
<title>Node32</title>
<g id="a_node33"><a xlink:href="spec_2schedule__types_8h.html" target="_top" xlink:title="ODP schedule types. ">
<polygon fill="#ffffff" stroke="#000000" points="515.6382,-179.5 515.6382,-209.5 640.6382,-209.5 640.6382,-179.5 515.6382,-179.5"/>
<text text-anchor="start" x="523.6382" y="-197.5" font-family="Helvetica,sans-Serif" font-size="10.00" fill="#000000">odp/api/spec/schedule</text>
<text text-anchor="middle" x="578.1382" y="-186.5" font-family="Helvetica,sans-Serif" font-size="10.00" fill="#000000">_types.h</text>
</a>
</g>
</g>
<!-- Node30&#45;&gt;Node32 -->
<g id="edge54" class="edge">
<title>Node30&#45;&gt;Node32</title>
<path fill="none" stroke="#191970" d="M519.0757,-246.3906C528.1984,-238.3756 541.5485,-226.6466 553.2494,-216.3666"/>
<polygon fill="#191970" stroke="#191970" points="555.8119,-218.7742 561.0142,-209.5446 551.1917,-213.5155 555.8119,-218.7742"/>
</g>
<!-- Node32&#45;&gt;Node1 -->
<g id="edge55" class="edge">
<title>Node32&#45;&gt;Node1</title>
<path fill="none" stroke="#191970" d="M609.1257,-179.4918C649.6094,-159.5869 722.3748,-122.7847 782.1382,-87 815.2422,-67.1782 851.965,-41.7089 874.5553,-25.6142"/>
<polygon fill="#191970" stroke="#191970" points="876.6712,-28.4039 882.7629,-19.7355 872.595,-22.7131 876.6712,-28.4039"/>
</g>
<!-- Node32&#45;&gt;Node4 -->
<g id="edge60" class="edge">
<title>Node32&#45;&gt;Node4</title>
<path fill="none" stroke="#191970" d="M527.8702,-179.3763C477.3575,-162.4859 399.0408,-131.5397 342.1382,-87 321.0619,-70.5028 302.902,-45.2947 292.0036,-28.2558"/>
<polygon fill="#191970" stroke="#191970" points="294.9669,-26.3931 286.7236,-19.7373 289.0171,-30.081 294.9669,-26.3931"/>
</g>
<!-- Node33 -->
<g id="node34" class="node">
<title>Node33</title>
<g id="a_node34"><a xlink:href="support_8h.html" target="_top" xlink:title="ODP support API &#45; platform specific header. ">
<polygon fill="#ffffff" stroke="#000000" points="527.6382,-123.5 527.6382,-142.5 628.6382,-142.5 628.6382,-123.5 527.6382,-123.5"/>
<text text-anchor="middle" x="578.1382" y="-130.5" font-family="Helvetica,sans-Serif" font-size="10.00" fill="#000000">odp/api/support.h</text>
</a>
</g>
</g>
<!-- Node32&#45;&gt;Node33 -->
<g id="edge56" class="edge">
<title>Node32&#45;&gt;Node33</title>
<path fill="none" stroke="#191970" d="M578.1382,-179.2977C578.1382,-171.3834 578.1382,-161.6043 578.1382,-153.0759"/>
<polygon fill="#191970" stroke="#191970" points="581.6383,-152.8469 578.1382,-142.8469 574.6383,-152.847 581.6383,-152.8469"/>
</g>
<!-- Node34 -->
<g id="node35" class="node">
<title>Node34</title>
<g id="a_node35"><a xlink:href="spec_2support_8h.html" target="_top" xlink:title="ODP support API. ">
<polygon fill="#ffffff" stroke="#000000" points="514.6382,-62 514.6382,-81 641.6382,-81 641.6382,-62 514.6382,-62"/>
<text text-anchor="middle" x="578.1382" y="-69" font-family="Helvetica,sans-Serif" font-size="10.00" fill="#000000">odp/api/spec/support.h</text>
</a>
</g>
</g>
<!-- Node33&#45;&gt;Node34 -->
<g id="edge57" class="edge">
<title>Node33&#45;&gt;Node34</title>
<path fill="none" stroke="#191970" d="M578.1382,-123.3906C578.1382,-114.8657 578.1382,-102.1392 578.1382,-91.4235"/>
<polygon fill="#191970" stroke="#191970" points="581.6383,-91.2448 578.1382,-81.2449 574.6383,-91.2449 581.6383,-91.2448"/>
</g>
<!-- Node34&#45;&gt;Node1 -->
<g id="edge58" class="edge">
<title>Node34&#45;&gt;Node1</title>
<path fill="none" stroke="#191970" d="M622.1103,-61.9879C631.671,-59.9688 641.7368,-57.8804 651.1382,-56 713.0736,-43.6121 784.0185,-30.3983 833.5705,-21.3265"/>
<polygon fill="#191970" stroke="#191970" points="834.2897,-24.7531 843.4974,-19.5121 833.031,-17.8672 834.2897,-24.7531"/>
</g>
<!-- Node34&#45;&gt;Node4 -->
<g id="edge59" class="edge">
<title>Node34&#45;&gt;Node4</title>
<path fill="none" stroke="#191970" d="M533.9841,-61.9189C524.7853,-59.9441 515.1481,-57.8908 506.1382,-56 449.1834,-44.0477 384.0318,-30.7711 338.5453,-21.5658"/>
<polygon fill="#191970" stroke="#191970" points="339.0697,-18.101 328.5744,-19.5493 337.6822,-24.9621 339.0697,-18.101"/>
</g>
</g>
</svg>
