<?xml version="1.0" encoding="UTF-8" standalone="no"?>
<!DOCTYPE svg PUBLIC "-//W3C//DTD SVG 1.1//EN"
 "http://www.w3.org/Graphics/SVG/1.1/DTD/svg11.dtd">
<!-- Generated by graphviz version 2.40.1 (20161225.0304)
 -->
<!-- Title: cpumask.h Pages: 1 -->
<svg width="165pt" height="308pt"
 viewBox="0.00 0.00 165.00 308.00" xmlns="http://www.w3.org/2000/svg" xmlns:xlink="http://www.w3.org/1999/xlink">
<g id="graph0" class="graph" transform="scale(1 1) rotate(0) translate(4 304)">
<title>cpumask.h</title>
<polygon fill="#ffffff" stroke="transparent" points="-4,4 -4,-304 161,-304 161,4 -4,4"/>
<!-- Node3 -->
<g id="node1" class="node">
<title>Node3</title>
<polygon fill="#bfbfbf" stroke="#000000" points="34,-280.5 34,-299.5 104,-299.5 104,-280.5 34,-280.5"/>
<text text-anchor="middle" x="69" y="-287.5" font-family="Helvetica,sans-Serif" font-size="10.00" fill="#000000">cpumask.h</text>
</g>
<!-- Node4 -->
<g id="node2" class="node">
<title>Node4</title>
<g id="a_node2"><a xlink:href="cpumask_8h.html" target="_top" xlink:title="ODP CPU masks and enumeration. ">
<polygon fill="#ffffff" stroke="#000000" points="34,-224.5 34,-243.5 104,-243.5 104,-224.5 34,-224.5"/>
<text text-anchor="middle" x="69" y="-231.5" font-family="Helvetica,sans-Serif" font-size="10.00" fill="#000000">cpumask.h</text>
</a>
</g>
</g>
<!-- Node3&#45;&gt;Node4 -->
<g id="edge1" class="edge">
<title>Node3&#45;&gt;Node4</title>
<path fill="none" stroke="#191970" d="M69,-270.1575C69,-261.155 69,-250.9199 69,-243.6427"/>
<polygon fill="#191970" stroke="#191970" points="65.5001,-270.2455 69,-280.2455 72.5001,-270.2456 65.5001,-270.2455"/>
</g>
<!-- Node5 -->
<g id="node3" class="node">
<title>Node5</title>
<g id="a_node3"><a xlink:href="abi-default_2thrmask_8h.html" target="_top" xlink:title="ODP thread masks. ">
<polygon fill="#ffffff" stroke="#000000" points="0,-168.5 0,-187.5 66,-187.5 66,-168.5 0,-168.5"/>
<text text-anchor="middle" x="33" y="-175.5" font-family="Helvetica,sans-Serif" font-size="10.00" fill="#000000">thrmask.h</text>
</a>
</g>
</g>
<!-- Node4&#45;&gt;Node5 -->
<g id="edge2" class="edge">
<title>Node4&#45;&gt;Node5</title>
<path fill="none" stroke="#191970" d="M57.1904,-215.6296C51.1856,-206.2887 44.1341,-195.3197 39.1989,-187.6427"/>
<polygon fill="#191970" stroke="#191970" points="54.3775,-217.7264 62.7293,-224.2455 60.2658,-213.9411 54.3775,-217.7264"/>
</g>
<!-- Node6 -->
<g id="node4" class="node">
<title>Node6</title>
<g id="a_node4"><a xlink:href="spec_2init_8h.html" target="_top" xlink:title="init.h">
<polygon fill="#ffffff" stroke="#000000" points="84.5,-168.5 84.5,-187.5 125.5,-187.5 125.5,-168.5 84.5,-168.5"/>
<text text-anchor="middle" x="105" y="-175.5" font-family="Helvetica,sans-Serif" font-size="10.00" fill="#000000">init.h</text>
</a>
</g>
</g>
<!-- Node4&#45;&gt;Node6 -->
<g id="edge3" class="edge">
<title>Node4&#45;&gt;Node6</title>
<path fill="none" stroke="#191970" d="M80.8096,-215.6296C86.8144,-206.2887 93.8659,-195.3197 98.8011,-187.6427"/>
<polygon fill="#191970" stroke="#191970" points="77.7342,-213.9411 75.2707,-224.2455 83.6225,-217.7264 77.7342,-213.9411"/>
</g>
<!-- Node7 -->
<g id="node5" class="node">
<title>Node7</title>
<g id="a_node5"><a xlink:href="init_8h.html" target="_top" xlink:title="ODP initialization. ">
<polygon fill="#ffffff" stroke="#000000" points="84.5,-112.5 84.5,-131.5 125.5,-131.5 125.5,-112.5 84.5,-112.5"/>
<text text-anchor="middle" x="105" y="-119.5" font-family="Helvetica,sans-Serif" font-size="10.00" fill="#000000">init.h</text>
</a>
</g>
</g>
<!-- Node6&#45;&gt;Node7 -->
<g id="edge4" class="edge">
<title>Node6&#45;&gt;Node7</title>
<path fill="none" stroke="#191970" d="M105,-158.1575C105,-149.155 105,-138.9199 105,-131.6427"/>
<polygon fill="#191970" stroke="#191970" points="101.5001,-158.2455 105,-168.2455 108.5001,-158.2456 101.5001,-158.2455"/>
</g>
<!-- Node8 -->
<g id="node6" class="node">
<title>Node8</title>
<g id="a_node6"><a xlink:href="spec_2shared__memory_8h.html" target="_top" xlink:title="ODP shared memory. ">
<polygon fill="#ffffff" stroke="#000000" points="53,-56.5 53,-75.5 157,-75.5 157,-56.5 53,-56.5"/>
<text text-anchor="middle" x="105" y="-63.5" font-family="Helvetica,sans-Serif" font-size="10.00" fill="#000000">shared_memory.h</text>
</a>
</g>
</g>
<!-- Node7&#45;&gt;Node8 -->
<g id="edge5" class="edge">
<title>Node7&#45;&gt;Node8</title>
<path fill="none" stroke="#191970" d="M105,-102.1575C105,-93.155 105,-82.9199 105,-75.6427"/>
<polygon fill="#191970" stroke="#191970" points="101.5001,-102.2455 105,-112.2455 108.5001,-102.2456 101.5001,-102.2455"/>
</g>
<!-- Node9 -->
<g id="node7" class="node">
<title>Node9</title>
<g id="a_node7"><a xlink:href="shared__memory_8h.html" target="_top" xlink:title="ODP shared memory. ">
<polygon fill="#ffffff" stroke="#000000" points="53,-.5 53,-19.5 157,-19.5 157,-.5 53,-.5"/>
<text text-anchor="middle" x="105" y="-7.5" font-family="Helvetica,sans-Serif" font-size="10.00" fill="#000000">shared_memory.h</text>
</a>
</g>
</g>
<!-- Node8&#45;&gt;Node9 -->
<g id="edge6" class="edge">
<title>Node8&#45;&gt;Node9</title>
<path fill="none" stroke="#191970" d="M105,-46.1575C105,-37.155 105,-26.9199 105,-19.6427"/>
<polygon fill="#191970" stroke="#191970" points="101.5001,-46.2455 105,-56.2455 108.5001,-46.2456 101.5001,-46.2455"/>
</g>
</g>
</svg>
