<?xml version="1.0" encoding="UTF-8" standalone="no"?>
<!DOCTYPE svg PUBLIC "-//W3C//DTD SVG 1.1//EN"
 "http://www.w3.org/Graphics/SVG/1.1/DTD/svg11.dtd">
<!-- Generated by graphviz version 2.40.1 (20161225.0304)
 -->
<!-- Title: std_types.h Pages: 1 -->
<svg width="2517pt" height="420pt"
 viewBox="0.00 0.00 2517.00 420.00" xmlns="http://www.w3.org/2000/svg" xmlns:xlink="http://www.w3.org/1999/xlink">
<g id="graph0" class="graph" transform="scale(1 1) rotate(0) translate(4 416)">
<title>std_types.h</title>
<polygon fill="#ffffff" stroke="transparent" points="-4,4 -4,-416 2513,-416 2513,4 -4,4"/>
<!-- Node7 -->
<g id="node1" class="node">
<title>Node7</title>
<polygon fill="#bfbfbf" stroke="#000000" points="1301,-392.5 1301,-411.5 1374,-411.5 1374,-392.5 1301,-392.5"/>
<text text-anchor="middle" x="1337.5" y="-399.5" font-family="Helvetica,sans-Serif" font-size="10.00" fill="#000000">std_types.h</text>
</g>
<!-- Node8 -->
<g id="node2" class="node">
<title>Node8</title>
<g id="a_node2"><a xlink:href="std__types_8h.html" target="_top" xlink:title="Standard C language types and definitions for ODP. ">
<polygon fill="#ffffff" stroke="#000000" points="1301,-336.5 1301,-355.5 1374,-355.5 1374,-336.5 1301,-336.5"/>
<text text-anchor="middle" x="1337.5" y="-343.5" font-family="Helvetica,sans-Serif" font-size="10.00" fill="#000000">std_types.h</text>
</a>
</g>
</g>
<!-- Node7&#45;&gt;Node8 -->
<g id="edge1" class="edge">
<title>Node7&#45;&gt;Node8</title>
<path fill="none" stroke="#191970" d="M1337.5,-382.1575C1337.5,-373.155 1337.5,-362.9199 1337.5,-355.6427"/>
<polygon fill="#191970" stroke="#191970" points="1334.0001,-382.2455 1337.5,-392.2455 1341.0001,-382.2456 1334.0001,-382.2455"/>
</g>
<!-- Node9 -->
<g id="node3" class="node">
<title>Node9</title>
<g id="a_node3"><a xlink:href="abi-default_2atomic_8h.html" target="_top" xlink:title="ODP atomic operations. ">
<polygon fill="#ffffff" stroke="#000000" points="0,-280.5 0,-299.5 59,-299.5 59,-280.5 0,-280.5"/>
<text text-anchor="middle" x="29.5" y="-287.5" font-family="Helvetica,sans-Serif" font-size="10.00" fill="#000000">atomic.h</text>
</a>
</g>
</g>
<!-- Node8&#45;&gt;Node9 -->
<g id="edge2" class="edge">
<title>Node8&#45;&gt;Node9</title>
<path fill="none" stroke="#191970" d="M1290.8031,-345.6899C1091.405,-344.1533 310.4672,-335.9171 67.5,-300 64.8006,-299.601 62.017,-299.0825 59.2415,-298.4916"/>
<polygon fill="#191970" stroke="#191970" points="1290.9154,-349.1908 1300.9414,-345.7661 1290.968,-342.191 1290.9154,-349.1908"/>
</g>
<!-- Node10 -->
<g id="node4" class="node">
<title>Node10</title>
<g id="a_node4"><a xlink:href="abi-default_2barrier_8h.html" target="_top" xlink:title="ODP barrier. ">
<polygon fill="#ffffff" stroke="#000000" points="77,-280.5 77,-299.5 134,-299.5 134,-280.5 77,-280.5"/>
<text text-anchor="middle" x="105.5" y="-287.5" font-family="Helvetica,sans-Serif" font-size="10.00" fill="#000000">barrier.h</text>
</a>
</g>
</g>
<!-- Node8&#45;&gt;Node10 -->
<g id="edge3" class="edge">
<title>Node8&#45;&gt;Node10</title>
<path fill="none" stroke="#191970" d="M1290.7972,-345.565C1098.9329,-343.5674 370.7871,-333.8666 143.5,-300 140.5312,-299.5576 137.4603,-298.9719 134.4102,-298.3052"/>
<polygon fill="#191970" stroke="#191970" points="1290.8011,-349.0651 1300.8364,-345.6675 1290.8727,-342.0655 1290.8011,-349.0651"/>
</g>
<!-- Node11 -->
<g id="node5" class="node">
<title>Node11</title>
<g id="a_node5"><a xlink:href="abi-default_2byteorder_8h.html" target="_top" xlink:title="ODP byteorder. ">
<polygon fill="#ffffff" stroke="#000000" points="152.5,-280.5 152.5,-299.5 224.5,-299.5 224.5,-280.5 152.5,-280.5"/>
<text text-anchor="middle" x="188.5" y="-287.5" font-family="Helvetica,sans-Serif" font-size="10.00" fill="#000000">byteorder.h</text>
</a>
</g>
</g>
<!-- Node8&#45;&gt;Node11 -->
<g id="edge4" class="edge">
<title>Node8&#45;&gt;Node11</title>
<path fill="none" stroke="#191970" d="M1290.8117,-345.1565C1108.2965,-341.6882 442.8287,-327.4002 233.5,-300 230.6433,-299.6261 227.7001,-299.1595 224.7513,-298.6339"/>
<polygon fill="#191970" stroke="#191970" points="1290.824,-348.6572 1300.8881,-345.3462 1290.9559,-341.6585 1290.824,-348.6572"/>
</g>
<!-- Node12 -->
<g id="node6" class="node">
<title>Node12</title>
<g id="a_node6"><a xlink:href="abi-default_2cpumask_8h.html" target="_top" xlink:title="ODP CPU masks and enumeration. ">
<polygon fill="#ffffff" stroke="#000000" points="242.5,-280.5 242.5,-299.5 312.5,-299.5 312.5,-280.5 242.5,-280.5"/>
<text text-anchor="middle" x="277.5" y="-287.5" font-family="Helvetica,sans-Serif" font-size="10.00" fill="#000000">cpumask.h</text>
</a>
</g>
</g>
<!-- Node8&#45;&gt;Node12 -->
<g id="edge5" class="edge">
<title>Node8&#45;&gt;Node12</title>
<path fill="none" stroke="#191970" d="M1290.8745,-344.9934C1117.8471,-341.0859 512.6949,-325.8448 321.5,-300 318.7053,-299.6222 315.8265,-299.1529 312.9425,-298.6254"/>
<polygon fill="#191970" stroke="#191970" points="1290.8544,-348.4937 1300.9304,-345.2186 1291.0113,-341.4955 1290.8544,-348.4937"/>
</g>
<!-- Node13 -->
<g id="node7" class="node">
<title>Node13</title>
<g id="a_node7"><a xlink:href="abi-default_2init_8h.html" target="_top" xlink:title="ODP initialization. ">
<polygon fill="#ffffff" stroke="#000000" points="331,-280.5 331,-299.5 372,-299.5 372,-280.5 331,-280.5"/>
<text text-anchor="middle" x="351.5" y="-287.5" font-family="Helvetica,sans-Serif" font-size="10.00" fill="#000000">init.h</text>
</a>
</g>
</g>
<!-- Node8&#45;&gt;Node13 -->
<g id="edge6" class="edge">
<title>Node8&#45;&gt;Node13</title>
<path fill="none" stroke="#191970" d="M1290.5084,-345.5027C1123.3229,-343.4594 557.9153,-334.1287 380.5,-300 377.7805,-299.4769 374.9693,-298.7537 372.2158,-297.9332"/>
<polygon fill="#191970" stroke="#191970" points="1290.8954,-349.0075 1300.9364,-345.627 1290.9788,-342.008 1290.8954,-349.0075"/>
</g>
<!-- Node14 -->
<g id="node8" class="node">
<title>Node14</title>
<g id="a_node8"><a xlink:href="abi-default_2ipsec_8h.html" target="_top" xlink:title="ODP IPSEC API &#45; platform specific types. ">
<polygon fill="#ffffff" stroke="#000000" points="390,-280.5 390,-299.5 441,-299.5 441,-280.5 390,-280.5"/>
<text text-anchor="middle" x="415.5" y="-287.5" font-family="Helvetica,sans-Serif" font-size="10.00" fill="#000000">ipsec.h</text>
</a>
</g>
</g>
<!-- Node8&#45;&gt;Node14 -->
<g id="edge7" class="edge">
<title>Node8&#45;&gt;Node14</title>
<path fill="none" stroke="#191970" d="M1290.2737,-345.0122C1130.8649,-341.4497 613.5063,-327.9677 449.5,-300 446.8313,-299.5449 444.0756,-298.9508 441.3416,-298.279"/>
<polygon fill="#191970" stroke="#191970" points="1290.6115,-348.5204 1300.6864,-345.2421 1290.7661,-341.5221 1290.6115,-348.5204"/>
</g>
<!-- Node15 -->
<g id="node9" class="node">
<title>Node15</title>
<g id="a_node9"><a xlink:href="abi-default_2packet__io_8h.html" target="_top" xlink:title="ODP Packet IO. ">
<polygon fill="#ffffff" stroke="#000000" points="459,-280.5 459,-299.5 532,-299.5 532,-280.5 459,-280.5"/>
<text text-anchor="middle" x="495.5" y="-287.5" font-family="Helvetica,sans-Serif" font-size="10.00" fill="#000000">packet_io.h</text>
</a>
</g>
</g>
<!-- Node8&#45;&gt;Node15 -->
<g id="edge8" class="edge">
<title>Node8&#45;&gt;Node15</title>
<path fill="none" stroke="#191970" d="M1290.8227,-344.2632C1143.2363,-338.6202 687.8233,-320.0076 541.5,-300 538.423,-299.5793 535.246,-299.0631 532.0664,-298.4891"/>
<polygon fill="#191970" stroke="#191970" points="1290.7825,-347.7641 1300.9084,-344.6469 1291.0487,-340.7691 1290.7825,-347.7641"/>
</g>
<!-- Node16 -->
<g id="node10" class="node">
<title>Node16</title>
<g id="a_node10"><a xlink:href="abi-default_2rwlock__recursive_8h.html" target="_top" xlink:title="ODP recursive read/write lock. ">
<polygon fill="#ffffff" stroke="#000000" points="550.5,-280.5 550.5,-299.5 658.5,-299.5 658.5,-280.5 550.5,-280.5"/>
<text text-anchor="middle" x="604.5" y="-287.5" font-family="Helvetica,sans-Serif" font-size="10.00" fill="#000000">rwlock_recursive.h</text>
</a>
</g>
</g>
<!-- Node8&#45;&gt;Node16 -->
<g id="edge9" class="edge">
<title>Node8&#45;&gt;Node16</title>
<path fill="none" stroke="#191970" d="M1290.677,-344.2185C1181.3104,-339.7447 900.657,-326.4554 667.5,-300 664.639,-299.6754 661.7093,-299.3135 658.7544,-298.9254"/>
<polygon fill="#191970" stroke="#191970" points="1290.5857,-347.7175 1300.7188,-344.624 1290.8682,-340.7233 1290.5857,-347.7175"/>
</g>
<!-- Node17 -->
<g id="node11" class="node">
<title>Node17</title>
<g id="a_node11"><a xlink:href="abi-default_2schedule_8h.html" target="_top" xlink:title="ODP schedule. ">
<polygon fill="#ffffff" stroke="#000000" points="677,-280.5 677,-299.5 746,-299.5 746,-280.5 677,-280.5"/>
<text text-anchor="middle" x="711.5" y="-287.5" font-family="Helvetica,sans-Serif" font-size="10.00" fill="#000000">schedule.h</text>
</a>
</g>
</g>
<!-- Node8&#45;&gt;Node17 -->
<g id="edge10" class="edge">
<title>Node8&#45;&gt;Node17</title>
<path fill="none" stroke="#191970" d="M1290.5682,-344.5916C1191.3025,-341.1087 952.965,-330.0813 755.5,-300 752.5571,-299.5517 749.5185,-299.0161 746.4773,-298.4291"/>
<polygon fill="#191970" stroke="#191970" points="1290.7429,-348.0995 1300.8565,-344.9428 1290.9818,-341.1036 1290.7429,-348.0995"/>
</g>
<!-- Node18 -->
<g id="node12" class="node">
<title>Node18</title>
<g id="a_node12"><a xlink:href="abi-default_2spinlock__recursive_8h.html" target="_top" xlink:title="ODP recursive spinlock. ">
<polygon fill="#ffffff" stroke="#000000" points="764.5,-280.5 764.5,-299.5 880.5,-299.5 880.5,-280.5 764.5,-280.5"/>
<text text-anchor="middle" x="822.5" y="-287.5" font-family="Helvetica,sans-Serif" font-size="10.00" fill="#000000">spinlock_recursive.h</text>
</a>
</g>
</g>
<!-- Node8&#45;&gt;Node18 -->
<g id="edge11" class="edge">
<title>Node8&#45;&gt;Node18</title>
<path fill="none" stroke="#191970" d="M1290.4081,-341.8805C1208.6911,-334.5722 1035.3837,-318.3666 889.5,-300 886.5828,-299.6327 883.5965,-299.2418 880.5822,-298.8354"/>
<polygon fill="#191970" stroke="#191970" points="1290.5791,-345.4095 1300.8502,-342.8105 1291.2001,-338.4371 1290.5791,-345.4095"/>
</g>
<!-- Node19 -->
<g id="node13" class="node">
<title>Node19</title>
<g id="a_node13"><a xlink:href="abi-default_2traffic__mngr_8h.html" target="_top" xlink:title="ODP traffic mngr. ">
<polygon fill="#ffffff" stroke="#000000" points="898.5,-280.5 898.5,-299.5 982.5,-299.5 982.5,-280.5 898.5,-280.5"/>
<text text-anchor="middle" x="940.5" y="-287.5" font-family="Helvetica,sans-Serif" font-size="10.00" fill="#000000">traffic_mngr.h</text>
</a>
</g>
</g>
<!-- Node8&#45;&gt;Node19 -->
<g id="edge12" class="edge">
<title>Node8&#45;&gt;Node19</title>
<path fill="none" stroke="#191970" d="M1290.5967,-340.6912C1223.9415,-332.9364 1098.0655,-317.5144 991.5,-300 988.6509,-299.5317 985.7173,-299.0243 982.7647,-298.4948"/>
<polygon fill="#191970" stroke="#191970" points="1290.4378,-344.1961 1300.774,-341.8692 1291.2427,-337.2426 1290.4378,-344.1961"/>
</g>
<!-- Node20 -->
<g id="node14" class="node">
<title>Node20</title>
<g id="a_node14"><a xlink:href="barrier_8h.html" target="_top" xlink:title="ODP execution barriers. ">
<polygon fill="#ffffff" stroke="#000000" points="1001,-280.5 1001,-299.5 1058,-299.5 1058,-280.5 1001,-280.5"/>
<text text-anchor="middle" x="1029.5" y="-287.5" font-family="Helvetica,sans-Serif" font-size="10.00" fill="#000000">barrier.h</text>
</a>
</g>
</g>
<!-- Node8&#45;&gt;Node20 -->
<g id="edge13" class="edge">
<title>Node8&#45;&gt;Node20</title>
<path fill="none" stroke="#191970" d="M1290.9099,-339.4795C1236.7092,-331.5736 1144.665,-317.1554 1066.5,-300 1063.7703,-299.4009 1060.9403,-298.7292 1058.1165,-298.0249"/>
<polygon fill="#191970" stroke="#191970" points="1290.5058,-342.9574 1300.904,-340.9259 1291.5085,-336.0296 1290.5058,-342.9574"/>
</g>
<!-- Node21 -->
<g id="node15" class="node">
<title>Node21</title>
<g id="a_node15"><a xlink:href="buffer_8h.html" target="_top" xlink:title="ODP buffer descriptor. ">
<polygon fill="#ffffff" stroke="#000000" points="1076,-280.5 1076,-299.5 1129,-299.5 1129,-280.5 1076,-280.5"/>
<text text-anchor="middle" x="1102.5" y="-287.5" font-family="Helvetica,sans-Serif" font-size="10.00" fill="#000000">buffer.h</text>
</a>
</g>
</g>
<!-- Node8&#45;&gt;Node21 -->
<g id="edge14" class="edge">
<title>Node8&#45;&gt;Node21</title>
<path fill="none" stroke="#191970" d="M1290.8229,-335.0209C1251.5142,-325.7536 1193.8096,-312.0997 1143.5,-300 1138.9409,-298.9035 1134.0989,-297.7303 1129.4003,-296.5872"/>
<polygon fill="#191970" stroke="#191970" points="1290.1168,-338.4503 1300.653,-337.3373 1291.7224,-331.6369 1290.1168,-338.4503"/>
</g>
<!-- Node22 -->
<g id="node16" class="node">
<title>Node22</title>
<g id="a_node16"><a xlink:href="classification_8h.html" target="_top" xlink:title="ODP classification descriptor. ">
<polygon fill="#ffffff" stroke="#000000" points="1198,-56.5 1198,-75.5 1287,-75.5 1287,-56.5 1198,-56.5"/>
<text text-anchor="middle" x="1242.5" y="-63.5" font-family="Helvetica,sans-Serif" font-size="10.00" fill="#000000">classification.h</text>
</a>
</g>
</g>
<!-- Node8&#45;&gt;Node22 -->
<g id="edge15" class="edge">
<title>Node8&#45;&gt;Node22</title>
<path fill="none" stroke="#191970" d="M1290.8731,-336.5182C1256.9832,-328.8084 1210.4245,-316.5041 1171.5,-300 1155.3593,-293.1563 1153.8162,-286.414 1137.5,-280 1068.4531,-252.8574 1020.9605,-301.8413 974.5,-244 904.8053,-157.2331 1105.9499,-97.7018 1198.5542,-75.5719"/>
<polygon fill="#191970" stroke="#191970" points="1290.44,-340.0074 1300.9615,-338.763 1291.9604,-333.1745 1290.44,-340.0074"/>
</g>
<!-- Node25 -->
<g id="node18" class="node">
<title>Node25</title>
<g id="a_node18"><a xlink:href="crypto_8h.html" target="_top" xlink:title="ODP crypto. ">
<polygon fill="#ffffff" stroke="#000000" points="1071.5,-168.5 1071.5,-187.5 1127.5,-187.5 1127.5,-168.5 1071.5,-168.5"/>
<text text-anchor="middle" x="1099.5" y="-175.5" font-family="Helvetica,sans-Serif" font-size="10.00" fill="#000000">crypto.h</text>
</a>
</g>
</g>
<!-- Node8&#45;&gt;Node25 -->
<g id="edge17" class="edge">
<title>Node8&#45;&gt;Node25</title>
<path fill="none" stroke="#191970" d="M1300.2579,-332.9222C1275.7118,-324.0948 1242.9629,-311.9206 1214.5,-300 1195.059,-291.8579 1191.5578,-286.4754 1171.5,-280 1090.5408,-253.8632 1037.7049,-309.5695 983.5,-244 956.1883,-210.9621 1028.9294,-191.207 1071.3789,-182.7903"/>
<polygon fill="#191970" stroke="#191970" points="1299.3093,-336.3 1309.9039,-336.3709 1301.6659,-329.7086 1299.3093,-336.3"/>
</g>
<!-- Node26 -->
<g id="node19" class="node">
<title>Node26</title>
<g id="a_node19"><a xlink:href="packet_8h.html" target="_top" xlink:title="ODP packet descriptor. ">
<polygon fill="#ffffff" stroke="#000000" points="1224,-280.5 1224,-299.5 1283,-299.5 1283,-280.5 1224,-280.5"/>
<text text-anchor="middle" x="1253.5" y="-287.5" font-family="Helvetica,sans-Serif" font-size="10.00" fill="#000000">packet.h</text>
</a>
</g>
</g>
<!-- Node8&#45;&gt;Node26 -->
<g id="edge19" class="edge">
<title>Node8&#45;&gt;Node26</title>
<path fill="none" stroke="#191970" d="M1314.2351,-330.49C1299.4144,-320.6096 1280.6791,-308.1194 1267.964,-299.6427"/>
<polygon fill="#191970" stroke="#191970" points="1312.6063,-333.6107 1322.8683,-336.2455 1316.4893,-327.7863 1312.6063,-333.6107"/>
</g>
<!-- Node41 -->
<g id="node23" class="node">
<title>Node41</title>
<g id="a_node23"><a xlink:href="spec_2packet__flags_8h.html" target="_top" xlink:title="ODP packet flags. ">
<polygon fill="#ffffff" stroke="#000000" points="1210,-224.5 1210,-243.5 1297,-243.5 1297,-224.5 1210,-224.5"/>
<text text-anchor="middle" x="1253.5" y="-231.5" font-family="Helvetica,sans-Serif" font-size="10.00" fill="#000000">packet_flags.h</text>
</a>
</g>
</g>
<!-- Node8&#45;&gt;Node41 -->
<g id="edge49" class="edge">
<title>Node8&#45;&gt;Node41</title>
<path fill="none" stroke="#191970" d="M1325.5856,-328.071C1316.5178,-314.6349 1303.5802,-295.905 1291.5,-280 1281.7261,-267.1315 1269.7533,-252.8649 1261.8909,-243.6828"/>
<polygon fill="#191970" stroke="#191970" points="1322.7117,-330.0696 1331.1869,-336.4274 1328.5262,-326.172 1322.7117,-330.0696"/>
</g>
<!-- Node35 -->
<g id="node26" class="node">
<title>Node35</title>
<g id="a_node26"><a xlink:href="packet__io_8h.html" target="_top" xlink:title="ODP Packet IO. ">
<polygon fill="#ffffff" stroke="#000000" points="1315,-168.5 1315,-187.5 1388,-187.5 1388,-168.5 1315,-168.5"/>
<text text-anchor="middle" x="1351.5" y="-175.5" font-family="Helvetica,sans-Serif" font-size="10.00" fill="#000000">packet_io.h</text>
</a>
</g>
</g>
<!-- Node8&#45;&gt;Node35 -->
<g id="edge32" class="edge">
<title>Node8&#45;&gt;Node35</title>
<path fill="none" stroke="#191970" d="M1384.245,-340.8999C1416.6208,-335.3496 1459.1811,-323.8275 1489.5,-300 1512.2139,-282.1493 1514.8988,-271.871 1522.5,-244 1524.8388,-235.4243 1527.9077,-231.0547 1522.5,-224 1506.2751,-202.8337 1433.4982,-189.2288 1388.2762,-182.6582"/>
<polygon fill="#191970" stroke="#191970" points="1383.4507,-337.4819 1374.1197,-342.5002 1384.5435,-344.3961 1383.4507,-337.4819"/>
</g>
<!-- Node37 -->
<g id="node28" class="node">
<title>Node37</title>
<g id="a_node28"><a xlink:href="spec_2traffic__mngr_8h.html" target="_top" xlink:title="Copyright (c) 2015&#45;2018, Linaro Limited All rights reserved. ">
<polygon fill="#ffffff" stroke="#ff0000" points="1445.5,-112.5 1445.5,-131.5 1529.5,-131.5 1529.5,-112.5 1445.5,-112.5"/>
<text text-anchor="middle" x="1487.5" y="-119.5" font-family="Helvetica,sans-Serif" font-size="10.00" fill="#000000">traffic_mngr.h</text>
</a>
</g>
</g>
<!-- Node8&#45;&gt;Node37 -->
<g id="edge56" class="edge">
<title>Node8&#45;&gt;Node37</title>
<path fill="none" stroke="#191970" d="M1383.9581,-338.5355C1429.2545,-330.4492 1494.0727,-316.4727 1513.5,-300 1558.3504,-261.9708 1548.8349,-220.5761 1522.5,-168 1515.579,-154.1826 1504.3191,-140.3429 1496.4451,-131.5079"/>
<polygon fill="#191970" stroke="#191970" points="1383.2922,-335.0987 1374.0438,-340.2676 1384.497,-341.9942 1383.2922,-335.0987"/>
</g>
<!-- Node33 -->
<g id="node29" class="node">
<title>Node33</title>
<g id="a_node29"><a xlink:href="queue_8h.html" target="_top" xlink:title="ODP queue. ">
<polygon fill="#ffffff" stroke="#000000" points="1405.5,-280.5 1405.5,-299.5 1461.5,-299.5 1461.5,-280.5 1405.5,-280.5"/>
<text text-anchor="middle" x="1433.5" y="-287.5" font-family="Helvetica,sans-Serif" font-size="10.00" fill="#000000">queue.h</text>
</a>
</g>
</g>
<!-- Node8&#45;&gt;Node33 -->
<g id="edge33" class="edge">
<title>Node8&#45;&gt;Node33</title>
<path fill="none" stroke="#191970" d="M1363.1346,-331.0465C1380.2159,-321.0824 1402.164,-308.2794 1416.9697,-299.6427"/>
<polygon fill="#191970" stroke="#191970" points="1361.0962,-328.1836 1354.2219,-336.2455 1364.6233,-334.23 1361.0962,-328.1836"/>
</g>
<!-- Node39 -->
<g id="node30" class="node">
<title>Node39</title>
<g id="a_node30"><a xlink:href="spec_2schedule_8h.html" target="_top" xlink:title="ODP schedule. ">
<polygon fill="#ffffff" stroke="#000000" points="1445,-224.5 1445,-243.5 1514,-243.5 1514,-224.5 1445,-224.5"/>
<text text-anchor="middle" x="1479.5" y="-231.5" font-family="Helvetica,sans-Serif" font-size="10.00" fill="#000000">schedule.h</text>
</a>
</g>
</g>
<!-- Node8&#45;&gt;Node39 -->
<g id="edge52" class="edge">
<title>Node8&#45;&gt;Node39</title>
<path fill="none" stroke="#191970" d="M1383.7467,-335.4739C1417.4781,-326.8298 1459.1867,-313.8009 1470.5,-300 1483.6965,-283.9018 1482.7849,-257.8123 1481.0806,-243.7405"/>
<polygon fill="#191970" stroke="#191970" points="1382.8811,-332.0825 1374.0276,-337.9021 1384.5778,-338.8737 1382.8811,-332.0825"/>
</g>
<!-- Node43 -->
<g id="node32" class="node">
<title>Node43</title>
<g id="a_node32"><a xlink:href="spec_2chksum_8h.html" target="_top" xlink:title="ODP checksum functions. ">
<polygon fill="#ffffff" stroke="#000000" points="1608.5,-280.5 1608.5,-299.5 1672.5,-299.5 1672.5,-280.5 1608.5,-280.5"/>
<text text-anchor="middle" x="1640.5" y="-287.5" font-family="Helvetica,sans-Serif" font-size="10.00" fill="#000000">chksum.h</text>
</a>
</g>
</g>
<!-- Node8&#45;&gt;Node43 -->
<g id="edge38" class="edge">
<title>Node8&#45;&gt;Node43</title>
<path fill="none" stroke="#191970" d="M1384.3474,-338.1498C1435.9363,-329.3806 1521.289,-314.5045 1594.5,-300 1598.9894,-299.1106 1603.7159,-298.1317 1608.3609,-297.1452"/>
<polygon fill="#191970" stroke="#191970" points="1383.4551,-334.7511 1374.1807,-339.8732 1384.6251,-341.6526 1383.4551,-334.7511"/>
</g>
<!-- Node45 -->
<g id="node34" class="node">
<title>Node45</title>
<g id="a_node34"><a xlink:href="spec_2cpu_8h.html" target="_top" xlink:title="ODP CPU API. ">
<polygon fill="#ffffff" stroke="#000000" points="1691,-280.5 1691,-299.5 1734,-299.5 1734,-280.5 1691,-280.5"/>
<text text-anchor="middle" x="1712.5" y="-287.5" font-family="Helvetica,sans-Serif" font-size="10.00" fill="#000000">cpu.h</text>
</a>
</g>
</g>
<!-- Node8&#45;&gt;Node45 -->
<g id="edge40" class="edge">
<title>Node8&#45;&gt;Node45</title>
<path fill="none" stroke="#191970" d="M1384.2025,-342.4257C1450.8055,-336.7266 1576.6255,-323.726 1681.5,-300 1684.5888,-299.3012 1687.8096,-298.4296 1690.9569,-297.4943"/>
<polygon fill="#191970" stroke="#191970" points="1383.7065,-338.9549 1374.0339,-343.2782 1384.2913,-345.9304 1383.7065,-338.9549"/>
</g>
<!-- Node48 -->
<g id="node36" class="node">
<title>Node48</title>
<g id="a_node36"><a xlink:href="spec_2feature_8h.html" target="_top" xlink:title="ODP features. ">
<polygon fill="#ffffff" stroke="#000000" points="1752,-280.5 1752,-299.5 1813,-299.5 1813,-280.5 1752,-280.5"/>
<text text-anchor="middle" x="1782.5" y="-287.5" font-family="Helvetica,sans-Serif" font-size="10.00" fill="#000000">feature.h</text>
</a>
</g>
</g>
<!-- Node8&#45;&gt;Node48 -->
<g id="edge42" class="edge">
<title>Node8&#45;&gt;Node48</title>
<path fill="none" stroke="#191970" d="M1384.1867,-342.7095C1459.8607,-336.926 1613.8121,-323.2893 1742.5,-300 1745.4584,-299.4646 1748.5227,-298.8357 1751.5786,-298.1584"/>
<polygon fill="#191970" stroke="#191970" points="1383.748,-339.2325 1374.0391,-343.4737 1384.2737,-346.2128 1383.748,-339.2325"/>
</g>
<!-- Node50 -->
<g id="node38" class="node">
<title>Node50</title>
<g id="a_node38"><a xlink:href="spec_2init_8h.html" target="_top" xlink:title="init.h">
<polygon fill="#ffffff" stroke="#000000" points="1791,-168.5 1791,-187.5 1832,-187.5 1832,-168.5 1791,-168.5"/>
<text text-anchor="middle" x="1811.5" y="-175.5" font-family="Helvetica,sans-Serif" font-size="10.00" fill="#000000">init.h</text>
</a>
</g>
</g>
<!-- Node8&#45;&gt;Node50 -->
<g id="edge48" class="edge">
<title>Node8&#45;&gt;Node50</title>
<path fill="none" stroke="#191970" d="M1384.6655,-345.0448C1500.6448,-342.2097 1792.4498,-331.9421 1821.5,-300 1850.3831,-268.2416 1827.4589,-210.6423 1816.5026,-187.7557"/>
<polygon fill="#191970" stroke="#191970" points="1384.2453,-341.5536 1374.3308,-345.289 1384.4107,-348.5517 1384.2453,-341.5536"/>
</g>
<!-- Node54 -->
<g id="node40" class="node">
<title>Node54</title>
<g id="a_node40"><a xlink:href="spec_2hash_8h.html" target="_top" xlink:title="ODP Hash functions. ">
<polygon fill="#ffffff" stroke="#000000" points="1870,-280.5 1870,-299.5 1919,-299.5 1919,-280.5 1870,-280.5"/>
<text text-anchor="middle" x="1894.5" y="-287.5" font-family="Helvetica,sans-Serif" font-size="10.00" fill="#000000">hash.h</text>
</a>
</g>
</g>
<!-- Node8&#45;&gt;Node54 -->
<g id="edge46" class="edge">
<title>Node8&#45;&gt;Node54</title>
<path fill="none" stroke="#191970" d="M1384.2022,-344.3942C1475.39,-340.6994 1683.2751,-329.5258 1855.5,-300 1860.1848,-299.1969 1865.1325,-298.1148 1869.8729,-296.9587"/>
<polygon fill="#191970" stroke="#191970" points="1384.0423,-340.8977 1374.1879,-344.7887 1384.3179,-347.8922 1384.0423,-340.8977"/>
</g>
<!-- Node56 -->
<g id="node42" class="node">
<title>Node56</title>
<g id="a_node42"><a xlink:href="spec_2pool_8h.html" target="_top" xlink:title="ODP pool. ">
<polygon fill="#ffffff" stroke="#000000" points="1937,-280.5 1937,-299.5 1984,-299.5 1984,-280.5 1937,-280.5"/>
<text text-anchor="middle" x="1960.5" y="-287.5" font-family="Helvetica,sans-Serif" font-size="10.00" fill="#000000">pool.h</text>
</a>
</g>
</g>
<!-- Node8&#45;&gt;Node56 -->
<g id="edge50" class="edge">
<title>Node8&#45;&gt;Node56</title>
<path fill="none" stroke="#191970" d="M1384.4229,-343.7152C1505.167,-337.6169 1824.4133,-320.0483 1928.5,-300 1931.2434,-299.4716 1934.0831,-298.7898 1936.8864,-298.0306"/>
<polygon fill="#191970" stroke="#191970" points="1384.1935,-340.2222 1374.3814,-344.219 1384.5443,-347.2134 1384.1935,-340.2222"/>
</g>
<!-- Node59 -->
<g id="node44" class="node">
<title>Node59</title>
<g id="a_node44"><a xlink:href="spec_2stash_8h.html" target="_top" xlink:title="ODP stash. ">
<polygon fill="#ffffff" stroke="#ff0000" points="2002.5,-280.5 2002.5,-299.5 2054.5,-299.5 2054.5,-280.5 2002.5,-280.5"/>
<text text-anchor="middle" x="2028.5" y="-287.5" font-family="Helvetica,sans-Serif" font-size="10.00" fill="#000000">stash.h</text>
</a>
</g>
</g>
<!-- Node8&#45;&gt;Node59 -->
<g id="edge53" class="edge">
<title>Node8&#45;&gt;Node59</title>
<path fill="none" stroke="#191970" d="M1384.1233,-343.9953C1513.6591,-338.2244 1876.0861,-320.6573 1993.5,-300 1996.363,-299.4963 1999.3272,-298.8507 2002.2638,-298.1306"/>
<polygon fill="#191970" stroke="#191970" points="1383.9567,-340.4992 1374.1212,-344.4381 1384.2663,-347.4923 1383.9567,-340.4992"/>
</g>
<!-- Node61 -->
<g id="node45" class="node">
<title>Node61</title>
<g id="a_node45"><a xlink:href="spec_2threshold_8h.html" target="_top" xlink:title="ODP threshold descriptor. ">
<polygon fill="#ffffff" stroke="#ff0000" points="2073,-280.5 2073,-299.5 2144,-299.5 2144,-280.5 2073,-280.5"/>
<text text-anchor="middle" x="2108.5" y="-287.5" font-family="Helvetica,sans-Serif" font-size="10.00" fill="#000000">threshold.h</text>
</a>
</g>
</g>
<!-- Node8&#45;&gt;Node61 -->
<g id="edge54" class="edge">
<title>Node8&#45;&gt;Node61</title>
<path fill="none" stroke="#191970" d="M1384.6421,-345.5434C1500.6748,-343.8711 1809.1653,-336.0936 2063.5,-300 2066.511,-299.5727 2069.6196,-299.0519 2072.7306,-298.4748"/>
<polygon fill="#191970" stroke="#191970" points="1384.2968,-342.0476 1374.3452,-345.6828 1384.3917,-349.047 1384.2968,-342.0476"/>
</g>
<!-- Node63 -->
<g id="node46" class="node">
<title>Node63</title>
<g id="a_node46"><a xlink:href="spec_2thrmask_8h.html" target="_top" xlink:title="ODP thread masks. ">
<polygon fill="#ffffff" stroke="#ff0000" points="2162.5,-280.5 2162.5,-299.5 2228.5,-299.5 2228.5,-280.5 2162.5,-280.5"/>
<text text-anchor="middle" x="2195.5" y="-287.5" font-family="Helvetica,sans-Serif" font-size="10.00" fill="#000000">thrmask.h</text>
</a>
</g>
</g>
<!-- Node8&#45;&gt;Node63 -->
<g id="edge55" class="edge">
<title>Node8&#45;&gt;Node63</title>
<path fill="none" stroke="#191970" d="M1384.3332,-344.454C1534.5742,-339.3224 2003.3631,-321.928 2153.5,-300 2156.3184,-299.5884 2159.2255,-299.0786 2162.1328,-298.5089"/>
<polygon fill="#191970" stroke="#191970" points="1383.9506,-340.9649 1374.0751,-344.8022 1384.1881,-347.9609 1383.9506,-340.9649"/>
</g>
<!-- Node65 -->
<g id="node47" class="node">
<title>Node65</title>
<g id="a_node47"><a xlink:href="system__info_8h.html" target="_top" xlink:title="ODP system information. ">
<polygon fill="#ffffff" stroke="#000000" points="2246.5,-280.5 2246.5,-299.5 2332.5,-299.5 2332.5,-280.5 2246.5,-280.5"/>
<text text-anchor="middle" x="2289.5" y="-287.5" font-family="Helvetica,sans-Serif" font-size="10.00" fill="#000000">system_info.h</text>
</a>
</g>
</g>
<!-- Node8&#45;&gt;Node65 -->
<g id="edge57" class="edge">
<title>Node8&#45;&gt;Node65</title>
<path fill="none" stroke="#191970" d="M1384.2493,-344.4704C1544.3216,-339.0982 2069.7499,-320.317 2237.5,-300 2240.4205,-299.6463 2243.4233,-299.2248 2246.4424,-298.7579"/>
<polygon fill="#191970" stroke="#191970" points="1384.1191,-340.9727 1374.2416,-344.8047 1384.3529,-347.9688 1384.1191,-340.9727"/>
</g>
<!-- Node66 -->
<g id="node48" class="node">
<title>Node66</title>
<g id="a_node48"><a xlink:href="time_8h.html" target="_top" xlink:title="ODP time. ">
<polygon fill="#ffffff" stroke="#ff0000" points="1339.5,-280.5 1339.5,-299.5 1387.5,-299.5 1387.5,-280.5 1339.5,-280.5"/>
<text text-anchor="middle" x="1363.5" y="-287.5" font-family="Helvetica,sans-Serif" font-size="10.00" fill="#000000">time.h</text>
</a>
</g>
</g>
<!-- Node8&#45;&gt;Node66 -->
<g id="edge58" class="edge">
<title>Node8&#45;&gt;Node66</title>
<path fill="none" stroke="#191970" d="M1346.3011,-327.0437C1350.5775,-317.8331 1355.533,-307.1598 1359.023,-299.6427"/>
<polygon fill="#191970" stroke="#191970" points="1343.0655,-325.7015 1342.0289,-336.2455 1349.4146,-328.6494 1343.0655,-325.7015"/>
</g>
<!-- Node68 -->
<g id="node49" class="node">
<title>Node68</title>
<g id="a_node49"><a xlink:href="timer_8h.html" target="_top" xlink:title="ODP timer service. ">
<polygon fill="#ffffff" stroke="#000000" points="2351,-280.5 2351,-299.5 2402,-299.5 2402,-280.5 2351,-280.5"/>
<text text-anchor="middle" x="2376.5" y="-287.5" font-family="Helvetica,sans-Serif" font-size="10.00" fill="#000000">timer.h</text>
</a>
</g>
</g>
<!-- Node8&#45;&gt;Node68 -->
<g id="edge60" class="edge">
<title>Node8&#45;&gt;Node68</title>
<path fill="none" stroke="#191970" d="M1384.4591,-345.2956C1556.722,-342.4864 2153.6426,-330.7101 2341.5,-300 2344.4936,-299.5106 2347.5951,-298.8532 2350.6588,-298.1079"/>
<polygon fill="#191970" stroke="#191970" points="1384.1476,-341.8 1374.2052,-345.4603 1384.2601,-348.7991 1384.1476,-341.8"/>
</g>
<!-- Node69 -->
<g id="node50" class="node">
<title>Node69</title>
<g id="a_node50"><a xlink:href="strong__types_8h.html" target="_top" xlink:title="ODP Strong Types. ">
<polygon fill="#ffffff" stroke="#000000" points="2420,-280.5 2420,-299.5 2509,-299.5 2509,-280.5 2420,-280.5"/>
<text text-anchor="middle" x="2464.5" y="-287.5" font-family="Helvetica,sans-Serif" font-size="10.00" fill="#000000">strong_types.h</text>
</a>
</g>
</g>
<!-- Node8&#45;&gt;Node69 -->
<g id="edge61" class="edge">
<title>Node8&#45;&gt;Node69</title>
<path fill="none" stroke="#191970" d="M1384.3573,-344.8904C1563.8868,-340.4998 2208.0167,-323.4312 2411.5,-300 2414.1977,-299.6894 2416.9643,-299.3208 2419.7496,-298.9114"/>
<polygon fill="#191970" stroke="#191970" points="1384.1007,-341.3955 1374.1887,-345.1377 1384.2709,-348.3935 1384.1007,-341.3955"/>
</g>
<!-- Node23 -->
<g id="node17" class="node">
<title>Node23</title>
<g id="a_node17"><a xlink:href="spec_2ipsec_8h.html" target="_top" xlink:title="ODP IPSEC API. ">
<polygon fill="#ffffff" stroke="#ff0000" points="1217,-.5 1217,-19.5 1268,-19.5 1268,-.5 1217,-.5"/>
<text text-anchor="middle" x="1242.5" y="-7.5" font-family="Helvetica,sans-Serif" font-size="10.00" fill="#000000">ipsec.h</text>
</a>
</g>
</g>
<!-- Node22&#45;&gt;Node23 -->
<g id="edge16" class="edge">
<title>Node22&#45;&gt;Node23</title>
<path fill="none" stroke="#191970" d="M1242.5,-46.1575C1242.5,-37.155 1242.5,-26.9199 1242.5,-19.6427"/>
<polygon fill="#191970" stroke="#191970" points="1239.0001,-46.2455 1242.5,-56.2455 1246.0001,-46.2456 1239.0001,-46.2455"/>
</g>
<!-- Node25&#45;&gt;Node23 -->
<g id="edge18" class="edge">
<title>Node25&#45;&gt;Node23</title>
<path fill="none" stroke="#191970" d="M1111.0366,-159.4805C1126.9336,-134.6461 1157.1806,-89.7716 1188.5,-56 1201.2289,-42.2745 1217.8793,-28.6312 1229.3071,-19.8113"/>
<polygon fill="#191970" stroke="#191970" points="1107.8846,-157.9162 1105.4955,-168.2381 1113.8001,-161.6589 1107.8846,-157.9162"/>
</g>
<!-- Node27 -->
<g id="node20" class="node">
<title>Node27</title>
<g id="a_node20"><a xlink:href="spec_2comp_8h.html" target="_top" xlink:title="ODP Compression. ">
<polygon fill="#ffffff" stroke="#ff0000" points="1139,-224.5 1139,-243.5 1192,-243.5 1192,-224.5 1139,-224.5"/>
<text text-anchor="middle" x="1165.5" y="-231.5" font-family="Helvetica,sans-Serif" font-size="10.00" fill="#000000">comp.h</text>
</a>
</g>
</g>
<!-- Node26&#45;&gt;Node27 -->
<g id="edge20" class="edge">
<title>Node26&#45;&gt;Node27</title>
<path fill="none" stroke="#191970" d="M1229.5655,-274.769C1213.9717,-264.8456 1194.099,-252.1994 1180.6528,-243.6427"/>
<polygon fill="#191970" stroke="#191970" points="1227.8559,-277.8296 1238.1716,-280.2455 1231.614,-271.9239 1227.8559,-277.8296"/>
</g>
<!-- Node29 -->
<g id="node21" class="node">
<title>Node29</title>
<g id="a_node21"><a xlink:href="spec_2crypto_8h.html" target="_top" xlink:title="ODP crypto. ">
<polygon fill="#ffffff" stroke="#000000" points="1064.5,-224.5 1064.5,-243.5 1120.5,-243.5 1120.5,-224.5 1064.5,-224.5"/>
<text text-anchor="middle" x="1092.5" y="-231.5" font-family="Helvetica,sans-Serif" font-size="10.00" fill="#000000">crypto.h</text>
</a>
</g>
</g>
<!-- Node26&#45;&gt;Node29 -->
<g id="edge21" class="edge">
<title>Node26&#45;&gt;Node29</title>
<path fill="none" stroke="#191970" d="M1216.2889,-277.057C1186.8241,-266.8084 1146.3459,-252.729 1119.8157,-243.5011"/>
<polygon fill="#191970" stroke="#191970" points="1215.2283,-280.3937 1225.8231,-280.3733 1217.528,-273.7822 1215.2283,-280.3937"/>
</g>
<!-- Node30 -->
<g id="node22" class="node">
<title>Node30</title>
<g id="a_node22"><a xlink:href="spec_2event_8h.html" target="_top" xlink:title="ODP event. ">
<polygon fill="#ffffff" stroke="#ff0000" points="993,-224.5 993,-243.5 1046,-243.5 1046,-224.5 993,-224.5"/>
<text text-anchor="middle" x="1019.5" y="-231.5" font-family="Helvetica,sans-Serif" font-size="10.00" fill="#000000">event.h</text>
</a>
</g>
</g>
<!-- Node26&#45;&gt;Node30 -->
<g id="edge23" class="edge">
<title>Node26&#45;&gt;Node30</title>
<path fill="none" stroke="#191970" d="M1213.8192,-280.877C1160.5248,-268.6093 1070.7198,-247.8799 1055.5,-244 1052.4829,-243.2309 1049.3316,-242.3986 1046.2025,-241.5539"/>
<polygon fill="#191970" stroke="#191970" points="1213.1086,-284.3049 1223.6388,-283.1367 1214.6785,-277.4832 1213.1086,-284.3049"/>
</g>
<!-- Node26&#45;&gt;Node41 -->
<g id="edge24" class="edge">
<title>Node26&#45;&gt;Node41</title>
<path fill="none" stroke="#191970" d="M1253.5,-270.1575C1253.5,-261.155 1253.5,-250.9199 1253.5,-243.6427"/>
<polygon fill="#191970" stroke="#191970" points="1250.0001,-270.2455 1253.5,-280.2455 1257.0001,-270.2456 1250.0001,-270.2455"/>
</g>
<!-- Node34 -->
<g id="node25" class="node">
<title>Node34</title>
<g id="a_node25"><a xlink:href="spec_2packet__io_8h.html" target="_top" xlink:title="ODP Packet IO. ">
<polygon fill="#ffffff" stroke="#000000" points="1315,-224.5 1315,-243.5 1388,-243.5 1388,-224.5 1315,-224.5"/>
<text text-anchor="middle" x="1351.5" y="-231.5" font-family="Helvetica,sans-Serif" font-size="10.00" fill="#000000">packet_io.h</text>
</a>
</g>
</g>
<!-- Node26&#45;&gt;Node34 -->
<g id="edge26" class="edge">
<title>Node26&#45;&gt;Node34</title>
<path fill="none" stroke="#191970" d="M1279.6686,-275.0465C1297.1058,-265.0824 1319.5111,-252.2794 1334.6253,-243.6427"/>
<polygon fill="#191970" stroke="#191970" points="1277.5162,-272.2453 1270.5703,-280.2455 1280.9892,-278.323 1277.5162,-272.2453"/>
</g>
<!-- Node29&#45;&gt;Node25 -->
<g id="edge22" class="edge">
<title>Node29&#45;&gt;Node25</title>
<path fill="none" stroke="#191970" d="M1094.9803,-214.1575C1096.1056,-205.155 1097.385,-194.9199 1098.2947,-187.6427"/>
<polygon fill="#191970" stroke="#191970" points="1091.4868,-213.8886 1093.7193,-224.2455 1098.4327,-214.7569 1091.4868,-213.8886"/>
</g>
<!-- Node42 -->
<g id="node24" class="node">
<title>Node42</title>
<g id="a_node24"><a xlink:href="packet__flags_8h.html" target="_top" xlink:title="ODP packet flags. ">
<polygon fill="#ffffff" stroke="#000000" points="1210,-168.5 1210,-187.5 1297,-187.5 1297,-168.5 1210,-168.5"/>
<text text-anchor="middle" x="1253.5" y="-175.5" font-family="Helvetica,sans-Serif" font-size="10.00" fill="#000000">packet_flags.h</text>
</a>
</g>
</g>
<!-- Node41&#45;&gt;Node42 -->
<g id="edge25" class="edge">
<title>Node41&#45;&gt;Node42</title>
<path fill="none" stroke="#191970" d="M1253.5,-214.1575C1253.5,-205.155 1253.5,-194.9199 1253.5,-187.6427"/>
<polygon fill="#191970" stroke="#191970" points="1250.0001,-214.2455 1253.5,-224.2455 1257.0001,-214.2456 1250.0001,-214.2455"/>
</g>
<!-- Node34&#45;&gt;Node35 -->
<g id="edge27" class="edge">
<title>Node34&#45;&gt;Node35</title>
<path fill="none" stroke="#191970" d="M1351.5,-214.1575C1351.5,-205.155 1351.5,-194.9199 1351.5,-187.6427"/>
<polygon fill="#191970" stroke="#191970" points="1348.0001,-214.2455 1351.5,-224.2455 1355.0001,-214.2456 1348.0001,-214.2455"/>
</g>
<!-- Node35&#45;&gt;Node23 -->
<g id="edge30" class="edge">
<title>Node35&#45;&gt;Node23</title>
<path fill="none" stroke="#191970" d="M1345.4615,-158.5505C1336.9934,-133.2612 1319.8502,-88.4902 1295.5,-56 1284.5397,-41.3757 1268.2274,-28.0964 1256.5979,-19.6068"/>
<polygon fill="#191970" stroke="#191970" points="1342.238,-159.9575 1348.6462,-168.3947 1348.8982,-157.8029 1342.238,-159.9575"/>
</g>
<!-- Node36 -->
<g id="node27" class="node">
<title>Node36</title>
<g id="a_node27"><a xlink:href="spec_2classification_8h.html" target="_top" xlink:title="ODP classification descriptor. ">
<polygon fill="#ffffff" stroke="#000000" points="1202,-112.5 1202,-131.5 1291,-131.5 1291,-112.5 1202,-112.5"/>
<text text-anchor="middle" x="1246.5" y="-119.5" font-family="Helvetica,sans-Serif" font-size="10.00" fill="#000000">classification.h</text>
</a>
</g>
</g>
<!-- Node35&#45;&gt;Node36 -->
<g id="edge28" class="edge">
<title>Node35&#45;&gt;Node36</title>
<path fill="none" stroke="#191970" d="M1324.2375,-163.46C1305.4478,-153.4388 1280.9987,-140.3993 1264.58,-131.6427"/>
<polygon fill="#191970" stroke="#191970" points="1322.7398,-166.6278 1333.2104,-168.2455 1326.0339,-160.4514 1322.7398,-166.6278"/>
</g>
<!-- Node35&#45;&gt;Node37 -->
<g id="edge31" class="edge">
<title>Node35&#45;&gt;Node37</title>
<path fill="none" stroke="#191970" d="M1384.2399,-164.5189C1409.0083,-154.3201 1442.405,-140.5685 1464.4258,-131.5011"/>
<polygon fill="#191970" stroke="#191970" points="1382.7934,-161.3293 1374.8792,-168.3733 1385.4587,-167.8021 1382.7934,-161.3293"/>
</g>
<!-- Node36&#45;&gt;Node22 -->
<g id="edge29" class="edge">
<title>Node36&#45;&gt;Node22</title>
<path fill="none" stroke="#191970" d="M1245.0827,-102.1575C1244.4396,-93.155 1243.7086,-82.9199 1243.1888,-75.6427"/>
<polygon fill="#191970" stroke="#191970" points="1241.5996,-102.5204 1245.8033,-112.2455 1248.5818,-102.0216 1241.5996,-102.5204"/>
</g>
<!-- Node33&#45;&gt;Node25 -->
<g id="edge34" class="edge">
<title>Node33&#45;&gt;Node25</title>
<path fill="none" stroke="#191970" d="M1427.8143,-270.5519C1422.3254,-255.3782 1412.4577,-235.0762 1396.5,-224 1374.5323,-208.7523 1197.2958,-188.4272 1127.55,-180.9341"/>
<polygon fill="#191970" stroke="#191970" points="1424.4914,-271.6515 1430.9357,-280.0611 1431.1423,-269.4683 1424.4914,-271.6515"/>
</g>
<!-- Node33&#45;&gt;Node34 -->
<g id="edge35" class="edge">
<title>Node33&#45;&gt;Node34</title>
<path fill="none" stroke="#191970" d="M1410.789,-274.49C1396.3212,-264.6096 1378.032,-252.1194 1365.6196,-243.6427"/>
<polygon fill="#191970" stroke="#191970" points="1408.9848,-277.4962 1419.2167,-280.2455 1412.9325,-271.7156 1408.9848,-277.4962"/>
</g>
<!-- Node33&#45;&gt;Node39 -->
<g id="edge36" class="edge">
<title>Node33&#45;&gt;Node39</title>
<path fill="none" stroke="#191970" d="M1447.8747,-272.5004C1455.6971,-262.9775 1465.076,-251.5596 1471.5792,-243.6427"/>
<polygon fill="#191970" stroke="#191970" points="1445.1555,-270.2967 1441.5126,-280.2455 1450.5646,-274.7399 1445.1555,-270.2967"/>
</g>
<!-- Node40 -->
<g id="node31" class="node">
<title>Node40</title>
<g id="a_node31"><a xlink:href="schedule_8h.html" target="_top" xlink:title="ODP schedule. ">
<polygon fill="#ffffff" stroke="#000000" points="1445,-168.5 1445,-187.5 1514,-187.5 1514,-168.5 1445,-168.5"/>
<text text-anchor="middle" x="1479.5" y="-175.5" font-family="Helvetica,sans-Serif" font-size="10.00" fill="#000000">schedule.h</text>
</a>
</g>
</g>
<!-- Node39&#45;&gt;Node40 -->
<g id="edge37" class="edge">
<title>Node39&#45;&gt;Node40</title>
<path fill="none" stroke="#191970" d="M1479.5,-214.1575C1479.5,-205.155 1479.5,-194.9199 1479.5,-187.6427"/>
<polygon fill="#191970" stroke="#191970" points="1476.0001,-214.2455 1479.5,-224.2455 1483.0001,-214.2456 1476.0001,-214.2455"/>
</g>
<!-- Node44 -->
<g id="node33" class="node">
<title>Node44</title>
<g id="a_node33"><a xlink:href="chksum_8h.html" target="_top" xlink:title="ODP checksum functions. ">
<polygon fill="#ffffff" stroke="#000000" points="1608.5,-224.5 1608.5,-243.5 1672.5,-243.5 1672.5,-224.5 1608.5,-224.5"/>
<text text-anchor="middle" x="1640.5" y="-231.5" font-family="Helvetica,sans-Serif" font-size="10.00" fill="#000000">chksum.h</text>
</a>
</g>
</g>
<!-- Node43&#45;&gt;Node44 -->
<g id="edge39" class="edge">
<title>Node43&#45;&gt;Node44</title>
<path fill="none" stroke="#191970" d="M1640.5,-270.1575C1640.5,-261.155 1640.5,-250.9199 1640.5,-243.6427"/>
<polygon fill="#191970" stroke="#191970" points="1637.0001,-270.2455 1640.5,-280.2455 1644.0001,-270.2456 1637.0001,-270.2455"/>
</g>
<!-- Node46 -->
<g id="node35" class="node">
<title>Node46</title>
<g id="a_node35"><a xlink:href="cpu_8h.html" target="_top" xlink:title="ODP CPU. ">
<polygon fill="#ffffff" stroke="#ff0000" points="1691,-224.5 1691,-243.5 1734,-243.5 1734,-224.5 1691,-224.5"/>
<text text-anchor="middle" x="1712.5" y="-231.5" font-family="Helvetica,sans-Serif" font-size="10.00" fill="#000000">cpu.h</text>
</a>
</g>
</g>
<!-- Node45&#45;&gt;Node46 -->
<g id="edge41" class="edge">
<title>Node45&#45;&gt;Node46</title>
<path fill="none" stroke="#191970" d="M1712.5,-270.1575C1712.5,-261.155 1712.5,-250.9199 1712.5,-243.6427"/>
<polygon fill="#191970" stroke="#191970" points="1709.0001,-270.2455 1712.5,-280.2455 1716.0001,-270.2456 1709.0001,-270.2455"/>
</g>
<!-- Node49 -->
<g id="node37" class="node">
<title>Node49</title>
<g id="a_node37"><a xlink:href="feature_8h.html" target="_top" xlink:title="ODP features. ">
<polygon fill="#ffffff" stroke="#000000" points="1752,-224.5 1752,-243.5 1813,-243.5 1813,-224.5 1752,-224.5"/>
<text text-anchor="middle" x="1782.5" y="-231.5" font-family="Helvetica,sans-Serif" font-size="10.00" fill="#000000">feature.h</text>
</a>
</g>
</g>
<!-- Node48&#45;&gt;Node49 -->
<g id="edge43" class="edge">
<title>Node48&#45;&gt;Node49</title>
<path fill="none" stroke="#191970" d="M1782.5,-270.1575C1782.5,-261.155 1782.5,-250.9199 1782.5,-243.6427"/>
<polygon fill="#191970" stroke="#191970" points="1779.0001,-270.2455 1782.5,-280.2455 1786.0001,-270.2456 1779.0001,-270.2455"/>
</g>
<!-- Node49&#45;&gt;Node50 -->
<g id="edge44" class="edge">
<title>Node49&#45;&gt;Node50</title>
<path fill="none" stroke="#191970" d="M1792.1647,-215.3372C1796.9687,-206.0605 1802.5723,-195.2398 1806.5065,-187.6427"/>
<polygon fill="#191970" stroke="#191970" points="1789.042,-213.7561 1787.5514,-224.2455 1795.258,-216.9751 1789.042,-213.7561"/>
</g>
<!-- Node51 -->
<g id="node39" class="node">
<title>Node51</title>
<g id="a_node39"><a xlink:href="init_8h.html" target="_top" xlink:title="ODP initialization. ">
<polygon fill="#ffffff" stroke="#ff0000" points="1791,-112.5 1791,-131.5 1832,-131.5 1832,-112.5 1791,-112.5"/>
<text text-anchor="middle" x="1811.5" y="-119.5" font-family="Helvetica,sans-Serif" font-size="10.00" fill="#000000">init.h</text>
</a>
</g>
</g>
<!-- Node50&#45;&gt;Node51 -->
<g id="edge45" class="edge">
<title>Node50&#45;&gt;Node51</title>
<path fill="none" stroke="#191970" d="M1811.5,-158.1575C1811.5,-149.155 1811.5,-138.9199 1811.5,-131.6427"/>
<polygon fill="#191970" stroke="#191970" points="1808.0001,-158.2455 1811.5,-168.2455 1815.0001,-158.2456 1808.0001,-158.2455"/>
</g>
<!-- Node55 -->
<g id="node41" class="node">
<title>Node55</title>
<g id="a_node41"><a xlink:href="hash_8h.html" target="_top" xlink:title="ODP Hash function. ">
<polygon fill="#ffffff" stroke="#000000" points="1870,-224.5 1870,-243.5 1919,-243.5 1919,-224.5 1870,-224.5"/>
<text text-anchor="middle" x="1894.5" y="-231.5" font-family="Helvetica,sans-Serif" font-size="10.00" fill="#000000">hash.h</text>
</a>
</g>
</g>
<!-- Node54&#45;&gt;Node55 -->
<g id="edge47" class="edge">
<title>Node54&#45;&gt;Node55</title>
<path fill="none" stroke="#191970" d="M1894.5,-270.1575C1894.5,-261.155 1894.5,-250.9199 1894.5,-243.6427"/>
<polygon fill="#191970" stroke="#191970" points="1891.0001,-270.2455 1894.5,-280.2455 1898.0001,-270.2456 1891.0001,-270.2455"/>
</g>
<!-- Node57 -->
<g id="node43" class="node">
<title>Node57</title>
<g id="a_node43"><a xlink:href="pool_8h.html" target="_top" xlink:title="ODP pool. ">
<polygon fill="#ffffff" stroke="#ff0000" points="1937,-224.5 1937,-243.5 1984,-243.5 1984,-224.5 1937,-224.5"/>
<text text-anchor="middle" x="1960.5" y="-231.5" font-family="Helvetica,sans-Serif" font-size="10.00" fill="#000000">pool.h</text>
</a>
</g>
</g>
<!-- Node56&#45;&gt;Node57 -->
<g id="edge51" class="edge">
<title>Node56&#45;&gt;Node57</title>
<path fill="none" stroke="#191970" d="M1960.5,-270.1575C1960.5,-261.155 1960.5,-250.9199 1960.5,-243.6427"/>
<polygon fill="#191970" stroke="#191970" points="1957.0001,-270.2455 1960.5,-280.2455 1964.0001,-270.2456 1957.0001,-270.2455"/>
</g>
<!-- Node66&#45;&gt;Node34 -->
<g id="edge59" class="edge">
<title>Node66&#45;&gt;Node34</title>
<path fill="none" stroke="#191970" d="M1359.3115,-270.4538C1357.3672,-261.3803 1355.1428,-250.9998 1353.5663,-243.6427"/>
<polygon fill="#191970" stroke="#191970" points="1355.8921,-271.2009 1361.4098,-280.2455 1362.7367,-269.7341 1355.8921,-271.2009"/>
</g>
</g>
</svg>
