<?xml version="1.0" encoding="UTF-8" standalone="no"?>
<!DOCTYPE svg PUBLIC "-//W3C//DTD SVG 1.1//EN"
 "http://www.w3.org/Graphics/SVG/1.1/DTD/svg11.dtd">
<!-- Generated by graphviz version 2.40.1 (20161225.0304)
 -->
<!-- Title: time.h Pages: 1 -->
<svg width="466pt" height="756pt"
 viewBox="0.00 0.00 465.50 756.00" xmlns="http://www.w3.org/2000/svg" xmlns:xlink="http://www.w3.org/1999/xlink">
<g id="graph0" class="graph" transform="scale(1 1) rotate(0) translate(4 752)">
<title>time.h</title>
<polygon fill="#ffffff" stroke="transparent" points="-4,4 -4,-752 461.5,-752 461.5,4 -4,4"/>
<!-- Node3 -->
<g id="node1" class="node">
<title>Node3</title>
<polygon fill="#bfbfbf" stroke="#000000" points="309.5,-728.5 309.5,-747.5 357.5,-747.5 357.5,-728.5 309.5,-728.5"/>
<text text-anchor="middle" x="333.5" y="-735.5" font-family="Helvetica,sans-Serif" font-size="10.00" fill="#000000">time.h</text>
</g>
<!-- Node4 -->
<g id="node2" class="node">
<title>Node4</title>
<g id="a_node2"><a xlink:href="time_8h.html" target="_top" xlink:title="ODP time. ">
<polygon fill="#ffffff" stroke="#000000" points="309.5,-672.5 309.5,-691.5 357.5,-691.5 357.5,-672.5 309.5,-672.5"/>
<text text-anchor="middle" x="333.5" y="-679.5" font-family="Helvetica,sans-Serif" font-size="10.00" fill="#000000">time.h</text>
</a>
</g>
</g>
<!-- Node3&#45;&gt;Node4 -->
<g id="edge1" class="edge">
<title>Node3&#45;&gt;Node4</title>
<path fill="none" stroke="#191970" d="M333.5,-718.1575C333.5,-709.155 333.5,-698.9199 333.5,-691.6427"/>
<polygon fill="#191970" stroke="#191970" points="330.0001,-718.2455 333.5,-728.2455 337.0001,-718.2456 330.0001,-718.2455"/>
</g>
<!-- Node5 -->
<g id="node3" class="node">
<title>Node5</title>
<g id="a_node3"><a xlink:href="spec_2packet_8h.html" target="_top" xlink:title="ODP packet descriptor. ">
<polygon fill="#ffffff" stroke="#000000" points="237,-616.5 237,-635.5 296,-635.5 296,-616.5 237,-616.5"/>
<text text-anchor="middle" x="266.5" y="-623.5" font-family="Helvetica,sans-Serif" font-size="10.00" fill="#000000">packet.h</text>
</a>
</g>
</g>
<!-- Node4&#45;&gt;Node5 -->
<g id="edge2" class="edge">
<title>Node4&#45;&gt;Node5</title>
<path fill="none" stroke="#191970" d="M313.9324,-665.645C302.2802,-655.9058 287.8916,-643.8795 278.0368,-635.6427"/>
<polygon fill="#191970" stroke="#191970" points="311.9121,-668.5179 321.8295,-672.2455 316.4012,-663.1469 311.9121,-668.5179"/>
</g>
<!-- Node17 -->
<g id="node15" class="node">
<title>Node17</title>
<g id="a_node15"><a xlink:href="spec_2packet__io_8h.html" target="_top" xlink:title="ODP Packet IO. ">
<polygon fill="#ffffff" stroke="#000000" points="259,-280.5 259,-299.5 332,-299.5 332,-280.5 259,-280.5"/>
<text text-anchor="middle" x="295.5" y="-287.5" font-family="Helvetica,sans-Serif" font-size="10.00" fill="#000000">packet_io.h</text>
</a>
</g>
</g>
<!-- Node4&#45;&gt;Node17 -->
<g id="edge30" class="edge">
<title>Node4&#45;&gt;Node17</title>
<path fill="none" stroke="#191970" d="M333.5,-662.1952C333.5,-639.8128 333.5,-602.2884 333.5,-570 333.5,-570 333.5,-570 333.5,-402 333.5,-362.1657 311.6774,-318.3859 301.107,-299.5166"/>
<polygon fill="#191970" stroke="#191970" points="330.0001,-662.4116 333.5,-672.4116 337.0001,-662.4117 330.0001,-662.4116"/>
</g>
<!-- Node27 -->
<g id="node25" class="node">
<title>Node27</title>
<g id="a_node25"><a xlink:href="packet__inlines_8h.html" target="_top" xlink:title="Packet inline functions. ">
<polygon fill="#ffffff" stroke="#000000" points="361.5,-616.5 361.5,-635.5 457.5,-635.5 457.5,-616.5 361.5,-616.5"/>
<text text-anchor="middle" x="409.5" y="-623.5" font-family="Helvetica,sans-Serif" font-size="10.00" fill="#000000">packet_inlines.h</text>
</a>
</g>
</g>
<!-- Node4&#45;&gt;Node27 -->
<g id="edge31" class="edge">
<title>Node4&#45;&gt;Node27</title>
<path fill="none" stroke="#191970" d="M354.9297,-666.2097C368.2777,-656.3743 385.0179,-644.0394 396.4135,-635.6427"/>
<polygon fill="#191970" stroke="#191970" points="352.7126,-663.4958 346.7382,-672.2455 356.865,-669.1312 352.7126,-663.4958"/>
</g>
<!-- Node6 -->
<g id="node4" class="node">
<title>Node6</title>
<g id="a_node4"><a xlink:href="packet_8h.html" target="_top" xlink:title="ODP packet descriptor. ">
<polygon fill="#ffffff" stroke="#000000" points="192,-560.5 192,-579.5 251,-579.5 251,-560.5 192,-560.5"/>
<text text-anchor="middle" x="221.5" y="-567.5" font-family="Helvetica,sans-Serif" font-size="10.00" fill="#000000">packet.h</text>
</a>
</g>
</g>
<!-- Node5&#45;&gt;Node6 -->
<g id="edge3" class="edge">
<title>Node5&#45;&gt;Node6</title>
<path fill="none" stroke="#191970" d="M252.2054,-608.2112C244.6004,-598.7472 235.5462,-587.4797 229.2486,-579.6427"/>
<polygon fill="#191970" stroke="#191970" points="249.6694,-610.6428 258.6616,-616.2455 255.1259,-606.2581 249.6694,-610.6428"/>
</g>
<!-- Node7 -->
<g id="node5" class="node">
<title>Node7</title>
<g id="a_node5"><a xlink:href="spec_2comp_8h.html" target="_top" xlink:title="ODP Compression. ">
<polygon fill="#ffffff" stroke="#000000" points="71,-504.5 71,-523.5 124,-523.5 124,-504.5 71,-504.5"/>
<text text-anchor="middle" x="97.5" y="-511.5" font-family="Helvetica,sans-Serif" font-size="10.00" fill="#000000">comp.h</text>
</a>
</g>
</g>
<!-- Node6&#45;&gt;Node7 -->
<g id="edge4" class="edge">
<title>Node6&#45;&gt;Node7</title>
<path fill="none" stroke="#191970" d="M191.0476,-556.2473C168.5278,-546.0771 138.4383,-532.4883 118.5382,-523.5011"/>
<polygon fill="#191970" stroke="#191970" points="189.6294,-559.4471 200.1836,-560.3733 192.5105,-553.0675 189.6294,-559.4471"/>
</g>
<!-- Node9 -->
<g id="node7" class="node">
<title>Node9</title>
<g id="a_node7"><a xlink:href="spec_2crypto_8h.html" target="_top" xlink:title="ODP crypto. ">
<polygon fill="#ffffff" stroke="#000000" points="192.5,-392.5 192.5,-411.5 248.5,-411.5 248.5,-392.5 192.5,-392.5"/>
<text text-anchor="middle" x="220.5" y="-399.5" font-family="Helvetica,sans-Serif" font-size="10.00" fill="#000000">crypto.h</text>
</a>
</g>
</g>
<!-- Node6&#45;&gt;Node9 -->
<g id="edge6" class="edge">
<title>Node6&#45;&gt;Node9</title>
<path fill="none" stroke="#191970" d="M230.2003,-551.1065C233.4995,-542.953 236.8557,-533.1929 238.5,-524 244.4475,-490.7499 244.7629,-481.1921 238.5,-448 236.0195,-434.8538 229.878,-420.648 225.4585,-411.5556"/>
<polygon fill="#191970" stroke="#191970" points="226.9335,-549.8431 226.1849,-560.4115 233.3606,-552.6167 226.9335,-549.8431"/>
</g>
<!-- Node13 -->
<g id="node11" class="node">
<title>Node13</title>
<g id="a_node11"><a xlink:href="spec_2event_8h.html" target="_top" xlink:title="ODP event. ">
<polygon fill="#ffffff" stroke="#000000" points="0,-504.5 0,-523.5 53,-523.5 53,-504.5 0,-504.5"/>
<text text-anchor="middle" x="26.5" y="-511.5" font-family="Helvetica,sans-Serif" font-size="10.00" fill="#000000">event.h</text>
</a>
</g>
</g>
<!-- Node6&#45;&gt;Node13 -->
<g id="edge10" class="edge">
<title>Node6&#45;&gt;Node13</title>
<path fill="none" stroke="#191970" d="M182.0892,-558.682C143.7556,-547.6734 86.5679,-531.2503 53.2528,-521.6829"/>
<polygon fill="#191970" stroke="#191970" points="181.3061,-562.0985 191.8837,-561.4948 183.2383,-555.3705 181.3061,-562.0985"/>
</g>
<!-- Node6&#45;&gt;Node17 -->
<g id="edge29" class="edge">
<title>Node6&#45;&gt;Node17</title>
<path fill="none" stroke="#191970" d="M241.2456,-553.7103C263.1668,-533.6742 295.5,-497.437 295.5,-458 295.5,-458 295.5,-458 295.5,-402 295.5,-364.0833 295.5,-318.9462 295.5,-299.5884"/>
<polygon fill="#191970" stroke="#191970" points="238.9133,-551.1005 233.7196,-560.335 243.5384,-556.3549 238.9133,-551.1005"/>
</g>
<!-- Node25 -->
<g id="node23" class="node">
<title>Node25</title>
<g id="a_node23"><a xlink:href="spec_2packet__flags_8h.html" target="_top" xlink:title="ODP packet flags. ">
<polygon fill="#ffffff" stroke="#000000" points="142,-504.5 142,-523.5 229,-523.5 229,-504.5 142,-504.5"/>
<text text-anchor="middle" x="185.5" y="-511.5" font-family="Helvetica,sans-Serif" font-size="10.00" fill="#000000">packet_flags.h</text>
</a>
</g>
</g>
<!-- Node6&#45;&gt;Node25 -->
<g id="edge27" class="edge">
<title>Node6&#45;&gt;Node25</title>
<path fill="none" stroke="#191970" d="M209.6904,-551.6296C203.6856,-542.2887 196.6341,-531.3197 191.6989,-523.6427"/>
<polygon fill="#191970" stroke="#191970" points="206.8775,-553.7264 215.2293,-560.2455 212.7658,-549.9411 206.8775,-553.7264"/>
</g>
<!-- Node8 -->
<g id="node6" class="node">
<title>Node8</title>
<g id="a_node6"><a xlink:href="comp_8h.html" target="_top" xlink:title="ODP crypto. ">
<polygon fill="#ffffff" stroke="#000000" points="71,-448.5 71,-467.5 124,-467.5 124,-448.5 71,-448.5"/>
<text text-anchor="middle" x="97.5" y="-455.5" font-family="Helvetica,sans-Serif" font-size="10.00" fill="#000000">comp.h</text>
</a>
</g>
</g>
<!-- Node7&#45;&gt;Node8 -->
<g id="edge5" class="edge">
<title>Node7&#45;&gt;Node8</title>
<path fill="none" stroke="#191970" d="M97.5,-494.1575C97.5,-485.155 97.5,-474.9199 97.5,-467.6427"/>
<polygon fill="#191970" stroke="#191970" points="94.0001,-494.2455 97.5,-504.2455 101.0001,-494.2456 94.0001,-494.2455"/>
</g>
<!-- Node10 -->
<g id="node8" class="node">
<title>Node10</title>
<g id="a_node8"><a xlink:href="crypto_8h.html" target="_top" xlink:title="ODP crypto. ">
<polygon fill="#ffffff" stroke="#000000" points="127.5,-280.5 127.5,-299.5 183.5,-299.5 183.5,-280.5 127.5,-280.5"/>
<text text-anchor="middle" x="155.5" y="-287.5" font-family="Helvetica,sans-Serif" font-size="10.00" fill="#000000">crypto.h</text>
</a>
</g>
</g>
<!-- Node9&#45;&gt;Node10 -->
<g id="edge7" class="edge">
<title>Node9&#45;&gt;Node10</title>
<path fill="none" stroke="#191970" d="M209.8053,-383.5723C195.8127,-359.4618 171.8096,-318.1028 161.0278,-299.5249"/>
<polygon fill="#191970" stroke="#191970" points="206.9115,-385.5588 214.9581,-392.4509 212.9657,-382.0451 206.9115,-385.5588"/>
</g>
<!-- Node11 -->
<g id="node9" class="node">
<title>Node11</title>
<g id="a_node9"><a xlink:href="spec_2ipsec_8h.html" target="_top" xlink:title="ODP IPSEC API. ">
<polygon fill="#ffffff" stroke="#000000" points="235,-56.5 235,-75.5 286,-75.5 286,-56.5 235,-56.5"/>
<text text-anchor="middle" x="260.5" y="-63.5" font-family="Helvetica,sans-Serif" font-size="10.00" fill="#000000">ipsec.h</text>
</a>
</g>
</g>
<!-- Node10&#45;&gt;Node11 -->
<g id="edge8" class="edge">
<title>Node10&#45;&gt;Node11</title>
<path fill="none" stroke="#191970" d="M152.0888,-270.5892C147.0421,-235.6077 141.4327,-161.0694 174.5,-112 188.5043,-91.2186 215.0598,-79.0912 234.9735,-72.5573"/>
<polygon fill="#191970" stroke="#191970" points="148.6334,-271.1467 153.6579,-280.4744 155.5469,-270.0493 148.6334,-271.1467"/>
</g>
<!-- Node12 -->
<g id="node10" class="node">
<title>Node12</title>
<g id="a_node10"><a xlink:href="ipsec_8h.html" target="_top" xlink:title="ODP IPSEC API &#45; platform specific header. ">
<polygon fill="#ffffff" stroke="#000000" points="235,-.5 235,-19.5 286,-19.5 286,-.5 235,-.5"/>
<text text-anchor="middle" x="260.5" y="-7.5" font-family="Helvetica,sans-Serif" font-size="10.00" fill="#000000">ipsec.h</text>
</a>
</g>
</g>
<!-- Node11&#45;&gt;Node12 -->
<g id="edge9" class="edge">
<title>Node11&#45;&gt;Node12</title>
<path fill="none" stroke="#191970" d="M260.5,-46.1575C260.5,-37.155 260.5,-26.9199 260.5,-19.6427"/>
<polygon fill="#191970" stroke="#191970" points="257.0001,-46.2455 260.5,-56.2455 264.0001,-46.2456 257.0001,-46.2455"/>
</g>
<!-- Node14 -->
<g id="node12" class="node">
<title>Node14</title>
<g id="a_node12"><a xlink:href="event_8h.html" target="_top" xlink:title="ODP event. ">
<polygon fill="#ffffff" stroke="#000000" points="0,-448.5 0,-467.5 53,-467.5 53,-448.5 0,-448.5"/>
<text text-anchor="middle" x="26.5" y="-455.5" font-family="Helvetica,sans-Serif" font-size="10.00" fill="#000000">event.h</text>
</a>
</g>
</g>
<!-- Node13&#45;&gt;Node14 -->
<g id="edge11" class="edge">
<title>Node13&#45;&gt;Node14</title>
<path fill="none" stroke="#191970" d="M26.5,-494.1575C26.5,-485.155 26.5,-474.9199 26.5,-467.6427"/>
<polygon fill="#191970" stroke="#191970" points="23.0001,-494.2455 26.5,-504.2455 30.0001,-494.2456 23.0001,-494.2455"/>
</g>
<!-- Node15 -->
<g id="node13" class="node">
<title>Node15</title>
<g id="a_node13"><a xlink:href="spec_2queue_8h.html" target="_top" xlink:title="ODP queue. ">
<polygon fill="#ffffff" stroke="#000000" points="91.5,-392.5 91.5,-411.5 147.5,-411.5 147.5,-392.5 91.5,-392.5"/>
<text text-anchor="middle" x="119.5" y="-399.5" font-family="Helvetica,sans-Serif" font-size="10.00" fill="#000000">queue.h</text>
</a>
</g>
</g>
<!-- Node14&#45;&gt;Node15 -->
<g id="edge12" class="edge">
<title>Node14&#45;&gt;Node15</title>
<path fill="none" stroke="#191970" d="M51.3335,-443.0465C67.8811,-433.0824 89.1432,-420.2794 103.4863,-411.6427"/>
<polygon fill="#191970" stroke="#191970" points="49.4607,-440.0886 42.6994,-448.2455 53.0717,-446.0854 49.4607,-440.0886"/>
</g>
<!-- Node23 -->
<g id="node21" class="node">
<title>Node23</title>
<g id="a_node21"><a xlink:href="spec_2schedule_8h.html" target="_top" xlink:title="ODP schedule. ">
<polygon fill="#ffffff" stroke="#000000" points="16,-280.5 16,-299.5 85,-299.5 85,-280.5 16,-280.5"/>
<text text-anchor="middle" x="50.5" y="-287.5" font-family="Helvetica,sans-Serif" font-size="10.00" fill="#000000">schedule.h</text>
</a>
</g>
</g>
<!-- Node14&#45;&gt;Node23 -->
<g id="edge26" class="edge">
<title>Node14&#45;&gt;Node23</title>
<path fill="none" stroke="#191970" d="M29.32,-438.2601C34.4762,-402.1669 45.2478,-326.7656 49.096,-299.8279"/>
<polygon fill="#191970" stroke="#191970" points="25.8086,-438.0917 27.8591,-448.4862 32.7382,-439.0817 25.8086,-438.0917"/>
</g>
<!-- Node16 -->
<g id="node14" class="node">
<title>Node16</title>
<g id="a_node14"><a xlink:href="queue_8h.html" target="_top" xlink:title="ODP queue. ">
<polygon fill="#ffffff" stroke="#000000" points="103.5,-336.5 103.5,-355.5 159.5,-355.5 159.5,-336.5 103.5,-336.5"/>
<text text-anchor="middle" x="131.5" y="-343.5" font-family="Helvetica,sans-Serif" font-size="10.00" fill="#000000">queue.h</text>
</a>
</g>
</g>
<!-- Node15&#45;&gt;Node16 -->
<g id="edge13" class="edge">
<title>Node15&#45;&gt;Node16</title>
<path fill="none" stroke="#191970" d="M123.6885,-382.4538C125.6328,-373.3803 127.8572,-362.9998 129.4337,-355.6427"/>
<polygon fill="#191970" stroke="#191970" points="120.2633,-381.7341 121.5902,-392.2455 127.1079,-383.2009 120.2633,-381.7341"/>
</g>
<!-- Node16&#45;&gt;Node10 -->
<g id="edge14" class="edge">
<title>Node16&#45;&gt;Node10</title>
<path fill="none" stroke="#191970" d="M139.6241,-327.0437C143.5715,-317.8331 148.1458,-307.1598 151.3674,-299.6427"/>
<polygon fill="#191970" stroke="#191970" points="136.4027,-325.6753 135.6805,-336.2455 142.8367,-328.4328 136.4027,-325.6753"/>
</g>
<!-- Node16&#45;&gt;Node17 -->
<g id="edge15" class="edge">
<title>Node16&#45;&gt;Node17</title>
<path fill="none" stroke="#191970" d="M169.4044,-333.057C199.4184,-322.8084 240.6507,-308.729 267.6753,-299.5011"/>
<polygon fill="#191970" stroke="#191970" points="168.0251,-329.8295 159.6926,-336.3733 170.2871,-336.454 168.0251,-329.8295"/>
</g>
<!-- Node16&#45;&gt;Node23 -->
<g id="edge24" class="edge">
<title>Node16&#45;&gt;Node23</title>
<path fill="none" stroke="#191970" d="M109.066,-330.49C94.7746,-320.6096 76.7084,-308.1194 64.4474,-299.6427"/>
<polygon fill="#191970" stroke="#191970" points="107.1749,-333.4376 117.3909,-336.2455 111.1557,-327.6797 107.1749,-333.4376"/>
</g>
<!-- Node18 -->
<g id="node16" class="node">
<title>Node18</title>
<g id="a_node16"><a xlink:href="packet__io_8h.html" target="_top" xlink:title="ODP Packet IO. ">
<polygon fill="#ffffff" stroke="#000000" points="259,-224.5 259,-243.5 332,-243.5 332,-224.5 259,-224.5"/>
<text text-anchor="middle" x="295.5" y="-231.5" font-family="Helvetica,sans-Serif" font-size="10.00" fill="#000000">packet_io.h</text>
</a>
</g>
</g>
<!-- Node17&#45;&gt;Node18 -->
<g id="edge16" class="edge">
<title>Node17&#45;&gt;Node18</title>
<path fill="none" stroke="#191970" d="M295.5,-270.1575C295.5,-261.155 295.5,-250.9199 295.5,-243.6427"/>
<polygon fill="#191970" stroke="#191970" points="292.0001,-270.2455 295.5,-280.2455 299.0001,-270.2456 292.0001,-270.2455"/>
</g>
<!-- Node18&#45;&gt;Node11 -->
<g id="edge20" class="edge">
<title>Node18&#45;&gt;Node11</title>
<path fill="none" stroke="#191970" d="M293.5398,-214.3143C290.8681,-190.0161 285.3737,-147.5495 276.5,-112 273.3055,-99.2022 268.0629,-84.9202 264.4545,-75.7151"/>
<polygon fill="#191970" stroke="#191970" points="290.0728,-214.8126 294.599,-224.3919 297.0344,-214.0808 290.0728,-214.8126"/>
</g>
<!-- Node19 -->
<g id="node17" class="node">
<title>Node19</title>
<g id="a_node17"><a xlink:href="spec_2classification_8h.html" target="_top" xlink:title="ODP classification descriptor. ">
<polygon fill="#ffffff" stroke="#000000" points="324,-168.5 324,-187.5 413,-187.5 413,-168.5 324,-168.5"/>
<text text-anchor="middle" x="368.5" y="-175.5" font-family="Helvetica,sans-Serif" font-size="10.00" fill="#000000">classification.h</text>
</a>
</g>
</g>
<!-- Node18&#45;&gt;Node19 -->
<g id="edge17" class="edge">
<title>Node18&#45;&gt;Node19</title>
<path fill="none" stroke="#191970" d="M316.451,-217.928C329.2107,-208.1397 345.0885,-195.9595 355.9301,-187.6427"/>
<polygon fill="#191970" stroke="#191970" points="314.0196,-215.3819 308.2156,-224.2455 318.2803,-220.9359 314.0196,-215.3819"/>
</g>
<!-- Node21 -->
<g id="node19" class="node">
<title>Node21</title>
<g id="a_node19"><a xlink:href="spec_2traffic__mngr_8h.html" target="_top" xlink:title="Copyright (c) 2015&#45;2018, Linaro Limited All rights reserved. ">
<polygon fill="#ffffff" stroke="#000000" points="183.5,-168.5 183.5,-187.5 267.5,-187.5 267.5,-168.5 183.5,-168.5"/>
<text text-anchor="middle" x="225.5" y="-175.5" font-family="Helvetica,sans-Serif" font-size="10.00" fill="#000000">traffic_mngr.h</text>
</a>
</g>
</g>
<!-- Node18&#45;&gt;Node21 -->
<g id="edge21" class="edge">
<title>Node18&#45;&gt;Node21</title>
<path fill="none" stroke="#191970" d="M275.41,-217.928C263.1747,-208.1397 247.9493,-195.9595 237.5533,-187.6427"/>
<polygon fill="#191970" stroke="#191970" points="273.3118,-220.7316 283.3069,-224.2455 277.6847,-215.2655 273.3118,-220.7316"/>
</g>
<!-- Node20 -->
<g id="node18" class="node">
<title>Node20</title>
<g id="a_node18"><a xlink:href="classification_8h.html" target="_top" xlink:title="ODP classification descriptor. ">
<polygon fill="#ffffff" stroke="#000000" points="324,-112.5 324,-131.5 413,-131.5 413,-112.5 324,-112.5"/>
<text text-anchor="middle" x="368.5" y="-119.5" font-family="Helvetica,sans-Serif" font-size="10.00" fill="#000000">classification.h</text>
</a>
</g>
</g>
<!-- Node19&#45;&gt;Node20 -->
<g id="edge18" class="edge">
<title>Node19&#45;&gt;Node20</title>
<path fill="none" stroke="#191970" d="M368.5,-158.1575C368.5,-149.155 368.5,-138.9199 368.5,-131.6427"/>
<polygon fill="#191970" stroke="#191970" points="365.0001,-158.2455 368.5,-168.2455 372.0001,-158.2456 365.0001,-158.2455"/>
</g>
<!-- Node20&#45;&gt;Node11 -->
<g id="edge19" class="edge">
<title>Node20&#45;&gt;Node11</title>
<path fill="none" stroke="#191970" d="M340.7229,-107.5971C321.3618,-97.558 296.0615,-84.4393 279.0966,-75.6427"/>
<polygon fill="#191970" stroke="#191970" points="339.1992,-110.7495 349.6878,-112.2455 342.4214,-104.5352 339.1992,-110.7495"/>
</g>
<!-- Node22 -->
<g id="node20" class="node">
<title>Node22</title>
<g id="a_node20"><a xlink:href="traffic__mngr_8h.html" target="_top" xlink:title="ODP Traffic manager. ">
<polygon fill="#ffffff" stroke="#000000" points="183.5,-112.5 183.5,-131.5 267.5,-131.5 267.5,-112.5 183.5,-112.5"/>
<text text-anchor="middle" x="225.5" y="-119.5" font-family="Helvetica,sans-Serif" font-size="10.00" fill="#000000">traffic_mngr.h</text>
</a>
</g>
</g>
<!-- Node21&#45;&gt;Node22 -->
<g id="edge22" class="edge">
<title>Node21&#45;&gt;Node22</title>
<path fill="none" stroke="#191970" d="M225.5,-158.1575C225.5,-149.155 225.5,-138.9199 225.5,-131.6427"/>
<polygon fill="#191970" stroke="#191970" points="222.0001,-158.2455 225.5,-168.2455 229.0001,-158.2456 222.0001,-158.2455"/>
</g>
<!-- Node22&#45;&gt;Node11 -->
<g id="edge23" class="edge">
<title>Node22&#45;&gt;Node11</title>
<path fill="none" stroke="#191970" d="M236.9815,-103.6296C242.8196,-94.2887 249.6752,-83.3197 254.4733,-75.6427"/>
<polygon fill="#191970" stroke="#191970" points="233.9286,-101.9105 231.5965,-112.2455 239.8646,-105.6206 233.9286,-101.9105"/>
</g>
<!-- Node24 -->
<g id="node22" class="node">
<title>Node24</title>
<g id="a_node22"><a xlink:href="schedule_8h.html" target="_top" xlink:title="ODP schedule. ">
<polygon fill="#ffffff" stroke="#000000" points="16,-224.5 16,-243.5 85,-243.5 85,-224.5 16,-224.5"/>
<text text-anchor="middle" x="50.5" y="-231.5" font-family="Helvetica,sans-Serif" font-size="10.00" fill="#000000">schedule.h</text>
</a>
</g>
</g>
<!-- Node23&#45;&gt;Node24 -->
<g id="edge25" class="edge">
<title>Node23&#45;&gt;Node24</title>
<path fill="none" stroke="#191970" d="M50.5,-270.1575C50.5,-261.155 50.5,-250.9199 50.5,-243.6427"/>
<polygon fill="#191970" stroke="#191970" points="47.0001,-270.2455 50.5,-280.2455 54.0001,-270.2456 47.0001,-270.2455"/>
</g>
<!-- Node26 -->
<g id="node24" class="node">
<title>Node26</title>
<g id="a_node24"><a xlink:href="packet__flags_8h.html" target="_top" xlink:title="ODP packet flags. ">
<polygon fill="#ffffff" stroke="#000000" points="142,-448.5 142,-467.5 229,-467.5 229,-448.5 142,-448.5"/>
<text text-anchor="middle" x="185.5" y="-455.5" font-family="Helvetica,sans-Serif" font-size="10.00" fill="#000000">packet_flags.h</text>
</a>
</g>
</g>
<!-- Node25&#45;&gt;Node26 -->
<g id="edge28" class="edge">
<title>Node25&#45;&gt;Node26</title>
<path fill="none" stroke="#191970" d="M185.5,-494.1575C185.5,-485.155 185.5,-474.9199 185.5,-467.6427"/>
<polygon fill="#191970" stroke="#191970" points="182.0001,-494.2455 185.5,-504.2455 189.0001,-494.2456 182.0001,-494.2455"/>
</g>
</g>
</svg>
