<?xml version="1.0" encoding="UTF-8" standalone="no"?>
<!DOCTYPE svg PUBLIC "-//W3C//DTD SVG 1.1//EN"
 "http://www.w3.org/Graphics/SVG/1.1/DTD/svg11.dtd">
<!-- Generated by graphviz version 2.40.1 (20161225.0304)
 -->
<!-- Title: support.h Pages: 1 -->
<svg width="331pt" height="700pt"
 viewBox="0.00 0.00 330.64 700.00" xmlns="http://www.w3.org/2000/svg" xmlns:xlink="http://www.w3.org/1999/xlink">
<g id="graph0" class="graph" transform="scale(1 1) rotate(0) translate(4 696)">
<title>support.h</title>
<polygon fill="#ffffff" stroke="transparent" points="-4,4 -4,-696 326.6379,-696 326.6379,4 -4,4"/>
<!-- Node3 -->
<g id="node1" class="node">
<title>Node3</title>
<polygon fill="#bfbfbf" stroke="#000000" points="86.6379,-672.5 86.6379,-691.5 148.6379,-691.5 148.6379,-672.5 86.6379,-672.5"/>
<text text-anchor="middle" x="117.6379" y="-679.5" font-family="Helvetica,sans-Serif" font-size="10.00" fill="#000000">support.h</text>
</g>
<!-- Node4 -->
<g id="node2" class="node">
<title>Node4</title>
<g id="a_node2"><a xlink:href="support_8h.html" target="_top" xlink:title="ODP support API &#45; platform specific header. ">
<polygon fill="#ffffff" stroke="#000000" points="86.6379,-616.5 86.6379,-635.5 148.6379,-635.5 148.6379,-616.5 86.6379,-616.5"/>
<text text-anchor="middle" x="117.6379" y="-623.5" font-family="Helvetica,sans-Serif" font-size="10.00" fill="#000000">support.h</text>
</a>
</g>
</g>
<!-- Node3&#45;&gt;Node4 -->
<g id="edge1" class="edge">
<title>Node3&#45;&gt;Node4</title>
<path fill="none" stroke="#191970" d="M117.6379,-662.1575C117.6379,-653.155 117.6379,-642.9199 117.6379,-635.6427"/>
<polygon fill="#191970" stroke="#191970" points="114.138,-662.2455 117.6379,-672.2455 121.138,-662.2456 114.138,-662.2455"/>
</g>
<!-- Node5 -->
<g id="node3" class="node">
<title>Node5</title>
<g id="a_node3"><a xlink:href="spec_2classification_8h.html" target="_top" xlink:title="ODP classification descriptor. ">
<polygon fill="#ffffff" stroke="#000000" points="29.1379,-168.5 29.1379,-187.5 118.1379,-187.5 118.1379,-168.5 29.1379,-168.5"/>
<text text-anchor="middle" x="73.6379" y="-175.5" font-family="Helvetica,sans-Serif" font-size="10.00" fill="#000000">classification.h</text>
</a>
</g>
</g>
<!-- Node4&#45;&gt;Node5 -->
<g id="edge2" class="edge">
<title>Node4&#45;&gt;Node5</title>
<path fill="none" stroke="#191970" d="M90.99,-610.9692C79.2374,-603.1204 66.1828,-592.5301 57.6379,-580 40.4401,-554.7812 38.6379,-544.5246 38.6379,-514 38.6379,-514 38.6379,-514 38.6379,-290 38.6379,-250.4788 58.7377,-206.5376 68.4736,-187.5717"/>
<polygon fill="#191970" stroke="#191970" points="89.3032,-614.0434 99.6272,-616.4236 93.0409,-608.1248 89.3032,-614.0434"/>
</g>
<!-- Node7 -->
<g id="node5" class="node">
<title>Node7</title>
<g id="a_node5"><a xlink:href="spec_2ipsec_8h.html" target="_top" xlink:title="ODP IPSEC API. ">
<polygon fill="#ffffff" stroke="#000000" points="152.1379,-56.5 152.1379,-75.5 203.1379,-75.5 203.1379,-56.5 152.1379,-56.5"/>
<text text-anchor="middle" x="177.6379" y="-63.5" font-family="Helvetica,sans-Serif" font-size="10.00" fill="#000000">ipsec.h</text>
</a>
</g>
</g>
<!-- Node4&#45;&gt;Node7 -->
<g id="edge11" class="edge">
<title>Node4&#45;&gt;Node7</title>
<path fill="none" stroke="#191970" d="M85.2168,-611.9147C50.5907,-594.4222 .6379,-561.0358 .6379,-514 .6379,-514 .6379,-514 .6379,-178 .6379,-147.4754 -1.9138,-133.6166 19.6379,-112 38.2459,-93.336 112.0995,-77.6814 151.9021,-70.3928"/>
<polygon fill="#191970" stroke="#191970" points="83.9972,-615.213 94.5225,-616.4252 87.0504,-608.9139 83.9972,-615.213"/>
</g>
<!-- Node9 -->
<g id="node7" class="node">
<title>Node9</title>
<g id="a_node7"><a xlink:href="spec_2comp_8h.html" target="_top" xlink:title="ODP Compression. ">
<polygon fill="#ffffff" stroke="#000000" points="225.1379,-560.5 225.1379,-579.5 278.1379,-579.5 278.1379,-560.5 225.1379,-560.5"/>
<text text-anchor="middle" x="251.6379" y="-567.5" font-family="Helvetica,sans-Serif" font-size="10.00" fill="#000000">comp.h</text>
</a>
</g>
</g>
<!-- Node4&#45;&gt;Node9 -->
<g id="edge6" class="edge">
<title>Node4&#45;&gt;Node9</title>
<path fill="none" stroke="#191970" d="M150.2208,-612.3833C174.5915,-602.1985 207.3021,-588.5284 228.9031,-579.5011"/>
<polygon fill="#191970" stroke="#191970" points="148.5504,-609.2879 140.6733,-616.3733 151.2496,-615.7466 148.5504,-609.2879"/>
</g>
<!-- Node11 -->
<g id="node9" class="node">
<title>Node11</title>
<g id="a_node9"><a xlink:href="spec_2crypto_8h.html" target="_top" xlink:title="ODP crypto. ">
<polygon fill="#ffffff" stroke="#000000" points="266.6379,-448.5 266.6379,-467.5 322.6379,-467.5 322.6379,-448.5 266.6379,-448.5"/>
<text text-anchor="middle" x="294.6379" y="-455.5" font-family="Helvetica,sans-Serif" font-size="10.00" fill="#000000">crypto.h</text>
</a>
</g>
</g>
<!-- Node4&#45;&gt;Node11 -->
<g id="edge8" class="edge">
<title>Node4&#45;&gt;Node11</title>
<path fill="none" stroke="#191970" d="M142.2773,-610.8276C154.0229,-602.7273 167.6527,-591.9658 177.6379,-580 201.9626,-550.8505 190.5919,-531.6223 216.6379,-504 231.9532,-487.7579 254.277,-475.3812 271.122,-467.579"/>
<polygon fill="#191970" stroke="#191970" points="140.1543,-608.0358 133.7542,-616.4791 144.0227,-613.8698 140.1543,-608.0358"/>
</g>
<!-- Node13 -->
<g id="node11" class="node">
<title>Node13</title>
<g id="a_node11"><a xlink:href="spec_2schedule__types_8h.html" target="_top" xlink:title="ODP schedule types. ">
<polygon fill="#ffffff" stroke="#000000" points="67.1379,-560.5 67.1379,-579.5 168.1379,-579.5 168.1379,-560.5 67.1379,-560.5"/>
<text text-anchor="middle" x="117.6379" y="-567.5" font-family="Helvetica,sans-Serif" font-size="10.00" fill="#000000">schedule_types.h</text>
</a>
</g>
</g>
<!-- Node4&#45;&gt;Node13 -->
<g id="edge12" class="edge">
<title>Node4&#45;&gt;Node13</title>
<path fill="none" stroke="#191970" d="M117.6379,-606.1575C117.6379,-597.155 117.6379,-586.9199 117.6379,-579.6427"/>
<polygon fill="#191970" stroke="#191970" points="114.138,-606.2455 117.6379,-616.2455 121.138,-606.2456 114.138,-606.2455"/>
</g>
<!-- Node6 -->
<g id="node4" class="node">
<title>Node6</title>
<g id="a_node4"><a xlink:href="classification_8h.html" target="_top" xlink:title="ODP classification descriptor. ">
<polygon fill="#ffffff" stroke="#000000" points="29.1379,-112.5 29.1379,-131.5 118.1379,-131.5 118.1379,-112.5 29.1379,-112.5"/>
<text text-anchor="middle" x="73.6379" y="-119.5" font-family="Helvetica,sans-Serif" font-size="10.00" fill="#000000">classification.h</text>
</a>
</g>
</g>
<!-- Node5&#45;&gt;Node6 -->
<g id="edge3" class="edge">
<title>Node5&#45;&gt;Node6</title>
<path fill="none" stroke="#191970" d="M73.6379,-158.1575C73.6379,-149.155 73.6379,-138.9199 73.6379,-131.6427"/>
<polygon fill="#191970" stroke="#191970" points="70.138,-158.2455 73.6379,-168.2455 77.138,-158.2456 70.138,-158.2455"/>
</g>
<!-- Node6&#45;&gt;Node7 -->
<g id="edge4" class="edge">
<title>Node6&#45;&gt;Node7</title>
<path fill="none" stroke="#191970" d="M100.6408,-107.46C119.2515,-97.4388 143.4678,-84.3993 159.7301,-75.6427"/>
<polygon fill="#191970" stroke="#191970" points="98.8987,-104.4228 91.7533,-112.2455 102.2174,-110.5861 98.8987,-104.4228"/>
</g>
<!-- Node8 -->
<g id="node6" class="node">
<title>Node8</title>
<g id="a_node6"><a xlink:href="ipsec_8h.html" target="_top" xlink:title="ODP IPSEC API &#45; platform specific header. ">
<polygon fill="#ffffff" stroke="#000000" points="152.1379,-.5 152.1379,-19.5 203.1379,-19.5 203.1379,-.5 152.1379,-.5"/>
<text text-anchor="middle" x="177.6379" y="-7.5" font-family="Helvetica,sans-Serif" font-size="10.00" fill="#000000">ipsec.h</text>
</a>
</g>
</g>
<!-- Node7&#45;&gt;Node8 -->
<g id="edge5" class="edge">
<title>Node7&#45;&gt;Node8</title>
<path fill="none" stroke="#191970" d="M177.6379,-46.1575C177.6379,-37.155 177.6379,-26.9199 177.6379,-19.6427"/>
<polygon fill="#191970" stroke="#191970" points="174.138,-46.2455 177.6379,-56.2455 181.138,-46.2456 174.138,-46.2455"/>
</g>
<!-- Node10 -->
<g id="node8" class="node">
<title>Node10</title>
<g id="a_node8"><a xlink:href="comp_8h.html" target="_top" xlink:title="ODP crypto. ">
<polygon fill="#ffffff" stroke="#000000" points="225.1379,-504.5 225.1379,-523.5 278.1379,-523.5 278.1379,-504.5 225.1379,-504.5"/>
<text text-anchor="middle" x="251.6379" y="-511.5" font-family="Helvetica,sans-Serif" font-size="10.00" fill="#000000">comp.h</text>
</a>
</g>
</g>
<!-- Node9&#45;&gt;Node10 -->
<g id="edge7" class="edge">
<title>Node9&#45;&gt;Node10</title>
<path fill="none" stroke="#191970" d="M251.6379,-550.1575C251.6379,-541.155 251.6379,-530.9199 251.6379,-523.6427"/>
<polygon fill="#191970" stroke="#191970" points="248.138,-550.2455 251.6379,-560.2455 255.138,-550.2456 248.138,-550.2455"/>
</g>
<!-- Node12 -->
<g id="node10" class="node">
<title>Node12</title>
<g id="a_node10"><a xlink:href="crypto_8h.html" target="_top" xlink:title="ODP crypto. ">
<polygon fill="#ffffff" stroke="#000000" points="257.6379,-280.5 257.6379,-299.5 313.6379,-299.5 313.6379,-280.5 257.6379,-280.5"/>
<text text-anchor="middle" x="285.6379" y="-287.5" font-family="Helvetica,sans-Serif" font-size="10.00" fill="#000000">crypto.h</text>
</a>
</g>
</g>
<!-- Node11&#45;&gt;Node12 -->
<g id="edge9" class="edge">
<title>Node11&#45;&gt;Node12</title>
<path fill="none" stroke="#191970" d="M307.2628,-439.7872C312.1506,-431.6691 317.1595,-421.7507 319.6379,-412 330.3087,-370.0192 304.4224,-320.4037 291.9237,-299.7639"/>
<polygon fill="#191970" stroke="#191970" points="304.2066,-438.0688 301.7394,-448.3724 310.0935,-441.8563 304.2066,-438.0688"/>
</g>
<!-- Node12&#45;&gt;Node7 -->
<g id="edge10" class="edge">
<title>Node12&#45;&gt;Node7</title>
<path fill="none" stroke="#191970" d="M285.7798,-269.7845C285.0753,-234.6528 279.3084,-161.3703 245.6379,-112 234.3949,-95.5146 215.112,-83.3028 199.9454,-75.6207"/>
<polygon fill="#191970" stroke="#191970" points="282.2825,-270.1732 285.8576,-280.1466 289.2823,-270.1205 282.2825,-270.1732"/>
</g>
<!-- Node14 -->
<g id="node12" class="node">
<title>Node14</title>
<g id="a_node12"><a xlink:href="schedule__types_8h.html" target="_top" xlink:title="ODP schedule. ">
<polygon fill="#ffffff" stroke="#000000" points="67.1379,-504.5 67.1379,-523.5 168.1379,-523.5 168.1379,-504.5 67.1379,-504.5"/>
<text text-anchor="middle" x="117.6379" y="-511.5" font-family="Helvetica,sans-Serif" font-size="10.00" fill="#000000">schedule_types.h</text>
</a>
</g>
</g>
<!-- Node13&#45;&gt;Node14 -->
<g id="edge13" class="edge">
<title>Node13&#45;&gt;Node14</title>
<path fill="none" stroke="#191970" d="M117.6379,-550.1575C117.6379,-541.155 117.6379,-530.9199 117.6379,-523.6427"/>
<polygon fill="#191970" stroke="#191970" points="114.138,-550.2455 117.6379,-560.2455 121.138,-550.2456 114.138,-550.2455"/>
</g>
<!-- Node15 -->
<g id="node13" class="node">
<title>Node15</title>
<g id="a_node13"><a xlink:href="queue__types_8h.html" target="_top" xlink:title="ODP queue types. ">
<polygon fill="#ffffff" stroke="#000000" points="116.6379,-448.5 116.6379,-467.5 204.6379,-467.5 204.6379,-448.5 116.6379,-448.5"/>
<text text-anchor="middle" x="160.6379" y="-455.5" font-family="Helvetica,sans-Serif" font-size="10.00" fill="#000000">queue_types.h</text>
</a>
</g>
</g>
<!-- Node14&#45;&gt;Node15 -->
<g id="edge14" class="edge">
<title>Node14&#45;&gt;Node15</title>
<path fill="none" stroke="#191970" d="M131.2972,-496.2112C138.5642,-486.7472 147.216,-475.4797 153.2337,-467.6427"/>
<polygon fill="#191970" stroke="#191970" points="128.4422,-494.1824 125.1279,-504.2455 133.9943,-498.4456 128.4422,-494.1824"/>
</g>
<!-- Node22 -->
<g id="node20" class="node">
<title>Node22</title>
<g id="a_node20"><a xlink:href="spec_2schedule_8h.html" target="_top" xlink:title="ODP schedule. ">
<polygon fill="#ffffff" stroke="#000000" points="67.1379,-280.5 67.1379,-299.5 136.1379,-299.5 136.1379,-280.5 67.1379,-280.5"/>
<text text-anchor="middle" x="101.6379" y="-287.5" font-family="Helvetica,sans-Serif" font-size="10.00" fill="#000000">schedule.h</text>
</a>
</g>
</g>
<!-- Node14&#45;&gt;Node22 -->
<g id="edge29" class="edge">
<title>Node14&#45;&gt;Node22</title>
<path fill="none" stroke="#191970" d="M112.5297,-494.2662C110.6517,-486.1817 108.721,-476.698 107.6379,-468 99.6912,-404.1786 100.6969,-326.5591 101.3535,-299.6956"/>
<polygon fill="#191970" stroke="#191970" points="109.1896,-495.3412 114.9735,-504.218 115.9877,-493.6718 109.1896,-495.3412"/>
</g>
<!-- Node16 -->
<g id="node14" class="node">
<title>Node16</title>
<g id="a_node14"><a xlink:href="spec_2queue_8h.html" target="_top" xlink:title="ODP queue. ">
<polygon fill="#ffffff" stroke="#000000" points="116.6379,-392.5 116.6379,-411.5 172.6379,-411.5 172.6379,-392.5 116.6379,-392.5"/>
<text text-anchor="middle" x="144.6379" y="-399.5" font-family="Helvetica,sans-Serif" font-size="10.00" fill="#000000">queue.h</text>
</a>
</g>
</g>
<!-- Node15&#45;&gt;Node16 -->
<g id="edge15" class="edge">
<title>Node15&#45;&gt;Node16</title>
<path fill="none" stroke="#191970" d="M155.0533,-438.4538C152.4609,-429.3803 149.495,-418.9998 147.393,-411.6427"/>
<polygon fill="#191970" stroke="#191970" points="151.7383,-439.5919 157.8509,-448.2455 158.469,-437.6688 151.7383,-439.5919"/>
</g>
<!-- Node24 -->
<g id="node22" class="node">
<title>Node24</title>
<g id="a_node22"><a xlink:href="queue__inline__types_8h_source.html" target="_top" xlink:title="queue_inline_types.h">
<polygon fill="#ffffff" stroke="#000000" points="190.6379,-392.5 190.6379,-411.5 310.6379,-411.5 310.6379,-392.5 190.6379,-392.5"/>
<text text-anchor="middle" x="250.6379" y="-399.5" font-family="Helvetica,sans-Serif" font-size="10.00" fill="#000000">queue_inline_types.h</text>
</a>
</g>
</g>
<!-- Node15&#45;&gt;Node24 -->
<g id="edge27" class="edge">
<title>Node15&#45;&gt;Node24</title>
<path fill="none" stroke="#191970" d="M185.1163,-442.769C201.0646,-432.8456 221.3889,-420.1994 235.1408,-411.6427"/>
<polygon fill="#191970" stroke="#191970" points="182.9562,-439.9908 176.3147,-448.2455 186.6544,-445.9342 182.9562,-439.9908"/>
</g>
<!-- Node17 -->
<g id="node15" class="node">
<title>Node17</title>
<g id="a_node15"><a xlink:href="queue_8h.html" target="_top" xlink:title="ODP queue. ">
<polygon fill="#ffffff" stroke="#000000" points="123.6379,-336.5 123.6379,-355.5 179.6379,-355.5 179.6379,-336.5 123.6379,-336.5"/>
<text text-anchor="middle" x="151.6379" y="-343.5" font-family="Helvetica,sans-Serif" font-size="10.00" fill="#000000">queue.h</text>
</a>
</g>
</g>
<!-- Node16&#45;&gt;Node17 -->
<g id="edge16" class="edge">
<title>Node16&#45;&gt;Node17</title>
<path fill="none" stroke="#191970" d="M147.1182,-382.1575C148.2435,-373.155 149.5229,-362.9199 150.4326,-355.6427"/>
<polygon fill="#191970" stroke="#191970" points="143.6247,-381.8886 145.8572,-392.2455 150.5706,-382.7569 143.6247,-381.8886"/>
</g>
<!-- Node17&#45;&gt;Node12 -->
<g id="edge17" class="edge">
<title>Node17&#45;&gt;Node12</title>
<path fill="none" stroke="#191970" d="M184.2208,-332.3833C208.5915,-322.1985 241.3021,-308.5284 262.9031,-299.5011"/>
<polygon fill="#191970" stroke="#191970" points="182.5504,-329.2879 174.6733,-336.3733 185.2496,-335.7466 182.5504,-329.2879"/>
</g>
<!-- Node18 -->
<g id="node16" class="node">
<title>Node18</title>
<g id="a_node16"><a xlink:href="spec_2packet__io_8h.html" target="_top" xlink:title="ODP Packet IO. ">
<polygon fill="#ffffff" stroke="#000000" points="154.1379,-280.5 154.1379,-299.5 227.1379,-299.5 227.1379,-280.5 154.1379,-280.5"/>
<text text-anchor="middle" x="190.6379" y="-287.5" font-family="Helvetica,sans-Serif" font-size="10.00" fill="#000000">packet_io.h</text>
</a>
</g>
</g>
<!-- Node17&#45;&gt;Node18 -->
<g id="edge18" class="edge">
<title>Node17&#45;&gt;Node18</title>
<path fill="none" stroke="#191970" d="M164.2287,-327.9209C170.7775,-318.5176 178.5203,-307.3997 183.9225,-299.6427"/>
<polygon fill="#191970" stroke="#191970" points="161.2741,-326.0392 158.4312,-336.2455 167.0183,-330.0397 161.2741,-326.0392"/>
</g>
<!-- Node17&#45;&gt;Node22 -->
<g id="edge25" class="edge">
<title>Node17&#45;&gt;Node22</title>
<path fill="none" stroke="#191970" d="M136.0133,-328.5004C127.5107,-318.9775 117.3162,-307.5596 110.2475,-299.6427"/>
<polygon fill="#191970" stroke="#191970" points="133.6576,-331.1172 142.9286,-336.2455 138.8792,-326.4551 133.6576,-331.1172"/>
</g>
<!-- Node19 -->
<g id="node17" class="node">
<title>Node19</title>
<g id="a_node17"><a xlink:href="packet__io_8h.html" target="_top" xlink:title="ODP Packet IO. ">
<polygon fill="#ffffff" stroke="#000000" points="154.1379,-224.5 154.1379,-243.5 227.1379,-243.5 227.1379,-224.5 154.1379,-224.5"/>
<text text-anchor="middle" x="190.6379" y="-231.5" font-family="Helvetica,sans-Serif" font-size="10.00" fill="#000000">packet_io.h</text>
</a>
</g>
</g>
<!-- Node18&#45;&gt;Node19 -->
<g id="edge19" class="edge">
<title>Node18&#45;&gt;Node19</title>
<path fill="none" stroke="#191970" d="M190.6379,-270.1575C190.6379,-261.155 190.6379,-250.9199 190.6379,-243.6427"/>
<polygon fill="#191970" stroke="#191970" points="187.138,-270.2455 190.6379,-280.2455 194.138,-270.2456 187.138,-270.2455"/>
</g>
<!-- Node19&#45;&gt;Node5 -->
<g id="edge20" class="edge">
<title>Node19&#45;&gt;Node5</title>
<path fill="none" stroke="#191970" d="M161.3337,-219.9741C140.1499,-209.8348 112.0976,-196.408 93.4885,-187.5011"/>
<polygon fill="#191970" stroke="#191970" points="159.9938,-223.2129 170.5249,-224.3733 163.0159,-216.8989 159.9938,-223.2129"/>
</g>
<!-- Node19&#45;&gt;Node7 -->
<g id="edge21" class="edge">
<title>Node19&#45;&gt;Node7</title>
<path fill="none" stroke="#191970" d="M209.3548,-217.1796C216.8782,-209.1773 224.6943,-198.9659 228.6379,-188 240.0685,-156.2151 242.3633,-142.8634 228.6379,-112 221.6609,-96.3113 206.3964,-83.7177 194.3753,-75.7012"/>
<polygon fill="#191970" stroke="#191970" points="206.7186,-214.8646 202.0832,-224.3916 211.648,-219.8347 206.7186,-214.8646"/>
</g>
<!-- Node20 -->
<g id="node18" class="node">
<title>Node20</title>
<g id="a_node18"><a xlink:href="spec_2traffic__mngr_8h.html" target="_top" xlink:title="Copyright (c) 2015&#45;2018, Linaro Limited All rights reserved. ">
<polygon fill="#ffffff" stroke="#000000" points="135.6379,-168.5 135.6379,-187.5 219.6379,-187.5 219.6379,-168.5 135.6379,-168.5"/>
<text text-anchor="middle" x="177.6379" y="-175.5" font-family="Helvetica,sans-Serif" font-size="10.00" fill="#000000">traffic_mngr.h</text>
</a>
</g>
</g>
<!-- Node19&#45;&gt;Node20 -->
<g id="edge22" class="edge">
<title>Node19&#45;&gt;Node20</title>
<path fill="none" stroke="#191970" d="M186.1004,-214.4538C183.9941,-205.3803 181.5843,-194.9998 179.8764,-187.6427"/>
<polygon fill="#191970" stroke="#191970" points="182.7028,-215.2961 188.3735,-224.2455 189.5215,-213.7131 182.7028,-215.2961"/>
</g>
<!-- Node21 -->
<g id="node19" class="node">
<title>Node21</title>
<g id="a_node19"><a xlink:href="traffic__mngr_8h.html" target="_top" xlink:title="ODP Traffic manager. ">
<polygon fill="#ffffff" stroke="#000000" points="135.6379,-112.5 135.6379,-131.5 219.6379,-131.5 219.6379,-112.5 135.6379,-112.5"/>
<text text-anchor="middle" x="177.6379" y="-119.5" font-family="Helvetica,sans-Serif" font-size="10.00" fill="#000000">traffic_mngr.h</text>
</a>
</g>
</g>
<!-- Node20&#45;&gt;Node21 -->
<g id="edge23" class="edge">
<title>Node20&#45;&gt;Node21</title>
<path fill="none" stroke="#191970" d="M177.6379,-158.1575C177.6379,-149.155 177.6379,-138.9199 177.6379,-131.6427"/>
<polygon fill="#191970" stroke="#191970" points="174.138,-158.2455 177.6379,-168.2455 181.138,-158.2456 174.138,-158.2455"/>
</g>
<!-- Node21&#45;&gt;Node7 -->
<g id="edge24" class="edge">
<title>Node21&#45;&gt;Node7</title>
<path fill="none" stroke="#191970" d="M177.6379,-102.1575C177.6379,-93.155 177.6379,-82.9199 177.6379,-75.6427"/>
<polygon fill="#191970" stroke="#191970" points="174.138,-102.2455 177.6379,-112.2455 181.138,-102.2456 174.138,-102.2455"/>
</g>
<!-- Node23 -->
<g id="node21" class="node">
<title>Node23</title>
<g id="a_node21"><a xlink:href="schedule_8h.html" target="_top" xlink:title="ODP schedule. ">
<polygon fill="#ffffff" stroke="#000000" points="67.1379,-224.5 67.1379,-243.5 136.1379,-243.5 136.1379,-224.5 67.1379,-224.5"/>
<text text-anchor="middle" x="101.6379" y="-231.5" font-family="Helvetica,sans-Serif" font-size="10.00" fill="#000000">schedule.h</text>
</a>
</g>
</g>
<!-- Node22&#45;&gt;Node23 -->
<g id="edge26" class="edge">
<title>Node22&#45;&gt;Node23</title>
<path fill="none" stroke="#191970" d="M101.6379,-270.1575C101.6379,-261.155 101.6379,-250.9199 101.6379,-243.6427"/>
<polygon fill="#191970" stroke="#191970" points="98.138,-270.2455 101.6379,-280.2455 105.138,-270.2456 98.138,-270.2455"/>
</g>
<!-- Node25 -->
<g id="node23" class="node">
<title>Node25</title>
<g id="a_node23"><a xlink:href="queue__inlines_8h_source.html" target="_top" xlink:title="queue_inlines.h">
<polygon fill="#ffffff" stroke="#000000" points="204.1379,-336.5 204.1379,-355.5 297.1379,-355.5 297.1379,-336.5 204.1379,-336.5"/>
<text text-anchor="middle" x="250.6379" y="-343.5" font-family="Helvetica,sans-Serif" font-size="10.00" fill="#000000">queue_inlines.h</text>
</a>
</g>
</g>
<!-- Node24&#45;&gt;Node25 -->
<g id="edge28" class="edge">
<title>Node24&#45;&gt;Node25</title>
<path fill="none" stroke="#191970" d="M250.6379,-382.1575C250.6379,-373.155 250.6379,-362.9199 250.6379,-355.6427"/>
<polygon fill="#191970" stroke="#191970" points="247.138,-382.2455 250.6379,-392.2455 254.138,-382.2456 247.138,-382.2455"/>
</g>
</g>
</svg>
