<?xml version="1.0" encoding="UTF-8" standalone="no"?>
<!DOCTYPE svg PUBLIC "-//W3C//DTD SVG 1.1//EN"
 "http://www.w3.org/Graphics/SVG/1.1/DTD/svg11.dtd">
<!-- Generated by graphviz version 2.40.1 (20161225.0304)
 -->
<!-- Title: schedule_types.h Pages: 1 -->
<svg width="279pt" height="588pt"
 viewBox="0.00 0.00 279.00 588.00" xmlns="http://www.w3.org/2000/svg" xmlns:xlink="http://www.w3.org/1999/xlink">
<g id="graph0" class="graph" transform="scale(1 1) rotate(0) translate(4 584)">
<title>schedule_types.h</title>
<polygon fill="#ffffff" stroke="transparent" points="-4,4 -4,-584 275,-584 275,4 -4,4"/>
<!-- Node5 -->
<g id="node1" class="node">
<title>Node5</title>
<polygon fill="#bfbfbf" stroke="#000000" points="164.5,-560.5 164.5,-579.5 265.5,-579.5 265.5,-560.5 164.5,-560.5"/>
<text text-anchor="middle" x="215" y="-567.5" font-family="Helvetica,sans-Serif" font-size="10.00" fill="#000000">schedule_types.h</text>
</g>
<!-- Node6 -->
<g id="node2" class="node">
<title>Node6</title>
<g id="a_node2"><a xlink:href="schedule__types_8h.html" target="_top" xlink:title="ODP schedule. ">
<polygon fill="#ffffff" stroke="#000000" points="164.5,-504.5 164.5,-523.5 265.5,-523.5 265.5,-504.5 164.5,-504.5"/>
<text text-anchor="middle" x="215" y="-511.5" font-family="Helvetica,sans-Serif" font-size="10.00" fill="#000000">schedule_types.h</text>
</a>
</g>
</g>
<!-- Node5&#45;&gt;Node6 -->
<g id="edge1" class="edge">
<title>Node5&#45;&gt;Node6</title>
<path fill="none" stroke="#191970" d="M215,-550.1575C215,-541.155 215,-530.9199 215,-523.6427"/>
<polygon fill="#191970" stroke="#191970" points="211.5001,-550.2455 215,-560.2455 218.5001,-550.2456 211.5001,-550.2455"/>
</g>
<!-- Node7 -->
<g id="node3" class="node">
<title>Node7</title>
<g id="a_node3"><a xlink:href="queue__types_8h.html" target="_top" xlink:title="ODP queue types. ">
<polygon fill="#ffffff" stroke="#000000" points="127,-448.5 127,-467.5 215,-467.5 215,-448.5 127,-448.5"/>
<text text-anchor="middle" x="171" y="-455.5" font-family="Helvetica,sans-Serif" font-size="10.00" fill="#000000">queue_types.h</text>
</a>
</g>
</g>
<!-- Node6&#45;&gt;Node7 -->
<g id="edge2" class="edge">
<title>Node6&#45;&gt;Node7</title>
<path fill="none" stroke="#191970" d="M201.0231,-496.2112C193.5871,-486.7472 184.734,-475.4797 178.5764,-467.6427"/>
<polygon fill="#191970" stroke="#191970" points="198.4054,-498.5447 207.3358,-504.2455 203.9097,-494.22 198.4054,-498.5447"/>
</g>
<!-- Node19 -->
<g id="node15" class="node">
<title>Node19</title>
<g id="a_node15"><a xlink:href="spec_2schedule_8h.html" target="_top" xlink:title="ODP schedule. ">
<polygon fill="#ffffff" stroke="#000000" points="198.5,-280.5 198.5,-299.5 267.5,-299.5 267.5,-280.5 198.5,-280.5"/>
<text text-anchor="middle" x="233" y="-287.5" font-family="Helvetica,sans-Serif" font-size="10.00" fill="#000000">schedule.h</text>
</a>
</g>
</g>
<!-- Node6&#45;&gt;Node19 -->
<g id="edge21" class="edge">
<title>Node6&#45;&gt;Node19</title>
<path fill="none" stroke="#191970" d="M221.2155,-494.6664C227.3991,-474.3407 236.461,-441.3059 240,-412 245.0362,-370.2965 238.0946,-320.122 234.6907,-299.5274"/>
<polygon fill="#191970" stroke="#191970" points="217.8476,-493.7098 218.2092,-504.2985 224.5297,-495.7955 217.8476,-493.7098"/>
</g>
<!-- Node8 -->
<g id="node4" class="node">
<title>Node8</title>
<g id="a_node4"><a xlink:href="spec_2queue_8h.html" target="_top" xlink:title="ODP queue. ">
<polygon fill="#ffffff" stroke="#000000" points="37,-392.5 37,-411.5 93,-411.5 93,-392.5 37,-392.5"/>
<text text-anchor="middle" x="65" y="-399.5" font-family="Helvetica,sans-Serif" font-size="10.00" fill="#000000">queue.h</text>
</a>
</g>
</g>
<!-- Node7&#45;&gt;Node8 -->
<g id="edge3" class="edge">
<title>Node7&#45;&gt;Node8</title>
<path fill="none" stroke="#191970" d="M143.4778,-443.46C124.5092,-433.4388 99.8273,-420.3993 83.2522,-411.6427"/>
<polygon fill="#191970" stroke="#191970" points="142.0593,-446.669 152.5362,-448.2455 145.3292,-440.4796 142.0593,-446.669"/>
</g>
<!-- Node21 -->
<g id="node17" class="node">
<title>Node21</title>
<g id="a_node17"><a xlink:href="queue__inline__types_8h_source.html" target="_top" xlink:title="queue_inline_types.h">
<polygon fill="#ffffff" stroke="#000000" points="111,-392.5 111,-411.5 231,-411.5 231,-392.5 111,-392.5"/>
<text text-anchor="middle" x="171" y="-399.5" font-family="Helvetica,sans-Serif" font-size="10.00" fill="#000000">queue_inline_types.h</text>
</a>
</g>
</g>
<!-- Node7&#45;&gt;Node21 -->
<g id="edge19" class="edge">
<title>Node7&#45;&gt;Node21</title>
<path fill="none" stroke="#191970" d="M171,-438.1575C171,-429.155 171,-418.9199 171,-411.6427"/>
<polygon fill="#191970" stroke="#191970" points="167.5001,-438.2455 171,-448.2455 174.5001,-438.2456 167.5001,-438.2455"/>
</g>
<!-- Node9 -->
<g id="node5" class="node">
<title>Node9</title>
<g id="a_node5"><a xlink:href="queue_8h.html" target="_top" xlink:title="ODP queue. ">
<polygon fill="#ffffff" stroke="#000000" points="44,-336.5 44,-355.5 100,-355.5 100,-336.5 44,-336.5"/>
<text text-anchor="middle" x="72" y="-343.5" font-family="Helvetica,sans-Serif" font-size="10.00" fill="#000000">queue.h</text>
</a>
</g>
</g>
<!-- Node8&#45;&gt;Node9 -->
<g id="edge4" class="edge">
<title>Node8&#45;&gt;Node9</title>
<path fill="none" stroke="#191970" d="M67.4803,-382.1575C68.6056,-373.155 69.885,-362.9199 70.7947,-355.6427"/>
<polygon fill="#191970" stroke="#191970" points="63.9868,-381.8886 66.2193,-392.2455 70.9327,-382.7569 63.9868,-381.8886"/>
</g>
<!-- Node10 -->
<g id="node6" class="node">
<title>Node10</title>
<g id="a_node6"><a xlink:href="crypto_8h.html" target="_top" xlink:title="ODP crypto. ">
<polygon fill="#ffffff" stroke="#000000" points="0,-224.5 0,-243.5 56,-243.5 56,-224.5 0,-224.5"/>
<text text-anchor="middle" x="28" y="-231.5" font-family="Helvetica,sans-Serif" font-size="10.00" fill="#000000">crypto.h</text>
</a>
</g>
</g>
<!-- Node9&#45;&gt;Node10 -->
<g id="edge5" class="edge">
<title>Node9&#45;&gt;Node10</title>
<path fill="none" stroke="#191970" d="M64.5064,-326.9253C55.0004,-302.7284 38.9755,-261.9376 31.7419,-243.5249"/>
<polygon fill="#191970" stroke="#191970" points="61.3344,-328.4232 68.2486,-336.4509 67.8496,-325.8636 61.3344,-328.4232"/>
</g>
<!-- Node13 -->
<g id="node9" class="node">
<title>Node13</title>
<g id="a_node9"><a xlink:href="spec_2packet__io_8h.html" target="_top" xlink:title="ODP Packet IO. ">
<polygon fill="#ffffff" stroke="#000000" points="72.5,-280.5 72.5,-299.5 145.5,-299.5 145.5,-280.5 72.5,-280.5"/>
<text text-anchor="middle" x="109" y="-287.5" font-family="Helvetica,sans-Serif" font-size="10.00" fill="#000000">packet_io.h</text>
</a>
</g>
</g>
<!-- Node9&#45;&gt;Node13 -->
<g id="edge8" class="edge">
<title>Node9&#45;&gt;Node13</title>
<path fill="none" stroke="#191970" d="M84.1376,-327.6296C90.3093,-318.2887 97.5566,-307.3197 102.6289,-299.6427"/>
<polygon fill="#191970" stroke="#191970" points="81.0373,-325.9728 78.4449,-336.2455 86.8777,-329.8316 81.0373,-325.9728"/>
</g>
<!-- Node9&#45;&gt;Node19 -->
<g id="edge17" class="edge">
<title>Node9&#45;&gt;Node19</title>
<path fill="none" stroke="#191970" d="M109.2111,-333.057C138.6759,-322.8084 179.1541,-308.729 205.6843,-299.5011"/>
<polygon fill="#191970" stroke="#191970" points="107.972,-329.7822 99.6769,-336.3733 110.2717,-336.3937 107.972,-329.7822"/>
</g>
<!-- Node11 -->
<g id="node7" class="node">
<title>Node11</title>
<g id="a_node7"><a xlink:href="spec_2ipsec_8h.html" target="_top" xlink:title="ODP IPSEC API. ">
<polygon fill="#ffffff" stroke="#000000" points="62.5,-56.5 62.5,-75.5 113.5,-75.5 113.5,-56.5 62.5,-56.5"/>
<text text-anchor="middle" x="88" y="-63.5" font-family="Helvetica,sans-Serif" font-size="10.00" fill="#000000">ipsec.h</text>
</a>
</g>
</g>
<!-- Node10&#45;&gt;Node11 -->
<g id="edge6" class="edge">
<title>Node10&#45;&gt;Node11</title>
<path fill="none" stroke="#191970" d="M32.2226,-214.4164C37.8141,-189.9418 48.6646,-147.0137 63,-112 68.3725,-98.8779 76.4807,-84.6668 81.9955,-75.5667"/>
<polygon fill="#191970" stroke="#191970" points="28.7861,-213.7467 30.03,-224.2682 35.6189,-215.2674 28.7861,-213.7467"/>
</g>
<!-- Node12 -->
<g id="node8" class="node">
<title>Node12</title>
<g id="a_node8"><a xlink:href="ipsec_8h.html" target="_top" xlink:title="ODP IPSEC API &#45; platform specific header. ">
<polygon fill="#ffffff" stroke="#000000" points="62.5,-.5 62.5,-19.5 113.5,-19.5 113.5,-.5 62.5,-.5"/>
<text text-anchor="middle" x="88" y="-7.5" font-family="Helvetica,sans-Serif" font-size="10.00" fill="#000000">ipsec.h</text>
</a>
</g>
</g>
<!-- Node11&#45;&gt;Node12 -->
<g id="edge7" class="edge">
<title>Node11&#45;&gt;Node12</title>
<path fill="none" stroke="#191970" d="M88,-46.1575C88,-37.155 88,-26.9199 88,-19.6427"/>
<polygon fill="#191970" stroke="#191970" points="84.5001,-46.2455 88,-56.2455 91.5001,-46.2456 84.5001,-46.2455"/>
</g>
<!-- Node14 -->
<g id="node10" class="node">
<title>Node14</title>
<g id="a_node10"><a xlink:href="packet__io_8h.html" target="_top" xlink:title="ODP Packet IO. ">
<polygon fill="#ffffff" stroke="#000000" points="81.5,-224.5 81.5,-243.5 154.5,-243.5 154.5,-224.5 81.5,-224.5"/>
<text text-anchor="middle" x="118" y="-231.5" font-family="Helvetica,sans-Serif" font-size="10.00" fill="#000000">packet_io.h</text>
</a>
</g>
</g>
<!-- Node13&#45;&gt;Node14 -->
<g id="edge9" class="edge">
<title>Node13&#45;&gt;Node14</title>
<path fill="none" stroke="#191970" d="M112.189,-270.1575C113.6358,-261.155 115.2807,-250.9199 116.4503,-243.6427"/>
<polygon fill="#191970" stroke="#191970" points="108.6989,-269.8168 110.5677,-280.2455 115.6102,-270.9276 108.6989,-269.8168"/>
</g>
<!-- Node14&#45;&gt;Node11 -->
<g id="edge13" class="edge">
<title>Node14&#45;&gt;Node11</title>
<path fill="none" stroke="#191970" d="M95.0503,-218.092C85.7314,-210.235 75.9978,-199.8847 71,-188 54.5032,-148.771 73.9262,-96.8107 83.3934,-75.617"/>
<polygon fill="#191970" stroke="#191970" points="92.9752,-220.9126 103.0035,-224.3308 97.2957,-215.4049 92.9752,-220.9126"/>
</g>
<!-- Node15 -->
<g id="node11" class="node">
<title>Node15</title>
<g id="a_node11"><a xlink:href="spec_2classification_8h.html" target="_top" xlink:title="ODP classification descriptor. ">
<polygon fill="#ffffff" stroke="#000000" points="80.5,-168.5 80.5,-187.5 169.5,-187.5 169.5,-168.5 80.5,-168.5"/>
<text text-anchor="middle" x="125" y="-175.5" font-family="Helvetica,sans-Serif" font-size="10.00" fill="#000000">classification.h</text>
</a>
</g>
</g>
<!-- Node14&#45;&gt;Node15 -->
<g id="edge10" class="edge">
<title>Node14&#45;&gt;Node15</title>
<path fill="none" stroke="#191970" d="M120.4803,-214.1575C121.6056,-205.155 122.885,-194.9199 123.7947,-187.6427"/>
<polygon fill="#191970" stroke="#191970" points="116.9868,-213.8886 119.2193,-224.2455 123.9327,-214.7569 116.9868,-213.8886"/>
</g>
<!-- Node17 -->
<g id="node13" class="node">
<title>Node17</title>
<g id="a_node13"><a xlink:href="spec_2traffic__mngr_8h.html" target="_top" xlink:title="Copyright (c) 2015&#45;2018, Linaro Limited All rights reserved. ">
<polygon fill="#ffffff" stroke="#000000" points="187,-168.5 187,-187.5 271,-187.5 271,-168.5 187,-168.5"/>
<text text-anchor="middle" x="229" y="-175.5" font-family="Helvetica,sans-Serif" font-size="10.00" fill="#000000">traffic_mngr.h</text>
</a>
</g>
</g>
<!-- Node14&#45;&gt;Node17 -->
<g id="edge14" class="edge">
<title>Node14&#45;&gt;Node17</title>
<path fill="none" stroke="#191970" d="M146.0734,-219.8368C166.1385,-209.7139 192.5922,-196.3679 210.1674,-187.5011"/>
<polygon fill="#191970" stroke="#191970" points="144.4332,-216.7441 137.0816,-224.3733 147.5862,-222.9938 144.4332,-216.7441"/>
</g>
<!-- Node16 -->
<g id="node12" class="node">
<title>Node16</title>
<g id="a_node12"><a xlink:href="classification_8h.html" target="_top" xlink:title="ODP classification descriptor. ">
<polygon fill="#ffffff" stroke="#000000" points="80.5,-112.5 80.5,-131.5 169.5,-131.5 169.5,-112.5 80.5,-112.5"/>
<text text-anchor="middle" x="125" y="-119.5" font-family="Helvetica,sans-Serif" font-size="10.00" fill="#000000">classification.h</text>
</a>
</g>
</g>
<!-- Node15&#45;&gt;Node16 -->
<g id="edge11" class="edge">
<title>Node15&#45;&gt;Node16</title>
<path fill="none" stroke="#191970" d="M125,-158.1575C125,-149.155 125,-138.9199 125,-131.6427"/>
<polygon fill="#191970" stroke="#191970" points="121.5001,-158.2455 125,-168.2455 128.5001,-158.2456 121.5001,-158.2455"/>
</g>
<!-- Node16&#45;&gt;Node11 -->
<g id="edge12" class="edge">
<title>Node16&#45;&gt;Node11</title>
<path fill="none" stroke="#191970" d="M112.8624,-103.6296C106.6907,-94.2887 99.4434,-83.3197 94.3711,-75.6427"/>
<polygon fill="#191970" stroke="#191970" points="110.1223,-105.8316 118.5551,-112.2455 115.9627,-101.9728 110.1223,-105.8316"/>
</g>
<!-- Node18 -->
<g id="node14" class="node">
<title>Node18</title>
<g id="a_node14"><a xlink:href="traffic__mngr_8h.html" target="_top" xlink:title="ODP Traffic manager. ">
<polygon fill="#ffffff" stroke="#000000" points="187,-112.5 187,-131.5 271,-131.5 271,-112.5 187,-112.5"/>
<text text-anchor="middle" x="229" y="-119.5" font-family="Helvetica,sans-Serif" font-size="10.00" fill="#000000">traffic_mngr.h</text>
</a>
</g>
</g>
<!-- Node17&#45;&gt;Node18 -->
<g id="edge15" class="edge">
<title>Node17&#45;&gt;Node18</title>
<path fill="none" stroke="#191970" d="M229,-158.1575C229,-149.155 229,-138.9199 229,-131.6427"/>
<polygon fill="#191970" stroke="#191970" points="225.5001,-158.2455 229,-168.2455 232.5001,-158.2456 225.5001,-158.2455"/>
</g>
<!-- Node18&#45;&gt;Node11 -->
<g id="edge16" class="edge">
<title>Node18&#45;&gt;Node11</title>
<path fill="none" stroke="#191970" d="M195.3968,-108.6541C169.6841,-98.4419 134.8539,-84.6086 111.9225,-75.5011"/>
<polygon fill="#191970" stroke="#191970" points="194.1755,-111.9349 204.7612,-112.3733 196.7593,-105.4292 194.1755,-111.9349"/>
</g>
<!-- Node20 -->
<g id="node16" class="node">
<title>Node20</title>
<g id="a_node16"><a xlink:href="schedule_8h.html" target="_top" xlink:title="ODP schedule. ">
<polygon fill="#ffffff" stroke="#000000" points="198.5,-224.5 198.5,-243.5 267.5,-243.5 267.5,-224.5 198.5,-224.5"/>
<text text-anchor="middle" x="233" y="-231.5" font-family="Helvetica,sans-Serif" font-size="10.00" fill="#000000">schedule.h</text>
</a>
</g>
</g>
<!-- Node19&#45;&gt;Node20 -->
<g id="edge18" class="edge">
<title>Node19&#45;&gt;Node20</title>
<path fill="none" stroke="#191970" d="M233,-270.1575C233,-261.155 233,-250.9199 233,-243.6427"/>
<polygon fill="#191970" stroke="#191970" points="229.5001,-270.2455 233,-280.2455 236.5001,-270.2456 229.5001,-270.2455"/>
</g>
<!-- Node22 -->
<g id="node18" class="node">
<title>Node22</title>
<g id="a_node18"><a xlink:href="queue__inlines_8h_source.html" target="_top" xlink:title="queue_inlines.h">
<polygon fill="#ffffff" stroke="#000000" points="124.5,-336.5 124.5,-355.5 217.5,-355.5 217.5,-336.5 124.5,-336.5"/>
<text text-anchor="middle" x="171" y="-343.5" font-family="Helvetica,sans-Serif" font-size="10.00" fill="#000000">queue_inlines.h</text>
</a>
</g>
</g>
<!-- Node21&#45;&gt;Node22 -->
<g id="edge20" class="edge">
<title>Node21&#45;&gt;Node22</title>
<path fill="none" stroke="#191970" d="M171,-382.1575C171,-373.155 171,-362.9199 171,-355.6427"/>
<polygon fill="#191970" stroke="#191970" points="167.5001,-382.2455 171,-392.2455 174.5001,-382.2456 167.5001,-382.2455"/>
</g>
</g>
</svg>
