<?xml version="1.0" encoding="UTF-8" standalone="no"?>
<!DOCTYPE svg PUBLIC "-//W3C//DTD SVG 1.1//EN"
 "http://www.w3.org/Graphics/SVG/1.1/DTD/svg11.dtd">
<!-- Generated by graphviz version 2.40.1 (20161225.0304)
 -->
<!-- Title: packet.h Pages: 1 -->
<svg width="512pt" height="364pt"
 viewBox="0.00 0.00 512.39 364.00" xmlns="http://www.w3.org/2000/svg" xmlns:xlink="http://www.w3.org/1999/xlink">
<g id="graph0" class="graph" transform="scale(1 1) rotate(0) translate(4 360)">
<title>packet.h</title>
<polygon fill="#ffffff" stroke="transparent" points="-4,4 -4,-360 508.3857,-360 508.3857,4 -4,4"/>
<!-- Node0 -->
<g id="node1" class="node">
<title>Node0</title>
<polygon fill="#bfbfbf" stroke="#000000" points="195.8857,-336.5 195.8857,-355.5 254.8857,-355.5 254.8857,-336.5 195.8857,-336.5"/>
<text text-anchor="middle" x="225.3857" y="-343.5" font-family="Helvetica,sans-Serif" font-size="10.00" fill="#000000">packet.h</text>
</g>
<!-- Node1 -->
<g id="node2" class="node">
<title>Node1</title>
<polygon fill="#ffffff" stroke="#bfbfbf" points="75.8857,-.5 75.8857,-19.5 196.8857,-19.5 196.8857,-.5 75.8857,-.5"/>
<text text-anchor="middle" x="136.3857" y="-7.5" font-family="Helvetica,sans-Serif" font-size="10.00" fill="#000000">odp/visibility_begin.h</text>
</g>
<!-- Node0&#45;&gt;Node1 -->
<g id="edge1" class="edge">
<title>Node0&#45;&gt;Node1</title>
<path fill="none" stroke="#191970" d="M195.5075,-344.6278C134.3031,-340.0471 .3857,-320.178 .3857,-234 .3857,-234 .3857,-234 .3857,-122 .3857,-91.4754 -1.1572,-78.5775 19.3857,-56 33.9655,-39.9762 54.8281,-29.4629 74.9098,-22.5958"/>
<polygon fill="#191970" stroke="#191970" points="76.1942,-25.8605 84.6743,-19.5094 74.0844,-19.186 76.1942,-25.8605"/>
</g>
<!-- Node2 -->
<g id="node3" class="node">
<title>Node2</title>
<g id="a_node3"><a xlink:href="time_8h.html" target="_top" xlink:title="ODP time. ">
<polygon fill="#ffffff" stroke="#000000" points="181.8857,-280.5 181.8857,-299.5 268.8857,-299.5 268.8857,-280.5 181.8857,-280.5"/>
<text text-anchor="middle" x="225.3857" y="-287.5" font-family="Helvetica,sans-Serif" font-size="10.00" fill="#000000">odp/api/time.h</text>
</a>
</g>
</g>
<!-- Node0&#45;&gt;Node2 -->
<g id="edge2" class="edge">
<title>Node0&#45;&gt;Node2</title>
<path fill="none" stroke="#191970" d="M225.3857,-336.2455C225.3857,-328.9382 225.3857,-318.6944 225.3857,-309.7046"/>
<polygon fill="#191970" stroke="#191970" points="228.8858,-309.6426 225.3857,-299.6427 221.8858,-309.6427 228.8858,-309.6426"/>
</g>
<!-- Node10 -->
<g id="node11" class="node">
<title>Node10</title>
<polygon fill="#ffffff" stroke="#bfbfbf" points="232.3857,-.5 232.3857,-19.5 344.3857,-19.5 344.3857,-.5 232.3857,-.5"/>
<text text-anchor="middle" x="288.3857" y="-7.5" font-family="Helvetica,sans-Serif" font-size="10.00" fill="#000000">odp/visibility_end.h</text>
</g>
<!-- Node0&#45;&gt;Node10 -->
<g id="edge18" class="edge">
<title>Node0&#45;&gt;Node10</title>
<path fill="none" stroke="#191970" d="M254.9795,-340.6547C326.7835,-326.8461 504.3857,-287.3038 504.3857,-234 504.3857,-234 504.3857,-234 504.3857,-122 504.3857,-53.6357 418.057,-26.9475 354.5527,-16.5637"/>
<polygon fill="#191970" stroke="#191970" points="354.9883,-13.0896 344.5733,-15.0332 353.9272,-20.0087 354.9883,-13.0896"/>
</g>
<!-- Node3 -->
<g id="node4" class="node">
<title>Node3</title>
<g id="a_node4"><a xlink:href="std__types_8h.html" target="_top" xlink:title="Standard C language types and definitions for ODP. ">
<polygon fill="#ffffff" stroke="#000000" points="169.3857,-224.5 169.3857,-243.5 281.3857,-243.5 281.3857,-224.5 169.3857,-224.5"/>
<text text-anchor="middle" x="225.3857" y="-231.5" font-family="Helvetica,sans-Serif" font-size="10.00" fill="#000000">odp/api/std_types.h</text>
</a>
</g>
</g>
<!-- Node2&#45;&gt;Node3 -->
<g id="edge3" class="edge">
<title>Node2&#45;&gt;Node3</title>
<path fill="none" stroke="#191970" d="M225.3857,-280.2455C225.3857,-272.9382 225.3857,-262.6944 225.3857,-253.7046"/>
<polygon fill="#191970" stroke="#191970" points="228.8858,-253.6426 225.3857,-243.6427 221.8858,-253.6427 228.8858,-253.6426"/>
</g>
<!-- Node11 -->
<g id="node12" class="node">
<title>Node11</title>
<polygon fill="#ffffff" stroke="#bfbfbf" points="299.8857,-224.5 299.8857,-243.5 404.8857,-243.5 404.8857,-224.5 299.8857,-224.5"/>
<text text-anchor="middle" x="352.3857" y="-231.5" font-family="Helvetica,sans-Serif" font-size="10.00" fill="#000000">odp/api/abi/time.h</text>
</g>
<!-- Node2&#45;&gt;Node11 -->
<g id="edge14" class="edge">
<title>Node2&#45;&gt;Node11</title>
<path fill="none" stroke="#191970" d="M247.2178,-280.3733C267.696,-271.3435 298.5256,-257.7494 321.5177,-247.6111"/>
<polygon fill="#191970" stroke="#191970" points="323.1007,-250.7383 330.8385,-243.5011 320.2764,-244.3333 323.1007,-250.7383"/>
</g>
<!-- Node12 -->
<g id="node13" class="node">
<title>Node12</title>
<g id="a_node13"><a xlink:href="spec_2time_8h.html" target="_top" xlink:title="ODP time. ">
<polygon fill="#ffffff" stroke="#000000" points="28.8857,-56.5 28.8857,-75.5 141.8857,-75.5 141.8857,-56.5 28.8857,-56.5"/>
<text text-anchor="middle" x="85.3857" y="-63.5" font-family="Helvetica,sans-Serif" font-size="10.00" fill="#000000">odp/api/spec/time.h</text>
</a>
</g>
</g>
<!-- Node2&#45;&gt;Node12 -->
<g id="edge15" class="edge">
<title>Node2&#45;&gt;Node12</title>
<path fill="none" stroke="#191970" d="M206.4037,-280.3687C192.1268,-272.3088 172.9412,-259.6267 160.3857,-244 120.5854,-194.4642 98.6132,-120.7351 89.8828,-85.7693"/>
<polygon fill="#191970" stroke="#191970" points="93.242,-84.7677 87.5078,-75.8587 86.4347,-86.3991 93.242,-84.7677"/>
</g>
<!-- Node4 -->
<g id="node5" class="node">
<title>Node4</title>
<polygon fill="#ffffff" stroke="#bfbfbf" points="312.3857,-168.5 312.3857,-187.5 442.3857,-187.5 442.3857,-168.5 312.3857,-168.5"/>
<text text-anchor="middle" x="377.3857" y="-175.5" font-family="Helvetica,sans-Serif" font-size="10.00" fill="#000000">odp/api/abi/std_types.h</text>
</g>
<!-- Node3&#45;&gt;Node4 -->
<g id="edge4" class="edge">
<title>Node3&#45;&gt;Node4</title>
<path fill="none" stroke="#191970" d="M251.5155,-224.3733C276.4625,-215.1822 314.2449,-201.2624 341.9064,-191.0713"/>
<polygon fill="#191970" stroke="#191970" points="343.4235,-194.2424 351.597,-187.5011 341.0035,-187.674 343.4235,-194.2424"/>
</g>
<!-- Node5 -->
<g id="node6" class="node">
<title>Node5</title>
<g id="a_node6"><a xlink:href="spec_2std__types_8h.html" target="_top" xlink:title="Standard C language types and definitions for ODP. ">
<polygon fill="#ffffff" stroke="#000000" points="156.8857,-168.5 156.8857,-187.5 293.8857,-187.5 293.8857,-168.5 156.8857,-168.5"/>
<text text-anchor="middle" x="225.3857" y="-175.5" font-family="Helvetica,sans-Serif" font-size="10.00" fill="#000000">odp/api/spec/std_types.h</text>
</a>
</g>
</g>
<!-- Node3&#45;&gt;Node5 -->
<g id="edge5" class="edge">
<title>Node3&#45;&gt;Node5</title>
<path fill="none" stroke="#191970" d="M225.3857,-224.2455C225.3857,-216.9382 225.3857,-206.6944 225.3857,-197.7046"/>
<polygon fill="#191970" stroke="#191970" points="228.8858,-197.6426 225.3857,-187.6427 221.8858,-197.6427 228.8858,-197.6426"/>
</g>
<!-- Node5&#45;&gt;Node1 -->
<g id="edge6" class="edge">
<title>Node5&#45;&gt;Node1</title>
<path fill="none" stroke="#191970" d="M216.5991,-168.3026C208.779,-159.34 197.374,-145.4195 189.3857,-132 168.9096,-97.6022 151.8624,-53.8495 142.9891,-29.183"/>
<polygon fill="#191970" stroke="#191970" points="146.2287,-27.8452 139.6022,-19.5784 139.6271,-30.1732 146.2287,-27.8452"/>
</g>
<!-- Node6 -->
<g id="node7" class="node">
<title>Node6</title>
<polygon fill="#ffffff" stroke="#bfbfbf" points="198.8857,-112.5 198.8857,-131.5 251.8857,-131.5 251.8857,-112.5 198.8857,-112.5"/>
<text text-anchor="middle" x="225.3857" y="-119.5" font-family="Helvetica,sans-Serif" font-size="10.00" fill="#000000">stdint.h</text>
</g>
<!-- Node5&#45;&gt;Node6 -->
<g id="edge7" class="edge">
<title>Node5&#45;&gt;Node6</title>
<path fill="none" stroke="#191970" d="M225.3857,-168.2455C225.3857,-160.9382 225.3857,-150.6944 225.3857,-141.7046"/>
<polygon fill="#191970" stroke="#191970" points="228.8858,-141.6426 225.3857,-131.6427 221.8858,-141.6427 228.8858,-141.6426"/>
</g>
<!-- Node7 -->
<g id="node8" class="node">
<title>Node7</title>
<g id="a_node8"><a xlink:href="align_8h.html" target="_top" xlink:title="ODP alignments. ">
<polygon fill="#ffffff" stroke="#000000" points="269.8857,-112.5 269.8857,-131.5 358.8857,-131.5 358.8857,-112.5 269.8857,-112.5"/>
<text text-anchor="middle" x="314.3857" y="-119.5" font-family="Helvetica,sans-Serif" font-size="10.00" fill="#000000">odp/api/align.h</text>
</a>
</g>
</g>
<!-- Node5&#45;&gt;Node7 -->
<g id="edge8" class="edge">
<title>Node5&#45;&gt;Node7</title>
<path fill="none" stroke="#191970" d="M240.8883,-168.2455C254.5437,-159.6534 274.6514,-147.0014 290.3846,-137.1018"/>
<polygon fill="#191970" stroke="#191970" points="292.4608,-139.9307 299.0608,-131.6427 288.7328,-134.006 292.4608,-139.9307"/>
</g>
<!-- Node5&#45;&gt;Node10 -->
<g id="edge13" class="edge">
<title>Node5&#45;&gt;Node10</title>
<path fill="none" stroke="#191970" d="M294.1054,-168.8618C347.9223,-157.4847 418.3661,-132.142 447.3857,-76 451.4673,-68.1036 452.7268,-63.1053 447.3857,-56 435.8546,-40.66 393.0748,-28.8053 354.7922,-20.9747"/>
<polygon fill="#191970" stroke="#191970" points="355.1514,-17.4781 344.6624,-18.9722 353.7938,-24.3452 355.1514,-17.4781"/>
</g>
<!-- Node8 -->
<g id="node9" class="node">
<title>Node8</title>
<polygon fill="#ffffff" stroke="#bfbfbf" points="330.8857,-56.5 330.8857,-75.5 437.8857,-75.5 437.8857,-56.5 330.8857,-56.5"/>
<text text-anchor="middle" x="384.3857" y="-63.5" font-family="Helvetica,sans-Serif" font-size="10.00" fill="#000000">odp/api/abi/align.h</text>
</g>
<!-- Node7&#45;&gt;Node8 -->
<g id="edge9" class="edge">
<title>Node7&#45;&gt;Node8</title>
<path fill="none" stroke="#191970" d="M326.5788,-112.2455C337.0178,-103.8943 352.2512,-91.7076 364.4597,-81.9408"/>
<polygon fill="#191970" stroke="#191970" points="366.7101,-84.6227 372.3324,-75.6427 362.3372,-79.1566 366.7101,-84.6227"/>
</g>
<!-- Node9 -->
<g id="node10" class="node">
<title>Node9</title>
<g id="a_node10"><a xlink:href="spec_2align_8h.html" target="_top" xlink:title="ODP alignments. ">
<polygon fill="#ffffff" stroke="#000000" points="198.3857,-56.5 198.3857,-75.5 312.3857,-75.5 312.3857,-56.5 198.3857,-56.5"/>
<text text-anchor="middle" x="255.3857" y="-63.5" font-family="Helvetica,sans-Serif" font-size="10.00" fill="#000000">odp/api/spec/align.h</text>
</a>
</g>
</g>
<!-- Node7&#45;&gt;Node9 -->
<g id="edge10" class="edge">
<title>Node7&#45;&gt;Node9</title>
<path fill="none" stroke="#191970" d="M304.1087,-112.2455C295.5639,-104.1352 283.2079,-92.4075 273.0772,-82.7919"/>
<polygon fill="#191970" stroke="#191970" points="275.2076,-79.9884 265.545,-75.6427 270.3886,-85.0655 275.2076,-79.9884"/>
</g>
<!-- Node9&#45;&gt;Node1 -->
<g id="edge11" class="edge">
<title>Node9&#45;&gt;Node1</title>
<path fill="none" stroke="#191970" d="M234.9289,-56.3733C215.912,-47.4241 187.3682,-33.9917 165.8881,-23.8835"/>
<polygon fill="#191970" stroke="#191970" points="167.1141,-20.5923 156.5756,-19.5011 164.1335,-26.926 167.1141,-20.5923"/>
</g>
<!-- Node9&#45;&gt;Node10 -->
<g id="edge12" class="edge">
<title>Node9&#45;&gt;Node10</title>
<path fill="none" stroke="#191970" d="M261.1339,-56.2455C265.6293,-48.617 272.0106,-37.7881 277.4682,-28.5267"/>
<polygon fill="#191970" stroke="#191970" points="280.6419,-30.035 282.7034,-19.6427 274.6111,-26.4811 280.6419,-30.035"/>
</g>
<!-- Node12&#45;&gt;Node1 -->
<g id="edge16" class="edge">
<title>Node12&#45;&gt;Node1</title>
<path fill="none" stroke="#191970" d="M94.2692,-56.2455C101.5823,-48.2155 112.1249,-36.6394 120.8324,-27.0781"/>
<polygon fill="#191970" stroke="#191970" points="123.4584,-29.3928 127.604,-19.6427 118.283,-24.6795 123.4584,-29.3928"/>
</g>
<!-- Node12&#45;&gt;Node10 -->
<g id="edge17" class="edge">
<title>Node12&#45;&gt;Node10</title>
<path fill="none" stroke="#191970" d="M120.2827,-56.3733C154.4769,-46.9404 206.7272,-32.5265 243.89,-22.2747"/>
<polygon fill="#191970" stroke="#191970" points="245.235,-25.5345 253.9442,-19.5011 243.3734,-18.7865 245.235,-25.5345"/>
</g>
</g>
</svg>
