<?xml version="1.0" encoding="UTF-8" standalone="no"?>
<!DOCTYPE svg PUBLIC "-//W3C//DTD SVG 1.1//EN"
 "http://www.w3.org/Graphics/SVG/1.1/DTD/svg11.dtd">
<!-- Generated by graphviz version 2.40.1 (20161225.0304)
 -->
<!-- Title: queue.h Pages: 1 -->
<svg width="279pt" height="420pt"
 viewBox="0.00 0.00 279.00 420.00" xmlns="http://www.w3.org/2000/svg" xmlns:xlink="http://www.w3.org/1999/xlink">
<g id="graph0" class="graph" transform="scale(1 1) rotate(0) translate(4 416)">
<title>queue.h</title>
<polygon fill="#ffffff" stroke="transparent" points="-4,4 -4,-416 275,-416 275,4 -4,4"/>
<!-- Node31 -->
<g id="node1" class="node">
<title>Node31</title>
<polygon fill="#bfbfbf" stroke="#000000" points="90,-392.5 90,-411.5 146,-411.5 146,-392.5 90,-392.5"/>
<text text-anchor="middle" x="118" y="-399.5" font-family="Helvetica,sans-Serif" font-size="10.00" fill="#000000">queue.h</text>
</g>
<!-- Node32 -->
<g id="node2" class="node">
<title>Node32</title>
<g id="a_node2"><a xlink:href="queue_8h.html" target="_top" xlink:title="ODP queue. ">
<polygon fill="#ffffff" stroke="#000000" points="90,-336.5 90,-355.5 146,-355.5 146,-336.5 90,-336.5"/>
<text text-anchor="middle" x="118" y="-343.5" font-family="Helvetica,sans-Serif" font-size="10.00" fill="#000000">queue.h</text>
</a>
</g>
</g>
<!-- Node31&#45;&gt;Node32 -->
<g id="edge1" class="edge">
<title>Node31&#45;&gt;Node32</title>
<path fill="none" stroke="#191970" d="M118,-382.1575C118,-373.155 118,-362.9199 118,-355.6427"/>
<polygon fill="#191970" stroke="#191970" points="114.5001,-382.2455 118,-392.2455 121.5001,-382.2456 114.5001,-382.2455"/>
</g>
<!-- Node33 -->
<g id="node3" class="node">
<title>Node33</title>
<g id="a_node3"><a xlink:href="crypto_8h.html" target="_top" xlink:title="ODP crypto. ">
<polygon fill="#ffffff" stroke="#000000" points="0,-224.5 0,-243.5 56,-243.5 56,-224.5 0,-224.5"/>
<text text-anchor="middle" x="28" y="-231.5" font-family="Helvetica,sans-Serif" font-size="10.00" fill="#000000">crypto.h</text>
</a>
</g>
</g>
<!-- Node32&#45;&gt;Node33 -->
<g id="edge2" class="edge">
<title>Node32&#45;&gt;Node33</title>
<path fill="none" stroke="#191970" d="M99.6549,-329.2748C90.866,-320.868 80.4425,-310.2981 72,-300 56.6338,-281.2563 41.5993,-257.0899 33.7033,-243.8163"/>
<polygon fill="#191970" stroke="#191970" points="97.475,-332.0288 107.1631,-336.3174 102.2639,-326.9233 97.475,-332.0288"/>
</g>
<!-- Node36 -->
<g id="node6" class="node">
<title>Node36</title>
<g id="a_node6"><a xlink:href="spec_2packet__io_8h.html" target="_top" xlink:title="ODP Packet IO. ">
<polygon fill="#ffffff" stroke="#000000" points="81.5,-280.5 81.5,-299.5 154.5,-299.5 154.5,-280.5 81.5,-280.5"/>
<text text-anchor="middle" x="118" y="-287.5" font-family="Helvetica,sans-Serif" font-size="10.00" fill="#000000">packet_io.h</text>
</a>
</g>
</g>
<!-- Node32&#45;&gt;Node36 -->
<g id="edge5" class="edge">
<title>Node32&#45;&gt;Node36</title>
<path fill="none" stroke="#191970" d="M118,-326.1575C118,-317.155 118,-306.9199 118,-299.6427"/>
<polygon fill="#191970" stroke="#191970" points="114.5001,-326.2455 118,-336.2455 121.5001,-326.2456 114.5001,-326.2455"/>
</g>
<!-- Node42 -->
<g id="node12" class="node">
<title>Node42</title>
<g id="a_node12"><a xlink:href="spec_2schedule_8h.html" target="_top" xlink:title="ODP schedule. ">
<polygon fill="#ffffff" stroke="#000000" points="172.5,-280.5 172.5,-299.5 241.5,-299.5 241.5,-280.5 172.5,-280.5"/>
<text text-anchor="middle" x="207" y="-287.5" font-family="Helvetica,sans-Serif" font-size="10.00" fill="#000000">schedule.h</text>
</a>
</g>
</g>
<!-- Node32&#45;&gt;Node42 -->
<g id="edge14" class="edge">
<title>Node32&#45;&gt;Node42</title>
<path fill="none" stroke="#191970" d="M142.2064,-330.769C157.9775,-320.8456 178.076,-308.1994 191.675,-299.6427"/>
<polygon fill="#191970" stroke="#191970" points="140.1026,-327.9575 133.5026,-336.2455 143.8305,-333.8823 140.1026,-327.9575"/>
</g>
<!-- Node34 -->
<g id="node4" class="node">
<title>Node34</title>
<g id="a_node4"><a xlink:href="spec_2ipsec_8h.html" target="_top" xlink:title="ODP IPSEC API. ">
<polygon fill="#ffffff" stroke="#000000" points="62.5,-56.5 62.5,-75.5 113.5,-75.5 113.5,-56.5 62.5,-56.5"/>
<text text-anchor="middle" x="88" y="-63.5" font-family="Helvetica,sans-Serif" font-size="10.00" fill="#000000">ipsec.h</text>
</a>
</g>
</g>
<!-- Node33&#45;&gt;Node34 -->
<g id="edge3" class="edge">
<title>Node33&#45;&gt;Node34</title>
<path fill="none" stroke="#191970" d="M32.5198,-214.4632C38.4519,-190.0366 49.7978,-147.1578 64,-112 69.2632,-98.9709 77.024,-84.7394 82.284,-75.6092"/>
<polygon fill="#191970" stroke="#191970" points="29.0906,-213.7556 30.1844,-224.2938 35.901,-215.3736 29.0906,-213.7556"/>
</g>
<!-- Node35 -->
<g id="node5" class="node">
<title>Node35</title>
<g id="a_node5"><a xlink:href="ipsec_8h.html" target="_top" xlink:title="ODP IPSEC API &#45; platform specific header. ">
<polygon fill="#ffffff" stroke="#000000" points="62.5,-.5 62.5,-19.5 113.5,-19.5 113.5,-.5 62.5,-.5"/>
<text text-anchor="middle" x="88" y="-7.5" font-family="Helvetica,sans-Serif" font-size="10.00" fill="#000000">ipsec.h</text>
</a>
</g>
</g>
<!-- Node34&#45;&gt;Node35 -->
<g id="edge4" class="edge">
<title>Node34&#45;&gt;Node35</title>
<path fill="none" stroke="#191970" d="M88,-46.1575C88,-37.155 88,-26.9199 88,-19.6427"/>
<polygon fill="#191970" stroke="#191970" points="84.5001,-46.2455 88,-56.2455 91.5001,-46.2456 84.5001,-46.2455"/>
</g>
<!-- Node37 -->
<g id="node7" class="node">
<title>Node37</title>
<g id="a_node7"><a xlink:href="packet__io_8h.html" target="_top" xlink:title="ODP Packet IO. ">
<polygon fill="#ffffff" stroke="#000000" points="81.5,-224.5 81.5,-243.5 154.5,-243.5 154.5,-224.5 81.5,-224.5"/>
<text text-anchor="middle" x="118" y="-231.5" font-family="Helvetica,sans-Serif" font-size="10.00" fill="#000000">packet_io.h</text>
</a>
</g>
</g>
<!-- Node36&#45;&gt;Node37 -->
<g id="edge6" class="edge">
<title>Node36&#45;&gt;Node37</title>
<path fill="none" stroke="#191970" d="M118,-270.1575C118,-261.155 118,-250.9199 118,-243.6427"/>
<polygon fill="#191970" stroke="#191970" points="114.5001,-270.2455 118,-280.2455 121.5001,-270.2456 114.5001,-270.2455"/>
</g>
<!-- Node37&#45;&gt;Node34 -->
<g id="edge10" class="edge">
<title>Node37&#45;&gt;Node34</title>
<path fill="none" stroke="#191970" d="M95.2518,-217.757C86.2137,-209.9119 76.8312,-199.6637 72,-188 55.732,-148.7257 74.4239,-96.7905 83.5541,-75.6102"/>
<polygon fill="#191970" stroke="#191970" points="93.333,-220.7058 103.3148,-224.2577 97.7266,-215.2564 93.333,-220.7058"/>
</g>
<!-- Node38 -->
<g id="node8" class="node">
<title>Node38</title>
<g id="a_node8"><a xlink:href="spec_2classification_8h.html" target="_top" xlink:title="ODP classification descriptor. ">
<polygon fill="#ffffff" stroke="#000000" points="80.5,-168.5 80.5,-187.5 169.5,-187.5 169.5,-168.5 80.5,-168.5"/>
<text text-anchor="middle" x="125" y="-175.5" font-family="Helvetica,sans-Serif" font-size="10.00" fill="#000000">classification.h</text>
</a>
</g>
</g>
<!-- Node37&#45;&gt;Node38 -->
<g id="edge7" class="edge">
<title>Node37&#45;&gt;Node38</title>
<path fill="none" stroke="#191970" d="M120.4803,-214.1575C121.6056,-205.155 122.885,-194.9199 123.7947,-187.6427"/>
<polygon fill="#191970" stroke="#191970" points="116.9868,-213.8886 119.2193,-224.2455 123.9327,-214.7569 116.9868,-213.8886"/>
</g>
<!-- Node40 -->
<g id="node10" class="node">
<title>Node40</title>
<g id="a_node10"><a xlink:href="spec_2traffic__mngr_8h.html" target="_top" xlink:title="Copyright (c) 2015&#45;2018, Linaro Limited All rights reserved. ">
<polygon fill="#ffffff" stroke="#000000" points="187,-168.5 187,-187.5 271,-187.5 271,-168.5 187,-168.5"/>
<text text-anchor="middle" x="229" y="-175.5" font-family="Helvetica,sans-Serif" font-size="10.00" fill="#000000">traffic_mngr.h</text>
</a>
</g>
</g>
<!-- Node37&#45;&gt;Node40 -->
<g id="edge11" class="edge">
<title>Node37&#45;&gt;Node40</title>
<path fill="none" stroke="#191970" d="M146.0734,-219.8368C166.1385,-209.7139 192.5922,-196.3679 210.1674,-187.5011"/>
<polygon fill="#191970" stroke="#191970" points="144.4332,-216.7441 137.0816,-224.3733 147.5862,-222.9938 144.4332,-216.7441"/>
</g>
<!-- Node39 -->
<g id="node9" class="node">
<title>Node39</title>
<g id="a_node9"><a xlink:href="classification_8h.html" target="_top" xlink:title="ODP classification descriptor. ">
<polygon fill="#ffffff" stroke="#000000" points="80.5,-112.5 80.5,-131.5 169.5,-131.5 169.5,-112.5 80.5,-112.5"/>
<text text-anchor="middle" x="125" y="-119.5" font-family="Helvetica,sans-Serif" font-size="10.00" fill="#000000">classification.h</text>
</a>
</g>
</g>
<!-- Node38&#45;&gt;Node39 -->
<g id="edge8" class="edge">
<title>Node38&#45;&gt;Node39</title>
<path fill="none" stroke="#191970" d="M125,-158.1575C125,-149.155 125,-138.9199 125,-131.6427"/>
<polygon fill="#191970" stroke="#191970" points="121.5001,-158.2455 125,-168.2455 128.5001,-158.2456 121.5001,-158.2455"/>
</g>
<!-- Node39&#45;&gt;Node34 -->
<g id="edge9" class="edge">
<title>Node39&#45;&gt;Node34</title>
<path fill="none" stroke="#191970" d="M112.8624,-103.6296C106.6907,-94.2887 99.4434,-83.3197 94.3711,-75.6427"/>
<polygon fill="#191970" stroke="#191970" points="110.1223,-105.8316 118.5551,-112.2455 115.9627,-101.9728 110.1223,-105.8316"/>
</g>
<!-- Node41 -->
<g id="node11" class="node">
<title>Node41</title>
<g id="a_node11"><a xlink:href="traffic__mngr_8h.html" target="_top" xlink:title="ODP Traffic manager. ">
<polygon fill="#ffffff" stroke="#000000" points="187,-112.5 187,-131.5 271,-131.5 271,-112.5 187,-112.5"/>
<text text-anchor="middle" x="229" y="-119.5" font-family="Helvetica,sans-Serif" font-size="10.00" fill="#000000">traffic_mngr.h</text>
</a>
</g>
</g>
<!-- Node40&#45;&gt;Node41 -->
<g id="edge12" class="edge">
<title>Node40&#45;&gt;Node41</title>
<path fill="none" stroke="#191970" d="M229,-158.1575C229,-149.155 229,-138.9199 229,-131.6427"/>
<polygon fill="#191970" stroke="#191970" points="225.5001,-158.2455 229,-168.2455 232.5001,-158.2456 225.5001,-158.2455"/>
</g>
<!-- Node41&#45;&gt;Node34 -->
<g id="edge13" class="edge">
<title>Node41&#45;&gt;Node34</title>
<path fill="none" stroke="#191970" d="M195.3968,-108.6541C169.6841,-98.4419 134.8539,-84.6086 111.9225,-75.5011"/>
<polygon fill="#191970" stroke="#191970" points="194.1755,-111.9349 204.7612,-112.3733 196.7593,-105.4292 194.1755,-111.9349"/>
</g>
<!-- Node43 -->
<g id="node13" class="node">
<title>Node43</title>
<g id="a_node13"><a xlink:href="schedule_8h.html" target="_top" xlink:title="ODP schedule. ">
<polygon fill="#ffffff" stroke="#000000" points="172.5,-224.5 172.5,-243.5 241.5,-243.5 241.5,-224.5 172.5,-224.5"/>
<text text-anchor="middle" x="207" y="-231.5" font-family="Helvetica,sans-Serif" font-size="10.00" fill="#000000">schedule.h</text>
</a>
</g>
</g>
<!-- Node42&#45;&gt;Node43 -->
<g id="edge15" class="edge">
<title>Node42&#45;&gt;Node43</title>
<path fill="none" stroke="#191970" d="M207,-270.1575C207,-261.155 207,-250.9199 207,-243.6427"/>
<polygon fill="#191970" stroke="#191970" points="203.5001,-270.2455 207,-280.2455 210.5001,-270.2456 203.5001,-270.2455"/>
</g>
</g>
</svg>
