<?xml version="1.0" encoding="UTF-8" standalone="no"?>
<!DOCTYPE svg PUBLIC "-//W3C//DTD SVG 1.1//EN"
 "http://www.w3.org/Graphics/SVG/1.1/DTD/svg11.dtd">
<!-- Generated by graphviz version 2.40.1 (20161225.0304)
 -->
<!-- Title: align.h Pages: 1 -->
<svg width="2689pt" height="532pt"
 viewBox="0.00 0.00 2688.50 532.00" xmlns="http://www.w3.org/2000/svg" xmlns:xlink="http://www.w3.org/1999/xlink">
<g id="graph0" class="graph" transform="scale(1 1) rotate(0) translate(4 528)">
<title>align.h</title>
<polygon fill="#ffffff" stroke="transparent" points="-4,4 -4,-528 2684.5,-528 2684.5,4 -4,4"/>
<!-- Node3 -->
<g id="node1" class="node">
<title>Node3</title>
<polygon fill="#bfbfbf" stroke="#000000" points="119.5,-504.5 119.5,-523.5 169.5,-523.5 169.5,-504.5 119.5,-504.5"/>
<text text-anchor="middle" x="144.5" y="-511.5" font-family="Helvetica,sans-Serif" font-size="10.00" fill="#000000">align.h</text>
</g>
<!-- Node4 -->
<g id="node2" class="node">
<title>Node4</title>
<g id="a_node2"><a xlink:href="align_8h.html" target="_top" xlink:title="ODP alignments. ">
<polygon fill="#ffffff" stroke="#000000" points="119.5,-448.5 119.5,-467.5 169.5,-467.5 169.5,-448.5 119.5,-448.5"/>
<text text-anchor="middle" x="144.5" y="-455.5" font-family="Helvetica,sans-Serif" font-size="10.00" fill="#000000">align.h</text>
</a>
</g>
</g>
<!-- Node3&#45;&gt;Node4 -->
<g id="edge1" class="edge">
<title>Node3&#45;&gt;Node4</title>
<path fill="none" stroke="#191970" d="M144.5,-494.1575C144.5,-485.155 144.5,-474.9199 144.5,-467.6427"/>
<polygon fill="#191970" stroke="#191970" points="141.0001,-494.2455 144.5,-504.2455 148.0001,-494.2456 141.0001,-494.2455"/>
</g>
<!-- Node5 -->
<g id="node3" class="node">
<title>Node5</title>
<g id="a_node3"><a xlink:href="abi-default_2atomic_8h.html" target="_top" xlink:title="ODP atomic operations. ">
<polygon fill="#ffffff" stroke="#000000" points="0,-280.5 0,-299.5 59,-299.5 59,-280.5 0,-280.5"/>
<text text-anchor="middle" x="29.5" y="-287.5" font-family="Helvetica,sans-Serif" font-size="10.00" fill="#000000">atomic.h</text>
</a>
</g>
</g>
<!-- Node4&#45;&gt;Node5 -->
<g id="edge2" class="edge">
<title>Node4&#45;&gt;Node5</title>
<path fill="none" stroke="#191970" d="M132.2465,-440.0993C108.0784,-404.7928 54.9862,-327.232 36.2274,-299.8279"/>
<polygon fill="#191970" stroke="#191970" points="129.4508,-442.2114 137.9876,-448.4862 135.2271,-438.2573 129.4508,-442.2114"/>
</g>
<!-- Node6 -->
<g id="node4" class="node">
<title>Node6</title>
<g id="a_node4"><a xlink:href="abi-default_2cpumask_8h.html" target="_top" xlink:title="ODP CPU masks and enumeration. ">
<polygon fill="#ffffff" stroke="#000000" points="77.5,-280.5 77.5,-299.5 147.5,-299.5 147.5,-280.5 77.5,-280.5"/>
<text text-anchor="middle" x="112.5" y="-287.5" font-family="Helvetica,sans-Serif" font-size="10.00" fill="#000000">cpumask.h</text>
</a>
</g>
</g>
<!-- Node4&#45;&gt;Node6 -->
<g id="edge3" class="edge">
<title>Node4&#45;&gt;Node6</title>
<path fill="none" stroke="#191970" d="M138.4369,-438.539C136.047,-430.3947 133.4202,-420.7945 131.5,-412 122.4465,-370.5338 116.0317,-320.2296 113.5898,-299.5639"/>
<polygon fill="#191970" stroke="#191970" points="135.1185,-439.6574 141.3629,-448.2164 141.819,-437.6314 135.1185,-439.6574"/>
</g>
<!-- Node7 -->
<g id="node5" class="node">
<title>Node7</title>
<g id="a_node5"><a xlink:href="spec_2std__types_8h.html" target="_top" xlink:title="Standard C language types and definitions for ODP. ">
<polygon fill="#ffffff" stroke="#000000" points="141,-392.5 141,-411.5 214,-411.5 214,-392.5 141,-392.5"/>
<text text-anchor="middle" x="177.5" y="-399.5" font-family="Helvetica,sans-Serif" font-size="10.00" fill="#000000">std_types.h</text>
</a>
</g>
</g>
<!-- Node4&#45;&gt;Node7 -->
<g id="edge4" class="edge">
<title>Node4&#45;&gt;Node7</title>
<path fill="none" stroke="#191970" d="M155.3254,-439.6296C160.8299,-430.2887 167.2937,-419.3197 171.8177,-411.6427"/>
<polygon fill="#191970" stroke="#191970" points="152.3097,-437.8532 150.2482,-448.2455 158.3405,-441.4071 152.3097,-437.8532"/>
</g>
<!-- Node68 -->
<g id="node50" class="node">
<title>Node68</title>
<g id="a_node50"><a xlink:href="time__inlines_8h_source.html" target="_top" xlink:title="time_inlines.h">
<polygon fill="#ffffff" stroke="#000000" points="232.5,-392.5 232.5,-411.5 318.5,-411.5 318.5,-392.5 232.5,-392.5"/>
<text text-anchor="middle" x="275.5" y="-399.5" font-family="Helvetica,sans-Serif" font-size="10.00" fill="#000000">time_inlines.h</text>
</a>
</g>
</g>
<!-- Node4&#45;&gt;Node68 -->
<g id="edge63" class="edge">
<title>Node4&#45;&gt;Node68</title>
<path fill="none" stroke="#191970" d="M176.3534,-444.3833C200.1785,-434.1985 232.1568,-420.5284 253.2742,-411.5011"/>
<polygon fill="#191970" stroke="#191970" points="174.839,-441.2242 167.0197,-448.3733 177.5906,-447.6608 174.839,-441.2242"/>
</g>
<!-- Node8 -->
<g id="node6" class="node">
<title>Node8</title>
<g id="a_node6"><a xlink:href="std__types_8h.html" target="_top" xlink:title="Standard C language types and definitions for ODP. ">
<polygon fill="#ffffff" stroke="#000000" points="1164,-336.5 1164,-355.5 1237,-355.5 1237,-336.5 1164,-336.5"/>
<text text-anchor="middle" x="1200.5" y="-343.5" font-family="Helvetica,sans-Serif" font-size="10.00" fill="#000000">std_types.h</text>
</a>
</g>
</g>
<!-- Node7&#45;&gt;Node8 -->
<g id="edge5" class="edge">
<title>Node7&#45;&gt;Node8</title>
<path fill="none" stroke="#191970" d="M224.1783,-392.186C430.3445,-366.8876 1011.7705,-350.7867 1163.7899,-346.9068"/>
<polygon fill="#191970" stroke="#191970" points="223.5389,-388.7391 214.0616,-393.4751 224.4238,-395.683 223.5389,-388.7391"/>
</g>
<!-- Node8&#45;&gt;Node5 -->
<g id="edge6" class="edge">
<title>Node8&#45;&gt;Node5</title>
<path fill="none" stroke="#191970" d="M1153.5343,-345.4082C967.6334,-342.8619 283.0205,-331.5024 68.5,-300 65.4571,-299.5531 62.3081,-298.9645 59.1793,-298.296"/>
<polygon fill="#191970" stroke="#191970" points="1153.7435,-348.9112 1163.7898,-345.5466 1153.838,-341.9119 1153.7435,-348.9112"/>
</g>
<!-- Node8&#45;&gt;Node6 -->
<g id="edge9" class="edge">
<title>Node8&#45;&gt;Node6</title>
<path fill="none" stroke="#191970" d="M1153.4831,-345.0503C976.8878,-341.309 353.2998,-326.481 156.5,-300 153.7051,-299.6239 150.8261,-299.1559 147.942,-298.6291"/>
<polygon fill="#191970" stroke="#191970" points="1153.6674,-348.5549 1163.7387,-345.2657 1153.8145,-341.5564 1153.6674,-348.5549"/>
</g>
<!-- Node9 -->
<g id="node7" class="node">
<title>Node9</title>
<g id="a_node7"><a xlink:href="abi-default_2barrier_8h.html" target="_top" xlink:title="ODP barrier. ">
<polygon fill="#ffffff" stroke="#000000" points="1965,-280.5 1965,-299.5 2022,-299.5 2022,-280.5 1965,-280.5"/>
<text text-anchor="middle" x="1993.5" y="-287.5" font-family="Helvetica,sans-Serif" font-size="10.00" fill="#000000">barrier.h</text>
</a>
</g>
</g>
<!-- Node8&#45;&gt;Node9 -->
<g id="edge7" class="edge">
<title>Node8&#45;&gt;Node9</title>
<path fill="none" stroke="#191970" d="M1247.248,-344.401C1389.992,-339.3217 1818.8277,-322.5521 1956.5,-300 1959.258,-299.5482 1962.1069,-298.9755 1964.9427,-298.3337"/>
<polygon fill="#191970" stroke="#191970" points="1246.9482,-340.9093 1237.078,-344.7602 1247.1954,-347.9049 1246.9482,-340.9093"/>
</g>
<!-- Node10 -->
<g id="node8" class="node">
<title>Node10</title>
<g id="a_node8"><a xlink:href="abi-default_2byteorder_8h.html" target="_top" xlink:title="ODP byteorder. ">
<polygon fill="#ffffff" stroke="#000000" points="2040.5,-280.5 2040.5,-299.5 2112.5,-299.5 2112.5,-280.5 2040.5,-280.5"/>
<text text-anchor="middle" x="2076.5" y="-287.5" font-family="Helvetica,sans-Serif" font-size="10.00" fill="#000000">byteorder.h</text>
</a>
</g>
</g>
<!-- Node8&#45;&gt;Node10 -->
<g id="edge8" class="edge">
<title>Node8&#45;&gt;Node10</title>
<path fill="none" stroke="#191970" d="M1247.6581,-344.4049C1400.0521,-339.0906 1878.2625,-321.1233 2031.5,-300 2034.3541,-299.6066 2037.2954,-299.126 2040.2429,-298.5907"/>
<polygon fill="#191970" stroke="#191970" points="1247.1304,-340.921 1237.2577,-344.7655 1247.373,-347.9168 1247.1304,-340.921"/>
</g>
<!-- Node11 -->
<g id="node9" class="node">
<title>Node11</title>
<g id="a_node9"><a xlink:href="abi-default_2init_8h.html" target="_top" xlink:title="ODP initialization. ">
<polygon fill="#ffffff" stroke="#000000" points="2131,-280.5 2131,-299.5 2172,-299.5 2172,-280.5 2131,-280.5"/>
<text text-anchor="middle" x="2151.5" y="-287.5" font-family="Helvetica,sans-Serif" font-size="10.00" fill="#000000">init.h</text>
</a>
</g>
</g>
<!-- Node8&#45;&gt;Node11 -->
<g id="edge10" class="edge">
<title>Node8&#45;&gt;Node11</title>
<path fill="none" stroke="#191970" d="M1247.3568,-345.3393C1410.2457,-342.7805 1951.1833,-332.0189 2121.5,-300 2124.5215,-299.432 2127.6567,-298.6339 2130.7111,-297.7337"/>
<polygon fill="#191970" stroke="#191970" points="1247.1271,-341.8423 1237.1823,-345.4961 1247.235,-348.8415 1247.1271,-341.8423"/>
</g>
<!-- Node12 -->
<g id="node10" class="node">
<title>Node12</title>
<g id="a_node10"><a xlink:href="abi-default_2ipsec_8h.html" target="_top" xlink:title="ODP IPSEC API &#45; platform specific types. ">
<polygon fill="#ffffff" stroke="#000000" points="2190,-280.5 2190,-299.5 2241,-299.5 2241,-280.5 2190,-280.5"/>
<text text-anchor="middle" x="2215.5" y="-287.5" font-family="Helvetica,sans-Serif" font-size="10.00" fill="#000000">ipsec.h</text>
</a>
</g>
</g>
<!-- Node8&#45;&gt;Node12 -->
<g id="edge11" class="edge">
<title>Node8&#45;&gt;Node12</title>
<path fill="none" stroke="#191970" d="M1247.2453,-345.2885C1416.6999,-342.4787 1998.3799,-330.7657 2181.5,-300 2184.1698,-299.5514 2186.9263,-298.9617 2189.6607,-298.2925"/>
<polygon fill="#191970" stroke="#191970" points="1247.0926,-341.7904 1237.1512,-345.4533 1247.207,-348.7895 1247.0926,-341.7904"/>
</g>
<!-- Node13 -->
<g id="node11" class="node">
<title>Node13</title>
<g id="a_node11"><a xlink:href="abi-default_2packet__io_8h.html" target="_top" xlink:title="ODP Packet IO. ">
<polygon fill="#ffffff" stroke="#000000" points="2259,-280.5 2259,-299.5 2332,-299.5 2332,-280.5 2259,-280.5"/>
<text text-anchor="middle" x="2295.5" y="-287.5" font-family="Helvetica,sans-Serif" font-size="10.00" fill="#000000">packet_io.h</text>
</a>
</g>
</g>
<!-- Node8&#45;&gt;Node13 -->
<g id="edge12" class="edge">
<title>Node8&#45;&gt;Node13</title>
<path fill="none" stroke="#191970" d="M1247.2208,-345.0404C1424.0509,-341.2398 2052.2951,-326.1598 2250.5,-300 2253.1977,-299.644 2255.9725,-299.2061 2258.7565,-298.7144"/>
<polygon fill="#191970" stroke="#191970" points="1247.1207,-341.5417 1237.1976,-345.2541 1247.27,-348.5401 1247.1207,-341.5417"/>
</g>
<!-- Node14 -->
<g id="node12" class="node">
<title>Node14</title>
<g id="a_node12"><a xlink:href="abi-default_2rwlock__recursive_8h.html" target="_top" xlink:title="ODP recursive read/write lock. ">
<polygon fill="#ffffff" stroke="#000000" points="2350.5,-280.5 2350.5,-299.5 2458.5,-299.5 2458.5,-280.5 2350.5,-280.5"/>
<text text-anchor="middle" x="2404.5" y="-287.5" font-family="Helvetica,sans-Serif" font-size="10.00" fill="#000000">rwlock_recursive.h</text>
</a>
</g>
</g>
<!-- Node8&#45;&gt;Node14 -->
<g id="edge13" class="edge">
<title>Node8&#45;&gt;Node14</title>
<path fill="none" stroke="#191970" d="M1247.1769,-344.8491C1433.4177,-340.1436 2123.7954,-321.5916 2341.5,-300 2344.3653,-299.7158 2347.2984,-299.3862 2350.256,-299.0234"/>
<polygon fill="#191970" stroke="#191970" points="1247.0699,-341.3506 1237.1611,-345.101 1247.246,-348.3483 1247.0699,-341.3506"/>
</g>
<!-- Node15 -->
<g id="node13" class="node">
<title>Node15</title>
<g id="a_node13"><a xlink:href="abi-default_2schedule_8h.html" target="_top" xlink:title="ODP schedule. ">
<polygon fill="#ffffff" stroke="#000000" points="2477,-280.5 2477,-299.5 2546,-299.5 2546,-280.5 2477,-280.5"/>
<text text-anchor="middle" x="2511.5" y="-287.5" font-family="Helvetica,sans-Serif" font-size="10.00" fill="#000000">schedule.h</text>
</a>
</g>
</g>
<!-- Node8&#45;&gt;Node15 -->
<g id="edge14" class="edge">
<title>Node8&#45;&gt;Node15</title>
<path fill="none" stroke="#191970" d="M1247.387,-345.4729C1446.7237,-343.0511 2224.6697,-331.7182 2467.5,-300 2470.4517,-299.6144 2473.4966,-299.123 2476.542,-298.5656"/>
<polygon fill="#191970" stroke="#191970" points="1247.2064,-341.9748 1237.2491,-345.5944 1247.2904,-348.9742 1247.2064,-341.9748"/>
</g>
<!-- Node16 -->
<g id="node14" class="node">
<title>Node16</title>
<g id="a_node14"><a xlink:href="abi-default_2spinlock__recursive_8h.html" target="_top" xlink:title="ODP recursive spinlock. ">
<polygon fill="#ffffff" stroke="#000000" points="2564.5,-280.5 2564.5,-299.5 2680.5,-299.5 2680.5,-280.5 2564.5,-280.5"/>
<text text-anchor="middle" x="2622.5" y="-287.5" font-family="Helvetica,sans-Serif" font-size="10.00" fill="#000000">spinlock_recursive.h</text>
</a>
</g>
</g>
<!-- Node8&#45;&gt;Node16 -->
<g id="edge15" class="edge">
<title>Node8&#45;&gt;Node16</title>
<path fill="none" stroke="#191970" d="M1247.4926,-345.1264C1455.3547,-341.1513 2293.4226,-323.9277 2555.5,-300 2558.428,-299.7327 2561.4231,-299.4222 2564.4443,-299.0795"/>
<polygon fill="#191970" stroke="#191970" points="1247.1598,-341.632 1237.2282,-345.3217 1247.293,-348.6308 1247.1598,-341.632"/>
</g>
<!-- Node17 -->
<g id="node15" class="node">
<title>Node17</title>
<g id="a_node15"><a xlink:href="abi-default_2traffic__mngr_8h.html" target="_top" xlink:title="ODP traffic mngr. ">
<polygon fill="#ffffff" stroke="#000000" points="165.5,-280.5 165.5,-299.5 249.5,-299.5 249.5,-280.5 165.5,-280.5"/>
<text text-anchor="middle" x="207.5" y="-287.5" font-family="Helvetica,sans-Serif" font-size="10.00" fill="#000000">traffic_mngr.h</text>
</a>
</g>
</g>
<!-- Node8&#45;&gt;Node17 -->
<g id="edge16" class="edge">
<title>Node8&#45;&gt;Node17</title>
<path fill="none" stroke="#191970" d="M1153.5409,-344.6086C988.3818,-339.574 434.7398,-321.4669 258.5,-300 255.6339,-299.6509 252.6874,-299.2328 249.7255,-298.7685"/>
<polygon fill="#191970" stroke="#191970" points="1153.7482,-348.1164 1163.8497,-344.9212 1153.9604,-341.1196 1153.7482,-348.1164"/>
</g>
<!-- Node18 -->
<g id="node16" class="node">
<title>Node18</title>
<g id="a_node16"><a xlink:href="barrier_8h.html" target="_top" xlink:title="ODP execution barriers. ">
<polygon fill="#ffffff" stroke="#000000" points="268,-280.5 268,-299.5 325,-299.5 325,-280.5 268,-280.5"/>
<text text-anchor="middle" x="296.5" y="-287.5" font-family="Helvetica,sans-Serif" font-size="10.00" fill="#000000">barrier.h</text>
</a>
</g>
</g>
<!-- Node8&#45;&gt;Node18 -->
<g id="edge17" class="edge">
<title>Node8&#45;&gt;Node18</title>
<path fill="none" stroke="#191970" d="M1153.3483,-344.8095C996.5539,-340.6451 493.5504,-325.5802 333.5,-300 330.7403,-299.5589 327.8902,-298.9934 325.0537,-298.3562"/>
<polygon fill="#191970" stroke="#191970" points="1153.511,-348.3149 1163.5997,-345.0793 1153.6952,-341.3173 1153.511,-348.3149"/>
</g>
<!-- Node19 -->
<g id="node17" class="node">
<title>Node19</title>
<g id="a_node17"><a xlink:href="buffer_8h.html" target="_top" xlink:title="ODP buffer descriptor. ">
<polygon fill="#ffffff" stroke="#000000" points="343,-280.5 343,-299.5 396,-299.5 396,-280.5 343,-280.5"/>
<text text-anchor="middle" x="369.5" y="-287.5" font-family="Helvetica,sans-Serif" font-size="10.00" fill="#000000">buffer.h</text>
</a>
</g>
</g>
<!-- Node8&#45;&gt;Node19 -->
<g id="edge18" class="edge">
<title>Node8&#45;&gt;Node19</title>
<path fill="none" stroke="#191970" d="M1153.6485,-344.3872C1006.579,-339.1487 555.2921,-321.6902 410.5,-300 405.8626,-299.3053 400.9815,-298.333 396.2682,-297.2652"/>
<polygon fill="#191970" stroke="#191970" points="1153.5857,-347.8871 1163.7033,-344.7431 1153.8335,-340.8914 1153.5857,-347.8871"/>
</g>
<!-- Node20 -->
<g id="node18" class="node">
<title>Node20</title>
<g id="a_node18"><a xlink:href="classification_8h.html" target="_top" xlink:title="ODP classification descriptor. ">
<polygon fill="#ffffff" stroke="#000000" points="554,-56.5 554,-75.5 643,-75.5 643,-56.5 554,-56.5"/>
<text text-anchor="middle" x="598.5" y="-63.5" font-family="Helvetica,sans-Serif" font-size="10.00" fill="#000000">classification.h</text>
</a>
</g>
</g>
<!-- Node8&#45;&gt;Node20 -->
<g id="edge19" class="edge">
<title>Node8&#45;&gt;Node20</title>
<path fill="none" stroke="#191970" d="M1153.8122,-344.788C1006.0233,-340.6986 554.6474,-326.1798 494.5,-300 455.2937,-282.935 424.5,-276.7592 424.5,-234 424.5,-234 424.5,-234 424.5,-178 424.5,-147.4754 422.0044,-133.6724 443.5,-112 459.017,-96.3554 513.799,-82.5986 553.849,-74.2983"/>
<polygon fill="#191970" stroke="#191970" points="1153.8268,-348.2896 1163.9187,-345.0644 1154.0182,-341.2922 1153.8268,-348.2896"/>
</g>
<!-- Node23 -->
<g id="node20" class="node">
<title>Node23</title>
<g id="a_node20"><a xlink:href="crypto_8h.html" target="_top" xlink:title="ODP crypto. ">
<polygon fill="#ffffff" stroke="#000000" points="729.5,-168.5 729.5,-187.5 785.5,-187.5 785.5,-168.5 729.5,-168.5"/>
<text text-anchor="middle" x="757.5" y="-175.5" font-family="Helvetica,sans-Serif" font-size="10.00" fill="#000000">crypto.h</text>
</a>
</g>
</g>
<!-- Node8&#45;&gt;Node23 -->
<g id="edge21" class="edge">
<title>Node8&#45;&gt;Node23</title>
<path fill="none" stroke="#191970" d="M1153.919,-339.1886C1110.8983,-331.832 1051.587,-318.6126 1037.5,-300 1016.3516,-272.0573 1081.3312,-250.5854 1058.5,-224 1040.7843,-203.3712 857.1139,-186.1878 785.6915,-180.2368"/>
<polygon fill="#191970" stroke="#191970" points="1153.4825,-342.6639 1163.92,-340.8446 1154.6261,-335.7579 1153.4825,-342.6639"/>
</g>
<!-- Node24 -->
<g id="node21" class="node">
<title>Node24</title>
<g id="a_node21"><a xlink:href="packet_8h.html" target="_top" xlink:title="ODP packet descriptor. ">
<polygon fill="#ffffff" stroke="#000000" points="843,-280.5 843,-299.5 902,-299.5 902,-280.5 843,-280.5"/>
<text text-anchor="middle" x="872.5" y="-287.5" font-family="Helvetica,sans-Serif" font-size="10.00" fill="#000000">packet.h</text>
</a>
</g>
</g>
<!-- Node8&#45;&gt;Node24 -->
<g id="edge23" class="edge">
<title>Node8&#45;&gt;Node24</title>
<path fill="none" stroke="#191970" d="M1153.7431,-338.0171C1085.2024,-326.315 959.4039,-304.8373 902.209,-295.0723"/>
<polygon fill="#191970" stroke="#191970" points="1153.3825,-341.5061 1163.829,-339.7391 1154.5607,-334.606 1153.3825,-341.5061"/>
</g>
<!-- Node39 -->
<g id="node25" class="node">
<title>Node39</title>
<g id="a_node25"><a xlink:href="spec_2packet__flags_8h.html" target="_top" xlink:title="ODP packet flags. ">
<polygon fill="#ffffff" stroke="#ff0000" points="963,-224.5 963,-243.5 1050,-243.5 1050,-224.5 963,-224.5"/>
<text text-anchor="middle" x="1006.5" y="-231.5" font-family="Helvetica,sans-Serif" font-size="10.00" fill="#000000">packet_flags.h</text>
</a>
</g>
</g>
<!-- Node8&#45;&gt;Node39 -->
<g id="edge51" class="edge">
<title>Node8&#45;&gt;Node39</title>
<path fill="none" stroke="#191970" d="M1153.6671,-341.6172C1101.7106,-335.6725 1022.7658,-323.049 1004.5,-300 991.6841,-283.828 997.8793,-257.7685 1002.6873,-243.721"/>
<polygon fill="#191970" stroke="#191970" points="1153.3498,-345.1033 1163.6726,-342.7182 1154.1155,-338.1453 1153.3498,-345.1033"/>
</g>
<!-- Node33 -->
<g id="node27" class="node">
<title>Node33</title>
<g id="a_node27"><a xlink:href="packet__io_8h.html" target="_top" xlink:title="ODP Packet IO. ">
<polygon fill="#ffffff" stroke="#000000" points="529,-168.5 529,-187.5 602,-187.5 602,-168.5 529,-168.5"/>
<text text-anchor="middle" x="565.5" y="-175.5" font-family="Helvetica,sans-Serif" font-size="10.00" fill="#000000">packet_io.h</text>
</a>
</g>
</g>
<!-- Node8&#45;&gt;Node33 -->
<g id="edge35" class="edge">
<title>Node8&#45;&gt;Node33</title>
<path fill="none" stroke="#191970" d="M1153.589,-344.2909C1005.4718,-338.6967 556.1268,-320.1329 532.5,-300 506.4169,-277.7741 506.3861,-255.6598 519.5,-224 525.8102,-208.7658 539.8846,-195.9464 550.8148,-187.7423"/>
<polygon fill="#191970" stroke="#191970" points="1153.5987,-347.7936 1163.7229,-344.6711 1153.8612,-340.7985 1153.5987,-347.7936"/>
</g>
<!-- Node35 -->
<g id="node29" class="node">
<title>Node35</title>
<g id="a_node29"><a xlink:href="spec_2traffic__mngr_8h.html" target="_top" xlink:title="Copyright (c) 2015&#45;2018, Linaro Limited All rights reserved. ">
<polygon fill="#ffffff" stroke="#ff0000" points="452.5,-112.5 452.5,-131.5 536.5,-131.5 536.5,-112.5 452.5,-112.5"/>
<text text-anchor="middle" x="494.5" y="-119.5" font-family="Helvetica,sans-Serif" font-size="10.00" fill="#000000">traffic_mngr.h</text>
</a>
</g>
</g>
<!-- Node8&#45;&gt;Node35 -->
<g id="edge57" class="edge">
<title>Node8&#45;&gt;Node35</title>
<path fill="none" stroke="#191970" d="M1153.6352,-344.5139C1002.3708,-339.504 535.5636,-322.292 512.5,-300 465.1532,-254.2371 483.8803,-162.1982 491.7164,-131.9117"/>
<polygon fill="#191970" stroke="#191970" points="1153.8609,-348.0231 1163.9704,-344.8534 1154.0908,-341.0269 1153.8609,-348.0231"/>
</g>
<!-- Node31 -->
<g id="node30" class="node">
<title>Node31</title>
<g id="a_node30"><a xlink:href="queue_8h.html" target="_top" xlink:title="ODP queue. ">
<polygon fill="#ffffff" stroke="#000000" points="636.5,-280.5 636.5,-299.5 692.5,-299.5 692.5,-280.5 636.5,-280.5"/>
<text text-anchor="middle" x="664.5" y="-287.5" font-family="Helvetica,sans-Serif" font-size="10.00" fill="#000000">queue.h</text>
</a>
</g>
</g>
<!-- Node8&#45;&gt;Node31 -->
<g id="edge36" class="edge">
<title>Node8&#45;&gt;Node31</title>
<path fill="none" stroke="#191970" d="M1153.6136,-343.7448C1065.6743,-339.0463 870.1702,-326.3796 707.5,-300 702.658,-299.2148 697.5495,-298.1972 692.6103,-297.1125"/>
<polygon fill="#191970" stroke="#191970" points="1153.6257,-347.2501 1163.7953,-344.2786 1153.9923,-340.2597 1153.6257,-347.2501"/>
</g>
<!-- Node37 -->
<g id="node31" class="node">
<title>Node37</title>
<g id="a_node31"><a xlink:href="spec_2schedule_8h.html" target="_top" xlink:title="ODP schedule. ">
<polygon fill="#ffffff" stroke="#ff0000" points="659,-224.5 659,-243.5 728,-243.5 728,-224.5 659,-224.5"/>
<text text-anchor="middle" x="693.5" y="-231.5" font-family="Helvetica,sans-Serif" font-size="10.00" fill="#000000">schedule.h</text>
</a>
</g>
</g>
<!-- Node8&#45;&gt;Node37 -->
<g id="edge53" class="edge">
<title>Node8&#45;&gt;Node37</title>
<path fill="none" stroke="#191970" d="M1153.4302,-344.8237C1082.6617,-342.0071 945.2386,-332.447 833.5,-300 786.2767,-286.2872 735.0277,-258.4533 709.6397,-243.6943"/>
<polygon fill="#191970" stroke="#191970" points="1153.667,-348.3348 1163.7894,-345.2064 1153.9254,-341.3395 1153.667,-348.3348"/>
</g>
<!-- Node41 -->
<g id="node32" class="node">
<title>Node41</title>
<g id="a_node32"><a xlink:href="spec_2chksum_8h.html" target="_top" xlink:title="ODP checksum functions. ">
<polygon fill="#ffffff" stroke="#000000" points="1046.5,-280.5 1046.5,-299.5 1110.5,-299.5 1110.5,-280.5 1046.5,-280.5"/>
<text text-anchor="middle" x="1078.5" y="-287.5" font-family="Helvetica,sans-Serif" font-size="10.00" fill="#000000">chksum.h</text>
</a>
</g>
</g>
<!-- Node8&#45;&gt;Node41 -->
<g id="edge40" class="edge">
<title>Node8&#45;&gt;Node41</title>
<path fill="none" stroke="#191970" d="M1170.2416,-332.1109C1148.1181,-321.9559 1118.6906,-308.4482 1099.1989,-299.5011"/>
<polygon fill="#191970" stroke="#191970" points="1168.979,-335.3824 1179.5275,-336.3733 1171.8993,-329.0206 1168.979,-335.3824"/>
</g>
<!-- Node43 -->
<g id="node34" class="node">
<title>Node43</title>
<g id="a_node34"><a xlink:href="spec_2cpu_8h.html" target="_top" xlink:title="ODP CPU API. ">
<polygon fill="#ffffff" stroke="#000000" points="1129,-280.5 1129,-299.5 1172,-299.5 1172,-280.5 1129,-280.5"/>
<text text-anchor="middle" x="1150.5" y="-287.5" font-family="Helvetica,sans-Serif" font-size="10.00" fill="#000000">cpu.h</text>
</a>
</g>
</g>
<!-- Node8&#45;&gt;Node43 -->
<g id="edge42" class="edge">
<title>Node8&#45;&gt;Node43</title>
<path fill="none" stroke="#191970" d="M1184.8753,-328.5004C1176.3727,-318.9775 1166.1782,-307.5596 1159.1095,-299.6427"/>
<polygon fill="#191970" stroke="#191970" points="1182.5197,-331.1172 1191.7907,-336.2455 1187.7413,-326.4551 1182.5197,-331.1172"/>
</g>
<!-- Node46 -->
<g id="node36" class="node">
<title>Node46</title>
<g id="a_node36"><a xlink:href="spec_2feature_8h.html" target="_top" xlink:title="ODP features. ">
<polygon fill="#ffffff" stroke="#000000" points="1229,-280.5 1229,-299.5 1290,-299.5 1290,-280.5 1229,-280.5"/>
<text text-anchor="middle" x="1259.5" y="-287.5" font-family="Helvetica,sans-Serif" font-size="10.00" fill="#000000">feature.h</text>
</a>
</g>
</g>
<!-- Node8&#45;&gt;Node46 -->
<g id="edge44" class="edge">
<title>Node8&#45;&gt;Node46</title>
<path fill="none" stroke="#191970" d="M1218.0307,-329.3607C1228.2377,-319.6727 1240.7469,-307.7995 1249.3408,-299.6427"/>
<polygon fill="#191970" stroke="#191970" points="1215.6206,-326.8227 1210.777,-336.2455 1220.4396,-331.8998 1215.6206,-326.8227"/>
</g>
<!-- Node48 -->
<g id="node38" class="node">
<title>Node48</title>
<g id="a_node38"><a xlink:href="spec_2init_8h.html" target="_top" xlink:title="init.h">
<polygon fill="#ffffff" stroke="#000000" points="1269,-168.5 1269,-187.5 1310,-187.5 1310,-168.5 1269,-168.5"/>
<text text-anchor="middle" x="1289.5" y="-175.5" font-family="Helvetica,sans-Serif" font-size="10.00" fill="#000000">init.h</text>
</a>
</g>
</g>
<!-- Node8&#45;&gt;Node48 -->
<g id="edge50" class="edge">
<title>Node8&#45;&gt;Node48</title>
<path fill="none" stroke="#191970" d="M1204.8383,-326.221C1208.1766,-312.8 1213.421,-294.863 1220.5,-280 1229.6933,-260.698 1266.6363,-209.2995 1282.359,-187.7363"/>
<polygon fill="#191970" stroke="#191970" points="1201.3584,-325.7311 1202.484,-336.266 1208.1737,-327.3285 1201.3584,-325.7311"/>
</g>
<!-- Node52 -->
<g id="node40" class="node">
<title>Node52</title>
<g id="a_node40"><a xlink:href="spec_2hash_8h.html" target="_top" xlink:title="ODP Hash functions. ">
<polygon fill="#ffffff" stroke="#000000" points="1308,-280.5 1308,-299.5 1357,-299.5 1357,-280.5 1308,-280.5"/>
<text text-anchor="middle" x="1332.5" y="-287.5" font-family="Helvetica,sans-Serif" font-size="10.00" fill="#000000">hash.h</text>
</a>
</g>
</g>
<!-- Node8&#45;&gt;Node52 -->
<g id="edge48" class="edge">
<title>Node8&#45;&gt;Node52</title>
<path fill="none" stroke="#191970" d="M1232.5965,-332.3833C1256.6035,-322.1985 1288.8259,-308.5284 1310.1045,-299.5011"/>
<polygon fill="#191970" stroke="#191970" points="1231.0305,-329.2457 1223.1916,-336.3733 1233.7644,-335.6897 1231.0305,-329.2457"/>
</g>
<!-- Node54 -->
<g id="node42" class="node">
<title>Node54</title>
<g id="a_node42"><a xlink:href="spec_2pool_8h.html" target="_top" xlink:title="ODP pool. ">
<polygon fill="#ffffff" stroke="#ff0000" points="1375,-280.5 1375,-299.5 1422,-299.5 1422,-280.5 1375,-280.5"/>
<text text-anchor="middle" x="1398.5" y="-287.5" font-family="Helvetica,sans-Serif" font-size="10.00" fill="#000000">pool.h</text>
</a>
</g>
</g>
<!-- Node8&#45;&gt;Node54 -->
<g id="edge52" class="edge">
<title>Node8&#45;&gt;Node54</title>
<path fill="none" stroke="#191970" d="M1246.1467,-333.7805C1279.5573,-324.7321 1325.9457,-311.9521 1366.5,-300 1369.1799,-299.2102 1371.9798,-298.365 1374.7605,-297.513"/>
<polygon fill="#191970" stroke="#191970" points="1244.9562,-330.4765 1236.2153,-336.4637 1246.7821,-337.2342 1244.9562,-330.4765"/>
</g>
<!-- Node57 -->
<g id="node43" class="node">
<title>Node57</title>
<g id="a_node43"><a xlink:href="spec_2stash_8h.html" target="_top" xlink:title="ODP stash. ">
<polygon fill="#ffffff" stroke="#ff0000" points="1440.5,-280.5 1440.5,-299.5 1492.5,-299.5 1492.5,-280.5 1440.5,-280.5"/>
<text text-anchor="middle" x="1466.5" y="-287.5" font-family="Helvetica,sans-Serif" font-size="10.00" fill="#000000">stash.h</text>
</a>
</g>
</g>
<!-- Node8&#45;&gt;Node57 -->
<g id="edge54" class="edge">
<title>Node8&#45;&gt;Node57</title>
<path fill="none" stroke="#191970" d="M1246.9588,-337.9021C1293.7801,-329.4708 1367.9979,-315.3673 1431.5,-300 1434.3254,-299.3163 1437.2655,-298.5554 1440.1879,-297.7671"/>
<polygon fill="#191970" stroke="#191970" points="1246.3368,-334.4577 1237.1098,-339.6647 1247.57,-341.3482 1246.3368,-334.4577"/>
</g>
<!-- Node59 -->
<g id="node44" class="node">
<title>Node59</title>
<g id="a_node44"><a xlink:href="spec_2threshold_8h.html" target="_top" xlink:title="ODP threshold descriptor. ">
<polygon fill="#ffffff" stroke="#ff0000" points="1511,-280.5 1511,-299.5 1582,-299.5 1582,-280.5 1511,-280.5"/>
<text text-anchor="middle" x="1546.5" y="-287.5" font-family="Helvetica,sans-Serif" font-size="10.00" fill="#000000">threshold.h</text>
</a>
</g>
</g>
<!-- Node8&#45;&gt;Node59 -->
<g id="edge55" class="edge">
<title>Node8&#45;&gt;Node59</title>
<path fill="none" stroke="#191970" d="M1247.4195,-339.822C1306.7744,-331.779 1412.044,-316.7556 1501.5,-300 1504.4892,-299.4401 1507.5825,-298.8261 1510.6831,-298.1864"/>
<polygon fill="#191970" stroke="#191970" points="1246.681,-336.3898 1237.2381,-341.1941 1247.616,-343.3271 1246.681,-336.3898"/>
</g>
<!-- Node61 -->
<g id="node45" class="node">
<title>Node61</title>
<g id="a_node45"><a xlink:href="spec_2thrmask_8h.html" target="_top" xlink:title="ODP thread masks. ">
<polygon fill="#ffffff" stroke="#ff0000" points="1600.5,-280.5 1600.5,-299.5 1666.5,-299.5 1666.5,-280.5 1600.5,-280.5"/>
<text text-anchor="middle" x="1633.5" y="-287.5" font-family="Helvetica,sans-Serif" font-size="10.00" fill="#000000">thrmask.h</text>
</a>
</g>
</g>
<!-- Node8&#45;&gt;Node61 -->
<g id="edge56" class="edge">
<title>Node8&#45;&gt;Node61</title>
<path fill="none" stroke="#191970" d="M1247.4171,-342.2616C1321.0756,-335.9928 1468.1787,-321.8585 1591.5,-300 1594.3046,-299.5029 1597.202,-298.933 1600.1028,-298.323"/>
<polygon fill="#191970" stroke="#191970" points="1246.7656,-338.804 1237.094,-343.1295 1247.352,-345.7794 1246.7656,-338.804"/>
</g>
<!-- Node63 -->
<g id="node46" class="node">
<title>Node63</title>
<g id="a_node46"><a xlink:href="system__info_8h.html" target="_top" xlink:title="ODP system information. ">
<polygon fill="#ffffff" stroke="#000000" points="1684.5,-280.5 1684.5,-299.5 1770.5,-299.5 1770.5,-280.5 1684.5,-280.5"/>
<text text-anchor="middle" x="1727.5" y="-287.5" font-family="Helvetica,sans-Serif" font-size="10.00" fill="#000000">system_info.h</text>
</a>
</g>
</g>
<!-- Node8&#45;&gt;Node63 -->
<g id="edge58" class="edge">
<title>Node8&#45;&gt;Node63</title>
<path fill="none" stroke="#191970" d="M1247.4475,-342.9149C1332.9013,-336.975 1519.4396,-322.5122 1675.5,-300 1678.4117,-299.58 1681.4079,-299.1087 1684.4221,-298.6056"/>
<polygon fill="#191970" stroke="#191970" points="1247.0281,-339.4354 1237.292,-343.6137 1247.5087,-346.4189 1247.0281,-339.4354"/>
</g>
<!-- Node64 -->
<g id="node47" class="node">
<title>Node64</title>
<g id="a_node47"><a xlink:href="time_8h.html" target="_top" xlink:title="ODP time. ">
<polygon fill="#ffffff" stroke="#ff0000" points="541.5,-280.5 541.5,-299.5 589.5,-299.5 589.5,-280.5 541.5,-280.5"/>
<text text-anchor="middle" x="565.5" y="-287.5" font-family="Helvetica,sans-Serif" font-size="10.00" fill="#000000">time.h</text>
</a>
</g>
</g>
<!-- Node8&#45;&gt;Node64 -->
<g id="edge59" class="edge">
<title>Node8&#45;&gt;Node64</title>
<path fill="none" stroke="#191970" d="M1153.7104,-343.5125C1055.8072,-338.0287 822.2811,-323.4886 627.5,-300 614.9435,-298.4858 601.0363,-296.2906 589.5807,-294.3425"/>
<polygon fill="#191970" stroke="#191970" points="1153.6852,-347.0164 1163.8638,-344.0759 1154.073,-340.0271 1153.6852,-347.0164"/>
</g>
<!-- Node66 -->
<g id="node48" class="node">
<title>Node66</title>
<g id="a_node48"><a xlink:href="timer_8h.html" target="_top" xlink:title="ODP timer service. ">
<polygon fill="#ffffff" stroke="#000000" points="1789,-280.5 1789,-299.5 1840,-299.5 1840,-280.5 1789,-280.5"/>
<text text-anchor="middle" x="1814.5" y="-287.5" font-family="Helvetica,sans-Serif" font-size="10.00" fill="#000000">timer.h</text>
</a>
</g>
</g>
<!-- Node8&#45;&gt;Node66 -->
<g id="edge61" class="edge">
<title>Node8&#45;&gt;Node66</title>
<path fill="none" stroke="#191970" d="M1247.3321,-345.4276C1346.3559,-343.5299 1583.9478,-335.3402 1779.5,-300 1782.485,-299.4605 1785.5811,-298.7718 1788.6417,-298.0088"/>
<polygon fill="#191970" stroke="#191970" points="1247.0042,-341.9328 1237.0683,-345.611 1247.1293,-348.9317 1247.0042,-341.9328"/>
</g>
<!-- Node67 -->
<g id="node49" class="node">
<title>Node67</title>
<g id="a_node49"><a xlink:href="strong__types_8h.html" target="_top" xlink:title="ODP Strong Types. ">
<polygon fill="#ffffff" stroke="#000000" points="1858,-280.5 1858,-299.5 1947,-299.5 1947,-280.5 1858,-280.5"/>
<text text-anchor="middle" x="1902.5" y="-287.5" font-family="Helvetica,sans-Serif" font-size="10.00" fill="#000000">strong_types.h</text>
</a>
</g>
</g>
<!-- Node8&#45;&gt;Node67 -->
<g id="edge62" class="edge">
<title>Node8&#45;&gt;Node67</title>
<path fill="none" stroke="#191970" d="M1247.3882,-344.5379C1354.4725,-340.7926 1625.0849,-329.0253 1849.5,-300 1852.1931,-299.6517 1854.9561,-299.254 1857.7387,-298.8225"/>
<polygon fill="#191970" stroke="#191970" points="1247.1164,-341.0451 1237.2423,-344.8857 1247.3563,-348.0409 1247.1164,-341.0451"/>
</g>
<!-- Node21 -->
<g id="node19" class="node">
<title>Node21</title>
<g id="a_node19"><a xlink:href="spec_2ipsec_8h.html" target="_top" xlink:title="ODP IPSEC API. ">
<polygon fill="#ffffff" stroke="#ff0000" points="646,-.5 646,-19.5 697,-19.5 697,-.5 646,-.5"/>
<text text-anchor="middle" x="671.5" y="-7.5" font-family="Helvetica,sans-Serif" font-size="10.00" fill="#000000">ipsec.h</text>
</a>
</g>
</g>
<!-- Node20&#45;&gt;Node21 -->
<g id="edge20" class="edge">
<title>Node20&#45;&gt;Node21</title>
<path fill="none" stroke="#191970" d="M619.451,-49.928C632.2107,-40.1397 648.0885,-27.9595 658.9301,-19.6427"/>
<polygon fill="#191970" stroke="#191970" points="617.0196,-47.3819 611.2156,-56.2455 621.2803,-52.9359 617.0196,-47.3819"/>
</g>
<!-- Node23&#45;&gt;Node21 -->
<g id="edge22" class="edge">
<title>Node23&#45;&gt;Node21</title>
<path fill="none" stroke="#191970" d="M747.8704,-159.1887C729.589,-123.4762 690.4399,-46.9988 676.5309,-19.8279"/>
<polygon fill="#191970" stroke="#191970" points="744.9576,-161.1796 752.6299,-168.4862 751.1886,-157.9899 744.9576,-161.1796"/>
</g>
<!-- Node25 -->
<g id="node22" class="node">
<title>Node25</title>
<g id="a_node22"><a xlink:href="spec_2comp_8h.html" target="_top" xlink:title="ODP Compression. ">
<polygon fill="#ffffff" stroke="#ff0000" points="892,-224.5 892,-243.5 945,-243.5 945,-224.5 892,-224.5"/>
<text text-anchor="middle" x="918.5" y="-231.5" font-family="Helvetica,sans-Serif" font-size="10.00" fill="#000000">comp.h</text>
</a>
</g>
</g>
<!-- Node24&#45;&gt;Node25 -->
<g id="edge24" class="edge">
<title>Node24&#45;&gt;Node25</title>
<path fill="none" stroke="#191970" d="M886.8747,-272.5004C894.6971,-262.9775 904.076,-251.5596 910.5792,-243.6427"/>
<polygon fill="#191970" stroke="#191970" points="884.1555,-270.2967 880.5126,-280.2455 889.5646,-274.7399 884.1555,-270.2967"/>
</g>
<!-- Node27 -->
<g id="node23" class="node">
<title>Node27</title>
<g id="a_node23"><a xlink:href="spec_2crypto_8h.html" target="_top" xlink:title="ODP crypto. ">
<polygon fill="#ffffff" stroke="#000000" points="746.5,-224.5 746.5,-243.5 802.5,-243.5 802.5,-224.5 746.5,-224.5"/>
<text text-anchor="middle" x="774.5" y="-231.5" font-family="Helvetica,sans-Serif" font-size="10.00" fill="#000000">crypto.h</text>
</a>
</g>
</g>
<!-- Node24&#45;&gt;Node27 -->
<g id="edge25" class="edge">
<title>Node24&#45;&gt;Node27</title>
<path fill="none" stroke="#191970" d="M846.3314,-275.0465C828.8942,-265.0824 806.4889,-252.2794 791.3747,-243.6427"/>
<polygon fill="#191970" stroke="#191970" points="845.0108,-278.323 855.4297,-280.2455 848.4838,-272.2453 845.0108,-278.323"/>
</g>
<!-- Node28 -->
<g id="node24" class="node">
<title>Node28</title>
<g id="a_node24"><a xlink:href="spec_2event_8h.html" target="_top" xlink:title="ODP event. ">
<polygon fill="#ffffff" stroke="#ff0000" points="821,-224.5 821,-243.5 874,-243.5 874,-224.5 821,-224.5"/>
<text text-anchor="middle" x="847.5" y="-231.5" font-family="Helvetica,sans-Serif" font-size="10.00" fill="#000000">event.h</text>
</a>
</g>
</g>
<!-- Node24&#45;&gt;Node28 -->
<g id="edge27" class="edge">
<title>Node24&#45;&gt;Node28</title>
<path fill="none" stroke="#191970" d="M864.0374,-271.0437C859.9255,-261.8331 855.1606,-251.1598 851.8048,-243.6427"/>
<polygon fill="#191970" stroke="#191970" points="860.8728,-272.541 868.1453,-280.2455 867.2648,-269.6874 860.8728,-272.541"/>
</g>
<!-- Node24&#45;&gt;Node39 -->
<g id="edge28" class="edge">
<title>Node24&#45;&gt;Node39</title>
<path fill="none" stroke="#191970" d="M905.0828,-276.3833C929.4536,-266.1985 962.1642,-252.5284 983.7652,-243.5011"/>
<polygon fill="#191970" stroke="#191970" points="903.4125,-273.2879 895.5354,-280.3733 906.1117,-279.7466 903.4125,-273.2879"/>
</g>
<!-- Node32 -->
<g id="node26" class="node">
<title>Node32</title>
<g id="a_node26"><a xlink:href="spec_2packet__io_8h.html" target="_top" xlink:title="ODP Packet IO. ">
<polygon fill="#ffffff" stroke="#000000" points="529,-224.5 529,-243.5 602,-243.5 602,-224.5 529,-224.5"/>
<text text-anchor="middle" x="565.5" y="-231.5" font-family="Helvetica,sans-Serif" font-size="10.00" fill="#000000">packet_io.h</text>
</a>
</g>
</g>
<!-- Node24&#45;&gt;Node32 -->
<g id="edge29" class="edge">
<title>Node24&#45;&gt;Node32</title>
<path fill="none" stroke="#191970" d="M832.583,-282.7187C772.6719,-271.7903 660.3541,-251.3024 602.3139,-240.7152"/>
<polygon fill="#191970" stroke="#191970" points="832.3188,-286.2282 842.7846,-284.5796 833.575,-279.3418 832.3188,-286.2282"/>
</g>
<!-- Node27&#45;&gt;Node23 -->
<g id="edge26" class="edge">
<title>Node27&#45;&gt;Node23</title>
<path fill="none" stroke="#191970" d="M768.5663,-214.4538C765.8119,-205.3803 762.6607,-194.9998 760.4272,-187.6427"/>
<polygon fill="#191970" stroke="#191970" points="765.2849,-215.6934 771.5388,-224.2455 771.983,-213.66 765.2849,-215.6934"/>
</g>
<!-- Node32&#45;&gt;Node33 -->
<g id="edge30" class="edge">
<title>Node32&#45;&gt;Node33</title>
<path fill="none" stroke="#191970" d="M565.5,-214.1575C565.5,-205.155 565.5,-194.9199 565.5,-187.6427"/>
<polygon fill="#191970" stroke="#191970" points="562.0001,-214.2455 565.5,-224.2455 569.0001,-214.2456 562.0001,-214.2455"/>
</g>
<!-- Node33&#45;&gt;Node21 -->
<g id="edge33" class="edge">
<title>Node33&#45;&gt;Node21</title>
<path fill="none" stroke="#191970" d="M607.8997,-164.5324C623.9417,-157.3507 640.8751,-146.8493 651.5,-132 676.6038,-96.9149 674.6162,-41.715 672.6034,-19.6157"/>
<polygon fill="#191970" stroke="#191970" points="606.5077,-161.3205 598.6119,-168.3849 609.1898,-167.7863 606.5077,-161.3205"/>
</g>
<!-- Node34 -->
<g id="node28" class="node">
<title>Node34</title>
<g id="a_node28"><a xlink:href="spec_2classification_8h.html" target="_top" xlink:title="ODP classification descriptor. ">
<polygon fill="#ffffff" stroke="#000000" points="554,-112.5 554,-131.5 643,-131.5 643,-112.5 554,-112.5"/>
<text text-anchor="middle" x="598.5" y="-119.5" font-family="Helvetica,sans-Serif" font-size="10.00" fill="#000000">classification.h</text>
</a>
</g>
</g>
<!-- Node33&#45;&gt;Node34 -->
<g id="edge31" class="edge">
<title>Node33&#45;&gt;Node34</title>
<path fill="none" stroke="#191970" d="M576.3254,-159.6296C581.8299,-150.2887 588.2937,-139.3197 592.8177,-131.6427"/>
<polygon fill="#191970" stroke="#191970" points="573.3097,-157.8532 571.2482,-168.2455 579.3405,-161.4071 573.3097,-157.8532"/>
</g>
<!-- Node33&#45;&gt;Node35 -->
<g id="edge34" class="edge">
<title>Node33&#45;&gt;Node35</title>
<path fill="none" stroke="#191970" d="M545.123,-161.928C532.7129,-152.1397 517.27,-139.9595 506.7255,-131.6427"/>
<polygon fill="#191970" stroke="#191970" points="543.1136,-164.8007 553.1327,-168.2455 547.4486,-159.3046 543.1136,-164.8007"/>
</g>
<!-- Node34&#45;&gt;Node20 -->
<g id="edge32" class="edge">
<title>Node34&#45;&gt;Node20</title>
<path fill="none" stroke="#191970" d="M598.5,-102.1575C598.5,-93.155 598.5,-82.9199 598.5,-75.6427"/>
<polygon fill="#191970" stroke="#191970" points="595.0001,-102.2455 598.5,-112.2455 602.0001,-102.2456 595.0001,-102.2455"/>
</g>
<!-- Node31&#45;&gt;Node23 -->
<g id="edge37" class="edge">
<title>Node31&#45;&gt;Node23</title>
<path fill="none" stroke="#191970" d="M653.1318,-271.4431C646.1335,-257.4001 640.129,-238.177 649.5,-224 667.1436,-197.3078 703.7665,-186.054 729.4534,-181.3418"/>
<polygon fill="#191970" stroke="#191970" points="650.0703,-273.1394 657.9589,-280.212 656.2026,-269.7637 650.0703,-273.1394"/>
</g>
<!-- Node31&#45;&gt;Node32 -->
<g id="edge38" class="edge">
<title>Node31&#45;&gt;Node32</title>
<path fill="none" stroke="#191970" d="M638.0643,-275.0465C620.4492,-265.0824 597.8153,-252.2794 582.5469,-243.6427"/>
<polygon fill="#191970" stroke="#191970" points="636.8283,-278.3684 647.2555,-280.2455 640.2747,-272.2756 636.8283,-278.3684"/>
</g>
<!-- Node31&#45;&gt;Node37 -->
<g id="edge39" class="edge">
<title>Node31&#45;&gt;Node37</title>
<path fill="none" stroke="#191970" d="M674.1647,-271.3372C678.9687,-262.0605 684.5723,-251.2398 688.5065,-243.6427"/>
<polygon fill="#191970" stroke="#191970" points="671.042,-269.7561 669.5514,-280.2455 677.258,-272.9751 671.042,-269.7561"/>
</g>
<!-- Node42 -->
<g id="node33" class="node">
<title>Node42</title>
<g id="a_node33"><a xlink:href="chksum_8h.html" target="_top" xlink:title="ODP checksum functions. ">
<polygon fill="#ffffff" stroke="#000000" points="1106.5,-224.5 1106.5,-243.5 1170.5,-243.5 1170.5,-224.5 1106.5,-224.5"/>
<text text-anchor="middle" x="1138.5" y="-231.5" font-family="Helvetica,sans-Serif" font-size="10.00" fill="#000000">chksum.h</text>
</a>
</g>
</g>
<!-- Node41&#45;&gt;Node42 -->
<g id="edge41" class="edge">
<title>Node41&#45;&gt;Node42</title>
<path fill="none" stroke="#191970" d="M1096.3278,-273.3607C1106.7078,-263.6727 1119.4291,-251.7995 1128.1686,-243.6427"/>
<polygon fill="#191970" stroke="#191970" points="1093.8737,-270.8636 1088.9512,-280.2455 1098.6499,-275.981 1093.8737,-270.8636"/>
</g>
<!-- Node44 -->
<g id="node35" class="node">
<title>Node44</title>
<g id="a_node35"><a xlink:href="cpu_8h.html" target="_top" xlink:title="ODP CPU. ">
<polygon fill="#ffffff" stroke="#ff0000" points="1189,-224.5 1189,-243.5 1232,-243.5 1232,-224.5 1189,-224.5"/>
<text text-anchor="middle" x="1210.5" y="-231.5" font-family="Helvetica,sans-Serif" font-size="10.00" fill="#000000">cpu.h</text>
</a>
</g>
</g>
<!-- Node43&#45;&gt;Node44 -->
<g id="edge43" class="edge">
<title>Node43&#45;&gt;Node44</title>
<path fill="none" stroke="#191970" d="M1168.3278,-273.3607C1178.7078,-263.6727 1191.4291,-251.7995 1200.1686,-243.6427"/>
<polygon fill="#191970" stroke="#191970" points="1165.8737,-270.8636 1160.9512,-280.2455 1170.6499,-275.981 1165.8737,-270.8636"/>
</g>
<!-- Node47 -->
<g id="node37" class="node">
<title>Node47</title>
<g id="a_node37"><a xlink:href="feature_8h.html" target="_top" xlink:title="ODP features. ">
<polygon fill="#ffffff" stroke="#000000" points="1289,-224.5 1289,-243.5 1350,-243.5 1350,-224.5 1289,-224.5"/>
<text text-anchor="middle" x="1319.5" y="-231.5" font-family="Helvetica,sans-Serif" font-size="10.00" fill="#000000">feature.h</text>
</a>
</g>
</g>
<!-- Node46&#45;&gt;Node47 -->
<g id="edge45" class="edge">
<title>Node46&#45;&gt;Node47</title>
<path fill="none" stroke="#191970" d="M1277.3278,-273.3607C1287.7078,-263.6727 1300.4291,-251.7995 1309.1686,-243.6427"/>
<polygon fill="#191970" stroke="#191970" points="1274.8737,-270.8636 1269.9512,-280.2455 1279.6499,-275.981 1274.8737,-270.8636"/>
</g>
<!-- Node47&#45;&gt;Node48 -->
<g id="edge46" class="edge">
<title>Node47&#45;&gt;Node48</title>
<path fill="none" stroke="#191970" d="M1309.502,-215.3372C1304.5324,-206.0605 1298.7356,-195.2398 1294.6657,-187.6427"/>
<polygon fill="#191970" stroke="#191970" points="1306.4669,-217.0835 1314.2744,-224.2455 1312.6373,-213.7779 1306.4669,-217.0835"/>
</g>
<!-- Node49 -->
<g id="node39" class="node">
<title>Node49</title>
<g id="a_node39"><a xlink:href="init_8h.html" target="_top" xlink:title="ODP initialization. ">
<polygon fill="#ffffff" stroke="#ff0000" points="1269,-112.5 1269,-131.5 1310,-131.5 1310,-112.5 1269,-112.5"/>
<text text-anchor="middle" x="1289.5" y="-119.5" font-family="Helvetica,sans-Serif" font-size="10.00" fill="#000000">init.h</text>
</a>
</g>
</g>
<!-- Node48&#45;&gt;Node49 -->
<g id="edge47" class="edge">
<title>Node48&#45;&gt;Node49</title>
<path fill="none" stroke="#191970" d="M1289.5,-158.1575C1289.5,-149.155 1289.5,-138.9199 1289.5,-131.6427"/>
<polygon fill="#191970" stroke="#191970" points="1286.0001,-158.2455 1289.5,-168.2455 1293.0001,-158.2456 1286.0001,-158.2455"/>
</g>
<!-- Node53 -->
<g id="node41" class="node">
<title>Node53</title>
<g id="a_node41"><a xlink:href="hash_8h.html" target="_top" xlink:title="ODP Hash function. ">
<polygon fill="#ffffff" stroke="#000000" points="1368,-224.5 1368,-243.5 1417,-243.5 1417,-224.5 1368,-224.5"/>
<text text-anchor="middle" x="1392.5" y="-231.5" font-family="Helvetica,sans-Serif" font-size="10.00" fill="#000000">hash.h</text>
</a>
</g>
</g>
<!-- Node52&#45;&gt;Node53 -->
<g id="edge49" class="edge">
<title>Node52&#45;&gt;Node53</title>
<path fill="none" stroke="#191970" d="M1350.3278,-273.3607C1360.7078,-263.6727 1373.4291,-251.7995 1382.1686,-243.6427"/>
<polygon fill="#191970" stroke="#191970" points="1347.8737,-270.8636 1342.9512,-280.2455 1352.6499,-275.981 1347.8737,-270.8636"/>
</g>
<!-- Node64&#45;&gt;Node32 -->
<g id="edge60" class="edge">
<title>Node64&#45;&gt;Node32</title>
<path fill="none" stroke="#191970" d="M565.5,-270.1575C565.5,-261.155 565.5,-250.9199 565.5,-243.6427"/>
<polygon fill="#191970" stroke="#191970" points="562.0001,-270.2455 565.5,-280.2455 569.0001,-270.2456 562.0001,-270.2455"/>
</g>
</g>
</svg>
