<?xml version="1.0" encoding="UTF-8" standalone="no"?>
<!DOCTYPE svg PUBLIC "-//W3C//DTD SVG 1.1//EN"
 "http://www.w3.org/Graphics/SVG/1.1/DTD/svg11.dtd">
<!-- Generated by graphviz version 2.40.1 (20161225.0304)
 -->
<!-- Title: ipsec.h Pages: 1 -->
<svg width="2207pt" height="968pt"
 viewBox="0.00 0.00 2207.00 968.00" xmlns="http://www.w3.org/2000/svg" xmlns:xlink="http://www.w3.org/1999/xlink">
<g id="graph0" class="graph" transform="scale(1 1) rotate(0) translate(4 964)">
<title>ipsec.h</title>
<polygon fill="#ffffff" stroke="transparent" points="-4,4 -4,-964 2203,-964 2203,4 -4,4"/>
<!-- Node0 -->
<g id="node1" class="node">
<title>Node0</title>
<polygon fill="#bfbfbf" stroke="#000000" points="1559.5,-940.5 1559.5,-959.5 1610.5,-959.5 1610.5,-940.5 1559.5,-940.5"/>
<text text-anchor="middle" x="1585" y="-947.5" font-family="Helvetica,sans-Serif" font-size="10.00" fill="#000000">ipsec.h</text>
</g>
<!-- Node1 -->
<g id="node2" class="node">
<title>Node1</title>
<polygon fill="#ffffff" stroke="#bfbfbf" points="537.5,-.5 537.5,-19.5 658.5,-19.5 658.5,-.5 537.5,-.5"/>
<text text-anchor="middle" x="598" y="-7.5" font-family="Helvetica,sans-Serif" font-size="10.00" fill="#000000">odp/visibility_begin.h</text>
</g>
<!-- Node0&#45;&gt;Node1 -->
<g id="edge1" class="edge">
<title>Node0&#45;&gt;Node1</title>
<path fill="none" stroke="#191970" d="M1559.3055,-949.8451C1376.4679,-948.6563 275.5863,-940.0333 132,-904 67.2863,-887.7599 0,-899.2203 0,-832.5 0,-832.5 0,-832.5 0,-133 0,-73.3235 53.9899,-76.5949 110,-56 184.7192,-28.5258 410.8945,-16.6398 527.2231,-12.2321"/>
<polygon fill="#191970" stroke="#191970" points="527.585,-15.7212 537.4485,-11.8532 527.3257,-8.726 527.585,-15.7212"/>
</g>
<!-- Node2 -->
<g id="node3" class="node">
<title>Node2</title>
<g id="a_node3"><a xlink:href="crypto_8h.html" target="_top" xlink:title="ODP crypto. ">
<polygon fill="#ffffff" stroke="#000000" points="1558.5,-705.5 1558.5,-724.5 1653.5,-724.5 1653.5,-705.5 1558.5,-705.5"/>
<text text-anchor="middle" x="1606" y="-712.5" font-family="Helvetica,sans-Serif" font-size="10.00" fill="#000000">odp/api/crypto.h</text>
</a>
</g>
</g>
<!-- Node0&#45;&gt;Node2 -->
<g id="edge2" class="edge">
<title>Node0&#45;&gt;Node2</title>
<path fill="none" stroke="#191970" d="M1585.8492,-940.4967C1588.982,-905.4391 1599.9315,-782.9096 1604.2396,-734.7"/>
<polygon fill="#191970" stroke="#191970" points="1607.7361,-734.8935 1605.1402,-724.6216 1600.7639,-734.2703 1607.7361,-734.8935"/>
</g>
<!-- Node10 -->
<g id="node11" class="node">
<title>Node10</title>
<polygon fill="#ffffff" stroke="#bfbfbf" points="1664,-.5 1664,-19.5 1776,-19.5 1776,-.5 1664,-.5"/>
<text text-anchor="middle" x="1720" y="-7.5" font-family="Helvetica,sans-Serif" font-size="10.00" fill="#000000">odp/visibility_end.h</text>
</g>
<!-- Node0&#45;&gt;Node10 -->
<g id="edge118" class="edge">
<title>Node0&#45;&gt;Node10</title>
<path fill="none" stroke="#191970" d="M1610.7426,-948.5457C1694.8858,-943.6165 1961.1289,-926.5827 2044,-904 2117.196,-884.0538 2199,-908.3651 2199,-832.5 2199,-832.5 2199,-832.5 2199,-133 2199,-48.8837 1918.3806,-21.4746 1786.7165,-13.2438"/>
<polygon fill="#191970" stroke="#191970" points="1786.5492,-9.7273 1776.3559,-12.6165 1786.1261,-16.7146 1786.5492,-9.7273"/>
</g>
<!-- Node31 -->
<g id="node32" class="node">
<title>Node31</title>
<g id="a_node32"><a xlink:href="support_8h.html" target="_top" xlink:title="ODP support API &#45; platform specific header. ">
<polygon fill="#ffffff" stroke="#000000" points="1433.5,-123.5 1433.5,-142.5 1534.5,-142.5 1534.5,-123.5 1433.5,-123.5"/>
<text text-anchor="middle" x="1484" y="-130.5" font-family="Helvetica,sans-Serif" font-size="10.00" fill="#000000">odp/api/support.h</text>
</a>
</g>
</g>
<!-- Node0&#45;&gt;Node31 -->
<g id="edge71" class="edge">
<title>Node0&#45;&gt;Node31</title>
<path fill="none" stroke="#191970" d="M1610.5691,-947.5263C1694.6144,-938.6985 1957,-905.308 1957,-832.5 1957,-832.5 1957,-832.5 1957,-435 1957,-404.4754 1957.2721,-392.6715 1938,-369 1880.7639,-298.6982 1657.7466,-220.2105 1577,-179 1555.5497,-168.0524 1531.1391,-155.9934 1512.7106,-146.9697"/>
<polygon fill="#191970" stroke="#191970" points="1514.1876,-143.796 1503.6663,-142.5495 1511.1139,-150.085 1514.1876,-143.796"/>
</g>
<!-- Node36 -->
<g id="node37" class="node">
<title>Node36</title>
<g id="a_node37"><a xlink:href="packet__io_8h.html" target="_top" xlink:title="ODP Packet IO. ">
<polygon fill="#ffffff" stroke="#000000" points="1002,-761.5 1002,-780.5 1114,-780.5 1114,-761.5 1002,-761.5"/>
<text text-anchor="middle" x="1058" y="-768.5" font-family="Helvetica,sans-Serif" font-size="10.00" fill="#000000">odp/api/packet_io.h</text>
</a>
</g>
</g>
<!-- Node0&#45;&gt;Node36 -->
<g id="edge72" class="edge">
<title>Node0&#45;&gt;Node36</title>
<path fill="none" stroke="#191970" d="M1559.2249,-941.2453C1473.4284,-912.1038 1197.1993,-818.2802 1095.7914,-783.8362"/>
<polygon fill="#191970" stroke="#191970" points="1096.8503,-780.4995 1086.2559,-780.5973 1094.5989,-787.1276 1096.8503,-780.4995"/>
</g>
<!-- Node41 -->
<g id="node42" class="node">
<title>Node41</title>
<g id="a_node42"><a xlink:href="protocols_8h.html" target="_top" xlink:title="ODP protocols. ">
<polygon fill="#ffffff" stroke="#000000" points="2061,-537.5 2061,-556.5 2171,-556.5 2171,-537.5 2061,-537.5"/>
<text text-anchor="middle" x="2116" y="-544.5" font-family="Helvetica,sans-Serif" font-size="10.00" fill="#000000">odp/api/protocols.h</text>
</a>
</g>
</g>
<!-- Node0&#45;&gt;Node41 -->
<g id="edge90" class="edge">
<title>Node0&#45;&gt;Node41</title>
<path fill="none" stroke="#191970" d="M1610.5902,-949.6385C1713.8067,-947.5031 2094,-932.8281 2094,-832.5 2094,-832.5 2094,-832.5 2094,-659 2094,-626.1132 2103.246,-588.7958 2109.7499,-566.6138"/>
<polygon fill="#191970" stroke="#191970" points="2113.1853,-567.3474 2112.7538,-556.7614 2106.4896,-565.3059 2113.1853,-567.3474"/>
</g>
<!-- Node43 -->
<g id="node44" class="node">
<title>Node43</title>
<g id="a_node44"><a xlink:href="classification_8h.html" target="_top" xlink:title="ODP classification descriptor. ">
<polygon fill="#ffffff" stroke="#000000" points="1178,-884.5 1178,-903.5 1306,-903.5 1306,-884.5 1178,-884.5"/>
<text text-anchor="middle" x="1242" y="-891.5" font-family="Helvetica,sans-Serif" font-size="10.00" fill="#000000">odp/api/classification.h</text>
</a>
</g>
</g>
<!-- Node0&#45;&gt;Node43 -->
<g id="edge94" class="edge">
<title>Node0&#45;&gt;Node43</title>
<path fill="none" stroke="#191970" d="M1559.4995,-945.8366C1507.3462,-937.3218 1386.9585,-917.6667 1310.3218,-905.1546"/>
<polygon fill="#191970" stroke="#191970" points="1310.7074,-901.6713 1300.274,-903.5141 1309.5794,-908.5798 1310.7074,-901.6713"/>
</g>
<!-- Node47 -->
<g id="node48" class="node">
<title>Node47</title>
<g id="a_node48"><a xlink:href="traffic__mngr_8h.html" target="_top" xlink:title="ODP Traffic manager. ">
<polygon fill="#ffffff" stroke="#000000" points="141.5,-884.5 141.5,-903.5 264.5,-903.5 264.5,-884.5 141.5,-884.5"/>
<text text-anchor="middle" x="203" y="-891.5" font-family="Helvetica,sans-Serif" font-size="10.00" fill="#000000">odp/api/traffic_mngr.h</text>
</a>
</g>
</g>
<!-- Node0&#45;&gt;Node47 -->
<g id="edge111" class="edge">
<title>Node0&#45;&gt;Node47</title>
<path fill="none" stroke="#191970" d="M1559.2332,-948.9559C1398.5074,-942.4431 532.0253,-907.3324 274.9425,-896.9152"/>
<polygon fill="#191970" stroke="#191970" points="274.7403,-893.4042 264.6067,-896.4964 274.4568,-900.3985 274.7403,-893.4042"/>
</g>
<!-- Node3 -->
<g id="node4" class="node">
<title>Node3</title>
<g id="a_node4"><a xlink:href="std__types_8h.html" target="_top" xlink:title="Standard C language types and definitions for ODP. ">
<polygon fill="#ffffff" stroke="#000000" points="494,-246.5 494,-265.5 606,-265.5 606,-246.5 494,-246.5"/>
<text text-anchor="middle" x="550" y="-253.5" font-family="Helvetica,sans-Serif" font-size="10.00" fill="#000000">odp/api/std_types.h</text>
</a>
</g>
</g>
<!-- Node2&#45;&gt;Node3 -->
<g id="edge3" class="edge">
<title>Node2&#45;&gt;Node3</title>
<path fill="none" stroke="#191970" d="M1558.3153,-712.2741C1386.8223,-702.0785 808.1452,-664.1393 744,-613 651.5493,-539.2944 698.3568,-470.6696 638,-369 616.373,-332.5699 584.5529,-294.5771 565.688,-273.2392"/>
<polygon fill="#191970" stroke="#191970" points="568.1894,-270.7858 558.9144,-265.6648 562.9715,-275.4521 568.1894,-270.7858"/>
</g>
<!-- Node11 -->
<g id="node12" class="node">
<title>Node11</title>
<polygon fill="#ffffff" stroke="#bfbfbf" points="1813,-369.5 1813,-388.5 1929,-388.5 1929,-369.5 1813,-369.5"/>
<text text-anchor="middle" x="1871" y="-376.5" font-family="Helvetica,sans-Serif" font-size="10.00" fill="#000000">odp/api/abi/packet.h</text>
</g>
<!-- Node2&#45;&gt;Node11 -->
<g id="edge14" class="edge">
<title>Node2&#45;&gt;Node11</title>
<path fill="none" stroke="#191970" d="M1613.0281,-705.2568C1639.9705,-668.039 1739.635,-531.5833 1829,-425 1837.2139,-415.2035 1846.7982,-404.6453 1854.7355,-396.118"/>
<polygon fill="#191970" stroke="#191970" points="1857.4487,-398.3416 1861.7424,-388.6558 1852.3457,-393.55 1857.4487,-398.3416"/>
</g>
<!-- Node12 -->
<g id="node13" class="node">
<title>Node12</title>
<polygon fill="#ffffff" stroke="#bfbfbf" points="1701.5,-649.5 1701.5,-668.5 1814.5,-668.5 1814.5,-649.5 1701.5,-649.5"/>
<text text-anchor="middle" x="1758" y="-656.5" font-family="Helvetica,sans-Serif" font-size="10.00" fill="#000000">odp/api/abi/crypto.h</text>
</g>
<!-- Node2&#45;&gt;Node12 -->
<g id="edge15" class="edge">
<title>Node2&#45;&gt;Node12</title>
<path fill="none" stroke="#191970" d="M1632.1297,-705.3733C1657.0768,-696.1822 1694.8592,-682.2624 1722.5206,-672.0713"/>
<polygon fill="#191970" stroke="#191970" points="1724.0378,-675.2424 1732.2112,-668.5011 1721.6178,-668.674 1724.0378,-675.2424"/>
</g>
<!-- Node13 -->
<g id="node14" class="node">
<title>Node13</title>
<polygon fill="#ffffff" stroke="#bfbfbf" points="1647,-369.5 1647,-388.5 1757,-388.5 1757,-369.5 1647,-369.5"/>
<text text-anchor="middle" x="1702" y="-376.5" font-family="Helvetica,sans-Serif" font-size="10.00" fill="#000000">odp/api/abi/buffer.h</text>
</g>
<!-- Node2&#45;&gt;Node13 -->
<g id="edge16" class="edge">
<title>Node2&#45;&gt;Node13</title>
<path fill="none" stroke="#191970" d="M1608.7696,-705.3065C1621.9362,-659.2235 1678.3107,-461.9127 1696.3938,-398.6219"/>
<polygon fill="#191970" stroke="#191970" points="1699.8373,-399.3096 1699.2192,-388.7328 1693.1066,-397.3865 1699.8373,-399.3096"/>
</g>
<!-- Node14 -->
<g id="node15" class="node">
<title>Node14</title>
<polygon fill="#ffffff" stroke="#bfbfbf" points="1221,-369.5 1221,-388.5 1325,-388.5 1325,-369.5 1221,-369.5"/>
<text text-anchor="middle" x="1273" y="-376.5" font-family="Helvetica,sans-Serif" font-size="10.00" fill="#000000">odp/api/abi/pool.h</text>
</g>
<!-- Node2&#45;&gt;Node14 -->
<g id="edge17" class="edge">
<title>Node2&#45;&gt;Node14</title>
<path fill="none" stroke="#191970" d="M1596.3931,-705.3065C1550.0596,-658.5556 1349.4728,-456.1618 1289.804,-395.9554"/>
<polygon fill="#191970" stroke="#191970" points="1292.1712,-393.3718 1282.6459,-388.7328 1287.1993,-398.2993 1292.1712,-393.3718"/>
</g>
<!-- Node15 -->
<g id="node16" class="node">
<title>Node15</title>
<g id="a_node16"><a xlink:href="queue_8h.html" target="_top" xlink:title="ODP queue. ">
<polygon fill="#ffffff" stroke="#000000" points="1052.5,-649.5 1052.5,-668.5 1147.5,-668.5 1147.5,-649.5 1052.5,-649.5"/>
<text text-anchor="middle" x="1100" y="-656.5" font-family="Helvetica,sans-Serif" font-size="10.00" fill="#000000">odp/api/queue.h</text>
</a>
</g>
</g>
<!-- Node2&#45;&gt;Node15 -->
<g id="edge18" class="edge">
<title>Node2&#45;&gt;Node15</title>
<path fill="none" stroke="#191970" d="M1558.3967,-709.7317C1465.1594,-699.4129 1258.795,-676.5741 1157.8626,-665.4038"/>
<polygon fill="#191970" stroke="#191970" points="1158.1697,-661.9165 1147.8454,-664.2951 1157.3997,-668.874 1158.1697,-661.9165"/>
</g>
<!-- Node35 -->
<g id="node36" class="node">
<title>Node35</title>
<g id="a_node36"><a xlink:href="spec_2crypto_8h.html" target="_top" xlink:title="ODP crypto. ">
<polygon fill="#ffffff" stroke="#000000" points="1469.5,-481.5 1469.5,-500.5 1590.5,-500.5 1590.5,-481.5 1469.5,-481.5"/>
<text text-anchor="middle" x="1530" y="-488.5" font-family="Helvetica,sans-Serif" font-size="10.00" fill="#000000">odp/api/spec/crypto.h</text>
</a>
</g>
</g>
<!-- Node2&#45;&gt;Node35 -->
<g id="edge65" class="edge">
<title>Node2&#45;&gt;Node35</title>
<path fill="none" stroke="#191970" d="M1602.7344,-705.375C1591.1873,-671.3415 1552.1425,-556.262 1536.5302,-510.247"/>
<polygon fill="#191970" stroke="#191970" points="1539.7809,-508.9344 1533.2535,-500.5891 1533.1521,-511.1835 1539.7809,-508.9344"/>
</g>
<!-- Node4 -->
<g id="node5" class="node">
<title>Node4</title>
<polygon fill="#ffffff" stroke="#bfbfbf" points="615,-185 615,-204 745,-204 745,-185 615,-185"/>
<text text-anchor="middle" x="680" y="-192" font-family="Helvetica,sans-Serif" font-size="10.00" fill="#000000">odp/api/abi/std_types.h</text>
</g>
<!-- Node3&#45;&gt;Node4 -->
<g id="edge4" class="edge">
<title>Node3&#45;&gt;Node4</title>
<path fill="none" stroke="#191970" d="M570.3125,-246.3906C591.8731,-236.1908 626.1478,-219.9763 650.6444,-208.3875"/>
<polygon fill="#191970" stroke="#191970" points="652.2874,-211.4822 659.8301,-204.0419 649.2939,-205.1545 652.2874,-211.4822"/>
</g>
<!-- Node5 -->
<g id="node6" class="node">
<title>Node5</title>
<g id="a_node6"><a xlink:href="spec_2std__types_8h.html" target="_top" xlink:title="Standard C language types and definitions for ODP. ">
<polygon fill="#ffffff" stroke="#000000" points="459.5,-185 459.5,-204 596.5,-204 596.5,-185 459.5,-185"/>
<text text-anchor="middle" x="528" y="-192" font-family="Helvetica,sans-Serif" font-size="10.00" fill="#000000">odp/api/spec/std_types.h</text>
</a>
</g>
</g>
<!-- Node3&#45;&gt;Node5 -->
<g id="edge5" class="edge">
<title>Node3&#45;&gt;Node5</title>
<path fill="none" stroke="#191970" d="M546.5625,-246.3906C543.4487,-237.6862 538.768,-224.6015 534.886,-213.7494"/>
<polygon fill="#191970" stroke="#191970" points="538.1497,-212.4817 531.486,-204.2449 531.5588,-214.8394 538.1497,-212.4817"/>
</g>
<!-- Node5&#45;&gt;Node1 -->
<g id="edge6" class="edge">
<title>Node5&#45;&gt;Node1</title>
<path fill="none" stroke="#191970" d="M514.2861,-184.6631C502.3022,-175.3155 485.3924,-160.1656 476,-143 457.2641,-108.7579 441.3187,-87.7666 464,-56 473.6497,-42.4849 510.4012,-30.4292 542.9791,-22.0535"/>
<polygon fill="#191970" stroke="#191970" points="544.0647,-25.39 552.9209,-19.5747 542.3712,-18.598 544.0647,-25.39"/>
</g>
<!-- Node6 -->
<g id="node7" class="node">
<title>Node6</title>
<polygon fill="#ffffff" stroke="#bfbfbf" points="485.5,-123.5 485.5,-142.5 538.5,-142.5 538.5,-123.5 485.5,-123.5"/>
<text text-anchor="middle" x="512" y="-130.5" font-family="Helvetica,sans-Serif" font-size="10.00" fill="#000000">stdint.h</text>
</g>
<!-- Node5&#45;&gt;Node6 -->
<g id="edge7" class="edge">
<title>Node5&#45;&gt;Node6</title>
<path fill="none" stroke="#191970" d="M525.5,-184.8906C523.2588,-176.276 519.9014,-163.3708 517.0955,-152.5858"/>
<polygon fill="#191970" stroke="#191970" points="520.4404,-151.5414 514.5352,-142.7449 513.6659,-153.304 520.4404,-151.5414"/>
</g>
<!-- Node7 -->
<g id="node8" class="node">
<title>Node7</title>
<g id="a_node8"><a xlink:href="align_8h.html" target="_top" xlink:title="ODP alignments. ">
<polygon fill="#ffffff" stroke="#000000" points="633.5,-123.5 633.5,-142.5 722.5,-142.5 722.5,-123.5 633.5,-123.5"/>
<text text-anchor="middle" x="678" y="-130.5" font-family="Helvetica,sans-Serif" font-size="10.00" fill="#000000">odp/api/align.h</text>
</a>
</g>
</g>
<!-- Node5&#45;&gt;Node7 -->
<g id="edge8" class="edge">
<title>Node5&#45;&gt;Node7</title>
<path fill="none" stroke="#191970" d="M551.4375,-184.8906C576.6453,-174.5554 616.9153,-158.0447 645.2477,-146.4284"/>
<polygon fill="#191970" stroke="#191970" points="646.8023,-149.5739 654.7271,-142.5419 644.1468,-143.0971 646.8023,-149.5739"/>
</g>
<!-- Node5&#45;&gt;Node10 -->
<g id="edge13" class="edge">
<title>Node5&#45;&gt;Node10</title>
<path fill="none" stroke="#191970" d="M574.5569,-184.9732C584.8962,-182.9343 595.8102,-180.8415 606,-179 856.3629,-133.7548 938.9906,-191.4045 1171,-87 1190.8762,-78.0557 1188.8163,-64.2268 1209,-56 1287.8469,-23.8624 1533.9113,-14.0709 1653.4685,-11.1728"/>
<polygon fill="#191970" stroke="#191970" points="1653.6769,-14.669 1663.5925,-10.9366 1653.5136,-7.6709 1653.6769,-14.669"/>
</g>
<!-- Node8 -->
<g id="node9" class="node">
<title>Node8</title>
<polygon fill="#ffffff" stroke="#bfbfbf" points="544.5,-62 544.5,-81 651.5,-81 651.5,-62 544.5,-62"/>
<text text-anchor="middle" x="598" y="-69" font-family="Helvetica,sans-Serif" font-size="10.00" fill="#000000">odp/api/abi/align.h</text>
</g>
<!-- Node7&#45;&gt;Node8 -->
<g id="edge9" class="edge">
<title>Node7&#45;&gt;Node8</title>
<path fill="none" stroke="#191970" d="M665.5,-123.3906C652.9364,-113.7324 633.3577,-98.6812 618.5151,-87.271"/>
<polygon fill="#191970" stroke="#191970" points="620.4735,-84.3618 610.4122,-81.0419 616.2072,-89.9115 620.4735,-84.3618"/>
</g>
<!-- Node9 -->
<g id="node10" class="node">
<title>Node9</title>
<g id="a_node10"><a xlink:href="spec_2align_8h.html" target="_top" xlink:title="ODP alignments. ">
<polygon fill="#ffffff" stroke="#000000" points="708,-62 708,-81 822,-81 822,-62 708,-62"/>
<text text-anchor="middle" x="765" y="-69" font-family="Helvetica,sans-Serif" font-size="10.00" fill="#000000">odp/api/spec/align.h</text>
</a>
</g>
</g>
<!-- Node7&#45;&gt;Node9 -->
<g id="edge10" class="edge">
<title>Node7&#45;&gt;Node9</title>
<path fill="none" stroke="#191970" d="M691.5938,-123.3906C705.3843,-113.6421 726.9472,-98.3994 743.141,-86.9521"/>
<polygon fill="#191970" stroke="#191970" points="745.3563,-89.6723 751.5017,-81.0419 741.3156,-83.9563 745.3563,-89.6723"/>
</g>
<!-- Node9&#45;&gt;Node1 -->
<g id="edge11" class="edge">
<title>Node9&#45;&gt;Node1</title>
<path fill="none" stroke="#191970" d="M738.9063,-61.8906C710.5964,-51.4652 665.2232,-34.7559 633.6408,-23.1252"/>
<polygon fill="#191970" stroke="#191970" points="634.504,-19.7133 623.9105,-19.5419 632.0849,-26.2821 634.504,-19.7133"/>
</g>
<!-- Node9&#45;&gt;Node10 -->
<g id="edge12" class="edge">
<title>Node9&#45;&gt;Node10</title>
<path fill="none" stroke="#191970" d="M822.0959,-62.0046C837.3024,-59.7459 853.7439,-57.5457 869,-56 1160.3512,-26.4803 1509.868,-15.1101 1653.4603,-11.4704"/>
<polygon fill="#191970" stroke="#191970" points="1653.9398,-14.9596 1663.8495,-11.2115 1653.7654,-7.9618 1653.9398,-14.9596"/>
</g>
<!-- Node15&#45;&gt;Node3 -->
<g id="edge19" class="edge">
<title>Node15&#45;&gt;Node3</title>
<path fill="none" stroke="#191970" d="M1074.2589,-649.4443C1052.5546,-640.9859 1020.9691,-627.7237 995,-613 882.9984,-549.4986 846.9408,-539.0384 759,-445 708.0284,-390.4942 728.4969,-349.572 671,-302 651.995,-286.2756 627.0444,-275.5789 604.7398,-268.4892"/>
<polygon fill="#191970" stroke="#191970" points="605.6237,-265.1003 595.0395,-265.5741 603.6091,-271.8041 605.6237,-265.1003"/>
</g>
<!-- Node15&#45;&gt;Node13 -->
<g id="edge22" class="edge">
<title>Node15&#45;&gt;Node13</title>
<path fill="none" stroke="#191970" d="M1138.2763,-649.4247C1253.7141,-620.3036 1592.973,-532.8505 1633,-501 1650.7913,-486.843 1679.3761,-428.3443 1693.5159,-397.785"/>
<polygon fill="#191970" stroke="#191970" points="1696.7419,-399.1464 1697.7209,-388.5969 1690.3768,-396.2333 1696.7419,-399.1464"/>
</g>
<!-- Node15&#45;&gt;Node14 -->
<g id="edge23" class="edge">
<title>Node15&#45;&gt;Node14</title>
<path fill="none" stroke="#191970" d="M1138.4775,-649.3402C1158.0792,-642.4339 1180.5536,-631.0765 1194,-613 1244.5429,-545.0531 1185.5161,-499.9158 1225,-425 1231.1602,-413.3118 1241.4084,-402.8791 1250.8571,-394.916"/>
<polygon fill="#191970" stroke="#191970" points="1253.1764,-397.5436 1258.8319,-388.5844 1248.8238,-392.0614 1253.1764,-397.5436"/>
</g>
<!-- Node16 -->
<g id="node17" class="node">
<title>Node16</title>
<polygon fill="#ffffff" stroke="#bfbfbf" points="799,-369.5 799,-388.5 909,-388.5 909,-369.5 799,-369.5"/>
<text text-anchor="middle" x="854" y="-376.5" font-family="Helvetica,sans-Serif" font-size="10.00" fill="#000000">odp/api/abi/event.h</text>
</g>
<!-- Node15&#45;&gt;Node16 -->
<g id="edge20" class="edge">
<title>Node15&#45;&gt;Node16</title>
<path fill="none" stroke="#191970" d="M1082.6897,-649.3654C1054.2319,-632.9677 996.7589,-597.4528 957,-557 914.657,-513.918 908.3639,-498.3336 880,-445 871.9693,-429.8997 865.0002,-411.7598 860.3042,-398.322"/>
<polygon fill="#191970" stroke="#191970" points="863.5693,-397.0515 857.0486,-388.7011 856.9387,-399.2953 863.5693,-397.0515"/>
</g>
<!-- Node17 -->
<g id="node18" class="node">
<title>Node17</title>
<polygon fill="#ffffff" stroke="#bfbfbf" points="367.5,-369.5 367.5,-388.5 480.5,-388.5 480.5,-369.5 367.5,-369.5"/>
<text text-anchor="middle" x="424" y="-376.5" font-family="Helvetica,sans-Serif" font-size="10.00" fill="#000000">odp/api/abi/queue.h</text>
</g>
<!-- Node15&#45;&gt;Node17 -->
<g id="edge21" class="edge">
<title>Node15&#45;&gt;Node17</title>
<path fill="none" stroke="#191970" d="M1063.3735,-649.4813C1032.088,-640.9976 986.078,-627.6797 947,-613 926.8911,-605.446 923.2812,-600.0786 903,-593 840.715,-571.2612 820.5839,-580.6521 759,-557 636.0418,-509.7763 500.7465,-427.7027 447.4319,-394.0508"/>
<polygon fill="#191970" stroke="#191970" points="449.0542,-390.935 438.7357,-388.531 445.3029,-396.845 449.0542,-390.935"/>
</g>
<!-- Node18 -->
<g id="node19" class="node">
<title>Node18</title>
<g id="a_node19"><a xlink:href="spec_2queue_8h.html" target="_top" xlink:title="ODP queue. ">
<polygon fill="#ffffff" stroke="#000000" points="1065,-593.5 1065,-612.5 1185,-612.5 1185,-593.5 1065,-593.5"/>
<text text-anchor="middle" x="1125" y="-600.5" font-family="Helvetica,sans-Serif" font-size="10.00" fill="#000000">odp/api/spec/queue.h</text>
</a>
</g>
</g>
<!-- Node15&#45;&gt;Node18 -->
<g id="edge24" class="edge">
<title>Node15&#45;&gt;Node18</title>
<path fill="none" stroke="#191970" d="M1104.3547,-649.2455C1107.7244,-641.6973 1112.493,-631.0158 1116.5983,-621.8197"/>
<polygon fill="#191970" stroke="#191970" points="1119.8147,-623.2009 1120.6952,-612.6427 1113.4227,-620.3473 1119.8147,-623.2009"/>
</g>
<!-- Node18&#45;&gt;Node1 -->
<g id="edge25" class="edge">
<title>Node18&#45;&gt;Node1</title>
<path fill="none" stroke="#191970" d="M1064.9445,-594.2989C1031.5234,-587.6092 990.114,-576.1527 957,-557 779.1556,-454.1372 804.3364,-325.7566 615,-246 545.8281,-216.8618 497.3161,-268.2663 450,-210 406.8524,-156.8669 408.3621,-111.0763 449,-56 459.652,-41.5634 499.213,-29.7453 534.8936,-21.704"/>
<polygon fill="#191970" stroke="#191970" points="535.8029,-25.088 544.8272,-19.537 534.311,-18.2488 535.8029,-25.088"/>
</g>
<!-- Node18&#45;&gt;Node10 -->
<g id="edge64" class="edge">
<title>Node18&#45;&gt;Node10</title>
<path fill="none" stroke="#191970" d="M1175.9637,-593.4791C1295.1754,-571.0145 1583.3578,-515.5062 1599,-501 1643.8544,-459.4031 1592.2307,-409.5881 1638,-369 1709.8327,-305.2989 1771.7603,-387.2112 1851,-333 1907.7595,-294.1685 1920,-263.2716 1920,-194.5 1920,-194.5 1920,-194.5 1920,-133 1920,-95.0319 1912.0652,-80.4294 1883,-56 1867.2814,-42.7885 1820.1987,-30.301 1780.6525,-21.6798"/>
<polygon fill="#191970" stroke="#191970" points="1781.2948,-18.2381 1770.7844,-19.5732 1779.8333,-25.0839 1781.2948,-18.2381"/>
</g>
<!-- Node19 -->
<g id="node20" class="node">
<title>Node19</title>
<g id="a_node20"><a xlink:href="event_8h.html" target="_top" xlink:title="ODP event. ">
<polygon fill="#ffffff" stroke="#000000" points="966,-537.5 966,-556.5 1058,-556.5 1058,-537.5 966,-537.5"/>
<text text-anchor="middle" x="1012" y="-544.5" font-family="Helvetica,sans-Serif" font-size="10.00" fill="#000000">odp/api/event.h</text>
</a>
</g>
</g>
<!-- Node18&#45;&gt;Node19 -->
<g id="edge26" class="edge">
<title>Node18&#45;&gt;Node19</title>
<path fill="none" stroke="#191970" d="M1105.5746,-593.3733C1087.5979,-584.4644 1060.6559,-571.1127 1040.291,-561.0203"/>
<polygon fill="#191970" stroke="#191970" points="1041.6861,-557.8055 1031.1719,-556.5011 1038.5778,-564.0776 1041.6861,-557.8055"/>
</g>
<!-- Node27 -->
<g id="node28" class="node">
<title>Node27</title>
<g id="a_node28"><a xlink:href="queue__types_8h.html" target="_top" xlink:title="ODP queue types. ">
<polygon fill="#ffffff" stroke="#000000" points="1456.5,-302.5 1456.5,-332.5 1567.5,-332.5 1567.5,-302.5 1456.5,-302.5"/>
<text text-anchor="start" x="1464.5" y="-320.5" font-family="Helvetica,sans-Serif" font-size="10.00" fill="#000000">odp/api/spec/queue</text>
<text text-anchor="middle" x="1512" y="-309.5" font-family="Helvetica,sans-Serif" font-size="10.00" fill="#000000">_types.h</text>
</a>
</g>
</g>
<!-- Node18&#45;&gt;Node27 -->
<g id="edge48" class="edge">
<title>Node18&#45;&gt;Node27</title>
<path fill="none" stroke="#191970" d="M1138.3214,-593.1724C1193.48,-552.4805 1404.7287,-396.6368 1482.7878,-339.0506"/>
<polygon fill="#191970" stroke="#191970" points="1485.2335,-341.5958 1491.2028,-332.8426 1481.0778,-335.9627 1485.2335,-341.5958"/>
</g>
<!-- Node19&#45;&gt;Node16 -->
<g id="edge27" class="edge">
<title>Node19&#45;&gt;Node16</title>
<path fill="none" stroke="#191970" d="M994.6121,-537.4866C980.1182,-529.054 959.4231,-515.8059 944,-501 910.3273,-468.6747 880.1169,-422.5881 864.7314,-397.3194"/>
<polygon fill="#191970" stroke="#191970" points="867.7255,-395.5066 859.5843,-388.7263 861.7203,-399.1036 867.7255,-395.5066"/>
</g>
<!-- Node20 -->
<g id="node21" class="node">
<title>Node20</title>
<g id="a_node21"><a xlink:href="spec_2event_8h.html" target="_top" xlink:title="ODP event. ">
<polygon fill="#ffffff" stroke="#000000" points="953,-481.5 953,-500.5 1071,-500.5 1071,-481.5 953,-481.5"/>
<text text-anchor="middle" x="1012" y="-488.5" font-family="Helvetica,sans-Serif" font-size="10.00" fill="#000000">odp/api/spec/event.h</text>
</a>
</g>
</g>
<!-- Node19&#45;&gt;Node20 -->
<g id="edge28" class="edge">
<title>Node19&#45;&gt;Node20</title>
<path fill="none" stroke="#191970" d="M1012,-537.2455C1012,-529.9382 1012,-519.6944 1012,-510.7046"/>
<polygon fill="#191970" stroke="#191970" points="1015.5001,-510.6426 1012,-500.6427 1008.5001,-510.6427 1015.5001,-510.6426"/>
</g>
<!-- Node20&#45;&gt;Node1 -->
<g id="edge29" class="edge">
<title>Node20&#45;&gt;Node1</title>
<path fill="none" stroke="#191970" d="M997.2013,-481.4594C984.9728,-473.0101 967.7696,-459.753 956,-445 932.4485,-415.4788 945.7904,-394.5708 918,-369 886.2972,-339.8292 859.4727,-362.4188 828,-333 772.5253,-281.1456 813.8019,-225.798 754,-179 692.1507,-130.5999 649.7566,-180.9531 581,-143 550.73,-126.2912 539.9405,-119.0624 527,-87 521.8434,-74.2236 520.4193,-68.1046 527,-56 534.6377,-41.9511 548.6209,-31.5317 562.1708,-24.1958"/>
<polygon fill="#191970" stroke="#191970" points="564.0059,-27.1921 571.399,-19.603 560.887,-20.9253 564.0059,-27.1921"/>
</g>
<!-- Node20&#45;&gt;Node10 -->
<g id="edge47" class="edge">
<title>Node20&#45;&gt;Node10</title>
<path fill="none" stroke="#191970" d="M1071.1034,-483.5977C1182.7538,-467.9172 1430.3009,-424.9804 1618,-333 1714.6119,-285.6561 1739.9067,-246.856 1768,-143 1778.1921,-105.3214 1797.271,-91.0038 1780,-56 1773.5207,-42.8681 1761.2938,-32.4457 1749.5593,-24.8651"/>
<polygon fill="#191970" stroke="#191970" points="1751.1652,-21.7475 1740.7852,-19.6244 1747.5756,-27.7572 1751.1652,-21.7475"/>
</g>
<!-- Node21 -->
<g id="node22" class="node">
<title>Node21</title>
<g id="a_node22"><a xlink:href="packet_8h.html" target="_top" xlink:title="ODP packet descriptor. ">
<polygon fill="#ffffff" stroke="#000000" points="965,-425.5 965,-444.5 1063,-444.5 1063,-425.5 965,-425.5"/>
<text text-anchor="middle" x="1014" y="-432.5" font-family="Helvetica,sans-Serif" font-size="10.00" fill="#000000">odp/api/packet.h</text>
</a>
</g>
</g>
<!-- Node20&#45;&gt;Node21 -->
<g id="edge30" class="edge">
<title>Node20&#45;&gt;Node21</title>
<path fill="none" stroke="#191970" d="M1012.3484,-481.2455C1012.6093,-473.9382 1012.9752,-463.6944 1013.2963,-454.7046"/>
<polygon fill="#191970" stroke="#191970" points="1016.7964,-454.7613 1013.6556,-444.6427 1009.8008,-454.5113 1016.7964,-454.7613"/>
</g>
<!-- Node21&#45;&gt;Node3 -->
<g id="edge31" class="edge">
<title>Node21&#45;&gt;Node3</title>
<path fill="none" stroke="#191970" d="M1002.5708,-425.4779C985.2457,-411.4436 950.8635,-385.1292 918,-369 860.2163,-340.6401 681.0434,-290.9823 595.8709,-268.1333"/>
<polygon fill="#191970" stroke="#191970" points="596.7742,-264.752 586.2094,-265.5484 594.9649,-271.5141 596.7742,-264.752"/>
</g>
<!-- Node21&#45;&gt;Node11 -->
<g id="edge34" class="edge">
<title>Node21&#45;&gt;Node11</title>
<path fill="none" stroke="#191970" d="M1063.3118,-432.5626C1183.5341,-426.4942 1501.2846,-409.6959 1766,-389 1777.9092,-388.0689 1790.567,-386.963 1802.8186,-385.8319"/>
<polygon fill="#191970" stroke="#191970" points="1803.3592,-389.2966 1812.989,-384.879 1802.7061,-382.3271 1803.3592,-389.2966"/>
</g>
<!-- Node21&#45;&gt;Node13 -->
<g id="edge36" class="edge">
<title>Node21&#45;&gt;Node13</title>
<path fill="none" stroke="#191970" d="M1063.2032,-430.9951C1184.7489,-421.1018 1499.2538,-395.5026 1636.4167,-384.3382"/>
<polygon fill="#191970" stroke="#191970" points="1637.0861,-387.7954 1646.7692,-383.4955 1636.5182,-380.8184 1637.0861,-387.7954"/>
</g>
<!-- Node21&#45;&gt;Node14 -->
<g id="edge37" class="edge">
<title>Node21&#45;&gt;Node14</title>
<path fill="none" stroke="#191970" d="M1058.2294,-425.4369C1102.7415,-415.8127 1171.449,-400.957 1219.1169,-390.6504"/>
<polygon fill="#191970" stroke="#191970" points="1219.9186,-394.058 1228.953,-388.5237 1218.4392,-387.2161 1219.9186,-394.058"/>
</g>
<!-- Node21&#45;&gt;Node16 -->
<g id="edge32" class="edge">
<title>Node21&#45;&gt;Node16</title>
<path fill="none" stroke="#191970" d="M986.495,-425.3733C960.1198,-416.1419 920.1149,-402.1402 890.9642,-391.9375"/>
<polygon fill="#191970" stroke="#191970" points="891.7409,-388.5012 881.1461,-388.5011 889.4284,-395.1082 891.7409,-388.5012"/>
</g>
<!-- Node21&#45;&gt;Node17 -->
<g id="edge35" class="edge">
<title>Node21&#45;&gt;Node17</title>
<path fill="none" stroke="#191970" d="M964.7686,-431.7144C873.4792,-425.3964 671.5664,-410.3663 490.8059,-389.0296"/>
<polygon fill="#191970" stroke="#191970" points="491.1943,-385.5512 480.8509,-387.8455 490.3675,-392.5022 491.1943,-385.5512"/>
</g>
<!-- Node22 -->
<g id="node23" class="node">
<title>Node22</title>
<polygon fill="#ffffff" stroke="#bfbfbf" points="499,-369.5 499,-388.5 629,-388.5 629,-369.5 499,-369.5"/>
<text text-anchor="middle" x="564" y="-376.5" font-family="Helvetica,sans-Serif" font-size="10.00" fill="#000000">odp/api/abi/packet_io.h</text>
</g>
<!-- Node21&#45;&gt;Node22 -->
<g id="edge33" class="edge">
<title>Node21&#45;&gt;Node22</title>
<path fill="none" stroke="#191970" d="M964.9855,-428.9004C886.4919,-419.1323 732.0279,-399.9101 639.4049,-388.3837"/>
<polygon fill="#191970" stroke="#191970" points="639.612,-384.8826 629.2563,-387.1208 638.7475,-391.829 639.612,-384.8826"/>
</g>
<!-- Node23 -->
<g id="node24" class="node">
<title>Node23</title>
<g id="a_node24"><a xlink:href="spec_2packet_8h.html" target="_top" xlink:title="ODP packet descriptor. ">
<polygon fill="#ffffff" stroke="#000000" points="1003.5,-369.5 1003.5,-388.5 1126.5,-388.5 1126.5,-369.5 1003.5,-369.5"/>
<text text-anchor="middle" x="1065" y="-376.5" font-family="Helvetica,sans-Serif" font-size="10.00" fill="#000000">odp/api/spec/packet.h</text>
</a>
</g>
</g>
<!-- Node21&#45;&gt;Node23 -->
<g id="edge38" class="edge">
<title>Node21&#45;&gt;Node23</title>
<path fill="none" stroke="#191970" d="M1022.8835,-425.2455C1030.1966,-417.2155 1040.7391,-405.6394 1049.4467,-396.0781"/>
<polygon fill="#191970" stroke="#191970" points="1052.0727,-398.3928 1056.2183,-388.6427 1046.8972,-393.6795 1052.0727,-398.3928"/>
</g>
<!-- Node23&#45;&gt;Node1 -->
<g id="edge39" class="edge">
<title>Node23&#45;&gt;Node1</title>
<path fill="none" stroke="#191970" d="M1057.5895,-369.4972C1038.863,-345.9822 987.2566,-284.2177 933,-246 875.6202,-205.5824 856.4922,-201.468 790,-179 718.4799,-154.8331 693.8929,-171.5333 624,-143 602.3662,-134.1681 546.2968,-107.455 535,-87 528.3392,-74.9393 528.7595,-68.2835 535,-56 541.861,-42.4951 554.7532,-32.0099 567.0966,-24.4839"/>
<polygon fill="#191970" stroke="#191970" points="568.9003,-27.4849 575.8934,-19.5258 565.4633,-21.3868 568.9003,-27.4849"/>
</g>
<!-- Node23&#45;&gt;Node10 -->
<g id="edge46" class="edge">
<title>Node23&#45;&gt;Node10</title>
<path fill="none" stroke="#191970" d="M1126.7575,-374.6205C1258.3558,-365.1268 1556.0911,-342.7251 1576,-333 1699.6427,-272.6031 1736.3322,-221.7954 1764,-87 1766.7702,-73.5036 1769.1308,-68.7868 1764,-56 1759.3367,-44.3782 1750.1812,-34.0324 1741.4238,-26.1099"/>
<polygon fill="#191970" stroke="#191970" points="1743.5368,-23.3136 1733.6336,-19.5484 1739.0273,-28.6675 1743.5368,-23.3136"/>
</g>
<!-- Node24 -->
<g id="node25" class="node">
<title>Node24</title>
<g id="a_node25"><a xlink:href="time_8h.html" target="_top" xlink:title="ODP time. ">
<polygon fill="#ffffff" stroke="#000000" points="837.5,-308 837.5,-327 924.5,-327 924.5,-308 837.5,-308"/>
<text text-anchor="middle" x="881" y="-315" font-family="Helvetica,sans-Serif" font-size="10.00" fill="#000000">odp/api/time.h</text>
</a>
</g>
</g>
<!-- Node23&#45;&gt;Node24 -->
<g id="edge40" class="edge">
<title>Node23&#45;&gt;Node24</title>
<path fill="none" stroke="#191970" d="M1036.25,-369.3906C1004.7883,-358.8749 954.1992,-341.966 919.3686,-330.3243"/>
<polygon fill="#191970" stroke="#191970" points="920.1419,-326.8925 909.5481,-327.0419 917.9228,-333.5315 920.1419,-326.8925"/>
</g>
<!-- Node24&#45;&gt;Node3 -->
<g id="edge41" class="edge">
<title>Node24&#45;&gt;Node3</title>
<path fill="none" stroke="#191970" d="M837.3872,-309.3967C779.5652,-298.6534 677.2015,-279.6341 611.5352,-267.4333"/>
<polygon fill="#191970" stroke="#191970" points="611.7948,-263.9217 601.3237,-265.536 610.5161,-270.8039 611.7948,-263.9217"/>
</g>
<!-- Node25 -->
<g id="node26" class="node">
<title>Node25</title>
<polygon fill="#ffffff" stroke="#bfbfbf" points="819.5,-246.5 819.5,-265.5 924.5,-265.5 924.5,-246.5 819.5,-246.5"/>
<text text-anchor="middle" x="872" y="-253.5" font-family="Helvetica,sans-Serif" font-size="10.00" fill="#000000">odp/api/abi/time.h</text>
</g>
<!-- Node24&#45;&gt;Node25 -->
<g id="edge42" class="edge">
<title>Node24&#45;&gt;Node25</title>
<path fill="none" stroke="#191970" d="M879.5938,-307.8906C878.3462,-299.3657 876.4838,-286.6392 874.9156,-275.9235"/>
<polygon fill="#191970" stroke="#191970" points="878.3373,-275.1326 873.4261,-265.7449 871.411,-276.1463 878.3373,-275.1326"/>
</g>
<!-- Node26 -->
<g id="node27" class="node">
<title>Node26</title>
<g id="a_node27"><a xlink:href="spec_2time_8h.html" target="_top" xlink:title="ODP time. ">
<polygon fill="#ffffff" stroke="#000000" points="878.5,-62 878.5,-81 991.5,-81 991.5,-62 878.5,-62"/>
<text text-anchor="middle" x="935" y="-69" font-family="Helvetica,sans-Serif" font-size="10.00" fill="#000000">odp/api/spec/time.h</text>
</a>
</g>
</g>
<!-- Node24&#45;&gt;Node26 -->
<g id="edge43" class="edge">
<title>Node24&#45;&gt;Node26</title>
<path fill="none" stroke="#191970" d="M896.0472,-307.7138C908.5536,-298.6074 925.4746,-283.7866 933,-266 958.1611,-206.5308 946.85,-127.3847 939.5142,-91.1367"/>
<polygon fill="#191970" stroke="#191970" points="942.9308,-90.3766 937.41,-81.3339 936.0867,-91.8457 942.9308,-90.3766"/>
</g>
<!-- Node26&#45;&gt;Node1 -->
<g id="edge44" class="edge">
<title>Node26&#45;&gt;Node1</title>
<path fill="none" stroke="#191970" d="M892.6383,-61.9347C883.2259,-59.898 873.2867,-57.8158 864,-56 797.5643,-43.0102 721.4174,-30.0347 667.6674,-21.1927"/>
<polygon fill="#191970" stroke="#191970" points="667.9972,-17.7001 657.5626,-19.5357 666.8644,-24.6078 667.9972,-17.7001"/>
</g>
<!-- Node26&#45;&gt;Node10 -->
<g id="edge45" class="edge">
<title>Node26&#45;&gt;Node10</title>
<path fill="none" stroke="#191970" d="M991.5679,-62.2242C1006.9253,-59.937 1023.5732,-57.6679 1039,-56 1263.6583,-31.7109 1531.4862,-18.0836 1653.5159,-12.7114"/>
<polygon fill="#191970" stroke="#191970" points="1653.9716,-16.195 1663.8096,-12.2627 1653.6666,-9.2016 1653.9716,-16.195"/>
</g>
<!-- Node27&#45;&gt;Node1 -->
<g id="edge49" class="edge">
<title>Node27&#45;&gt;Node1</title>
<path fill="none" stroke="#191970" d="M1473.3354,-302.3912C1363.0922,-259.3507 1052.0969,-138.2186 1005,-123 945.5029,-103.7745 924.7029,-115.4027 869,-87 849.5826,-77.0992 850.7235,-65.276 831,-56 779.9011,-31.9682 716.7926,-20.4841 669.148,-15.0002"/>
<polygon fill="#191970" stroke="#191970" points="669.2407,-11.4897 658.9208,-13.8873 668.4834,-18.4486 669.2407,-11.4897"/>
</g>
<!-- Node27&#45;&gt;Node10 -->
<g id="edge63" class="edge">
<title>Node27&#45;&gt;Node10</title>
<path fill="none" stroke="#191970" d="M1539.0836,-302.2679C1592.2413,-270.5211 1708.4924,-191.4594 1748,-87 1752.8739,-74.1131 1751.72,-69.2661 1748,-56 1745.2122,-46.0584 1739.6188,-36.1336 1734.1593,-28.0613"/>
<polygon fill="#191970" stroke="#191970" points="1736.9048,-25.8849 1728.2089,-19.8323 1731.2324,-29.9866 1736.9048,-25.8849"/>
</g>
<!-- Node28 -->
<g id="node29" class="node">
<title>Node28</title>
<g id="a_node29"><a xlink:href="schedule__types_8h.html" target="_top" xlink:title="ODP schedule. ">
<polygon fill="#ffffff" stroke="#000000" points="1408,-246.5 1408,-265.5 1548,-265.5 1548,-246.5 1408,-246.5"/>
<text text-anchor="middle" x="1478" y="-253.5" font-family="Helvetica,sans-Serif" font-size="10.00" fill="#000000">odp/api/schedule_types.h</text>
</a>
</g>
</g>
<!-- Node27&#45;&gt;Node28 -->
<g id="edge50" class="edge">
<title>Node27&#45;&gt;Node28</title>
<path fill="none" stroke="#191970" d="M1503.5955,-302.2977C1498.9743,-293.9388 1493.2031,-283.4997 1488.3111,-274.6509"/>
<polygon fill="#191970" stroke="#191970" points="1491.3452,-272.9051 1483.4438,-265.8469 1485.2191,-276.292 1491.3452,-272.9051"/>
</g>
<!-- Node33 -->
<g id="node34" class="node">
<title>Node33</title>
<g id="a_node34"><a xlink:href="deprecated_8h.html" target="_top" xlink:title="Control deprecated API definitions. ">
<polygon fill="#ffffff" stroke="#000000" points="1133.5,-246.5 1133.5,-265.5 1252.5,-265.5 1252.5,-246.5 1133.5,-246.5"/>
<text text-anchor="middle" x="1193" y="-253.5" font-family="Helvetica,sans-Serif" font-size="10.00" fill="#000000">odp/api/deprecated.h</text>
</a>
</g>
</g>
<!-- Node27&#45;&gt;Node33 -->
<g id="edge59" class="edge">
<title>Node27&#45;&gt;Node33</title>
<path fill="none" stroke="#191970" d="M1456.2533,-304.9704C1451.4369,-303.9443 1446.6354,-302.9411 1442,-302 1379.7287,-289.3578 1308.397,-276.3272 1258.0878,-267.3769"/>
<polygon fill="#191970" stroke="#191970" points="1258.4567,-263.8878 1247.999,-265.5867 1257.2336,-270.7801 1258.4567,-263.8878"/>
</g>
<!-- Node29 -->
<g id="node30" class="node">
<title>Node29</title>
<polygon fill="#ffffff" stroke="#bfbfbf" points="1429.5,-179.5 1429.5,-209.5 1546.5,-209.5 1546.5,-179.5 1429.5,-179.5"/>
<text text-anchor="start" x="1437.5" y="-197.5" font-family="Helvetica,sans-Serif" font-size="10.00" fill="#000000">odp/api/abi/schedule</text>
<text text-anchor="middle" x="1488" y="-186.5" font-family="Helvetica,sans-Serif" font-size="10.00" fill="#000000">_types.h</text>
</g>
<!-- Node28&#45;&gt;Node29 -->
<g id="edge51" class="edge">
<title>Node28&#45;&gt;Node29</title>
<path fill="none" stroke="#191970" d="M1479.5625,-246.3906C1480.7279,-239.2234 1482.3762,-229.0862 1483.9071,-219.671"/>
<polygon fill="#191970" stroke="#191970" points="1487.4033,-219.9767 1485.5537,-209.5446 1480.4941,-218.8532 1487.4033,-219.9767"/>
</g>
<!-- Node30 -->
<g id="node31" class="node">
<title>Node30</title>
<g id="a_node31"><a xlink:href="spec_2schedule__types_8h.html" target="_top" xlink:title="ODP schedule types. ">
<polygon fill="#ffffff" stroke="#000000" points="1247.5,-179.5 1247.5,-209.5 1372.5,-209.5 1372.5,-179.5 1247.5,-179.5"/>
<text text-anchor="start" x="1255.5" y="-197.5" font-family="Helvetica,sans-Serif" font-size="10.00" fill="#000000">odp/api/spec/schedule</text>
<text text-anchor="middle" x="1310" y="-186.5" font-family="Helvetica,sans-Serif" font-size="10.00" fill="#000000">_types.h</text>
</a>
</g>
</g>
<!-- Node28&#45;&gt;Node30 -->
<g id="edge52" class="edge">
<title>Node28&#45;&gt;Node30</title>
<path fill="none" stroke="#191970" d="M1451.75,-246.3906C1427.4343,-237.4893 1390.6053,-224.0073 1360.5817,-213.0165"/>
<polygon fill="#191970" stroke="#191970" points="1361.6912,-209.6956 1351.0974,-209.5446 1359.2848,-216.269 1361.6912,-209.6956"/>
</g>
<!-- Node30&#45;&gt;Node1 -->
<g id="edge53" class="edge">
<title>Node30&#45;&gt;Node1</title>
<path fill="none" stroke="#191970" d="M1280.9171,-179.4033C1250.5268,-163.9879 1201.2045,-139.9746 1157,-123 1105.8134,-103.3442 1087.5366,-112.5073 1039,-87 1019.3997,-76.6995 1020.456,-64.4748 1000,-56 941.7862,-31.8823 767.7408,-18.9766 668.7988,-13.4128"/>
<polygon fill="#191970" stroke="#191970" points="668.7626,-9.9055 658.585,-12.8495 668.3771,-16.8949 668.7626,-9.9055"/>
</g>
<!-- Node30&#45;&gt;Node10 -->
<g id="edge58" class="edge">
<title>Node30&#45;&gt;Node10</title>
<path fill="none" stroke="#191970" d="M1316.2116,-179.324C1329.0734,-150.0172 1361.6079,-85.893 1411,-56 1450.6887,-31.9797 1575.3164,-19.521 1653.6412,-13.8982"/>
<polygon fill="#191970" stroke="#191970" points="1654.1673,-17.3701 1663.8991,-13.1817 1653.6796,-10.3871 1654.1673,-17.3701"/>
</g>
<!-- Node30&#45;&gt;Node31 -->
<g id="edge54" class="edge">
<title>Node30&#45;&gt;Node31</title>
<path fill="none" stroke="#191970" d="M1352.5652,-179.4554C1381.5975,-169.194 1419.6541,-155.7429 1447.3409,-145.9571"/>
<polygon fill="#191970" stroke="#191970" points="1448.7741,-149.1628 1457.0362,-142.5303 1446.4414,-142.5629 1448.7741,-149.1628"/>
</g>
<!-- Node32 -->
<g id="node33" class="node">
<title>Node32</title>
<g id="a_node33"><a xlink:href="spec_2support_8h.html" target="_top" xlink:title="ODP support API. ">
<polygon fill="#ffffff" stroke="#000000" points="1420.5,-62 1420.5,-81 1547.5,-81 1547.5,-62 1420.5,-62"/>
<text text-anchor="middle" x="1484" y="-69" font-family="Helvetica,sans-Serif" font-size="10.00" fill="#000000">odp/api/spec/support.h</text>
</a>
</g>
</g>
<!-- Node31&#45;&gt;Node32 -->
<g id="edge55" class="edge">
<title>Node31&#45;&gt;Node32</title>
<path fill="none" stroke="#191970" d="M1484,-123.3906C1484,-114.8657 1484,-102.1392 1484,-91.4235"/>
<polygon fill="#191970" stroke="#191970" points="1487.5001,-91.2448 1484,-81.2449 1480.5001,-91.2449 1487.5001,-91.2448"/>
</g>
<!-- Node32&#45;&gt;Node1 -->
<g id="edge56" class="edge">
<title>Node32&#45;&gt;Node1</title>
<path fill="none" stroke="#191970" d="M1421.6059,-61.9849C1405.4767,-59.7672 1388.1162,-57.5916 1372,-56 1113.8195,-30.5022 805.6927,-17.3244 669.155,-12.3681"/>
<polygon fill="#191970" stroke="#191970" points="668.9563,-8.8588 658.837,-11.9974 668.7049,-15.8543 668.9563,-8.8588"/>
</g>
<!-- Node32&#45;&gt;Node10 -->
<g id="edge57" class="edge">
<title>Node32&#45;&gt;Node10</title>
<path fill="none" stroke="#191970" d="M1520.6161,-61.9581C1561.7811,-51.2308 1628.7101,-33.7895 1673.5291,-22.11"/>
<polygon fill="#191970" stroke="#191970" points="1674.5038,-25.473 1683.298,-19.5643 1672.7386,-18.6992 1674.5038,-25.473"/>
</g>
<!-- Node34 -->
<g id="node35" class="node">
<title>Node34</title>
<g id="a_node35"><a xlink:href="spec_2deprecated_8h.html" target="_top" xlink:title="Macro for deprecated API definitions. ">
<polygon fill="#ffffff" stroke="#000000" points="1218.5,-62 1218.5,-81 1363.5,-81 1363.5,-62 1218.5,-62"/>
<text text-anchor="middle" x="1291" y="-69" font-family="Helvetica,sans-Serif" font-size="10.00" fill="#000000">odp/api/spec/deprecated.h</text>
</a>
</g>
</g>
<!-- Node33&#45;&gt;Node34 -->
<g id="edge60" class="edge">
<title>Node33&#45;&gt;Node34</title>
<path fill="none" stroke="#191970" d="M1198.1309,-246.3402C1213.6765,-217.0732 1260.4504,-129.0142 1281.0619,-90.2099"/>
<polygon fill="#191970" stroke="#191970" points="1284.3199,-91.5375 1285.9199,-81.0641 1278.1378,-88.2537 1284.3199,-91.5375"/>
</g>
<!-- Node34&#45;&gt;Node1 -->
<g id="edge61" class="edge">
<title>Node34&#45;&gt;Node1</title>
<path fill="none" stroke="#191970" d="M1221.9,-61.9945C1205.2508,-59.8648 1187.5049,-57.7274 1171,-56 990.4685,-37.1054 777.2251,-21.8393 668.8811,-14.5834"/>
<polygon fill="#191970" stroke="#191970" points="668.9391,-11.0796 658.7283,-13.9064 668.4733,-18.0641 668.9391,-11.0796"/>
</g>
<!-- Node34&#45;&gt;Node10 -->
<g id="edge62" class="edge">
<title>Node34&#45;&gt;Node10</title>
<path fill="none" stroke="#191970" d="M1342.4634,-61.957C1354.1321,-59.8975 1366.4799,-57.8001 1378,-56 1473.5713,-41.0661 1584.6326,-26.6716 1653.627,-18.0767"/>
<polygon fill="#191970" stroke="#191970" points="1654.4196,-21.5052 1663.9121,-16.7996 1653.557,-14.5586 1654.4196,-21.5052"/>
</g>
<!-- Node35&#45;&gt;Node1 -->
<g id="edge66" class="edge">
<title>Node35&#45;&gt;Node1</title>
<path fill="none" stroke="#191970" d="M1516.1345,-481.4293C1484.6169,-459.8861 1404.8298,-406.5388 1334,-369 1061.1505,-224.3937 963.1008,-247.0269 699,-87 680.0631,-75.5255 677.5602,-69.4874 660,-56 646.6567,-45.7515 631.4914,-34.4931 619.4995,-25.6796"/>
<polygon fill="#191970" stroke="#191970" points="621.5345,-22.8317 611.3997,-19.7434 617.3966,-28.4777 621.5345,-22.8317"/>
</g>
<!-- Node35&#45;&gt;Node10 -->
<g id="edge70" class="edge">
<title>Node35&#45;&gt;Node10</title>
<path fill="none" stroke="#191970" d="M1537.1356,-481.3076C1543.8057,-472.1186 1553.9213,-457.8474 1562,-445 1582.6592,-412.1462 1573.2101,-391.2615 1605,-369 1684.3619,-313.4252 1743.3363,-392.2414 1820,-333 1873.3652,-291.7623 1882,-261.9418 1882,-194.5 1882,-194.5 1882,-194.5 1882,-133 1882,-97.154 1883.0973,-81.5942 1858,-56 1845.6486,-43.4041 1805.6779,-30.8561 1771.9123,-22.0552"/>
<polygon fill="#191970" stroke="#191970" points="1772.6816,-18.6395 1762.127,-19.562 1770.9533,-25.4227 1772.6816,-18.6395"/>
</g>
<!-- Node35&#45;&gt;Node21 -->
<g id="edge69" class="edge">
<title>Node35&#45;&gt;Node21</title>
<path fill="none" stroke="#191970" d="M1469.2909,-484.4114C1369.5866,-473.5908 1172.3754,-452.188 1073.4795,-441.4551"/>
<polygon fill="#191970" stroke="#191970" points="1073.6772,-437.9561 1063.358,-440.3567 1072.9219,-444.9153 1073.6772,-437.9561"/>
</g>
<!-- Node35&#45;&gt;Node31 -->
<g id="edge68" class="edge">
<title>Node35&#45;&gt;Node31</title>
<path fill="none" stroke="#191970" d="M1532.9949,-481.3098C1542.86,-449.3128 1573.832,-348.2023 1576,-333 1577.9452,-319.3602 1577.1635,-315.7286 1576,-302 1571.3166,-246.7404 1585.5082,-225.312 1555,-179 1545.9406,-165.2476 1531.1968,-154.7177 1517.4859,-147.2255"/>
<polygon fill="#191970" stroke="#191970" points="1518.7412,-143.9372 1508.2414,-142.5217 1515.5668,-150.1761 1518.7412,-143.9372"/>
</g>
<!-- Node35&#45;&gt;Node33 -->
<g id="edge67" class="edge">
<title>Node35&#45;&gt;Node33</title>
<path fill="none" stroke="#191970" d="M1524.1369,-481.346C1515.655,-467.8343 1498.9946,-442.9298 1481,-425 1404.1343,-348.4112 1285.7128,-293.475 1227.5915,-269.4711"/>
<polygon fill="#191970" stroke="#191970" points="1228.7111,-266.1479 1218.1295,-265.6175 1226.0707,-272.6309 1228.7111,-266.1479"/>
</g>
<!-- Node36&#45;&gt;Node3 -->
<g id="edge73" class="edge">
<title>Node36&#45;&gt;Node3</title>
<path fill="none" stroke="#191970" d="M1001.8219,-767.9964C886.0306,-761.4365 628.7096,-744.819 594,-725 578.3479,-716.0628 388.9381,-487.5595 358,-389 355.3378,-380.5191 353.2093,-376.4874 358,-369 378.5777,-336.8389 402.7382,-351.7465 436,-333 469.7973,-313.9517 506.6027,-288.0749 528.9915,-271.7045"/>
<polygon fill="#191970" stroke="#191970" points="531.1305,-274.476 537.1045,-265.7261 526.9779,-268.8408 531.1305,-274.476"/>
</g>
<!-- Node36&#45;&gt;Node11 -->
<g id="edge76" class="edge">
<title>Node36&#45;&gt;Node11</title>
<path fill="none" stroke="#191970" d="M1114.3651,-768.5711C1243.6322,-762.699 1558.2731,-746.6075 1662,-725 1736.1684,-709.5499 1770.525,-723.6446 1823,-669 1844.2299,-646.8923 1843,-633.6506 1843,-603 1843,-603 1843,-603 1843,-491 1843,-457.5848 1854.8754,-420.1911 1863.1585,-398.1729"/>
<polygon fill="#191970" stroke="#191970" points="1866.4868,-399.2719 1866.8685,-388.6839 1859.9674,-396.7229 1866.4868,-399.2719"/>
</g>
<!-- Node36&#45;&gt;Node14 -->
<g id="edge74" class="edge">
<title>Node36&#45;&gt;Node14</title>
<path fill="none" stroke="#191970" d="M1086.4778,-761.3758C1140.164,-741.2228 1251,-689.1808 1251,-603 1251,-603 1251,-603 1251,-547 1251,-492.5161 1254.5321,-478.8218 1263,-425 1264.3623,-416.3414 1266.3383,-406.864 1268.1747,-398.7737"/>
<polygon fill="#191970" stroke="#191970" points="1271.6359,-399.3443 1270.5215,-388.8082 1264.8223,-397.7396 1271.6359,-399.3443"/>
</g>
<!-- Node36&#45;&gt;Node17 -->
<g id="edge78" class="edge">
<title>Node36&#45;&gt;Node17</title>
<path fill="none" stroke="#191970" d="M1001.6027,-767.6275C890.7524,-760.6299 652.398,-743.6244 620,-725 555.0905,-687.686 459.4746,-465.2295 431.7788,-398.1405"/>
<polygon fill="#191970" stroke="#191970" points="434.9643,-396.6838 427.932,-388.7593 428.4876,-399.3396 434.9643,-396.6838"/>
</g>
<!-- Node36&#45;&gt;Node22 -->
<g id="edge77" class="edge">
<title>Node36&#45;&gt;Node22</title>
<path fill="none" stroke="#191970" d="M1001.646,-769.5034C875.8234,-764.6327 583,-744.1503 583,-659 583,-659 583,-659 583,-491 583,-458.2688 575.0148,-420.9052 569.3978,-398.6716"/>
<polygon fill="#191970" stroke="#191970" points="572.7289,-397.5763 566.8035,-388.7934 565.9585,-399.3545 572.7289,-397.5763"/>
</g>
<!-- Node37 -->
<g id="node38" class="node">
<title>Node37</title>
<polygon fill="#ffffff" stroke="#bfbfbf" points="1229,-705.5 1229,-724.5 1375,-724.5 1375,-705.5 1229,-705.5"/>
<text text-anchor="middle" x="1302" y="-712.5" font-family="Helvetica,sans-Serif" font-size="10.00" fill="#000000">odp/api/abi/classification.h</text>
</g>
<!-- Node36&#45;&gt;Node37 -->
<g id="edge75" class="edge">
<title>Node36&#45;&gt;Node37</title>
<path fill="none" stroke="#191970" d="M1099.6679,-761.4369C1141.4266,-751.8529 1205.7891,-737.0812 1250.6728,-726.78"/>
<polygon fill="#191970" stroke="#191970" points="1251.5404,-730.172 1260.504,-724.5237 1249.9745,-723.3494 1251.5404,-730.172"/>
</g>
<!-- Node38 -->
<g id="node39" class="node">
<title>Node38</title>
<g id="a_node39"><a xlink:href="spec_2packet__io_8h.html" target="_top" xlink:title="ODP Packet IO. ">
<polygon fill="#ffffff" stroke="#000000" points="876.5,-705.5 876.5,-724.5 1013.5,-724.5 1013.5,-705.5 876.5,-705.5"/>
<text text-anchor="middle" x="945" y="-712.5" font-family="Helvetica,sans-Serif" font-size="10.00" fill="#000000">odp/api/spec/packet_io.h</text>
</a>
</g>
</g>
<!-- Node36&#45;&gt;Node38 -->
<g id="edge79" class="edge">
<title>Node36&#45;&gt;Node38</title>
<path fill="none" stroke="#191970" d="M1038.5746,-761.3733C1020.5979,-752.4644 993.6559,-739.1127 973.291,-729.0203"/>
<polygon fill="#191970" stroke="#191970" points="974.6861,-725.8055 964.1719,-724.5011 971.5778,-732.0776 974.6861,-725.8055"/>
</g>
<!-- Node38&#45;&gt;Node1 -->
<g id="edge80" class="edge">
<title>Node38&#45;&gt;Node1</title>
<path fill="none" stroke="#191970" d="M889.9582,-705.428C846.822,-697.3592 785.5196,-684.6377 733,-669 483.8336,-594.8107 225,-638.9768 225,-379 225,-379 225,-379 225,-133 225,-70.0815 418.8395,-33.9569 527.0461,-18.6928"/>
<polygon fill="#191970" stroke="#191970" points="527.8158,-22.1197 537.241,-17.2805 526.8553,-15.1859 527.8158,-22.1197"/>
</g>
<!-- Node38&#45;&gt;Node10 -->
<g id="edge89" class="edge">
<title>Node38&#45;&gt;Node10</title>
<path fill="none" stroke="#191970" d="M993.862,-705.4706C1036.7916,-696.8314 1100.8336,-683.2949 1156,-669 1382.528,-610.3012 1458.0043,-627.3059 1655,-501 1729.4775,-453.248 1729.7034,-417.0331 1804,-369 1836.7429,-347.8316 1854.3375,-358.3048 1884,-333 1937.0954,-287.7049 1958,-264.2909 1958,-194.5 1958,-194.5 1958,-194.5 1958,-133 1958,-92.9063 1943.4073,-79.6066 1911,-56 1891.1588,-41.547 1833.2474,-28.8044 1786.3491,-20.418"/>
<polygon fill="#191970" stroke="#191970" points="1786.6769,-16.9222 1776.2228,-18.6433 1785.4685,-23.8171 1786.6769,-16.9222"/>
</g>
<!-- Node38&#45;&gt;Node15 -->
<g id="edge86" class="edge">
<title>Node38&#45;&gt;Node15</title>
<path fill="none" stroke="#191970" d="M971.6454,-705.3733C997.1964,-696.1419 1035.9512,-682.1402 1064.1909,-671.9375"/>
<polygon fill="#191970" stroke="#191970" points="1065.4865,-675.1909 1073.7022,-668.5011 1063.1079,-668.6074 1065.4865,-675.1909"/>
</g>
<!-- Node38&#45;&gt;Node21 -->
<g id="edge88" class="edge">
<title>Node38&#45;&gt;Node21</title>
<path fill="none" stroke="#191970" d="M890.3248,-705.479C819.1488,-690.3924 707.8539,-656.0324 744,-593 791.5087,-510.1532 901.1406,-466.5727 965.1374,-447.4036"/>
<polygon fill="#191970" stroke="#191970" points="966.3759,-450.6885 975.0002,-444.5345 964.4205,-443.9671 966.3759,-450.6885"/>
</g>
<!-- Node38&#45;&gt;Node24 -->
<g id="edge87" class="edge">
<title>Node38&#45;&gt;Node24</title>
<path fill="none" stroke="#191970" d="M876.4176,-706.4638C827.4506,-699.0091 767.1643,-686.6064 749,-669 730.4986,-651.0668 737.3621,-638.546 734,-613 721.4992,-518.0156 722.5048,-457.7137 790,-369 803.1977,-351.6533 824.0339,-339.2494 842.44,-330.9678"/>
<polygon fill="#191970" stroke="#191970" points="843.9466,-334.1308 851.7903,-327.0085 841.2171,-327.6849 843.9466,-334.1308"/>
</g>
<!-- Node38&#45;&gt;Node33 -->
<g id="edge81" class="edge">
<title>Node38&#45;&gt;Node33</title>
<path fill="none" stroke="#191970" d="M952.3118,-705.3239C969.054,-683.5649 1012.1213,-629.8046 1056,-593 1078.9565,-573.7445 1094.5202,-580.5855 1113,-557 1181.8286,-469.1553 1191.6745,-327.3098 1192.9058,-275.6331"/>
<polygon fill="#191970" stroke="#191970" points="1196.4071,-275.5697 1193.0591,-265.5178 1189.4079,-275.4635 1196.4071,-275.5697"/>
</g>
<!-- Node39 -->
<g id="node40" class="node">
<title>Node39</title>
<g id="a_node40"><a xlink:href="packet__io__stats_8h.html" target="_top" xlink:title="ODP packet IO stats. ">
<polygon fill="#ffffff" stroke="#000000" points="753.5,-593.5 753.5,-612.5 894.5,-612.5 894.5,-593.5 753.5,-593.5"/>
<text text-anchor="middle" x="824" y="-600.5" font-family="Helvetica,sans-Serif" font-size="10.00" fill="#000000">odp/api/packet_io_stats.h</text>
</a>
</g>
</g>
<!-- Node38&#45;&gt;Node39 -->
<g id="edge82" class="edge">
<title>Node38&#45;&gt;Node39</title>
<path fill="none" stroke="#191970" d="M934.6836,-705.4509C914.0558,-686.3574 867.5057,-643.2697 841.8328,-619.5063"/>
<polygon fill="#191970" stroke="#191970" points="844.0065,-616.7492 834.2903,-612.5249 839.2515,-621.8864 844.0065,-616.7492"/>
</g>
<!-- Node40 -->
<g id="node41" class="node">
<title>Node40</title>
<g id="a_node41"><a xlink:href="spec_2packet__io__stats_8h.html" target="_top" xlink:title="ODP Packet IO. ">
<polygon fill="#ffffff" stroke="#000000" points="1048,-56.5 1048,-86.5 1162,-86.5 1162,-56.5 1048,-56.5"/>
<text text-anchor="start" x="1056" y="-74.5" font-family="Helvetica,sans-Serif" font-size="10.00" fill="#000000">odp/api/spec/packet</text>
<text text-anchor="middle" x="1105" y="-63.5" font-family="Helvetica,sans-Serif" font-size="10.00" fill="#000000">_io_stats.h</text>
</a>
</g>
</g>
<!-- Node39&#45;&gt;Node40 -->
<g id="edge83" class="edge">
<title>Node39&#45;&gt;Node40</title>
<path fill="none" stroke="#191970" d="M894.711,-597.1141C956.8006,-590.6285 1041.1405,-578.1971 1067,-557 1168.9247,-473.4522 1137.4043,-397.1076 1124,-266 1117.808,-205.436 1110.9616,-134.2162 1107.4203,-97.0335"/>
<polygon fill="#191970" stroke="#191970" points="1110.8626,-96.2601 1106.4318,-86.6363 1103.8941,-96.9227 1110.8626,-96.2601"/>
</g>
<!-- Node40&#45;&gt;Node1 -->
<g id="edge84" class="edge">
<title>Node40&#45;&gt;Node1</title>
<path fill="none" stroke="#191970" d="M1047.7519,-58.4369C1043.1109,-57.5505 1038.484,-56.7237 1034,-56 906.0134,-35.3421 755.3298,-21.8102 668.8077,-15.0666"/>
<polygon fill="#191970" stroke="#191970" points="668.8197,-11.5572 658.5801,-14.2778 668.2813,-18.5364 668.8197,-11.5572"/>
</g>
<!-- Node40&#45;&gt;Node10 -->
<g id="edge85" class="edge">
<title>Node40&#45;&gt;Node10</title>
<path fill="none" stroke="#191970" d="M1162.232,-58.3337C1166.8766,-57.4704 1171.5088,-56.6772 1176,-56 1347.027,-30.2134 1550.6458,-17.816 1653.4902,-12.8221"/>
<polygon fill="#191970" stroke="#191970" points="1653.9026,-16.3065 1663.7243,-12.3336 1653.5687,-9.3145 1653.9026,-16.3065"/>
</g>
<!-- Node42 -->
<g id="node43" class="node">
<title>Node42</title>
<g id="a_node43"><a xlink:href="spec_2protocols_8h.html" target="_top" xlink:title="ODP protocols. ">
<polygon fill="#ffffff" stroke="#000000" points="1604.5,-62 1604.5,-81 1739.5,-81 1739.5,-62 1604.5,-62"/>
<text text-anchor="middle" x="1672" y="-69" font-family="Helvetica,sans-Serif" font-size="10.00" fill="#000000">odp/api/spec/protocols.h</text>
</a>
</g>
</g>
<!-- Node41&#45;&gt;Node42 -->
<g id="edge91" class="edge">
<title>Node41&#45;&gt;Node42</title>
<path fill="none" stroke="#191970" d="M2108.7857,-537.4484C2088.1743,-510.3163 2026.9089,-430.7557 1971,-369 1869.4884,-256.8726 1737.1381,-132.0134 1689.7957,-87.9612"/>
<polygon fill="#191970" stroke="#191970" points="1692.1649,-85.3848 1682.4552,-81.1452 1687.4017,-90.5145 1692.1649,-85.3848"/>
</g>
<!-- Node42&#45;&gt;Node1 -->
<g id="edge92" class="edge">
<title>Node42&#45;&gt;Node1</title>
<path fill="none" stroke="#191970" d="M1608.2903,-61.998C1591.3294,-59.7394 1572.9973,-57.5409 1556,-56 1224.9727,-25.9911 827.705,-14.8125 668.7697,-11.3442"/>
<polygon fill="#191970" stroke="#191970" points="668.7217,-7.8424 658.6488,-11.1268 668.5713,-14.8408 668.7217,-7.8424"/>
</g>
<!-- Node42&#45;&gt;Node10 -->
<g id="edge93" class="edge">
<title>Node42&#45;&gt;Node10</title>
<path fill="none" stroke="#191970" d="M1679.5,-61.8906C1686.5738,-52.8273 1697.3542,-39.0149 1706.0146,-27.9188"/>
<polygon fill="#191970" stroke="#191970" points="1709.0006,-29.7815 1712.3943,-19.7449 1703.4824,-25.4746 1709.0006,-29.7815"/>
</g>
<!-- Node43&#45;&gt;Node3 -->
<g id="edge95" class="edge">
<title>Node43&#45;&gt;Node3</title>
<path fill="none" stroke="#191970" d="M1177.6695,-892.215C979.7096,-886.5188 390.8146,-867.9734 355,-848 292.2269,-812.992 263,-786.8751 263,-715 263,-715 263,-715 263,-379 263,-343.7513 256.1953,-326.0122 282,-302 310.5755,-275.4096 414.0622,-263.9777 483.7562,-259.2159"/>
<polygon fill="#191970" stroke="#191970" points="484.0304,-262.7056 493.7808,-258.5608 483.5738,-255.7205 484.0304,-262.7056"/>
</g>
<!-- Node43&#45;&gt;Node11 -->
<g id="edge98" class="edge">
<title>Node43&#45;&gt;Node11</title>
<path fill="none" stroke="#191970" d="M1306.1955,-889.7168C1468.2371,-877.1537 1881,-833.5202 1881,-715 1881,-715 1881,-715 1881,-491 1881,-458.5831 1876.7925,-421.0969 1873.8359,-398.7572"/>
<polygon fill="#191970" stroke="#191970" points="1877.2637,-397.992 1872.4328,-388.5627 1870.3291,-398.9466 1877.2637,-397.992"/>
</g>
<!-- Node43&#45;&gt;Node14 -->
<g id="edge96" class="edge">
<title>Node43&#45;&gt;Node14</title>
<path fill="none" stroke="#191970" d="M1254.7518,-884.3224C1284.4081,-860.9074 1357.4995,-797.7341 1384,-725 1407.2189,-661.2726 1313.1182,-460.4886 1282.4034,-397.8532"/>
<polygon fill="#191970" stroke="#191970" points="1285.461,-396.1402 1277.8942,-388.7244 1279.1849,-399.2403 1285.461,-396.1402"/>
</g>
<!-- Node43&#45;&gt;Node17 -->
<g id="edge100" class="edge">
<title>Node43&#45;&gt;Node17</title>
<path fill="none" stroke="#191970" d="M1177.8972,-893.2159C1021.8343,-890.7969 625.6091,-881.4512 498,-848 422.0491,-828.0904 339,-849.5171 339,-771 339,-771 339,-771 339,-547 339,-486.3088 383.7127,-425.2805 408.2796,-396.3296"/>
<polygon fill="#191970" stroke="#191970" points="410.9746,-398.5645 414.9035,-388.7251 405.6962,-393.9668 410.9746,-398.5645"/>
</g>
<!-- Node43&#45;&gt;Node22 -->
<g id="edge99" class="edge">
<title>Node43&#45;&gt;Node22</title>
<path fill="none" stroke="#191970" d="M1177.7949,-891.1994C983.4876,-881.8777 415,-848.0232 415,-771 415,-771 415,-771 415,-659 415,-547.4926 508.2302,-437.1958 547.1974,-395.9652"/>
<polygon fill="#191970" stroke="#191970" points="549.8141,-398.2937 554.2237,-388.6601 544.7689,-393.4411 549.8141,-398.2937"/>
</g>
<!-- Node43&#45;&gt;Node37 -->
<g id="edge97" class="edge">
<title>Node43&#45;&gt;Node37</title>
<path fill="none" stroke="#191970" d="M1245.2259,-884.3762C1254.7078,-856.0883 1282.6261,-772.7987 1295.438,-734.5767"/>
<polygon fill="#191970" stroke="#191970" points="1298.8985,-735.2653 1298.7582,-724.6714 1292.2614,-733.0405 1298.8985,-735.2653"/>
</g>
<!-- Node44 -->
<g id="node45" class="node">
<title>Node44</title>
<g id="a_node45"><a xlink:href="spec_2classification_8h.html" target="_top" xlink:title="ODP classification descriptor. ">
<polygon fill="#ffffff" stroke="#000000" points="991,-823 991,-842 1145,-842 1145,-823 991,-823"/>
<text text-anchor="middle" x="1068" y="-830" font-family="Helvetica,sans-Serif" font-size="10.00" fill="#000000">odp/api/spec/classification.h</text>
</a>
</g>
</g>
<!-- Node43&#45;&gt;Node44 -->
<g id="edge101" class="edge">
<title>Node43&#45;&gt;Node44</title>
<path fill="none" stroke="#191970" d="M1214.8125,-884.3906C1185.1883,-873.92 1137.6313,-857.1111 1104.7082,-845.4745"/>
<polygon fill="#191970" stroke="#191970" points="1105.5914,-842.0745 1094.9966,-842.0419 1103.2586,-848.6744 1105.5914,-842.0745"/>
</g>
<!-- Node44&#45;&gt;Node1 -->
<g id="edge102" class="edge">
<title>Node44&#45;&gt;Node1</title>
<path fill="none" stroke="#191970" d="M990.7209,-829.9072C893.4031,-825.3838 721.5569,-813.2071 578,-781 504.4865,-764.5072 486.186,-757.0455 418,-725 374.3336,-704.4781 365.5141,-695.2013 325,-669 245.0795,-617.3137 149,-642.1775 149,-547 149,-547 149,-547 149,-133 149,-72.9589 204.041,-77.7606 260,-56 307.3374,-37.5921 442.9811,-23.2006 527.3441,-15.7074"/>
<polygon fill="#191970" stroke="#191970" points="527.7128,-19.1886 537.3687,-14.828 527.101,-12.2154 527.7128,-19.1886"/>
</g>
<!-- Node44&#45;&gt;Node10 -->
<g id="edge110" class="edge">
<title>Node44&#45;&gt;Node10</title>
<path fill="none" stroke="#191970" d="M1145.0623,-826.876C1317.3337,-813.5216 1728.5662,-777.0772 1857,-725 1960.1001,-683.1951 2033,-658.2532 2033,-547 2033,-547 2033,-547 2033,-435 2033,-355.4432 2034,-335.5568 2034,-256 2034,-256 2034,-256 2034,-133 2034,-97.154 2037.1145,-79.4466 2010,-56 1977.4078,-27.8167 1861.403,-16.7962 1786.3603,-12.5613"/>
<polygon fill="#191970" stroke="#191970" points="1786.2297,-9.0493 1776.0562,-12.0077 1785.854,-16.0393 1786.2297,-9.0493"/>
</g>
<!-- Node44&#45;&gt;Node31 -->
<g id="edge104" class="edge">
<title>Node44&#45;&gt;Node31</title>
<path fill="none" stroke="#191970" d="M1116.5045,-822.9759C1196.7775,-806.1371 1351.6398,-768.7277 1384,-725 1510.702,-553.7904 1363.4861,-456.0116 1399,-246 1404.2032,-215.2306 1401.7245,-204.2949 1420,-179 1429.2856,-166.1479 1443.2775,-155.5059 1455.8128,-147.7065"/>
<polygon fill="#191970" stroke="#191970" points="1457.7514,-150.6269 1464.5949,-142.5388 1454.2013,-144.5939 1457.7514,-150.6269"/>
</g>
<!-- Node44&#45;&gt;Node36 -->
<g id="edge103" class="edge">
<title>Node44&#45;&gt;Node36</title>
<path fill="none" stroke="#191970" d="M1066.4375,-822.8906C1065.0513,-814.3657 1062.982,-801.6392 1061.2396,-790.9235"/>
<polygon fill="#191970" stroke="#191970" points="1064.6442,-790.0535 1059.5845,-780.7449 1057.7349,-791.177 1064.6442,-790.0535"/>
</g>
<!-- Node45 -->
<g id="node46" class="node">
<title>Node45</title>
<g id="a_node46"><a xlink:href="threshold_8h.html" target="_top" xlink:title="ODP threshold API &#45; platform specific header. ">
<polygon fill="#ffffff" stroke="#000000" points="587,-761.5 587,-780.5 697,-780.5 697,-761.5 587,-761.5"/>
<text text-anchor="middle" x="642" y="-768.5" font-family="Helvetica,sans-Serif" font-size="10.00" fill="#000000">odp/api/threshold.h</text>
</a>
</g>
</g>
<!-- Node44&#45;&gt;Node45 -->
<g id="edge105" class="edge">
<title>Node44&#45;&gt;Node45</title>
<path fill="none" stroke="#191970" d="M1001.9049,-822.9581C921.5591,-811.3589 786.8398,-791.91 706.9944,-780.383"/>
<polygon fill="#191970" stroke="#191970" points="707.4567,-776.9135 697.0592,-778.9487 706.4564,-783.8417 707.4567,-776.9135"/>
</g>
<!-- Node46 -->
<g id="node47" class="node">
<title>Node46</title>
<g id="a_node47"><a xlink:href="spec_2threshold_8h.html" target="_top" xlink:title="ODP threshold descriptor. ">
<polygon fill="#ffffff" stroke="#000000" points="291,-308 291,-327 427,-327 427,-308 291,-308"/>
<text text-anchor="middle" x="359" y="-315" font-family="Helvetica,sans-Serif" font-size="10.00" fill="#000000">odp/api/spec/threshold.h</text>
</a>
</g>
</g>
<!-- Node45&#45;&gt;Node46 -->
<g id="edge106" class="edge">
<title>Node45&#45;&gt;Node46</title>
<path fill="none" stroke="#191970" d="M596.1431,-761.4971C520.2966,-744.4468 377,-706.0128 377,-659 377,-659 377,-659 377,-547 377,-496.1155 336.8842,-494.4773 325,-445 317.1111,-412.1564 315.2844,-401.3504 325,-369 328.7278,-356.5874 336.5244,-344.4062 343.7121,-335.0093"/>
<polygon fill="#191970" stroke="#191970" points="346.4341,-337.2095 350.0077,-327.2355 340.9942,-332.804 346.4341,-337.2095"/>
</g>
<!-- Node46&#45;&gt;Node1 -->
<g id="edge107" class="edge">
<title>Node46&#45;&gt;Node1</title>
<path fill="none" stroke="#191970" d="M359.2615,-307.9317C359.8036,-287.2405 361,-236.7868 361,-194.5 361,-194.5 361,-194.5 361,-133 361,-96.7349 360.8458,-80.0376 388,-56 408.5438,-37.8141 474.7561,-25.3445 527.4047,-18.0237"/>
<polygon fill="#191970" stroke="#191970" points="527.9585,-21.4808 537.3993,-16.6723 527.0205,-14.5439 527.9585,-21.4808"/>
</g>
<!-- Node46&#45;&gt;Node3 -->
<g id="edge108" class="edge">
<title>Node46&#45;&gt;Node3</title>
<path fill="none" stroke="#191970" d="M388.8438,-307.8906C421.6425,-297.3298 474.4672,-280.3208 510.6364,-268.6747"/>
<polygon fill="#191970" stroke="#191970" points="511.9198,-271.9385 520.3658,-265.5419 509.7743,-265.2753 511.9198,-271.9385"/>
</g>
<!-- Node46&#45;&gt;Node10 -->
<g id="edge109" class="edge">
<title>Node46&#45;&gt;Node10</title>
<path fill="none" stroke="#191970" d="M427.008,-315.1124C679.044,-306.1975 1545.9077,-274.9152 1557,-266 1582.6287,-245.4013 1576,-227.3806 1576,-194.5 1576,-194.5 1576,-194.5 1576,-133 1576,-97.7513 1571.4925,-82.2653 1595,-56 1610.3126,-38.891 1632.5516,-28.1338 1654.0403,-21.3749"/>
<polygon fill="#191970" stroke="#191970" points="1655.1994,-24.6832 1663.8332,-18.5424 1653.2544,-17.9588 1655.1994,-24.6832"/>
</g>
<!-- Node48 -->
<g id="node49" class="node">
<title>Node48</title>
<polygon fill="#ffffff" stroke="#bfbfbf" points="28,-817.5 28,-847.5 130,-847.5 130,-817.5 28,-817.5"/>
<text text-anchor="start" x="36" y="-835.5" font-family="Helvetica,sans-Serif" font-size="10.00" fill="#000000">odp/api/abi/traffic</text>
<text text-anchor="middle" x="79" y="-824.5" font-family="Helvetica,sans-Serif" font-size="10.00" fill="#000000">_mngr.h</text>
</g>
<!-- Node47&#45;&gt;Node48 -->
<g id="edge112" class="edge">
<title>Node47&#45;&gt;Node48</title>
<path fill="none" stroke="#191970" d="M183.625,-884.3906C166.2216,-875.7591 140.1334,-862.8202 118.3621,-852.0224"/>
<polygon fill="#191970" stroke="#191970" points="119.8476,-848.8523 109.3338,-847.5446 116.7374,-855.1234 119.8476,-848.8523"/>
</g>
<!-- Node49 -->
<g id="node50" class="node">
<title>Node49</title>
<g id="a_node50"><a xlink:href="spec_2traffic__mngr_8h.html" target="_top" xlink:title="Copyright (c) 2015&#45;2018, Linaro Limited All rights reserved. ">
<polygon fill="#ffffff" stroke="#000000" points="148,-817.5 148,-847.5 258,-847.5 258,-817.5 148,-817.5"/>
<text text-anchor="start" x="156" y="-835.5" font-family="Helvetica,sans-Serif" font-size="10.00" fill="#000000">odp/api/spec/traffic</text>
<text text-anchor="middle" x="203" y="-824.5" font-family="Helvetica,sans-Serif" font-size="10.00" fill="#000000">_mngr.h</text>
</a>
</g>
</g>
<!-- Node47&#45;&gt;Node49 -->
<g id="edge113" class="edge">
<title>Node47&#45;&gt;Node49</title>
<path fill="none" stroke="#191970" d="M203,-884.3906C203,-877.2234 203,-867.0862 203,-857.671"/>
<polygon fill="#191970" stroke="#191970" points="206.5001,-857.5446 203,-847.5446 199.5001,-857.5446 206.5001,-857.5446"/>
</g>
<!-- Node49&#45;&gt;Node1 -->
<g id="edge114" class="edge">
<title>Node49&#45;&gt;Node1</title>
<path fill="none" stroke="#191970" d="M179.7845,-817.2434C152.5303,-797.2855 111,-759.5624 111,-715 111,-715 111,-715 111,-133 111,-97.154 107.2138,-78.6466 135,-56 164.7282,-31.7706 405.1507,-18.1748 527.3042,-12.7699"/>
<polygon fill="#191970" stroke="#191970" points="527.4805,-16.2656 537.3186,-12.3334 527.1756,-9.2723 527.4805,-16.2656"/>
</g>
<!-- Node49&#45;&gt;Node3 -->
<g id="edge115" class="edge">
<title>Node49&#45;&gt;Node3</title>
<path fill="none" stroke="#191970" d="M199.6068,-817.3795C194.9102,-795.0932 187,-752.0576 187,-715 187,-715 187,-715 187,-379 187,-335.0629 210.9203,-323.9181 249,-302 287.9147,-279.6013 407.7209,-266.6739 483.9299,-260.5107"/>
<polygon fill="#191970" stroke="#191970" points="484.2267,-263.9983 493.9199,-259.7213 483.6752,-257.0201 484.2267,-263.9983"/>
</g>
<!-- Node49&#45;&gt;Node10 -->
<g id="edge117" class="edge">
<title>Node49&#45;&gt;Node10</title>
<path fill="none" stroke="#191970" d="M258.3964,-831.6045C497.9579,-827.273 1445.5634,-805.297 1731,-725 1867.2245,-686.6783 1995,-688.5121 1995,-547 1995,-547 1995,-547 1995,-435 1995,-355.4432 1996,-335.5568 1996,-256 1996,-256 1996,-256 1996,-133 1996,-91.4545 1977.6211,-78.9653 1943,-56 1917.6867,-39.2089 1842.3977,-25.9999 1786.2596,-18.1237"/>
<polygon fill="#191970" stroke="#191970" points="1786.4002,-14.6102 1776.0166,-16.7154 1785.4467,-21.5449 1786.4002,-14.6102"/>
</g>
<!-- Node49&#45;&gt;Node36 -->
<g id="edge116" class="edge">
<title>Node49&#45;&gt;Node36</title>
<path fill="none" stroke="#191970" d="M258.112,-828.5358C408.8955,-817.69 827.8477,-787.5548 991.3924,-775.7911"/>
<polygon fill="#191970" stroke="#191970" points="992.0668,-779.2517 1001.7899,-775.0432 991.5645,-772.2697 992.0668,-779.2517"/>
</g>
</g>
</svg>
