<?xml version="1.0" encoding="UTF-8" standalone="no"?>
<!DOCTYPE svg PUBLIC "-//W3C//DTD SVG 1.1//EN"
 "http://www.w3.org/Graphics/SVG/1.1/DTD/svg11.dtd">
<!-- Generated by graphviz version 2.40.1 (20161225.0304)
 -->
<!-- Title: comp.h Pages: 1 -->
<svg width="1056pt" height="476pt"
 viewBox="0.00 0.00 1055.74 476.00" xmlns="http://www.w3.org/2000/svg" xmlns:xlink="http://www.w3.org/1999/xlink">
<g id="graph0" class="graph" transform="scale(1 1) rotate(0) translate(4 472)">
<title>comp.h</title>
<polygon fill="#ffffff" stroke="transparent" points="-4,4 -4,-472 1051.7405,-472 1051.7405,4 -4,4"/>
<!-- Node0 -->
<g id="node1" class="node">
<title>Node0</title>
<polygon fill="#bfbfbf" stroke="#000000" points="718.5,-448.5 718.5,-467.5 771.5,-467.5 771.5,-448.5 718.5,-448.5"/>
<text text-anchor="middle" x="745" y="-455.5" font-family="Helvetica,sans-Serif" font-size="10.00" fill="#000000">comp.h</text>
</g>
<!-- Node1 -->
<g id="node2" class="node">
<title>Node1</title>
<polygon fill="#ffffff" stroke="#bfbfbf" points="380.5,-.5 380.5,-19.5 501.5,-19.5 501.5,-.5 380.5,-.5"/>
<text text-anchor="middle" x="441" y="-7.5" font-family="Helvetica,sans-Serif" font-size="10.00" fill="#000000">odp/visibility_begin.h</text>
</g>
<!-- Node0&#45;&gt;Node1 -->
<g id="edge1" class="edge">
<title>Node0&#45;&gt;Node1</title>
<path fill="none" stroke="#191970" d="M718.4851,-456.8714C585.7713,-450.879 0,-420.2254 0,-346 0,-346 0,-346 0,-122 0,-46.6075 245.1866,-21.3767 369.918,-13.4191"/>
<polygon fill="#191970" stroke="#191970" points="370.3784,-16.8974 380.1438,-12.7882 369.9473,-9.9107 370.3784,-16.8974"/>
</g>
<!-- Node2 -->
<g id="node3" class="node">
<title>Node2</title>
<g id="a_node3"><a xlink:href="support_8h.html" target="_top" xlink:title="ODP support API &#45; platform specific header. ">
<polygon fill="#ffffff" stroke="#000000" points="806.5,-392.5 806.5,-411.5 907.5,-411.5 907.5,-392.5 806.5,-392.5"/>
<text text-anchor="middle" x="857" y="-399.5" font-family="Helvetica,sans-Serif" font-size="10.00" fill="#000000">odp/api/support.h</text>
</a>
</g>
</g>
<!-- Node0&#45;&gt;Node2 -->
<g id="edge2" class="edge">
<title>Node0&#45;&gt;Node2</title>
<path fill="none" stroke="#191970" d="M764.2535,-448.3733C782.0712,-439.4644 808.7747,-426.1127 828.9594,-416.0203"/>
<polygon fill="#191970" stroke="#191970" points="830.6187,-419.1038 837.9978,-411.5011 827.4882,-412.8428 830.6187,-419.1038"/>
</g>
<!-- Node4 -->
<g id="node5" class="node">
<title>Node4</title>
<polygon fill="#ffffff" stroke="#bfbfbf" points="788,-.5 788,-19.5 900,-19.5 900,-.5 788,-.5"/>
<text text-anchor="middle" x="844" y="-7.5" font-family="Helvetica,sans-Serif" font-size="10.00" fill="#000000">odp/visibility_end.h</text>
</g>
<!-- Node0&#45;&gt;Node4 -->
<g id="edge33" class="edge">
<title>Node0&#45;&gt;Node4</title>
<path fill="none" stroke="#191970" d="M771.5358,-454.0123C845.2294,-442.1974 1047,-404.5063 1047,-346 1047,-346 1047,-346 1047,-122 1047,-91.4754 1049.962,-77.1996 1028,-56 1011.0602,-39.6482 955.6278,-27.2107 909.9945,-19.417"/>
<polygon fill="#191970" stroke="#191970" points="910.5653,-15.9639 900.1268,-17.7767 909.4174,-22.8692 910.5653,-15.9639"/>
</g>
<!-- Node5 -->
<g id="node6" class="node">
<title>Node5</title>
<g id="a_node6"><a xlink:href="packet_8h.html" target="_top" xlink:title="ODP packet descriptor. ">
<polygon fill="#ffffff" stroke="#000000" points="473,-392.5 473,-411.5 571,-411.5 571,-392.5 473,-392.5"/>
<text text-anchor="middle" x="522" y="-399.5" font-family="Helvetica,sans-Serif" font-size="10.00" fill="#000000">odp/api/packet.h</text>
</a>
</g>
</g>
<!-- Node0&#45;&gt;Node5 -->
<g id="edge6" class="edge">
<title>Node0&#45;&gt;Node5</title>
<path fill="none" stroke="#191970" d="M718.101,-451.2451C681.484,-442.0498 615.3363,-425.4387 570.0771,-414.0732"/>
<polygon fill="#191970" stroke="#191970" points="570.7399,-410.631 560.1885,-411.5899 569.0349,-417.4202 570.7399,-410.631"/>
</g>
<!-- Node3 -->
<g id="node4" class="node">
<title>Node3</title>
<g id="a_node4"><a xlink:href="spec_2support_8h.html" target="_top" xlink:title="ODP support API. ">
<polygon fill="#ffffff" stroke="#000000" points="891.5,-56.5 891.5,-75.5 1018.5,-75.5 1018.5,-56.5 891.5,-56.5"/>
<text text-anchor="middle" x="955" y="-63.5" font-family="Helvetica,sans-Serif" font-size="10.00" fill="#000000">odp/api/spec/support.h</text>
</a>
</g>
</g>
<!-- Node2&#45;&gt;Node3 -->
<g id="edge3" class="edge">
<title>Node2&#45;&gt;Node3</title>
<path fill="none" stroke="#191970" d="M907.6842,-395.9478C935.4861,-390.0984 968.5606,-378.5998 990,-356 1011.0082,-333.8548 1009,-320.5246 1009,-290 1009,-290 1009,-290 1009,-178 1009,-141.7347 985.7441,-104.8332 969.7557,-83.7487"/>
<polygon fill="#191970" stroke="#191970" points="972.3753,-81.418 963.4375,-75.7289 966.8767,-85.75 972.3753,-81.418"/>
</g>
<!-- Node3&#45;&gt;Node1 -->
<g id="edge4" class="edge">
<title>Node3&#45;&gt;Node1</title>
<path fill="none" stroke="#191970" d="M891.458,-59.0771C794.9877,-48.5668 612.1964,-28.6517 511.6639,-17.6988"/>
<polygon fill="#191970" stroke="#191970" points="511.9242,-14.2065 501.6039,-16.6028 511.166,-21.1653 511.9242,-14.2065"/>
</g>
<!-- Node3&#45;&gt;Node4 -->
<g id="edge5" class="edge">
<title>Node3&#45;&gt;Node4</title>
<path fill="none" stroke="#191970" d="M935.9184,-56.3733C918.2598,-47.4644 891.7947,-34.1127 871.7902,-24.0203"/>
<polygon fill="#191970" stroke="#191970" points="873.3372,-20.8806 862.8326,-19.5011 870.1842,-27.1303 873.3372,-20.8806"/>
</g>
<!-- Node6 -->
<g id="node7" class="node">
<title>Node6</title>
<g id="a_node7"><a xlink:href="std__types_8h.html" target="_top" xlink:title="Standard C language types and definitions for ODP. ">
<polygon fill="#ffffff" stroke="#000000" points="458,-224.5 458,-243.5 570,-243.5 570,-224.5 458,-224.5"/>
<text text-anchor="middle" x="514" y="-231.5" font-family="Helvetica,sans-Serif" font-size="10.00" fill="#000000">odp/api/std_types.h</text>
</a>
</g>
</g>
<!-- Node5&#45;&gt;Node6 -->
<g id="edge7" class="edge">
<title>Node5&#45;&gt;Node6</title>
<path fill="none" stroke="#191970" d="M472.6721,-398.9302C382.3885,-392.8059 198.0383,-377.762 179,-356 100.5906,-266.373 329.2446,-242.5555 447.711,-236.2529"/>
<polygon fill="#191970" stroke="#191970" points="447.9673,-239.7446 457.7783,-235.7453 447.6147,-232.7534 447.9673,-239.7446"/>
</g>
<!-- Node13 -->
<g id="node14" class="node">
<title>Node13</title>
<polygon fill="#ffffff" stroke="#bfbfbf" points="188,-336.5 188,-355.5 298,-355.5 298,-336.5 188,-336.5"/>
<text text-anchor="middle" x="243" y="-343.5" font-family="Helvetica,sans-Serif" font-size="10.00" fill="#000000">odp/api/abi/event.h</text>
</g>
<!-- Node5&#45;&gt;Node13 -->
<g id="edge18" class="edge">
<title>Node5&#45;&gt;Node13</title>
<path fill="none" stroke="#191970" d="M474.3552,-392.4369C426.2053,-382.7724 351.7729,-367.8326 300.4007,-357.5213"/>
<polygon fill="#191970" stroke="#191970" points="300.9415,-354.0601 290.4483,-355.5237 299.5639,-360.9232 300.9415,-354.0601"/>
</g>
<!-- Node14 -->
<g id="node15" class="node">
<title>Node14</title>
<polygon fill="#ffffff" stroke="#bfbfbf" points="316,-336.5 316,-355.5 446,-355.5 446,-336.5 316,-336.5"/>
<text text-anchor="middle" x="381" y="-343.5" font-family="Helvetica,sans-Serif" font-size="10.00" fill="#000000">odp/api/abi/packet_io.h</text>
</g>
<!-- Node5&#45;&gt;Node14 -->
<g id="edge19" class="edge">
<title>Node5&#45;&gt;Node14</title>
<path fill="none" stroke="#191970" d="M497.7612,-392.3733C474.7211,-383.2226 439.8786,-369.3844 414.2499,-359.2057"/>
<polygon fill="#191970" stroke="#191970" points="415.5082,-355.9395 404.9225,-355.5011 412.9244,-362.4452 415.5082,-355.9395"/>
</g>
<!-- Node15 -->
<g id="node16" class="node">
<title>Node15</title>
<polygon fill="#ffffff" stroke="#bfbfbf" points="464,-336.5 464,-355.5 580,-355.5 580,-336.5 464,-336.5"/>
<text text-anchor="middle" x="522" y="-343.5" font-family="Helvetica,sans-Serif" font-size="10.00" fill="#000000">odp/api/abi/packet.h</text>
</g>
<!-- Node5&#45;&gt;Node15 -->
<g id="edge20" class="edge">
<title>Node5&#45;&gt;Node15</title>
<path fill="none" stroke="#191970" d="M522,-392.2455C522,-384.9382 522,-374.6944 522,-365.7046"/>
<polygon fill="#191970" stroke="#191970" points="525.5001,-365.6426 522,-355.6427 518.5001,-365.6427 525.5001,-365.6426"/>
</g>
<!-- Node16 -->
<g id="node17" class="node">
<title>Node16</title>
<polygon fill="#ffffff" stroke="#bfbfbf" points="739.5,-336.5 739.5,-355.5 852.5,-355.5 852.5,-336.5 739.5,-336.5"/>
<text text-anchor="middle" x="796" y="-343.5" font-family="Helvetica,sans-Serif" font-size="10.00" fill="#000000">odp/api/abi/queue.h</text>
</g>
<!-- Node5&#45;&gt;Node16 -->
<g id="edge21" class="edge">
<title>Node5&#45;&gt;Node16</title>
<path fill="none" stroke="#191970" d="M568.791,-392.4369C615.9795,-382.7925 688.872,-367.8948 739.3124,-357.5858"/>
<polygon fill="#191970" stroke="#191970" points="740.3054,-360.9553 749.402,-355.5237 738.9037,-354.097 740.3054,-360.9553"/>
</g>
<!-- Node17 -->
<g id="node18" class="node">
<title>Node17</title>
<polygon fill="#ffffff" stroke="#bfbfbf" points="871,-336.5 871,-355.5 981,-355.5 981,-336.5 871,-336.5"/>
<text text-anchor="middle" x="926" y="-343.5" font-family="Helvetica,sans-Serif" font-size="10.00" fill="#000000">odp/api/abi/buffer.h</text>
</g>
<!-- Node5&#45;&gt;Node17 -->
<g id="edge22" class="edge">
<title>Node5&#45;&gt;Node17</title>
<path fill="none" stroke="#191970" d="M571.1608,-395.6079C635.2121,-387.2179 750.9531,-371.8462 860.7666,-356.0122"/>
<polygon fill="#191970" stroke="#191970" points="861.2953,-359.4722 870.6916,-354.5774 860.2937,-352.5442 861.2953,-359.4722"/>
</g>
<!-- Node18 -->
<g id="node19" class="node">
<title>Node18</title>
<polygon fill="#ffffff" stroke="#bfbfbf" points="28,-336.5 28,-355.5 132,-355.5 132,-336.5 28,-336.5"/>
<text text-anchor="middle" x="80" y="-343.5" font-family="Helvetica,sans-Serif" font-size="10.00" fill="#000000">odp/api/abi/pool.h</text>
</g>
<!-- Node5&#45;&gt;Node18 -->
<g id="edge23" class="edge">
<title>Node5&#45;&gt;Node18</title>
<path fill="none" stroke="#191970" d="M472.9707,-396.4555C401.141,-388.2298 263.1193,-372.0335 146,-356 144.7406,-355.8276 143.4679,-355.6516 142.1854,-355.4726"/>
<polygon fill="#191970" stroke="#191970" points="142.6125,-351.9982 132.2188,-354.053 141.6253,-358.9283 142.6125,-351.9982"/>
</g>
<!-- Node19 -->
<g id="node20" class="node">
<title>Node19</title>
<g id="a_node20"><a xlink:href="spec_2packet_8h.html" target="_top" xlink:title="ODP packet descriptor. ">
<polygon fill="#ffffff" stroke="#000000" points="598.5,-336.5 598.5,-355.5 721.5,-355.5 721.5,-336.5 598.5,-336.5"/>
<text text-anchor="middle" x="660" y="-343.5" font-family="Helvetica,sans-Serif" font-size="10.00" fill="#000000">odp/api/spec/packet.h</text>
</a>
</g>
</g>
<!-- Node5&#45;&gt;Node19 -->
<g id="edge24" class="edge">
<title>Node5&#45;&gt;Node19</title>
<path fill="none" stroke="#191970" d="M545.723,-392.3733C568.1737,-383.2629 602.0739,-369.5062 627.1255,-359.3404"/>
<polygon fill="#191970" stroke="#191970" points="628.6365,-362.5045 636.5865,-355.5011 626.0043,-356.0182 628.6365,-362.5045"/>
</g>
<!-- Node7 -->
<g id="node8" class="node">
<title>Node7</title>
<polygon fill="#ffffff" stroke="#bfbfbf" points="563,-168.5 563,-187.5 693,-187.5 693,-168.5 563,-168.5"/>
<text text-anchor="middle" x="628" y="-175.5" font-family="Helvetica,sans-Serif" font-size="10.00" fill="#000000">odp/api/abi/std_types.h</text>
</g>
<!-- Node6&#45;&gt;Node7 -->
<g id="edge8" class="edge">
<title>Node6&#45;&gt;Node7</title>
<path fill="none" stroke="#191970" d="M533.5973,-224.3733C551.7331,-215.4644 578.9135,-202.1127 599.4587,-192.0203"/>
<polygon fill="#191970" stroke="#191970" points="601.2261,-195.0517 608.6584,-187.5011 598.1397,-188.7688 601.2261,-195.0517"/>
</g>
<!-- Node8 -->
<g id="node9" class="node">
<title>Node8</title>
<g id="a_node9"><a xlink:href="spec_2std__types_8h.html" target="_top" xlink:title="Standard C language types and definitions for ODP. ">
<polygon fill="#ffffff" stroke="#000000" points="407.5,-168.5 407.5,-187.5 544.5,-187.5 544.5,-168.5 407.5,-168.5"/>
<text text-anchor="middle" x="476" y="-175.5" font-family="Helvetica,sans-Serif" font-size="10.00" fill="#000000">odp/api/spec/std_types.h</text>
</a>
</g>
</g>
<!-- Node6&#45;&gt;Node8 -->
<g id="edge9" class="edge">
<title>Node6&#45;&gt;Node8</title>
<path fill="none" stroke="#191970" d="M507.3809,-224.2455C502.0954,-216.4564 494.5459,-205.3308 488.1762,-195.9439"/>
<polygon fill="#191970" stroke="#191970" points="491.0545,-193.9522 482.5432,-187.6427 485.2621,-197.8827 491.0545,-193.9522"/>
</g>
<!-- Node8&#45;&gt;Node1 -->
<g id="edge10" class="edge">
<title>Node8&#45;&gt;Node1</title>
<path fill="none" stroke="#191970" d="M462.3172,-168.2489C451.5895,-159.8619 437.1549,-146.7998 429,-132 412.4969,-102.0496 408.8567,-89.2125 417,-56 419.3743,-46.3164 424.1821,-36.4071 428.8753,-28.2776"/>
<polygon fill="#191970" stroke="#191970" points="431.9119,-30.0214 434.1792,-19.672 425.9528,-26.3486 431.9119,-30.0214"/>
</g>
<!-- Node8&#45;&gt;Node4 -->
<g id="edge17" class="edge">
<title>Node8&#45;&gt;Node4</title>
<path fill="none" stroke="#191970" d="M520.1943,-168.461C599.1083,-150.762 760.1962,-111.413 805,-76 820.2919,-63.9132 830.8512,-44.0553 837.0881,-29.2735"/>
<polygon fill="#191970" stroke="#191970" points="840.492,-30.1789 840.8714,-19.5909 833.972,-27.6313 840.492,-30.1789"/>
</g>
<!-- Node9 -->
<g id="node10" class="node">
<title>Node9</title>
<polygon fill="#ffffff" stroke="#bfbfbf" points="438.5,-112.5 438.5,-131.5 491.5,-131.5 491.5,-112.5 438.5,-112.5"/>
<text text-anchor="middle" x="465" y="-119.5" font-family="Helvetica,sans-Serif" font-size="10.00" fill="#000000">stdint.h</text>
</g>
<!-- Node8&#45;&gt;Node9 -->
<g id="edge11" class="edge">
<title>Node8&#45;&gt;Node9</title>
<path fill="none" stroke="#191970" d="M474.0839,-168.2455C472.6486,-160.9382 470.6364,-150.6944 468.8705,-141.7046"/>
<polygon fill="#191970" stroke="#191970" points="472.256,-140.7805 466.8941,-131.6427 465.3873,-142.1298 472.256,-140.7805"/>
</g>
<!-- Node10 -->
<g id="node11" class="node">
<title>Node10</title>
<g id="a_node11"><a xlink:href="align_8h.html" target="_top" xlink:title="ODP alignments. ">
<polygon fill="#ffffff" stroke="#000000" points="509.5,-112.5 509.5,-131.5 598.5,-131.5 598.5,-112.5 509.5,-112.5"/>
<text text-anchor="middle" x="554" y="-119.5" font-family="Helvetica,sans-Serif" font-size="10.00" fill="#000000">odp/api/align.h</text>
</a>
</g>
</g>
<!-- Node8&#45;&gt;Node10 -->
<g id="edge12" class="edge">
<title>Node8&#45;&gt;Node10</title>
<path fill="none" stroke="#191970" d="M489.5866,-168.2455C501.3305,-159.814 518.5199,-147.4729 532.1882,-137.6598"/>
<polygon fill="#191970" stroke="#191970" points="534.4871,-140.3179 540.5691,-131.6427 530.4046,-134.6316 534.4871,-140.3179"/>
</g>
<!-- Node11 -->
<g id="node12" class="node">
<title>Node11</title>
<polygon fill="#ffffff" stroke="#bfbfbf" points="558.5,-56.5 558.5,-75.5 665.5,-75.5 665.5,-56.5 558.5,-56.5"/>
<text text-anchor="middle" x="612" y="-63.5" font-family="Helvetica,sans-Serif" font-size="10.00" fill="#000000">odp/api/abi/align.h</text>
</g>
<!-- Node10&#45;&gt;Node11 -->
<g id="edge13" class="edge">
<title>Node10&#45;&gt;Node11</title>
<path fill="none" stroke="#191970" d="M564.1028,-112.2455C572.5028,-104.1352 584.6494,-92.4075 594.6084,-82.7919"/>
<polygon fill="#191970" stroke="#191970" points="597.25,-85.1066 602.0129,-75.6427 592.3878,-80.0707 597.25,-85.1066"/>
</g>
<!-- Node12 -->
<g id="node13" class="node">
<title>Node12</title>
<g id="a_node13"><a xlink:href="spec_2align_8h.html" target="_top" xlink:title="ODP alignments. ">
<polygon fill="#ffffff" stroke="#000000" points="426,-56.5 426,-75.5 540,-75.5 540,-56.5 426,-56.5"/>
<text text-anchor="middle" x="483" y="-63.5" font-family="Helvetica,sans-Serif" font-size="10.00" fill="#000000">odp/api/spec/align.h</text>
</a>
</g>
</g>
<!-- Node10&#45;&gt;Node12 -->
<g id="edge14" class="edge">
<title>Node10&#45;&gt;Node12</title>
<path fill="none" stroke="#191970" d="M541.6327,-112.2455C531.0446,-103.8943 515.5936,-91.7076 503.2107,-81.9408"/>
<polygon fill="#191970" stroke="#191970" points="505.2447,-79.0875 495.2255,-75.6427 500.9097,-84.5837 505.2447,-79.0875"/>
</g>
<!-- Node12&#45;&gt;Node1 -->
<g id="edge15" class="edge">
<title>Node12&#45;&gt;Node1</title>
<path fill="none" stroke="#191970" d="M475.6842,-56.2455C469.7821,-48.3761 461.3258,-37.101 454.2406,-27.6542"/>
<polygon fill="#191970" stroke="#191970" points="457.0321,-25.5427 448.232,-19.6427 451.432,-29.7427 457.0321,-25.5427"/>
</g>
<!-- Node12&#45;&gt;Node4 -->
<g id="edge16" class="edge">
<title>Node12&#45;&gt;Node4</title>
<path fill="none" stroke="#191970" d="M540.2015,-57.1266C604.781,-47.1088 709.696,-30.8339 777.774,-20.2733"/>
<polygon fill="#191970" stroke="#191970" points="778.6114,-23.6853 787.9566,-18.6937 777.5383,-16.7681 778.6114,-23.6853"/>
</g>
<!-- Node19&#45;&gt;Node1 -->
<g id="edge25" class="edge">
<title>Node19&#45;&gt;Node1</title>
<path fill="none" stroke="#191970" d="M601.8013,-336.4777C514.5596,-320.5331 360,-285.0775 360,-234 360,-234 360,-234 360,-122 360,-81.4297 395.3281,-45.5972 419.3218,-25.9394"/>
<polygon fill="#191970" stroke="#191970" points="421.5747,-28.6202 427.2595,-19.6795 417.24,-23.1237 421.5747,-28.6202"/>
</g>
<!-- Node19&#45;&gt;Node4 -->
<g id="edge32" class="edge">
<title>Node19&#45;&gt;Node4</title>
<path fill="none" stroke="#191970" d="M689.5179,-336.4916C745.8195,-317.4589 863,-273.1443 863,-234 863,-234 863,-234 863,-122 863,-89.2688 855.0148,-51.9052 849.3978,-29.6716"/>
<polygon fill="#191970" stroke="#191970" points="852.7289,-28.5763 846.8035,-19.7934 845.9585,-30.3545 852.7289,-28.5763"/>
</g>
<!-- Node20 -->
<g id="node21" class="node">
<title>Node20</title>
<g id="a_node21"><a xlink:href="time_8h.html" target="_top" xlink:title="ODP time. ">
<polygon fill="#ffffff" stroke="#000000" points="616.5,-280.5 616.5,-299.5 703.5,-299.5 703.5,-280.5 616.5,-280.5"/>
<text text-anchor="middle" x="660" y="-287.5" font-family="Helvetica,sans-Serif" font-size="10.00" fill="#000000">odp/api/time.h</text>
</a>
</g>
</g>
<!-- Node19&#45;&gt;Node20 -->
<g id="edge26" class="edge">
<title>Node19&#45;&gt;Node20</title>
<path fill="none" stroke="#191970" d="M660,-336.2455C660,-328.9382 660,-318.6944 660,-309.7046"/>
<polygon fill="#191970" stroke="#191970" points="663.5001,-309.6426 660,-299.6427 656.5001,-309.6427 663.5001,-309.6426"/>
</g>
<!-- Node20&#45;&gt;Node6 -->
<g id="edge27" class="edge">
<title>Node20&#45;&gt;Node6</title>
<path fill="none" stroke="#191970" d="M634.9017,-280.3733C611.0445,-271.2226 574.9665,-257.3844 548.429,-247.2057"/>
<polygon fill="#191970" stroke="#191970" points="549.361,-243.8145 538.7708,-243.5011 546.8541,-250.3503 549.361,-243.8145"/>
</g>
<!-- Node21 -->
<g id="node22" class="node">
<title>Node21</title>
<polygon fill="#ffffff" stroke="#bfbfbf" points="606.5,-224.5 606.5,-243.5 711.5,-243.5 711.5,-224.5 606.5,-224.5"/>
<text text-anchor="middle" x="659" y="-231.5" font-family="Helvetica,sans-Serif" font-size="10.00" fill="#000000">odp/api/abi/time.h</text>
</g>
<!-- Node20&#45;&gt;Node21 -->
<g id="edge28" class="edge">
<title>Node20&#45;&gt;Node21</title>
<path fill="none" stroke="#191970" d="M659.8258,-280.2455C659.6953,-272.9382 659.5124,-262.6944 659.3519,-253.7046"/>
<polygon fill="#191970" stroke="#191970" points="662.8503,-253.5786 659.1722,-243.6427 655.8514,-253.7036 662.8503,-253.5786"/>
</g>
<!-- Node22 -->
<g id="node23" class="node">
<title>Node22</title>
<g id="a_node23"><a xlink:href="spec_2time_8h.html" target="_top" xlink:title="ODP time. ">
<polygon fill="#ffffff" stroke="#000000" points="683.5,-56.5 683.5,-75.5 796.5,-75.5 796.5,-56.5 683.5,-56.5"/>
<text text-anchor="middle" x="740" y="-63.5" font-family="Helvetica,sans-Serif" font-size="10.00" fill="#000000">odp/api/spec/time.h</text>
</a>
</g>
</g>
<!-- Node20&#45;&gt;Node22 -->
<g id="edge29" class="edge">
<title>Node20&#45;&gt;Node22</title>
<path fill="none" stroke="#191970" d="M679.6431,-280.4122C693.3733,-272.6057 710.8312,-260.2274 720,-244 748.8622,-192.9183 746.0449,-120.447 742.5666,-85.8603"/>
<polygon fill="#191970" stroke="#191970" points="746.0152,-85.2089 741.4065,-75.6689 739.0601,-86.0007 746.0152,-85.2089"/>
</g>
<!-- Node22&#45;&gt;Node1 -->
<g id="edge30" class="edge">
<title>Node22&#45;&gt;Node1</title>
<path fill="none" stroke="#191970" d="M688.9398,-56.4369C637.1232,-46.7321 556.905,-31.708 501.8285,-21.3926"/>
<polygon fill="#191970" stroke="#191970" points="502.323,-17.9245 491.8496,-19.5237 501.0344,-24.8048 502.323,-17.9245"/>
</g>
<!-- Node22&#45;&gt;Node4 -->
<g id="edge31" class="edge">
<title>Node22&#45;&gt;Node4</title>
<path fill="none" stroke="#191970" d="M758.1154,-56.2455C774.445,-47.4527 798.671,-34.4079 817.2339,-24.4125"/>
<polygon fill="#191970" stroke="#191970" points="818.9468,-27.4654 826.0922,-19.6427 815.6281,-21.3021 818.9468,-27.4654"/>
</g>
</g>
</svg>
