<?xml version="1.0" encoding="UTF-8" standalone="no"?>
<!DOCTYPE svg PUBLIC "-//W3C//DTD SVG 1.1//EN"
 "http://www.w3.org/Graphics/SVG/1.1/DTD/svg11.dtd">
<!-- Generated by graphviz version 2.40.1 (20161225.0304)
 -->
<!-- Title: packet.h Pages: 1 -->
<svg width="322pt" height="644pt"
 viewBox="0.00 0.00 322.00 644.00" xmlns="http://www.w3.org/2000/svg" xmlns:xlink="http://www.w3.org/1999/xlink">
<g id="graph0" class="graph" transform="scale(1 1) rotate(0) translate(4 640)">
<title>packet.h</title>
<polygon fill="#ffffff" stroke="transparent" points="-4,4 -4,-640 318,-640 318,4 -4,4"/>
<!-- Node13 -->
<g id="node1" class="node">
<title>Node13</title>
<polygon fill="#bfbfbf" stroke="#000000" points="111.5,-616.5 111.5,-635.5 170.5,-635.5 170.5,-616.5 111.5,-616.5"/>
<text text-anchor="middle" x="141" y="-623.5" font-family="Helvetica,sans-Serif" font-size="10.00" fill="#000000">packet.h</text>
</g>
<!-- Node14 -->
<g id="node2" class="node">
<title>Node14</title>
<g id="a_node2"><a xlink:href="packet_8h.html" target="_top" xlink:title="ODP packet descriptor. ">
<polygon fill="#ffffff" stroke="#000000" points="111.5,-560.5 111.5,-579.5 170.5,-579.5 170.5,-560.5 111.5,-560.5"/>
<text text-anchor="middle" x="141" y="-567.5" font-family="Helvetica,sans-Serif" font-size="10.00" fill="#000000">packet.h</text>
</a>
</g>
</g>
<!-- Node13&#45;&gt;Node14 -->
<g id="edge1" class="edge">
<title>Node13&#45;&gt;Node14</title>
<path fill="none" stroke="#191970" d="M141,-606.1575C141,-597.155 141,-586.9199 141,-579.6427"/>
<polygon fill="#191970" stroke="#191970" points="137.5001,-606.2455 141,-616.2455 144.5001,-606.2456 137.5001,-606.2455"/>
</g>
<!-- Node15 -->
<g id="node3" class="node">
<title>Node15</title>
<g id="a_node3"><a xlink:href="spec_2comp_8h.html" target="_top" xlink:title="ODP Compression. ">
<polygon fill="#ffffff" stroke="#000000" points="4.5,-504.5 4.5,-523.5 57.5,-523.5 57.5,-504.5 4.5,-504.5"/>
<text text-anchor="middle" x="31" y="-511.5" font-family="Helvetica,sans-Serif" font-size="10.00" fill="#000000">comp.h</text>
</a>
</g>
</g>
<!-- Node14&#45;&gt;Node15 -->
<g id="edge2" class="edge">
<title>Node14&#45;&gt;Node15</title>
<path fill="none" stroke="#191970" d="M112.7086,-555.5971C92.9889,-545.558 67.22,-532.4393 49.941,-523.6427"/>
<polygon fill="#191970" stroke="#191970" points="111.3399,-558.8277 121.8395,-560.2455 114.5157,-552.5896 111.3399,-558.8277"/>
</g>
<!-- Node17 -->
<g id="node5" class="node">
<title>Node17</title>
<g id="a_node5"><a xlink:href="spec_2crypto_8h.html" target="_top" xlink:title="ODP crypto. ">
<polygon fill="#ffffff" stroke="#000000" points="1,-392.5 1,-411.5 57,-411.5 57,-392.5 1,-392.5"/>
<text text-anchor="middle" x="29" y="-399.5" font-family="Helvetica,sans-Serif" font-size="10.00" fill="#000000">crypto.h</text>
</a>
</g>
</g>
<!-- Node14&#45;&gt;Node17 -->
<g id="edge4" class="edge">
<title>Node14&#45;&gt;Node17</title>
<path fill="none" stroke="#191970" d="M125.8616,-552.2957C119.0907,-543.9789 111.2459,-533.7641 105,-524 84.5419,-492.018 86.671,-479.8448 66,-448 57.4065,-434.7612 45.7626,-420.804 37.8481,-411.7835"/>
<polygon fill="#191970" stroke="#191970" points="123.3313,-554.7269 132.4169,-560.177 128.7131,-550.2506 123.3313,-554.7269"/>
</g>
<!-- Node21 -->
<g id="node9" class="node">
<title>Node21</title>
<g id="a_node9"><a xlink:href="spec_2event_8h.html" target="_top" xlink:title="ODP event. ">
<polygon fill="#ffffff" stroke="#000000" points="114.5,-504.5 114.5,-523.5 167.5,-523.5 167.5,-504.5 114.5,-504.5"/>
<text text-anchor="middle" x="141" y="-511.5" font-family="Helvetica,sans-Serif" font-size="10.00" fill="#000000">event.h</text>
</a>
</g>
</g>
<!-- Node14&#45;&gt;Node21 -->
<g id="edge8" class="edge">
<title>Node14&#45;&gt;Node21</title>
<path fill="none" stroke="#191970" d="M141,-550.1575C141,-541.155 141,-530.9199 141,-523.6427"/>
<polygon fill="#191970" stroke="#191970" points="137.5001,-550.2455 141,-560.2455 144.5001,-550.2456 137.5001,-550.2455"/>
</g>
<!-- Node25 -->
<g id="node13" class="node">
<title>Node25</title>
<g id="a_node13"><a xlink:href="spec_2packet__io_8h.html" target="_top" xlink:title="ODP Packet IO. ">
<polygon fill="#ffffff" stroke="#000000" points="161.5,-280.5 161.5,-299.5 234.5,-299.5 234.5,-280.5 161.5,-280.5"/>
<text text-anchor="middle" x="198" y="-287.5" font-family="Helvetica,sans-Serif" font-size="10.00" fill="#000000">packet_io.h</text>
</a>
</g>
</g>
<!-- Node14&#45;&gt;Node25 -->
<g id="edge27" class="edge">
<title>Node14&#45;&gt;Node25</title>
<path fill="none" stroke="#191970" d="M157.2386,-552.4538C164.1091,-544.2895 171.7258,-534.1521 177,-524 191.1304,-496.801 197,-488.6506 197,-458 197,-458 197,-458 197,-402 197,-364.0818 197.5802,-318.9455 197.8567,-299.5881"/>
<polygon fill="#191970" stroke="#191970" points="154.4384,-550.3385 150.4784,-560.1654 159.7023,-554.9529 154.4384,-550.3385"/>
</g>
<!-- Node33 -->
<g id="node21" class="node">
<title>Node33</title>
<g id="a_node21"><a xlink:href="spec_2packet__flags_8h.html" target="_top" xlink:title="ODP packet flags. ">
<polygon fill="#ffffff" stroke="#000000" points="225.5,-504.5 225.5,-523.5 312.5,-523.5 312.5,-504.5 225.5,-504.5"/>
<text text-anchor="middle" x="269" y="-511.5" font-family="Helvetica,sans-Serif" font-size="10.00" fill="#000000">packet_flags.h</text>
</a>
</g>
</g>
<!-- Node14&#45;&gt;Node33 -->
<g id="edge25" class="edge">
<title>Node14&#45;&gt;Node33</title>
<path fill="none" stroke="#191970" d="M172.4348,-556.2473C195.6809,-546.0771 226.7411,-532.4883 247.2831,-523.5011"/>
<polygon fill="#191970" stroke="#191970" points="170.7627,-553.1585 163.004,-560.3733 173.5685,-559.5716 170.7627,-553.1585"/>
</g>
<!-- Node16 -->
<g id="node4" class="node">
<title>Node16</title>
<g id="a_node4"><a xlink:href="comp_8h.html" target="_top" xlink:title="ODP crypto. ">
<polygon fill="#ffffff" stroke="#000000" points="4.5,-448.5 4.5,-467.5 57.5,-467.5 57.5,-448.5 4.5,-448.5"/>
<text text-anchor="middle" x="31" y="-455.5" font-family="Helvetica,sans-Serif" font-size="10.00" fill="#000000">comp.h</text>
</a>
</g>
</g>
<!-- Node15&#45;&gt;Node16 -->
<g id="edge3" class="edge">
<title>Node15&#45;&gt;Node16</title>
<path fill="none" stroke="#191970" d="M31,-494.1575C31,-485.155 31,-474.9199 31,-467.6427"/>
<polygon fill="#191970" stroke="#191970" points="27.5001,-494.2455 31,-504.2455 34.5001,-494.2456 27.5001,-494.2455"/>
</g>
<!-- Node18 -->
<g id="node6" class="node">
<title>Node18</title>
<g id="a_node6"><a xlink:href="crypto_8h.html" target="_top" xlink:title="ODP crypto. ">
<polygon fill="#ffffff" stroke="#000000" points="0,-280.5 0,-299.5 56,-299.5 56,-280.5 0,-280.5"/>
<text text-anchor="middle" x="28" y="-287.5" font-family="Helvetica,sans-Serif" font-size="10.00" fill="#000000">crypto.h</text>
</a>
</g>
</g>
<!-- Node17&#45;&gt;Node18 -->
<g id="edge5" class="edge">
<title>Node17&#45;&gt;Node18</title>
<path fill="none" stroke="#191970" d="M28.8238,-382.2702C28.6071,-357.9985 28.248,-317.7725 28.085,-299.5249"/>
<polygon fill="#191970" stroke="#191970" points="25.3255,-382.4826 28.9147,-392.4509 32.3252,-382.4201 25.3255,-382.4826"/>
</g>
<!-- Node19 -->
<g id="node7" class="node">
<title>Node19</title>
<g id="a_node7"><a xlink:href="spec_2ipsec_8h.html" target="_top" xlink:title="ODP IPSEC API. ">
<polygon fill="#ffffff" stroke="#000000" points="105.5,-56.5 105.5,-75.5 156.5,-75.5 156.5,-56.5 105.5,-56.5"/>
<text text-anchor="middle" x="131" y="-63.5" font-family="Helvetica,sans-Serif" font-size="10.00" fill="#000000">ipsec.h</text>
</a>
</g>
</g>
<!-- Node18&#45;&gt;Node19 -->
<g id="edge6" class="edge">
<title>Node18&#45;&gt;Node19</title>
<path fill="none" stroke="#191970" d="M35.2798,-270.7688C47.9911,-237.7293 75.5983,-168.3089 104,-112 110.5057,-99.102 119.1087,-84.8419 124.8371,-75.6693"/>
<polygon fill="#191970" stroke="#191970" points="31.9933,-269.5642 31.694,-280.1548 38.5324,-272.0624 31.9933,-269.5642"/>
</g>
<!-- Node20 -->
<g id="node8" class="node">
<title>Node20</title>
<g id="a_node8"><a xlink:href="ipsec_8h.html" target="_top" xlink:title="ODP IPSEC API &#45; platform specific header. ">
<polygon fill="#ffffff" stroke="#000000" points="105.5,-.5 105.5,-19.5 156.5,-19.5 156.5,-.5 105.5,-.5"/>
<text text-anchor="middle" x="131" y="-7.5" font-family="Helvetica,sans-Serif" font-size="10.00" fill="#000000">ipsec.h</text>
</a>
</g>
</g>
<!-- Node19&#45;&gt;Node20 -->
<g id="edge7" class="edge">
<title>Node19&#45;&gt;Node20</title>
<path fill="none" stroke="#191970" d="M131,-46.1575C131,-37.155 131,-26.9199 131,-19.6427"/>
<polygon fill="#191970" stroke="#191970" points="127.5001,-46.2455 131,-56.2455 134.5001,-46.2456 127.5001,-46.2455"/>
</g>
<!-- Node22 -->
<g id="node10" class="node">
<title>Node22</title>
<g id="a_node10"><a xlink:href="event_8h.html" target="_top" xlink:title="ODP event. ">
<polygon fill="#ffffff" stroke="#000000" points="114.5,-448.5 114.5,-467.5 167.5,-467.5 167.5,-448.5 114.5,-448.5"/>
<text text-anchor="middle" x="141" y="-455.5" font-family="Helvetica,sans-Serif" font-size="10.00" fill="#000000">event.h</text>
</a>
</g>
</g>
<!-- Node21&#45;&gt;Node22 -->
<g id="edge9" class="edge">
<title>Node21&#45;&gt;Node22</title>
<path fill="none" stroke="#191970" d="M141,-494.1575C141,-485.155 141,-474.9199 141,-467.6427"/>
<polygon fill="#191970" stroke="#191970" points="137.5001,-494.2455 141,-504.2455 144.5001,-494.2456 137.5001,-494.2455"/>
</g>
<!-- Node23 -->
<g id="node11" class="node">
<title>Node23</title>
<g id="a_node11"><a xlink:href="spec_2queue_8h.html" target="_top" xlink:title="ODP queue. ">
<polygon fill="#ffffff" stroke="#000000" points="113,-392.5 113,-411.5 169,-411.5 169,-392.5 113,-392.5"/>
<text text-anchor="middle" x="141" y="-399.5" font-family="Helvetica,sans-Serif" font-size="10.00" fill="#000000">queue.h</text>
</a>
</g>
</g>
<!-- Node22&#45;&gt;Node23 -->
<g id="edge10" class="edge">
<title>Node22&#45;&gt;Node23</title>
<path fill="none" stroke="#191970" d="M141,-438.1575C141,-429.155 141,-418.9199 141,-411.6427"/>
<polygon fill="#191970" stroke="#191970" points="137.5001,-438.2455 141,-448.2455 144.5001,-438.2456 137.5001,-438.2455"/>
</g>
<!-- Node31 -->
<g id="node19" class="node">
<title>Node31</title>
<g id="a_node19"><a xlink:href="spec_2schedule_8h.html" target="_top" xlink:title="ODP schedule. ">
<polygon fill="#ffffff" stroke="#000000" points="74.5,-280.5 74.5,-299.5 143.5,-299.5 143.5,-280.5 74.5,-280.5"/>
<text text-anchor="middle" x="109" y="-287.5" font-family="Helvetica,sans-Serif" font-size="10.00" fill="#000000">schedule.h</text>
</a>
</g>
</g>
<!-- Node22&#45;&gt;Node31 -->
<g id="edge24" class="edge">
<title>Node22&#45;&gt;Node31</title>
<path fill="none" stroke="#191970" d="M122.7672,-441.0939C115.4402,-433.0754 107.8309,-422.875 104,-412 89.9839,-372.2118 100.7798,-320.5617 106.2822,-299.5338"/>
<polygon fill="#191970" stroke="#191970" points="120.3534,-443.6314 129.8498,-448.3293 125.3557,-438.7348 120.3534,-443.6314"/>
</g>
<!-- Node24 -->
<g id="node12" class="node">
<title>Node24</title>
<g id="a_node12"><a xlink:href="queue_8h.html" target="_top" xlink:title="ODP queue. ">
<polygon fill="#ffffff" stroke="#000000" points="113,-336.5 113,-355.5 169,-355.5 169,-336.5 113,-336.5"/>
<text text-anchor="middle" x="141" y="-343.5" font-family="Helvetica,sans-Serif" font-size="10.00" fill="#000000">queue.h</text>
</a>
</g>
</g>
<!-- Node23&#45;&gt;Node24 -->
<g id="edge11" class="edge">
<title>Node23&#45;&gt;Node24</title>
<path fill="none" stroke="#191970" d="M141,-382.1575C141,-373.155 141,-362.9199 141,-355.6427"/>
<polygon fill="#191970" stroke="#191970" points="137.5001,-382.2455 141,-392.2455 144.5001,-382.2456 137.5001,-382.2455"/>
</g>
<!-- Node24&#45;&gt;Node18 -->
<g id="edge12" class="edge">
<title>Node24&#45;&gt;Node18</title>
<path fill="none" stroke="#191970" d="M112.4208,-331.8368C91.9942,-321.7139 65.0638,-308.3679 47.1719,-299.5011"/>
<polygon fill="#191970" stroke="#191970" points="111.0604,-335.0688 121.5746,-336.3733 114.1687,-328.7968 111.0604,-335.0688"/>
</g>
<!-- Node24&#45;&gt;Node25 -->
<g id="edge13" class="edge">
<title>Node24&#45;&gt;Node25</title>
<path fill="none" stroke="#191970" d="M158.2271,-329.0751C168.0341,-319.4402 179.964,-307.7196 188.1851,-299.6427"/>
<polygon fill="#191970" stroke="#191970" points="155.6091,-326.7406 150.9286,-336.2455 160.5149,-331.734 155.6091,-326.7406"/>
</g>
<!-- Node24&#45;&gt;Node31 -->
<g id="edge22" class="edge">
<title>Node24&#45;&gt;Node31</title>
<path fill="none" stroke="#191970" d="M130.3355,-327.3372C125.0346,-318.0605 118.8513,-307.2398 114.5101,-299.6427"/>
<polygon fill="#191970" stroke="#191970" points="127.4257,-329.2996 135.426,-336.2455 133.5034,-325.8266 127.4257,-329.2996"/>
</g>
<!-- Node26 -->
<g id="node14" class="node">
<title>Node26</title>
<g id="a_node14"><a xlink:href="packet__io_8h.html" target="_top" xlink:title="ODP Packet IO. ">
<polygon fill="#ffffff" stroke="#000000" points="161.5,-224.5 161.5,-243.5 234.5,-243.5 234.5,-224.5 161.5,-224.5"/>
<text text-anchor="middle" x="198" y="-231.5" font-family="Helvetica,sans-Serif" font-size="10.00" fill="#000000">packet_io.h</text>
</a>
</g>
</g>
<!-- Node25&#45;&gt;Node26 -->
<g id="edge14" class="edge">
<title>Node25&#45;&gt;Node26</title>
<path fill="none" stroke="#191970" d="M198,-270.1575C198,-261.155 198,-250.9199 198,-243.6427"/>
<polygon fill="#191970" stroke="#191970" points="194.5001,-270.2455 198,-280.2455 201.5001,-270.2456 194.5001,-270.2455"/>
</g>
<!-- Node26&#45;&gt;Node19 -->
<g id="edge18" class="edge">
<title>Node26&#45;&gt;Node19</title>
<path fill="none" stroke="#191970" d="M154.6742,-220.459C139.3717,-213.3553 123.7946,-202.929 115,-188 93.3147,-151.1886 115.2783,-97.4321 125.9251,-75.6752"/>
<polygon fill="#191970" stroke="#191970" points="153.531,-223.776 164.1035,-224.4632 156.2671,-217.3328 153.531,-223.776"/>
</g>
<!-- Node27 -->
<g id="node15" class="node">
<title>Node27</title>
<g id="a_node15"><a xlink:href="spec_2classification_8h.html" target="_top" xlink:title="ODP classification descriptor. ">
<polygon fill="#ffffff" stroke="#000000" points="123.5,-168.5 123.5,-187.5 212.5,-187.5 212.5,-168.5 123.5,-168.5"/>
<text text-anchor="middle" x="168" y="-175.5" font-family="Helvetica,sans-Serif" font-size="10.00" fill="#000000">classification.h</text>
</a>
</g>
</g>
<!-- Node26&#45;&gt;Node27 -->
<g id="edge15" class="edge">
<title>Node26&#45;&gt;Node27</title>
<path fill="none" stroke="#191970" d="M188.002,-215.3372C183.0324,-206.0605 177.2356,-195.2398 173.1657,-187.6427"/>
<polygon fill="#191970" stroke="#191970" points="184.9669,-217.0835 192.7744,-224.2455 191.1373,-213.7779 184.9669,-217.0835"/>
</g>
<!-- Node29 -->
<g id="node17" class="node">
<title>Node29</title>
<g id="a_node17"><a xlink:href="spec_2traffic__mngr_8h.html" target="_top" xlink:title="Copyright (c) 2015&#45;2018, Linaro Limited All rights reserved. ">
<polygon fill="#ffffff" stroke="#000000" points="230,-168.5 230,-187.5 314,-187.5 314,-168.5 230,-168.5"/>
<text text-anchor="middle" x="272" y="-175.5" font-family="Helvetica,sans-Serif" font-size="10.00" fill="#000000">traffic_mngr.h</text>
</a>
</g>
</g>
<!-- Node26&#45;&gt;Node29 -->
<g id="edge19" class="edge">
<title>Node26&#45;&gt;Node29</title>
<path fill="none" stroke="#191970" d="M218.8657,-218.2097C231.8625,-208.3743 248.1622,-196.0394 259.2579,-187.6427"/>
<polygon fill="#191970" stroke="#191970" points="216.7518,-215.4201 210.8898,-224.2455 220.976,-221.002 216.7518,-215.4201"/>
</g>
<!-- Node28 -->
<g id="node16" class="node">
<title>Node28</title>
<g id="a_node16"><a xlink:href="classification_8h.html" target="_top" xlink:title="ODP classification descriptor. ">
<polygon fill="#ffffff" stroke="#000000" points="123.5,-112.5 123.5,-131.5 212.5,-131.5 212.5,-112.5 123.5,-112.5"/>
<text text-anchor="middle" x="168" y="-119.5" font-family="Helvetica,sans-Serif" font-size="10.00" fill="#000000">classification.h</text>
</a>
</g>
</g>
<!-- Node27&#45;&gt;Node28 -->
<g id="edge16" class="edge">
<title>Node27&#45;&gt;Node28</title>
<path fill="none" stroke="#191970" d="M168,-158.1575C168,-149.155 168,-138.9199 168,-131.6427"/>
<polygon fill="#191970" stroke="#191970" points="164.5001,-158.2455 168,-168.2455 171.5001,-158.2456 164.5001,-158.2455"/>
</g>
<!-- Node28&#45;&gt;Node19 -->
<g id="edge17" class="edge">
<title>Node28&#45;&gt;Node19</title>
<path fill="none" stroke="#191970" d="M155.8624,-103.6296C149.6907,-94.2887 142.4434,-83.3197 137.3711,-75.6427"/>
<polygon fill="#191970" stroke="#191970" points="153.1223,-105.8316 161.5551,-112.2455 158.9627,-101.9728 153.1223,-105.8316"/>
</g>
<!-- Node30 -->
<g id="node18" class="node">
<title>Node30</title>
<g id="a_node18"><a xlink:href="traffic__mngr_8h.html" target="_top" xlink:title="ODP Traffic manager. ">
<polygon fill="#ffffff" stroke="#000000" points="230,-112.5 230,-131.5 314,-131.5 314,-112.5 230,-112.5"/>
<text text-anchor="middle" x="272" y="-119.5" font-family="Helvetica,sans-Serif" font-size="10.00" fill="#000000">traffic_mngr.h</text>
</a>
</g>
</g>
<!-- Node29&#45;&gt;Node30 -->
<g id="edge20" class="edge">
<title>Node29&#45;&gt;Node30</title>
<path fill="none" stroke="#191970" d="M272,-158.1575C272,-149.155 272,-138.9199 272,-131.6427"/>
<polygon fill="#191970" stroke="#191970" points="268.5001,-158.2455 272,-168.2455 275.5001,-158.2456 268.5001,-158.2455"/>
</g>
<!-- Node30&#45;&gt;Node19 -->
<g id="edge21" class="edge">
<title>Node30&#45;&gt;Node19</title>
<path fill="none" stroke="#191970" d="M238.3968,-108.6541C212.6841,-98.4419 177.8539,-84.6086 154.9225,-75.5011"/>
<polygon fill="#191970" stroke="#191970" points="237.1755,-111.9349 247.7612,-112.3733 239.7593,-105.4292 237.1755,-111.9349"/>
</g>
<!-- Node32 -->
<g id="node20" class="node">
<title>Node32</title>
<g id="a_node20"><a xlink:href="schedule_8h.html" target="_top" xlink:title="ODP schedule. ">
<polygon fill="#ffffff" stroke="#000000" points="74.5,-224.5 74.5,-243.5 143.5,-243.5 143.5,-224.5 74.5,-224.5"/>
<text text-anchor="middle" x="109" y="-231.5" font-family="Helvetica,sans-Serif" font-size="10.00" fill="#000000">schedule.h</text>
</a>
</g>
</g>
<!-- Node31&#45;&gt;Node32 -->
<g id="edge23" class="edge">
<title>Node31&#45;&gt;Node32</title>
<path fill="none" stroke="#191970" d="M109,-270.1575C109,-261.155 109,-250.9199 109,-243.6427"/>
<polygon fill="#191970" stroke="#191970" points="105.5001,-270.2455 109,-280.2455 112.5001,-270.2456 105.5001,-270.2455"/>
</g>
<!-- Node34 -->
<g id="node22" class="node">
<title>Node34</title>
<g id="a_node22"><a xlink:href="packet__flags_8h.html" target="_top" xlink:title="ODP packet flags. ">
<polygon fill="#ffffff" stroke="#000000" points="225.5,-448.5 225.5,-467.5 312.5,-467.5 312.5,-448.5 225.5,-448.5"/>
<text text-anchor="middle" x="269" y="-455.5" font-family="Helvetica,sans-Serif" font-size="10.00" fill="#000000">packet_flags.h</text>
</a>
</g>
</g>
<!-- Node33&#45;&gt;Node34 -->
<g id="edge26" class="edge">
<title>Node33&#45;&gt;Node34</title>
<path fill="none" stroke="#191970" d="M269,-494.1575C269,-485.155 269,-474.9199 269,-467.6427"/>
<polygon fill="#191970" stroke="#191970" points="265.5001,-494.2455 269,-504.2455 272.5001,-494.2456 265.5001,-494.2455"/>
</g>
</g>
</svg>
