<?xml version="1.0" encoding="UTF-8" standalone="no"?>
<!DOCTYPE svg PUBLIC "-//W3C//DTD SVG 1.1//EN"
 "http://www.w3.org/Graphics/SVG/1.1/DTD/svg11.dtd">
<!-- Generated by graphviz version 2.40.1 (20161225.0304)
 -->
<!-- Title: std_types.h Pages: 1 -->
<svg width="2502pt" height="364pt"
 viewBox="0.00 0.00 2502.00 364.00" xmlns="http://www.w3.org/2000/svg" xmlns:xlink="http://www.w3.org/1999/xlink">
<g id="graph0" class="graph" transform="scale(1 1) rotate(0) translate(4 360)">
<title>std_types.h</title>
<polygon fill="#ffffff" stroke="transparent" points="-4,4 -4,-360 2498,-360 2498,4 -4,4"/>
<!-- Node9 -->
<g id="node1" class="node">
<title>Node9</title>
<polygon fill="#bfbfbf" stroke="#000000" points="1291,-336.5 1291,-355.5 1364,-355.5 1364,-336.5 1291,-336.5"/>
<text text-anchor="middle" x="1327.5" y="-343.5" font-family="Helvetica,sans-Serif" font-size="10.00" fill="#000000">std_types.h</text>
</g>
<!-- Node10 -->
<g id="node2" class="node">
<title>Node10</title>
<g id="a_node2"><a xlink:href="abi-default_2atomic_8h.html" target="_top" xlink:title="ODP atomic operations. ">
<polygon fill="#ffffff" stroke="#000000" points="0,-280.5 0,-299.5 59,-299.5 59,-280.5 0,-280.5"/>
<text text-anchor="middle" x="29.5" y="-287.5" font-family="Helvetica,sans-Serif" font-size="10.00" fill="#000000">atomic.h</text>
</a>
</g>
</g>
<!-- Node9&#45;&gt;Node10 -->
<g id="edge1" class="edge">
<title>Node9&#45;&gt;Node10</title>
<path fill="none" stroke="#191970" d="M1280.8428,-345.6747C1082.4876,-344.0795 308.4185,-335.6496 67.5,-300 64.8007,-299.6006 62.0171,-299.0818 59.2416,-298.4908"/>
<polygon fill="#191970" stroke="#191970" points="1280.9036,-349.1752 1290.9308,-345.7539 1280.9586,-342.1754 1280.9036,-349.1752"/>
</g>
<!-- Node11 -->
<g id="node3" class="node">
<title>Node11</title>
<g id="a_node3"><a xlink:href="abi-default_2barrier_8h.html" target="_top" xlink:title="ODP barrier. ">
<polygon fill="#ffffff" stroke="#000000" points="77,-280.5 77,-299.5 134,-299.5 134,-280.5 77,-280.5"/>
<text text-anchor="middle" x="105.5" y="-287.5" font-family="Helvetica,sans-Serif" font-size="10.00" fill="#000000">barrier.h</text>
</a>
</g>
</g>
<!-- Node9&#45;&gt;Node11 -->
<g id="edge2" class="edge">
<title>Node9&#45;&gt;Node11</title>
<path fill="none" stroke="#191970" d="M1280.5866,-345.5451C1089.413,-343.4802 368.6441,-333.5847 143.5,-300 140.5312,-299.5572 137.4604,-298.9711 134.4104,-298.3042"/>
<polygon fill="#191970" stroke="#191970" points="1280.8179,-349.0477 1290.8545,-345.6539 1280.8922,-342.0481 1280.8179,-349.0477"/>
</g>
<!-- Node12 -->
<g id="node4" class="node">
<title>Node12</title>
<g id="a_node4"><a xlink:href="abi-default_2byteorder_8h.html" target="_top" xlink:title="ODP byteorder. ">
<polygon fill="#ffffff" stroke="#000000" points="152.5,-280.5 152.5,-299.5 224.5,-299.5 224.5,-280.5 152.5,-280.5"/>
<text text-anchor="middle" x="188.5" y="-287.5" font-family="Helvetica,sans-Serif" font-size="10.00" fill="#000000">byteorder.h</text>
</a>
</g>
</g>
<!-- Node9&#45;&gt;Node12 -->
<g id="edge3" class="edge">
<title>Node9&#45;&gt;Node12</title>
<path fill="none" stroke="#191970" d="M1280.9318,-345.1383C1099.6375,-341.6137 440.8151,-327.1768 233.5,-300 230.6433,-299.6255 227.7002,-299.1586 224.7514,-298.6327"/>
<polygon fill="#191970" stroke="#191970" points="1280.8777,-348.6378 1290.9433,-345.3312 1281.0126,-341.6391 1280.8777,-348.6378"/>
</g>
<!-- Node13 -->
<g id="node5" class="node">
<title>Node13</title>
<g id="a_node5"><a xlink:href="abi-default_2cpumask_8h.html" target="_top" xlink:title="ODP CPU masks and enumeration. ">
<polygon fill="#ffffff" stroke="#000000" points="242.5,-280.5 242.5,-299.5 312.5,-299.5 312.5,-280.5 242.5,-280.5"/>
<text text-anchor="middle" x="277.5" y="-287.5" font-family="Helvetica,sans-Serif" font-size="10.00" fill="#000000">cpumask.h</text>
</a>
</g>
</g>
<!-- Node9&#45;&gt;Node13 -->
<g id="edge4" class="edge">
<title>Node9&#45;&gt;Node13</title>
<path fill="none" stroke="#191970" d="M1280.7555,-344.9664C1108.6655,-340.9896 510.5989,-325.6047 321.5,-300 318.7054,-299.6216 315.8266,-299.1519 312.9427,-298.624"/>
<polygon fill="#191970" stroke="#191970" points="1280.684,-348.4656 1290.7617,-345.1959 1280.8446,-341.4675 1280.684,-348.4656"/>
</g>
<!-- Node14 -->
<g id="node6" class="node">
<title>Node14</title>
<g id="a_node6"><a xlink:href="abi-default_2init_8h.html" target="_top" xlink:title="ODP initialization. ">
<polygon fill="#ffffff" stroke="#000000" points="331,-280.5 331,-299.5 372,-299.5 372,-280.5 331,-280.5"/>
<text text-anchor="middle" x="351.5" y="-287.5" font-family="Helvetica,sans-Serif" font-size="10.00" fill="#000000">init.h</text>
</a>
</g>
</g>
<!-- Node9&#45;&gt;Node14 -->
<g id="edge5" class="edge">
<title>Node9&#45;&gt;Node14</title>
<path fill="none" stroke="#191970" d="M1280.4387,-345.4741C1114.2999,-343.3435 555.8594,-333.7793 380.5,-300 377.7807,-299.4762 374.9695,-298.7526 372.2161,-297.9319"/>
<polygon fill="#191970" stroke="#191970" points="1280.7634,-348.9784 1290.8065,-345.6039 1280.8511,-341.9789 1280.7634,-348.9784"/>
</g>
<!-- Node15 -->
<g id="node7" class="node">
<title>Node15</title>
<g id="a_node7"><a xlink:href="abi-default_2ipsec_8h.html" target="_top" xlink:title="ODP IPSEC API &#45; platform specific types. ">
<polygon fill="#ffffff" stroke="#000000" points="390,-280.5 390,-299.5 441,-299.5 441,-280.5 390,-280.5"/>
<text text-anchor="middle" x="415.5" y="-287.5" font-family="Helvetica,sans-Serif" font-size="10.00" fill="#000000">ipsec.h</text>
</a>
</g>
</g>
<!-- Node9&#45;&gt;Node15 -->
<g id="edge6" class="edge">
<title>Node9&#45;&gt;Node15</title>
<path fill="none" stroke="#191970" d="M1280.2679,-344.9799C1122.0314,-341.3346 611.4724,-327.6699 449.5,-300 446.8314,-299.5441 444.0758,-298.9495 441.3418,-298.2774"/>
<polygon fill="#191970" stroke="#191970" points="1280.5316,-348.4867 1290.6088,-345.2153 1280.691,-341.4885 1280.5316,-348.4867"/>
</g>
<!-- Node16 -->
<g id="node8" class="node">
<title>Node16</title>
<g id="a_node8"><a xlink:href="abi-default_2packet__io_8h.html" target="_top" xlink:title="ODP Packet IO. ">
<polygon fill="#ffffff" stroke="#000000" points="459,-280.5 459,-299.5 532,-299.5 532,-280.5 459,-280.5"/>
<text text-anchor="middle" x="495.5" y="-287.5" font-family="Helvetica,sans-Serif" font-size="10.00" fill="#000000">packet_io.h</text>
</a>
</g>
</g>
<!-- Node9&#45;&gt;Node16 -->
<g id="edge7" class="edge">
<title>Node9&#45;&gt;Node16</title>
<path fill="none" stroke="#191970" d="M1280.9075,-344.2271C1134.6478,-338.5115 685.8187,-319.7873 541.5,-300 538.4232,-299.5781 535.2462,-299.0612 532.0667,-298.4867"/>
<polygon fill="#191970" stroke="#191970" points="1280.7785,-347.7247 1290.907,-344.616 1281.0506,-340.73 1280.7785,-347.7247"/>
</g>
<!-- Node17 -->
<g id="node9" class="node">
<title>Node17</title>
<g id="a_node9"><a xlink:href="abi-default_2rwlock__recursive_8h.html" target="_top" xlink:title="ODP recursive read/write lock. ">
<polygon fill="#ffffff" stroke="#000000" points="550.5,-280.5 550.5,-299.5 658.5,-299.5 658.5,-280.5 550.5,-280.5"/>
<text text-anchor="middle" x="604.5" y="-287.5" font-family="Helvetica,sans-Serif" font-size="10.00" fill="#000000">rwlock_recursive.h</text>
</a>
</g>
</g>
<!-- Node9&#45;&gt;Node17 -->
<g id="edge8" class="edge">
<title>Node9&#45;&gt;Node17</title>
<path fill="none" stroke="#191970" d="M1280.6594,-344.1506C1172.421,-339.568 896.6723,-326.1235 667.5,-300 664.6392,-299.6739 661.7096,-299.3109 658.7548,-298.9218"/>
<polygon fill="#191970" stroke="#191970" points="1280.7697,-347.6581 1290.9072,-344.579 1281.0622,-340.6642 1280.7697,-347.6581"/>
</g>
<!-- Node18 -->
<g id="node10" class="node">
<title>Node18</title>
<g id="a_node10"><a xlink:href="abi-default_2schedule_8h.html" target="_top" xlink:title="ODP schedule. ">
<polygon fill="#ffffff" stroke="#000000" points="677,-280.5 677,-299.5 746,-299.5 746,-280.5 677,-280.5"/>
<text text-anchor="middle" x="711.5" y="-287.5" font-family="Helvetica,sans-Serif" font-size="10.00" fill="#000000">schedule.h</text>
</a>
</g>
</g>
<!-- Node9&#45;&gt;Node18 -->
<g id="edge9" class="edge">
<title>Node9&#45;&gt;Node18</title>
<path fill="none" stroke="#191970" d="M1280.6558,-344.5046C1182.6683,-340.8785 949.098,-329.6282 755.5,-300 752.5575,-299.5497 749.519,-299.0127 746.4779,-298.4247"/>
<polygon fill="#191970" stroke="#191970" points="1280.6988,-348.0083 1290.8185,-344.8711 1280.9512,-341.0129 1280.6988,-348.0083"/>
</g>
<!-- Node19 -->
<g id="node11" class="node">
<title>Node19</title>
<g id="a_node11"><a xlink:href="abi-default_2spinlock__recursive_8h.html" target="_top" xlink:title="ODP recursive spinlock. ">
<polygon fill="#ffffff" stroke="#000000" points="764.5,-280.5 764.5,-299.5 880.5,-299.5 880.5,-280.5 764.5,-280.5"/>
<text text-anchor="middle" x="822.5" y="-287.5" font-family="Helvetica,sans-Serif" font-size="10.00" fill="#000000">spinlock_recursive.h</text>
</a>
</g>
</g>
<!-- Node9&#45;&gt;Node19 -->
<g id="edge10" class="edge">
<title>Node9&#45;&gt;Node19</title>
<path fill="none" stroke="#191970" d="M1280.5434,-341.7448C1200.2805,-334.3201 1031.5963,-318.0572 889.5,-300 886.5833,-299.6293 883.5972,-299.2357 880.5833,-298.8271"/>
<polygon fill="#191970" stroke="#191970" points="1280.5302,-345.2583 1290.8092,-342.6908 1281.1726,-338.2878 1280.5302,-345.2583"/>
</g>
<!-- Node20 -->
<g id="node12" class="node">
<title>Node20</title>
<g id="a_node12"><a xlink:href="abi-default_2traffic__mngr_8h.html" target="_top" xlink:title="ODP traffic mngr. ">
<polygon fill="#ffffff" stroke="#000000" points="898.5,-280.5 898.5,-299.5 982.5,-299.5 982.5,-280.5 898.5,-280.5"/>
<text text-anchor="middle" x="940.5" y="-287.5" font-family="Helvetica,sans-Serif" font-size="10.00" fill="#000000">traffic_mngr.h</text>
</a>
</g>
</g>
<!-- Node9&#45;&gt;Node20 -->
<g id="edge11" class="edge">
<title>Node9&#45;&gt;Node20</title>
<path fill="none" stroke="#191970" d="M1280.6578,-340.4514C1215.6096,-332.5495 1094.3175,-317.1037 991.5,-300 988.6519,-299.5262 985.7189,-299.0146 982.7668,-298.4821"/>
<polygon fill="#191970" stroke="#191970" points="1280.2554,-343.9281 1290.6033,-341.6539 1281.0957,-336.9787 1280.2554,-343.9281"/>
</g>
<!-- Node21 -->
<g id="node13" class="node">
<title>Node21</title>
<g id="a_node13"><a xlink:href="barrier_8h.html" target="_top" xlink:title="ODP execution barriers. ">
<polygon fill="#ffffff" stroke="#000000" points="1001,-280.5 1001,-299.5 1058,-299.5 1058,-280.5 1001,-280.5"/>
<text text-anchor="middle" x="1029.5" y="-287.5" font-family="Helvetica,sans-Serif" font-size="10.00" fill="#000000">barrier.h</text>
</a>
</g>
</g>
<!-- Node9&#45;&gt;Node21 -->
<g id="edge12" class="edge">
<title>Node9&#45;&gt;Node21</title>
<path fill="none" stroke="#191970" d="M1280.9892,-339.0906C1228.5952,-331.009 1141.0222,-316.6027 1066.5,-300 1063.7722,-299.3923 1060.9435,-298.7148 1058.1205,-298.0068"/>
<polygon fill="#191970" stroke="#191970" points="1280.5701,-342.5671 1290.9847,-340.6213 1281.6298,-335.6478 1280.5701,-342.5671"/>
</g>
<!-- Node22 -->
<g id="node14" class="node">
<title>Node22</title>
<g id="a_node14"><a xlink:href="buffer_8h.html" target="_top" xlink:title="ODP buffer descriptor. ">
<polygon fill="#ffffff" stroke="#000000" points="1076,-280.5 1076,-299.5 1129,-299.5 1129,-280.5 1076,-280.5"/>
<text text-anchor="middle" x="1102.5" y="-287.5" font-family="Helvetica,sans-Serif" font-size="10.00" fill="#000000">buffer.h</text>
</a>
</g>
</g>
<!-- Node9&#45;&gt;Node22 -->
<g id="edge13" class="edge">
<title>Node9&#45;&gt;Node22</title>
<path fill="none" stroke="#191970" d="M1281.1438,-334.4625C1235.289,-323.0497 1166.6992,-305.9785 1129.2531,-296.6586"/>
<polygon fill="#191970" stroke="#191970" points="1280.2998,-337.8591 1290.8491,-336.878 1281.9905,-331.0663 1280.2998,-337.8591"/>
</g>
<!-- Node23 -->
<g id="node15" class="node">
<title>Node23</title>
<g id="a_node15"><a xlink:href="classification_8h.html" target="_top" xlink:title="ODP classification descriptor. ">
<polygon fill="#ffffff" stroke="#000000" points="1232,-56.5 1232,-75.5 1321,-75.5 1321,-56.5 1232,-56.5"/>
<text text-anchor="middle" x="1276.5" y="-63.5" font-family="Helvetica,sans-Serif" font-size="10.00" fill="#000000">classification.h</text>
</a>
</g>
</g>
<!-- Node9&#45;&gt;Node23 -->
<g id="edge14" class="edge">
<title>Node9&#45;&gt;Node23</title>
<path fill="none" stroke="#191970" d="M1281.1376,-335.5048C1249.5454,-327.5914 1207.1467,-315.4608 1171.5,-300 1155.416,-293.024 1153.7622,-286.5497 1137.5,-280 1073.5036,-254.2248 1029.2553,-298.1469 986.5,-244 912.9151,-150.8093 1133.6579,-94.2254 1231.9048,-74.2135"/>
<polygon fill="#191970" stroke="#191970" points="1280.4467,-338.9391 1290.9928,-337.9248 1282.116,-332.141 1280.4467,-338.9391"/>
</g>
<!-- Node26 -->
<g id="node17" class="node">
<title>Node26</title>
<g id="a_node17"><a xlink:href="crypto_8h.html" target="_top" xlink:title="ODP crypto. ">
<polygon fill="#ffffff" stroke="#000000" points="1461.5,-168.5 1461.5,-187.5 1517.5,-187.5 1517.5,-168.5 1461.5,-168.5"/>
<text text-anchor="middle" x="1489.5" y="-175.5" font-family="Helvetica,sans-Serif" font-size="10.00" fill="#000000">crypto.h</text>
</a>
</g>
</g>
<!-- Node9&#45;&gt;Node26 -->
<g id="edge16" class="edge">
<title>Node9&#45;&gt;Node26</title>
<path fill="none" stroke="#191970" d="M1374.5309,-340.5751C1422.5135,-333.9582 1492.1823,-320.9834 1508.5,-300 1534.9495,-265.9877 1508.1521,-210.176 1495.4167,-187.7643"/>
<polygon fill="#191970" stroke="#191970" points="1373.7998,-337.1415 1364.3486,-341.9296 1374.7229,-344.0803 1373.7998,-337.1415"/>
</g>
<!-- Node27 -->
<g id="node18" class="node">
<title>Node27</title>
<g id="a_node18"><a xlink:href="packet_8h.html" target="_top" xlink:title="ODP packet descriptor. ">
<polygon fill="#ffffff" stroke="#000000" points="1262,-280.5 1262,-299.5 1321,-299.5 1321,-280.5 1262,-280.5"/>
<text text-anchor="middle" x="1291.5" y="-287.5" font-family="Helvetica,sans-Serif" font-size="10.00" fill="#000000">packet.h</text>
</a>
</g>
</g>
<!-- Node9&#45;&gt;Node27 -->
<g id="edge18" class="edge">
<title>Node9&#45;&gt;Node27</title>
<path fill="none" stroke="#191970" d="M1315.6904,-327.6296C1309.6856,-318.2887 1302.6341,-307.3197 1297.6989,-299.6427"/>
<polygon fill="#191970" stroke="#191970" points="1312.8775,-329.7264 1321.2293,-336.2455 1318.7658,-325.9411 1312.8775,-329.7264"/>
</g>
<!-- Node42 -->
<g id="node22" class="node">
<title>Node42</title>
<g id="a_node22"><a xlink:href="spec_2packet__flags_8h.html" target="_top" xlink:title="ODP packet flags. ">
<polygon fill="#ffffff" stroke="#000000" points="1010,-224.5 1010,-243.5 1097,-243.5 1097,-224.5 1010,-224.5"/>
<text text-anchor="middle" x="1053.5" y="-231.5" font-family="Helvetica,sans-Serif" font-size="10.00" fill="#000000">packet_flags.h</text>
</a>
</g>
</g>
<!-- Node9&#45;&gt;Node42 -->
<g id="edge48" class="edge">
<title>Node9&#45;&gt;Node42</title>
<path fill="none" stroke="#191970" d="M1304.2896,-330.9637C1281.0439,-316.4052 1243.8792,-294.4688 1209.5,-280 1171.8934,-264.1729 1127.0384,-251.5572 1095.0995,-243.5701"/>
<polygon fill="#191970" stroke="#191970" points="1302.4511,-333.9422 1312.7719,-336.3365 1306.1969,-328.0287 1302.4511,-333.9422"/>
</g>
<!-- Node36 -->
<g id="node25" class="node">
<title>Node36</title>
<g id="a_node25"><a xlink:href="packet__io_8h.html" target="_top" xlink:title="ODP Packet IO. ">
<polygon fill="#ffffff" stroke="#000000" points="1313,-168.5 1313,-187.5 1386,-187.5 1386,-168.5 1313,-168.5"/>
<text text-anchor="middle" x="1349.5" y="-175.5" font-family="Helvetica,sans-Serif" font-size="10.00" fill="#000000">packet_io.h</text>
</a>
</g>
</g>
<!-- Node9&#45;&gt;Node36 -->
<g id="edge31" class="edge">
<title>Node9&#45;&gt;Node36</title>
<path fill="none" stroke="#191970" d="M1290.8425,-332.9254C1267.3207,-324.239 1236.2797,-312.22 1209.5,-300 1192.137,-292.077 1189.4543,-286.4723 1171.5,-280 1096.2674,-252.8796 947.7756,-284.1298 1000.5,-224 1020.8978,-200.7372 1227.397,-185.4944 1312.8163,-180.1394"/>
<polygon fill="#191970" stroke="#191970" points="1289.8348,-336.2836 1300.4286,-336.4349 1292.2414,-329.7103 1289.8348,-336.2836"/>
</g>
<!-- Node38 -->
<g id="node27" class="node">
<title>Node38</title>
<g id="a_node27"><a xlink:href="spec_2traffic__mngr_8h.html" target="_top" xlink:title="Copyright (c) 2015&#45;2018, Linaro Limited All rights reserved. ">
<polygon fill="#ffffff" stroke="#ff0000" points="1377.5,-112.5 1377.5,-131.5 1461.5,-131.5 1461.5,-112.5 1377.5,-112.5"/>
<text text-anchor="middle" x="1419.5" y="-119.5" font-family="Helvetica,sans-Serif" font-size="10.00" fill="#000000">traffic_mngr.h</text>
</a>
</g>
</g>
<!-- Node9&#45;&gt;Node38 -->
<g id="edge56" class="edge">
<title>Node9&#45;&gt;Node38</title>
<path fill="none" stroke="#191970" d="M1358.4078,-331.5174C1371.8158,-323.8441 1386.6664,-313.2418 1396.5,-300 1435.6985,-247.2161 1425.9054,-160.5212 1421.2514,-131.6736"/>
<polygon fill="#191970" stroke="#191970" points="1356.5742,-328.5297 1349.4352,-336.3583 1359.8979,-334.6903 1356.5742,-328.5297"/>
</g>
<!-- Node34 -->
<g id="node28" class="node">
<title>Node34</title>
<g id="a_node28"><a xlink:href="queue_8h.html" target="_top" xlink:title="ODP queue. ">
<polygon fill="#ffffff" stroke="#000000" points="1443.5,-280.5 1443.5,-299.5 1499.5,-299.5 1499.5,-280.5 1443.5,-280.5"/>
<text text-anchor="middle" x="1471.5" y="-287.5" font-family="Helvetica,sans-Serif" font-size="10.00" fill="#000000">queue.h</text>
</a>
</g>
</g>
<!-- Node9&#45;&gt;Node34 -->
<g id="edge32" class="edge">
<title>Node9&#45;&gt;Node34</title>
<path fill="none" stroke="#191970" d="M1361.8182,-332.6541C1388.078,-322.4419 1423.6492,-308.6086 1447.0685,-299.5011"/>
<polygon fill="#191970" stroke="#191970" points="1360.306,-329.4867 1352.2545,-336.3733 1362.8431,-336.0108 1360.306,-329.4867"/>
</g>
<!-- Node40 -->
<g id="node29" class="node">
<title>Node40</title>
<g id="a_node29"><a xlink:href="spec_2schedule_8h.html" target="_top" xlink:title="ODP schedule. ">
<polygon fill="#ffffff" stroke="#000000" points="1538,-224.5 1538,-243.5 1607,-243.5 1607,-224.5 1538,-224.5"/>
<text text-anchor="middle" x="1572.5" y="-231.5" font-family="Helvetica,sans-Serif" font-size="10.00" fill="#000000">schedule.h</text>
</a>
</g>
</g>
<!-- Node9&#45;&gt;Node40 -->
<g id="edge51" class="edge">
<title>Node9&#45;&gt;Node40</title>
<path fill="none" stroke="#191970" d="M1374.2176,-340.839C1429.1479,-333.9486 1516.0701,-320.2177 1541.5,-300 1559.5348,-285.6617 1567.5948,-258.3521 1570.7475,-243.7619"/>
<polygon fill="#191970" stroke="#191970" points="1373.5219,-337.3979 1364.0207,-342.0858 1374.3716,-344.3461 1373.5219,-337.3979"/>
</g>
<!-- Node44 -->
<g id="node31" class="node">
<title>Node44</title>
<g id="a_node31"><a xlink:href="spec_2chksum_8h.html" target="_top" xlink:title="ODP checksum functions. ">
<polygon fill="#ffffff" stroke="#000000" points="1593.5,-280.5 1593.5,-299.5 1657.5,-299.5 1657.5,-280.5 1593.5,-280.5"/>
<text text-anchor="middle" x="1625.5" y="-287.5" font-family="Helvetica,sans-Serif" font-size="10.00" fill="#000000">chksum.h</text>
</a>
</g>
</g>
<!-- Node9&#45;&gt;Node44 -->
<g id="edge37" class="edge">
<title>Node9&#45;&gt;Node44</title>
<path fill="none" stroke="#191970" d="M1374.2936,-337.9417C1424.9574,-329.1041 1508.1013,-314.2731 1579.5,-300 1583.9879,-299.1028 1588.7135,-298.1197 1593.3581,-297.1311"/>
<polygon fill="#191970" stroke="#191970" points="1373.5513,-334.5182 1364.2993,-339.6807 1374.7513,-341.4145 1373.5513,-334.5182"/>
</g>
<!-- Node46 -->
<g id="node33" class="node">
<title>Node46</title>
<g id="a_node33"><a xlink:href="spec_2cpu_8h.html" target="_top" xlink:title="ODP CPU API. ">
<polygon fill="#ffffff" stroke="#000000" points="1676,-280.5 1676,-299.5 1719,-299.5 1719,-280.5 1676,-280.5"/>
<text text-anchor="middle" x="1697.5" y="-287.5" font-family="Helvetica,sans-Serif" font-size="10.00" fill="#000000">cpu.h</text>
</a>
</g>
</g>
<!-- Node9&#45;&gt;Node46 -->
<g id="edge39" class="edge">
<title>Node9&#45;&gt;Node46</title>
<path fill="none" stroke="#191970" d="M1374.0474,-342.3137C1439.8154,-336.5123 1563.4204,-323.4249 1666.5,-300 1669.5881,-299.2982 1672.8085,-298.425 1675.9557,-297.4888"/>
<polygon fill="#191970" stroke="#191970" points="1373.6618,-338.8339 1364.0007,-343.1827 1374.2651,-345.8079 1373.6618,-338.8339"/>
</g>
<!-- Node49 -->
<g id="node35" class="node">
<title>Node49</title>
<g id="a_node35"><a xlink:href="spec_2feature_8h.html" target="_top" xlink:title="ODP features. ">
<polygon fill="#ffffff" stroke="#000000" points="1776,-280.5 1776,-299.5 1837,-299.5 1837,-280.5 1776,-280.5"/>
<text text-anchor="middle" x="1806.5" y="-287.5" font-family="Helvetica,sans-Serif" font-size="10.00" fill="#000000">feature.h</text>
</a>
</g>
</g>
<!-- Node9&#45;&gt;Node49 -->
<g id="edge41" class="edge">
<title>Node9&#45;&gt;Node49</title>
<path fill="none" stroke="#191970" d="M1374.488,-342.7702C1454.369,-336.8892 1621.5952,-322.884 1761.5,-300 1766.0809,-299.2507 1770.896,-298.3276 1775.6039,-297.348"/>
<polygon fill="#191970" stroke="#191970" points="1373.987,-339.2973 1364.2672,-343.5133 1374.4947,-346.2789 1373.987,-339.2973"/>
</g>
<!-- Node51 -->
<g id="node37" class="node">
<title>Node51</title>
<g id="a_node37"><a xlink:href="spec_2init_8h.html" target="_top" xlink:title="init.h">
<polygon fill="#ffffff" stroke="#000000" points="1788,-168.5 1788,-187.5 1829,-187.5 1829,-168.5 1788,-168.5"/>
<text text-anchor="middle" x="1808.5" y="-175.5" font-family="Helvetica,sans-Serif" font-size="10.00" fill="#000000">init.h</text>
</a>
</g>
</g>
<!-- Node9&#45;&gt;Node51 -->
<g id="edge47" class="edge">
<title>Node9&#45;&gt;Node51</title>
<path fill="none" stroke="#191970" d="M1374.1714,-342.8459C1473.228,-335.8349 1697.887,-318.1393 1727.5,-300 1771.7269,-272.9091 1796.903,-211.5231 1805.306,-187.7028"/>
<polygon fill="#191970" stroke="#191970" points="1373.8714,-339.3582 1364.1409,-343.5496 1374.3614,-346.3411 1373.8714,-339.3582"/>
</g>
<!-- Node55 -->
<g id="node39" class="node">
<title>Node55</title>
<g id="a_node39"><a xlink:href="spec_2hash_8h.html" target="_top" xlink:title="ODP Hash functions. ">
<polygon fill="#ffffff" stroke="#000000" points="1855,-280.5 1855,-299.5 1904,-299.5 1904,-280.5 1855,-280.5"/>
<text text-anchor="middle" x="1879.5" y="-287.5" font-family="Helvetica,sans-Serif" font-size="10.00" fill="#000000">hash.h</text>
</a>
</g>
</g>
<!-- Node9&#45;&gt;Node55 -->
<g id="edge45" class="edge">
<title>Node9&#45;&gt;Node55</title>
<path fill="none" stroke="#191970" d="M1374.2993,-344.9323C1465.6554,-342.1699 1673.819,-332.5392 1845.5,-300 1848.5226,-299.4271 1851.6615,-298.6966 1854.7559,-297.8917"/>
<polygon fill="#191970" stroke="#191970" points="1374.1608,-341.4348 1364.2661,-345.222 1374.363,-348.4318 1374.1608,-341.4348"/>
</g>
<!-- Node57 -->
<g id="node41" class="node">
<title>Node57</title>
<g id="a_node41"><a xlink:href="spec_2pool_8h.html" target="_top" xlink:title="ODP pool. ">
<polygon fill="#ffffff" stroke="#000000" points="1922,-280.5 1922,-299.5 1969,-299.5 1969,-280.5 1922,-280.5"/>
<text text-anchor="middle" x="1945.5" y="-287.5" font-family="Helvetica,sans-Serif" font-size="10.00" fill="#000000">pool.h</text>
</a>
</g>
</g>
<!-- Node9&#45;&gt;Node57 -->
<g id="edge49" class="edge">
<title>Node9&#45;&gt;Node57</title>
<path fill="none" stroke="#191970" d="M1374.7223,-343.6045C1494.8106,-337.3013 1809.6115,-319.3986 1912.5,-300 1915.5591,-299.4232 1918.7369,-298.6682 1921.8592,-297.8311"/>
<polygon fill="#191970" stroke="#191970" points="1374.1965,-340.1271 1364.3924,-344.1432 1374.5612,-347.1176 1374.1965,-340.1271"/>
</g>
<!-- Node60 -->
<g id="node43" class="node">
<title>Node60</title>
<g id="a_node43"><a xlink:href="spec_2stash_8h.html" target="_top" xlink:title="ODP stash. ">
<polygon fill="#ffffff" stroke="#000000" points="1987.5,-280.5 1987.5,-299.5 2039.5,-299.5 2039.5,-280.5 1987.5,-280.5"/>
<text text-anchor="middle" x="2013.5" y="-287.5" font-family="Helvetica,sans-Serif" font-size="10.00" fill="#000000">stash.h</text>
</a>
</g>
</g>
<!-- Node9&#45;&gt;Node60 -->
<g id="edge52" class="edge">
<title>Node9&#45;&gt;Node60</title>
<path fill="none" stroke="#191970" d="M1374.6072,-343.9447C1503.8747,-338.1017 1862.2347,-320.4874 1978.5,-300 1981.3629,-299.4955 1984.327,-298.8495 1987.2635,-298.129"/>
<polygon fill="#191970" stroke="#191970" points="1374.0916,-340.4642 1364.2587,-344.4093 1374.4057,-347.4571 1374.0916,-340.4642"/>
</g>
<!-- Node62 -->
<g id="node45" class="node">
<title>Node62</title>
<g id="a_node45"><a xlink:href="spec_2threshold_8h.html" target="_top" xlink:title="ODP threshold descriptor. ">
<polygon fill="#ffffff" stroke="#ff0000" points="2058,-280.5 2058,-299.5 2129,-299.5 2129,-280.5 2058,-280.5"/>
<text text-anchor="middle" x="2093.5" y="-287.5" font-family="Helvetica,sans-Serif" font-size="10.00" fill="#000000">threshold.h</text>
</a>
</g>
</g>
<!-- Node9&#45;&gt;Node62 -->
<g id="edge54" class="edge">
<title>Node9&#45;&gt;Node62</title>
<path fill="none" stroke="#191970" d="M1374.3175,-345.519C1489.5513,-343.7921 1795.9177,-335.9013 2048.5,-300 2051.5109,-299.572 2054.6195,-299.0508 2057.7303,-298.4734"/>
<polygon fill="#191970" stroke="#191970" points="1374.041,-342.0225 1364.0915,-345.6634 1374.1399,-349.0218 1374.041,-342.0225"/>
</g>
<!-- Node64 -->
<g id="node46" class="node">
<title>Node64</title>
<g id="a_node46"><a xlink:href="spec_2thrmask_8h.html" target="_top" xlink:title="ODP thread masks. ">
<polygon fill="#ffffff" stroke="#ff0000" points="2147.5,-280.5 2147.5,-299.5 2213.5,-299.5 2213.5,-280.5 2147.5,-280.5"/>
<text text-anchor="middle" x="2180.5" y="-287.5" font-family="Helvetica,sans-Serif" font-size="10.00" fill="#000000">thrmask.h</text>
</a>
</g>
</g>
<!-- Node9&#45;&gt;Node64 -->
<g id="edge55" class="edge">
<title>Node9&#45;&gt;Node64</title>
<path fill="none" stroke="#191970" d="M1374.5589,-344.4275C1524.4303,-339.2469 1989.4543,-321.795 2138.5,-300 2141.3183,-299.5879 2144.2254,-299.0778 2147.1327,-298.5078"/>
<polygon fill="#191970" stroke="#191970" points="1374.1954,-340.9379 1364.3215,-344.7792 1374.4358,-347.9337 1374.1954,-340.9379"/>
</g>
<!-- Node66 -->
<g id="node47" class="node">
<title>Node66</title>
<g id="a_node47"><a xlink:href="system__info_8h.html" target="_top" xlink:title="ODP system information. ">
<polygon fill="#ffffff" stroke="#000000" points="2231.5,-280.5 2231.5,-299.5 2317.5,-299.5 2317.5,-280.5 2231.5,-280.5"/>
<text text-anchor="middle" x="2274.5" y="-287.5" font-family="Helvetica,sans-Serif" font-size="10.00" fill="#000000">system_info.h</text>
</a>
</g>
</g>
<!-- Node9&#45;&gt;Node66 -->
<g id="edge57" class="edge">
<title>Node9&#45;&gt;Node66</title>
<path fill="none" stroke="#191970" d="M1374.4673,-344.4477C1534.2153,-339.0328 2055.8487,-320.208 2222.5,-300 2225.4204,-299.6459 2228.4233,-299.224 2231.4422,-298.7569"/>
<polygon fill="#191970" stroke="#191970" points="1373.9138,-340.9643 1364.0375,-344.7995 1374.1499,-347.9603 1373.9138,-340.9643"/>
</g>
<!-- Node67 -->
<g id="node48" class="node">
<title>Node67</title>
<g id="a_node48"><a xlink:href="time_8h.html" target="_top" xlink:title="ODP time. ">
<polygon fill="#ffffff" stroke="#ff0000" points="1339.5,-280.5 1339.5,-299.5 1387.5,-299.5 1387.5,-280.5 1339.5,-280.5"/>
<text text-anchor="middle" x="1363.5" y="-287.5" font-family="Helvetica,sans-Serif" font-size="10.00" fill="#000000">time.h</text>
</a>
</g>
</g>
<!-- Node9&#45;&gt;Node67 -->
<g id="edge58" class="edge">
<title>Node9&#45;&gt;Node67</title>
<path fill="none" stroke="#191970" d="M1339.3096,-327.6296C1345.3144,-318.2887 1352.3659,-307.3197 1357.3011,-299.6427"/>
<polygon fill="#191970" stroke="#191970" points="1336.2342,-325.9411 1333.7707,-336.2455 1342.1225,-329.7264 1336.2342,-325.9411"/>
</g>
<!-- Node69 -->
<g id="node49" class="node">
<title>Node69</title>
<g id="a_node49"><a xlink:href="timer_8h.html" target="_top" xlink:title="ODP timer service. ">
<polygon fill="#ffffff" stroke="#000000" points="2336,-280.5 2336,-299.5 2387,-299.5 2387,-280.5 2336,-280.5"/>
<text text-anchor="middle" x="2361.5" y="-287.5" font-family="Helvetica,sans-Serif" font-size="10.00" fill="#000000">timer.h</text>
</a>
</g>
</g>
<!-- Node9&#45;&gt;Node69 -->
<g id="edge60" class="edge">
<title>Node9&#45;&gt;Node69</title>
<path fill="none" stroke="#191970" d="M1374.2254,-345.287C1545.6308,-342.4476 2139.5797,-330.5789 2326.5,-300 2329.4936,-299.5103 2332.595,-298.8526 2335.6587,-298.1073"/>
<polygon fill="#191970" stroke="#191970" points="1373.9639,-341.7907 1364.0224,-345.4535 1374.0783,-348.7898 1373.9639,-341.7907"/>
</g>
<!-- Node70 -->
<g id="node50" class="node">
<title>Node70</title>
<g id="a_node50"><a xlink:href="strong__types_8h.html" target="_top" xlink:title="ODP Strong Types. ">
<polygon fill="#ffffff" stroke="#000000" points="2405,-280.5 2405,-299.5 2494,-299.5 2494,-280.5 2405,-280.5"/>
<text text-anchor="middle" x="2449.5" y="-287.5" font-family="Helvetica,sans-Serif" font-size="10.00" fill="#000000">strong_types.h</text>
</a>
</g>
</g>
<!-- Node9&#45;&gt;Node70 -->
<g id="edge61" class="edge">
<title>Node9&#45;&gt;Node70</title>
<path fill="none" stroke="#191970" d="M1374.1392,-344.885C1552.833,-340.4745 2193.9646,-323.3426 2396.5,-300 2399.1976,-299.6891 2401.9642,-299.3203 2404.7495,-298.9107"/>
<polygon fill="#191970" stroke="#191970" points="1373.929,-341.389 1364.0179,-345.1334 1374.1008,-348.3869 1373.929,-341.389"/>
</g>
<!-- Node24 -->
<g id="node16" class="node">
<title>Node24</title>
<g id="a_node16"><a xlink:href="spec_2ipsec_8h.html" target="_top" xlink:title="ODP IPSEC API. ">
<polygon fill="#ffffff" stroke="#ff0000" points="1324,-.5 1324,-19.5 1375,-19.5 1375,-.5 1324,-.5"/>
<text text-anchor="middle" x="1349.5" y="-7.5" font-family="Helvetica,sans-Serif" font-size="10.00" fill="#000000">ipsec.h</text>
</a>
</g>
</g>
<!-- Node23&#45;&gt;Node24 -->
<g id="edge15" class="edge">
<title>Node23&#45;&gt;Node24</title>
<path fill="none" stroke="#191970" d="M1297.451,-49.928C1310.2107,-40.1397 1326.0885,-27.9595 1336.9301,-19.6427"/>
<polygon fill="#191970" stroke="#191970" points="1295.0196,-47.3819 1289.2156,-56.2455 1299.2803,-52.9359 1295.0196,-47.3819"/>
</g>
<!-- Node26&#45;&gt;Node24 -->
<g id="edge17" class="edge">
<title>Node26&#45;&gt;Node24</title>
<path fill="none" stroke="#191970" d="M1486.9513,-158.3881C1484.4452,-144.5507 1479.6126,-126.0509 1470.5,-112 1442.9922,-69.585 1392.5181,-35.4482 1366.3023,-19.6013"/>
<polygon fill="#191970" stroke="#191970" points="1483.4998,-158.9709 1488.4996,-168.3118 1490.4161,-157.8918 1483.4998,-158.9709"/>
</g>
<!-- Node28 -->
<g id="node19" class="node">
<title>Node28</title>
<g id="a_node19"><a xlink:href="spec_2comp_8h.html" target="_top" xlink:title="ODP Compression. ">
<polygon fill="#ffffff" stroke="#ff0000" points="1186,-224.5 1186,-243.5 1239,-243.5 1239,-224.5 1186,-224.5"/>
<text text-anchor="middle" x="1212.5" y="-231.5" font-family="Helvetica,sans-Serif" font-size="10.00" fill="#000000">comp.h</text>
</a>
</g>
</g>
<!-- Node27&#45;&gt;Node28 -->
<g id="edge19" class="edge">
<title>Node27&#45;&gt;Node28</title>
<path fill="none" stroke="#191970" d="M1269.2244,-274.2097C1255.3495,-264.3743 1237.9485,-252.0394 1226.1031,-243.6427"/>
<polygon fill="#191970" stroke="#191970" points="1267.5569,-277.3178 1277.7393,-280.2455 1271.6051,-271.6071 1267.5569,-277.3178"/>
</g>
<!-- Node30 -->
<g id="node20" class="node">
<title>Node30</title>
<g id="a_node20"><a xlink:href="spec_2crypto_8h.html" target="_top" xlink:title="ODP crypto. ">
<polygon fill="#ffffff" stroke="#000000" points="1257.5,-224.5 1257.5,-243.5 1313.5,-243.5 1313.5,-224.5 1257.5,-224.5"/>
<text text-anchor="middle" x="1285.5" y="-231.5" font-family="Helvetica,sans-Serif" font-size="10.00" fill="#000000">crypto.h</text>
</a>
</g>
</g>
<!-- Node27&#45;&gt;Node30 -->
<g id="edge20" class="edge">
<title>Node27&#45;&gt;Node30</title>
<path fill="none" stroke="#191970" d="M1289.374,-270.1575C1288.4095,-261.155 1287.3128,-250.9199 1286.5331,-243.6427"/>
<polygon fill="#191970" stroke="#191970" points="1285.9094,-270.6753 1290.4549,-280.2455 1292.8695,-269.9296 1285.9094,-270.6753"/>
</g>
<!-- Node31 -->
<g id="node21" class="node">
<title>Node31</title>
<g id="a_node21"><a xlink:href="spec_2event_8h.html" target="_top" xlink:title="ODP event. ">
<polygon fill="#ffffff" stroke="#ff0000" points="1115,-224.5 1115,-243.5 1168,-243.5 1168,-224.5 1115,-224.5"/>
<text text-anchor="middle" x="1141.5" y="-231.5" font-family="Helvetica,sans-Serif" font-size="10.00" fill="#000000">event.h</text>
</a>
</g>
</g>
<!-- Node27&#45;&gt;Node31 -->
<g id="edge22" class="edge">
<title>Node27&#45;&gt;Node31</title>
<path fill="none" stroke="#191970" d="M1256.1129,-276.7888C1228.7247,-266.5639 1191.4521,-252.6488 1166.9494,-243.5011"/>
<polygon fill="#191970" stroke="#191970" points="1255.1215,-280.1546 1265.7141,-280.3733 1257.5698,-273.5967 1255.1215,-280.1546"/>
</g>
<!-- Node27&#45;&gt;Node42 -->
<g id="edge23" class="edge">
<title>Node27&#45;&gt;Node42</title>
<path fill="none" stroke="#191970" d="M1251.8436,-280.6691C1208.0645,-270.3681 1137.9668,-253.8745 1093.8945,-243.5046"/>
<polygon fill="#191970" stroke="#191970" points="1251.3025,-284.1373 1261.8384,-283.0208 1252.9058,-277.3234 1251.3025,-284.1373"/>
</g>
<!-- Node35 -->
<g id="node24" class="node">
<title>Node35</title>
<g id="a_node24"><a xlink:href="spec_2packet__io_8h.html" target="_top" xlink:title="ODP Packet IO. ">
<polygon fill="#ffffff" stroke="#000000" points="1332,-224.5 1332,-243.5 1405,-243.5 1405,-224.5 1332,-224.5"/>
<text text-anchor="middle" x="1368.5" y="-231.5" font-family="Helvetica,sans-Serif" font-size="10.00" fill="#000000">packet_io.h</text>
</a>
</g>
</g>
<!-- Node27&#45;&gt;Node35 -->
<g id="edge25" class="edge">
<title>Node27&#45;&gt;Node35</title>
<path fill="none" stroke="#191970" d="M1313.2116,-274.2097C1326.7353,-264.3743 1343.6958,-252.0394 1355.2413,-243.6427"/>
<polygon fill="#191970" stroke="#191970" points="1310.9411,-271.5332 1304.9124,-280.2455 1315.0584,-277.1944 1310.9411,-271.5332"/>
</g>
<!-- Node30&#45;&gt;Node26 -->
<g id="edge21" class="edge">
<title>Node30&#45;&gt;Node26</title>
<path fill="none" stroke="#191970" d="M1323.5331,-223.5596C1363.5406,-212.5771 1425.5628,-195.5514 1461.3756,-185.7204"/>
<polygon fill="#191970" stroke="#191970" points="1322.5821,-220.1911 1313.8653,-226.2134 1324.4351,-226.9413 1322.5821,-220.1911"/>
</g>
<!-- Node43 -->
<g id="node23" class="node">
<title>Node43</title>
<g id="a_node23"><a xlink:href="packet__flags_8h.html" target="_top" xlink:title="ODP packet flags. ">
<polygon fill="#ffffff" stroke="#000000" points="1010,-168.5 1010,-187.5 1097,-187.5 1097,-168.5 1010,-168.5"/>
<text text-anchor="middle" x="1053.5" y="-175.5" font-family="Helvetica,sans-Serif" font-size="10.00" fill="#000000">packet_flags.h</text>
</a>
</g>
</g>
<!-- Node42&#45;&gt;Node43 -->
<g id="edge24" class="edge">
<title>Node42&#45;&gt;Node43</title>
<path fill="none" stroke="#191970" d="M1053.5,-214.1575C1053.5,-205.155 1053.5,-194.9199 1053.5,-187.6427"/>
<polygon fill="#191970" stroke="#191970" points="1050.0001,-214.2455 1053.5,-224.2455 1057.0001,-214.2456 1050.0001,-214.2455"/>
</g>
<!-- Node35&#45;&gt;Node36 -->
<g id="edge26" class="edge">
<title>Node35&#45;&gt;Node36</title>
<path fill="none" stroke="#191970" d="M1361.9685,-214.7493C1358.8664,-205.6064 1355.2949,-195.0798 1352.7716,-187.6427"/>
<polygon fill="#191970" stroke="#191970" points="1358.663,-215.9003 1365.1905,-224.2455 1365.2918,-213.6512 1358.663,-215.9003"/>
</g>
<!-- Node36&#45;&gt;Node24 -->
<g id="edge29" class="edge">
<title>Node36&#45;&gt;Node24</title>
<path fill="none" stroke="#191970" d="M1349.5,-158.2601C1349.5,-122.1669 1349.5,-46.7656 1349.5,-19.8279"/>
<polygon fill="#191970" stroke="#191970" points="1346.0001,-158.4862 1349.5,-168.4862 1353.0001,-158.4863 1346.0001,-158.4862"/>
</g>
<!-- Node37 -->
<g id="node26" class="node">
<title>Node37</title>
<g id="a_node26"><a xlink:href="spec_2classification_8h.html" target="_top" xlink:title="ODP classification descriptor. ">
<polygon fill="#ffffff" stroke="#000000" points="1232,-112.5 1232,-131.5 1321,-131.5 1321,-112.5 1232,-112.5"/>
<text text-anchor="middle" x="1276.5" y="-119.5" font-family="Helvetica,sans-Serif" font-size="10.00" fill="#000000">classification.h</text>
</a>
</g>
</g>
<!-- Node36&#45;&gt;Node37 -->
<g id="edge27" class="edge">
<title>Node36&#45;&gt;Node37</title>
<path fill="none" stroke="#191970" d="M1328.549,-161.928C1315.7893,-152.1397 1299.9115,-139.9595 1289.0699,-131.6427"/>
<polygon fill="#191970" stroke="#191970" points="1326.7197,-164.9359 1336.7844,-168.2455 1330.9804,-159.3819 1326.7197,-164.9359"/>
</g>
<!-- Node36&#45;&gt;Node38 -->
<g id="edge30" class="edge">
<title>Node36&#45;&gt;Node38</title>
<path fill="none" stroke="#191970" d="M1369.59,-161.928C1381.8253,-152.1397 1397.0507,-139.9595 1407.4467,-131.6427"/>
<polygon fill="#191970" stroke="#191970" points="1367.3153,-159.2655 1361.6931,-168.2455 1371.6882,-164.7316 1367.3153,-159.2655"/>
</g>
<!-- Node37&#45;&gt;Node23 -->
<g id="edge28" class="edge">
<title>Node37&#45;&gt;Node23</title>
<path fill="none" stroke="#191970" d="M1276.5,-102.1575C1276.5,-93.155 1276.5,-82.9199 1276.5,-75.6427"/>
<polygon fill="#191970" stroke="#191970" points="1273.0001,-102.2455 1276.5,-112.2455 1280.0001,-102.2456 1273.0001,-102.2455"/>
</g>
<!-- Node34&#45;&gt;Node26 -->
<g id="edge33" class="edge">
<title>Node34&#45;&gt;Node26</title>
<path fill="none" stroke="#191970" d="M1474.6709,-270.2702C1478.5717,-245.9985 1485.0366,-205.7725 1487.9692,-187.5249"/>
<polygon fill="#191970" stroke="#191970" points="1471.1659,-270.0222 1473.0347,-280.4509 1478.0772,-271.133 1471.1659,-270.0222"/>
</g>
<!-- Node34&#45;&gt;Node35 -->
<g id="edge34" class="edge">
<title>Node34&#45;&gt;Node35</title>
<path fill="none" stroke="#191970" d="M1444.7568,-275.46C1426.325,-265.4388 1402.3416,-252.3993 1386.2356,-243.6427"/>
<polygon fill="#191970" stroke="#191970" points="1443.1015,-278.5438 1453.5588,-280.2455 1446.4451,-272.394 1443.1015,-278.5438"/>
</g>
<!-- Node34&#45;&gt;Node40 -->
<g id="edge35" class="edge">
<title>Node34&#45;&gt;Node40</title>
<path fill="none" stroke="#191970" d="M1497.9719,-275.3225C1516.0125,-265.3198 1539.3877,-252.3593 1555.1087,-243.6427"/>
<polygon fill="#191970" stroke="#191970" points="1496.1413,-272.3354 1489.0929,-280.2455 1499.5357,-278.4574 1496.1413,-272.3354"/>
</g>
<!-- Node41 -->
<g id="node30" class="node">
<title>Node41</title>
<g id="a_node30"><a xlink:href="schedule_8h.html" target="_top" xlink:title="ODP schedule. ">
<polygon fill="#ffffff" stroke="#000000" points="1538,-168.5 1538,-187.5 1607,-187.5 1607,-168.5 1538,-168.5"/>
<text text-anchor="middle" x="1572.5" y="-175.5" font-family="Helvetica,sans-Serif" font-size="10.00" fill="#000000">schedule.h</text>
</a>
</g>
</g>
<!-- Node40&#45;&gt;Node41 -->
<g id="edge36" class="edge">
<title>Node40&#45;&gt;Node41</title>
<path fill="none" stroke="#191970" d="M1572.5,-214.1575C1572.5,-205.155 1572.5,-194.9199 1572.5,-187.6427"/>
<polygon fill="#191970" stroke="#191970" points="1569.0001,-214.2455 1572.5,-224.2455 1576.0001,-214.2456 1569.0001,-214.2455"/>
</g>
<!-- Node45 -->
<g id="node32" class="node">
<title>Node45</title>
<g id="a_node32"><a xlink:href="chksum_8h.html" target="_top" xlink:title="ODP checksum functions. ">
<polygon fill="#ffffff" stroke="#000000" points="1625.5,-224.5 1625.5,-243.5 1689.5,-243.5 1689.5,-224.5 1625.5,-224.5"/>
<text text-anchor="middle" x="1657.5" y="-231.5" font-family="Helvetica,sans-Serif" font-size="10.00" fill="#000000">chksum.h</text>
</a>
</g>
</g>
<!-- Node44&#45;&gt;Node45 -->
<g id="edge38" class="edge">
<title>Node44&#45;&gt;Node45</title>
<path fill="none" stroke="#191970" d="M1636.1645,-271.3372C1641.4654,-262.0605 1647.6487,-251.2398 1651.9899,-243.6427"/>
<polygon fill="#191970" stroke="#191970" points="1632.9966,-269.8266 1631.074,-280.2455 1639.0743,-273.2996 1632.9966,-269.8266"/>
</g>
<!-- Node47 -->
<g id="node34" class="node">
<title>Node47</title>
<g id="a_node34"><a xlink:href="cpu_8h.html" target="_top" xlink:title="ODP CPU. ">
<polygon fill="#ffffff" stroke="#ff0000" points="1708,-224.5 1708,-243.5 1751,-243.5 1751,-224.5 1708,-224.5"/>
<text text-anchor="middle" x="1729.5" y="-231.5" font-family="Helvetica,sans-Serif" font-size="10.00" fill="#000000">cpu.h</text>
</a>
</g>
</g>
<!-- Node46&#45;&gt;Node47 -->
<g id="edge40" class="edge">
<title>Node46&#45;&gt;Node47</title>
<path fill="none" stroke="#191970" d="M1708.1645,-271.3372C1713.4654,-262.0605 1719.6487,-251.2398 1723.9899,-243.6427"/>
<polygon fill="#191970" stroke="#191970" points="1704.9966,-269.8266 1703.074,-280.2455 1711.0743,-273.2996 1704.9966,-269.8266"/>
</g>
<!-- Node50 -->
<g id="node36" class="node">
<title>Node50</title>
<g id="a_node36"><a xlink:href="feature_8h.html" target="_top" xlink:title="ODP features. ">
<polygon fill="#ffffff" stroke="#000000" points="1808,-224.5 1808,-243.5 1869,-243.5 1869,-224.5 1808,-224.5"/>
<text text-anchor="middle" x="1838.5" y="-231.5" font-family="Helvetica,sans-Serif" font-size="10.00" fill="#000000">feature.h</text>
</a>
</g>
</g>
<!-- Node49&#45;&gt;Node50 -->
<g id="edge42" class="edge">
<title>Node49&#45;&gt;Node50</title>
<path fill="none" stroke="#191970" d="M1817.1645,-271.3372C1822.4654,-262.0605 1828.6487,-251.2398 1832.9899,-243.6427"/>
<polygon fill="#191970" stroke="#191970" points="1813.9966,-269.8266 1812.074,-280.2455 1820.0743,-273.2996 1813.9966,-269.8266"/>
</g>
<!-- Node50&#45;&gt;Node51 -->
<g id="edge43" class="edge">
<title>Node50&#45;&gt;Node51</title>
<path fill="none" stroke="#191970" d="M1828.502,-215.3372C1823.5324,-206.0605 1817.7356,-195.2398 1813.6657,-187.6427"/>
<polygon fill="#191970" stroke="#191970" points="1825.4669,-217.0835 1833.2744,-224.2455 1831.6373,-213.7779 1825.4669,-217.0835"/>
</g>
<!-- Node52 -->
<g id="node38" class="node">
<title>Node52</title>
<g id="a_node38"><a xlink:href="init_8h.html" target="_top" xlink:title="ODP initialization. ">
<polygon fill="#ffffff" stroke="#ff0000" points="1788,-112.5 1788,-131.5 1829,-131.5 1829,-112.5 1788,-112.5"/>
<text text-anchor="middle" x="1808.5" y="-119.5" font-family="Helvetica,sans-Serif" font-size="10.00" fill="#000000">init.h</text>
</a>
</g>
</g>
<!-- Node51&#45;&gt;Node52 -->
<g id="edge44" class="edge">
<title>Node51&#45;&gt;Node52</title>
<path fill="none" stroke="#191970" d="M1808.5,-158.1575C1808.5,-149.155 1808.5,-138.9199 1808.5,-131.6427"/>
<polygon fill="#191970" stroke="#191970" points="1805.0001,-158.2455 1808.5,-168.2455 1812.0001,-158.2456 1805.0001,-158.2455"/>
</g>
<!-- Node56 -->
<g id="node40" class="node">
<title>Node56</title>
<g id="a_node40"><a xlink:href="hash_8h.html" target="_top" xlink:title="ODP Hash function. ">
<polygon fill="#ffffff" stroke="#000000" points="1887,-224.5 1887,-243.5 1936,-243.5 1936,-224.5 1887,-224.5"/>
<text text-anchor="middle" x="1911.5" y="-231.5" font-family="Helvetica,sans-Serif" font-size="10.00" fill="#000000">hash.h</text>
</a>
</g>
</g>
<!-- Node55&#45;&gt;Node56 -->
<g id="edge46" class="edge">
<title>Node55&#45;&gt;Node56</title>
<path fill="none" stroke="#191970" d="M1890.1645,-271.3372C1895.4654,-262.0605 1901.6487,-251.2398 1905.9899,-243.6427"/>
<polygon fill="#191970" stroke="#191970" points="1886.9966,-269.8266 1885.074,-280.2455 1893.0743,-273.2996 1886.9966,-269.8266"/>
</g>
<!-- Node58 -->
<g id="node42" class="node">
<title>Node58</title>
<g id="a_node42"><a xlink:href="pool_8h.html" target="_top" xlink:title="ODP pool. ">
<polygon fill="#ffffff" stroke="#ff0000" points="1954,-224.5 1954,-243.5 2001,-243.5 2001,-224.5 1954,-224.5"/>
<text text-anchor="middle" x="1977.5" y="-231.5" font-family="Helvetica,sans-Serif" font-size="10.00" fill="#000000">pool.h</text>
</a>
</g>
</g>
<!-- Node57&#45;&gt;Node58 -->
<g id="edge50" class="edge">
<title>Node57&#45;&gt;Node58</title>
<path fill="none" stroke="#191970" d="M1956.1645,-271.3372C1961.4654,-262.0605 1967.6487,-251.2398 1971.9899,-243.6427"/>
<polygon fill="#191970" stroke="#191970" points="1952.9966,-269.8266 1951.074,-280.2455 1959.0743,-273.2996 1952.9966,-269.8266"/>
</g>
<!-- Node61 -->
<g id="node44" class="node">
<title>Node61</title>
<g id="a_node44"><a xlink:href="stash_8h.html" target="_top" xlink:title="ODP stash. ">
<polygon fill="#ffffff" stroke="#000000" points="2019.5,-224.5 2019.5,-243.5 2071.5,-243.5 2071.5,-224.5 2019.5,-224.5"/>
<text text-anchor="middle" x="2045.5" y="-231.5" font-family="Helvetica,sans-Serif" font-size="10.00" fill="#000000">stash.h</text>
</a>
</g>
</g>
<!-- Node60&#45;&gt;Node61 -->
<g id="edge53" class="edge">
<title>Node60&#45;&gt;Node61</title>
<path fill="none" stroke="#191970" d="M2024.1645,-271.3372C2029.4654,-262.0605 2035.6487,-251.2398 2039.9899,-243.6427"/>
<polygon fill="#191970" stroke="#191970" points="2020.9966,-269.8266 2019.074,-280.2455 2027.0743,-273.2996 2020.9966,-269.8266"/>
</g>
<!-- Node67&#45;&gt;Node35 -->
<g id="edge59" class="edge">
<title>Node67&#45;&gt;Node35</title>
<path fill="none" stroke="#191970" d="M1365.2717,-270.1575C1366.0754,-261.155 1366.9893,-250.9199 1367.639,-243.6427"/>
<polygon fill="#191970" stroke="#191970" points="1361.7742,-269.9739 1364.3709,-280.2455 1368.7465,-270.5965 1361.7742,-269.9739"/>
</g>
</g>
</svg>
