<?xml version="1.0" encoding="UTF-8" standalone="no"?>
<!DOCTYPE svg PUBLIC "-//W3C//DTD SVG 1.1//EN"
 "http://www.w3.org/Graphics/SVG/1.1/DTD/svg11.dtd">
<!-- Generated by graphviz version 2.40.1 (20161225.0304)
 -->
<!-- Title: odp_ipsec_config_t Pages: 1 -->
<svg width="337pt" height="173pt"
 viewBox="0.00 0.00 337.00 173.00" xmlns="http://www.w3.org/2000/svg" xmlns:xlink="http://www.w3.org/1999/xlink">
<g id="graph0" class="graph" transform="scale(1 1) rotate(0) translate(4 169)">
<title>odp_ipsec_config_t</title>
<polygon fill="#ffffff" stroke="transparent" points="-4,4 -4,-169 333,-169 333,4 -4,4"/>
<!-- Node1 -->
<g id="node1" class="node">
<title>Node1</title>
<polygon fill="#bfbfbf" stroke="#000000" points="39.5,-.5 39.5,-19.5 148.5,-19.5 148.5,-.5 39.5,-.5"/>
<text text-anchor="middle" x="94" y="-7.5" font-family="Helvetica,sans-Serif" font-size="10.00" fill="#000000">odp_ipsec_config_t</text>
</g>
<!-- Node2 -->
<g id="node2" class="node">
<title>Node2</title>
<g id="a_node2"><a xlink:href="structodp__ipsec__outbound__config__t.html" target="_top" xlink:title="Configuration options for IPSEC outbound processing. ">
<polygon fill="#ffffff" stroke="#000000" points="0,-67.5 0,-97.5 116,-97.5 116,-67.5 0,-67.5"/>
<text text-anchor="start" x="8" y="-85.5" font-family="Helvetica,sans-Serif" font-size="10.00" fill="#000000">odp_ipsec_outbound</text>
<text text-anchor="middle" x="58" y="-74.5" font-family="Helvetica,sans-Serif" font-size="10.00" fill="#000000">_config_t</text>
</a>
</g>
</g>
<!-- Node2&#45;&gt;Node1 -->
<g id="edge1" class="edge">
<title>Node2&#45;&gt;Node1</title>
<path fill="none" stroke="#9a32cd" stroke-dasharray="5,2" d="M69.9378,-58.4585C76.4592,-45.3252 84.1825,-29.7713 89.0863,-19.8957"/>
<polygon fill="#9a32cd" stroke="#9a32cd" points="66.7719,-56.9647 65.4592,-67.478 73.0415,-60.078 66.7719,-56.9647"/>
<text text-anchor="middle" x="104.5" y="-41" font-family="Helvetica,sans-Serif" font-size="10.00" fill="#000000"> outbound</text>
</g>
<!-- Node3 -->
<g id="node3" class="node">
<title>Node3</title>
<g id="a_node3"><a xlink:href="structodp__ipsec__inbound__config__t.html" target="_top" xlink:title="Configuration options for IPSEC inbound processing. ">
<polygon fill="#ffffff" stroke="#000000" points="134.5,-73 134.5,-92 287.5,-92 287.5,-73 134.5,-73"/>
<text text-anchor="middle" x="211" y="-80" font-family="Helvetica,sans-Serif" font-size="10.00" fill="#000000">odp_ipsec_inbound_config_t</text>
</a>
</g>
</g>
<!-- Node3&#45;&gt;Node1 -->
<g id="edge2" class="edge">
<title>Node3&#45;&gt;Node1</title>
<path fill="none" stroke="#9a32cd" stroke-dasharray="5,2" d="M186.6255,-67.3961C163.4308,-53.0233 129.2309,-31.8311 109.5291,-19.6228"/>
<polygon fill="#9a32cd" stroke="#9a32cd" points="184.8769,-70.4301 195.2209,-72.7223 188.5641,-64.4799 184.8769,-70.4301"/>
<text text-anchor="middle" x="178.5" y="-41" font-family="Helvetica,sans-Serif" font-size="10.00" fill="#000000"> inbound</text>
</g>
<!-- Node4 -->
<g id="node4" class="node">
<title>Node4</title>
<g id="a_node4"><a xlink:href="unionodp__proto__chksums__t.html" target="_top" xlink:title="Flags to control packet data checksum checking. ">
<polygon fill="#ffffff" stroke="#000000" points="83.5,-145.5 83.5,-164.5 206.5,-164.5 206.5,-145.5 83.5,-145.5"/>
<text text-anchor="middle" x="145" y="-152.5" font-family="Helvetica,sans-Serif" font-size="10.00" fill="#000000">odp_proto_chksums_t</text>
</a>
</g>
</g>
<!-- Node4&#45;&gt;Node3 -->
<g id="edge3" class="edge">
<title>Node4&#45;&gt;Node3</title>
<path fill="none" stroke="#9a32cd" stroke-dasharray="5,2" d="M160.8843,-137.5513C173.8596,-123.2982 191.7163,-103.6829 202.24,-92.1228"/>
<polygon fill="#9a32cd" stroke="#9a32cd" points="158.0447,-135.4714 153.9011,-145.2223 163.2211,-140.1837 158.0447,-135.4714"/>
<text text-anchor="middle" x="203.5" y="-119" font-family="Helvetica,sans-Serif" font-size="10.00" fill="#000000"> chksums</text>
</g>
<!-- Node5 -->
<g id="node5" class="node">
<title>Node5</title>
<g id="a_node5"><a xlink:href="struct__odp__abi__queue__t.html" target="_top" xlink:title="_odp_abi_queue_t">
<polygon fill="#ffffff" stroke="#000000" points="225,-145.5 225,-164.5 329,-164.5 329,-145.5 225,-145.5"/>
<text text-anchor="middle" x="277" y="-152.5" font-family="Helvetica,sans-Serif" font-size="10.00" fill="#000000">_odp_abi_queue_t</text>
</a>
</g>
</g>
<!-- Node5&#45;&gt;Node3 -->
<g id="edge4" class="edge">
<title>Node5&#45;&gt;Node3</title>
<path fill="none" stroke="#9a32cd" stroke-dasharray="5,2" d="M261.1157,-137.5513C248.1404,-123.2982 230.2837,-103.6829 219.76,-92.1228"/>
<polygon fill="#9a32cd" stroke="#9a32cd" points="258.7789,-140.1837 268.0989,-145.2223 263.9553,-135.4714 258.7789,-140.1837"/>
<text text-anchor="middle" x="285.5" y="-119" font-family="Helvetica,sans-Serif" font-size="10.00" fill="#000000"> default_queue</text>
</g>
</g>
</svg>
