<?xml version="1.0" encoding="UTF-8" standalone="no"?>
<!DOCTYPE svg PUBLIC "-//W3C//DTD SVG 1.1//EN"
 "http://www.w3.org/Graphics/SVG/1.1/DTD/svg11.dtd">
<!-- Generated by graphviz version 2.40.1 (20161225.0304)
 -->
<!-- Title: odp_pktio_config_t Pages: 1 -->
<svg width="454pt" height="95pt"
 viewBox="0.00 0.00 454.00 95.00" xmlns="http://www.w3.org/2000/svg" xmlns:xlink="http://www.w3.org/1999/xlink">
<g id="graph0" class="graph" transform="scale(1 1) rotate(0) translate(4 91)">
<title>odp_pktio_config_t</title>
<polygon fill="#ffffff" stroke="transparent" points="-4,4 -4,-91 450,-91 450,4 -4,4"/>
<!-- Node1 -->
<g id="node1" class="node">
<title>Node1</title>
<polygon fill="#bfbfbf" stroke="#000000" points="173,-.5 173,-19.5 281,-19.5 281,-.5 173,-.5"/>
<text text-anchor="middle" x="227" y="-7.5" font-family="Helvetica,sans-Serif" font-size="10.00" fill="#000000">odp_pktio_config_t</text>
</g>
<!-- Node2 -->
<g id="node2" class="node">
<title>Node2</title>
<g id="a_node2"><a xlink:href="structodp__pktio__parser__config__t.html" target="_top" xlink:title="Parser configuration. ">
<polygon fill="#ffffff" stroke="#000000" points="0,-67.5 0,-86.5 144,-86.5 144,-67.5 0,-67.5"/>
<text text-anchor="middle" x="72" y="-74.5" font-family="Helvetica,sans-Serif" font-size="10.00" fill="#000000">odp_pktio_parser_config_t</text>
</a>
</g>
</g>
<!-- Node2&#45;&gt;Node1 -->
<g id="edge1" class="edge">
<title>Node2&#45;&gt;Node1</title>
<path fill="none" stroke="#9a32cd" stroke-dasharray="5,2" d="M103.4353,-63.4118C133.5615,-50.3895 178.2642,-31.0664 204.8335,-19.5817"/>
<polygon fill="#9a32cd" stroke="#9a32cd" points="101.9981,-60.22 94.2077,-67.4005 104.7756,-66.6454 101.9981,-60.22"/>
<text text-anchor="middle" x="176" y="-41" font-family="Helvetica,sans-Serif" font-size="10.00" fill="#000000"> parser</text>
</g>
<!-- Node3 -->
<g id="node3" class="node">
<title>Node3</title>
<g id="a_node3"><a xlink:href="unionodp__pktin__config__opt__t.html" target="_top" xlink:title="Packet input configuration options bit field. ">
<polygon fill="#ffffff" stroke="#000000" points="162.5,-67.5 162.5,-86.5 291.5,-86.5 291.5,-67.5 162.5,-67.5"/>
<text text-anchor="middle" x="227" y="-74.5" font-family="Helvetica,sans-Serif" font-size="10.00" fill="#000000">odp_pktin_config_opt_t</text>
</a>
</g>
</g>
<!-- Node3&#45;&gt;Node1 -->
<g id="edge2" class="edge">
<title>Node3&#45;&gt;Node1</title>
<path fill="none" stroke="#9a32cd" stroke-dasharray="5,2" d="M227,-57.1079C227,-44.714 227,-29.3263 227,-19.5817"/>
<polygon fill="#9a32cd" stroke="#9a32cd" points="223.5001,-57.4005 227,-67.4005 230.5001,-57.4006 223.5001,-57.4005"/>
<text text-anchor="middle" x="241" y="-41" font-family="Helvetica,sans-Serif" font-size="10.00" fill="#000000"> pktin</text>
</g>
<!-- Node4 -->
<g id="node4" class="node">
<title>Node4</title>
<g id="a_node4"><a xlink:href="unionodp__pktout__config__opt__t.html" target="_top" xlink:title="Packet output configuration options bit field. ">
<polygon fill="#ffffff" stroke="#000000" points="310,-67.5 310,-86.5 446,-86.5 446,-67.5 310,-67.5"/>
<text text-anchor="middle" x="378" y="-74.5" font-family="Helvetica,sans-Serif" font-size="10.00" fill="#000000">odp_pktout_config_opt_t</text>
</a>
</g>
</g>
<!-- Node4&#45;&gt;Node1 -->
<g id="edge3" class="edge">
<title>Node4&#45;&gt;Node1</title>
<path fill="none" stroke="#9a32cd" stroke-dasharray="5,2" d="M346.994,-63.2424C317.6505,-50.2224 274.366,-31.0167 248.5945,-19.5817"/>
<polygon fill="#9a32cd" stroke="#9a32cd" points="345.8052,-66.5439 356.3654,-67.4005 348.6443,-60.1455 345.8052,-66.5439"/>
<text text-anchor="middle" x="328.5" y="-41" font-family="Helvetica,sans-Serif" font-size="10.00" fill="#000000"> pktout</text>
</g>
</g>
</svg>
