<?xml version="1.0" encoding="UTF-8" standalone="no"?>
<!DOCTYPE svg PUBLIC "-//W3C//DTD SVG 1.1//EN"
 "http://www.w3.org/Graphics/SVG/1.1/DTD/svg11.dtd">
<!-- Generated by graphviz version 2.40.1 (20161225.0304)
 -->
<!-- Title: odp_ipsec_capability_t Pages: 1 -->
<svg width="385pt" height="142pt"
 viewBox="0.00 0.00 385.00 142.00" xmlns="http://www.w3.org/2000/svg" xmlns:xlink="http://www.w3.org/1999/xlink">
<g id="graph0" class="graph" transform="scale(1 1) rotate(0) translate(4 138)">
<title>odp_ipsec_capability_t</title>
<polygon fill="#ffffff" stroke="transparent" points="-4,4 -4,-138 381,-138 381,4 -4,4"/>
<!-- Node1 -->
<g id="node1" class="node">
<title>Node1</title>
<polygon fill="#bfbfbf" stroke="#000000" points="249,-57.5 249,-76.5 377,-76.5 377,-57.5 249,-57.5"/>
<text text-anchor="middle" x="313" y="-64.5" font-family="Helvetica,sans-Serif" font-size="10.00" fill="#000000">odp_ipsec_capability_t</text>
</g>
<!-- Node2 -->
<g id="node2" class="node">
<title>Node2</title>
<g id="a_node2"><a xlink:href="unionodp__proto__chksums__t.html" target="_top" xlink:title="Flags to control packet data checksum checking. ">
<polygon fill="#ffffff" stroke="#000000" points="14.5,-114.5 14.5,-133.5 137.5,-133.5 137.5,-114.5 14.5,-114.5"/>
<text text-anchor="middle" x="76" y="-121.5" font-family="Helvetica,sans-Serif" font-size="10.00" fill="#000000">odp_proto_chksums_t</text>
</a>
</g>
</g>
<!-- Node2&#45;&gt;Node1 -->
<g id="edge1" class="edge">
<title>Node2&#45;&gt;Node1</title>
<path fill="none" stroke="#9a32cd" stroke-dasharray="5,2" d="M141.2223,-112.6016C169.0443,-107.3153 201.7703,-100.5328 231,-93 249.3668,-88.2667 269.6913,-81.8309 285.5107,-76.5467"/>
<polygon fill="#9a32cd" stroke="#9a32cd" points="140.3927,-109.1961 131.2096,-114.4802 141.6835,-116.0761 140.3927,-109.1961"/>
<text text-anchor="middle" x="200.5" y="-109" font-family="Helvetica,sans-Serif" font-size="10.00" fill="#000000"> chksums_in</text>
</g>
<!-- Node3 -->
<g id="node3" class="node">
<title>Node3</title>
<g id="a_node3"><a xlink:href="unionodp__crypto__cipher__algos__t.html" target="_top" xlink:title="Cipher algorithms in a bit field structure. ">
<polygon fill="#ffffff" stroke="#000000" points="3,-76.5 3,-95.5 149,-95.5 149,-76.5 3,-76.5"/>
<text text-anchor="middle" x="76" y="-83.5" font-family="Helvetica,sans-Serif" font-size="10.00" fill="#000000">odp_crypto_cipher_algos_t</text>
</a>
</g>
</g>
<!-- Node3&#45;&gt;Node1 -->
<g id="edge2" class="edge">
<title>Node3&#45;&gt;Node1</title>
<path fill="none" stroke="#9a32cd" stroke-dasharray="5,2" d="M159.2703,-79.3243C188.5995,-76.973 221.0959,-74.3678 248.6275,-72.1607"/>
<polygon fill="#9a32cd" stroke="#9a32cd" points="158.73,-75.8563 149.0417,-80.1443 159.2894,-82.8339 158.73,-75.8563"/>
<text text-anchor="middle" x="200.5" y="-81" font-family="Helvetica,sans-Serif" font-size="10.00" fill="#000000"> ciphers</text>
</g>
<!-- Node4 -->
<g id="node4" class="node">
<title>Node4</title>
<g id="a_node4"><a xlink:href="unionodp__crypto__auth__algos__t.html" target="_top" xlink:title="Authentication algorithms in a bit field structure. ">
<polygon fill="#ffffff" stroke="#000000" points="7,-38.5 7,-57.5 145,-57.5 145,-38.5 7,-38.5"/>
<text text-anchor="middle" x="76" y="-45.5" font-family="Helvetica,sans-Serif" font-size="10.00" fill="#000000">odp_crypto_auth_algos_t</text>
</a>
</g>
</g>
<!-- Node4&#45;&gt;Node1 -->
<g id="edge3" class="edge">
<title>Node4&#45;&gt;Node1</title>
<path fill="none" stroke="#9a32cd" stroke-dasharray="5,2" d="M155.3523,-52.4321C179.6455,-53.9739 206.4362,-55.8607 231,-58 236.707,-58.497 242.6326,-59.0585 248.569,-59.6521"/>
<polygon fill="#9a32cd" stroke="#9a32cd" points="155.3063,-48.9225 145.1076,-51.7927 154.8702,-55.9089 155.3063,-48.9225"/>
<text text-anchor="middle" x="200.5" y="-61" font-family="Helvetica,sans-Serif" font-size="10.00" fill="#000000"> auths</text>
</g>
<!-- Node5 -->
<g id="node5" class="node">
<title>Node5</title>
<g id="a_node5"><a xlink:href="structodp__ipsec__test__capability__t.html" target="_top" xlink:title="IPSEC TEST capability. ">
<polygon fill="#ffffff" stroke="#000000" points="0,-.5 0,-19.5 152,-19.5 152,-.5 0,-.5"/>
<text text-anchor="middle" x="76" y="-7.5" font-family="Helvetica,sans-Serif" font-size="10.00" fill="#000000">odp_ipsec_test_capability_t</text>
</a>
</g>
</g>
<!-- Node5&#45;&gt;Node1 -->
<g id="edge4" class="edge">
<title>Node5&#45;&gt;Node1</title>
<path fill="none" stroke="#9a32cd" stroke-dasharray="5,2" d="M152.0434,-21.2209C177.3532,-25.6215 205.5664,-31.2525 231,-38 250.9955,-43.3048 273.0738,-51.2372 289.279,-57.4655"/>
<polygon fill="#9a32cd" stroke="#9a32cd" points="152.5766,-17.7614 142.1311,-19.5338 151.402,-24.6622 152.5766,-17.7614"/>
<text text-anchor="middle" x="200.5" y="-41" font-family="Helvetica,sans-Serif" font-size="10.00" fill="#000000"> test</text>
</g>
</g>
</svg>
