<?xml version="1.0" encoding="UTF-8" standalone="no"?>
<!DOCTYPE svg PUBLIC "-//W3C//DTD SVG 1.1//EN"
 "http://www.w3.org/Graphics/SVG/1.1/DTD/svg11.dtd">
<!-- Generated by graphviz version 2.40.1 (20161225.0304)
 -->
<!-- Title: thread.h Pages: 1 -->
<svg width="294pt" height="252pt"
 viewBox="0.00 0.00 294.00 252.00" xmlns="http://www.w3.org/2000/svg" xmlns:xlink="http://www.w3.org/1999/xlink">
<g id="graph0" class="graph" transform="scale(1 1) rotate(0) translate(4 248)">
<title>thread.h</title>
<polygon fill="#ffffff" stroke="transparent" points="-4,4 -4,-248 290,-248 290,4 -4,4"/>
<!-- Node6 -->
<g id="node1" class="node">
<title>Node6</title>
<polygon fill="#bfbfbf" stroke="#000000" points="119.5,-224.5 119.5,-243.5 176.5,-243.5 176.5,-224.5 119.5,-224.5"/>
<text text-anchor="middle" x="148" y="-231.5" font-family="Helvetica,sans-Serif" font-size="10.00" fill="#000000">thread.h</text>
</g>
<!-- Node7 -->
<g id="node2" class="node">
<title>Node7</title>
<g id="a_node2"><a xlink:href="abi-default_2rwlock__recursive_8h.html" target="_top" xlink:title="ODP recursive read/write lock. ">
<polygon fill="#ffffff" stroke="#000000" points="0,-168.5 0,-187.5 108,-187.5 108,-168.5 0,-168.5"/>
<text text-anchor="middle" x="54" y="-175.5" font-family="Helvetica,sans-Serif" font-size="10.00" fill="#000000">rwlock_recursive.h</text>
</a>
</g>
</g>
<!-- Node6&#45;&gt;Node7 -->
<g id="edge1" class="edge">
<title>Node6&#45;&gt;Node7</title>
<path fill="none" stroke="#191970" d="M122.8995,-219.0465C106.174,-209.0824 84.6832,-196.2794 70.1859,-187.6427"/>
<polygon fill="#191970" stroke="#191970" points="121.2441,-222.1343 131.6264,-224.2455 124.8268,-216.1206 121.2441,-222.1343"/>
</g>
<!-- Node8 -->
<g id="node3" class="node">
<title>Node8</title>
<g id="a_node3"><a xlink:href="cpu_8h.html" target="_top" xlink:title="ODP CPU. ">
<polygon fill="#ffffff" stroke="#000000" points="126.5,-168.5 126.5,-187.5 169.5,-187.5 169.5,-168.5 126.5,-168.5"/>
<text text-anchor="middle" x="148" y="-175.5" font-family="Helvetica,sans-Serif" font-size="10.00" fill="#000000">cpu.h</text>
</a>
</g>
</g>
<!-- Node6&#45;&gt;Node8 -->
<g id="edge2" class="edge">
<title>Node6&#45;&gt;Node8</title>
<path fill="none" stroke="#191970" d="M148,-214.1575C148,-205.155 148,-194.9199 148,-187.6427"/>
<polygon fill="#191970" stroke="#191970" points="144.5001,-214.2455 148,-224.2455 151.5001,-214.2456 144.5001,-214.2455"/>
</g>
<!-- Node10 -->
<g id="node5" class="node">
<title>Node10</title>
<g id="a_node5"><a xlink:href="spec_2init_8h.html" target="_top" xlink:title="init.h">
<polygon fill="#ffffff" stroke="#000000" points="204.5,-168.5 204.5,-187.5 245.5,-187.5 245.5,-168.5 204.5,-168.5"/>
<text text-anchor="middle" x="225" y="-175.5" font-family="Helvetica,sans-Serif" font-size="10.00" fill="#000000">init.h</text>
</a>
</g>
</g>
<!-- Node6&#45;&gt;Node10 -->
<g id="edge4" class="edge">
<title>Node6&#45;&gt;Node10</title>
<path fill="none" stroke="#191970" d="M169.7116,-218.2097C183.2353,-208.3743 200.1958,-196.0394 211.7413,-187.6427"/>
<polygon fill="#191970" stroke="#191970" points="167.4411,-215.5332 161.4124,-224.2455 171.5584,-221.1944 167.4411,-215.5332"/>
</g>
<!-- Node9 -->
<g id="node4" class="node">
<title>Node9</title>
<g id="a_node4"><a xlink:href="ticketlock__inlines_8h_source.html" target="_top" xlink:title="ticketlock_inlines.h">
<polygon fill="#ffffff" stroke="#000000" points="84.5,-112.5 84.5,-131.5 195.5,-131.5 195.5,-112.5 84.5,-112.5"/>
<text text-anchor="middle" x="140" y="-119.5" font-family="Helvetica,sans-Serif" font-size="10.00" fill="#000000">ticketlock_inlines.h</text>
</a>
</g>
</g>
<!-- Node8&#45;&gt;Node9 -->
<g id="edge3" class="edge">
<title>Node8&#45;&gt;Node9</title>
<path fill="none" stroke="#191970" d="M145.1654,-158.1575C143.8793,-149.155 142.4171,-138.9199 141.3775,-131.6427"/>
<polygon fill="#191970" stroke="#191970" points="141.7274,-158.8411 146.6065,-168.2455 148.657,-157.851 141.7274,-158.8411"/>
</g>
<!-- Node11 -->
<g id="node6" class="node">
<title>Node11</title>
<g id="a_node6"><a xlink:href="init_8h.html" target="_top" xlink:title="ODP initialization. ">
<polygon fill="#ffffff" stroke="#000000" points="213.5,-112.5 213.5,-131.5 254.5,-131.5 254.5,-112.5 213.5,-112.5"/>
<text text-anchor="middle" x="234" y="-119.5" font-family="Helvetica,sans-Serif" font-size="10.00" fill="#000000">init.h</text>
</a>
</g>
</g>
<!-- Node10&#45;&gt;Node11 -->
<g id="edge5" class="edge">
<title>Node10&#45;&gt;Node11</title>
<path fill="none" stroke="#191970" d="M228.189,-158.1575C229.6358,-149.155 231.2807,-138.9199 232.4503,-131.6427"/>
<polygon fill="#191970" stroke="#191970" points="224.6989,-157.8168 226.5677,-168.2455 231.6102,-158.9276 224.6989,-157.8168"/>
</g>
<!-- Node12 -->
<g id="node7" class="node">
<title>Node12</title>
<g id="a_node7"><a xlink:href="spec_2shared__memory_8h.html" target="_top" xlink:title="ODP shared memory. ">
<polygon fill="#ffffff" stroke="#000000" points="182,-56.5 182,-75.5 286,-75.5 286,-56.5 182,-56.5"/>
<text text-anchor="middle" x="234" y="-63.5" font-family="Helvetica,sans-Serif" font-size="10.00" fill="#000000">shared_memory.h</text>
</a>
</g>
</g>
<!-- Node11&#45;&gt;Node12 -->
<g id="edge6" class="edge">
<title>Node11&#45;&gt;Node12</title>
<path fill="none" stroke="#191970" d="M234,-102.1575C234,-93.155 234,-82.9199 234,-75.6427"/>
<polygon fill="#191970" stroke="#191970" points="230.5001,-102.2455 234,-112.2455 237.5001,-102.2456 230.5001,-102.2455"/>
</g>
<!-- Node13 -->
<g id="node8" class="node">
<title>Node13</title>
<g id="a_node8"><a xlink:href="shared__memory_8h.html" target="_top" xlink:title="ODP shared memory. ">
<polygon fill="#ffffff" stroke="#000000" points="182,-.5 182,-19.5 286,-19.5 286,-.5 182,-.5"/>
<text text-anchor="middle" x="234" y="-7.5" font-family="Helvetica,sans-Serif" font-size="10.00" fill="#000000">shared_memory.h</text>
</a>
</g>
</g>
<!-- Node12&#45;&gt;Node13 -->
<g id="edge7" class="edge">
<title>Node12&#45;&gt;Node13</title>
<path fill="none" stroke="#191970" d="M234,-46.1575C234,-37.155 234,-26.9199 234,-19.6427"/>
<polygon fill="#191970" stroke="#191970" points="230.5001,-46.2455 234,-56.2455 237.5001,-46.2456 230.5001,-46.2455"/>
</g>
</g>
</svg>
