<?xml version="1.0" encoding="UTF-8" standalone="no"?>
<!DOCTYPE svg PUBLIC "-//W3C//DTD SVG 1.1//EN"
 "http://www.w3.org/Graphics/SVG/1.1/DTD/svg11.dtd">
<!-- Generated by graphviz version 2.40.1 (20161225.0304)
 -->
<!-- Title: traffic_mngr.h Pages: 1 -->
<svg width="1574pt" height="912pt"
 viewBox="0.00 0.00 1574.00 912.00" xmlns="http://www.w3.org/2000/svg" xmlns:xlink="http://www.w3.org/1999/xlink">
<g id="graph0" class="graph" transform="scale(1 1) rotate(0) translate(4 908)">
<title>traffic_mngr.h</title>
<polygon fill="#ffffff" stroke="transparent" points="-4,4 -4,-908 1570,-908 1570,4 -4,4"/>
<!-- Node0 -->
<g id="node1" class="node">
<title>Node0</title>
<polygon fill="#bfbfbf" stroke="#000000" points="72,-884.5 72,-903.5 156,-903.5 156,-884.5 72,-884.5"/>
<text text-anchor="middle" x="114" y="-891.5" font-family="Helvetica,sans-Serif" font-size="10.00" fill="#000000">traffic_mngr.h</text>
</g>
<!-- Node1 -->
<g id="node2" class="node">
<title>Node1</title>
<polygon fill="#ffffff" stroke="#bfbfbf" points="1,-817.5 1,-847.5 103,-847.5 103,-817.5 1,-817.5"/>
<text text-anchor="start" x="9" y="-835.5" font-family="Helvetica,sans-Serif" font-size="10.00" fill="#000000">odp/api/abi/traffic</text>
<text text-anchor="middle" x="52" y="-824.5" font-family="Helvetica,sans-Serif" font-size="10.00" fill="#000000">_mngr.h</text>
</g>
<!-- Node0&#45;&gt;Node1 -->
<g id="edge1" class="edge">
<title>Node0&#45;&gt;Node1</title>
<path fill="none" stroke="#191970" d="M104.3125,-884.3906C96.31,-876.4527 84.635,-864.8718 74.3437,-854.6635"/>
<polygon fill="#191970" stroke="#191970" points="76.7314,-852.1021 67.1669,-847.5446 71.8017,-857.0719 76.7314,-852.1021"/>
</g>
<!-- Node2 -->
<g id="node3" class="node">
<title>Node2</title>
<g id="a_node3"><a xlink:href="spec_2traffic__mngr_8h.html" target="_top" xlink:title="Copyright (c) 2015&#45;2018, Linaro Limited All rights reserved. ">
<polygon fill="#ffffff" stroke="#000000" points="121,-817.5 121,-847.5 231,-847.5 231,-817.5 121,-817.5"/>
<text text-anchor="start" x="129" y="-835.5" font-family="Helvetica,sans-Serif" font-size="10.00" fill="#000000">odp/api/spec/traffic</text>
<text text-anchor="middle" x="176" y="-824.5" font-family="Helvetica,sans-Serif" font-size="10.00" fill="#000000">_mngr.h</text>
</a>
</g>
</g>
<!-- Node0&#45;&gt;Node2 -->
<g id="edge2" class="edge">
<title>Node0&#45;&gt;Node2</title>
<path fill="none" stroke="#191970" d="M123.6875,-884.3906C131.69,-876.4527 143.365,-864.8718 153.6563,-854.6635"/>
<polygon fill="#191970" stroke="#191970" points="156.1983,-857.0719 160.8331,-847.5446 151.2686,-852.1021 156.1983,-857.0719"/>
</g>
<!-- Node3 -->
<g id="node4" class="node">
<title>Node3</title>
<polygon fill="#ffffff" stroke="#bfbfbf" points="1223.5,-.5 1223.5,-19.5 1344.5,-19.5 1344.5,-.5 1223.5,-.5"/>
<text text-anchor="middle" x="1284" y="-7.5" font-family="Helvetica,sans-Serif" font-size="10.00" fill="#000000">odp/visibility_begin.h</text>
</g>
<!-- Node2&#45;&gt;Node3 -->
<g id="edge3" class="edge">
<title>Node2&#45;&gt;Node3</title>
<path fill="none" stroke="#191970" d="M231.3474,-830.7729C489.8707,-822.3491 1566,-783.1888 1566,-715 1566,-715 1566,-715 1566,-133 1566,-90.6843 1545.5936,-78.8847 1510,-56 1484.6616,-39.7088 1411.0352,-26.6771 1354.6375,-18.7012"/>
<polygon fill="#191970" stroke="#191970" points="1355.0655,-15.2271 1344.6794,-17.3196 1354.1035,-22.1607 1355.0655,-15.2271"/>
</g>
<!-- Node4 -->
<g id="node5" class="node">
<title>Node4</title>
<g id="a_node5"><a xlink:href="std__types_8h.html" target="_top" xlink:title="Standard C language types and definitions for ODP. ">
<polygon fill="#ffffff" stroke="#000000" points="230,-246.5 230,-265.5 342,-265.5 342,-246.5 230,-246.5"/>
<text text-anchor="middle" x="286" y="-253.5" font-family="Helvetica,sans-Serif" font-size="10.00" fill="#000000">odp/api/std_types.h</text>
</a>
</g>
</g>
<!-- Node2&#45;&gt;Node4 -->
<g id="edge4" class="edge">
<title>Node2&#45;&gt;Node4</title>
<path fill="none" stroke="#191970" d="M134.221,-817.39C93.604,-799.6949 38,-766.1329 38,-715 38,-715 38,-715 38,-435 38,-338.7704 162.2834,-289.0809 234.8862,-268.2634"/>
<polygon fill="#191970" stroke="#191970" points="236.0724,-271.5665 244.7695,-265.5158 234.1973,-264.8223 236.0724,-271.5665"/>
</g>
<!-- Node11 -->
<g id="node12" class="node">
<title>Node11</title>
<polygon fill="#ffffff" stroke="#bfbfbf" points="557,-.5 557,-19.5 669,-19.5 669,-.5 557,-.5"/>
<text text-anchor="middle" x="613" y="-7.5" font-family="Helvetica,sans-Serif" font-size="10.00" fill="#000000">odp/visibility_end.h</text>
</g>
<!-- Node2&#45;&gt;Node11 -->
<g id="edge79" class="edge">
<title>Node2&#45;&gt;Node11</title>
<path fill="none" stroke="#191970" d="M123.7237,-817.4683C100.3203,-809.1252 73.2711,-797.1224 52,-781 22.2388,-758.4426 0,-752.3439 0,-715 0,-715 0,-715 0,-133 0,-73.6871 53.3447,-76.5065 109,-56 187.5294,-27.0654 428.2737,-15.7213 546.3254,-11.8105"/>
<polygon fill="#191970" stroke="#191970" points="546.7893,-15.2975 556.6711,-11.4765 546.5633,-8.3011 546.7893,-15.2975"/>
</g>
<!-- Node12 -->
<g id="node13" class="node">
<title>Node12</title>
<g id="a_node13"><a xlink:href="packet__io_8h.html" target="_top" xlink:title="ODP Packet IO. ">
<polygon fill="#ffffff" stroke="#000000" points="220,-761.5 220,-780.5 332,-780.5 332,-761.5 220,-761.5"/>
<text text-anchor="middle" x="276" y="-768.5" font-family="Helvetica,sans-Serif" font-size="10.00" fill="#000000">odp/api/packet_io.h</text>
</a>
</g>
</g>
<!-- Node2&#45;&gt;Node12 -->
<g id="edge15" class="edge">
<title>Node2&#45;&gt;Node12</title>
<path fill="none" stroke="#191970" d="M200.4628,-817.4554C216.1235,-807.8241 236.3532,-795.3828 251.9356,-785.7996"/>
<polygon fill="#191970" stroke="#191970" points="253.819,-788.7503 260.5035,-780.5303 250.152,-782.7876 253.819,-788.7503"/>
</g>
<!-- Node5 -->
<g id="node6" class="node">
<title>Node5</title>
<polygon fill="#ffffff" stroke="#bfbfbf" points="201,-185 201,-204 331,-204 331,-185 201,-185"/>
<text text-anchor="middle" x="266" y="-192" font-family="Helvetica,sans-Serif" font-size="10.00" fill="#000000">odp/api/abi/std_types.h</text>
</g>
<!-- Node4&#45;&gt;Node5 -->
<g id="edge5" class="edge">
<title>Node4&#45;&gt;Node5</title>
<path fill="none" stroke="#191970" d="M282.875,-246.3906C280.0735,-237.776 275.8767,-224.8708 272.3694,-214.0858"/>
<polygon fill="#191970" stroke="#191970" points="275.5902,-212.6722 269.1691,-204.2449 268.9333,-214.8371 275.5902,-212.6722"/>
</g>
<!-- Node6 -->
<g id="node7" class="node">
<title>Node6</title>
<g id="a_node7"><a xlink:href="spec_2std__types_8h.html" target="_top" xlink:title="Standard C language types and definitions for ODP. ">
<polygon fill="#ffffff" stroke="#000000" points="349.5,-185 349.5,-204 486.5,-204 486.5,-185 349.5,-185"/>
<text text-anchor="middle" x="418" y="-192" font-family="Helvetica,sans-Serif" font-size="10.00" fill="#000000">odp/api/spec/std_types.h</text>
</a>
</g>
</g>
<!-- Node4&#45;&gt;Node6 -->
<g id="edge6" class="edge">
<title>Node4&#45;&gt;Node6</title>
<path fill="none" stroke="#191970" d="M306.625,-246.3906C328.5173,-236.1908 363.3193,-219.9763 388.1927,-208.3875"/>
<polygon fill="#191970" stroke="#191970" points="389.9335,-211.4377 397.5198,-204.0419 386.9772,-205.0926 389.9335,-211.4377"/>
</g>
<!-- Node6&#45;&gt;Node3 -->
<g id="edge7" class="edge">
<title>Node6&#45;&gt;Node3</title>
<path fill="none" stroke="#191970" d="M486.6052,-186.3316C572.8595,-174.0192 723.7091,-145.6138 840,-87 859.4634,-77.1899 857.9124,-64.4588 878,-56 936.782,-31.2473 1113.3109,-18.5718 1213.1626,-13.22"/>
<polygon fill="#191970" stroke="#191970" points="1213.3686,-16.7141 1223.1712,-12.6943 1213.0014,-9.7237 1213.3686,-16.7141"/>
</g>
<!-- Node7 -->
<g id="node8" class="node">
<title>Node7</title>
<polygon fill="#ffffff" stroke="#bfbfbf" points="328.5,-123.5 328.5,-142.5 381.5,-142.5 381.5,-123.5 328.5,-123.5"/>
<text text-anchor="middle" x="355" y="-130.5" font-family="Helvetica,sans-Serif" font-size="10.00" fill="#000000">stdint.h</text>
</g>
<!-- Node6&#45;&gt;Node7 -->
<g id="edge8" class="edge">
<title>Node6&#45;&gt;Node7</title>
<path fill="none" stroke="#191970" d="M408.1563,-184.8906C398.5961,-175.5581 383.8777,-161.1902 372.3505,-149.9374"/>
<polygon fill="#191970" stroke="#191970" points="374.5832,-147.2257 364.9825,-142.7449 369.6934,-152.2348 374.5832,-147.2257"/>
</g>
<!-- Node8 -->
<g id="node9" class="node">
<title>Node8</title>
<g id="a_node9"><a xlink:href="align_8h.html" target="_top" xlink:title="ODP alignments. ">
<polygon fill="#ffffff" stroke="#000000" points="399.5,-123.5 399.5,-142.5 488.5,-142.5 488.5,-123.5 399.5,-123.5"/>
<text text-anchor="middle" x="444" y="-130.5" font-family="Helvetica,sans-Serif" font-size="10.00" fill="#000000">odp/api/align.h</text>
</a>
</g>
</g>
<!-- Node6&#45;&gt;Node8 -->
<g id="edge9" class="edge">
<title>Node6&#45;&gt;Node8</title>
<path fill="none" stroke="#191970" d="M422.0625,-184.8906C425.7424,-176.1862 431.2742,-163.1015 435.862,-152.2494"/>
<polygon fill="#191970" stroke="#191970" points="439.21,-153.3185 439.8802,-142.7449 432.7625,-150.5927 439.21,-153.3185"/>
</g>
<!-- Node6&#45;&gt;Node11 -->
<g id="edge14" class="edge">
<title>Node6&#45;&gt;Node11</title>
<path fill="none" stroke="#191970" d="M386.519,-184.8664C364.9075,-176.8018 336.9855,-163.303 319,-143 292.624,-113.2254 271.9847,-86.0903 298,-56 314.0375,-37.4504 459.2284,-22.5123 546.7927,-15.0933"/>
<polygon fill="#191970" stroke="#191970" points="547.2374,-18.5684 556.9112,-14.2477 546.6544,-11.5927 547.2374,-18.5684"/>
</g>
<!-- Node9 -->
<g id="node10" class="node">
<title>Node9</title>
<polygon fill="#ffffff" stroke="#bfbfbf" points="307.5,-62 307.5,-81 414.5,-81 414.5,-62 307.5,-62"/>
<text text-anchor="middle" x="361" y="-69" font-family="Helvetica,sans-Serif" font-size="10.00" fill="#000000">odp/api/abi/align.h</text>
</g>
<!-- Node8&#45;&gt;Node9 -->
<g id="edge10" class="edge">
<title>Node8&#45;&gt;Node9</title>
<path fill="none" stroke="#191970" d="M431.0313,-123.3906C417.9966,-113.7324 397.6836,-98.6812 382.2845,-87.271"/>
<polygon fill="#191970" stroke="#191970" points="383.9961,-84.1832 373.8777,-81.0419 379.8287,-89.8075 383.9961,-84.1832"/>
</g>
<!-- Node10 -->
<g id="node11" class="node">
<title>Node10</title>
<g id="a_node11"><a xlink:href="spec_2align_8h.html" target="_top" xlink:title="ODP alignments. ">
<polygon fill="#ffffff" stroke="#000000" points="433,-62 433,-81 547,-81 547,-62 433,-62"/>
<text text-anchor="middle" x="490" y="-69" font-family="Helvetica,sans-Serif" font-size="10.00" fill="#000000">odp/api/spec/align.h</text>
</a>
</g>
</g>
<!-- Node8&#45;&gt;Node10 -->
<g id="edge11" class="edge">
<title>Node8&#45;&gt;Node10</title>
<path fill="none" stroke="#191970" d="M451.1875,-123.3906C457.9666,-114.3273 468.2978,-100.5149 476.5973,-89.4188"/>
<polygon fill="#191970" stroke="#191970" points="479.5243,-91.349 482.7112,-81.2449 473.9188,-87.1563 479.5243,-91.349"/>
</g>
<!-- Node10&#45;&gt;Node3 -->
<g id="edge12" class="edge">
<title>Node10&#45;&gt;Node3</title>
<path fill="none" stroke="#191970" d="M547.1025,-67.0771C689.0076,-56.0857 1057.3965,-27.5518 1212.9877,-15.5003"/>
<polygon fill="#191970" stroke="#191970" points="1213.6706,-18.958 1223.3704,-14.6961 1213.13,-11.9789 1213.6706,-18.958"/>
</g>
<!-- Node10&#45;&gt;Node11 -->
<g id="edge13" class="edge">
<title>Node10&#45;&gt;Node11</title>
<path fill="none" stroke="#191970" d="M509.2188,-61.8906C529.5281,-51.7359 561.7607,-35.6196 584.9168,-24.0416"/>
<polygon fill="#191970" stroke="#191970" points="586.5372,-27.1446 593.9162,-19.5419 583.4067,-20.8836 586.5372,-27.1446"/>
</g>
<!-- Node12&#45;&gt;Node4 -->
<g id="edge16" class="edge">
<title>Node12&#45;&gt;Node4</title>
<path fill="none" stroke="#191970" d="M234.281,-761.4948C186.2815,-747.7992 114,-717.4685 114,-659 114,-659 114,-659 114,-435 114,-404.4754 115.5766,-394.0635 133,-369 164.9597,-323.0262 221.703,-288.3806 256.3792,-270.2254"/>
<polygon fill="#191970" stroke="#191970" points="258.2236,-273.2134 265.5355,-265.5462 255.0382,-266.9802 258.2236,-273.2134"/>
</g>
<!-- Node13 -->
<g id="node14" class="node">
<title>Node13</title>
<polygon fill="#ffffff" stroke="#bfbfbf" points="1144,-369.5 1144,-388.5 1248,-388.5 1248,-369.5 1144,-369.5"/>
<text text-anchor="middle" x="1196" y="-376.5" font-family="Helvetica,sans-Serif" font-size="10.00" fill="#000000">odp/api/abi/pool.h</text>
</g>
<!-- Node12&#45;&gt;Node13 -->
<g id="edge17" class="edge">
<title>Node12&#45;&gt;Node13</title>
<path fill="none" stroke="#191970" d="M332.0322,-770.3959C552.7596,-767.4418 1353.7689,-751.0981 1428,-669 1519.2093,-568.1245 1302.6234,-436.6084 1223.5268,-393.4233"/>
<polygon fill="#191970" stroke="#191970" points="1225.055,-390.271 1214.5924,-388.6027 1221.7311,-396.4315 1225.055,-390.271"/>
</g>
<!-- Node14 -->
<g id="node15" class="node">
<title>Node14</title>
<polygon fill="#ffffff" stroke="#bfbfbf" points="1392,-705.5 1392,-724.5 1538,-724.5 1538,-705.5 1392,-705.5"/>
<text text-anchor="middle" x="1465" y="-712.5" font-family="Helvetica,sans-Serif" font-size="10.00" fill="#000000">odp/api/abi/classification.h</text>
</g>
<!-- Node12&#45;&gt;Node14 -->
<g id="edge18" class="edge">
<title>Node12&#45;&gt;Node14</title>
<path fill="none" stroke="#191970" d="M332.2813,-770.0954C494.6862,-767.1741 978.0589,-756.2907 1378,-725 1379.2789,-724.8999 1380.568,-724.7956 1381.8652,-724.6874"/>
<polygon fill="#191970" stroke="#191970" points="1382.2868,-728.1638 1391.9359,-723.7884 1381.6643,-721.1915 1382.2868,-728.1638"/>
</g>
<!-- Node15 -->
<g id="node16" class="node">
<title>Node15</title>
<polygon fill="#ffffff" stroke="#bfbfbf" points="142,-369.5 142,-388.5 258,-388.5 258,-369.5 142,-369.5"/>
<text text-anchor="middle" x="200" y="-376.5" font-family="Helvetica,sans-Serif" font-size="10.00" fill="#000000">odp/api/abi/packet.h</text>
</g>
<!-- Node12&#45;&gt;Node15 -->
<g id="edge19" class="edge">
<title>Node12&#45;&gt;Node15</title>
<path fill="none" stroke="#191970" d="M261.4038,-761.2204C249.8494,-752.8168 234.038,-739.7464 224,-725 206.4364,-699.198 200,-690.2125 200,-659 200,-659 200,-659 200,-491 200,-458.7116 200,-421.1872 200,-398.8048"/>
<polygon fill="#191970" stroke="#191970" points="203.5001,-398.5883 200,-388.5884 196.5001,-398.5884 203.5001,-398.5883"/>
</g>
<!-- Node16 -->
<g id="node17" class="node">
<title>Node16</title>
<polygon fill="#ffffff" stroke="#bfbfbf" points="352,-369.5 352,-388.5 482,-388.5 482,-369.5 352,-369.5"/>
<text text-anchor="middle" x="417" y="-376.5" font-family="Helvetica,sans-Serif" font-size="10.00" fill="#000000">odp/api/abi/packet_io.h</text>
</g>
<!-- Node12&#45;&gt;Node16 -->
<g id="edge20" class="edge">
<title>Node12&#45;&gt;Node16</title>
<path fill="none" stroke="#191970" d="M270.393,-761.4834C259.8226,-742.6141 238,-698.8343 238,-659 238,-659 238,-659 238,-603 238,-505.2894 343.23,-425.73 392.3237,-393.9293"/>
<polygon fill="#191970" stroke="#191970" points="394.2292,-396.8654 400.7992,-388.5536 390.4799,-390.9541 394.2292,-396.8654"/>
</g>
<!-- Node17 -->
<g id="node18" class="node">
<title>Node17</title>
<polygon fill="#ffffff" stroke="#bfbfbf" points="500.5,-369.5 500.5,-388.5 613.5,-388.5 613.5,-369.5 500.5,-369.5"/>
<text text-anchor="middle" x="557" y="-376.5" font-family="Helvetica,sans-Serif" font-size="10.00" fill="#000000">odp/api/abi/queue.h</text>
</g>
<!-- Node12&#45;&gt;Node17 -->
<g id="edge21" class="edge">
<title>Node12&#45;&gt;Node17</title>
<path fill="none" stroke="#191970" d="M281.607,-761.4834C292.1774,-742.6141 314,-698.8343 314,-659 314,-659 314,-659 314,-603 314,-491.7109 453.4938,-420.4735 521.1037,-392.482"/>
<polygon fill="#191970" stroke="#191970" points="522.5755,-395.6622 530.5322,-388.6663 519.9495,-389.1734 522.5755,-395.6622"/>
</g>
<!-- Node18 -->
<g id="node19" class="node">
<title>Node18</title>
<g id="a_node19"><a xlink:href="spec_2packet__io_8h.html" target="_top" xlink:title="ODP Packet IO. ">
<polygon fill="#ffffff" stroke="#000000" points="726.5,-705.5 726.5,-724.5 863.5,-724.5 863.5,-705.5 726.5,-705.5"/>
<text text-anchor="middle" x="795" y="-712.5" font-family="Helvetica,sans-Serif" font-size="10.00" fill="#000000">odp/api/spec/packet_io.h</text>
</a>
</g>
</g>
<!-- Node12&#45;&gt;Node18 -->
<g id="edge22" class="edge">
<title>Node12&#45;&gt;Node18</title>
<path fill="none" stroke="#191970" d="M332.0352,-764.9538C424.7168,-754.9535 610.1934,-734.9406 716.0901,-723.5144"/>
<polygon fill="#191970" stroke="#191970" points="716.5172,-726.9887 726.0839,-722.436 715.7662,-720.0291 716.5172,-726.9887"/>
</g>
<!-- Node18&#45;&gt;Node3 -->
<g id="edge23" class="edge">
<title>Node18&#45;&gt;Node3</title>
<path fill="none" stroke="#191970" d="M863.8183,-712.2135C983.7128,-706.7947 1225.8573,-693.1946 1307,-669 1427.8613,-632.9624 1528,-617.1197 1528,-491 1528,-491 1528,-491 1528,-133 1528,-54.7304 1426.65,-26.2586 1354.5883,-15.9068"/>
<polygon fill="#191970" stroke="#191970" points="1355.0063,-12.4316 1344.6281,-14.5631 1354.0704,-19.3687 1355.0063,-12.4316"/>
</g>
<!-- Node18&#45;&gt;Node11 -->
<g id="edge78" class="edge">
<title>Node18&#45;&gt;Node11</title>
<path fill="none" stroke="#191970" d="M726.4857,-710.0446C637.9772,-702.978 489.194,-688.6518 438,-669 228.6397,-588.6329 76,-541.7557 76,-317.5 76,-317.5 76,-317.5 76,-133 76,-37.4382 403.1989,-16.1191 546.7853,-11.3643"/>
<polygon fill="#191970" stroke="#191970" points="546.914,-14.8621 556.7991,-11.0498 546.6942,-7.8655 546.914,-14.8621"/>
</g>
<!-- Node19 -->
<g id="node20" class="node">
<title>Node19</title>
<g id="a_node20"><a xlink:href="deprecated_8h.html" target="_top" xlink:title="Control deprecated API definitions. ">
<polygon fill="#ffffff" stroke="#000000" points="1107.5,-246.5 1107.5,-265.5 1226.5,-265.5 1226.5,-246.5 1107.5,-246.5"/>
<text text-anchor="middle" x="1167" y="-253.5" font-family="Helvetica,sans-Serif" font-size="10.00" fill="#000000">odp/api/deprecated.h</text>
</a>
</g>
</g>
<!-- Node18&#45;&gt;Node19 -->
<g id="edge24" class="edge">
<title>Node18&#45;&gt;Node19</title>
<path fill="none" stroke="#191970" d="M863.7165,-712.9789C1004.3079,-707.3477 1317.6562,-686.6445 1390,-613 1448.7062,-553.2383 1452,-518.7728 1452,-435 1452,-435 1452,-435 1452,-379 1452,-331.8428 1420.0901,-325.1388 1379,-302 1354.8758,-288.4151 1288.536,-275.2617 1236.4276,-266.525"/>
<polygon fill="#191970" stroke="#191970" points="1236.9819,-263.0692 1226.5451,-264.8919 1235.8406,-269.9755 1236.9819,-263.0692"/>
</g>
<!-- Node21 -->
<g id="node22" class="node">
<title>Node21</title>
<g id="a_node22"><a xlink:href="packet__io__stats_8h.html" target="_top" xlink:title="ODP packet IO stats. ">
<polygon fill="#ffffff" stroke="#000000" points="1087.5,-649.5 1087.5,-668.5 1228.5,-668.5 1228.5,-649.5 1087.5,-649.5"/>
<text text-anchor="middle" x="1158" y="-656.5" font-family="Helvetica,sans-Serif" font-size="10.00" fill="#000000">odp/api/packet_io_stats.h</text>
</a>
</g>
</g>
<!-- Node18&#45;&gt;Node21 -->
<g id="edge28" class="edge">
<title>Node18&#45;&gt;Node21</title>
<path fill="none" stroke="#191970" d="M856.9895,-705.4369C920.5498,-695.6314 1019.3101,-680.3957 1086.2223,-670.0731"/>
<polygon fill="#191970" stroke="#191970" points="1086.9168,-673.5075 1096.2662,-668.5237 1085.8495,-666.5893 1086.9168,-673.5075"/>
</g>
<!-- Node23 -->
<g id="node24" class="node">
<title>Node23</title>
<g id="a_node24"><a xlink:href="queue_8h.html" target="_top" xlink:title="ODP queue. ">
<polygon fill="#ffffff" stroke="#000000" points="819.5,-649.5 819.5,-668.5 914.5,-668.5 914.5,-649.5 819.5,-649.5"/>
<text text-anchor="middle" x="867" y="-656.5" font-family="Helvetica,sans-Serif" font-size="10.00" fill="#000000">odp/api/queue.h</text>
</a>
</g>
</g>
<!-- Node18&#45;&gt;Node23 -->
<g id="edge32" class="edge">
<title>Node18&#45;&gt;Node23</title>
<path fill="none" stroke="#191970" d="M807.5414,-705.2455C818.2787,-696.8943 833.9473,-684.7076 846.5047,-674.9408"/>
<polygon fill="#191970" stroke="#191970" points="848.8575,-677.5449 854.6023,-668.6427 844.5599,-672.0194 848.8575,-677.5449"/>
</g>
<!-- Node29 -->
<g id="node30" class="node">
<title>Node29</title>
<g id="a_node30"><a xlink:href="packet_8h.html" target="_top" xlink:title="ODP packet descriptor. ">
<polygon fill="#ffffff" stroke="#000000" points="712,-425.5 712,-444.5 810,-444.5 810,-425.5 712,-425.5"/>
<text text-anchor="middle" x="761" y="-432.5" font-family="Helvetica,sans-Serif" font-size="10.00" fill="#000000">odp/api/packet.h</text>
</a>
</g>
</g>
<!-- Node18&#45;&gt;Node29 -->
<g id="edge77" class="edge">
<title>Node18&#45;&gt;Node29</title>
<path fill="none" stroke="#191970" d="M782.9455,-705.2989C762.2115,-687.4329 722,-647.0991 722,-603 722,-603 722,-603 722,-547 722,-512.5398 738.6696,-475.2666 750.2124,-453.5877"/>
<polygon fill="#191970" stroke="#191970" points="753.3006,-455.2355 755.0767,-444.7906 747.1748,-451.8481 753.3006,-455.2355"/>
</g>
<!-- Node31 -->
<g id="node32" class="node">
<title>Node31</title>
<g id="a_node32"><a xlink:href="time_8h.html" target="_top" xlink:title="ODP time. ">
<polygon fill="#ffffff" stroke="#000000" points="670.5,-308 670.5,-327 757.5,-327 757.5,-308 670.5,-308"/>
<text text-anchor="middle" x="714" y="-315" font-family="Helvetica,sans-Serif" font-size="10.00" fill="#000000">odp/api/time.h</text>
</a>
</g>
</g>
<!-- Node18&#45;&gt;Node31 -->
<g id="edge76" class="edge">
<title>Node18&#45;&gt;Node31</title>
<path fill="none" stroke="#191970" d="M726.091,-707.5195C619.6231,-694.4923 422.5258,-664.0427 376,-613 308.2105,-538.6293 350.353,-489.3611 343,-389 342.3505,-380.1349 337.1627,-375.7036 343,-369 363.5188,-345.4362 562.3463,-328.226 660.1776,-321.1112"/>
<polygon fill="#191970" stroke="#191970" points="660.4485,-324.6008 670.1723,-320.3939 659.9474,-317.6188 660.4485,-324.6008"/>
</g>
<!-- Node20 -->
<g id="node21" class="node">
<title>Node20</title>
<g id="a_node21"><a xlink:href="spec_2deprecated_8h.html" target="_top" xlink:title="Macro for deprecated API definitions. ">
<polygon fill="#ffffff" stroke="#000000" points="1057.5,-62 1057.5,-81 1202.5,-81 1202.5,-62 1057.5,-62"/>
<text text-anchor="middle" x="1130" y="-69" font-family="Helvetica,sans-Serif" font-size="10.00" fill="#000000">odp/api/spec/deprecated.h</text>
</a>
</g>
</g>
<!-- Node19&#45;&gt;Node20 -->
<g id="edge25" class="edge">
<title>Node19&#45;&gt;Node20</title>
<path fill="none" stroke="#191970" d="M1150.5823,-246.2212C1138.7924,-238.1641 1123.8253,-225.5536 1117,-210 1099.6082,-170.3671 1112.9372,-118.3504 1122.4982,-90.7107"/>
<polygon fill="#191970" stroke="#191970" points="1125.8734,-91.6721 1126.0259,-81.0784 1119.3004,-89.2648 1125.8734,-91.6721"/>
</g>
<!-- Node20&#45;&gt;Node3 -->
<g id="edge26" class="edge">
<title>Node20&#45;&gt;Node3</title>
<path fill="none" stroke="#191970" d="M1154.0625,-61.8906C1180.0556,-51.5103 1221.6478,-34.9004 1250.7547,-23.2766"/>
<polygon fill="#191970" stroke="#191970" points="1252.1177,-26.5011 1260.1065,-19.5419 1249.5215,-20.0003 1252.1177,-26.5011"/>
</g>
<!-- Node20&#45;&gt;Node11 -->
<g id="edge27" class="edge">
<title>Node20&#45;&gt;Node11</title>
<path fill="none" stroke="#191970" d="M1057.3607,-61.9619C1041.7421,-59.9546 1025.3251,-57.8775 1010,-56 893.8326,-41.768 758.3952,-26.3203 679.5146,-17.4376"/>
<polygon fill="#191970" stroke="#191970" points="679.5674,-13.9215 669.2388,-16.2816 678.7848,-20.8777 679.5674,-13.9215"/>
</g>
<!-- Node22 -->
<g id="node23" class="node">
<title>Node22</title>
<g id="a_node23"><a xlink:href="spec_2packet__io__stats_8h.html" target="_top" xlink:title="ODP Packet IO. ">
<polygon fill="#ffffff" stroke="#000000" points="887,-56.5 887,-86.5 1001,-86.5 1001,-56.5 887,-56.5"/>
<text text-anchor="start" x="895" y="-74.5" font-family="Helvetica,sans-Serif" font-size="10.00" fill="#000000">odp/api/spec/packet</text>
<text text-anchor="middle" x="944" y="-63.5" font-family="Helvetica,sans-Serif" font-size="10.00" fill="#000000">_io_stats.h</text>
</a>
</g>
</g>
<!-- Node21&#45;&gt;Node22 -->
<g id="edge29" class="edge">
<title>Node21&#45;&gt;Node22</title>
<path fill="none" stroke="#191970" d="M1228.5084,-651.9385C1279.0688,-645.2484 1340.9714,-633.1563 1357,-613 1363.8164,-604.4283 1363.7046,-574.5914 1352,-537 1326.4995,-455.1004 1315.7118,-431.536 1257,-369 1199.6243,-307.887 1161.0256,-322.3879 1099,-266 1039.6963,-212.0866 984.9032,-134.1005 959.2575,-95.2949"/>
<polygon fill="#191970" stroke="#191970" points="962.0695,-93.2 953.6643,-86.7499 956.2126,-97.0337 962.0695,-93.2"/>
</g>
<!-- Node22&#45;&gt;Node3 -->
<g id="edge30" class="edge">
<title>Node22&#45;&gt;Node3</title>
<path fill="none" stroke="#191970" d="M1001.3048,-58.7551C1005.933,-57.7974 1010.5416,-56.8674 1015,-56 1082.2058,-42.925 1159.2518,-29.9539 1213.6149,-21.1356"/>
<polygon fill="#191970" stroke="#191970" points="1214.1811,-24.5896 1223.4942,-19.5382 1213.0637,-17.6793 1214.1811,-24.5896"/>
</g>
<!-- Node22&#45;&gt;Node11 -->
<g id="edge31" class="edge">
<title>Node22&#45;&gt;Node11</title>
<path fill="none" stroke="#191970" d="M886.7221,-60.8577C827.304,-49.8178 734.7447,-32.6202 673.9894,-21.3319"/>
<polygon fill="#191970" stroke="#191970" points="674.6207,-17.8893 664.1496,-19.5036 673.3419,-24.7716 674.6207,-17.8893"/>
</g>
<!-- Node23&#45;&gt;Node4 -->
<g id="edge33" class="edge">
<title>Node23&#45;&gt;Node4</title>
<path fill="none" stroke="#191970" d="M830.2652,-649.4952C736.6003,-623.4992 486.1708,-542.6984 343,-389 312.1628,-355.8953 296.5037,-303.5466 289.9287,-275.4134"/>
<polygon fill="#191970" stroke="#191970" points="293.3359,-274.6106 287.7763,-265.5917 286.4982,-276.1092 293.3359,-274.6106"/>
</g>
<!-- Node23&#45;&gt;Node13 -->
<g id="edge37" class="edge">
<title>Node23&#45;&gt;Node13</title>
<path fill="none" stroke="#191970" d="M912.2015,-649.4977C987.9629,-632.6818 1135.7616,-595.78 1171,-557 1211.146,-512.8192 1205.2532,-435.2739 1199.7099,-398.8976"/>
<polygon fill="#191970" stroke="#191970" points="1203.0927,-397.9084 1197.9812,-388.6282 1196.1898,-399.0705 1203.0927,-397.9084"/>
</g>
<!-- Node23&#45;&gt;Node17 -->
<g id="edge35" class="edge">
<title>Node23&#45;&gt;Node17</title>
<path fill="none" stroke="#191970" d="M856.3291,-649.3618C810.8683,-608.3004 633.0423,-447.6834 575.2515,-395.4852"/>
<polygon fill="#191970" stroke="#191970" points="577.3931,-392.7032 567.626,-388.5977 572.7011,-397.898 577.3931,-392.7032"/>
</g>
<!-- Node24 -->
<g id="node25" class="node">
<title>Node24</title>
<polygon fill="#ffffff" stroke="#bfbfbf" points="940,-369.5 940,-388.5 1050,-388.5 1050,-369.5 940,-369.5"/>
<text text-anchor="middle" x="995" y="-376.5" font-family="Helvetica,sans-Serif" font-size="10.00" fill="#000000">odp/api/abi/event.h</text>
</g>
<!-- Node23&#45;&gt;Node24 -->
<g id="edge34" class="edge">
<title>Node23&#45;&gt;Node24</title>
<path fill="none" stroke="#191970" d="M876.9614,-649.2152C894.4873,-630.9019 929,-589.4496 929,-547 929,-547 929,-547 929,-491 929,-452.944 957.6331,-416.4306 977.1802,-395.9377"/>
<polygon fill="#191970" stroke="#191970" points="979.8422,-398.2238 984.396,-388.6575 974.8705,-393.2961 979.8422,-398.2238"/>
</g>
<!-- Node25 -->
<g id="node26" class="node">
<title>Node25</title>
<polygon fill="#ffffff" stroke="#bfbfbf" points="812,-369.5 812,-388.5 922,-388.5 922,-369.5 812,-369.5"/>
<text text-anchor="middle" x="867" y="-376.5" font-family="Helvetica,sans-Serif" font-size="10.00" fill="#000000">odp/api/abi/buffer.h</text>
</g>
<!-- Node23&#45;&gt;Node25 -->
<g id="edge36" class="edge">
<title>Node23&#45;&gt;Node25</title>
<path fill="none" stroke="#191970" d="M867,-649.4116C867,-630.0538 867,-584.9167 867,-547 867,-547 867,-547 867,-491 867,-458.7116 867,-421.1872 867,-398.8048"/>
<polygon fill="#191970" stroke="#191970" points="870.5001,-398.5883 867,-388.5884 863.5001,-398.5884 870.5001,-398.5883"/>
</g>
<!-- Node26 -->
<g id="node27" class="node">
<title>Node26</title>
<g id="a_node27"><a xlink:href="spec_2queue_8h.html" target="_top" xlink:title="ODP queue. ">
<polygon fill="#ffffff" stroke="#000000" points="1228,-593.5 1228,-612.5 1348,-612.5 1348,-593.5 1228,-593.5"/>
<text text-anchor="middle" x="1288" y="-600.5" font-family="Helvetica,sans-Serif" font-size="10.00" fill="#000000">odp/api/spec/queue.h</text>
</a>
</g>
</g>
<!-- Node23&#45;&gt;Node26 -->
<g id="edge38" class="edge">
<title>Node23&#45;&gt;Node26</title>
<path fill="none" stroke="#191970" d="M914.7149,-652.7134C981.6127,-643.8906 1107.0866,-627.3103 1214,-613 1215.2649,-612.8307 1216.5419,-612.6596 1217.8282,-612.4872"/>
<polygon fill="#191970" stroke="#191970" points="1218.3811,-615.9444 1227.8263,-611.1445 1217.4494,-609.0067 1218.3811,-615.9444"/>
</g>
<!-- Node26&#45;&gt;Node3 -->
<g id="edge39" class="edge">
<title>Node26&#45;&gt;Node3</title>
<path fill="none" stroke="#191970" d="M1297.2044,-593.3657C1336.7215,-551.5926 1490,-385.2003 1490,-317.5 1490,-317.5 1490,-317.5 1490,-133 1490,-67.8953 1413.211,-36.4392 1353.399,-21.8125"/>
<polygon fill="#191970" stroke="#191970" points="1354.1174,-18.3862 1343.5837,-19.5233 1352.5274,-25.2032 1354.1174,-18.3862"/>
</g>
<!-- Node26&#45;&gt;Node11 -->
<g id="edge75" class="edge">
<title>Node26&#45;&gt;Node11</title>
<path fill="none" stroke="#191970" d="M1227.8313,-598.104C1168.7911,-592.056 1084.317,-579.6693 1061,-557 1042.6803,-539.1891 1050.9078,-526.3847 1048,-501 1041.3003,-442.5124 1090.1662,-418.9435 1059,-369 1037.7173,-334.8947 767.207,-232.6588 734,-210 671.1697,-167.1278 641.5687,-158.2726 615,-87 608.1216,-68.5482 608.4947,-45.8462 610.0528,-29.889"/>
<polygon fill="#191970" stroke="#191970" points="613.5689,-29.9702 611.3099,-19.619 606.6207,-29.1196 613.5689,-29.9702"/>
</g>
<!-- Node27 -->
<g id="node28" class="node">
<title>Node27</title>
<g id="a_node28"><a xlink:href="event_8h.html" target="_top" xlink:title="ODP event. ">
<polygon fill="#ffffff" stroke="#000000" points="1070,-537.5 1070,-556.5 1162,-556.5 1162,-537.5 1070,-537.5"/>
<text text-anchor="middle" x="1116" y="-544.5" font-family="Helvetica,sans-Serif" font-size="10.00" fill="#000000">odp/api/event.h</text>
</a>
</g>
</g>
<!-- Node26&#45;&gt;Node27 -->
<g id="edge40" class="edge">
<title>Node26&#45;&gt;Node27</title>
<path fill="none" stroke="#191970" d="M1258.4321,-593.3733C1229.8312,-584.0613 1186.3212,-569.8953 1154.9181,-559.671"/>
<polygon fill="#191970" stroke="#191970" points="1155.7743,-556.269 1145.182,-556.5011 1153.6072,-562.9251 1155.7743,-556.269"/>
</g>
<!-- Node34 -->
<g id="node35" class="node">
<title>Node34</title>
<g id="a_node35"><a xlink:href="queue__types_8h.html" target="_top" xlink:title="ODP queue types. ">
<polygon fill="#ffffff" stroke="#000000" points="1258.5,-302.5 1258.5,-332.5 1369.5,-332.5 1369.5,-302.5 1258.5,-302.5"/>
<text text-anchor="start" x="1266.5" y="-320.5" font-family="Helvetica,sans-Serif" font-size="10.00" fill="#000000">odp/api/spec/queue</text>
<text text-anchor="middle" x="1314" y="-309.5" font-family="Helvetica,sans-Serif" font-size="10.00" fill="#000000">_types.h</text>
</a>
</g>
</g>
<!-- Node26&#45;&gt;Node34 -->
<g id="edge62" class="edge">
<title>Node26&#45;&gt;Node34</title>
<path fill="none" stroke="#191970" d="M1288.895,-593.1724C1292.518,-553.3885 1306.165,-403.534 1311.6732,-343.0497"/>
<polygon fill="#191970" stroke="#191970" points="1315.1813,-343.1189 1312.6028,-332.8426 1308.2102,-342.4839 1315.1813,-343.1189"/>
</g>
<!-- Node27&#45;&gt;Node24 -->
<g id="edge41" class="edge">
<title>Node27&#45;&gt;Node24</title>
<path fill="none" stroke="#191970" d="M1095.8703,-537.3575C1080.9877,-529.3718 1061.1109,-516.791 1048,-501 1022.1714,-469.8916 1006.8811,-424.2668 999.796,-398.5344"/>
<polygon fill="#191970" stroke="#191970" points="1003.0961,-397.3195 997.1821,-388.5289 996.3235,-399.0889 1003.0961,-397.3195"/>
</g>
<!-- Node28 -->
<g id="node29" class="node">
<title>Node28</title>
<g id="a_node29"><a xlink:href="spec_2event_8h.html" target="_top" xlink:title="ODP event. ">
<polygon fill="#ffffff" stroke="#000000" points="1057,-481.5 1057,-500.5 1175,-500.5 1175,-481.5 1057,-481.5"/>
<text text-anchor="middle" x="1116" y="-488.5" font-family="Helvetica,sans-Serif" font-size="10.00" fill="#000000">odp/api/spec/event.h</text>
</a>
</g>
</g>
<!-- Node27&#45;&gt;Node28 -->
<g id="edge42" class="edge">
<title>Node27&#45;&gt;Node28</title>
<path fill="none" stroke="#191970" d="M1116,-537.2455C1116,-529.9382 1116,-519.6944 1116,-510.7046"/>
<polygon fill="#191970" stroke="#191970" points="1119.5001,-510.6426 1116,-500.6427 1112.5001,-510.6427 1119.5001,-510.6426"/>
</g>
<!-- Node28&#45;&gt;Node3 -->
<g id="edge43" class="edge">
<title>Node28&#45;&gt;Node3</title>
<path fill="none" stroke="#191970" d="M1144.938,-481.4424C1226.4394,-452.5058 1452,-357.6813 1452,-194.5 1452,-194.5 1452,-194.5 1452,-133 1452,-72.8471 1381.0147,-38.9245 1331.3284,-22.548"/>
<polygon fill="#191970" stroke="#191970" points="1332.2924,-19.1821 1321.7025,-19.5041 1330.1818,-25.8564 1332.2924,-19.1821"/>
</g>
<!-- Node28&#45;&gt;Node11 -->
<g id="edge61" class="edge">
<title>Node28&#45;&gt;Node11</title>
<path fill="none" stroke="#191970" d="M1116.0894,-481.4457C1115.8896,-459.9361 1113.1226,-406.6529 1092,-369 1070.4541,-330.5925 1054.7035,-327.7803 1019,-302 859.7931,-187.0421 753.145,-242.3298 633,-87 620.2295,-70.4897 615.5669,-46.6386 613.8898,-29.8675"/>
<polygon fill="#191970" stroke="#191970" points="617.3569,-29.2857 613.1428,-19.565 610.3752,-29.792 617.3569,-29.2857"/>
</g>
<!-- Node28&#45;&gt;Node29 -->
<g id="edge44" class="edge">
<title>Node28&#45;&gt;Node29</title>
<path fill="none" stroke="#191970" d="M1056.9805,-481.6899C991.3852,-471.3425 886.061,-454.7279 820.3376,-444.3603"/>
<polygon fill="#191970" stroke="#191970" points="820.5649,-440.8529 810.1416,-442.7519 819.4741,-447.7674 820.5649,-440.8529"/>
</g>
<!-- Node29&#45;&gt;Node4 -->
<g id="edge45" class="edge">
<title>Node29&#45;&gt;Node4</title>
<path fill="none" stroke="#191970" d="M739.4177,-425.3929C719.08,-416.2642 687.8111,-402.0338 661,-389 643.4808,-380.4833 639.9485,-376.5703 622,-369 519.7294,-325.8644 394.7949,-287.4228 329.8886,-268.4703"/>
<polygon fill="#191970" stroke="#191970" points="330.579,-265.0263 319.9996,-265.5982 328.6266,-271.7485 330.579,-265.0263"/>
</g>
<!-- Node29&#45;&gt;Node13 -->
<g id="edge51" class="edge">
<title>Node29&#45;&gt;Node13</title>
<path fill="none" stroke="#191970" d="M810.0544,-428.6849C889.5627,-418.4494 1046.4502,-398.2524 1133.722,-387.0174"/>
<polygon fill="#191970" stroke="#191970" points="1134.2806,-390.4745 1143.7518,-385.7262 1133.3867,-383.5318 1134.2806,-390.4745"/>
</g>
<!-- Node29&#45;&gt;Node15 -->
<g id="edge48" class="edge">
<title>Node29&#45;&gt;Node15</title>
<path fill="none" stroke="#191970" d="M711.7067,-430.0795C611.2652,-420.0532 382.7435,-397.2418 268.1619,-385.804"/>
<polygon fill="#191970" stroke="#191970" points="268.4035,-382.3108 258.1053,-384.8002 267.7081,-389.2762 268.4035,-382.3108"/>
</g>
<!-- Node29&#45;&gt;Node16 -->
<g id="edge47" class="edge">
<title>Node29&#45;&gt;Node16</title>
<path fill="none" stroke="#191970" d="M711.7132,-426.9766C652.3392,-417.311 552.2583,-401.0188 485.4236,-390.1387"/>
<polygon fill="#191970" stroke="#191970" points="485.8361,-386.6599 475.4036,-388.5076 484.7113,-393.5689 485.8361,-386.6599"/>
</g>
<!-- Node29&#45;&gt;Node17 -->
<g id="edge49" class="edge">
<title>Node29&#45;&gt;Node17</title>
<path fill="none" stroke="#191970" d="M725.9311,-425.3733C691.5685,-415.9404 639.0608,-401.5265 601.7149,-391.2747"/>
<polygon fill="#191970" stroke="#191970" points="602.181,-387.7732 591.6112,-388.5011 600.328,-394.5235 602.181,-387.7732"/>
</g>
<!-- Node29&#45;&gt;Node24 -->
<g id="edge46" class="edge">
<title>Node29&#45;&gt;Node24</title>
<path fill="none" stroke="#191970" d="M800.9602,-425.4369C840.8392,-415.8932 902.2139,-401.2052 945.2328,-390.9101"/>
<polygon fill="#191970" stroke="#191970" points="946.2939,-394.2551 955.2047,-388.5237 944.6646,-387.4473 946.2939,-394.2551"/>
</g>
<!-- Node29&#45;&gt;Node25 -->
<g id="edge50" class="edge">
<title>Node29&#45;&gt;Node25</title>
<path fill="none" stroke="#191970" d="M779.4638,-425.2455C796.1074,-416.4527 820.7993,-403.4079 839.7192,-393.4125"/>
<polygon fill="#191970" stroke="#191970" points="841.5408,-396.4086 848.7478,-388.6427 838.2709,-390.2193 841.5408,-396.4086"/>
</g>
<!-- Node30 -->
<g id="node31" class="node">
<title>Node30</title>
<g id="a_node31"><a xlink:href="spec_2packet_8h.html" target="_top" xlink:title="ODP packet descriptor. ">
<polygon fill="#ffffff" stroke="#000000" points="670.5,-369.5 670.5,-388.5 793.5,-388.5 793.5,-369.5 670.5,-369.5"/>
<text text-anchor="middle" x="732" y="-376.5" font-family="Helvetica,sans-Serif" font-size="10.00" fill="#000000">odp/api/spec/packet.h</text>
</a>
</g>
</g>
<!-- Node29&#45;&gt;Node30 -->
<g id="edge52" class="edge">
<title>Node29&#45;&gt;Node30</title>
<path fill="none" stroke="#191970" d="M755.9486,-425.2455C751.9981,-417.617 746.3903,-406.7881 741.5942,-397.5267"/>
<polygon fill="#191970" stroke="#191970" points="744.7001,-395.9131 736.9935,-388.6427 738.4841,-399.1321 744.7001,-395.9131"/>
</g>
<!-- Node30&#45;&gt;Node3 -->
<g id="edge53" class="edge">
<title>Node30&#45;&gt;Node3</title>
<path fill="none" stroke="#191970" d="M768.8408,-369.4837C817.7457,-354.3718 898,-319.8462 898,-256 898,-256 898,-256 898,-194.5 898,-183.1168 1038.8396,-61.1327 1049,-56 1077.2375,-41.7353 1154.9596,-28.1732 1213.3474,-19.5201"/>
<polygon fill="#191970" stroke="#191970" points="1213.8852,-22.9788 1223.2734,-18.0684 1212.8721,-16.0525 1213.8852,-22.9788"/>
</g>
<!-- Node30&#45;&gt;Node11 -->
<g id="edge60" class="edge">
<title>Node30&#45;&gt;Node11</title>
<path fill="none" stroke="#191970" d="M670.4789,-372.3968C521.2089,-355.5478 152,-308.5606 152,-256 152,-256 152,-256 152,-133 152,-52.2488 419.3969,-23.1535 546.891,-13.8704"/>
<polygon fill="#191970" stroke="#191970" points="547.2055,-17.357 556.9332,-13.1592 546.7109,-10.3745 547.2055,-17.357"/>
</g>
<!-- Node30&#45;&gt;Node31 -->
<g id="edge54" class="edge">
<title>Node30&#45;&gt;Node31</title>
<path fill="none" stroke="#191970" d="M729.1875,-369.3906C726.6661,-360.776 722.889,-347.8708 719.7324,-337.0858"/>
<polygon fill="#191970" stroke="#191970" points="723.0203,-335.8591 716.8522,-327.2449 716.3021,-337.8254 723.0203,-335.8591"/>
</g>
<!-- Node31&#45;&gt;Node4 -->
<g id="edge55" class="edge">
<title>Node31&#45;&gt;Node4</title>
<path fill="none" stroke="#191970" d="M681.3623,-307.9366C673.136,-305.759 664.2867,-303.6144 656,-302 550.7169,-281.4883 426.7072,-268.2573 352.3258,-261.4757"/>
<polygon fill="#191970" stroke="#191970" points="352.4402,-257.972 342.1667,-260.5615 351.8128,-264.9438 352.4402,-257.972"/>
</g>
<!-- Node32 -->
<g id="node33" class="node">
<title>Node32</title>
<polygon fill="#ffffff" stroke="#bfbfbf" points="611.5,-246.5 611.5,-265.5 716.5,-265.5 716.5,-246.5 611.5,-246.5"/>
<text text-anchor="middle" x="664" y="-253.5" font-family="Helvetica,sans-Serif" font-size="10.00" fill="#000000">odp/api/abi/time.h</text>
</g>
<!-- Node31&#45;&gt;Node32 -->
<g id="edge56" class="edge">
<title>Node31&#45;&gt;Node32</title>
<path fill="none" stroke="#191970" d="M706.1875,-307.8906C698.746,-298.7376 687.3666,-284.7409 678.3008,-273.59"/>
<polygon fill="#191970" stroke="#191970" points="680.9467,-271.2962 671.9226,-265.7449 675.5153,-275.712 680.9467,-271.2962"/>
</g>
<!-- Node33 -->
<g id="node34" class="node">
<title>Node33</title>
<g id="a_node34"><a xlink:href="spec_2time_8h.html" target="_top" xlink:title="ODP time. ">
<polygon fill="#ffffff" stroke="#000000" points="717.5,-62 717.5,-81 830.5,-81 830.5,-62 717.5,-62"/>
<text text-anchor="middle" x="774" y="-69" font-family="Helvetica,sans-Serif" font-size="10.00" fill="#000000">odp/api/spec/time.h</text>
</a>
</g>
</g>
<!-- Node31&#45;&gt;Node33 -->
<g id="edge57" class="edge">
<title>Node31&#45;&gt;Node33</title>
<path fill="none" stroke="#191970" d="M716.3521,-307.8565C725.2754,-271.271 757.1443,-140.6083 769.2702,-90.8922"/>
<polygon fill="#191970" stroke="#191970" points="772.6949,-91.6214 771.6642,-81.0768 765.8942,-89.9627 772.6949,-91.6214"/>
</g>
<!-- Node33&#45;&gt;Node3 -->
<g id="edge58" class="edge">
<title>Node33&#45;&gt;Node3</title>
<path fill="none" stroke="#191970" d="M814.0295,-61.9511C824.0977,-59.7732 834.9105,-57.6248 845,-56 974.1779,-35.1971 1126.3231,-21.6813 1213.3378,-14.986"/>
<polygon fill="#191970" stroke="#191970" points="1213.6564,-18.4719 1223.3618,-14.2227 1213.1249,-11.4922 1213.6564,-18.4719"/>
</g>
<!-- Node33&#45;&gt;Node11 -->
<g id="edge59" class="edge">
<title>Node33&#45;&gt;Node11</title>
<path fill="none" stroke="#191970" d="M748.8438,-61.8906C721.551,-51.4652 677.808,-34.7559 647.3603,-23.1252"/>
<polygon fill="#191970" stroke="#191970" points="648.5702,-19.8408 637.9796,-19.5419 646.0723,-26.3799 648.5702,-19.8408"/>
</g>
<!-- Node34&#45;&gt;Node3 -->
<g id="edge63" class="edge">
<title>Node34&#45;&gt;Node3</title>
<path fill="none" stroke="#191970" d="M1348.5881,-302.4102C1364.5246,-293.8497 1382.4259,-281.6827 1394,-266 1413.5944,-239.45 1414,-227.4976 1414,-194.5 1414,-194.5 1414,-194.5 1414,-133 1414,-94.2287 1400.5827,-83.2471 1373,-56 1358.5921,-41.7675 1338.8789,-30.9656 1321.6669,-23.418"/>
<polygon fill="#191970" stroke="#191970" points="1322.9885,-20.177 1312.4117,-19.5585 1320.2943,-26.6378 1322.9885,-20.177"/>
</g>
<!-- Node34&#45;&gt;Node11 -->
<g id="edge74" class="edge">
<title>Node34&#45;&gt;Node11</title>
<path fill="none" stroke="#191970" d="M1258.3024,-307.458C1214.3524,-298.7502 1151.8551,-284.6176 1099,-266 958.9267,-216.6606 936.288,-174.5147 797,-123 739.9663,-101.9065 714.437,-122.4084 665,-87 644.3903,-72.2386 629.488,-46.5826 621.0526,-28.9712"/>
<polygon fill="#191970" stroke="#191970" points="624.1551,-27.3379 616.8391,-19.6746 617.7794,-30.2276 624.1551,-27.3379"/>
</g>
<!-- Node34&#45;&gt;Node19 -->
<g id="edge73" class="edge">
<title>Node34&#45;&gt;Node19</title>
<path fill="none" stroke="#191970" d="M1278.0398,-302.4554C1253.9427,-292.374 1222.487,-279.2139 1199.2097,-269.4755"/>
<polygon fill="#191970" stroke="#191970" points="1200.3558,-266.1611 1189.7798,-265.5303 1197.6541,-272.6187 1200.3558,-266.1611"/>
</g>
<!-- Node35 -->
<g id="node36" class="node">
<title>Node35</title>
<g id="a_node36"><a xlink:href="schedule__types_8h.html" target="_top" xlink:title="ODP schedule. ">
<polygon fill="#ffffff" stroke="#000000" points="1245,-246.5 1245,-265.5 1385,-265.5 1385,-246.5 1245,-246.5"/>
<text text-anchor="middle" x="1315" y="-253.5" font-family="Helvetica,sans-Serif" font-size="10.00" fill="#000000">odp/api/schedule_types.h</text>
</a>
</g>
</g>
<!-- Node34&#45;&gt;Node35 -->
<g id="edge64" class="edge">
<title>Node34&#45;&gt;Node35</title>
<path fill="none" stroke="#191970" d="M1314.2472,-302.2977C1314.3759,-294.3834 1314.5349,-284.6043 1314.6736,-276.0759"/>
<polygon fill="#191970" stroke="#191970" points="1318.1767,-275.9025 1314.8399,-265.8469 1311.1777,-275.7887 1318.1767,-275.9025"/>
</g>
<!-- Node36 -->
<g id="node37" class="node">
<title>Node36</title>
<polygon fill="#ffffff" stroke="#bfbfbf" points="1268.5,-179.5 1268.5,-209.5 1385.5,-209.5 1385.5,-179.5 1268.5,-179.5"/>
<text text-anchor="start" x="1276.5" y="-197.5" font-family="Helvetica,sans-Serif" font-size="10.00" fill="#000000">odp/api/abi/schedule</text>
<text text-anchor="middle" x="1327" y="-186.5" font-family="Helvetica,sans-Serif" font-size="10.00" fill="#000000">_types.h</text>
</g>
<!-- Node35&#45;&gt;Node36 -->
<g id="edge65" class="edge">
<title>Node35&#45;&gt;Node36</title>
<path fill="none" stroke="#191970" d="M1316.875,-246.3906C1318.2885,-239.1463 1320.2941,-228.8679 1322.1478,-219.3676"/>
<polygon fill="#191970" stroke="#191970" points="1325.5845,-220.0298 1324.0645,-209.5446 1318.7141,-218.6892 1325.5845,-220.0298"/>
</g>
<!-- Node37 -->
<g id="node38" class="node">
<title>Node37</title>
<g id="a_node38"><a xlink:href="spec_2schedule__types_8h.html" target="_top" xlink:title="ODP schedule types. ">
<polygon fill="#ffffff" stroke="#000000" points="1125.5,-179.5 1125.5,-209.5 1250.5,-209.5 1250.5,-179.5 1125.5,-179.5"/>
<text text-anchor="start" x="1133.5" y="-197.5" font-family="Helvetica,sans-Serif" font-size="10.00" fill="#000000">odp/api/spec/schedule</text>
<text text-anchor="middle" x="1188" y="-186.5" font-family="Helvetica,sans-Serif" font-size="10.00" fill="#000000">_types.h</text>
</a>
</g>
</g>
<!-- Node35&#45;&gt;Node37 -->
<g id="edge66" class="edge">
<title>Node35&#45;&gt;Node37</title>
<path fill="none" stroke="#191970" d="M1295.1563,-246.3906C1277.3318,-237.7591 1250.6124,-224.8202 1228.3145,-214.0224"/>
<polygon fill="#191970" stroke="#191970" points="1229.5934,-210.7529 1219.0677,-209.5446 1226.5425,-217.0531 1229.5934,-210.7529"/>
</g>
<!-- Node37&#45;&gt;Node3 -->
<g id="edge67" class="edge">
<title>Node37&#45;&gt;Node3</title>
<path fill="none" stroke="#191970" d="M1238.8958,-179.4954C1280.5086,-164.0239 1335.8051,-135.2295 1357,-87 1362.5431,-74.3865 1363.6568,-68.0629 1357,-56 1349.1036,-41.6908 1334.6789,-31.2233 1320.7246,-23.9219"/>
<polygon fill="#191970" stroke="#191970" points="1322.224,-20.7593 1311.6959,-19.5725 1319.186,-27.0657 1322.224,-20.7593"/>
</g>
<!-- Node37&#45;&gt;Node11 -->
<g id="edge72" class="edge">
<title>Node37&#45;&gt;Node11</title>
<path fill="none" stroke="#191970" d="M1125.1437,-182.0938C1003.6985,-157.8803 745.4257,-105.1121 708,-87 691.4907,-79.0103 653.9915,-46.73 631.3562,-26.5874"/>
<polygon fill="#191970" stroke="#191970" points="633.5408,-23.8455 623.7558,-19.7831 628.8717,-29.0609 633.5408,-23.8455"/>
</g>
<!-- Node38 -->
<g id="node39" class="node">
<title>Node38</title>
<g id="a_node39"><a xlink:href="support_8h.html" target="_top" xlink:title="ODP support API &#45; platform specific header. ">
<polygon fill="#ffffff" stroke="#000000" points="1185.5,-123.5 1185.5,-142.5 1286.5,-142.5 1286.5,-123.5 1185.5,-123.5"/>
<text text-anchor="middle" x="1236" y="-130.5" font-family="Helvetica,sans-Serif" font-size="10.00" fill="#000000">odp/api/support.h</text>
</a>
</g>
</g>
<!-- Node37&#45;&gt;Node38 -->
<g id="edge68" class="edge">
<title>Node37&#45;&gt;Node38</title>
<path fill="none" stroke="#191970" d="M1199.8652,-179.2977C1206.5975,-170.672 1215.0585,-159.8312 1222.1006,-150.8087"/>
<polygon fill="#191970" stroke="#191970" points="1224.921,-152.8836 1228.3146,-142.8469 1219.4027,-148.5766 1224.921,-152.8836"/>
</g>
<!-- Node39 -->
<g id="node40" class="node">
<title>Node39</title>
<g id="a_node40"><a xlink:href="spec_2support_8h.html" target="_top" xlink:title="ODP support API. ">
<polygon fill="#ffffff" stroke="#000000" points="1220.5,-62 1220.5,-81 1347.5,-81 1347.5,-62 1220.5,-62"/>
<text text-anchor="middle" x="1284" y="-69" font-family="Helvetica,sans-Serif" font-size="10.00" fill="#000000">odp/api/spec/support.h</text>
</a>
</g>
</g>
<!-- Node38&#45;&gt;Node39 -->
<g id="edge69" class="edge">
<title>Node38&#45;&gt;Node39</title>
<path fill="none" stroke="#191970" d="M1243.5,-123.3906C1250.5738,-114.3273 1261.3542,-100.5149 1270.0146,-89.4188"/>
<polygon fill="#191970" stroke="#191970" points="1273.0006,-91.2815 1276.3943,-81.2449 1267.4824,-86.9746 1273.0006,-91.2815"/>
</g>
<!-- Node39&#45;&gt;Node3 -->
<g id="edge70" class="edge">
<title>Node39&#45;&gt;Node3</title>
<path fill="none" stroke="#191970" d="M1284,-61.8906C1284,-53.3657 1284,-40.6392 1284,-29.9235"/>
<polygon fill="#191970" stroke="#191970" points="1287.5001,-29.7448 1284,-19.7449 1280.5001,-29.7449 1287.5001,-29.7448"/>
</g>
<!-- Node39&#45;&gt;Node11 -->
<g id="edge71" class="edge">
<title>Node39&#45;&gt;Node11</title>
<path fill="none" stroke="#191970" d="M1244.1864,-61.9229C1233.763,-59.6926 1222.5023,-57.5266 1212,-56 1019.5771,-28.0306 789.7436,-16.4027 679.0363,-12.1484"/>
<polygon fill="#191970" stroke="#191970" points="679.1456,-8.6501 669.021,-11.7712 678.8822,-15.6451 679.1456,-8.6501"/>
</g>
</g>
</svg>
